<svg id="Ebene_1" data-name="Ebene 1" xmlns="http://www.w3.org/2000/svg" viewBox="0 0 1353.2 400.98"><defs><style>.cls-1{font-size:250px;font-family:BiomeW01-Regular;}.cls-1,.cls-6{fill:#34e08f;}.cls-2,.cls-5{fill:none;stroke:#34e08f;stroke-linecap:round;stroke-miterlimit:10;}.cls-2{stroke-width:23.56px;}.cls-3{fill:#2ed265;}.cls-4{fill:#f2a13f;}.cls-5{stroke-width:20.38px;}</style></defs><text class="cls-1" transform="translate(0 261.3)">St</text><text class="cls-1" transform="translate(476.71 259.34)">ragene</text><path class="cls-2" d="M554.58,350.47" transform="translate(-320.04 -349.08)"/><path class="cls-3" d="M765.08,500.7,638.9,546.75c3.39-11.49,9.1-23.94,16-36.92l95.24-34.76a36.15,36.15,0,0,1,9.53,10.09A37.54,37.54,0,0,1,765.08,500.7Z" transform="translate(-320.04 -349.08)"/><path class="cls-4" d="M745,568.76,656.42,601.1A41.22,41.22,0,0,1,641,587a33,33,0,0,1-4.22-9.85l124.21-45.32C757.24,543.41,751.58,555.81,745,568.76Z" transform="translate(-320.04 -349.08)"/><path class="cls-3" d="M706,415.94l-100,36.48a46,46,0,0,1-20.15-18.14q-1.39-2.38-2.5-4.7L716.27,381.1C715,392,711.27,403.72,706,415.94Z" transform="translate(-320.04 -349.08)"/><path class="cls-3" d="M817.79,650.7,691.28,696.86a155,155,0,0,1,8.14-34.06l97.86-35.72A52.47,52.47,0,0,1,813.61,643,54.78,54.78,0,0,1,817.79,650.7Z" transform="translate(-320.04 -349.08)"/><path class="cls-5" d="M590.5,371.5" transform="translate(-320.04 -349.08)"/><path class="cls-6" d="M686.1,724.4a10.19,10.19,0,0,1-9-11.23q.34-3.2,1-7.07c.44-2.58,1-5.37,1.55-8.28,1.18-5.82,2.63-12.1,4.12-18,1-3.93,2-7.67,3-11,.57-1.9,1.14-3.67,1.7-5.29,3.07-8.79,7-18.49,11.3-28.16,2.15-4.83,4.37-9.65,6.62-14.33,1.81-3.76,3.62-7.43,5.42-10.94l1.31-2.55c3.91-7.52,7.88-14.94,11.74-22.18s7.6-14.33,11.07-21.2c3.21-6.36,6.18-12.54,8.77-18.47a178.87,178.87,0,0,0,6.51-16.94,89.63,89.63,0,0,0,3.49-14.62,54.78,54.78,0,0,0,.53-6.41A37.87,37.87,0,0,0,755,502a29.21,29.21,0,0,0-1.53-6.43,25.89,25.89,0,0,0-2.43-5,25.23,25.23,0,0,0-3.08-4,28.46,28.46,0,0,0-3.81-3.31h0a37.56,37.56,0,0,0-7.8-4.24,63.22,63.22,0,0,0-10-3.07,148.4,148.4,0,0,0-25.25-3c-6.19-.3-12.68-.42-19.31-.51h0l-8.23-.09c-7.56-.1-15.23-.22-22.83-.62A177.33,177.33,0,0,1,620.3,468a87.69,87.69,0,0,1-18.7-6.42,60.62,60.62,0,0,1-13.65-9,53,53,0,0,1-5.85-6,54,54,0,0,1-5-7.09q-1.62-2.74-2.91-5.47h0c-.89-1.85-1.66-3.69-2.33-5.53a54.54,54.54,0,0,1-3.19-14.36,56.4,56.4,0,0,1,.58-13.57,10.19,10.19,0,1,1,20.12,3.26,36,36,0,0,0-.39,8.65,34.57,34.57,0,0,0,2,9c.45,1.21,1,2.46,1.58,3.75s1.3,2.56,2.09,3.91a33.36,33.36,0,0,0,6.74,8.18,40.19,40.19,0,0,0,9.09,6A62.93,62.93,0,0,0,621,447.14a102.1,102.1,0,0,0,12.28,2.57,236,236,0,0,0,28.38,2.12c6.45.17,13,.22,19.67.3H682c8.8.11,17.63.28,26.22.9a145.83,145.83,0,0,1,24.85,3.64,74.87,74.87,0,0,1,15.13,5.43,54.39,54.39,0,0,1,7.85,4.71,47,47,0,0,1,6.63,5.77,45.85,45.85,0,0,1,5.55,7.12,46.93,46.93,0,0,1,4.35,8.86,49.31,49.31,0,0,1,1.61,5.37q.63,2.71,1,5.48A66.38,66.38,0,0,1,774.9,517a110,110,0,0,1-4.26,18h0a196.89,196.89,0,0,1-7.25,18.9c-1.39,3.2-2.88,6.42-4.42,9.67s-3.16,6.52-4.83,9.82c-3.59,7.1-7.4,14.31-11.28,21.58s-7.8,14.63-11.63,22c-4.22,8.13-8.69,17.42-12.81,26.7s-7.87,18.55-10.68,26.61h0c-.58,1.65-1.24,3.74-1.93,6.1s-1.39,5-2.1,7.72c-1.42,5.5-2.81,11.52-3.94,17-.76,3.67-1.4,7.12-1.86,10-.25,1.64-.45,3.1-.58,4.27A10.19,10.19,0,0,1,686.1,724.4Z" transform="translate(-320.04 -349.08)"/><path class="cls-5" d="M585.85,359.27c-5.11,16.69-3.52,12.13-3.52,12.13" transform="translate(-320.04 -349.08)"/><line class="cls-5" x1="489.25" y1="387.53" x2="488.24" y2="390.79"/><polygon class="cls-6" points="406.36 33.19 406.36 33.19 406.36 33.19 406.36 33.19"/><polygon class="cls-6" points="306.81 230.59 306.81 230.59 306.81 230.59 306.81 230.59"/><polygon class="cls-6" points="395.36 70.88 395.36 70.88 395.36 70.88 395.36 70.88"/><polygon class="cls-6" points="306.81 230.59 306.81 230.59 306.84 230.73 306.81 230.59"/><polygon class="cls-6" points="309.09 194.79 309.09 194.78 309.09 194.78 309.09 194.79"/><polygon class="cls-6" points="513.34 328.46 513.34 328.47 513.34 328.47 513.34 328.46"/><path class="cls-6" d="M816,720.27a10,10,0,0,1-2.57-1.07,10.19,10.19,0,0,1-4.69-11.38,137,137,0,0,0,3.15-15.21A95.87,95.87,0,0,0,813,677.77h0a67.82,67.82,0,0,0-.88-10.43,52.4,52.4,0,0,0-2.49-9.62c-.35-1-.74-2-1.16-2.9a45.57,45.57,0,0,0-3.39-6.25h0a41.44,41.44,0,0,0-6-7.21,44.28,44.28,0,0,0-7.25-5.65h0a57.85,57.85,0,0,0-10.16-5,86.75,86.75,0,0,0-12-3.55c-3.89-.89-8-1.59-12.24-2.17-5-.67-10.23-1.16-15.58-1.53-4.41-.31-8.9-.54-13.44-.75l-9-.38c-8.55-.36-17.13-.74-25.51-1.51a150,150,0,0,1-26.41-4.44,76.57,76.57,0,0,1-16.05-6.32A54.83,54.83,0,0,1,641,602.67a49.23,49.23,0,0,1-8.63-10.13h0a43.2,43.2,0,0,1-4.16-8.4c-.53-1.47-1-3-1.37-4.47a50.71,50.71,0,0,1-1.35-8.75,61.69,61.69,0,0,1,.09-8.91,89.53,89.53,0,0,1,3.55-18.15,160.91,160.91,0,0,1,7.12-19.1c2.83-6.47,6.08-13,9.58-19.68,4.15-7.86,8.65-15.83,13.27-23.83s9.35-16,13.95-24c4.5-7.8,8.87-15.55,12.89-23.14s7.66-15,10.73-22.18h0a159.69,159.69,0,0,0,6.22-16.83,88.05,88.05,0,0,0,3.26-15.15h0a57.29,57.29,0,0,0,.39-6.26,44.37,44.37,0,0,0-.33-5.75,10.19,10.19,0,1,1,20.22-2.54,70.62,70.62,0,0,1,0,16.88,109.61,109.61,0,0,1-4,18.68,179.32,179.32,0,0,1-7,19c-3.36,7.84-7.25,15.74-11.45,23.68s-8.68,15.88-13.25,23.8c-4.66,8.08-9.4,16.12-14,24q-2.07,3.58-4.08,7.12c-3.09,5.44-6,10.79-8.81,16h0c-3.34,6.34-6.37,12.49-9,18.36a143.26,143.26,0,0,0-6.22,16.64v.06a75.13,75.13,0,0,0-2.42,10.75,43.73,43.73,0,0,0-.43,9.17,28.91,28.91,0,0,0,.79,5.16c.21.84.46,1.65.74,2.43a22.77,22.77,0,0,0,2.17,4.4,29.17,29.17,0,0,0,5.07,6,34.87,34.87,0,0,0,6.68,4.65,53.22,53.22,0,0,0,8.53,3.61,85.06,85.06,0,0,0,10.25,2.61,192.14,192.14,0,0,0,24.42,2.81c5.86.37,11.94.62,18.13.88,7.68.32,15.53.66,23.35,1.26,5.51.43,11,1,16.45,1.78q3.42.49,6.81,1.13A122.7,122.7,0,0,1,784.16,610a82,82,0,0,1,18.54,8.47h0a65.82,65.82,0,0,1,10.57,8.24,61.65,61.65,0,0,1,8.86,10.74h0c1,1.47,1.86,3,2.69,4.49s1.58,3.08,2.27,4.65c.61,1.37,1.17,2.76,1.68,4.16A73.1,73.1,0,0,1,832.23,664a89.06,89.06,0,0,1,1.15,13.52,115.2,115.2,0,0,1-1.28,18A156.09,156.09,0,0,1,828.49,713,10.18,10.18,0,0,1,816,720.27Z" transform="translate(-320.04 -349.08)"/><polygon class="cls-6" points="482.67 269.37 482.67 269.38 482.67 269.38 482.67 269.37"/><polygon class="cls-6" points="502.11 288.36 502.11 288.36 502.11 288.36 502.11 288.36"/></svg>