<svg id="Ebene_1" data-name="Ebene 1" xmlns="http://www.w3.org/2000/svg" viewBox="0 0 1322.45 400.98"><defs><style>.cls-1{fill:#34e08f;}.cls-2,.cls-5{fill:none;stroke:#34e08f;stroke-linecap:round;stroke-miterlimit:10;}.cls-2{stroke-width:23.56px;}.cls-3{fill:#2ed265;}.cls-4{fill:#f2a13f;}.cls-5{stroke-width:20.38px;}</style></defs><title>iGEM_Projektlogo_dark_blank</title><path class="cls-1" d="M461.54,557.13q0,17.25-4,27.88T447,601.38a32.43,32.43,0,0,1-7.38,4.5,57.28,57.28,0,0,1-10.87,3.5,124.14,124.14,0,0,1-15.5,2.38q-9,.87-21,.87a228.71,228.71,0,0,1-28-1.5q-12-1.5-16-3.75c-2.84-1.66-5.3-4.46-7.38-8.37a23.09,23.09,0,0,1-3.12-10.63,3.13,3.13,0,0,1,1.37-2.87,4,4,0,0,1,2.88-.63c2.5.5,5.7,1,9.62,1.63s8.13,1.12,12.63,1.62,9.12.92,13.87,1.25,9.29.5,13.63.5q17,0,25-1.62c5.33-1.09,9-2.54,11-4.38a18.29,18.29,0,0,0,5.5-7.62q2-4.87,2-13.63,0-7.25-1.25-10.75a10.54,10.54,0,0,0-3.25-5q-1.76-1.5-8-3.37t-14.88-3.75q-8.62-1.87-18.5-3.88t-18.75-4q-8.88-2-15.75-4t-9.62-3.75q-4.5-3.24-6.63-11.12a70.84,70.84,0,0,1-2.12-18.38q0-16.5,4-26.5T351,452.38q7.24-6.24,20.75-9.75t34.75-3.5q31.74,0,40.25,4a13.11,13.11,0,0,1,3.87,3.13A28.33,28.33,0,0,1,454,451a35.19,35.19,0,0,1,2.5,5.37,15,15,0,0,1,1,5,3.48,3.48,0,0,1-1.13,2.75,3,3,0,0,1-2.62.75q-7.5-.75-19.38-2a249,249,0,0,0-25.87-1.25q-16.5,0-25.75,2t-13,4.75a20.52,20.52,0,0,0-5.75,9,39.3,39.3,0,0,0-2,13,36.36,36.36,0,0,0,.87,9,15.42,15.42,0,0,0,2.13,5q1.5,1.75,7.75,3.63t15,3.87q8.74,2,18.75,3.88t19.25,3.87q9.24,2,16.37,3.88t9.88,3.62q4.24,2.76,6.87,10T461.54,557.13Z" transform="translate(-336.54 -349.08)"/><path class="cls-1" d="M505.29,461.88a43,43,0,0,1,.5-7.62,8.91,8.91,0,0,1,1.5-3.88c1-1.16,3-2.29,6-3.37a59.68,59.68,0,0,1,12.25-2.63,3,3,0,0,1,2.62.75,3.82,3.82,0,0,1,1.13,3v18a58.55,58.55,0,0,0,.37,7.5,7.5,7.5,0,0,0,1.63,4.13,6.41,6.41,0,0,0,4,1.75,56,56,0,0,0,7.25.37h40.25c2.5,0,3.75,1.09,3.75,3.25a11.57,11.57,0,0,1-1.13,4.75,32.64,32.64,0,0,1-2.62,4.75,25.93,25.93,0,0,1-3.13,3.88,11.56,11.56,0,0,1-2.62,2.12,12.16,12.16,0,0,1-3.88,1.25,45.57,45.57,0,0,1-5.62.25h-27q-7.26,0-9.25,2c-1.34,1.34-2,4.42-2,9.25v53q0,10.75,1.12,15.25a14.27,14.27,0,0,0,3.38,6.75c1.66,1.5,4.2,2.59,7.62,3.25a79.2,79.2,0,0,0,14.38,1q7.5,0,13.62-.5c4.08-.33,7.63-.75,10.63-1.25a3.18,3.18,0,0,1,2.5.63,2.75,2.75,0,0,1,1.25,2.37,12,12,0,0,1-1,4.63,28.07,28.07,0,0,1-2.5,4.62,22.35,22.35,0,0,1-3.38,4,19.58,19.58,0,0,1-3.62,2.75c-1.84,1-4.84,1.84-9,2.5a123.86,123.86,0,0,1-18.25,1q-13.26,0-21.25-2t-12.25-6a18.72,18.72,0,0,1-3.38-4.62,26.75,26.75,0,0,1-2.25-6.38,59.31,59.31,0,0,1-1.25-9.12c-.25-3.59-.37-8-.37-13.38V511.13c0-5.16-.67-8.29-2-9.37s-3.92-1.63-7.75-1.63H484.79a2.45,2.45,0,0,1-2.13-.87,3.16,3.16,0,0,1-.62-1.88,17.79,17.79,0,0,1,.75-4.87,28.24,28.24,0,0,1,1.87-4.88,29.35,29.35,0,0,1,2.38-4,8.8,8.8,0,0,1,2.5-2.5,15.25,15.25,0,0,1,6.75-1.25H500q5.25,0,5.25-7Z" transform="translate(-336.54 -349.08)"/><path class="cls-1" d="M819.74,483.67c0-2.16,1.17-3.5,3.5-4q10-1.25,22.25-2.37t23.25-1.13q10.25,0,17.63.5t10.87,2.25q3.75,2,6.25,7.13a22.88,22.88,0,0,1,2.5,10.12,3,3,0,0,1-1,2.38,2.51,2.51,0,0,1-2.25.62q-4.75-.5-12-.87t-13.5-.38q-6.5,0-13,.25t-12.25.75c-1.5.34-2.75.67-3.75,1a5.38,5.38,0,0,0-2.37,1.5,5.21,5.21,0,0,0-1.13,2.75,37.33,37.33,0,0,0-.25,5v95.75c0,2.34-1.17,3.5-3.5,3.5H823c-2.17,0-3.25-1.16-3.25-3.5Z" transform="translate(-336.54 -349.08)"/><path class="cls-1" d="M1035.24,602.92q0,3.26-3.75,3.75-9,1.26-21.63,2.37T982,610.17q-11.5,0-19.63-.63a103.51,103.51,0,0,1-13.87-1.87,45.24,45.24,0,0,1-9.5-3,24.9,24.9,0,0,1-6.25-4A27.16,27.16,0,0,1,926,589.42q-2.5-7.24-2.5-18.5a68.74,68.74,0,0,1,2.37-19.13q2.39-8.12,6.63-11.37,2.49-1.5,9.5-2.87t17-2.5q10-1.12,22.25-2t25.5-1.38q4.5-.24,4.5-5,0-10.5-1.38-15.75a16,16,0,0,0-4.37-8c-2.34-2.16-5.79-3.58-10.38-4.25a157,157,0,0,0-20.62-1c-3.5,0-7.13.09-10.88.25s-7.41.42-11,.75-7,.71-10.12,1.13-6,.87-8.5,1.37a3.41,3.41,0,0,1-2.5-.5,2.67,2.67,0,0,1-1.25-2.5,13.4,13.4,0,0,1,.87-4.25,29.66,29.66,0,0,1,2.25-4.87,27.76,27.76,0,0,1,3.13-4.38,20.8,20.8,0,0,1,3.5-3.25q4.5-2.75,15.37-4.12a213.94,213.94,0,0,1,26.38-1.38q19,0,29,2.5t14.5,7.25a31.24,31.24,0,0,1,7.37,14.38,80,80,0,0,1,2,13.62q.63,8.25.63,20.5ZM1011,555.42c0-2.33-.46-3.71-1.38-4.13a8.93,8.93,0,0,0-3.62-.62q-7,0-15.75.37t-16.75,1q-8,.63-14,1.63c-4,.67-6.59,1.42-7.75,2.25a9,9,0,0,0-3,4.75,34.17,34.17,0,0,0-1,9.5q0,11.76,5.25,15.5,2.75,2.51,9,3.75t18.5,1.25a164.74,164.74,0,0,0,18.75-.88q7.5-.87,9-2.37a8.82,8.82,0,0,0,2-3.5q.75-2.25.75-8.25Z" transform="translate(-336.54 -349.08)"/><path class="cls-1" d="M1144,476.42q15.75,0,28.25.88t19.5,1.62c2.16.17,3.25,1.42,3.25,3.75q0,30-4.63,47.38t-12.62,24.62a49.07,49.07,0,0,1-6.88,4.75,40.78,40.78,0,0,1-10,3.87,103.66,103.66,0,0,1-15,2.63q-8.86,1-21.62,1.25-9.75,0-14,.37c-2.84.25-4.75.72-5.75,1.38-.84.67-1.46,2.75-1.88,6.25a94.59,94.59,0,0,0-.62,11c0,3,1.41,4.5,4.25,4.5h6.5q4.24,0,9.75-.13l11.62-.25c4.09-.08,8-.12,11.88-.12q11.25,0,19.25.37t13.25,1a50.84,50.84,0,0,1,8.5,1.63,23,23,0,0,1,5.25,2.25q3.49,2.76,5.75,8.75t2.25,17q0,13.5-3.88,23.12t-9.12,14.13q-6.51,5.49-19.75,8.75t-37.25,3.25q-19.76,0-30.75-1.38t-15.25-3.62a14,14,0,0,1-4.13-3.63,32.16,32.16,0,0,1-3.25-5,28.17,28.17,0,0,1-2.12-5.25,16.06,16.06,0,0,1-.75-4.12,2.67,2.67,0,0,1,1.25-2.5,4.42,4.42,0,0,1,3-.5q8.74,1.25,22.25,2.62a288.59,288.59,0,0,0,29.25,1.38q19,0,28.12-1.63c6.09-1.08,10-2.37,11.88-3.87a13.39,13.39,0,0,0,4.37-6.5,31.58,31.58,0,0,0,1.63-10.75,18.5,18.5,0,0,0-1.38-7.88,12.1,12.1,0,0,0-2.87-4.12,8.46,8.46,0,0,0-2.88-1.25,38.7,38.7,0,0,0-6-.88c-2.75-.25-6.41-.41-11-.5s-10.46-.12-17.62-.12q-6.26,0-13.38.12l-14,.25q-6.87.13-13.25.38c-4.25.16-8,.25-11.37.25a4,4,0,0,1-2.38-.63c-.58-.41-.87-1.29-.87-2.62q0-6,.37-12.63t.88-12.62q.49-6,.87-10.88t.38-7.12a96,96,0,0,0-2-17.63,139.24,139.24,0,0,1-2-25.87q0-13,2.62-21.37a28.89,28.89,0,0,1,7.88-13.13,37.23,37.23,0,0,1,7.25-4.62,44.66,44.66,0,0,1,10.87-3.5,131.18,131.18,0,0,1,15.88-2.13Q1131,476.42,1144,476.42Zm-43.25,46a75.44,75.44,0,0,0,1.37,15.13c.92,4.41,1.79,7,2.63,7.87s2.87,1.34,6.12,1.5,7,.25,11.38.25q8.74,0,15.12-.63a75.39,75.39,0,0,0,10.88-1.75,39.25,39.25,0,0,0,7.37-2.5,30.36,30.36,0,0,0,4.63-2.62q4.5-3.75,7.5-12.37t3-23.13a9.16,9.16,0,0,0-.88-4.37c-.58-1.09-2.12-1.79-4.62-2.13-3.34-.33-6.71-.62-10.13-.87s-8-.38-13.87-.38q-15,0-23.13,1.63t-11.62,4.37a23.13,23.13,0,0,0-4.25,7.75A40.08,40.08,0,0,0,1100.74,522.42Z" transform="translate(-336.54 -349.08)"/><path class="cls-1" d="M1227,544.17q0-22.24,5.25-36t13.5-20.75q6.49-5.49,17.5-8.62t27.5-3.13q16.24,0,25.87,2.63t15.38,7.62a34.62,34.62,0,0,1,5.87,7.25,43.27,43.27,0,0,1,4.5,10.88,106.06,106.06,0,0,1,3,15.87,185.28,185.28,0,0,1,1.13,22q0,4.5-1.25,6.5c-.84,1.34-2.5,2-5,2h-79c-3.67,0-6,.34-7,1s-1.5,1.92-1.5,3.75a53,53,0,0,0,2,15.37,21.62,21.62,0,0,0,6.75,10.63q4.24,4,13.12,5.75a112,112,0,0,0,21.38,1.75,197.41,197.41,0,0,0,24-1.38q11.25-1.37,17.75-2.62a2.85,2.85,0,0,1,2.37.62,3.15,3.15,0,0,1,1.13,2.63,13.57,13.57,0,0,1-.88,4.5,23.52,23.52,0,0,1-2.37,4.87,43,43,0,0,1-3.38,4.63,12.32,12.32,0,0,1-3.87,3.25q-3.75,2-14,3.5a185.2,185.2,0,0,1-26,1.5q-18,0-29.63-3.13T1243,597.92a35.31,35.31,0,0,1-6.63-7.75,49.43,49.43,0,0,1-5-10.88,81.34,81.34,0,0,1-3.25-14.87A156.91,156.91,0,0,1,1227,544.17Zm61.75-49q-18,0-26.25,7a17.13,17.13,0,0,0-4.25,5.13,35.92,35.92,0,0,0-2.88,6.62,54.68,54.68,0,0,0-1.75,7,37.81,37.81,0,0,0-.62,6.5c0,1.84.5,3,1.5,3.5s3.16.75,6.5.75h54.12c2.09,0,3.46-.33,4.13-1a5,5,0,0,0,1.5-2.5,16,16,0,0,0,.25-3,53.54,53.54,0,0,0-1.88-14.62q-1.87-6.63-5.87-9.88a25.34,25.34,0,0,0-9.13-4A64,64,0,0,0,1288.74,495.17Z" transform="translate(-336.54 -349.08)"/><path class="cls-1" d="M1501,605.17q0,3.26-3,3.25h-15.25q-4.26,0-5.38-1.75t-1.12-5.75V531.17q0-12-1.5-17.75a25.22,25.22,0,0,0-4.25-9.25,19.19,19.19,0,0,0-9.38-5.12q-6.12-1.64-17.37-1.63-9.75,0-16.63.38t-12.37,1.12q-4.26.51-5.25,2.25t-1,7.5v96.25c0,2.34-1,3.5-3,3.5H1387c-2.17,0-3.25-1.16-3.25-3.5v-121c0-1.83,1.16-3,3.5-3.5q10.5-1.25,25.87-2.75t31.88-1.5q19.74,0,30.37,2.63t16.38,8.37a30.15,30.15,0,0,1,7.12,13.75q2.13,8.5,2.13,24.5Z" transform="translate(-336.54 -349.08)"/><path class="cls-1" d="M1539.48,544.17q0-22.24,5.25-36t13.5-20.75q6.51-5.49,17.5-8.62t27.5-3.13q16.26,0,25.88,2.63t15.37,7.62a34.34,34.34,0,0,1,5.88,7.25,43.27,43.27,0,0,1,4.5,10.88,106.06,106.06,0,0,1,3,15.87,185.49,185.49,0,0,1,1.12,22c0,3-.41,5.17-1.25,6.5s-2.5,2-5,2h-79c-3.66,0-6,.34-7,1s-1.5,1.92-1.5,3.75a53.36,53.36,0,0,0,2,15.37,21.76,21.76,0,0,0,6.75,10.63q4.26,4,13.13,5.75a111.9,111.9,0,0,0,21.37,1.75,197.41,197.41,0,0,0,24-1.38q11.25-1.37,17.75-2.62a2.87,2.87,0,0,1,2.38.62,3.14,3.14,0,0,1,1.12,2.63,13.79,13.79,0,0,1-.87,4.5,24.08,24.08,0,0,1-2.38,4.87,42.9,42.9,0,0,1-3.37,4.63,12.24,12.24,0,0,1-3.88,3.25q-3.75,2-14,3.5a185.11,185.11,0,0,1-26,1.5q-18,0-29.62-3.13t-18.13-9.12a35,35,0,0,1-6.62-7.75,48.52,48.52,0,0,1-5-10.88,80.51,80.51,0,0,1-3.25-14.87A156.73,156.73,0,0,1,1539.48,544.17Zm61.75-49q-18,0-26.25,7a17.43,17.43,0,0,0-4.25,5.13,36.57,36.57,0,0,0-2.87,6.62,53.06,53.06,0,0,0-1.75,7,36.9,36.9,0,0,0-.63,6.5c0,1.84.5,3,1.5,3.5s3.17.75,6.5.75h54.13c2.08,0,3.46-.33,4.12-1a4.89,4.89,0,0,0,1.5-2.5,15.22,15.22,0,0,0,.25-3,53.55,53.55,0,0,0-1.87-14.62q-1.87-6.63-5.88-9.88a25.28,25.28,0,0,0-9.12-4A64.13,64.13,0,0,0,1601.23,495.17Z" transform="translate(-336.54 -349.08)"/><path class="cls-2" d="M554.58,350.47" transform="translate(-336.54 -349.08)"/><path class="cls-3" d="M765.08,500.7,638.9,546.75c3.39-11.49,9.1-23.94,16-36.92l95.24-34.76a36.15,36.15,0,0,1,9.53,10.09A37.54,37.54,0,0,1,765.08,500.7Z" transform="translate(-336.54 -349.08)"/><path class="cls-4" d="M745,568.76,656.42,601.1A41.22,41.22,0,0,1,641,587a33,33,0,0,1-4.22-9.85l124.21-45.32C757.24,543.41,751.58,555.81,745,568.76Z" transform="translate(-336.54 -349.08)"/><path class="cls-3" d="M706,415.94l-100,36.48a46,46,0,0,1-20.15-18.14q-1.39-2.38-2.5-4.7L716.27,381.1C715,392,711.27,403.72,706,415.94Z" transform="translate(-336.54 -349.08)"/><path class="cls-3" d="M817.79,650.7,691.28,696.86a155,155,0,0,1,8.14-34.06l97.86-35.72A52.47,52.47,0,0,1,813.61,643,54.78,54.78,0,0,1,817.79,650.7Z" transform="translate(-336.54 -349.08)"/><path class="cls-5" d="M590.5,371.5" transform="translate(-336.54 -349.08)"/><path class="cls-1" d="M686.1,724.4a10.19,10.19,0,0,1-9-11.23q.34-3.2,1-7.07c.44-2.58,1-5.37,1.55-8.28,1.18-5.82,2.63-12.1,4.12-18,1-3.93,2-7.67,3-11,.57-1.9,1.14-3.67,1.7-5.29,3.07-8.79,7-18.49,11.3-28.16,2.15-4.83,4.37-9.65,6.62-14.33,1.81-3.76,3.62-7.43,5.42-10.94l1.31-2.55c3.91-7.52,7.88-14.94,11.74-22.18s7.6-14.33,11.07-21.2c3.21-6.36,6.18-12.54,8.77-18.47a178.87,178.87,0,0,0,6.51-16.94,89.63,89.63,0,0,0,3.49-14.62,54.78,54.78,0,0,0,.53-6.41A37.87,37.87,0,0,0,755,502a29.21,29.21,0,0,0-1.53-6.43,25.89,25.89,0,0,0-2.43-5,25.23,25.23,0,0,0-3.08-4,28.46,28.46,0,0,0-3.81-3.31h0a37.56,37.56,0,0,0-7.8-4.24,63.22,63.22,0,0,0-10-3.07,148.4,148.4,0,0,0-25.25-3c-6.19-.3-12.68-.42-19.31-.51h0l-8.23-.09c-7.56-.1-15.23-.22-22.83-.62A177.33,177.33,0,0,1,620.3,468a87.69,87.69,0,0,1-18.7-6.42,60.62,60.62,0,0,1-13.65-9,53,53,0,0,1-5.85-6,54,54,0,0,1-5-7.09q-1.62-2.74-2.91-5.47h0c-.89-1.85-1.66-3.69-2.33-5.53a54.54,54.54,0,0,1-3.19-14.36,56.4,56.4,0,0,1,.58-13.57,10.19,10.19,0,1,1,20.12,3.26,36,36,0,0,0-.39,8.65,34.57,34.57,0,0,0,2,9c.45,1.21,1,2.46,1.58,3.75s1.3,2.56,2.09,3.91a33.36,33.36,0,0,0,6.74,8.18,40.19,40.19,0,0,0,9.09,6A62.93,62.93,0,0,0,621,447.14a102.1,102.1,0,0,0,12.28,2.57,236,236,0,0,0,28.38,2.12c6.45.17,13,.22,19.67.3H682c8.8.11,17.63.28,26.22.9a145.83,145.83,0,0,1,24.85,3.64,74.87,74.87,0,0,1,15.13,5.43,54.39,54.39,0,0,1,7.85,4.71,47,47,0,0,1,6.63,5.77,45.85,45.85,0,0,1,5.55,7.12,46.93,46.93,0,0,1,4.35,8.86,49.31,49.31,0,0,1,1.61,5.37q.63,2.71,1,5.48A66.38,66.38,0,0,1,774.9,517a110,110,0,0,1-4.26,18h0a196.89,196.89,0,0,1-7.25,18.9c-1.39,3.2-2.88,6.42-4.42,9.67s-3.16,6.52-4.83,9.82c-3.59,7.1-7.4,14.31-11.28,21.58s-7.8,14.63-11.63,22c-4.22,8.13-8.69,17.42-12.81,26.7s-7.87,18.55-10.68,26.61h0c-.58,1.65-1.24,3.74-1.93,6.1s-1.39,5-2.1,7.72c-1.42,5.5-2.81,11.52-3.94,17-.76,3.67-1.4,7.12-1.86,10-.25,1.64-.45,3.1-.58,4.27A10.19,10.19,0,0,1,686.1,724.4Z" transform="translate(-336.54 -349.08)"/><path class="cls-5" d="M585.85,359.27c-5.11,16.69-3.52,12.13-3.52,12.13" transform="translate(-336.54 -349.08)"/><line class="cls-5" x1="472.75" y1="387.53" x2="471.74" y2="390.79"/><polygon class="cls-1" points="389.86 33.19 389.86 33.19 389.86 33.19 389.86 33.19"/><polygon class="cls-1" points="290.31 230.59 290.31 230.59 290.31 230.59 290.31 230.59"/><polygon class="cls-1" points="378.86 70.88 378.86 70.88 378.86 70.88 378.86 70.88"/><polygon class="cls-1" points="290.31 230.59 290.31 230.59 290.34 230.73 290.31 230.59"/><polygon class="cls-1" points="292.59 194.79 292.59 194.78 292.59 194.78 292.59 194.79"/><polygon class="cls-1" points="496.84 328.46 496.84 328.47 496.84 328.47 496.84 328.46"/><path class="cls-1" d="M816,720.27a10,10,0,0,1-2.57-1.07,10.19,10.19,0,0,1-4.69-11.38,137,137,0,0,0,3.15-15.21A95.87,95.87,0,0,0,813,677.77h0a67.82,67.82,0,0,0-.88-10.43,52.4,52.4,0,0,0-2.49-9.62c-.35-1-.74-2-1.16-2.9a45.57,45.57,0,0,0-3.39-6.25h0a41.44,41.44,0,0,0-6-7.21,44.28,44.28,0,0,0-7.25-5.65h0a57.85,57.85,0,0,0-10.16-5,86.75,86.75,0,0,0-12-3.55c-3.89-.89-8-1.59-12.24-2.17-5-.67-10.23-1.16-15.58-1.53-4.41-.31-8.9-.54-13.44-.75l-9-.38c-8.55-.36-17.13-.74-25.51-1.51a150,150,0,0,1-26.41-4.44,76.57,76.57,0,0,1-16.05-6.32A54.83,54.83,0,0,1,641,602.67a49.23,49.23,0,0,1-8.63-10.13h0a43.2,43.2,0,0,1-4.16-8.4c-.53-1.47-1-3-1.37-4.47a50.71,50.71,0,0,1-1.35-8.75,61.69,61.69,0,0,1,.09-8.91,89.53,89.53,0,0,1,3.55-18.15,160.91,160.91,0,0,1,7.12-19.1c2.83-6.47,6.08-13,9.58-19.68,4.15-7.86,8.65-15.83,13.27-23.83s9.35-16,13.95-24c4.5-7.8,8.87-15.55,12.89-23.14s7.66-15,10.73-22.18h0a159.69,159.69,0,0,0,6.22-16.83,88.05,88.05,0,0,0,3.26-15.15h0a57.29,57.29,0,0,0,.39-6.26,44.37,44.37,0,0,0-.33-5.75,10.19,10.19,0,1,1,20.22-2.54,70.62,70.62,0,0,1,0,16.88,109.61,109.61,0,0,1-4,18.68,179.32,179.32,0,0,1-7,19c-3.36,7.84-7.25,15.74-11.45,23.68s-8.68,15.88-13.25,23.8c-4.66,8.08-9.4,16.12-14,24q-2.07,3.58-4.08,7.12c-3.09,5.44-6,10.79-8.81,16h0c-3.34,6.34-6.37,12.49-9,18.36a143.26,143.26,0,0,0-6.22,16.64v.06a75.13,75.13,0,0,0-2.42,10.75,43.73,43.73,0,0,0-.43,9.17,28.91,28.91,0,0,0,.79,5.16c.21.84.46,1.65.74,2.43a22.77,22.77,0,0,0,2.17,4.4,29.17,29.17,0,0,0,5.07,6,34.87,34.87,0,0,0,6.68,4.65,53.22,53.22,0,0,0,8.53,3.61,85.06,85.06,0,0,0,10.25,2.61,192.14,192.14,0,0,0,24.42,2.81c5.86.37,11.94.62,18.13.88,7.68.32,15.53.66,23.35,1.26,5.51.43,11,1,16.45,1.78q3.42.49,6.81,1.13A122.7,122.7,0,0,1,784.16,610a82,82,0,0,1,18.54,8.47h0a65.82,65.82,0,0,1,10.57,8.24,61.65,61.65,0,0,1,8.86,10.74h0c1,1.47,1.86,3,2.69,4.49s1.58,3.08,2.27,4.65c.61,1.37,1.17,2.76,1.68,4.16A73.1,73.1,0,0,1,832.23,664a89.06,89.06,0,0,1,1.15,13.52,115.2,115.2,0,0,1-1.28,18A156.09,156.09,0,0,1,828.49,713,10.18,10.18,0,0,1,816,720.27Z" transform="translate(-336.54 -349.08)"/><polygon class="cls-1" points="466.17 269.37 466.17 269.38 466.17 269.38 466.17 269.37"/><polygon class="cls-1" points="485.61 288.36 485.61 288.36 485.61 288.36 485.61 288.36"/></svg>