<?xml version="1.0" encoding="utf-8"?>
<!-- Generator: Adobe Illustrator 25.1.0, SVG Export Plug-In . SVG Version: 6.00 Build 0)  -->
<svg version="1.1" id="Layer_1" xmlns="http://www.w3.org/2000/svg" xmlns:xlink="http://www.w3.org/1999/xlink" x="0px" y="0px"
	 viewBox="0 0 111.6 257.4" style="enable-background:new 0 0 111.6 257.4;" xml:space="preserve">
<style type="text/css">
	.st0{fill-rule:evenodd;clip-rule:evenodd;fill:#FFFF9E;}
	.st1{fill-rule:evenodd;clip-rule:evenodd;fill:#E73900;}
	.st2{fill-rule:evenodd;clip-rule:evenodd;fill:#E78C00;}
	.st3{fill-rule:evenodd;clip-rule:evenodd;fill:#E7E100;}
	.st4{fill-rule:evenodd;clip-rule:evenodd;fill:#ECECEC;stroke:#000000;stroke-width:3;}
	.st5{fill:#CCCCCC;}
	.st6{fill-rule:evenodd;clip-rule:evenodd;fill:#FF0000;stroke:#000000;stroke-width:3;}
	.st7{fill-rule:evenodd;clip-rule:evenodd;fill:#B3B3B3;stroke:#000000;stroke-width:3;}
	.st8{fill-rule:evenodd;clip-rule:evenodd;fill:#D20000;}
	.st9{fill-rule:evenodd;clip-rule:evenodd;fill:#999999;}
	.st10{fill-rule:evenodd;clip-rule:evenodd;fill:#CCCCCC;}
	.st11{fill:none;stroke:#000000;stroke-width:3;}
	.st12{fill:#FF0000;stroke:#000000;stroke-width:3;stroke-linecap:round;}
	.st13{fill-rule:evenodd;clip-rule:evenodd;fill:#FFFFFF;}
	.st14{fill:#2ED265;}
	.st15{fill:#F2A13F;}
	.st16{fill:#34E08F;}
</style>
<g id="Layer_3">
	<g>
		<path id="svg_17" class="st0" d="M52.8,173.9c-1.2,6.4,0,11.5-2.8,16.5c0.8-4.7-1.1-12-0.8-14.6c0.4-4.3,2.8-7.5,3.4-7.8
			C52.3,171.5,53.3,170.9,52.8,173.9z"/>
		<path id="svg_27" class="st1" d="M65.1,177.2c7.4,26.7-1.5,29.1,0.8,65.7c-5.5-17.3-7.1-38.5-9.3-44.7c-1.6-4.9-2.4-10.9-2.2-16.9
			c0-4.8-2.5-10.7-1.8-15.1C56.2,173.3,62.6,168.6,65.1,177.2z"/>
		<path id="svg_26" class="st1" d="M54.1,169.5c0,5.1,2.5,7.4,3.6,11.4c1.8,3,2.3,7.8,2.3,12.5c0.1,7.5-2.6,52.1-6.8,64.1
			c1.6-18.4-2.3-42.9-4.7-51c-1.6-6.3-2.3-13.6-1.6-20.7c0.3-5.7,2.3-9.1,3.3-14.2C51.3,168.4,52.8,168.1,54.1,169.5z"/>
		<path id="svg_25" class="st1" d="M52.6,167c-0.6,4.5,0.6,11.5,1,15.6c1.1,3.7,1,8.2,0.4,12.3c-0.7,6.6-0.8,37.9-12.9,52.5
			c9.3-21.8,3.2-39.5,2.1-48.1c-0.6-6.5-0.3-13.3,1.1-19C46.2,172.3,51.1,167.8,52.6,167z"/>
		<path id="svg_24" class="st2" d="M54.5,169.6c-0.1,4.2,1.9,6,2.8,9.3c1.3,2.5,1.7,6.4,1.7,10.2c0.1,6.1-2.5,38.4-4.6,52.3
			c1.4-31.5-2.3-35.1-4-41.6c-1.2-5.2-1.7-11-1.2-16.9c0.2-4.6,1.1-8.9,2-13C51.9,167.3,53.6,168.4,54.5,169.6z"/>
		<path id="svg_23" class="st2" d="M62.1,175.6c7.5,18.4-0.7,19.7,1.4,44.8c-2.4-11.9-4.5-20.8-5.4-29.2c-1.3-3-5.9-21.2-5.7-24.5
			C55.3,170.7,60,170.2,62.1,175.6z"/>
		<path id="svg_22" class="st3" d="M60.6,176.7c4.5,10.1,1.1,16.1,1.2,28.8c-1.2-11.1-5.2-13.8-5.1-20.5c-0.6-2.1-4-16.2-3.7-18
			C54.5,169.8,58.9,172.9,60.6,176.7z"/>
		<path id="svg_21" class="st2" d="M53.4,178.1c0.8,2.8,0.8,6.2,0.4,9.3c-0.6,4.9-3,32.6-6.5,38.6c2.5-11.3-0.8-28.8-1.6-35.2
			c-0.5-4.9-0.6-10.6,0.8-14.4c2.1-5.6,4.6-8.8,6.1-9.6C53.4,165.2,53.1,175,53.4,178.1z"/>
		<path id="svg_20" class="st0" d="M54.7,169.3c-0.1,2.6,1.1,3.8,1.6,5.8c0.8,1.6,1,4,1,6.4c0,3.7,0.1,27.1-1.9,32.9
			c0.9-9.1-2.5-22.7-3.5-26.9c-0.7-3.3-0.9-6.9-0.6-10.4c0.1-2.8,0.8-5.4,1.3-7.8C53,167.7,54,168.5,54.7,169.3z"/>
		<path id="svg_19" class="st3" d="M53.7,169c-0.5,1.8,0.1,3.9,0.1,5.9c0.3,2,0,4-0.5,5.6c-0.7,2.7-1.8,22.8-4.4,24.9
			c2.3-5.7-1.6-20.9-1.7-24.9c0.1-3,1.6-7.1,2.5-9.3c0.6-1.9,1.9-3.6,2.8-4.9C53.3,167.1,53.4,167.8,53.7,169z"/>
		<path id="svg_18" class="st0" d="M54.6,170.9c1.6,5.9,1,12.6,0.3,19.8c-0.3-4.9-1.6-10.9-2.3-12.8c-0.5-1.5-0.7-3.4-0.6-5.3
			c0-1.6,0.4-3.3,0.5-4.7C53.7,170.2,53.8,168.3,54.6,170.9z"/>
	</g>
</g>
<g id="Layer_1_1_">
	<path id="path3217" class="st4" d="M56.9,2.3c-8.1,6.8-70.3,64.5-24.5,176.3l46.5,0.4l0.1,0C126.8,68.1,65.6,9.3,57.6,2.3H56.9z"/>
	<path id="path3219" class="st5" d="M58.4,63.5C44.3,63.3,32.7,75.7,32.6,91C32.5,106.4,43.8,118.9,58,119
		c14.1,0.1,25.7-12.2,25.8-27.5C83.9,76.2,72.6,63.6,58.4,63.5z M58.4,66.7c12.4,0.1,22.5,11.2,22.3,24.7
		c-0.1,13.6-10.3,24.4-22.8,24.3c-12.4-0.1-22.4-11.1-22.3-24.7C35.7,77.5,45.9,66.6,58.4,66.7z"/>
	<path id="path2419" class="st6" d="M25.4,47.7l11.5-22.6l16-19.4l4.5-3.7L74,21.5L87,44.8l1.1,4.9l-62.9-0.8"/>
	<path id="path2408" class="st6" d="M18.3,133.8c0,0-27.9-0.6-11.8,76.6c0,0,2.1-64.3,16.8-56.3"/>
	<path id="path2410" class="st6" d="M94,134.5c0,0,27.9-0.1,10.3,76.8c0,0-1-64.3-15.8-56.6"/>
	<path id="path2423" class="st7" d="M25.7,162.8l6.7,15.8l46.8,0.1l5.7-15.4L25.7,162.8z"/>
	<path id="path3209" class="st8" d="M100.3,142.3L95,156.6l-3.2-2.9l-3.7,1.7l5.2-21.4l8.9,4.9c0,0,15.4,11.9,2.8,70.1
		C112.6,148.7,100.1,142.2,100.3,142.3z"/>
	<path id="path3213" class="st8" d="M5.8,209.6c0,0-2.1-62.4,15.8-62.5c2,0,1.8,6.9,1.8,6.9l-7.1,1.6l-5.7,18.8L5.8,209.6z"/>
	<path id="path3232" class="st9" d="M67.7,163.2c1.1,3.5,1.6,8.3,1.2,15.2c0.2,0.1,0.5,0.2,0.7,0.3l9.5,0.1l4.6-12.4
		c-0.2-1.1-0.4-2.1-0.6-3L67.7,163.2z"/>
	<path id="path3227" class="st10" d="M61.2,132.9c-1.8-0.2-2.9,0.1-2.9,0.1l-1.5,22c0,0,6.4-1.3,9.3,8.1l15.6,0.1
		C76.8,137.7,66.3,133.3,61.2,132.9z"/>
	<path id="path3241" class="st10" d="M26.4,164.1l5,14.2l7.3,0.6l-1.9-16.2L26.4,164.1z"/>
	<path id="path2394" class="st11" d="M25.4,48.3l61.9,0.6"/>
	<path id="path2417" class="st11" d="M26.5,163l58.4,0.6"/>
	<path id="rect2414" class="st12" d="M53.7,133.6l4.7,0.1l-0.7,77.2l-4.7-0.1L53.7,133.6z"/>
	<path id="path2425" class="st10" d="M82.3,159.9c0,0,21.5-52.5,5.2-103.3c-0.1,89.9-22.8,103.1-22.8,103.1L82.3,159.9z"/>
	<path id="path2437" class="st8" d="M81,44.5c0,0-8-23.3-23.4-35.7c13.9,29.9,6.5,35.5,6.5,35.5L81,44.5z"/>
	<path id="path3211" class="st11" d="M94,134.5c0,0,27.9-0.1,10.3,76.8c0,0-1-64.3-15.8-56.6"/>
	<path id="path3215" class="st11" d="M18.3,133.8c0,0-27.9-0.6-11.8,76.6c0,0,2.1-64.3,16.8-56.3"/>
	<path id="path3237" class="st13" d="M29.1,43.2c0,0,14.2-29.3,25.9-36.9C66.7-1.4,29.4,43.7,29.1,43.2z"/>
	<path id="path3239" class="st13" d="M21.1,104.2c-0.6-0.3-3.8-28.4,5-45.7c5.4-4.7,12.6-2.1,12.3-0.1
		C35.2,74.9,24.4,106.2,21.1,104.2z"/>
	<path id="path2382" class="st11" d="M56.9,2.3c-8.1,6.8-70.3,64.5-24.5,176.3l46.5,0.4l0.1,0C126.8,68.1,65.6,9.3,57.6,2.3H56.9z"
		/>
</g>
<g id="Layer_2_1_">
	<g>
		<path class="st14" d="M62.9,86.1l-11,6.3c0.1-1.1,0.5-2.4,0.9-3.7l8.3-4.7c0.4,0.2,0.7,0.5,1,0.8C62.5,85.1,62.7,85.5,62.9,86.1z"
			/>
		<path class="st15" d="M62.2,92.7l-7.8,4.4c-0.6-0.2-1.2-0.6-1.7-1.1c-0.2-0.3-0.4-0.5-0.5-0.9L63,89
			C62.8,90.2,62.5,91.4,62.2,92.7z"/>
		<path class="st14" d="M56.1,79.1l-8.8,5c-0.8-0.3-1.6-0.7-2.2-1.4c-0.1-0.1-0.2-0.3-0.3-0.4l11.6-6.6
			C56.6,76.7,56.4,77.8,56.1,79.1z"/>
		<path class="st14" d="M70.2,99.1l-11.1,6.3c-0.1-1.1,0-2.2,0.2-3.3l8.6-4.9c0.7,0.3,1.3,0.7,1.8,1.2C69.9,98.7,70,98.9,70.2,99.1z
			"/>
		<g>
			<path class="st16" d="M59,108.1c-0.5,0-1-0.4-1-0.9c0-0.2,0-0.4,0-0.7c0-0.2,0-0.5,0-0.8c0-0.6,0.1-1.2,0.1-1.7
				c0-0.4,0.1-0.7,0.1-1.1c0-0.2,0.1-0.4,0.1-0.5c0.2-0.9,0.4-1.8,0.6-2.8c0.1-0.5,0.3-1,0.4-1.4c0.1-0.4,0.2-0.7,0.3-1.1
				c0-0.1,0.1-0.2,0.1-0.3c0.2-0.8,0.5-1.5,0.8-2.2c0.3-0.7,0.5-1.4,0.7-2.1c0.2-0.6,0.4-1.3,0.5-1.9c0.1-0.6,0.3-1.2,0.3-1.7
				c0.1-0.5,0.1-1,0.1-1.4c0-0.2,0-0.4,0-0.6c0-0.2-0.1-0.4-0.1-0.5c-0.1-0.2-0.1-0.4-0.2-0.6c-0.1-0.2-0.2-0.3-0.3-0.4
				c-0.1-0.1-0.2-0.2-0.3-0.3c-0.1-0.1-0.3-0.2-0.4-0.3l0,0c-0.2-0.1-0.5-0.2-0.8-0.3s-0.6-0.1-1-0.1c-0.7,0-1.5,0-2.4,0.1
				c-0.6,0.1-1.2,0.2-1.8,0.2l0,0c-0.3,0-0.5,0.1-0.8,0.1c-0.7,0.1-1.4,0.2-2.1,0.3c-1,0.1-1.9,0.2-2.9,0.1c-0.6,0-1.2-0.1-1.8-0.3
				c-0.5-0.1-1-0.4-1.4-0.6c-0.2-0.1-0.4-0.3-0.6-0.5s-0.4-0.4-0.6-0.6c-0.1-0.2-0.2-0.3-0.4-0.5l0,0c-0.1-0.2-0.2-0.3-0.3-0.5
				c-0.2-0.4-0.4-0.9-0.5-1.3c-0.1-0.4-0.2-0.9-0.2-1.3c0-0.5,0.4-1,1-1c0.5,0,0.9,0.4,1,0.8l0,0.1c0,0.3,0,0.5,0.1,0.8
				s0.2,0.5,0.3,0.8c0.1,0.1,0.1,0.2,0.2,0.3s0.2,0.2,0.3,0.3c0.2,0.3,0.5,0.5,0.8,0.7c0.3,0.2,0.6,0.3,0.9,0.4
				c0.3,0.1,0.7,0.2,1,0.2c0.4,0,0.8,0.1,1.2,0.1c0.8,0,1.7-0.1,2.7-0.2c0.6-0.1,1.2-0.2,1.8-0.3c0,0,0,0,0.1,0
				c0.8-0.1,1.6-0.2,2.5-0.3c0.8-0.1,1.6-0.1,2.4,0c0.5,0,1,0.1,1.5,0.3c0.3,0.1,0.5,0.2,0.8,0.3c0.2,0.1,0.5,0.3,0.7,0.4
				c0.2,0.2,0.4,0.4,0.6,0.6c0.2,0.2,0.4,0.5,0.5,0.8c0.1,0.2,0.2,0.3,0.2,0.5c0.1,0.2,0.1,0.3,0.2,0.5c0.2,0.5,0.2,1.1,0.2,1.6
				c0,0.6,0,1.1-0.1,1.7l0,0c-0.1,0.6-0.2,1.2-0.4,1.9c-0.1,0.3-0.2,0.6-0.3,1c-0.1,0.3-0.2,0.7-0.3,1c-0.2,0.7-0.5,1.4-0.7,2.2
				c-0.3,0.7-0.5,1.5-0.7,2.2c-0.3,0.8-0.5,1.8-0.8,2.7c-0.2,0.9-0.5,1.8-0.6,2.6l0,0c0,0.2-0.1,0.4-0.1,0.6c0,0.2-0.1,0.5-0.1,0.8
				c0,0.5-0.1,1.1-0.1,1.6c0,0.4,0,0.7,0,1c0,0.2,0,0.3,0,0.4C60,107.6,59.6,108.1,59,108.1z"/>
		</g>
		<path class="st16" d="M43,77.4c-0.1-0.2-0.1-0.4-0.1-0.6c0,0,0-0.1,0-0.2c0-0.2,0.1-0.6,0.1-1c0.1-0.5,0.6-0.9,1.1-0.8
			c0.5,0.1,0.9,0.6,0.8,1.1c-0.1,0.6-0.1,0.9-0.1,1c0,0.1,0,0.1,0,0.2c-0.1,0.7-0.7,0.9-1.1,0.8C43.5,77.9,43.2,77.7,43,77.4z"/>
		<path class="st16" d="M69.8,108c-0.1-0.2-0.1-0.4-0.1-0.6l0-0.3c0.1-0.5,0.6-0.9,1.1-0.8c0.5,0.1,0.9,0.6,0.8,1.1l0,0.3
			c-0.1,0.5-0.6,0.9-1.1,0.8C70.2,108.5,69.9,108.3,69.8,108z"/>
		<path class="st16" d="M71.1,105.6c-0.1,0-0.2,0-0.3-0.1c-0.4-0.2-0.7-0.5-0.6-1c0-0.5,0.1-1,0.1-1.5s0-1-0.1-1.4l0,0
			c-0.1-0.3-0.1-0.7-0.2-1c-0.1-0.3-0.2-0.6-0.4-0.9c0-0.1-0.1-0.2-0.2-0.3c-0.1-0.2-0.3-0.4-0.4-0.5l0,0c-0.2-0.2-0.4-0.4-0.7-0.6
			c-0.2-0.2-0.5-0.3-0.8-0.4l0,0c-0.3-0.1-0.7-0.2-1-0.3c-0.4-0.1-0.8-0.1-1.2-0.2c-0.4,0-0.8,0-1.2,0c-0.5,0-1,0-1.5,0.1
			c-0.4,0-0.8,0.1-1.3,0.1l-0.8,0.1c-0.8,0.1-1.6,0.2-2.4,0.2c-0.9,0.1-1.7,0.1-2.5,0c-0.5-0.1-1.1-0.2-1.6-0.3
			c-0.4-0.1-0.7-0.3-1.1-0.5c-0.3-0.2-0.7-0.5-1-0.8l0,0c-0.2-0.2-0.4-0.5-0.5-0.7c-0.1-0.1-0.1-0.3-0.2-0.4
			c-0.1-0.3-0.2-0.5-0.3-0.8c-0.1-0.3-0.1-0.5-0.1-0.8c0-0.6,0-1.1,0.1-1.7c0.1-0.6,0.2-1.2,0.4-1.9c0.2-0.6,0.4-1.3,0.6-2
			c0.3-0.8,0.6-1.6,0.9-2.4c0.3-0.8,0.6-1.6,0.9-2.4c0.3-0.8,0.6-1.6,0.8-2.4c0.3-0.8,0.5-1.5,0.7-2.2l0,0c0.1-0.6,0.3-1.1,0.3-1.7
			c0.1-0.5,0.1-1,0.1-1.5l0,0c0-0.2,0-0.4-0.1-0.6c0-0.2-0.1-0.4-0.1-0.5c-0.2-0.5,0.1-1,0.6-1.2c0.5-0.2,1,0.1,1.2,0.6
			c0.1,0.5,0.2,1,0.3,1.6c0,0.6,0,1.2-0.1,1.8c-0.1,0.6-0.2,1.2-0.4,1.9c-0.2,0.8-0.4,1.6-0.7,2.4c-0.3,0.8-0.6,1.6-0.9,2.4
			c-0.3,0.8-0.6,1.6-0.9,2.4c-0.1,0.2-0.2,0.5-0.3,0.7c-0.2,0.6-0.4,1.1-0.6,1.6l0,0c-0.2,0.6-0.4,1.3-0.6,1.8
			c-0.1,0.6-0.3,1.1-0.3,1.6l0,0l0,0c0,0.4-0.1,0.7-0.1,1c0,0.3,0,0.6,0.1,0.9c0,0.2,0.1,0.3,0.2,0.5c0,0.1,0.1,0.1,0.1,0.2
			c0.1,0.1,0.2,0.3,0.3,0.4c0.2,0.2,0.4,0.3,0.6,0.5c0.2,0.1,0.4,0.2,0.7,0.3c0.3,0.1,0.5,0.2,0.9,0.2c0.3,0,0.6,0.1,1,0.1
			c0.7,0,1.5,0,2.3-0.1c0.5-0.1,1.1-0.1,1.7-0.2c0.7-0.1,1.5-0.2,2.2-0.2c0.5,0,1-0.1,1.6-0.1c0.2,0,0.4,0,0.7,0c0.5,0,1,0,1.4,0.1
			c0.6,0.1,1.3,0.3,1.9,0.5l0,0c0.4,0.2,0.8,0.4,1.1,0.6c0.4,0.2,0.7,0.5,1,0.9l0,0c0.1,0.1,0.2,0.2,0.3,0.4
			c0.1,0.1,0.2,0.3,0.3,0.4c0.1,0.1,0.1,0.2,0.2,0.4c0.2,0.4,0.4,0.8,0.5,1.2c0.1,0.4,0.2,0.8,0.3,1.2c0.1,0.6,0.1,1.1,0.2,1.7
			c0.1,0.6,0,1.1-0.1,1.7C72.1,105.3,71.6,105.7,71.1,105.6z"/>
	</g>
</g>
</svg>
