<?xml version="1.0" encoding="utf-8"?>
<!-- Generator: Adobe Illustrator 24.0.2, SVG Export Plug-In . SVG Version: 6.00 Build 0)  -->
<svg version="1.1" xmlns="http://www.w3.org/2000/svg" xmlns:xlink="http://www.w3.org/1999/xlink" x="0px" y="0px"
	 viewBox="0 0 186.7 184.4" style="enable-background:new 0 0 186.7 184.4;" xml:space="preserve">
<style type="text/css">
	.st0{fill-rule:evenodd;clip-rule:evenodd;fill:#FFFF9E;}
	.st1{fill-rule:evenodd;clip-rule:evenodd;fill:#E73900;}
	.st2{fill-rule:evenodd;clip-rule:evenodd;fill:#E78C00;}
	.st3{fill-rule:evenodd;clip-rule:evenodd;fill:#E7E100;}
	.st4{fill-rule:evenodd;clip-rule:evenodd;fill:#ECECEC;stroke:#000000;stroke-width:3;}
	.st5{fill:#CCCCCC;}
	.st6{fill-rule:evenodd;clip-rule:evenodd;fill:#FF0000;stroke:#000000;stroke-width:3;}
	.st7{fill-rule:evenodd;clip-rule:evenodd;fill:#B3B3B3;stroke:#000000;stroke-width:3;}
	.st8{fill-rule:evenodd;clip-rule:evenodd;fill:#D20000;}
	.st9{fill-rule:evenodd;clip-rule:evenodd;fill:#999999;}
	.st10{fill-rule:evenodd;clip-rule:evenodd;fill:#CCCCCC;}
	.st11{fill:none;stroke:#000000;stroke-width:3;}
	.st12{fill:#FF0000;stroke:#000000;stroke-width:3;stroke-linecap:round;}
	.st13{fill-rule:evenodd;clip-rule:evenodd;fill:#FFFFFF;}
	.st14{fill:#2ED265;}
	.st15{fill:#F2A13F;}
	.st16{fill:#34E08F;}
</style>
<g id="Layer_3">
	<g>
		<path id="svg_17" class="st0" d="M60.2,120.2c-5.4,3.7-8.1,8.1-13.7,9.7c3.9-2.7,7.7-9.3,9.7-10.9c3.3-2.8,7.3-3.3,7.9-3.1
			C61.6,118.2,62.7,118.5,60.2,120.2z"/>
		<path id="svg_27" class="st1" d="M66.6,131.3c-13.7,24.1-21.6,19.5-45.9,47c8.3-16.1,22.2-32.2,25-38.2c2.3-4.6,6-9.4,10.4-13.5
			c3.4-3.4,5.8-9.3,9.4-12C63.1,122.2,70.9,123.4,66.6,131.3z"/>
		<path id="svg_26" class="st1" d="M64.3,118c-3.6,3.6-3.4,7-5.5,10.6c-0.9,3.4-3.9,7.1-7.2,10.5c-5.2,5.4-38.7,35-50.1,40.5
			c14.1-11.9,28.7-32,32.7-39.4c3.3-5.6,8-11.2,13.5-15.8c4.2-3.8,8-4.8,12.4-7.7C63.1,115.3,64.3,116.1,64.3,118z"/>
		<path id="svg_25" class="st1" d="M65,115.2c-3.6,2.7-7.7,8.6-10.3,11.7c-1.9,3.4-5.1,6.5-8.4,9c-5.2,4.2-27.4,26.2-46.3,28
			c22-8.8,30.2-25.7,35.5-32.5c4.2-5,9.2-9.6,14.2-12.7C56.7,114.4,63.3,114.7,65,115.2z"/>
		<path id="svg_24" class="st2" d="M64.5,118.4c-3,2.9-2.9,5.6-4.6,8.5c-0.8,2.7-3.3,5.7-6,8.4c-4.2,4.4-28.9,25.4-40.2,33.7
			c23.3-21.3,23.2-26.4,26.6-32.3c2.8-4.5,6.6-9,11.1-12.8c3.4-3.1,7.1-5.5,10.6-7.8C64.3,114.9,64.7,116.9,64.5,118.4z"/>
		<path id="svg_23" class="st2" d="M65.6,128c-7.7,18.3-14.4,13.4-30.7,32.7c6.7-10.1,11.5-17.9,16.8-24.5
			c1.2-3,10.8-19.2,13.3-21.3C64.3,119.7,67.9,122.7,65.6,128z"/>
		<path id="svg_22" class="st3" d="M63.8,127.7c-4,10.3-10.6,12.2-19.5,21.2c7-8.7,6.1-13.4,10.9-18.1c1-1.9,8.6-14.3,10.1-15.4
			C64.3,118.5,65.3,123.8,63.8,127.7z"/>
		<path id="svg_21" class="st2" d="M57.7,123.6c-1.4,2.5-3.8,4.9-6.3,6.8c-3.9,3.1-25.2,20.9-31.9,22.7c9.8-6.2,19.8-20.9,23.8-26
			c3.1-3.8,7.1-7.9,10.7-9.6c5.4-2.5,9.5-3,11.1-2.5C66.8,114.5,59.7,121.2,57.7,123.6z"/>
		<path id="svg_20" class="st0" d="M64.8,118.3c-1.9,1.8-1.9,3.5-3,5.2c-0.6,1.7-2.1,3.5-3.8,5.2c-2.6,2.6-19.1,19.2-24.6,21.9
			c7.1-5.8,14.3-17.8,16.6-21.5c1.8-2.8,4.2-5.5,6.9-7.8c2.1-1.9,4.4-3.2,6.5-4.6C64.8,116,64.9,117.3,64.8,118.3z"/>
		<path id="svg_19" class="st3" d="M64.4,117.4c-1.6,0.9-2.7,2.8-4.1,4.2c-1.2,1.6-2.8,2.8-4.3,3.6c-2.4,1.4-17.4,14.8-20.7,14.5
			c5.6-2.4,13.6-15.9,16.4-18.8c2.2-2.1,6.2-3.9,8.4-4.8c1.8-0.9,3.9-1.2,5.4-1.5C65.4,115.7,65,116.3,64.4,117.4z"/>
		<path id="svg_18" class="st0" d="M63.6,119.4c-3.1,5.3-8.2,9.6-13.8,14.2c3.3-3.7,6.6-8.8,7.4-10.7c0.7-1.4,1.9-2.9,3.3-4.2
			c1.1-1.1,2.6-2.1,3.7-3C63.5,118.2,64.9,117,63.6,119.4z"/>
	</g>
</g>
<g id="Layer_1">
	<path id="path3217" class="st4" d="M184.5,1.8C174,0.9,89.2-2.3,42.5,109.1l32.6,33.2l0.1,0.1C187.4,97.7,185.7,12.9,185,2.3
		L184.5,1.8z"/>
	<path id="path3219" class="st5" d="M142.3,46.1c-9.9-10.1-26.8-9.5-37.7,1.2C93.6,58.1,92.8,75,102.7,85.1
		c9.9,10.1,26.8,9.5,37.7-1.2C151.3,73.1,152.2,56.2,142.3,46.1z M140,48.4c8.7,8.9,8,23.8-1.7,33.2c-9.7,9.5-24.5,10-33.3,1.1
		c-8.7-8.9-8-23.7,1.7-33.2C116.3,40,131.2,39.5,140,48.4z"/>
	<path id="path2419" class="st6" d="M130.1,11.6l24.1-7.8l25-2.4l5.8,0.6L183,27.5l-7.3,25.6l-2.7,4.2l-43.9-45.1"/>
	<path id="path2408" class="st6" d="M64.2,67.5c0,0-19.3-20.2-62.5,45.8c0,0,47-44,51.7-27.9"/>
	<path id="path2410" class="st6" d="M117.2,121.5c0,0,19.8,19.6-47,61.6c0,0,44.8-46.2,28.8-51.2"/>
	<path id="path2423" class="st7" d="M48.9,93.2l-6.4,15.9l33,33.2l14.9-6.9L48.9,93.2z"/>
	<path id="path3209" class="st8" d="M116.2,131.5l-13.9,6.3l-0.2-4.3l-3.8-1.4l18.8-11.5l2.8,9.8c0,0,2.5,19.3-47.6,51.6
		C120.4,144.7,116.1,131.3,116.2,131.5z"/>
	<path id="path3213" class="st8" d="M1.8,112.2c0,0,42.7-45.6,55.4-33c1.4,1.4-3.6,6.1-3.6,6.1l-6.2-3.9l-17.3,9.3L1.8,112.2z"/>
	<path id="path3232" class="st9" d="M78.4,123.2c-1.7,3.2-4.7,7-9.9,11.6c0.1,0.2,0.2,0.5,0.3,0.7l6.7,6.8l12-5.5
		c0.6-0.9,1.2-1.7,1.7-2.5L78.4,123.2z"/>
	<path id="path3227" class="st10" d="M95.2,97.2c-1.1-1.4-2.1-2-2.1-2l-16.6,14.5c0,0,5.4,3.6,0.8,12.3l10.9,11.1
		C102.8,111.6,98.5,101.1,95.2,97.2z"/>
	<path id="path3241" class="st10" d="M48.5,94.6l-6.5,13.6l4.7,5.6l10.1-12.8L48.5,94.6z"/>
	<path id="path2394" class="st11" d="M129.7,12L173,56.2"/>
	<path id="path2417" class="st11" d="M49.3,93.9l40.9,41.7"/>
	<path id="rect2414" class="st12" d="M89.4,92.4l3.3,3.4l-55.1,54.1l-3.3-3.4L89.4,92.4z"/>
	<path id="path2425" class="st10" d="M91,131.2c0,0,52.3-21.9,76.7-69.4c-63.6,63.5-89,56.8-89,56.8L91,131.2z"/>
	<path id="path2437" class="st8" d="M171.7,48.7c0,0,10.8-22.1,8.7-41.8c-11.3,31-20.5,29.7-20.5,29.7L171.7,48.7z"/>
	<path id="path3211" class="st11" d="M117.2,121.5c0,0,19.8,19.6-47,61.6c0,0,44.8-46.2,28.8-51.2"/>
	<path id="path3215" class="st11" d="M64.2,67.5c0,0-19.3-20.2-62.5,45.8c0,0,47-44,51.7-27.9"/>
	<path id="path3237" class="st13" d="M135.9,11.1c0,0,30.8-10.7,44.4-7.8C194,6.1,135.7,11.6,135.9,11.1z"/>
	<path id="path3239" class="st13" d="M87.1,48.5c-0.2-0.6,17.4-22.8,35.9-28.8c7.1,0.5,10.4,7.4,8.8,8.6
		C117.8,37.8,88,52.3,87.1,48.5z"/>
	<path id="path2382" class="st11" d="M184.5,1.8C174,0.9,89.2-2.3,42.5,109.1l32.6,33.2l0.1,0.1C187.4,97.7,185.7,12.9,185,2.3
		L184.5,1.8z"/>
</g>
<g id="Layer_2">
	<g>
		<path class="st14" d="M127.7,60.1l-11,6.2c0.1-1.1,0.5-2.4,0.9-3.7l8.3-4.7c0.4,0.2,0.7,0.5,1,0.8
			C127.3,59.1,127.5,59.5,127.7,60.1z"/>
		<path class="st15" d="M126.9,66.7l-7.8,4.4c-0.6-0.2-1.2-0.6-1.7-1.1c-0.2-0.3-0.4-0.5-0.5-0.9l10.9-6.1
			C127.6,64.2,127.3,65.4,126.9,66.7z"/>
		<path class="st14" d="M120.9,53.1l-8.8,4.9c-0.8-0.3-1.6-0.7-2.2-1.4c-0.1-0.1-0.2-0.3-0.3-0.4l11.6-6.5
			C121.4,50.7,121.2,51.8,120.9,53.1z"/>
		<path class="st14" d="M134.9,73.2l-11.1,6.2c-0.1-1.1,0-2.2,0.2-3.3l8.6-4.8c0.7,0.3,1.3,0.7,1.8,1.2
			C134.6,72.8,134.7,73,134.9,73.2z"/>
		<g>
			<path class="st16" d="M123.7,82.1c-0.5,0-1-0.4-1-0.9c0-0.2,0-0.4,0-0.7c0-0.2,0-0.5,0-0.8c0-0.6,0.1-1.2,0.1-1.7
				c0-0.4,0.1-0.7,0.1-1.1c0-0.2,0.1-0.4,0.1-0.5c0.2-0.9,0.4-1.8,0.6-2.8c0.1-0.5,0.3-1,0.4-1.4c0.1-0.4,0.2-0.7,0.3-1.1
				c0-0.1,0.1-0.2,0.1-0.3c0.2-0.8,0.5-1.5,0.8-2.2c0.3-0.7,0.5-1.4,0.7-2.1c0.2-0.6,0.4-1.3,0.5-1.9c0.1-0.6,0.3-1.2,0.3-1.7
				c0.1-0.5,0.1-1,0.1-1.4c0-0.2,0-0.4,0-0.6s-0.1-0.4-0.1-0.5c-0.1-0.2-0.1-0.4-0.2-0.6c-0.1-0.2-0.2-0.3-0.3-0.4
				c-0.1-0.1-0.2-0.2-0.3-0.3c-0.1-0.1-0.3-0.2-0.4-0.3l0,0c-0.2-0.1-0.5-0.2-0.8-0.3s-0.6-0.1-1-0.1c-0.7,0-1.5,0-2.4,0.1
				c-0.6,0.1-1.2,0.2-1.8,0.2l0,0c-0.3,0-0.5,0.1-0.8,0.1c-0.7,0.1-1.4,0.2-2.1,0.3c-1,0.1-1.9,0.2-2.9,0.1c-0.6,0-1.2-0.1-1.8-0.3
				c-0.5-0.1-1-0.4-1.4-0.6c-0.2-0.1-0.4-0.3-0.6-0.5c-0.2-0.2-0.4-0.4-0.6-0.6c-0.1-0.2-0.2-0.3-0.4-0.5l0,0
				c-0.1-0.2-0.2-0.3-0.3-0.5c-0.2-0.4-0.4-0.9-0.5-1.3c-0.1-0.4-0.2-0.9-0.2-1.3c0-0.5,0.4-1,1-1c0.5,0,0.9,0.4,1,0.8
				c0,0,0,0.1,0,0.1c0,0.3,0,0.5,0.1,0.8c0.1,0.3,0.2,0.5,0.3,0.8c0.1,0.1,0.1,0.2,0.2,0.3c0.1,0.1,0.2,0.2,0.3,0.3
				c0.2,0.3,0.5,0.5,0.8,0.7c0.3,0.2,0.6,0.3,0.9,0.4c0.3,0.1,0.7,0.2,1,0.2c0.4,0,0.8,0.1,1.2,0.1c0.8,0,1.7-0.1,2.7-0.2
				c0.6-0.1,1.2-0.2,1.8-0.3c0,0,0,0,0.1,0c0.8-0.1,1.6-0.2,2.5-0.3c0.8-0.1,1.6-0.1,2.4,0c0.5,0,1,0.1,1.5,0.3
				c0.3,0.1,0.5,0.2,0.8,0.3c0.2,0.1,0.5,0.3,0.7,0.4c0.2,0.2,0.4,0.4,0.6,0.6c0.2,0.2,0.4,0.5,0.5,0.8c0.1,0.2,0.2,0.3,0.2,0.5
				c0.1,0.2,0.1,0.3,0.2,0.5c0.2,0.5,0.2,1.1,0.2,1.6c0,0.6,0,1.1-0.1,1.7l0,0c-0.1,0.6-0.2,1.2-0.4,1.9c-0.1,0.3-0.2,0.6-0.3,1
				c-0.1,0.3-0.2,0.7-0.3,1c-0.2,0.7-0.5,1.4-0.7,2.2c-0.3,0.7-0.5,1.5-0.7,2.2c-0.3,0.8-0.5,1.8-0.8,2.7c-0.2,0.9-0.5,1.8-0.6,2.6
				l0,0c0,0.2-0.1,0.4-0.1,0.6s-0.1,0.5-0.1,0.8c0,0.5-0.1,1.1-0.1,1.6c0,0.4,0,0.7,0,1c0,0.2,0,0.3,0,0.4
				C124.7,81.6,124.3,82.1,123.7,82.1z"/>
		</g>
		<path class="st16" d="M107.8,51.3c-0.1-0.2-0.1-0.4-0.1-0.6c0,0,0-0.1,0-0.2c0-0.2,0.1-0.6,0.1-1c0.1-0.5,0.6-0.9,1.1-0.8
			s0.9,0.6,0.8,1.1c-0.1,0.6-0.1,0.9-0.1,1c0,0.1,0,0.1,0,0.2c-0.1,0.7-0.7,0.9-1.1,0.8C108.3,51.8,108,51.6,107.8,51.3z"/>
		<path class="st16" d="M134.5,82.1c-0.1-0.2-0.1-0.4-0.1-0.6l0-0.3c0.1-0.5,0.6-0.9,1.1-0.8c0.5,0.1,0.9,0.6,0.8,1.1l0,0.3
			c-0.1,0.5-0.6,0.9-1.1,0.8C134.9,82.6,134.6,82.4,134.5,82.1z"/>
		<path class="st16" d="M135.8,79.7c-0.1,0-0.2,0-0.3-0.1c-0.4-0.2-0.7-0.5-0.6-1c0-0.5,0.1-1,0.1-1.5c0-0.5,0-1-0.1-1.4l0,0
			c-0.1-0.3-0.1-0.7-0.2-1c-0.1-0.3-0.2-0.6-0.4-0.9c0-0.1-0.1-0.2-0.2-0.3c-0.1-0.2-0.3-0.4-0.4-0.5l0,0c-0.2-0.2-0.4-0.4-0.7-0.6
			c-0.2-0.2-0.5-0.3-0.8-0.4l0,0c-0.3-0.1-0.7-0.2-1-0.3c-0.4-0.1-0.8-0.1-1.2-0.2c-0.4,0-0.8,0-1.2,0c-0.5,0-1,0-1.5,0.1
			c-0.4,0-0.8,0.1-1.3,0.1l-0.8,0.1c-0.8,0.1-1.6,0.2-2.4,0.2c-0.9,0.1-1.7,0.1-2.5,0c-0.5-0.1-1.1-0.2-1.6-0.3
			c-0.4-0.1-0.7-0.3-1.1-0.5c-0.3-0.2-0.7-0.5-1-0.8l0,0c-0.2-0.2-0.4-0.5-0.5-0.7c-0.1-0.1-0.1-0.3-0.2-0.4
			c-0.1-0.3-0.2-0.5-0.3-0.8c-0.1-0.3-0.1-0.5-0.1-0.8c0-0.6,0-1.1,0.1-1.7c0.1-0.6,0.2-1.2,0.4-1.9c0.2-0.6,0.4-1.3,0.6-2
			c0.3-0.8,0.6-1.6,0.9-2.4s0.6-1.6,0.9-2.4c0.3-0.8,0.6-1.6,0.8-2.4c0.3-0.8,0.5-1.5,0.7-2.2l0,0c0.1-0.6,0.3-1.1,0.3-1.7
			c0.1-0.5,0.1-1,0.1-1.5l0,0c0-0.2,0-0.4-0.1-0.6c0-0.2-0.1-0.4-0.1-0.5c-0.2-0.5,0.1-1,0.6-1.2s1,0.1,1.2,0.6
			c0.1,0.5,0.2,1,0.3,1.6c0,0.6,0,1.2-0.1,1.8c-0.1,0.6-0.2,1.2-0.4,1.9c-0.2,0.8-0.4,1.6-0.7,2.4c-0.3,0.8-0.6,1.6-0.9,2.4
			c-0.3,0.8-0.6,1.6-0.9,2.4c-0.1,0.2-0.2,0.5-0.3,0.7c-0.2,0.6-0.4,1.1-0.6,1.6l0,0c-0.2,0.6-0.4,1.3-0.6,1.8
			c-0.1,0.6-0.3,1.1-0.3,1.6l0,0l0,0c0,0.4-0.1,0.7-0.1,1c0,0.3,0,0.6,0.1,0.9c0,0.2,0.1,0.3,0.2,0.5c0,0.1,0.1,0.1,0.1,0.2
			c0.1,0.1,0.2,0.3,0.3,0.4c0.2,0.2,0.4,0.3,0.6,0.5c0.2,0.1,0.4,0.2,0.7,0.3c0.3,0.1,0.5,0.2,0.9,0.2c0.3,0,0.6,0.1,1,0.1
			c0.7,0,1.5,0,2.3-0.1c0.5-0.1,1.1-0.1,1.7-0.2c0.7-0.1,1.5-0.2,2.2-0.2c0.5,0,1-0.1,1.6-0.1c0.2,0,0.4,0,0.7,0c0.5,0,1,0,1.4,0.1
			c0.6,0.1,1.3,0.3,1.9,0.5l0,0c0.4,0.2,0.8,0.4,1.1,0.6c0.4,0.2,0.7,0.5,1,0.9l0,0c0.1,0.1,0.2,0.2,0.3,0.4
			c0.1,0.1,0.2,0.3,0.3,0.4c0.1,0.1,0.1,0.2,0.2,0.4c0.2,0.4,0.4,0.8,0.5,1.2c0.1,0.4,0.2,0.8,0.3,1.2c0.1,0.6,0.1,1.1,0.2,1.7
			s0,1.1-0.1,1.7C136.8,79.4,136.3,79.8,135.8,79.7z"/>
	</g>
</g>
</svg>
