<?xml version="1.0" encoding="utf-8"?>
<!-- Generator: Adobe Illustrator 25.1.0, SVG Export Plug-In . SVG Version: 6.00 Build 0)  -->
<svg version="1.1" xmlns="http://www.w3.org/2000/svg" xmlns:xlink="http://www.w3.org/1999/xlink" x="0px" y="0px"
	 viewBox="0 0 1076.2 1079.9" style="enable-background:new 0 0 1076.2 1079.9;" xml:space="preserve">
<style type="text/css">
	.st0{fill:#49A356;fill-opacity:0.9882;}
	.st1{fill:#2ED265;fill-opacity:0.9882;}
	.st2{fill:#2ED265;}
	.st3{fill:#34E08F;}
	.st4{opacity:0.49;fill:#0CF4CC;}
	.st5{opacity:0.375;fill:#0F2111;fill-opacity:0.8902;enable-background:new    ;}
	.st6{opacity:0.329;fill:#FFFFFF;fill-opacity:0.9882;enable-background:new    ;}
	.st7{display:none;}
	.st8{display:inline;fill:#B50000;}
</style>
<g id="Layer_1">
	<circle class="st0" cx="535.6" cy="551.6" r="458"/>
	<circle class="st1" cx="535.6" cy="551.6" r="448.7"/>
	<circle class="st2" cx="535.6" cy="551.6" r="446.4"/>
	<path class="st3" d="M535,104.2c-20.7,0.2-41.5,1.8-62,4.8c-7.9,12.6-13.4,26.3-14.3,40.6c-1.2,17.2,8.4,35.1,20.2,47.6
		c14.7,15.7,37.5,21.5,57.7,28.9c33,12,67.7,29.6,102.5,24.5c27.5-4,73.8-14.1,72.2-41.9c-2-32.9-58-36.9-90.9-39
		c-24.5-1.6-48,29.5-70.7,20.2c-7.2-2.9-14-12.9-11.5-20.2c2.3-6.9,13.4-5.9,20.2-8.7c17.2-7,33.6-17.4,52-20.2
		c30.5-4.7,63.9-6.1,92.4,5.8c30.9,12.8,65.2,34.5,75.1,66.4c5.9,18.9-3,41.5-14.4,57.7c-10,14.2-26.5,24.7-43.3,28.9
		c-45.1,11.1-93.7-2.5-138.6-14.4c-34.6-9.2-66.7-26.3-98.1-43.3c-31.2-16.8-63.1-34-89.5-57.7c-12.9-11.6-22.1-28.2-31-44.8
		c-36.8,15.4-71.4,35.6-102.8,60.2c10.9,10.4,21.7,20.7,29.9,30.9c12.8,15.9,28.4,29.3,43.3,43.3c15.9,14.9,28.7,35.6,49.1,43.3
		c21.6,8.2,46.2,0,69.3,0c31.8,0,63.5-1.1,95.3,0c27,1,54.2,1.5,80.8,5.8c15.7,2.5,30.5,9.3,46.2,11.5c23.8,3.4,49.4,10.6,72.2,2.9
		c31.4-10.6,57.2-36.5,76.5-63.5c9.2-12.9,17.9-27.5,22.9-42.8C762.4,149.8,651,104.4,535,104.2L535,104.2z M846.8,232.3
		c-1.7,8.7-2.6,18.3-5.8,25.6c-4.4,10.2-8.9,20.4-14.1,30.3c-6.7,12.8-31.8,26.9-21.9,37.5c15,16.2,44.7-12.5,59.5-28.9
		c6.5-7.2,13.1-15.9,18.2-25.2C871.6,257.8,859.6,244.7,846.8,232.3L846.8,232.3z M191.4,266.9c-14.8,18.1-28.1,37.4-39.8,57.6
		c10.6,3.7,21.9,7.3,28.6,14.2c9,9.3,16.5,20.8,20.2,33.2c8.9,30-10,65.3,2.9,93.8c9,19.9,30.3,31.6,47.6,44.7
		c22.9,17.4,52.7,25.1,73.6,44.7c12.9,12,15.2,34.3,30.3,43.3c44.5,26.4,102.7,14.7,154.4,17.3c51.4,2.6,103-0.1,154.4-1.4
		c23.1-0.6,47.3,4.4,69.3-2.9c24.3-8.1,43.1-27.9,63.5-43.3c42-31.7,83.1-64.8,121.2-101c15.4-14.6,28.1-31.8,42.7-47.2
		c-2.8-9.4-5.9-18.7-9.3-27.9c-22.3,15.7-47.4,39.4-68,47.6c-52.6,20.9-109.4,31.4-160.2,56.3c-15.9,7.8-27.9,23.4-44.7,28.9
		c-31.6,10.3-68.2-5.3-99.6,5.8c-15.6,5.5-43.1,12.5-40.4,28.9c3.3,19.8,37.7,16.1,57.7,17.3c24.9,1.5,51.7-1.1,73.6-13
		c8.1-4.4,22.8-11.9,18.8-20.2c-10.1-20.8-64.5,28.4-69.3,5.8c-3-14.4,27.3-11.7,41.9-14.4c12.3-2.3,27.3-8.7,37.5-1.4
		c6.6,4.7,10,15.5,7.2,23.1c-4.3,11.8-20.1,15.6-31.8,20.2c-19.1,7.6-40.1,10-60.6,11.5c-25.4,1.9-52,4.2-76.5-2.9
		c-10.1-2.9-21-7.5-27.4-15.9c-5.5-7.1-10.6-17.6-7.2-26c4.6-11.4,20.7-13.4,31.8-18.8c8.4-4.1,28-1,26-10.1
		c-2.8-12.2-25.2,5.4-37.5,2.9c-13.3-2.7-22.6-16.9-36.1-18.8c-29.7-4-58.2,15.6-88,18.8c-14.4,1.5-29.9,5.2-43.3,0
		c-21.9-8.5-36.8-29.7-52-47.6c-14.8-17.5-23.4-39.6-37.5-57.7c-5.2-6.7-13.2-11.3-17.3-18.8c-15.4-27.5-9.5-64-26-90.9
		C214.1,289.8,204.5,273.7,191.4,266.9L191.4,266.9z M496.7,337.6c-5.8,0.1-11.1,1.5-15.6,5.4c-6.6,5.7-7.6,18.5-3.1,26
		c7.1,12.1,25.2,14,39.1,15.9c15.6,2.1,31.2-4.8,46.9-5.8c8.9-0.5,17.8,0.6,26.6,0c14.7-1,40.8,8.7,43.8-5.8
		c2.9-13.7-22.7-17.1-36-21.6c-19.4-6.6-40.6-5.8-61-7.2C524.6,343.5,509.5,337.4,496.7,337.6z M968.6,451.9
		c-71.2,2-117.2,154.5-197.1,185.1c-12.1,4.6-26.1-0.5-38.8,2c-36.5,7.4-70.2,24.9-105.1,37.8c-38.2,14-75,32.4-114.3,42.9
		c-14.3,3.8-29.1,6.7-43.9,7.1c-34.2,1.1-68.7-2.5-102.1-10.2c-47-10.8-92.3-29-135.7-50c-25.8-12.5-48-58.2-73.5-44.9
		c-4.8,2.5-2,11-1,16.3c2.5,13.3,8.1,26.8,17.4,36.7c39.9,42.8,97.6,67.2,153.1,85.7c14.3,4.8,29.8,5.6,44.9,6.1
		c21.8,0.8,44.1,0.8,65.3-4.1c20.8-4.8,38.6-18.9,59.2-24.5c17.2-4.6,35.2-6.6,53.1-7.1c24.2-0.8,48.4,2.7,72.5,5.1
		c36.9,3.7,73.2,13.5,110.2,14.3c27.7,0.6,56.6,2,82.7-7.1c23.2-8.1,46.4-21.3,61.2-40.8c7.3-9.7,20.4-26.8,11.2-34.7
		c-5.2-4.5-12.2,6.2-18.4,9.2c-22.7,11.1-44.6,24.1-68.4,32.7c-15.5,5.6-31.6,14.6-48,12.2c-7.9-1.1-18.1-4.7-20.4-12.2
		c-2.7-8.6,4.9-18.1,11.2-24.5c15.3-15.6,41.1-16.2,59.2-28.6c47.6-32.7,81.9-81.7,126.6-118.4c14-11.5,33.4-17.9,48.2-28.2
		C976.1,490.3,973,470.9,968.6,451.9L968.6,451.9z M320.1,454.4c-1.4,0-2.8,0.6-4.3,1.9c-12.6,11,14.1,33.2,28.9,41.1
		c14.6,7.9,47.6,17.9,49.8,1.4c2-15.2-31.2-3.5-44.7-10.8C337.8,481.6,329.7,454.4,320.1,454.4L320.1,454.4z M102.1,649.5
		c6.7,29.1,16.4,57.4,28.8,84.5c20.7,10.1,46.5,12.9,66,25.5c33.3,21.4,55.9,57.2,89.8,77.6c55,33,118.5,49.8,179.6,69.4
		c28.4,9.1,57,25.6,86.8,22.5c43.9-4.6,77.1-43.7,118.4-59.2c39.2-14.7,82.8-15.6,121.5-31.6c29.2-12.1,53.8-33.2,81.6-48
		c13.4-7.1,28.8-11.5,43.9-16.2c22.6-38.6,39.3-80.4,49.4-123.9c-33.8,11-64.4,75.9-99.5,99.3c-35.6,23.8-73.4,44.2-111.2,64.3
		c-45.8,24.4-89,58-139.8,68.4c-37.4,7.6-76.6-0.5-114.3-6.1c-51.7-7.7-103.5-18.5-152.1-37.8c-28.3-11.3-54.9-27.1-79.6-44.9
		c-29.7-21.4-52.4-51.5-81.6-73.5C162.6,699.2,130.2,649.4,102.1,649.5L102.1,649.5z M550.2,749.1c-1.7,0-3.5,0-5.3,0.1
		c-21.4,1.5-59.9,4-59.2,25.5c0.5,16.2,31,10,45.9,16.3c18.5,7.8,34.2,23.6,54.1,26.5c16.4,2.4,32.7-5.1,49-8.2
		c34.9-6.7,105.5,13,104.1-22.5c-1.5-37.7-75.3-7.7-112.3-15.3C600.7,766.4,576.3,749.6,550.2,749.1L550.2,749.1z"/>
	<path class="st4" d="M248.1,209.7c-4.9,4.1-9.7,8.4-14.5,12.7c9.5,10.8,18.5,21.8,22.9,35.2c5.7,17.2-3.1,36.8,1.1,54.4
		c8.6,36,20,76.2,48.2,100.1c14.6,12.3,37.8,7.8,55.1,16c22.9,10.9,38.7,34.9,62.6,43.3c53.3,18.7,113.2,20.1,169,11.5
		c36.5-5.6,67-33.6,103.3-40.4c23.6-4.4,50.8,11.4,72,0c18.3-9.8,19.7-37.3,34.4-52c24.9-24.7,60.9-35.5,88.3-57.4
		c6.3-5,14.8-10.2,23.9-15.5c-2.2-3.7-4.4-7.4-6.6-11c-3.5,3.5-7,6.4-10.6,8.4c-32.2,18.3-69.6,25.2-104.4,38
		c-28.2,10.4-55.7,23.1-84.5,31.7c-28.7,8.7-57.7,19.5-87.6,20.2c-54.1,1.3-107-16.3-159.6-28.9c-39.2-9.4-82.3-12.3-115.8-34.6
		c-34.2-22.8-53.4-62.6-78.2-95.2C259.9,237,253.8,223.9,248.1,209.7L248.1,209.7z M737.5,214.2c-0.9,0-1.8,0.2-2.7,0.5
		c-10,3.4-7.7,19.7-12,29.4c-2.8,6.5-5.7,13-9,19.3c-4.3,8.2-20.2,17.1-14,23.9c9.5,10.3,28.4-8,37.9-18.4
		c10.3-11.4,21.1-28.8,15.9-43.2C751.6,219.7,744,214,737.5,214.2L737.5,214.2z M122.3,383.9c-8.3,20.8-15,42.2-20,63.9
		c15.4,10.2,30.8,20.7,39.6,33c17.5,24.4,29.2,52.4,43.9,78.6c12.9,22.8,20.4,49.7,38.8,68.4c23.3,23.5,55.3,37,85.7,50
		c21.5,9.2,44.3,15.9,67.4,19.4c20.2,3,40.8,2,61.2,1c30.8-1.4,62-2.8,91.9-10.2c29.8-7.4,56.6-23.9,85.7-33.7
		c18.1-6,41.9-1.5,55.1-15.3c3.1-3.3,6-9.8,3.1-13.3c-21-25.1-65.6,0.6-98,5.1c-40.5,5.7-78.6,27.1-119.4,27.6
		c-13.5,0.2-26.9-4.1-39.8-8.2c-23.4-7.4-45.4-18.6-67.4-29.6c-31.1-15.5-62.3-31.3-90.8-51c-24.5-16.9-51.1-33-68.4-57.2
		c-13.8-19.3-14.3-45.5-25.5-66.3C153.4,424,144.2,395.7,122.3,383.9L122.3,383.9z M94.1,492.6c-1.8,14.2-2.9,28.4-3.4,42.7
		c0.3,0.2,0.7,0.5,1,0.7c14.2,11.1,34.1,14,46.9,26.5c9.9,9.7,11.9,25.6,21.4,35.7c9.9,10.5,23.5,32.2,35.7,24.5
		c9-5.7-0.6-21.9-5.1-31.6c-8.8-19.1-25.7-33.4-40.8-48C132.5,526.3,116.4,494.3,94.1,492.6L94.1,492.6z M979.2,527.2
		c-18.9,6.4-31.7,27.2-45.4,42.4c-10,11.1-14.6,26.6-25.5,36.7c-24.9,22.9-63.7,27.2-87.8,51c-7.6,7.5-21.3,18.1-16.3,27.6
		c4.8,9.1,20.7,4.6,30.6,2c19.3-5,33.3-43.4,50-32.7c5.8,3.7-1.9,13.6-3.1,20.4c-1.8,10.3-6.6,20.2-6.1,30.6
		c0.4,8.5-0.4,20.5,7.1,24.5c8.6,4.5,20.1-3,27.6-9.2c10.2-8.4,14.7-22.3,19.4-34.7c5.2-14,7.4-29,9.2-43.9c1-8.4-1.8-17.5,1-25.5
		c5.1-14.4,17.6-25.1,27.6-36.7c3-3.5,7-6.6,11.4-9.6c0.5-7,0.9-14.1,1.1-21.1C979.9,541.8,979.6,534.5,979.2,527.2L979.2,527.2z
		 M392.4,791.1c-11.9,0.5-21.1,4.4-24,15.3c-1.9,7.1,11.5,9.5,18.4,12.3c19.6,7.9,41.4,8,62.3,11.2c15.9,2.5,32.1,3.4,48,6.1
		c24.3,4.1,47.9,12.9,72.5,15.3c27.4,2.7,55.1-0.6,82.7-1c23.5-0.3,48.1,6.2,70.4-1c13.5-4.4,40-11.4,34.7-24.5
		c-6.9-17.2-36.7,6-55.1,8.2c-37.3,4.3-74.9,13.3-112.3,9.2c-45.7-5-86.1-35.2-131.7-40.8C439.6,799,412.2,790.3,392.4,791.1
		L392.4,791.1z M167,798.2c-0.1,0-0.1,0-0.2,0C249.5,920.6,387.4,993.9,535,994.1c70.7,0,140.3-16.9,203.2-49.2
		c-3.8,1.4-7.7,2.6-11.6,3.4c-21.3,4.3-44.4-5.9-65.3,0c-15,4.2-24.6,21.3-39.8,24.5c-42.6,9.1-87.6-5.7-129.6-17.4
		c-10.7-3-20.8-7.9-30.6-13.3c-15.1-8.2-26.9-22.2-42.9-28.6c-13.1-5.2-27.7-7.3-41.8-7.1c-12.5,0.1-24.5,9.4-36.7,7.1
		c-33.8-6.2-58-37-87.8-54.1C225.1,844,192.2,799.3,167,798.2L167,798.2z M855.1,857.5c-6.8,4.3-13.7,8.3-20.3,9.1
		c-31.4,4.1-64.7-14.5-94.9-5.1c-18.1,5.6-28.5,25.2-44.9,34.7c-25.5,14.7-53.4,25.4-81.6,33.7c-24.2,7.1-76.5-11.9-74.5,13.3
		c1.4,17.6,35.4,2,53.1,1c31.9-1.7,63.7-5.7,94.9-12.2c34-7.2,66.2-21.7,100-29.6c6.9-1.6,14.3-2.2,21.7-2.5
		C825.1,886.8,840.6,872.7,855.1,857.5L855.1,857.5z"/>
	<path class="st5" d="M857.3,227.2c26.1,67.3,35.9,139.8,28.6,211.6c-25.5,251.6-250.2,434.9-501.8,409.4
		c-96.8-10-187.8-50.6-260-115.8c62.2,160.7,209.4,272.9,380.8,290.2c251.6,25.5,476.3-157.8,501.8-409.4
		C1021.3,468.2,965.8,324.8,857.3,227.2L857.3,227.2z"/>
	<circle class="st6" cx="341.6" cy="353.9" r="180.5"/>
</g>
<g id="Layer_2" class="st7">
	<path class="st8" d="M874.3,243.3C790.5,151.3,669.8,93.6,535.6,93.6c-252.9,0-458,205-458,458c0,130.3,54.4,247.9,141.8,331.3
		c74.1,77.8,174.7,128.6,285.4,139.8c251.6,25.5,476.3-157.8,501.8-409.4C1020.5,475.9,971.5,340.1,874.3,243.3z"/>
</g>
</svg>
