<svg id="Ebene_1" data-name="Ebene 1" xmlns="http://www.w3.org/2000/svg" viewBox="0 0 581.46 581.47"><path d="M799,520.55c0,160.57-130.16,290.73-290.73,290.73S217.54,681.12,217.54,520.55,347.7,229.82,508.27,229.82,799,360,799,520.55Z" transform="translate(-217.54 -229.82)" fill="#34e08f"/><path d="M411,696.33l-37.11-11-9.29,26a4.39,4.39,0,0,1-6.74,2l-10.27-7.62H328l-.08-.06,0,.06-10.27,7.62a4.38,4.38,0,0,1-6.73-2l-9.3-26-27.17,8a291.91,291.91,0,0,0,106.17,88.44h57.27S427.39,717,427,714.9C424.16,700.55,411,696.33,411,696.33Z" transform="translate(-217.54 -229.82)" fill="#f6e6cb"/><path d="M285.85,590.9v-7.56c0-3.26,4.12-3.51,4.12-3.51h0c27.47-1.09,58.64-12.54,70.87-17.27a9.73,9.73,0,0,1,9.71,1.6l16.93,14a8.18,8.18,0,0,1,2.27,5.86v7.14c4.56-.4,9.74,1.07,12.63,3.63V573.23a64.59,64.59,0,0,0-129.17,0v21.45C276.1,592.09,281.28,590.57,285.85,590.9Z" transform="translate(-217.54 -229.82)" fill="#8c4f25"/><path d="M297.88,579.24v-6a64.69,64.69,0,0,1,52.25-63.39,64.58,64.58,0,0,0-76.92,63.39v21.45c2.89-2.59,8.07-4.11,12.64-3.78v-7.56c0-3.26,4.12-3.52,4.12-3.52h0Q293.89,579.66,297.88,579.24Z" transform="translate(-217.54 -229.82)" fill="#773c15"/><path d="M285.32,587.82c-8.61-.66-16.25,5.67-16.25,13.39s7.6,14.06,16.25,13.4Z" transform="translate(-217.54 -229.82)" fill="#c47657"/><path d="M390.27,588.07v26.29c8.64.8,16.26-5.51,16.26-13.15S398.87,587.27,390.27,588.07Z" transform="translate(-217.54 -229.82)" fill="#c47657"/><path d="M270.67,595.31a12,12,0,0,0-1.6,5.9c0,7.69,7.6,14.06,16.25,13.4v-11.8A15.48,15.48,0,0,1,270.67,595.31Z" transform="translate(-217.54 -229.82)" fill="#aa6046"/><path d="M390.27,602.56v11.8c8.64.8,16.26-5.51,16.26-13.15a11.79,11.79,0,0,0-1.63-5.9A15.27,15.27,0,0,1,390.27,602.56Z" transform="translate(-217.54 -229.82)" fill="#aa6046"/><path d="M360.07,676,347.6,705.85l10.28,7.62a4.38,4.38,0,0,0,6.73-2l9.29-26Z" transform="translate(-217.54 -229.82)" fill="#edd4b0"/><path d="M340.31,667.19a52.06,52.06,0,0,1-24.94-5V676L328,705.85h19.6L360.07,676V662.35A52.66,52.66,0,0,1,340.31,667.19Z" transform="translate(-217.54 -229.82)" fill="#c47657"/><path d="M327.75,672.15v-5.9a51.73,51.73,0,0,1-12.38-4.1V676L328,705.85h12.38c-.05-.13-11.17-26.37-11.12-26.25A19,19,0,0,1,327.75,672.15Z" transform="translate(-217.54 -229.82)" fill="#aa6046"/><path d="M388.53,576.58l-18-14a9.75,9.75,0,0,0-9.71-1.6c-12.23,4.73-44.45,16.18-71.92,17.27h0s-4.13.25-4.13,3.52v33.28c0,30.37,25.17,55.11,55.51,53.69a53,53,0,0,0,50.49-52.94V582.43A8.15,8.15,0,0,0,388.53,576.58Z" transform="translate(-217.54 -229.82)" fill="#c47657"/><path d="M297.86,615.06v-37.5c-3,.33-6,.57-8.94.69h0s-4.12.25-4.12,3.52v33.28c0,30.37,25.16,55.11,55.5,53.69,1.37-.06,2.72-.19,4.06-.36C318.21,665.11,297.86,642.37,297.86,615.06Z" transform="translate(-217.54 -229.82)" fill="#aa6046"/><path d="M315.47,676l12.47,29.82-10.27,7.62a4.38,4.38,0,0,1-6.73-2l-9.3-26Z" transform="translate(-217.54 -229.82)" fill="#edd4b0"/><path d="M678.79,508.65a70.65,70.65,0,0,0-70.65,70.64v79.37a9.28,9.28,0,0,0,9.28,9.27H740.16a9.27,9.27,0,0,0,9.27-9.27V579.29A70.64,70.64,0,0,0,678.79,508.65Z" transform="translate(-217.54 -229.82)" fill="#ccb840"/><path d="M657.48,645a12,12,0,0,1-12-12V580.35c0-32.7,21.91-60.81,52-69.17a70.64,70.64,0,0,0-89.38,68.12v79.36a9.28,9.28,0,0,0,9.28,9.27h45.92v-17A5.86,5.86,0,0,0,657.48,645Z" transform="translate(-217.54 -229.82)" fill="#b7a139"/><path d="M702.85,667.93V655.36a50.4,50.4,0,0,1-21.66,6,49.71,49.71,0,0,1-26.45-6.19v12.72l-19.85,16.52c-15.73,4.11-36.34,9.17-36.38,9.18a26.43,26.43,0,0,0-17.19,20c-.45,2.27-8,68.2-8,68.2H635.9A291.89,291.89,0,0,0,744.51,690c-6.73-1.69-14.77-3.73-21.82-5.57Z" transform="translate(-217.54 -229.82)" fill="#f6e6cb"/><path d="M702.85,667.93l-24.06,32.32c7.27,19.13,34.77,17.79,40.14-2l3.76-13.83Z" transform="translate(-217.54 -229.82)" fill="#edd4b0"/><path d="M654.74,667.93l24,32.32c-7.27,19.13-34.77,17.79-40.14-2l-3.76-13.83Z" transform="translate(-217.54 -229.82)" fill="#e0c096"/><path d="M678.79,727.75a9.54,9.54,0,0,0-9.54,9.54v25.37q9.82-6.54,19.08-13.84V737.29A9.54,9.54,0,0,0,678.79,727.75Z" transform="translate(-217.54 -229.82)" fill="#edd4b0"/><path d="M645.51,776.9c-4.33-26.6-9.65-59.22-10-61-4-20.45-22.76-26.46-22.76-26.46l-52.87-15.6L546.65,711a6.24,6.24,0,0,1-9.6,2.91L522.41,703H494.48l-.12-.09,0,.09-14.64,10.85a6.24,6.24,0,0,1-9.6-2.91l-13.24-37.11-53,15.6c-6.87,2.57-19.36,9.47-22.75,26.46l-10.21,61A291.07,291.07,0,0,0,645.51,776.9Z" transform="translate(-217.54 -229.82)" fill="#f6e6cb"/><path d="M559.89,673.85,546.65,711a6.53,6.53,0,0,1-1.13,2L534,810.14A289,289,0,0,0,645.51,776.9c-4.33-26.6-9.65-59.22-10-61-4-20.45-22.76-26.46-22.76-26.46Z" transform="translate(-217.54 -229.82)" fill="#6d6d7c"/><path d="M403.51,689.45s-18.75,6-22.76,26.46c-.34,1.77-5.64,34.28-10,60.86a289,289,0,0,0,111.49,33.34l-11.52-97.19a6.3,6.3,0,0,1-1.12-2c-4.28-12-10.14-29.91-12.71-37.11Z" transform="translate(-217.54 -229.82)" fill="#6d6d7c"/><path d="M403.29,707.46A34.79,34.79,0,0,1,418,685.22l-14.48,4.23s-18.75,6-22.76,26.46c-.34,1.77-5.64,34.28-10,60.86q9.9,5.33,20.24,9.88C395.61,757.76,403,709.06,403.29,707.46Z" transform="translate(-217.54 -229.82)" fill="#58596c"/><path d="M540.19,660.53,522.41,703l14.64,10.85a6.23,6.23,0,0,0,9.59-2.91l13.25-37.11Z" transform="translate(-217.54 -229.82)" fill="#edd4b0"/><path d="M494.48,703l-7.15,5.24h0l10.79,18.58h20.23l10.88-18.77L522.41,703Z" transform="translate(-217.54 -229.82)" fill="#5085fe"/><path d="M530.81,810.42l-12.46-83.58H498.12L485.47,810.4A294.51,294.51,0,0,0,530.81,810.42Z" transform="translate(-217.54 -229.82)" fill="#5085fe"/><path d="M476.48,660.53,494.4,703l-14.64,10.85a6.24,6.24,0,0,1-9.6-2.91l-13.24-37.11Z" transform="translate(-217.54 -229.82)" fill="#edd4b0"/><path d="M571.65,726.48l-11.76-52.63-19.7-13.32-8.47,67.16L550.4,748l19.69-17.11A4.73,4.73,0,0,0,571.65,726.48Z" transform="translate(-217.54 -229.82)" fill="#484a5e"/><path d="M445,726.48l11.9-52.63,19.56-13.32,8.46,67.16L466.27,748l-19.69-17.11A4.76,4.76,0,0,1,445,726.48Z" transform="translate(-217.54 -229.82)" fill="#484a5e"/><path d="M702.85,667.93V652.82a50.25,50.25,0,0,1-21.66,6,49.61,49.61,0,0,1-26.45-6.18v15.26l24,32.32Z" transform="translate(-217.54 -229.82)" fill="#f59d6b"/><path d="M674.31,672.61a17.63,17.63,0,0,1-3.48-10.52v-3.84a49.54,49.54,0,0,1-16.09-5.58v15.26l24,32.32,8.05-10.81Z" transform="translate(-217.54 -229.82)" fill="#f28b51"/><path d="M725.15,584.57a49.41,49.41,0,0,1-14.44-22,6.39,6.39,0,0,0-4.42-4.31l-.09,0a6.59,6.59,0,0,0-7.1,3.12s-21.43,40.81-69.93,47.49a1.09,1.09,0,0,0-.94,1.07c0,28.47,23.08,52.1,51.55,51.55a50.55,50.55,0,0,0,49.57-50.55V593.45A11.72,11.72,0,0,0,725.15,584.57Z" transform="translate(-217.54 -229.82)" fill="#f9ae85"/><path d="M645.51,610.89v-5.84a92.63,92.63,0,0,1-16.34,3.77,1.09,1.09,0,0,0-.94,1.07c0,28.47,23.08,52.1,51.55,51.55a50.83,50.83,0,0,0,7.65-.73A50.57,50.57,0,0,1,645.51,610.89Z" transform="translate(-217.54 -229.82)" fill="#f59d6b"/><path d="M434.16,539.22V528.45c0-4.66,5.88-5,5.88-5h0c39.15-1.55,83.56-17.87,101-24.61a13.9,13.9,0,0,1,13.84,2.28L579,521a11.59,11.59,0,0,1,3.24,8.33v10.18c6.48-.57,13.88,1.53,18,5.17V514a92,92,0,0,0-184.07,0V544.6C420.27,540.91,427.66,538.75,434.16,539.22Z" transform="translate(-217.54 -229.82)" fill="#8c4f25"/><path d="M433.41,534.82c-12.28-.93-23.15,8.09-23.15,19.09s10.82,20,23.15,19.09Z" transform="translate(-217.54 -229.82)" fill="#f59d6b"/><path d="M583,535.17v37.47c12.3,1.15,23.16-7.85,23.16-18.73S595.21,534,583,535.17Z" transform="translate(-217.54 -229.82)" fill="#f59d6b"/><path d="M580.48,518.8l-25.62-19.94A13.91,13.91,0,0,0,541,496.57c-17.43,6.74-63.33,23.06-102.48,24.62h0s-5.88.36-5.88,5v47.43c0,43.28,35.87,78.53,79.1,76.52a75.53,75.53,0,0,0,72-75.44V527.14A11.67,11.67,0,0,0,580.48,518.8Z" transform="translate(-217.54 -229.82)" fill="#f9ae85"/><path d="M434.41,539.22V528.45c0-4.66,5.88-5,5.88-5h0c39.15-1.55,83.56-17.87,101-24.61a13.9,13.9,0,0,1,13.84,2.28L579.24,521a11.59,11.59,0,0,1,3.24,8.33v10.18c6.48-.57,13.88,1.53,18,5.17V514a92,92,0,0,0-184.07,0V544.6C420.52,540.91,427.91,538.75,434.41,539.22Z" transform="translate(-217.54 -229.82)" fill="#8c4f25"/><path d="M450.76,522.68V514a92.16,92.16,0,0,1,74.86-90.4A91.92,91.92,0,0,0,416.41,514V544.6c4.11-3.69,11.5-5.85,18-5.38V528.45c0-4.66,5.88-5,5.88-5h0C443.74,523.28,447.24,523,450.76,522.68Z" transform="translate(-217.54 -229.82)" fill="#773c15"/><path d="M433.67,534.82c-12.29-.93-23.16,8.09-23.16,19.09s10.82,20,23.16,19.09Z" transform="translate(-217.54 -229.82)" fill="#f59d6b"/><path d="M583.22,535.17v37.47c12.3,1.15,23.16-7.85,23.16-18.73S595.46,534,583.22,535.17Z" transform="translate(-217.54 -229.82)" fill="#f59d6b"/><path d="M413.36,544.49a17.33,17.33,0,0,0-2.85,9.42c0,11,10.82,20,23.16,19.09V554.16A22.26,22.26,0,0,1,413.36,544.49Z" transform="translate(-217.54 -229.82)" fill="#f28b51"/><path d="M583.22,553.81v18.83c12.3,1.15,23.16-7.85,23.16-18.73a17,17,0,0,0-2.91-9.42A21.91,21.91,0,0,1,583.22,553.81Z" transform="translate(-217.54 -229.82)" fill="#f28b51"/><path d="M512,647.92a74,74,0,0,1-35.54-7.17v19.78c1.84,4.34-6.67-15.74,18,42.49h27.94l17.78-42.49V641A75,75,0,0,1,512,647.92Z" transform="translate(-217.54 -229.82)" fill="#f59d6b"/><path d="M499.81,665.62A27.11,27.11,0,0,1,497.65,655v-7.8a74.23,74.23,0,0,1-21.17-6.45v19.78c1.84,4.34-6.67-15.74,18,42.49h21.18Z" transform="translate(-217.54 -229.82)" fill="#f28b51"/><path d="M580.73,518.8l-25.62-19.94a13.91,13.91,0,0,0-13.84-2.29c-17.43,6.74-63.33,23.06-102.47,24.62h0s-5.88.36-5.88,5v47.43c0,43.28,35.87,78.53,79.1,76.52a75.53,75.53,0,0,0,72-75.44V527.14A11.62,11.62,0,0,0,580.73,518.8Z" transform="translate(-217.54 -229.82)" fill="#f9ae85"/><path d="M450.77,573.64V520.29c-4,.43-8,.74-12,.9h0s-5.88.36-5.88,5v47.43c0,43.28,35.87,78.53,79.1,76.51,1.82-.08,3.6-.25,5.38-.46C480,645.17,450.77,612.68,450.77,573.64Z" transform="translate(-217.54 -229.82)" fill="#f59d6b"/><path d="M515.62,703H494.47l-7.14,5.24h0l10.79,18.58h17.5A12.87,12.87,0,0,1,515.62,703Z" transform="translate(-217.54 -229.82)" fill="#3c78ef"/><path d="M531.72,727.69,521.43,811a294.2,294.2,0,0,0,29.45-2.82l13.18-37.37A10,10,0,0,0,562,760.67Z" transform="translate(-217.54 -229.82)" fill="#58596c"/><path d="M484.94,727.69l-30.27,33a10,10,0,0,0-2.07,10.12l13.19,37.4A294.2,294.2,0,0,0,495.24,811Z" transform="translate(-217.54 -229.82)" fill="#58596c"/><path d="M694.24,679.49l-15.45,20.76c7.27,19.13,34.77,17.79,40.14-2l1.61-5.93C710.35,703.48,691.69,694.55,694.24,679.49Z" transform="translate(-217.54 -229.82)" fill="#e0c096"/><path d="M332.65,426.83h125a21.59,21.59,0,0,0,21.59-21.58V329a21.59,21.59,0,0,0-21.59-21.58h-125A21.58,21.58,0,0,0,311.07,329v76.27A21.58,21.58,0,0,0,332.65,426.83Z" transform="translate(-217.54 -229.82)" fill="#38a0f5"/><path d="M345.41,410.65V456l36.34-36.34Z" transform="translate(-217.54 -229.82)" fill="#38a0f5"/><path d="M341.25,334.66h57v11.47h-57Z" transform="translate(-217.54 -229.82)" fill="#fff"/><path d="M341.25,359.09H456.62v11.48H341.25Z" transform="translate(-217.54 -229.82)" fill="#fff"/><path d="M341.25,383.52H456.62V395H341.25Z" transform="translate(-217.54 -229.82)" fill="#fff"/><path d="M697.54,429.41h-89.7a15.48,15.48,0,0,1-15.48-15.48V359.21a15.49,15.49,0,0,1,15.48-15.49h89.7A15.49,15.49,0,0,1,713,359.21v54.72a15.48,15.48,0,0,1-15.48,15.48Z" transform="translate(-217.54 -229.82)" fill="#2696ff"/><path d="M688.38,417.8v32.51l-26.07-26.07Z" transform="translate(-217.54 -229.82)" fill="#38a0f5"/><path d="M610.16,361.77h41.12v9.43H610.16Z" transform="translate(-217.54 -229.82)" fill="#fff"/><path d="M610.16,381.85h83.2v9.43h-83.2Z" transform="translate(-217.54 -229.82)" fill="#fff"/><path d="M628.24,401.93h65.12v9.44H628.24Z" transform="translate(-217.54 -229.82)" fill="#fff"/></svg>