<svg id="Ebene_1" data-name="Ebene 1" xmlns="http://www.w3.org/2000/svg" viewBox="0 0 529.06 529.03"><path d="M770.59,521.48a263.4,263.4,0,0,1-63.51,172c-2.52,3-5.11,5.82-7.78,8.66-2.17,2.34-4.4,4.62-6.65,6.87a264.49,264.49,0,0,1-68.18,49.09,257.18,257.18,0,0,1-31,13.12h0c-7.09,2.5-14.35,4.7-21.71,6.58A264.9,264.9,0,0,1,506.05,786c-1.22,0-2.44,0-3.64,0a261.59,261.59,0,0,1-37.28-3.1c-.52-.08-1-.15-1.52-.27l-2-.3-3.74-.66c-2-.36-3.91-.73-5.86-1.15l-1.35-.29c-5.6-1.2-11.15-2.57-16.6-4.11h0q-4.69-1.32-9.32-2.83A256.43,256.43,0,0,1,400,763.85a253.68,253.68,0,0,1-23.12-11.49l-29.36-19.12a264.1,264.1,0,0,1-106-211.76C241.53,375.39,360,257,506.05,257S770.59,375.39,770.59,521.48Z" transform="translate(-241.53 -256.97)" fill="#34e08f"/><path d="M711,403.77v0l-.39,26.67a58.73,58.73,0,0,1-11.71,34.32l-1.1,1.49h0c-2,0-73.59,93-139.74,178.66l-28.26,36.57q-8.81,11.37-17.12,22.08c-28.08,36.21-50.94,65.37-60.62,76.88l-1.35-.29c-5.6-1.2-11.15-2.57-16.6-4.11h0c-2.28-1.68-4.74-3.54-7.34-5.47l-20.39-15.23c-7-5.26-14.05-10.54-20.34-15.23l-20.36-15.21c-1-.78,33.76-49.5,76.91-109.33,0,0,0,0,0,0,6.2-8.58,12.59-17.41,19-26.35.44-.62.86-1.2,1.3-1.79,7.08-9.8,14.25-19.75,21.44-29.68l12.39-17.16q4.19-5.76,8.31-11.49c50.31-69.62,95.15-131.82,96-135l0,0V394s0,0,0,0l1.13-1.49a58.71,58.71,0,0,1,29.58-20.93l25.49-7.95,25.23-2.15a17.71,17.71,0,0,1,8.78-.49h0a18.08,18.08,0,0,1,14.65,18Z" transform="translate(-241.53 -256.97)" fill="#f2d1a4"/><path d="M696.52,362.62c-4.42-3.3-8.16-3-14-1.16l-25.23,2.14-25.49,7.95a58.81,58.81,0,0,0-29.6,20.93L601.06,394c1.65,2.73-23,41.1-20.3,43.12L599.37,451l29.07-38.89a112.21,112.21,0,0,1,24.73-24.57l41.28-28.81c4.3-3,0,2.38,2.07,3.89Z" transform="translate(-241.53 -256.97)" fill="#deb280"/><path d="M395.7,769.64a.76.76,0,0,0,.14.1l-.17-.07v0Z" transform="translate(-241.53 -256.97)" fill="#96eae5"/><path d="M697.81,466.28l-137,183.33-27.53,36.84-16.57,22.18h0l-55,73.65-3.74-.66c-2-.36-3.91-.73-5.86-1.15l-1.35-.29c-5.6-1.2-11.15-2.57-16.6-4.11h0q-4.69-1.32-9.32-2.83A256.43,256.43,0,0,1,400,763.85l6.33-8.48,71.44-95.57v0l18.73-25.06,31.12-41.61L648.33,431.62a25.4,25.4,0,0,0,35.57-5.14,25.36,25.36,0,0,0,5.16,35.57,24.8,24.8,0,0,0,8.73,4.23Z" transform="translate(-241.53 -256.97)" fill="#96eae5"/><path d="M648.33,431.62,527.64,593.11l-31.12,41.61-18.73,25.06v0l-71.44,95.57L400,763.85a253.68,253.68,0,0,1-23.12-11.49l-29.36-19.12L438.89,611l0,0,9.46-12.66L459.8,583l12.9-17.26,0,0,21.73-29.1,8.7-11.66L601,394.09l0,0V394l0,0a25.45,25.45,0,0,0,42.12,2.06A25.43,25.43,0,0,0,648.33,431.62Z" transform="translate(-241.53 -256.97)" fill="#38a0f5"/><path d="M711,403.79l.49-32.3A18.06,18.06,0,0,0,688.09,354l-30.83,9.62Z" transform="translate(-241.53 -256.97)" fill="#665e66"/><path d="M704.27,356.75A17.92,17.92,0,0,0,688.09,354l-30.83,9.62,14.59,10.91,22.6-15.78C698.76,355.73,702.26,355.24,704.27,356.75Z" transform="translate(-241.53 -256.97)" fill="#544f57"/><path d="M697.82,466.28h0" transform="translate(-241.53 -256.97)" fill="none"/><path d="M683.9,426.48,541.6,616.9,512,656.5l-17.8,23.86h0L426.74,770.6l-2,2.64A256.43,256.43,0,0,1,400,763.85a253.68,253.68,0,0,1-23.12-11.49L386,740.14l75.4-100.87,0,0L481.06,613l32.62-43.64L643.2,396.05a25.41,25.41,0,1,0,40.7,30.43Z" transform="translate(-241.53 -256.97)" fill="#53b1f2"/><path d="M440.89,407.88a53.42,53.42,0,0,1-13.79,74.27l-33.54,23A53.4,53.4,0,0,1,310.41,454a291.56,291.56,0,0,0-.86-87.74,12,12,0,0,1,18-12.36,292.4,292.4,0,0,0,81.59,32.29,53.2,53.2,0,0,1,31.76,21.72Z" transform="translate(-241.53 -256.97)" fill="#b88a5c"/><path d="M314.58,354.27c-1.34.92-1,4,.87,7.91a521.19,521.19,0,0,1,27.31,69.57c2.91,9.5,8.55,20.9,16.38,32.29,8.35,12.16,17.6,22,25.83,28.08s15.39,8.4,19.58,5.52l-11,7.55A53.4,53.4,0,0,1,310.41,454a291.89,291.89,0,0,0-.85-87.74,12,12,0,0,1,5-12Z" transform="translate(-241.53 -256.97)" fill="#9e7047"/><path d="M372.44,522.75l78.6-54L495,532.68l-78.6,54Z" transform="translate(-241.53 -256.97)" fill="#f5db5a"/><path d="M372.44,522.74l78.6-54,18.37,26.73-78.6,54Z" transform="translate(-241.53 -256.97)" fill="#efc359"/><path d="M372.44,522.74,401.26,503l43.91,63.92-28.82,19.8Z" transform="translate(-241.53 -256.97)" fill="#efc359"/><path d="M624.47,758.06,560.81,649.61l-2.76-4.67-16.45-28-14-23.79-14-23.76L507,558.06l-6.73-11.45-3.54-6-2.3-3.94-.71-1.19-45.54,31.29-6.7,4.6-22.08,15.18h0l8,10.09s0,0,0,0L435.74,607l3.18,4,3.67,4.6,18.84,23.66,16.36,20.54v0l16.38,20.56h0l18.48,23.23,4,5h0l55.08,69.13c7.36-1.88,14.62-4.08,21.71-6.57h0Z" transform="translate(-241.53 -256.97)" fill="#df6b57"/><path d="M414.56,486.91l-14.15,9.72-33.48-48.74a8.58,8.58,0,1,1,14.15-9.72Z" transform="translate(-241.53 -256.97)" fill="#9e7047"/><path d="M432.24,492.65l-16.95,2.69L406,437a8.58,8.58,0,0,1,16.95-2.7Z" transform="translate(-241.53 -256.97)" fill="#9e7047"/><path d="M533.28,686.45l60.22,84.73c-7.09,2.5-14.35,4.7-21.71,6.58l-55.08-69.13h0l-4-5-18.48-23.23h0L477.79,659.8v0l-16.38-20.51L442.56,615.6,438.89,611l-11.44-14.38-8-10.09h0l22.08-15.18,6.7-4.6,6.33,8.92,1.22,1.71h0l4,5.65,3.13,4.4.41.61L481.06,613l15.46,21.73L512,656.5l17.8,25Z" transform="translate(-241.53 -256.97)" fill="#dd544f"/><path d="M438.28,460.41l-69,47.4a16.94,16.94,0,1,0,19.18,27.92l69-47.41a16.93,16.93,0,0,0-19.17-27.91Z" transform="translate(-241.53 -256.97)" fill="#f5db5a"/><path d="M493.76,535.47,507,558.05l-71.28,49-16.32-20.48Z" transform="translate(-241.53 -256.97)" fill="#dd544f"/><path d="M479.32,520.15l-69,47.4a16.93,16.93,0,0,0,19.17,27.92l69-47.4a16.93,16.93,0,0,0-19.17-27.92Z" transform="translate(-241.53 -256.97)" fill="#f5db5a"/><path d="M408.76,515.74a16.85,16.85,0,0,0,12.69-2.69l-33,22.68a16.94,16.94,0,0,1-19.18-27.92l33-22.68a16.93,16.93,0,0,0,6.49,30.61Z" transform="translate(-241.53 -256.97)" fill="#efc359"/><path d="M449.8,575.49a16.87,16.87,0,0,0,12.69-2.7l-33,22.68a16.94,16.94,0,0,1-19.18-27.92l33-22.67a16.94,16.94,0,0,0,6.49,30.61Z" transform="translate(-241.53 -256.97)" fill="#efc359"/></svg>