<svg id="Ebene_1" data-name="Ebene 1" xmlns="http://www.w3.org/2000/svg" viewBox="0 0 663.26 663.26"><circle cx="331.63" cy="331.63" r="331.63" fill="#34e08f"/><path d="M736.63,300.39V548a21.2,21.2,0,0,1-21.2,21.17h-32V351.47A19.5,19.5,0,0,0,664,332H309.1c.44-.59.9-1.15,1.37-1.71a293,293,0,0,1,52.84-50,0,0,0,0,1,0,0l2.08-1.06h350A21.24,21.24,0,0,1,736.63,300.39Z" transform="translate(-209.74 -186.21)" fill="#49ce8b"/><path d="M710.9,313.41V535a8.47,8.47,0,0,1-8.46,8.46h-19V351.47A19.5,19.5,0,0,0,664,332H309.1c.44-.59.9-1.15,1.37-1.71A288.93,288.93,0,0,1,334,305H702.41A8.48,8.48,0,0,1,710.9,313.41Z" transform="translate(-209.74 -186.21)" fill="#36b277"/><path d="M705.53,304.94H638.64A65.74,65.74,0,0,0,639.8,332h27.27a19.49,19.49,0,0,1,19.47,19.47V379A65.71,65.71,0,0,0,714,380.29V313.4a8.46,8.46,0,0,0-8.46-8.46Z" transform="translate(-209.74 -186.21)" fill="#279b61"/><path d="M296.8,330.3c-.31.31-.62.65-1,1,.31-.35.62-.66.93-1Z" transform="translate(-209.74 -186.21)" fill="#49ce8b"/><path d="M685.15,351.47V599.05A21.21,21.21,0,0,1,664,620.25H265.77c-2.79-4.65-5.45-9.42-7.93-14.26l-3.41-11.47a293.72,293.72,0,0,1-7.93-117.71,7.91,7.91,0,0,1-.16-1.55,8.56,8.56,0,0,1,.93-3.87A290.12,290.12,0,0,1,291.56,356a278.5,278.5,0,0,1,17.54-24c.44-.59.9-1.15,1.37-1.71H664A21.19,21.19,0,0,1,685.15,351.47Z" transform="translate(-209.74 -186.21)" fill="#49ce8b"/><path d="M659.42,364.49V586a8.43,8.43,0,0,1,0,.87,7.44,7.44,0,0,1-.31,1.49,8.42,8.42,0,0,1-2.14,3.65,7.08,7.08,0,0,1-1.2,1,8.88,8.88,0,0,1-2.21,1.08,7.16,7.16,0,0,1-.8.19,6.81,6.81,0,0,1-1.77.21H254.43a293.72,293.72,0,0,1-7.93-117.71,7.91,7.91,0,0,1-.16-1.55,8.56,8.56,0,0,1,.93-3.87A290.12,290.12,0,0,1,291.56,356H651A8.45,8.45,0,0,1,659.42,364.49Z" transform="translate(-209.74 -186.21)" fill="#36b277"/><path d="M659.42,364.49v66.89A65.48,65.48,0,0,1,584.07,356H651A8.46,8.46,0,0,1,659.42,364.49Z" transform="translate(-209.74 -186.21)" fill="#279b61"/><path d="M659.42,586V519.16a65.48,65.48,0,0,0-75.35,75.35H651A8.47,8.47,0,0,0,659.42,586Z" transform="translate(-209.74 -186.21)" fill="#279b61"/><circle cx="200.26" cy="289.05" r="78.92" fill="#279b61"/><circle cx="455.21" cy="465.61" r="96.32" fill="#ffdd40"/><path d="M568.5,651.77a96.28,96.28,0,0,0,162.63,69.79,3.05,3.05,0,0,0-1.61-.73c-6-.78-7.11-4.72-7.13-7.4a3.09,3.09,0,0,0-2.36-3c-6.62-1.64-7.79-6.42-7.85-9.39a3,3,0,0,0-2.51-2.9c-23.56-4.52-22.06-22.89-21.47-26.79a3.13,3.13,0,0,0-.19-1.63c-1.16-2.8-6-11.54-23.21-18-16.79-6.27-17.2-24-16.76-30.52a3.08,3.08,0,0,0-2.12-3.11c-13.36-4.61-13.26-16.94-12.5-22.4a3.1,3.1,0,0,0-2.09-3.35c-6.63-2.32-6.81-8-6.29-11.26a3,3,0,0,0-1.79-3.2c-4.37-1.92-4.86-5.9-4.66-8.48a3.12,3.12,0,0,0-.48-1.91,96.28,96.28,0,0,0-49.61,84.23Z" transform="translate(-209.74 -186.21)" fill="#ffb332"/><circle cx="664.73" cy="651.75" r="66.28" transform="translate(-475.9 474.72) rotate(-45)" fill="#fceca9"/><path d="M711.3,699a3.09,3.09,0,0,0-1.63-.87c-23.56-4.52-22.06-22.89-21.47-26.79a3.13,3.13,0,0,0-.19-1.63c-1.16-2.8-6-11.54-23.21-18-16.79-6.27-17.2-24-16.76-30.52a3.08,3.08,0,0,0-2.12-3.11c-13.36-4.61-13.26-16.94-12.5-22.4a3,3,0,0,0-.49-2.11A66.29,66.29,0,1,0,711.3,699Z" transform="translate(-209.74 -186.21)" fill="#ffdd40"/><path d="M664.8,585.48a66.29,66.29,0,1,1-66.29,66.29,66.29,66.29,0,0,1,66.29-66.29m0-16.51a82.8,82.8,0,1,0,82.8,82.8A82.89,82.89,0,0,0,664.8,569Z" transform="translate(-209.74 -186.21)" fill="#ffb332"/><path d="M664.8,734.56a82.49,82.49,0,0,0,57-22.86,3.08,3.08,0,0,0-1.81-1.27c-6.62-1.64-7.79-6.42-7.85-9.39a3,3,0,0,0-.88-2,66.29,66.29,0,1,1-78.37-105.38,3.15,3.15,0,0,0-1.6-1.23c-6.63-2.33-6.81-8-6.29-11.27a2.86,2.86,0,0,0-.29-1.79,82.77,82.77,0,0,0,40,155.22Z" transform="translate(-209.74 -186.21)" fill="#ff9100"/><path d="M664.8,701.73a8.25,8.25,0,0,1-8.25-8.25V682.65a8.25,8.25,0,1,1,16.5,0v10.83A8.25,8.25,0,0,1,664.8,701.73Z" transform="translate(-209.74 -186.21)" fill="#ff9100"/><path d="M664.8,628.45a8.25,8.25,0,0,1-8.25-8.25V610.06a8.25,8.25,0,0,1,16.5,0V620.2A8.25,8.25,0,0,1,664.8,628.45Z" transform="translate(-209.74 -186.21)" fill="#ff9100"/><path d="M663.8,690.91c-7.45,0-12.11-.87-19.12-5.45a8.25,8.25,0,1,1,9-13.81c4,2.59,5.25,2.78,10.66,2.75a7.66,7.66,0,0,0,7.67-6.52c.53-3.12-.83-5.28-4-6.42l-.17-.06L656,656.92c-10.65-3.81-16.57-13.71-14.72-24.68A24.28,24.28,0,0,1,665.11,612c7.87,0,12.59.73,19.81,5.45a8.25,8.25,0,0,1-9,13.81c-4-2.59-5.25-2.79-10.67-2.75a7.67,7.67,0,0,0-7.67,6.52c-.52,3.12.83,5.28,4,6.42l.17.06,11.85,4.48c10.65,3.81,16.56,13.71,14.72,24.68a24.28,24.28,0,0,1-23.84,20.28Z" transform="translate(-209.74 -186.21)" fill="#ffb332"/><circle cx="385.57" cy="506.25" r="96.32" fill="#ffdd40"/><path d="M498.86,692.41A96.28,96.28,0,0,0,661.49,762.2a3.05,3.05,0,0,0-1.61-.73c-6-.78-7.1-4.72-7.13-7.4a3.09,3.09,0,0,0-2.36-3c-6.61-1.64-7.79-6.42-7.85-9.39a3,3,0,0,0-2.51-2.9C616.48,734.26,618,715.89,618.56,712a2.94,2.94,0,0,0-.19-1.63c-1.16-2.8-6-11.54-23.2-18-16.79-6.27-17.21-24-16.76-30.52a3.09,3.09,0,0,0-2.12-3.11c-13.37-4.61-13.27-16.94-12.51-22.4a3.08,3.08,0,0,0-2.09-3.34c-6.63-2.33-6.81-8-6.28-11.27a3,3,0,0,0-1.79-3.2c-4.37-1.92-4.87-5.9-4.67-8.48a3.06,3.06,0,0,0-.48-1.91,96.28,96.28,0,0,0-49.61,84.23Z" transform="translate(-209.74 -186.21)" fill="#ffb332"/><circle cx="595.1" cy="692.39" r="66.28" transform="translate(-525.03 437.38) rotate(-45)" fill="#fceca9"/><path d="M641.66,739.65a3.13,3.13,0,0,0-1.63-.87C616.48,734.26,618,715.89,618.56,712a2.94,2.94,0,0,0-.19-1.63c-1.16-2.8-6-11.54-23.2-18-16.79-6.27-17.21-24-16.76-30.52a3.09,3.09,0,0,0-2.12-3.11c-13.37-4.61-13.27-16.94-12.51-22.4a3,3,0,0,0-.48-2.11,66.29,66.29,0,1,0,78.36,105.38Z" transform="translate(-209.74 -186.21)" fill="#ffdd40"/><path d="M595.17,626.12a66.29,66.29,0,1,1-66.29,66.29,66.29,66.29,0,0,1,66.29-66.29m0-16.51A82.8,82.8,0,1,0,678,692.41a82.89,82.89,0,0,0-82.79-82.8Z" transform="translate(-209.74 -186.21)" fill="#ffb332"/><path d="M595.17,775.2a82.46,82.46,0,0,0,57-22.86,3.05,3.05,0,0,0-1.81-1.27c-6.61-1.64-7.79-6.42-7.85-9.39a2.92,2.92,0,0,0-.88-2A66.29,66.29,0,1,1,563.3,634.27a3.23,3.23,0,0,0-1.6-1.23c-6.64-2.33-6.82-8-6.29-11.27a2.93,2.93,0,0,0-.29-1.79,82.77,82.77,0,0,0,40,155.22Z" transform="translate(-209.74 -186.21)" fill="#ff9100"/><path d="M595.17,742.37a8.25,8.25,0,0,1-8.25-8.25V723.29a8.25,8.25,0,0,1,16.5,0v10.83A8.25,8.25,0,0,1,595.17,742.37Z" transform="translate(-209.74 -186.21)" fill="#ff9100"/><path d="M595.17,669.1a8.25,8.25,0,0,1-8.25-8.26V650.7a8.25,8.25,0,0,1,16.5,0v10.14A8.26,8.26,0,0,1,595.17,669.1Z" transform="translate(-209.74 -186.21)" fill="#ff9100"/><path d="M594.16,731.55c-7.45,0-12.1-.87-19.11-5.45a8.25,8.25,0,1,1,9-13.81c4,2.59,5.25,2.78,10.67,2.75a7.67,7.67,0,0,0,7.67-6.52c.52-3.12-.84-5.28-4-6.42l-.17-.06-11.85-4.48c-10.65-3.81-16.56-13.71-14.72-24.68a24.3,24.3,0,0,1,23.84-20.29c7.87,0,12.58.73,19.81,5.45a8.25,8.25,0,0,1-9,13.81c-4-2.59-5.25-2.79-10.66-2.75a7.66,7.66,0,0,0-7.67,6.52c-.53,3.12.83,5.28,4,6.42l.17.06L604,686.58c10.65,3.81,16.57,13.71,14.72,24.68a24.3,24.3,0,0,1-23.83,20.29Z" transform="translate(-209.74 -186.21)" fill="#ffb332"/><path d="M568.18,483.85H539.05a8.58,8.58,0,1,1,0-17.16h29.13a8.58,8.58,0,1,1,0,17.16Z" transform="translate(-209.74 -186.21)" fill="#49ce8b"/><path d="M292.61,475.26a8.59,8.59,0,0,1-8.58,8.59H254.9a8.55,8.55,0,0,1-8.4-7,7.91,7.91,0,0,1-.16-1.55,8.61,8.61,0,0,1,8.56-8.59H284A8.59,8.59,0,0,1,292.61,475.26Z" transform="translate(-209.74 -186.21)" fill="#49ce8b"/><path d="M413.1,533.5a8.58,8.58,0,0,1-8.58-8.57V512a8.58,8.58,0,1,1,17.15,0v12.89A8.57,8.57,0,0,1,413.1,533.5Z" transform="translate(-209.74 -186.21)" fill="#49ce8b"/><path d="M413.1,446.27a8.58,8.58,0,0,1-8.58-8.58V425.61a8.58,8.58,0,1,1,17.15,0v12.08A8.58,8.58,0,0,1,413.1,446.27Z" transform="translate(-209.74 -186.21)" fill="#49ce8b"/><path d="M411.85,520.62c-8.74,0-13.91-1-22-6.29a8.58,8.58,0,0,1,9.4-14.36c5,3.26,6.71,3.52,13.38,3.49a10.44,10.44,0,0,0,10.36-8.8c.41-2.48.24-7-5.62-9l-.18-.06L403,480.23c-12.1-4.32-18.82-15.56-16.72-28a27.7,27.7,0,0,1,27.15-23.11c9.27-.09,14.51.8,22.9,6.28a8.58,8.58,0,1,1-9.4,14.36c-5-3.25-6.71-3.52-13.38-3.48a10.44,10.44,0,0,0-10.36,8.8c-.41,2.48-.24,6.95,5.62,9l.18.06,14.12,5.34c12.1,4.32,18.82,15.57,16.73,28a27.71,27.71,0,0,1-27.16,23.11Z" transform="translate(-209.74 -186.21)" fill="#67e8a4"/></svg>