<svg id="Ebene_1" data-name="Ebene 1" xmlns="http://www.w3.org/2000/svg" viewBox="0 0 509.83 509.83"><circle cx="254.92" cy="254.92" r="254.92" fill="#34e08f"/><path d="M710.36,499c1.92.6,3.72,1.18,4.82,1.57a177,177,0,0,1,42.15,21.52c.34,5.19.54,10.43.54,15.71,0,1.75,0,3.49-.07,5.23A160.49,160.49,0,0,0,710,516.16c-1-.36-2.71-.9-4.53-1.47a8.22,8.22,0,0,1,4.91-15.7ZM530.73,769.76a161.38,161.38,0,0,1,41.42-239.33l4.35,7.93a3.63,3.63,0,0,0,6.49-.26l11.5-25.64a3.62,3.62,0,0,0-2.78-5.07l-27.8-4.1a3.63,3.63,0,0,0-3.71,5.33l4,7.37A177.62,177.62,0,0,0,510,769.28c5.23.35,10.5.54,15.81.54C527.47,769.82,529.11,769.79,530.73,769.76ZM333,553.47a8.24,8.24,0,0,0-5.35-10.21c-1.81-.59-3.5-1.15-4.51-1.51A161.59,161.59,0,0,1,294,527.69c-.14,3.35-.23,6.71-.23,10.1,0,3,.08,5.92.19,8.86a177.91,177.91,0,0,0,23.79,10.66c1.1.39,2.89,1,4.81,1.6A8.23,8.23,0,0,0,333,553.47Zm108.32-1.86L469.07,556a3.62,3.62,0,0,0,3.76-5.29l-4-7.41A177.61,177.61,0,0,0,534.8,306c-3-.12-6-.2-9-.2-3.28,0-6.54.09-9.79.22a161.44,161.44,0,0,1-55,222.79l-4.27-8a3.63,3.63,0,0,0-6.49.19l-11.75,25.54A3.62,3.62,0,0,0,441.31,551.61Zm-45.85,1.94a7.93,7.93,0,1,0,4.64,10.21A7.94,7.94,0,0,0,395.46,553.55ZM378,564.4a7.93,7.93,0,1,0-10.2,4.65A7.93,7.93,0,0,0,378,564.4Zm-23.12-2.53a7.93,7.93,0,1,0-10.2,4.65A7.92,7.92,0,0,0,354.83,561.87ZM637.55,505a7.93,7.93,0,1,0-4.74-10.16A7.92,7.92,0,0,0,637.55,505ZM655,494a7.93,7.93,0,1,0,10.16-4.74A7.94,7.94,0,0,0,655,494Zm23.14,2.31a7.93,7.93,0,1,0,10.16-4.74A7.92,7.92,0,0,0,678.09,496.33Z" transform="translate(-271.86 -283.86)" fill="#38a0f5"/><path d="M298.11,493.16a230.72,230.72,0,0,1,37.3-88,45.57,45.57,0,1,0,58-57.93,230.82,230.82,0,0,1,95.47-38.57,19.82,19.82,0,0,1-3.72,7.91l-5.23,6.72a122.37,122.37,0,0,1,10.27,19.06l8-.82a19.9,19.9,0,0,1,9.53,38.24L499.84,383a121,121,0,0,1-.64,21.66l7.33,3.28a19.9,19.9,0,0,1-10.87,37.88l-8.43-1.17a120.31,120.31,0,0,1-11.35,18.46l4.69,6.49A19.9,19.9,0,0,1,452.22,497l-6.72-5.23A122.81,122.81,0,0,1,426.44,502l.83,8A19.9,19.9,0,0,1,389,519.55l-3.2-7.86a121.08,121.08,0,0,1-21.66-.64l-3.28,7.33A19.9,19.9,0,0,1,323,507.51l1.17-8.42a121.06,121.06,0,0,1-18.45-11.36l-6.5,4.7C298.86,492.69,298.48,492.93,298.11,493.16Z" transform="translate(-271.86 -283.86)" fill="#f2a13f"/><path d="M365.31,434a45.57,45.57,0,0,0,28.06-86.7A232.12,232.12,0,0,1,428,327.35,80.12,80.12,0,1,1,315.47,439.8a231.05,231.05,0,0,1,19.94-34.6A45.49,45.49,0,0,0,365.31,434Z" transform="translate(-271.86 -283.86)" fill="#ea8e2a"/><path d="M402.89,341A231.07,231.07,0,0,1,428,327.35a80.31,80.31,0,0,1,30.61,62,80,80,0,0,0-51.33-47.22C405.82,341.74,404.35,341.36,402.89,341Z" transform="translate(-271.86 -283.86)" fill="#d6811d"/><path d="M756.36,564.2a19.91,19.91,0,0,0-22,1.06L727.88,570a120.12,120.12,0,0,0-18.56-11.18l1.09-8.43a19.9,19.9,0,0,0-38-10.52l-3.21,7.35a121,121,0,0,0-21.67-.43L644.29,539a19.91,19.91,0,0,0-38.15,9.89l.9,8a121,121,0,0,0-19,10.45l-6.77-5.17a19.9,19.9,0,0,0-28.1,27.63l4.75,6.45a120.12,120.12,0,0,0-11.18,18.56l-8.43-1.09a19.9,19.9,0,0,0-10.52,38l7.35,3.21a121,121,0,0,0-.43,21.67l-7.84,3.27A19.9,19.9,0,0,0,536.79,718l8-.9a122.79,122.79,0,0,0,10.46,19l-5.17,6.77a19.9,19.9,0,0,0,1.26,25.63C658.8,756.67,744.19,671.54,756.36,564.2ZM643.24,711.82a45.58,45.58,0,1,1,56.53-31A45.58,45.58,0,0,1,643.24,711.82Z" transform="translate(-271.86 -283.86)" fill="#2ed265"/><path d="M732.34,643.7A80.11,80.11,0,1,0,631.6,744.36,233,233,0,0,0,732.34,643.7Zm-86,57.33A34.34,34.34,0,1,1,689,677.7,34.34,34.34,0,0,1,646.39,701Z" transform="translate(-271.86 -283.86)" fill="#2bba57"/><path d="M576.53,678.08A80.12,80.12,0,0,1,732.34,643.7q-2.24,4.34-4.64,8.56a80.11,80.11,0,0,0-151.17,25.82Z" transform="translate(-271.86 -283.86)" fill="#29a34b"/><path d="M639.44,457.13a42.88,42.88,0,0,0,7.63-.68l1.45,2.63a7,7,0,0,0,13-4.92l-.62-2.78a43.41,43.41,0,0,0,6.26-4.39l2.58,1.55a7,7,0,0,0,8.82-10.78l-1.92-2.08a41.87,41.87,0,0,0,3.22-6.95l3,.06a7,7,0,0,0,2.24-13.74l-2.7-.85a43.91,43.91,0,0,0-.67-7.63l2.62-1.44a7,7,0,0,0-4.92-13l-2.78.62a43.73,43.73,0,0,0-4.39-6.26l1.56-2.57a7,7,0,0,0-10.78-8.82L661,377a43,43,0,0,0-6.94-3.23l.06-3a7,7,0,0,0-13.75-2.25l-.84,2.71a42,42,0,0,0-7.63.67l-1.45-2.62a7,7,0,0,0-13,4.92L618,377a41.89,41.89,0,0,0-6.26,4.39l-2.58-1.56a7,7,0,0,0-8.82,10.78l1.92,2.09a42.15,42.15,0,0,0-3.22,6.94l-3-.06a7,7,0,0,0-2.24,13.74l2.7.85a43.82,43.82,0,0,0,.67,7.63l-2.62,1.45a7,7,0,0,0,4.92,13l2.78-.62a44,44,0,0,0,4.39,6.26l-1.55,2.58a7,7,0,0,0,10.77,8.81l2.09-1.91a41.87,41.87,0,0,0,6.95,3.22l-.07,3a7,7,0,0,0,13.75,2.24ZM636.65,430a16.1,16.1,0,1,1,18.68-13A16.11,16.11,0,0,1,636.65,430Z" transform="translate(-271.86 -283.86)" fill="#6b9cb2"/><path d="M376.88,715.68a31.48,31.48,0,1,0-41.56-45.43,231.12,231.12,0,0,1-25.71-48.14A84.06,84.06,0,0,1,319,615.8l-1.21-5.43a13.75,13.75,0,0,1,25.46-9.63l2.83,5.14A82.77,82.77,0,0,1,361,604.56l1.66-5.29a13.75,13.75,0,0,1,26.86,4.39l-.12,5.88A83.92,83.92,0,0,1,403,615.83l4.08-3.74a13.75,13.75,0,0,1,21.07,17.24l-3,5a84.41,84.41,0,0,1,8.59,12.24l5.43-1.21a13.75,13.75,0,0,1,9.63,25.46l-5.14,2.83a82.85,82.85,0,0,1,1.32,14.91l5.29,1.66a13.75,13.75,0,0,1-4.39,26.86L440,717a83,83,0,0,1-6.3,13.57l3.75,4.08a13.74,13.74,0,0,1,.57,17.94A231.67,231.67,0,0,1,376.88,715.68Z" transform="translate(-271.86 -283.86)" fill="#6b9cb2"/><path d="M396,730.1a232.18,232.18,0,0,1-19.13-14.41,31.49,31.49,0,1,0-41.56-45.44,232.12,232.12,0,0,1-12.39-19.9A54.38,54.38,0,1,1,396,730.1Z" transform="translate(-271.86 -283.86)" fill="#568b9e"/></svg>