<svg id="Ebene_1" data-name="Ebene 1" xmlns="http://www.w3.org/2000/svg" viewBox="0 0 580.47 580.44"><path d="M826,548.19a289,289,0,0,1-69.69,188.67c-2.76,3.24-5.6,6.38-8.52,9.49-2.39,2.58-4.83,5.07-7.3,7.54a289.31,289.31,0,0,1-204.74,84.52c-1.34,0-2.68,0-4-.06a285.77,285.77,0,0,1-40.91-3.4,16.08,16.08,0,0,1-1.66-.3c-2.09-.29-4.19-.67-6.25-1-2.66-.49-5.28-1-7.91-1.59-131.11-27.89-229.5-144.38-229.5-283.83,0-160.29,130-290.22,290.22-290.22S826,387.9,826,548.19Z" transform="translate(-245.53 -257.97)" fill="#34e08f"/><path d="M588.54,437.3H724.4a6.32,6.32,0,0,0,0-12.63H588.54a6.32,6.32,0,0,0,0,12.63Z" transform="translate(-245.53 -257.97)" fill="#3c58a0"/><rect x="246.88" y="437.19" width="98.1" height="37.64" fill="#38a0f5"/><rect x="246.88" y="437.19" width="18.02" height="37.64" fill="#124e7f"/><path d="M636.38,754.59a4.56,4.56,0,0,1-4.55,4.54H451.08a4.55,4.55,0,0,1-4.54-4.54V736.43a4.55,4.55,0,0,1,4.54-4.54H631.83a4.56,4.56,0,0,1,4.55,4.54Z" transform="translate(-245.53 -257.97)" fill="#124e7f"/><path d="M482.58,754.59V736.43a4.56,4.56,0,0,1,4.55-4.54H451.08a4.55,4.55,0,0,0-4.54,4.54v18.16a4.55,4.55,0,0,0,4.54,4.54h36.05A4.56,4.56,0,0,1,482.58,754.59Z" transform="translate(-245.53 -257.97)" fill="#114460"/><path d="M308.93,687a9.11,9.11,0,0,0,9.08,9.09H764.9A9.11,9.11,0,0,0,774,687v-39.3h-465Z" transform="translate(-245.53 -257.97)" fill="#124e7f"/><path d="M327,687v-39.3h-18V687a9.11,9.11,0,0,0,9.08,9.09h18A9.11,9.11,0,0,1,327,687Z" transform="translate(-245.53 -257.97)" fill="#114460"/><path d="M762.8,384.76H320.11a11.21,11.21,0,0,0-11.18,11.18V648.59H774V395.94A11.21,11.21,0,0,0,762.8,384.76Z" transform="translate(-245.53 -257.97)" fill="#38a0f5"/><path d="M333.17,627.65a4.62,4.62,0,0,1-4.61-4.6V410.3a4.62,4.62,0,0,1,4.61-4.6H749.75a4.61,4.61,0,0,1,4.6,4.6V623.05a4.61,4.61,0,0,1-4.6,4.6Z" transform="translate(-245.53 -257.97)" fill="#182632"/><path d="M723.63,462.15h-46a6.81,6.81,0,1,1,0-13.62h46a6.81,6.81,0,1,1,0,13.62Z" transform="translate(-245.53 -257.97)" fill="#91e0e8"/><path d="M723.63,481.51h-46a6.81,6.81,0,1,1,0-13.62h46a6.81,6.81,0,1,1,0,13.62Z" transform="translate(-245.53 -257.97)" fill="#91e0e8"/><path d="M723.63,500.87h-46a6.82,6.82,0,0,1,0-13.63h46a6.82,6.82,0,0,1,0,13.63Z" transform="translate(-245.53 -257.97)" fill="#91e0e8"/><path d="M706.26,520.22H677.64a6.81,6.81,0,1,1,0-13.62h28.62a6.81,6.81,0,1,1,0,13.62Z" transform="translate(-245.53 -257.97)" fill="#91e0e8"/><path d="M723.63,556h-46a6.81,6.81,0,1,1,0-13.62h46a6.81,6.81,0,1,1,0,13.62Z" transform="translate(-245.53 -257.97)" fill="#91e0e8"/><path d="M723.63,575.35h-46a6.82,6.82,0,0,1,0-13.63h46a6.82,6.82,0,0,1,0,13.63Z" transform="translate(-245.53 -257.97)" fill="#91e0e8"/><path d="M706.26,594.7H677.64a6.81,6.81,0,1,1,0-13.62h28.62a6.81,6.81,0,1,1,0,13.62Z" transform="translate(-245.53 -257.97)" fill="#91e0e8"/><path d="M369.35,462a5.11,5.11,0,0,1-5.11-5.11v-27.6h-1.89a5.11,5.11,0,0,1,0-10.21h7a5.1,5.1,0,0,1,5.1,5.1v32.71A5.1,5.1,0,0,1,369.35,462Z" transform="translate(-245.53 -257.97)" fill="#73f9a9"/><path d="M399.23,462a14.59,14.59,0,0,1-14.57-14.57V432.26a14.57,14.57,0,1,1,29.13,0v15.12A14.58,14.58,0,0,1,399.23,462Zm0-34.05a4.36,4.36,0,0,0-4.35,4.36v15.12a4.35,4.35,0,0,0,8.7,0V432.26A4.36,4.36,0,0,0,399.23,427.9Z" transform="translate(-245.53 -257.97)" fill="#73f9a9"/><path d="M431.34,462a5.11,5.11,0,0,1-5.11-5.11v-27.6h-1.89a5.11,5.11,0,0,1,0-10.21h7a5.1,5.1,0,0,1,5.1,5.1v32.71A5.1,5.1,0,0,1,431.34,462Z" transform="translate(-245.53 -257.97)" fill="#73f9a9"/><path d="M461.22,462a14.59,14.59,0,0,1-14.57-14.57V432.26a14.57,14.57,0,1,1,29.13,0v15.12A14.58,14.58,0,0,1,461.22,462Zm0-34.05a4.36,4.36,0,0,0-4.35,4.36v15.12a4.35,4.35,0,1,0,8.7,0V432.26A4.36,4.36,0,0,0,461.22,427.9Z" transform="translate(-245.53 -257.97)" fill="#73f9a9"/><path d="M493.33,462a5.11,5.11,0,0,1-5.11-5.11v-27.6h-1.88a5.11,5.11,0,1,1,0-10.21h7a5.1,5.1,0,0,1,5.1,5.1v32.71A5.1,5.1,0,0,1,493.33,462Z" transform="translate(-245.53 -257.97)" fill="#73f9a9"/><path d="M523.21,462a14.58,14.58,0,0,1-14.56-14.57V432.26a14.56,14.56,0,1,1,29.12,0v15.12A14.58,14.58,0,0,1,523.21,462Zm0-34.05a4.36,4.36,0,0,0-4.35,4.36v15.12a4.35,4.35,0,0,0,8.7,0V432.26A4.36,4.36,0,0,0,523.21,427.9Z" transform="translate(-245.53 -257.97)" fill="#73f9a9"/><path d="M555.32,462a5.11,5.11,0,0,1-5.11-5.11v-27.6h-1.88a5.11,5.11,0,1,1,0-10.21h7a5.1,5.1,0,0,1,5.1,5.1v32.71A5.1,5.1,0,0,1,555.32,462Z" transform="translate(-245.53 -257.97)" fill="#73f9a9"/><path d="M432,618.59a5.1,5.1,0,0,1-5.1-5.1v-27.6h-1.89a5.11,5.11,0,0,1,0-10.21h7a5.1,5.1,0,0,1,5.11,5.1v32.71A5.1,5.1,0,0,1,432,618.59Z" transform="translate(-245.53 -257.97)" fill="#73f9a9"/><path d="M461.93,618.59A14.58,14.58,0,0,1,447.36,604V588.9a14.57,14.57,0,0,1,29.13,0V604A14.57,14.57,0,0,1,461.93,618.59Zm0-34a4.35,4.35,0,0,0-4.35,4.35V604a4.35,4.35,0,1,0,8.7,0V588.9A4.35,4.35,0,0,0,461.93,584.55Z" transform="translate(-245.53 -257.97)" fill="#73f9a9"/><path d="M494,618.59a5.1,5.1,0,0,1-5.11-5.1v-27.6H487a5.11,5.11,0,0,1,0-10.21h7a5.1,5.1,0,0,1,5.1,5.1v32.71A5.1,5.1,0,0,1,494,618.59Z" transform="translate(-245.53 -257.97)" fill="#73f9a9"/><path d="M523.92,618.59A14.58,14.58,0,0,1,509.35,604V588.9a14.57,14.57,0,0,1,29.13,0V604A14.57,14.57,0,0,1,523.92,618.59Zm0-34a4.35,4.35,0,0,0-4.35,4.35V604a4.35,4.35,0,0,0,8.7,0V588.9A4.35,4.35,0,0,0,523.92,584.55Z" transform="translate(-245.53 -257.97)" fill="#73f9a9"/><path d="M556,618.59a5.1,5.1,0,0,1-5.11-5.1v-27.6H549a5.11,5.11,0,1,1,0-10.21h7a5.1,5.1,0,0,1,5.1,5.1v32.71A5.1,5.1,0,0,1,556,618.59Z" transform="translate(-245.53 -257.97)" fill="#73f9a9"/><path d="M585.91,618.59A14.58,14.58,0,0,1,571.34,604V588.9a14.57,14.57,0,0,1,29.13,0V604A14.57,14.57,0,0,1,585.91,618.59Zm0-34a4.35,4.35,0,0,0-4.35,4.35V604a4.35,4.35,0,0,0,8.7,0V588.9A4.35,4.35,0,0,0,585.91,584.55Z" transform="translate(-245.53 -257.97)" fill="#73f9a9"/><path d="M618,618.59a5.1,5.1,0,0,1-5.11-5.1v-27.6H611a5.11,5.11,0,1,1,0-10.21h7a5.1,5.1,0,0,1,5.1,5.1v32.71A5.1,5.1,0,0,1,618,618.59Z" transform="translate(-245.53 -257.97)" fill="#73f9a9"/><path d="M370.35,567.63a5.1,5.1,0,0,1-5.1-5.1v-27.6h-1.89a5.11,5.11,0,0,1,0-10.22h7a5.11,5.11,0,0,1,5.11,5.11v32.71A5.1,5.1,0,0,1,370.35,567.63Z" transform="translate(-245.53 -257.97)" fill="#73f9a9"/><path d="M400.24,567.63a14.58,14.58,0,0,1-14.57-14.56V537.94a14.57,14.57,0,0,1,29.13,0v15.13A14.57,14.57,0,0,1,400.24,567.63Zm0-34a4.36,4.36,0,0,0-4.36,4.35v15.13a4.36,4.36,0,0,0,8.71,0V537.94A4.35,4.35,0,0,0,400.24,533.59Z" transform="translate(-245.53 -257.97)" fill="#73f9a9"/><path d="M432.34,567.63a5.1,5.1,0,0,1-5.1-5.1v-27.6h-1.89a5.11,5.11,0,0,1,0-10.22h7a5.11,5.11,0,0,1,5.11,5.11v32.71A5.1,5.1,0,0,1,432.34,567.63Z" transform="translate(-245.53 -257.97)" fill="#73f9a9"/><path d="M462.23,567.63a14.58,14.58,0,0,1-14.57-14.56V537.94a14.57,14.57,0,0,1,29.13,0v15.13A14.57,14.57,0,0,1,462.23,567.63Zm0-34a4.36,4.36,0,0,0-4.36,4.35v15.13a4.36,4.36,0,0,0,8.71,0V537.94A4.35,4.35,0,0,0,462.23,533.59Z" transform="translate(-245.53 -257.97)" fill="#73f9a9"/><path d="M494.33,567.63a5.1,5.1,0,0,1-5.1-5.1v-27.6h-1.89a5.11,5.11,0,0,1,0-10.22h7a5.11,5.11,0,0,1,5.11,5.11v32.71A5.1,5.1,0,0,1,494.33,567.63Z" transform="translate(-245.53 -257.97)" fill="#73f9a9"/><path d="M524.22,567.63a14.58,14.58,0,0,1-14.57-14.56V537.94a14.57,14.57,0,0,1,29.13,0v15.13A14.57,14.57,0,0,1,524.22,567.63Zm0-34a4.35,4.35,0,0,0-4.35,4.35v15.13a4.35,4.35,0,1,0,8.7,0V537.94A4.35,4.35,0,0,0,524.22,533.59Z" transform="translate(-245.53 -257.97)" fill="#73f9a9"/><path d="M556.32,567.63a5.1,5.1,0,0,1-5.1-5.1v-27.6h-1.89a5.11,5.11,0,0,1,0-10.22h7a5.11,5.11,0,0,1,5.11,5.11v32.71A5.1,5.1,0,0,1,556.32,567.63Z" transform="translate(-245.53 -257.97)" fill="#73f9a9"/><path d="M400,514.43a5.1,5.1,0,0,1-5.1-5.11v-27.6H393a5.11,5.11,0,0,1,0-10.21h7a5.1,5.1,0,0,1,5.11,5.1v32.71A5.11,5.11,0,0,1,400,514.43Z" transform="translate(-245.53 -257.97)" fill="#73f9a9"/><path d="M429.88,514.43a14.59,14.59,0,0,1-14.57-14.57V484.74a14.57,14.57,0,1,1,29.13,0v15.12A14.58,14.58,0,0,1,429.88,514.43Zm0-34a4.36,4.36,0,0,0-4.36,4.35v15.12a4.36,4.36,0,1,0,8.71,0V484.74A4.35,4.35,0,0,0,429.88,480.39Z" transform="translate(-245.53 -257.97)" fill="#73f9a9"/><path d="M462,514.43a5.1,5.1,0,0,1-5.1-5.11v-27.6H455a5.11,5.11,0,0,1,0-10.21h7a5.1,5.1,0,0,1,5.11,5.1v32.71A5.11,5.11,0,0,1,462,514.43Z" transform="translate(-245.53 -257.97)" fill="#73f9a9"/><path d="M491.87,514.43a14.59,14.59,0,0,1-14.57-14.57V484.74a14.57,14.57,0,1,1,29.13,0v15.12A14.58,14.58,0,0,1,491.87,514.43Zm0-34a4.35,4.35,0,0,0-4.35,4.35v15.12a4.35,4.35,0,1,0,8.7,0V484.74A4.35,4.35,0,0,0,491.87,480.39Z" transform="translate(-245.53 -257.97)" fill="#73f9a9"/><path d="M524,514.43a5.11,5.11,0,0,1-5.11-5.11v-27.6H517a5.11,5.11,0,0,1,0-10.21h7a5.1,5.1,0,0,1,5.1,5.1v32.71A5.1,5.1,0,0,1,524,514.43Z" transform="translate(-245.53 -257.97)" fill="#73f9a9"/><path d="M553.86,514.43a14.59,14.59,0,0,1-14.57-14.57V484.74a14.57,14.57,0,1,1,29.13,0v15.12A14.58,14.58,0,0,1,553.86,514.43Zm0-34a4.35,4.35,0,0,0-4.35,4.35v15.12a4.35,4.35,0,1,0,8.7,0V484.74A4.35,4.35,0,0,0,553.86,480.39Z" transform="translate(-245.53 -257.97)" fill="#73f9a9"/><path d="M586,514.43a5.11,5.11,0,0,1-5.11-5.11v-27.6H579a5.11,5.11,0,1,1,0-10.21h7a5.1,5.1,0,0,1,5.1,5.1v32.71A5.1,5.1,0,0,1,586,514.43Z" transform="translate(-245.53 -257.97)" fill="#73f9a9"/><circle cx="318.99" cy="415.12" r="7.02" fill="#ff4155"/><circle cx="294.42" cy="415.12" r="7.02" fill="#ffdd40"/><circle cx="269.85" cy="415.12" r="7.02" fill="#38c674"/></svg>