<svg id="Ebene_1" data-name="Ebene 1" xmlns="http://www.w3.org/2000/svg" xmlns:xlink="http://www.w3.org/1999/xlink" viewBox="0 0 756.79 756.79"><defs><linearGradient id="Unbenannter_Verlauf_12" x1="1017.76" y1="739.52" x2="1017.76" y2="739.52" gradientTransform="translate(1491.99 -491.63) rotate(90)" gradientUnits="userSpaceOnUse"><stop offset="0" stop-color="#3cf4cc"/><stop offset="0.09" stop-color="#39edb8"/><stop offset="0.21" stop-color="#37e7a5"/><stop offset="0.35" stop-color="#35e399"/><stop offset="0.53" stop-color="#34e191"/><stop offset="0.93" stop-color="#34e08f"/></linearGradient><linearGradient id="Unbenannter_Verlauf_4" x1="1166.4" y1="1093.29" x2="1412.05" y2="1093.29" gradientTransform="translate(1790.08 -860.63) rotate(90)" gradientUnits="userSpaceOnUse"><stop offset="0.12" stop-color="#34e08f"/><stop offset="0.59" stop-color="#34df8d"/><stop offset="0.76" stop-color="#33dd86"/><stop offset="0.87" stop-color="#31d97b"/><stop offset="0.97" stop-color="#2fd36a"/><stop offset="0.99" stop-color="#2ed266"/></linearGradient><linearGradient id="Unbenannter_Verlauf_5" x1="1176.14" y1="1115.78" x2="1230.96" y2="1115.78" gradientTransform="translate(1790.08 -860.63) rotate(90)" gradientUnits="userSpaceOnUse"><stop offset="0" stop-color="#2ed265"/><stop offset="0.45" stop-color="#2ed367"/><stop offset="0.61" stop-color="#2fd56e"/><stop offset="0.72" stop-color="#31d979"/><stop offset="0.82" stop-color="#33de8a"/><stop offset="0.9" stop-color="#36e6a0"/><stop offset="0.96" stop-color="#3aeebb"/><stop offset="1" stop-color="#3cf4cc"/></linearGradient><linearGradient id="Unbenannter_Verlauf_6" x1="1241.84" y1="1072.55" x2="1343.39" y2="1072.55" gradientTransform="translate(1790.08 -860.63) rotate(90)" gradientUnits="userSpaceOnUse"><stop offset="0" stop-color="#2ed265"/><stop offset="0.39" stop-color="#2ed368"/><stop offset="0.64" stop-color="#30d670"/><stop offset="0.85" stop-color="#32db7f"/><stop offset="1" stop-color="#34e08f"/></linearGradient><linearGradient id="Unbenannter_Verlauf_12-2" x1="826.8" y1="741.26" x2="826.8" y2="741.26" xlink:href="#Unbenannter_Verlauf_12"/><linearGradient id="Unbenannter_Verlauf_12-3" x1="848.98" y1="757.54" x2="848.98" y2="757.54" xlink:href="#Unbenannter_Verlauf_12"/><linearGradient id="Unbenannter_Verlauf_12-4" x1="909.82" y1="844.08" x2="909.82" y2="844.08" xlink:href="#Unbenannter_Verlauf_12"/><linearGradient id="Unbenannter_Verlauf_12-5" x1="1046.87" y1="741.76" x2="1046.87" y2="741.76" xlink:href="#Unbenannter_Verlauf_12"/><linearGradient id="Unbenannter_Verlauf_11" x1="1176.01" y1="1093.8" x2="1441.1" y2="1093.8" gradientTransform="translate(1790.08 -860.63) rotate(90)" gradientUnits="userSpaceOnUse"><stop offset="0" stop-color="#3cf4cc"/><stop offset="0" stop-color="#3cf3ca"/><stop offset="0.05" stop-color="#39ecb4"/><stop offset="0.1" stop-color="#37e7a3"/><stop offset="0.17" stop-color="#35e398"/><stop offset="0.26" stop-color="#34e191"/><stop offset="0.52" stop-color="#34e08f"/></linearGradient><linearGradient id="Unbenannter_Verlauf_12-6" x1="1000.6" y1="747.76" x2="1000.6" y2="747.76" xlink:href="#Unbenannter_Verlauf_12"/><linearGradient id="Unbenannter_Verlauf_13" x1="1363.08" y1="1061.02" x2="1438.5" y2="1061.02" gradientTransform="translate(1790.08 -860.63) rotate(90)" gradientUnits="userSpaceOnUse"><stop offset="0" stop-color="#2ed265"/><stop offset="0.36" stop-color="#2ed368"/><stop offset="0.59" stop-color="#30d670"/><stop offset="0.78" stop-color="#32db7f"/><stop offset="0.92" stop-color="#34e08f"/></linearGradient><linearGradient id="Unbenannter_Verlauf_14" x1="1259.45" y1="1108.05" x2="1351.13" y2="1108.05" gradientTransform="translate(1790.08 -860.63) rotate(90)" gradientUnits="userSpaceOnUse"><stop offset="0" stop-color="#34e08f"/><stop offset="0.15" stop-color="#35e399"/><stop offset="0.7" stop-color="#39eeba"/><stop offset="1" stop-color="#3bf2c6"/><stop offset="1" stop-color="#3cf4cc" stop-opacity="0.52"/><stop offset="1" stop-color="#3cf4cc" stop-opacity="0.5"/></linearGradient></defs><circle cx="378.39" cy="378.39" r="378.39" fill="#34e08f"/><path d="M433.9,473.06a17.31,17.31,0,0,0-17.29,17.29V596a90.57,90.57,0,0,1,16.1,11.15l1.4,1.17c45.2-48.14,82.18,3.45,82.18,3.45V473.06Z" transform="translate(-136.74 -148.21)" fill="#f3eae6"/><path d="M418.47,490.35a15.47,15.47,0,0,1,15.43-15.43h82.39v-47.5H349.14V607.19s28.29-33.55,69.33-10.12Z" transform="translate(-136.74 -148.21)" fill="#efe2dd"/><path d="M516.29,611.27V608.6s-37.75-52.67-83.58-2C470.73,639.12,503.72,620.79,516.29,611.27Z" transform="translate(-136.74 -148.21)" fill="#f3eae6"/><path d="M432.71,604a90.14,90.14,0,0,0-16.1-11.16V748.72a83.09,83.09,0,0,0,56.21,78.52,51.2,51.2,0,0,0,2.46-5.28l20.28-52.08a304.26,304.26,0,0,0,20.73-110.39V608.6c-12.57,9.53-45.56,27.86-83.58-4.61Z" transform="translate(-136.74 -148.21)" fill="#38a0f5"/><path d="M418.47,748.72V593.86c-41-23.43-69.33,10.13-69.33,10.13V659.5a304.25,304.25,0,0,0,20.73,110.38L390.15,822c14.63,37.57,66.56,38.76,83.56,3.59a81.4,81.4,0,0,1-55.24-76.83Z" transform="translate(-136.74 -148.21)" fill="#53b1f2"/><path d="M341.76,422.43H309.82a52.58,52.58,0,0,1-37.56-89.38l11-11.21a10.7,10.7,0,0,1,15.29,15l-11,11.21a31.2,31.2,0,0,0,22.28,53h31.94a10.7,10.7,0,1,1,0,21.39Z" transform="translate(-136.74 -148.21)" fill="#efe2dd"/><path d="M515.58,387.43h-93a26.61,26.61,0,0,0,0,48.61h93a24.31,24.31,0,1,0,0-48.61Z" transform="translate(-136.74 -148.21)" fill="#f9f3f1"/><path d="M409.12,411.73a24.31,24.31,0,0,1,24.3-24.31H349.85a24.31,24.31,0,0,0,0,48.62h83.57A24.3,24.3,0,0,1,409.12,411.73Z" transform="translate(-136.74 -148.21)" fill="#f3eae6"/><path d="M352,232.45l-2,2.05c-.25,4.51.11,14.66,7,22.79,5.93,6.93,15.16,10.64,27.48,11,0,.14,0,.3-.05.45l52-52A302.59,302.59,0,0,0,352,232.45Z" transform="translate(-136.74 -148.21)" fill="#f3eae6"/><path d="M341.07,512.68A10.7,10.7,0,0,1,351.76,502h20.8a10.7,10.7,0,0,1,0,21.39h-20.8A10.7,10.7,0,0,1,341.07,512.68Z" transform="translate(-136.74 -148.21)" fill="#f9f3f1"/><path d="M341.07,611.39a10.69,10.69,0,0,1,10.69-10.69h20.8a10.7,10.7,0,0,1,0,21.39h-20.8A10.7,10.7,0,0,1,341.07,611.39Z" transform="translate(-136.74 -148.21)" fill="#96eae5"/><path d="M341.07,562a10.7,10.7,0,0,1,10.69-10.69h43.61a10.7,10.7,0,1,1,0,21.39H351.76A10.7,10.7,0,0,1,341.07,562Z" transform="translate(-136.74 -148.21)" fill="#f9f3f1"/><path d="M341.07,660.75a10.7,10.7,0,0,1,10.69-10.7h43.61a10.7,10.7,0,0,1,0,21.4H351.76A10.7,10.7,0,0,1,341.07,660.75Z" transform="translate(-136.74 -148.21)" fill="#96eae5"/><path d="M789,465.39c-29.14-16.51-38.72-49.56-39.69-53.17L755.51,360l-.14-.4c-5.53-17.05-5.16-30.56,1.1-40.16a29.58,29.58,0,0,1,10.6-9.64c-26.16-27.67-46.47-56.48-58.34-86.09a11.49,11.49,0,0,0-21.3,0C671.87,262.51,641.8,300,603.05,335.25c.9,14.06,6.85,30.19,27.38,37.59l73.37,90.22.28.27a146,146,0,0,1,24.58,27.53c18.89,27.59,18.61,49.72,15.05,63.44-3.71,14.31-2.15,26.34,4.65,35.76a37.94,37.94,0,0,0,6.93,7.25c53.52-21.11,88.18-71,94.68-125-23.49,5-44,2.71-61-6.94Z" transform="translate(-136.74 -148.21)" fill="#44aeea"/><path d="M799.2,340.73c-12-10.61-23.2-21.42-33.5-32.4-10.8,6.17-22.42,20.22-12.15,51.85l-6.2,52.18s19.19,79.31,102.37,62C856,427.73,841.14,377.83,799.2,340.73Z" transform="translate(-136.74 -148.21)" fill="#53b1f2"/><path d="M698.08,607.94a154.64,154.64,0,0,0,59.28-11.45c-10.06-7.69-17.3-20.49-11.79-41.71,12.84-49.44-40.28-92.93-40.28-92.93l-73.71-90.64c-20.77-7.25-26.25-23.64-26.79-37.55q-3.85,3.55-7.84,7.07C491.59,433.94,557.4,607.94,698.08,607.94Z" transform="translate(-136.74 -148.21)" fill="#38a0f5"/><circle cx="461.91" cy="667.83" r="12.59" transform="translate(-408.03 868.59) rotate(-80.78)" fill="#96eae5"/><circle cx="324.33" cy="571.94" r="19.68" fill="#96eae5"/><path d="M445.18,207.85a24.3,24.3,0,0,0-34.37-34.37l-73.21,73.2c40.07,0,34.71,34.05,34.71,34.05Z" transform="translate(-136.74 -148.21)" fill="#f3eae6"/><path d="M279.09,305.32a24.31,24.31,0,0,0,34.37,34.38l73.2-73.2c-40.07,0-34.7-34.05-34.7-34.05Z" transform="translate(-136.74 -148.21)" fill="#f3eae6"/><path d="M752.46,526.13Z" transform="translate(-136.74 -148.21)" fill="url(#Unbenannter_Verlauf_12)"/><path d="M747.75,422.43H653.64c5-6.74,11.74-13.57,19.35-20.47h71a25.14,25.14,0,0,1,3.85,8.92A26.33,26.33,0,0,1,747.75,422.43Z" transform="translate(-136.74 -148.21)" fill="#3cf4cc"/><path d="M718.21,462.41H652.12a29.17,29.17,0,0,1-6.81-13,22.5,22.5,0,0,1-.4-7.5h92.63A182.21,182.21,0,0,1,718.21,462.41Z" transform="translate(-136.74 -148.21)" fill="#f2a13f"/><path d="M729.23,352.45H654.69a32.13,32.13,0,0,1-8.9-16.78c-.24-1.26-.41-2.5-.53-3.69h99.09C740.92,338.84,735.64,345.67,729.23,352.45Z" transform="translate(-136.74 -148.21)" fill="#3cf4cc"/><path d="M746.42,533.81H652.07a109.18,109.18,0,0,1,13.54-20.47h73a36.88,36.88,0,0,1,6.92,14.4A40.24,40.24,0,0,1,746.42,533.81Z" transform="translate(-136.74 -148.21)" fill="#3cf4cc"/><path d="M642,550.69a7.14,7.14,0,0,1-3.26-9.57c.66-1.33,1.45-2.81,2.35-4.4s1.93-3.31,3-5.07c2.16-3.55,4.64-7.33,7-10.86,1.59-2.33,3.17-4.57,4.64-6.52.83-1.12,1.64-2.14,2.41-3.07,4.11-5,9-10.49,14.2-15.82,2.57-2.67,5.19-5.31,7.81-7.86q3.15-3.07,6.19-5.9c.5-.45,1-.91,1.47-1.36,4.38-4,8.76-7.92,13.05-11.78s8.45-7.62,12.37-11.28c3.65-3.43,7.1-6.76,10.22-10.05a122.77,122.77,0,0,0,8.35-9.59,63.55,63.55,0,0,0,5.81-8.78,38.86,38.86,0,0,0,1.9-4.09,28.16,28.16,0,0,0,1.19-3.86,21.46,21.46,0,0,0,.52-4.59,19.23,19.23,0,0,0-.4-3.86,18.46,18.46,0,0,0-1.07-3.33,19.46,19.46,0,0,0-1.72-3.09h0a26.56,26.56,0,0,0-4.11-4.67,44.83,44.83,0,0,0-5.86-4.43,104.93,104.93,0,0,0-15.9-8c-4-1.69-8.23-3.33-12.59-5h0c-1.78-.69-3.57-1.35-5.4-2-4.95-1.88-10-3.81-14.88-5.88a125.06,125.06,0,0,1-19.08-9.81,60.23,60.23,0,0,1-10.76-8.71,42.17,42.17,0,0,1-6.83-9.21,37.39,37.39,0,0,1-4-11.23c-.27-1.48-.48-2.91-.6-4.31h0c-.14-1.43-.21-2.83-.21-4.21a38,38,0,0,1,1.35-10.22,39,39,0,0,1,3.64-8.78,7.15,7.15,0,0,1,12.91,6.05,6.77,6.77,0,0,1-.43.9,25,25,0,0,0-2.34,5.6,23.62,23.62,0,0,0-.83,6.42c0,.91,0,1.86.14,2.86s.24,2,.43,3.07a23.59,23.59,0,0,0,2.48,7,28.87,28.87,0,0,0,4.54,6.11,46.16,46.16,0,0,0,5.93,5.07,72.24,72.24,0,0,0,7.47,4.64,166.46,166.46,0,0,0,18.16,8.21c4.22,1.67,8.55,3.29,12.88,4.93l.48.19c5.76,2.19,11.54,4.43,17,6.88a98.14,98.14,0,0,1,15.47,8.38,52.46,52.46,0,0,1,8.66,7.21,39.15,39.15,0,0,1,4,5,33.33,33.33,0,0,1,3,5.4,30.84,30.84,0,0,1,1.93,6,32.94,32.94,0,0,1,.71,6.86,32.09,32.09,0,0,1-.23,3.92,37.12,37.12,0,0,1-.67,3.86,46.63,46.63,0,0,1-4.4,11.5,76.33,76.33,0,0,1-7.12,10.8h0c-2.93,3.71-6,7.28-9.31,10.69-1.69,1.76-3.42,3.54-5.23,5.31s-3.64,3.52-5.52,5.3c-4.07,3.81-8.31,7.64-12.62,11.5s-8.64,7.76-12.92,11.69c-4.74,4.33-9.9,9.37-14.85,14.49s-9.64,10.31-13.43,14.95h0c-.78,1-1.71,2.16-2.73,3.54s-2.12,2.93-3.24,4.57c-2.26,3.29-4.62,6.91-6.69,10.26-1.38,2.24-2.62,4.36-3.62,6.14-.57,1-1,1.93-1.4,2.67a7.18,7.18,0,0,1-9.59,3.26Z" transform="translate(-136.74 -148.21)" fill="url(#Unbenannter_Verlauf_4)"/><path d="M704.27,370.33c-13.09-1.1-35.23-9.95-40.51-12.88-26-14.38-23.09-21.42-7.93-41.94a6.29,6.29,0,0,1-.43.91,25.12,25.12,0,0,0-2.33,5.59,23.26,23.26,0,0,0-.83,6.43c0,.9,0,1.85.14,2.85s.24,2,.43,3.07a23.56,23.56,0,0,0,2.47,7,28.63,28.63,0,0,0,4.55,6.12,47.08,47.08,0,0,0,5.93,5.07,74,74,0,0,0,7.47,4.64,166.46,166.46,0,0,0,18.16,8.21C695.6,367.06,699.93,368.68,704.27,370.33Z" transform="translate(-136.74 -148.21)" fill="url(#Unbenannter_Verlauf_5)"/><path d="M686.42,481.64c.5-.45,1-.9,1.47-1.35,4.38-4,8.76-7.93,13-11.79s8.45-7.61,12.38-11.28c3.64-3.43,7.09-6.76,10.21-10a124.76,124.76,0,0,0,8.36-9.59,63.9,63.9,0,0,0,5.8-8.79,37,37,0,0,0,1.91-4.09,27.74,27.74,0,0,0,1.19-3.86,20.59,20.59,0,0,0,.54-4.61,19.23,19.23,0,0,0-.4-3.86,18.46,18.46,0,0,0-1.07-3.33,19.46,19.46,0,0,0-1.72-3.09h0a26.56,26.56,0,0,0-4.11-4.67,44.83,44.83,0,0,0-5.86-4.43,104.93,104.93,0,0,0-15.9-8c-4-1.69-8.23-3.33-12.59-5h0c-1.78-.69-3.57-1.35-5.4-2a6.42,6.42,0,0,1,5.66.14c12.4,5.69,44.13,13.59,47.84,27.13,8.83,32.18-52.83,67.84-56.64,72.12C689.37,483.21,687.8,483.19,686.42,481.64Z" transform="translate(-136.74 -148.21)" fill="url(#Unbenannter_Verlauf_6)"/><path d="M750.73,335.17Z" transform="translate(-136.74 -148.21)" fill="url(#Unbenannter_Verlauf_12-2)"/><path d="M734.45,357.35Z" transform="translate(-136.74 -148.21)" fill="url(#Unbenannter_Verlauf_12-3)"/><path d="M647.91,418.19Z" transform="translate(-136.74 -148.21)" fill="url(#Unbenannter_Verlauf_12-4)"/><path d="M750.23,555.23Z" transform="translate(-136.74 -148.21)" fill="url(#Unbenannter_Verlauf_12-5)"/><path d="M728.54,579.18a7.15,7.15,0,0,1-1.78-9.95h0a99,99,0,0,0,5.73-9.26,64.45,64.45,0,0,0,4.26-9.52h0a44.55,44.55,0,0,0,1.93-7.07,37.31,37.31,0,0,0,.67-6.92c0-.74,0-1.46-.07-2.19a31.36,31.36,0,0,0-.74-4.93h0a29.59,29.59,0,0,0-2.19-6.17,30.63,30.63,0,0,0-3.43-5.45h0a40.25,40.25,0,0,0-5.5-5.73,61,61,0,0,0-7-5.21q-3.54-2.29-7.55-4.36c-3.14-1.64-6.45-3.21-9.88-4.76-2.83-1.26-5.73-2.5-8.66-3.71l-5.81-2.41c-5.54-2.28-11.09-4.59-16.42-7.11a104.75,104.75,0,0,1-16.3-9.26,53,53,0,0,1-9-8,39.24,39.24,0,0,1-5.19-7.4,35.16,35.16,0,0,1-3.26-8.74h0a30.42,30.42,0,0,1-.71-6.52,29.28,29.28,0,0,1,.17-3.26,33.17,33.17,0,0,1,1.21-6.09,46.88,46.88,0,0,1,2.19-5.86,64.63,64.63,0,0,1,6.69-11.09,114.37,114.37,0,0,1,9.28-10.88c3.43-3.57,7.14-7.11,11-10.64,4.62-4.19,9.5-8.33,14.45-12.49s10-8.31,15-12.45,9.57-8.09,14-12.14,8.66-8,12.4-12h0a111.11,111.11,0,0,0,8.14-9.59,61.48,61.48,0,0,0,5.78-9.19h0a41.17,41.17,0,0,0,1.77-4,32.34,32.34,0,0,0,1.16-3.86,7.13,7.13,0,0,1,13.9,3.19,49.78,49.78,0,0,1-4.07,11.12,75.16,75.16,0,0,1-7.11,11.35,125.12,125.12,0,0,1-9.19,10.83c-4.1,4.36-8.55,8.62-13.21,12.83s-9.52,8.38-14.45,12.5-10.07,8.35-15,12.44c-1.47,1.24-2.95,2.48-4.4,3.72-3.33,2.83-6.57,5.64-9.64,8.42h0c-3.71,3.38-7.19,6.69-10.3,9.93a97.06,97.06,0,0,0-8.1,9.45l0,0v0a52.34,52.34,0,0,0-4.17,6.5,31.73,31.73,0,0,0-2.47,5.93,19.84,19.84,0,0,0-.71,3.59,13.43,13.43,0,0,0-.1,1.79,15,15,0,0,0,.38,3.4,21.08,21.08,0,0,0,1.91,5.14,23.84,23.84,0,0,0,3.28,4.67,36.88,36.88,0,0,0,4.76,4.42,60.71,60.71,0,0,0,6.12,4.19,134.64,134.64,0,0,0,15.4,7.71c3.76,1.65,7.71,3.29,11.73,4.93,5,2.07,10.07,4.17,15.07,6.43,3.52,1.59,7,3.28,10.4,5.11,1.42.77,2.83,1.55,4.21,2.38a90.28,90.28,0,0,1,8.93,6.05,57.13,57.13,0,0,1,10.16,10h0a44.77,44.77,0,0,1,4.95,8,43.1,43.1,0,0,1,3.26,9.21h0c.28,1.19.5,2.4.69,3.59s.31,2.41.38,3.6.1,2.09.1,3.14a49.41,49.41,0,0,1-.93,9.56,62.43,62.43,0,0,1-2.5,9.19A81.76,81.76,0,0,1,745,566.83a113,113,0,0,1-6.57,10.61,7.11,7.11,0,0,1-9.9,1.74Z" transform="translate(-136.74 -148.21)" fill="url(#Unbenannter_Verlauf_11)"/><path d="M744.23,509Z" transform="translate(-136.74 -148.21)" fill="url(#Unbenannter_Verlauf_12-6)"/><path d="M727.12,577.87a7.12,7.12,0,0,1-.36-8.62,97.7,97.7,0,0,0,5.73-9.26,64,64,0,0,0,4.26-9.52h0a44.43,44.43,0,0,0,1.93-7.06,37.5,37.5,0,0,0,.67-6.93c0-.74,0-1.45-.07-2.19a31.36,31.36,0,0,0-.74-4.93h0a29.31,29.31,0,0,0-2.19-6.16,30.27,30.27,0,0,0-3.43-5.45h0a39.8,39.8,0,0,0-5.5-5.74,62.17,62.17,0,0,0-7-5.21c-2.36-1.52-4.88-3-7.55-4.36,12.83,4.72,23,5.43,29.42,19.47C751.06,541.05,738.37,564.42,727.12,577.87Z" transform="translate(-136.74 -148.21)" fill="url(#Unbenannter_Verlauf_13)"/><path d="M720.9,490.5c-23.46-3.15-70.59-21.35-76.66-35.23-6.76-15.47,19-41.56,43.2-56.46-3.33,2.84-6.57,5.65-9.64,8.43h0c-3.71,3.38-7.19,6.69-10.31,9.93a99.47,99.47,0,0,0-8.09,9.44l0,0v0a52.34,52.34,0,0,0-4.17,6.5,31.73,31.73,0,0,0-2.47,5.93,19.86,19.86,0,0,0-.72,3.59,16.16,16.16,0,0,0,.29,5.19,21,21,0,0,0,1.9,5.14,23.94,23.94,0,0,0,3.29,4.66,35.64,35.64,0,0,0,4.76,4.43,63.49,63.49,0,0,0,6.11,4.19,136.3,136.3,0,0,0,15.4,7.71c3.76,1.64,7.72,3.29,11.74,4.93,5,2.07,10.07,4.16,15.06,6.42C714.05,487,717.52,488.66,720.9,490.5Z" transform="translate(-136.74 -148.21)" fill="url(#Unbenannter_Verlauf_14)"/></svg>