<?xml version="1.0" encoding="utf-8"?>
<!-- Generator: Adobe Illustrator 24.3.0, SVG Export Plug-In . SVG Version: 6.00 Build 0)  -->
<svg version="1.1" id="Ebene_1" xmlns="http://www.w3.org/2000/svg" xmlns:xlink="http://www.w3.org/1999/xlink" x="0px" y="0px"
	 viewBox="0 0 500 500" style="enable-background:new 0 0 500 500;" xml:space="preserve">
<style type="text/css">
	.st0{fill:#34E08F;}
	.st1{fill:#F3EAE6;}
	.st2{fill:#EFE2DD;}
	.st3{fill:#38A0F5;}
	.st4{fill:#F9F3F1;}
	.st5{fill:#96EAE5;}
	.st6{fill:#44AEEA;}
	.st7{fill:url(#SVGID_1_);}
	.st8{fill:#3CF4CC;}
	.st9{fill:#F2A13F;}
	.st10{fill:url(#SVGID_2_);}
	.st11{fill:url(#SVGID_3_);}
	.st12{fill:url(#SVGID_4_);}
	.st13{fill:url(#SVGID_5_);}
	.st14{fill:url(#SVGID_6_);}
	.st15{fill:url(#SVGID_7_);}
	.st16{fill:url(#SVGID_8_);}
	.st17{fill:url(#SVGID_9_);}
	.st18{fill:url(#SVGID_10_);}
	.st19{fill:url(#SVGID_11_);}
	.st20{fill:url(#SVGID_12_);}
</style>
<g>
	<circle class="st0" cx="250.3" cy="249.6" r="107"/>
	<path class="st1" d="M227.3,234.4c-2.7,0-4.9,2.2-4.9,4.9v29.9c1.5,0.8,3,1.8,4.6,3.2c0.1,0.1,0.3,0.2,0.4,0.3
		c12.8-13.6,23.2,1,23.2,1v-39.2L227.3,234.4z"/>
	<path class="st2" d="M222.9,239.3c0-2.4,2-4.4,4.4-4.4h23.3v-13.4H227h-23.6v50.8c0,0,8-9.5,19.6-2.9V239.3z"/>
	<path class="st1" d="M250.6,273.5v-0.8c0,0-10.7-14.9-23.6-0.6C237.7,281.4,247,276.2,250.6,273.5z"/>
	<path class="st3" d="M227,271.4c-1.6-1.3-3.1-2.4-4.6-3.2v44.1c0,10.3,6.7,19,15.9,22.2c0.3-0.5,0.5-1,0.7-1.5l5.7-14.7
		c3.9-10,5.9-20.5,5.9-31.2v-14.4C247,275.4,237.7,280.6,227,271.4L227,271.4z"/>
	<path class="st3" d="M222.9,312.4v-43.8c-11.6-6.6-19.6,2.9-19.6,2.9v15.7c0,10.7,2,21.3,5.9,31.2l5.7,14.7
		c4.1,10.6,18.8,11,23.6,1C229.5,331,222.9,322.4,222.9,312.4L222.9,312.4z"/>
	<g>
		<path class="st2" d="M201.2,220.1h-9c-6.1,0-11.3-3.5-13.7-9.1c-2.4-5.6-1.2-11.8,3.1-16.2l3.1-3.2c1.2-1.2,3.1-1.2,4.3,0
			c1.2,1.2,1.2,3.1,0,4.3l-3.1,3.2c-3,3.1-2.9,7-1.8,9.6c1.1,2.6,3.8,5.4,8.1,5.4h9c1.7,0,3,1.4,3,3
			C204.3,218.7,202.9,220.1,201.2,220.1z"/>
	</g>
	<path class="st4" d="M250.4,210.2c-2,0-14.6,0-26.3,0c-2.6,1.2-4.5,3.8-4.5,6.9s1.8,5.7,4.5,6.9h26.3c3.8,0,6.9-3.1,6.9-6.9
		S254.2,210.2,250.4,210.2z"/>
	<path class="st1" d="M220.3,217.1c0-3.8,3.1-6.9,6.9-6.9c-10.9,0-21.9,0-23.6,0c-3.8,0-6.9,3.1-6.9,6.9c0,3.8,3.1,6.9,6.9,6.9h23.6
		C223.4,224,220.3,220.9,220.3,217.1z"/>
	<path class="st1" d="M204.1,166.4c-0.2,0.2-0.4,0.4-0.6,0.6c-0.1,1.3,0,4.1,2,6.4c1.7,2,4.3,3,7.8,3.1c0,0,0,0.1,0,0.1
		c5.1-5.1,10.4-10.4,14.7-14.7C219.7,162.3,211.7,163.8,204.1,166.4z"/>
	<path class="st4" d="M201,245.6c0-1.7,1.4-3,3-3h5.9c1.7,0,3,1.4,3,3c0,1.7-1.4,3-3,3h-5.9C202.4,248.6,201,247.3,201,245.6z"/>
	<path class="st5" d="M201,273.5c0-1.7,1.4-3,3-3h5.9c1.7,0,3,1.4,3,3c0,1.7-1.4,3-3,3h-5.9C202.4,276.6,201,275.2,201,273.5z"/>
	<path class="st4" d="M201,259.6c0-1.7,1.4-3,3-3h12.3c1.7,0,3,1.4,3,3c0,1.7-1.4,3-3,3h-12.3C202.4,262.6,201,261.2,201,259.6z"/>
	<path class="st5" d="M201,287.5c0-1.7,1.4-3,3-3h12.3c1.7,0,3,1.4,3,3c0,1.7-1.4,3-3,3h-12.3C202.4,290.5,201,289.2,201,287.5z"/>
	<path class="st6" d="M327.7,232.3c-8.2-4.7-10.9-14-11.2-15l1.8-14.8l0-0.1c-1.6-4.8-1.5-8.6,0.3-11.4c0.8-1.3,1.9-2.1,3-2.7
		c-7.4-7.8-13.1-16-16.5-24.3c-1.1-2.7-4.9-2.7-6,0c-4.4,11-12.9,21.6-23.9,31.5c0.3,4,1.9,8.5,7.7,10.6l20.7,25.5l0.1,0.1
		c0,0,3.7,3.1,7,7.8c5.3,7.8,5.3,14.1,4.3,17.9c-1.1,4-0.6,7.4,1.3,10.1c0.6,0.8,1.2,1.5,2,2.1c15.1-6,24.9-20.1,26.8-35.3
		C338.3,235.6,332.5,235,327.7,232.3L327.7,232.3z"/>
	<path class="st6" d="M330.6,197c-3.4-3-6.6-6.1-9.5-9.2c-3.1,1.7-6.3,5.7-3.4,14.7l-1.8,14.8c0,0,5.4,22.4,28.9,17.5
		C346.6,221.6,342.5,207.5,330.6,197z"/>
	<path class="st6" d="M302,272.6c6.1,0,11.7-1.2,16.8-3.2c-2.8-2.2-4.9-5.8-3.3-11.8c3.6-14-11.4-26.3-11.4-26.3l-20.8-25.6
		c-5.9-2-7.4-6.7-7.6-10.6c-0.7,0.7-1.5,1.3-2.2,2C243.6,223.4,262.2,272.6,302,272.6L302,272.6z"/>
	<g>
		<circle class="st5" cx="235.2" cy="289.5" r="3.6"/>
		<circle class="st5" cx="235" cy="304.3" r="5.6"/>
	</g>
	<path class="st1" d="M230.5,159.4c2.7-2.7,2.7-7,0-9.7c-2.7-2.7-7-2.7-9.7,0c-1.2,1.2-10.8,10.8-20.7,20.7c11.3,0,9.8,9.6,9.8,9.6
		C219.8,170.1,229.3,160.6,230.5,159.4z"/>
	<path class="st1" d="M183.5,187c-2.7,2.7-2.7,7,0,9.7c2.7,2.7,7,2.7,9.7,0c1.2-1.2,10.8-10.8,20.7-20.7c-11.3,0-9.8-9.6-9.8-9.6
		C194.2,176.3,184.7,185.8,183.5,187z"/>
	<g>
		
			<linearGradient id="SVGID_1_" gradientUnits="userSpaceOnUse" x1="741.0555" y1="594.6099" x2="741.0555" y2="594.6099" gradientTransform="matrix(0 1 -1 0 911.9852 -491.6311)">
			<stop  offset="0" style="stop-color:#3CF4CC"/>
			<stop  offset="9.000000e-02" style="stop-color:#39EDB8"/>
			<stop  offset="0.21" style="stop-color:#37E7A5"/>
			<stop  offset="0.35" style="stop-color:#35E399"/>
			<stop  offset="0.53" style="stop-color:#34E191"/>
			<stop  offset="0.93" style="stop-color:#34E08F"/>
		</linearGradient>
		<path class="st7" d="M317.4,249.4L317.4,249.4L317.4,249.4z"/>
		<path class="st8" d="M316,220.1h-26.6c1.4-1.9,3.3-3.8,5.5-5.8H315c0.5,0.8,0.9,1.6,1.1,2.5C316.3,217.9,316.3,219,316,220.1z"/>
		<path class="st9" d="M307.7,231.4H289c-0.9-1.1-1.6-2.3-1.9-3.7c-0.2-0.7-0.2-1.4-0.1-2.1h26.2
			C311.7,227.5,309.8,229.4,307.7,231.4z"/>
		<path class="st8" d="M310.8,200.3h-21.1c-1.3-1.3-2.2-2.9-2.5-4.7c-0.1-0.4-0.1-0.7-0.1-1h28C314.1,196.5,312.6,198.4,310.8,200.3
			z"/>
		<path class="st8" d="M315.7,251.6H289c1-2,2.3-3.9,3.8-5.8h20.6c0.9,1.2,1.6,2.6,2,4.1C315.5,250.4,315.6,251,315.7,251.6z"/>
		
			<linearGradient id="SVGID_2_" gradientUnits="userSpaceOnUse" x1="1047.7449" y1="908.4456" x2="1117.2086" y2="908.4456" gradientTransform="matrix(0 1 -1 0 1210.0752 -860.6311)">
			<stop  offset="0.12" style="stop-color:#34E08F"/>
			<stop  offset="0.59" style="stop-color:#34DF8D"/>
			<stop  offset="0.76" style="stop-color:#33DD86"/>
			<stop  offset="0.87" style="stop-color:#31D97B"/>
			<stop  offset="0.97" style="stop-color:#2FD36A"/>
			<stop  offset="0.99" style="stop-color:#2ED266"/>
		</linearGradient>
		<path class="st10" d="M286.1,256.4c-1-0.5-1.4-1.7-0.9-2.7c0.2-0.4,0.4-0.8,0.7-1.2s0.5-0.9,0.9-1.4c0.6-1,1.3-2.1,2-3.1
			c0.5-0.7,0.9-1.3,1.3-1.8c0.2-0.3,0.5-0.6,0.7-0.9c1.2-1.4,2.6-3,4-4.5c0.7-0.8,1.5-1.5,2.2-2.2c0.6-0.6,1.2-1.1,1.7-1.7
			c0.1-0.1,0.3-0.3,0.4-0.4c1.2-1.1,2.5-2.2,3.7-3.3s2.4-2.2,3.5-3.2c1-1,2-1.9,2.9-2.8c0.8-0.9,1.6-1.8,2.4-2.7
			c0.6-0.8,1.2-1.6,1.6-2.5c0.2-0.4,0.4-0.8,0.5-1.2c0.1-0.4,0.2-0.7,0.3-1.1c0.1-0.4,0.1-0.9,0.1-1.3c0-0.4,0-0.7-0.1-1.1
			c-0.1-0.3-0.2-0.6-0.3-0.9c-0.1-0.3-0.3-0.6-0.5-0.9l0,0c-0.3-0.5-0.7-0.9-1.2-1.3c-0.5-0.5-1.1-0.9-1.7-1.3
			c-1.3-0.8-2.8-1.6-4.5-2.3c-1.1-0.5-2.3-0.9-3.6-1.4l0,0c-0.5-0.2-1-0.4-1.5-0.6c-1.4-0.5-2.8-1.1-4.2-1.7
			c-1.9-0.8-3.7-1.7-5.4-2.8c-1.1-0.7-2.1-1.5-3-2.5c-0.8-0.8-1.4-1.7-1.9-2.6c-0.5-1-0.9-2.1-1.1-3.2c-0.1-0.4-0.1-0.8-0.2-1.2l0,0
			c0-0.4-0.1-0.8-0.1-1.2c0-1,0.1-1.9,0.4-2.9c0.2-0.9,0.6-1.7,1-2.5c0.5-1,1.8-1.3,2.7-0.8c0.9,0.5,1.3,1.6,0.9,2.5
			c0,0.1-0.1,0.2-0.1,0.3c-0.3,0.5-0.5,1-0.7,1.6c-0.2,0.6-0.2,1.2-0.2,1.8c0,0.3,0,0.5,0,0.8c0,0.3,0.1,0.6,0.1,0.9
			c0.1,0.7,0.4,1.4,0.7,2c0.3,0.6,0.8,1.2,1.3,1.7c0.5,0.5,1.1,1,1.7,1.4c0.7,0.5,1.4,0.9,2.1,1.3c1.5,0.8,3.3,1.6,5.1,2.3
			c1.2,0.5,2.4,0.9,3.6,1.4l0.1,0.1c1.6,0.6,3.3,1.3,4.8,1.9c1.6,0.7,3,1.5,4.4,2.4c0.9,0.6,1.7,1.3,2.4,2c0.4,0.4,0.8,0.9,1.1,1.4
			c0.3,0.5,0.6,1,0.8,1.5c0.2,0.5,0.4,1.1,0.5,1.7c0.1,0.6,0.2,1.3,0.2,1.9c0,0.4,0,0.7-0.1,1.1c0,0.4-0.1,0.7-0.2,1.1
			c-0.3,1.1-0.7,2.2-1.2,3.3c-0.6,1.1-1.3,2.1-2,3.1l0,0c-0.8,1-1.7,2.1-2.6,3c-0.5,0.5-1,1-1.5,1.5s-1,1-1.6,1.5
			c-1.2,1.1-2.3,2.2-3.6,3.3c-1.2,1.1-2.4,2.2-3.7,3.3c-1.3,1.2-2.8,2.7-4.2,4.1s-2.7,2.9-3.8,4.2l0,0c-0.2,0.3-0.5,0.6-0.8,1
			c-0.3,0.4-0.6,0.8-0.9,1.3c-0.6,0.9-1.3,2-1.9,2.9c-0.4,0.6-0.7,1.2-1,1.7c-0.2,0.3-0.3,0.5-0.4,0.8
			C288.4,256.5,287.1,256.9,286.1,256.4L286.1,256.4z"/>
		
			<linearGradient id="SVGID_3_" gradientUnits="userSpaceOnUse" x1="1050.499" y1="914.8043" x2="1065.9989" y2="914.8043" gradientTransform="matrix(0 1 -1 0 1210.0752 -860.6311)">
			<stop  offset="0" style="stop-color:#2ED265"/>
			<stop  offset="0.45" style="stop-color:#2ED367"/>
			<stop  offset="0.61" style="stop-color:#2FD56E"/>
			<stop  offset="0.72" style="stop-color:#31D979"/>
			<stop  offset="0.82" style="stop-color:#33DE8A"/>
			<stop  offset="0.9" style="stop-color:#36E6A0"/>
			<stop  offset="0.96" style="stop-color:#3AEEBB"/>
			<stop  offset="1" style="stop-color:#3CF4CC"/>
		</linearGradient>
		<path class="st11" d="M303.7,205.4c-3.7-0.3-10-2.8-11.5-3.6c-7.3-4.1-6.5-6.1-2.2-11.9c0,0.1-0.1,0.2-0.1,0.3
			c-0.3,0.5-0.5,1-0.7,1.6c-0.2,0.6-0.2,1.2-0.2,1.8c0,0.3,0,0.5,0,0.8s0.1,0.6,0.1,0.9c0.1,0.7,0.4,1.4,0.7,2
			c0.3,0.6,0.8,1.2,1.3,1.7c0.5,0.5,1.1,1,1.7,1.4c0.7,0.5,1.4,0.9,2.1,1.3c1.5,0.8,3.3,1.6,5.1,2.3
			C301.3,204.4,302.5,204.9,303.7,205.4z"/>
		
			<linearGradient id="SVGID_4_" gradientUnits="userSpaceOnUse" x1="1069.076" y1="902.579" x2="1097.7926" y2="902.579" gradientTransform="matrix(0 1 -1 0 1210.0752 -860.6311)">
			<stop  offset="0" style="stop-color:#2ED265"/>
			<stop  offset="0.39" style="stop-color:#2ED368"/>
			<stop  offset="0.64" style="stop-color:#30D670"/>
			<stop  offset="0.85" style="stop-color:#32DB7F"/>
			<stop  offset="1" style="stop-color:#34E08F"/>
		</linearGradient>
		<path class="st12" d="M298.7,236.8c0.1-0.1,0.3-0.3,0.4-0.4c1.2-1.1,2.5-2.2,3.7-3.3s2.4-2.2,3.5-3.2c1-1,2-1.9,2.9-2.8
			c0.8-0.9,1.6-1.8,2.4-2.7c0.6-0.8,1.2-1.6,1.6-2.5c0.2-0.4,0.4-0.8,0.5-1.2c0.1-0.4,0.2-0.7,0.3-1.1c0.1-0.4,0.2-0.9,0.2-1.3
			c0-0.4,0-0.7-0.1-1.1c-0.1-0.3-0.2-0.6-0.3-0.9c-0.1-0.3-0.3-0.6-0.5-0.9l0,0c-0.3-0.5-0.7-0.9-1.2-1.3c-0.5-0.5-1.1-0.9-1.7-1.3
			c-1.3-0.8-2.8-1.6-4.5-2.3c-1.1-0.5-2.3-0.9-3.6-1.4l0,0c-0.5-0.2-1-0.4-1.5-0.6c0.5-0.2,1-0.2,1.6,0c3.5,1.6,12.5,3.8,13.5,7.7
			c2.5,9.1-14.9,19.2-16,20.4C299.5,237.3,299.1,237.3,298.7,236.8z"/>
		
			<linearGradient id="SVGID_5_" gradientUnits="userSpaceOnUse" x1="687.0582" y1="595.1012" x2="687.0582" y2="595.1012" gradientTransform="matrix(0 1 -1 0 911.9852 -491.6311)">
			<stop  offset="0" style="stop-color:#3CF4CC"/>
			<stop  offset="9.000000e-02" style="stop-color:#39EDB8"/>
			<stop  offset="0.21" style="stop-color:#37E7A5"/>
			<stop  offset="0.35" style="stop-color:#35E399"/>
			<stop  offset="0.53" style="stop-color:#34E191"/>
			<stop  offset="0.93" style="stop-color:#34E08F"/>
		</linearGradient>
		<path class="st13" d="M316.9,195.4L316.9,195.4L316.9,195.4z"/>
		
			<linearGradient id="SVGID_6_" gradientUnits="userSpaceOnUse" x1="693.3309" y1="599.7048" x2="693.3309" y2="599.7048" gradientTransform="matrix(0 1 -1 0 911.9852 -491.6311)">
			<stop  offset="0" style="stop-color:#3CF4CC"/>
			<stop  offset="9.000000e-02" style="stop-color:#39EDB8"/>
			<stop  offset="0.21" style="stop-color:#37E7A5"/>
			<stop  offset="0.35" style="stop-color:#35E399"/>
			<stop  offset="0.53" style="stop-color:#34E191"/>
			<stop  offset="0.93" style="stop-color:#34E08F"/>
		</linearGradient>
		<path class="st14" d="M312.3,201.7L312.3,201.7L312.3,201.7z"/>
		
			<linearGradient id="SVGID_7_" gradientUnits="userSpaceOnUse" x1="710.5336" y1="624.1761" x2="710.5336" y2="624.1761" gradientTransform="matrix(0 1 -1 0 911.9852 -491.6311)">
			<stop  offset="0" style="stop-color:#3CF4CC"/>
			<stop  offset="9.000000e-02" style="stop-color:#39EDB8"/>
			<stop  offset="0.21" style="stop-color:#37E7A5"/>
			<stop  offset="0.35" style="stop-color:#35E399"/>
			<stop  offset="0.53" style="stop-color:#34E191"/>
			<stop  offset="0.93" style="stop-color:#34E08F"/>
		</linearGradient>
		<path class="st15" d="M287.8,218.9L287.8,218.9L287.8,218.9z"/>
		
			<linearGradient id="SVGID_8_" gradientUnits="userSpaceOnUse" x1="749.2867" y1="595.2426" x2="749.2867" y2="595.2426" gradientTransform="matrix(0 1 -1 0 911.9852 -491.6311)">
			<stop  offset="0" style="stop-color:#3CF4CC"/>
			<stop  offset="9.000000e-02" style="stop-color:#39EDB8"/>
			<stop  offset="0.21" style="stop-color:#37E7A5"/>
			<stop  offset="0.35" style="stop-color:#35E399"/>
			<stop  offset="0.53" style="stop-color:#34E191"/>
			<stop  offset="0.93" style="stop-color:#34E08F"/>
		</linearGradient>
		<path class="st16" d="M316.7,257.7L316.7,257.7L316.7,257.7z"/>
		
			<linearGradient id="SVGID_9_" gradientUnits="userSpaceOnUse" x1="1050.4607" y1="908.588" x2="1125.4209" y2="908.588" gradientTransform="matrix(0 1 -1 0 1210.0752 -860.6311)">
			<stop  offset="0" style="stop-color:#3CF4CC"/>
			<stop  offset="0" style="stop-color:#3CF3CA"/>
			<stop  offset="5.000000e-02" style="stop-color:#39ECB4"/>
			<stop  offset="0.1" style="stop-color:#37E7A3"/>
			<stop  offset="0.17" style="stop-color:#35E398"/>
			<stop  offset="0.26" style="stop-color:#34E191"/>
			<stop  offset="0.52" style="stop-color:#34E08F"/>
		</linearGradient>
		<path class="st17" d="M310.6,264.4c-0.9-0.6-1.1-1.9-0.5-2.8l0,0c0.6-0.8,1.1-1.7,1.6-2.6c0.5-0.9,0.9-1.8,1.2-2.7l0,0
			c0.2-0.7,0.4-1.3,0.5-2c0.1-0.6,0.2-1.3,0.2-2c0-0.2,0-0.4,0-0.6c0-0.5-0.1-0.9-0.2-1.4l0,0c-0.1-0.6-0.3-1.2-0.6-1.7
			c-0.3-0.5-0.6-1.1-1-1.5l0,0c-0.5-0.6-1-1.1-1.6-1.6c-0.6-0.5-1.3-1-2-1.5c-0.7-0.4-1.4-0.8-2.1-1.2c-0.9-0.5-1.8-0.9-2.8-1.3
			c-0.8-0.4-1.6-0.7-2.4-1l-1.6-0.7c-1.6-0.6-3.1-1.3-4.6-2c-1.6-0.8-3.2-1.6-4.6-2.6c-0.9-0.7-1.8-1.4-2.6-2.3
			c-0.6-0.6-1.1-1.3-1.5-2.1c-0.4-0.8-0.7-1.6-0.9-2.5l0,0c-0.1-0.6-0.2-1.2-0.2-1.8c0-0.3,0-0.6,0-0.9c0.1-0.6,0.2-1.2,0.3-1.7
			c0.2-0.6,0.4-1.1,0.6-1.7c0.5-1.1,1.1-2.1,1.9-3.1c0.8-1.1,1.7-2.1,2.6-3.1c1-1,2-2,3.1-3c1.3-1.2,2.7-2.4,4.1-3.5
			c1.4-1.2,2.8-2.3,4.2-3.5c1.4-1.1,2.7-2.3,4-3.4c1.3-1.1,2.4-2.3,3.5-3.4l0,0c0.8-0.9,1.6-1.8,2.3-2.7c0.6-0.8,1.2-1.7,1.6-2.6
			l0,0c0.2-0.4,0.3-0.7,0.5-1.1c0.1-0.4,0.2-0.7,0.3-1.1c0.2-1.1,1.3-1.8,2.4-1.5c1.1,0.2,1.8,1.3,1.5,2.4c-0.3,1.1-0.6,2.1-1.2,3.1
			c-0.6,1.1-1.2,2.2-2,3.2c-0.8,1.1-1.7,2.1-2.6,3.1c-1.2,1.2-2.4,2.4-3.7,3.6c-1.3,1.2-2.7,2.4-4.1,3.5c-1.4,1.2-2.8,2.4-4.2,3.5
			c-0.4,0.3-0.8,0.7-1.2,1c-0.9,0.8-1.9,1.6-2.7,2.4l0,0c-1,1-2,1.9-2.9,2.8c-0.8,0.8-1.6,1.7-2.3,2.7l0,0v0
			c-0.4,0.6-0.8,1.2-1.2,1.8c-0.3,0.5-0.5,1.1-0.7,1.7c-0.1,0.3-0.2,0.7-0.2,1c0,0.2,0,0.3,0,0.5c0,0.3,0,0.6,0.1,1
			c0.1,0.5,0.3,1,0.5,1.5c0.3,0.5,0.6,0.9,0.9,1.3c0.4,0.5,0.9,0.9,1.3,1.3c0.6,0.4,1.1,0.8,1.7,1.2c1.3,0.8,2.8,1.5,4.4,2.2
			c1.1,0.5,2.2,0.9,3.3,1.4c1.4,0.6,2.8,1.2,4.3,1.8c1,0.5,2,0.9,2.9,1.4c0.4,0.2,0.8,0.4,1.2,0.7c0.9,0.5,1.7,1.1,2.5,1.7
			c1.1,0.8,2,1.8,2.9,2.8l0,0c0.5,0.7,1,1.5,1.4,2.3c0.4,0.8,0.7,1.7,0.9,2.6l0,0c0.1,0.3,0.1,0.7,0.2,1c0.1,0.3,0.1,0.7,0.1,1
			c0,0.3,0,0.6,0,0.9c0,0.9-0.1,1.8-0.3,2.7c-0.2,0.9-0.4,1.7-0.7,2.6c-0.4,1.1-0.9,2.2-1.5,3.3c-0.6,1-1.2,2-1.9,3
			C312.8,264.8,311.5,265.1,310.6,264.4L310.6,264.4z"/>
		
			<linearGradient id="SVGID_10_" gradientUnits="userSpaceOnUse" x1="736.2029" y1="596.9386" x2="736.2029" y2="596.9386" gradientTransform="matrix(0 1 -1 0 911.9852 -491.6311)">
			<stop  offset="0" style="stop-color:#3CF4CC"/>
			<stop  offset="9.000000e-02" style="stop-color:#39EDB8"/>
			<stop  offset="0.21" style="stop-color:#37E7A5"/>
			<stop  offset="0.35" style="stop-color:#35E399"/>
			<stop  offset="0.53" style="stop-color:#34E191"/>
			<stop  offset="0.93" style="stop-color:#34E08F"/>
		</linearGradient>
		<path class="st18" d="M315,244.6L315,244.6L315,244.6z"/>
		
			<linearGradient id="SVGID_11_" gradientUnits="userSpaceOnUse" x1="1103.3589" y1="899.3204" x2="1124.6873" y2="899.3204" gradientTransform="matrix(0 1 -1 0 1210.0752 -860.6311)">
			<stop  offset="0" style="stop-color:#2ED265"/>
			<stop  offset="0.36" style="stop-color:#2ED368"/>
			<stop  offset="0.59" style="stop-color:#30D670"/>
			<stop  offset="0.78" style="stop-color:#32DB7F"/>
			<stop  offset="0.92" style="stop-color:#34E08F"/>
		</linearGradient>
		<path class="st19" d="M310.2,264.1c-0.6-0.7-0.6-1.7-0.1-2.4c0.6-0.8,1.1-1.7,1.6-2.6c0.5-0.9,0.9-1.8,1.2-2.7l0,0
			c0.2-0.7,0.4-1.3,0.5-2c0.1-0.6,0.2-1.3,0.2-2c0-0.2,0-0.4,0-0.6c0-0.5-0.1-0.9-0.2-1.4l0,0c-0.1-0.6-0.3-1.2-0.6-1.7
			c-0.3-0.5-0.6-1.1-1-1.5l0,0c-0.5-0.6-1-1.1-1.6-1.6c-0.6-0.5-1.3-1-2-1.5c-0.7-0.4-1.4-0.8-2.1-1.2c3.6,1.3,6.5,1.5,8.3,5.5
			C317,253.6,313.4,260.3,310.2,264.1z"/>
		
			<linearGradient id="SVGID_12_" gradientUnits="userSpaceOnUse" x1="1074.0551" y1="912.6185" x2="1099.9802" y2="912.6185" gradientTransform="matrix(0 1 -1 0 1210.0752 -860.6311)">
			<stop  offset="0" style="stop-color:#34E08F"/>
			<stop  offset="0.15" style="stop-color:#35E399"/>
			<stop  offset="0.7" style="stop-color:#39EEBA"/>
			<stop  offset="1" style="stop-color:#3BF2C6"/>
			<stop  offset="1" style="stop-color:#3CF4CC;stop-opacity:0.52"/>
			<stop  offset="1" style="stop-color:#3CF4CC;stop-opacity:0.5"/>
		</linearGradient>
		<path class="st20" d="M308.5,239.3c-6.6-0.9-20-6-21.7-10c-1.9-4.4,5.4-11.8,12.2-16c-0.9,0.8-1.9,1.6-2.7,2.4l0,0
			c-1,1-2,1.9-2.9,2.8c-0.8,0.8-1.6,1.7-2.3,2.7l0,0v0c-0.4,0.6-0.8,1.2-1.2,1.8c-0.3,0.5-0.5,1.1-0.7,1.7c-0.1,0.3-0.2,0.7-0.2,1
			c0,0.2,0,0.3,0,0.5c0,0.3,0,0.6,0.1,1c0.1,0.5,0.3,1,0.5,1.5c0.3,0.5,0.6,0.9,0.9,1.3c0.4,0.5,0.9,0.9,1.3,1.3
			c0.6,0.4,1.1,0.8,1.7,1.2c1.3,0.8,2.8,1.5,4.4,2.2c1.1,0.5,2.2,0.9,3.3,1.4c1.4,0.6,2.8,1.2,4.3,1.8
			C306.5,238.4,307.5,238.8,308.5,239.3z"/>
	</g>
</g>
</svg>
