<?xml version="1.0" encoding="utf-8"?>
<!-- Generator: Adobe Illustrator 24.3.0, SVG Export Plug-In . SVG Version: 6.00 Build 0)  -->
<svg version="1.1" id="Ebene_1" xmlns="http://www.w3.org/2000/svg" xmlns:xlink="http://www.w3.org/1999/xlink" x="0px" y="0px"
	 viewBox="0 0 300 300" style="enable-background:new 0 0 300 300;" xml:space="preserve">
<style type="text/css">
	.st0{fill:#34E08F;}
	.st1{fill:#F3EAE6;}
	.st2{fill:#EFE2DD;}
	.st3{fill:#38A0F5;}
	.st4{fill:#F9F3F1;}
	.st5{fill:#96EAE5;}
	.st6{fill:#44AEEA;}
	.st7{fill:url(#SVGID_1_);}
	.st8{fill:#3CF4CC;}
	.st9{fill:#F2A13F;}
	.st10{fill:url(#SVGID_2_);}
	.st11{fill:url(#SVGID_3_);}
	.st12{fill:url(#SVGID_4_);}
	.st13{fill:url(#SVGID_5_);}
	.st14{fill:url(#SVGID_6_);}
	.st15{fill:url(#SVGID_7_);}
	.st16{fill:url(#SVGID_8_);}
	.st17{fill:url(#SVGID_9_);}
	.st18{fill:url(#SVGID_10_);}
	.st19{fill:url(#SVGID_11_);}
	.st20{fill:url(#SVGID_12_);}
</style>
<g>
	<circle class="st0" cx="150.4" cy="149.6" r="149.6"/>
	<path class="st1" d="M118.2,128.5c-3.8,0-6.8,3.1-6.8,6.8v41.8c2,1.1,4.2,2.5,6.4,4.4c0.2,0.2,0.4,0.3,0.6,0.5
		c17.9-19,32.5,1.4,32.5,1.4v-54.9L118.2,128.5z"/>
	<path class="st2" d="M112.1,135.3c0-3.4,2.7-6.1,6.1-6.1h32.6v-18.8h-33.1H84.7v71.1c0,0,11.2-13.3,27.4-4V135.3z"/>
	<path class="st1" d="M150.8,183.1v-1.1c0,0-14.9-20.8-33.1-0.8C132.8,194.1,145.8,186.9,150.8,183.1z"/>
	<path class="st3" d="M117.8,180.3c-2.2-1.9-4.3-3.3-6.4-4.4v61.7c0,14.4,9.3,26.6,22.2,31.1c0.4-0.7,0.7-1.4,1-2.1l8-20.6
		c5.4-13.9,8.2-28.7,8.2-43.7v-20.1C145.8,185.8,132.8,193.1,117.8,180.3L117.8,180.3z"/>
	<path class="st3" d="M112.1,237.5v-61.2c-16.2-9.3-27.4,4-27.4,4v22c0,14.9,2.8,29.7,8.2,43.7l8,20.6c5.8,14.9,26.3,15.3,33,1.4
		C121.3,263.6,112.1,251.6,112.1,237.5L112.1,237.5z"/>
	<g>
		<path class="st2" d="M81.8,108.4H69.2c-8.5,0-15.9-4.9-19.2-12.7c-3.3-7.9-1.6-16.5,4.3-22.6l4.3-4.4c1.6-1.7,4.3-1.7,6-0.1
			c1.7,1.6,1.7,4.3,0.1,6L60.3,79c-4.2,4.3-4.1,9.8-2.6,13.4c1.5,3.7,5.3,7.6,11.4,7.6h12.6c2.3,0,4.2,1.9,4.2,4.2
			C86,106.6,84.1,108.4,81.8,108.4z"/>
	</g>
	<path class="st4" d="M150.5,94.6c-2.8,0-20.5,0-36.8,0c-3.7,1.6-6.2,5.3-6.2,9.6c0,4.3,2.6,8,6.2,9.6h36.8c5.3,0,9.6-4.3,9.6-9.6
		S155.8,94.6,150.5,94.6z"/>
	<path class="st1" d="M108.4,104.2c0-5.3,4.3-9.6,9.6-9.6c-15.3,0-30.6,0-33.1,0c-5.3,0-9.6,4.3-9.6,9.6c0,5.3,4.3,9.6,9.6,9.6H118
		C112.7,113.8,108.4,109.5,108.4,104.2z"/>
	<path class="st1" d="M85.8,33.3c-0.3,0.3-0.5,0.5-0.8,0.8c-0.1,1.8,0,5.8,2.8,9c2.3,2.7,6,4.2,10.9,4.4c0,0.1,0,0.1,0,0.2
		c7.2-7.2,14.6-14.6,20.6-20.6C107.6,27.6,96.4,29.7,85.8,33.3z"/>
	<path class="st4" d="M81.5,144.1c0-2.3,1.9-4.2,4.2-4.2H94c2.3,0,4.2,1.9,4.2,4.2s-1.9,4.2-4.2,4.2h-8.2
		C83.4,148.4,81.5,146.5,81.5,144.1z"/>
	<path class="st5" d="M81.5,183.2c0-2.3,1.9-4.2,4.2-4.2H94c2.3,0,4.2,1.9,4.2,4.2s-1.9,4.2-4.2,4.2h-8.2
		C83.4,187.4,81.5,185.5,81.5,183.2z"/>
	<path class="st4" d="M81.5,163.7c0-2.3,1.9-4.2,4.2-4.2H103c2.3,0,4.2,1.9,4.2,4.2s-1.9,4.2-4.2,4.2H85.7
		C83.4,167.9,81.5,166,81.5,163.7z"/>
	<path class="st5" d="M81.5,202.7c0-2.3,1.9-4.2,4.2-4.2H103c2.3,0,4.2,1.9,4.2,4.2s-1.9,4.2-4.2,4.2H85.7
		C83.4,206.9,81.5,205,81.5,202.7z"/>
	<path class="st6" d="M258.7,125.4c-11.5-6.5-15.3-19.6-15.7-21l2.5-20.7l-0.1-0.2c-2.2-6.7-2-12.1,0.4-15.9c1.2-1.8,2.7-3,4.2-3.8
		c-10.3-10.9-18.4-22.3-23.1-34c-1.5-3.8-6.9-3.8-8.4,0c-6.2,15.4-18,30.2-33.4,44.1c0.4,5.6,2.7,11.9,10.8,14.9l29,35.7l0.1,0.1
		c0.1,0,5.2,4.3,9.7,10.9c7.5,10.9,7.4,19.7,6,25.1c-1.5,5.7-0.9,10.4,1.8,14.1c0.8,1.1,1.7,2.1,2.7,2.9
		c21.2-8.3,34.9-28.1,37.4-49.4C273.5,130.2,265.4,129.3,258.7,125.4L258.7,125.4z"/>
	<path class="st6" d="M262.7,76.1c-4.7-4.2-9.2-8.5-13.2-12.8c-4.3,2.4-8.9,8-4.8,20.5l-2.5,20.6c0,0,7.6,31.4,40.5,24.5
		C285.1,110.5,279.3,90.8,262.7,76.1z"/>
	<path class="st6" d="M222.7,181.8c8.6,0,16.4-1.6,23.4-4.5c-4-3-6.8-8.1-4.7-16.5c5.1-19.6-15.9-36.8-15.9-36.8l-29.2-35.8
		c-8.2-2.9-10.4-9.3-10.6-14.8c-1,0.9-2.1,1.9-3.1,2.8C141,113,167.1,181.8,222.7,181.8L222.7,181.8z"/>
	<g>
		<circle class="st5" cx="129.3" cy="205.5" r="5"/>
		<circle class="st5" cx="129" cy="226.2" r="7.8"/>
	</g>
	<path class="st1" d="M122.7,23.6c3.8-3.8,3.8-9.8,0-13.6c-3.8-3.8-9.8-3.8-13.6,0c-1.6,1.6-15.1,15.1-29,29
		c15.8,0,13.7,13.5,13.7,13.5C107.7,38.6,121.1,25.2,122.7,23.6z"/>
	<path class="st1" d="M57,62.1c-3.8,3.8-3.8,9.8,0,13.6c3.8,3.8,9.8,3.8,13.6,0c1.6-1.6,15.1-15.1,29-29
		c-15.8,0-13.7-13.5-13.7-13.5C72,47.2,58.6,60.5,57,62.1z"/>
	<g>
		
			<linearGradient id="SVGID_1_" gradientUnits="userSpaceOnUse" x1="641.0892" y1="867.7725" x2="641.0892" y2="867.7725" gradientTransform="matrix(0 1 -1 0 1111.9852 -491.6311)">
			<stop  offset="0" style="stop-color:#3CF4CC"/>
			<stop  offset="9.000000e-02" style="stop-color:#39EDB8"/>
			<stop  offset="0.21" style="stop-color:#37E7A5"/>
			<stop  offset="0.35" style="stop-color:#35E399"/>
			<stop  offset="0.53" style="stop-color:#34E191"/>
			<stop  offset="0.93" style="stop-color:#34E08F"/>
		</linearGradient>
		<path class="st7" d="M244.2,149.5L244.2,149.5L244.2,149.5z"/>
		<path class="st8" d="M242.3,108.4h-37.2c2-2.7,4.6-5.4,7.7-8.1h28.1c0.7,1.1,1.3,2.3,1.5,3.5C242.7,105.4,242.7,106.9,242.3,108.4
			z"/>
		<path class="st9" d="M230.7,124.3h-26.1c-1.3-1.5-2.2-3.2-2.7-5.1c-0.2-1-0.3-2-0.2-3h36.6C236.2,118.8,233.6,121.5,230.7,124.3z"
			/>
		<path class="st8" d="M235,80.8h-29.5c-1.8-1.9-3-4-3.5-6.6c-0.1-0.5-0.2-1-0.2-1.5H241C239.6,75.4,237.6,78.1,235,80.8z"/>
		<path class="st8" d="M241.8,152.5h-37.3c1.4-2.8,3.2-5.5,5.4-8.1h28.9c1.3,1.7,2.2,3.6,2.7,5.7
			C241.6,150.9,241.8,151.7,241.8,152.5z"/>
		
			<linearGradient id="SVGID_2_" gradientUnits="userSpaceOnUse" x1="922.9426" y1="1187.8842" x2="1020.0935" y2="1187.8842" gradientTransform="matrix(0 1 -1 0 1410.0752 -860.6311)">
			<stop  offset="0.12" style="stop-color:#34E08F"/>
			<stop  offset="0.59" style="stop-color:#34DF8D"/>
			<stop  offset="0.76" style="stop-color:#33DD86"/>
			<stop  offset="0.87" style="stop-color:#31D97B"/>
			<stop  offset="0.97" style="stop-color:#2FD36A"/>
			<stop  offset="0.99" style="stop-color:#2ED266"/>
		</linearGradient>
		<path class="st10" d="M200.5,159.2c-1.4-0.7-2-2.4-1.3-3.8c0.3-0.5,0.6-1.1,0.9-1.7c0.4-0.6,0.8-1.3,1.2-2
			c0.9-1.4,1.8-2.9,2.8-4.3c0.6-0.9,1.3-1.8,1.8-2.6c0.3-0.4,0.6-0.8,1-1.2c1.6-2,3.6-4.2,5.6-6.3c1-1.1,2.1-2.1,3.1-3.1
			c0.8-0.8,1.6-1.6,2.4-2.3c0.2-0.2,0.4-0.4,0.6-0.5c1.7-1.6,3.5-3.1,5.2-4.7c1.7-1.5,3.3-3,4.9-4.5c1.4-1.4,2.8-2.7,4-4
			c1.2-1.2,2.3-2.5,3.3-3.8c0.9-1.1,1.6-2.2,2.3-3.5c0.3-0.5,0.5-1.1,0.8-1.6c0.2-0.5,0.3-1,0.5-1.5c0.1-0.6,0.2-1.2,0.2-1.8
			c0-0.5-0.1-1-0.2-1.5c-0.1-0.5-0.2-0.9-0.4-1.3c-0.2-0.4-0.4-0.8-0.7-1.2l0,0c-0.5-0.7-1-1.3-1.6-1.8c-0.7-0.6-1.5-1.2-2.3-1.8
			c-1.8-1.1-3.9-2.2-6.3-3.2c-1.6-0.7-3.3-1.3-5-2l0,0c-0.7-0.3-1.4-0.5-2.1-0.8c-2-0.7-3.9-1.5-5.9-2.3c-2.7-1.1-5.2-2.4-7.5-3.9
			c-1.6-1-3-2.1-4.3-3.4c-1.1-1.1-2-2.3-2.7-3.6c-0.8-1.4-1.3-2.9-1.6-4.4c-0.1-0.6-0.2-1.1-0.2-1.7l0,0c-0.1-0.6-0.1-1.1-0.1-1.7
			c0-1.4,0.2-2.7,0.5-4c0.3-1.2,0.8-2.4,1.4-3.5c0.8-1.4,2.5-1.9,3.8-1.1c1.2,0.7,1.8,2.2,1.3,3.5c0,0.1-0.1,0.2-0.2,0.4
			c-0.4,0.7-0.7,1.4-0.9,2.2c-0.2,0.8-0.3,1.7-0.3,2.5c0,0.4,0,0.7,0.1,1.1c0,0.4,0.1,0.8,0.2,1.2c0.2,1,0.5,1.9,1,2.8
			c0.5,0.9,1.1,1.7,1.8,2.4c0.7,0.7,1.5,1.4,2.3,2c0.9,0.7,1.9,1.3,3,1.8c2.1,1.2,4.6,2.2,7.2,3.2c1.7,0.7,3.4,1.3,5.1,1.9l0.2,0.1
			c2.3,0.9,4.6,1.8,6.7,2.7s4.3,2,6.1,3.3c1.2,0.8,2.4,1.8,3.4,2.9c0.6,0.6,1.1,1.3,1.6,2c0.5,0.7,0.8,1.4,1.2,2.1
			c0.3,0.8,0.6,1.6,0.8,2.4c0.2,0.9,0.3,1.8,0.3,2.7c0,0.5,0,1-0.1,1.6c-0.1,0.5-0.2,1-0.3,1.5c-0.4,1.6-1,3.1-1.7,4.5
			c-0.8,1.5-1.8,2.9-2.8,4.3l0,0c-1.2,1.5-2.4,2.9-3.7,4.2c-0.7,0.7-1.4,1.4-2.1,2.1c-0.7,0.7-1.4,1.4-2.2,2.1c-1.6,1.5-3.3,3-5,4.5
			c-1.7,1.5-3.4,3.1-5.1,4.6c-1.9,1.7-3.9,3.7-5.9,5.7s-3.8,4.1-5.3,5.9l0,0c-0.3,0.4-0.7,0.9-1.1,1.4c-0.4,0.5-0.8,1.2-1.3,1.8
			c-0.9,1.3-1.8,2.7-2.6,4.1c-0.5,0.9-1,1.7-1.4,2.4c-0.2,0.4-0.4,0.8-0.6,1.1C203.6,159.3,201.9,159.9,200.5,159.2L200.5,159.2z"/>
		
			<linearGradient id="SVGID_3_" gradientUnits="userSpaceOnUse" x1="926.7945" y1="1196.7773" x2="948.4724" y2="1196.7773" gradientTransform="matrix(0 1 -1 0 1410.0752 -860.6311)">
			<stop  offset="0" style="stop-color:#2ED265"/>
			<stop  offset="0.45" style="stop-color:#2ED367"/>
			<stop  offset="0.61" style="stop-color:#2FD56E"/>
			<stop  offset="0.72" style="stop-color:#31D979"/>
			<stop  offset="0.82" style="stop-color:#33DE8A"/>
			<stop  offset="0.9" style="stop-color:#36E6A0"/>
			<stop  offset="0.96" style="stop-color:#3AEEBB"/>
			<stop  offset="1" style="stop-color:#3CF4CC"/>
		</linearGradient>
		<path class="st11" d="M225.2,87.8c-5.2-0.4-13.9-3.9-16-5.1c-10.3-5.7-9.1-8.5-3.1-16.6c0,0.1-0.1,0.2-0.2,0.4
			c-0.4,0.7-0.7,1.4-0.9,2.2c-0.2,0.8-0.3,1.7-0.3,2.5c0,0.4,0,0.7,0.1,1.1c0,0.4,0.1,0.8,0.2,1.2c0.2,1,0.5,1.9,1,2.8
			c0.5,0.9,1.1,1.7,1.8,2.4c0.7,0.7,1.5,1.4,2.3,2c0.9,0.7,1.9,1.3,3,1.8c2.1,1.2,4.6,2.2,7.2,3.2C221.7,86.6,223.4,87.2,225.2,87.8
			z"/>
		
			<linearGradient id="SVGID_4_" gradientUnits="userSpaceOnUse" x1="952.776" y1="1179.6792" x2="992.9385" y2="1179.6792" gradientTransform="matrix(0 1 -1 0 1410.0752 -860.6311)">
			<stop  offset="0" style="stop-color:#2ED265"/>
			<stop  offset="0.39" style="stop-color:#2ED368"/>
			<stop  offset="0.64" style="stop-color:#30D670"/>
			<stop  offset="0.85" style="stop-color:#32DB7F"/>
			<stop  offset="1" style="stop-color:#34E08F"/>
		</linearGradient>
		<path class="st12" d="M218.1,131.9c0.2-0.2,0.4-0.4,0.6-0.5c1.7-1.6,3.5-3.1,5.2-4.7c1.7-1.5,3.3-3,4.9-4.5c1.4-1.4,2.8-2.7,4-4
			c1.2-1.2,2.3-2.5,3.3-3.8c0.9-1.1,1.6-2.2,2.3-3.5c0.3-0.5,0.5-1.1,0.8-1.6c0.2-0.5,0.3-1,0.5-1.5c0.1-0.6,0.2-1.2,0.2-1.8
			c0-0.5-0.1-1-0.2-1.5c-0.1-0.5-0.2-0.9-0.4-1.3c-0.2-0.4-0.4-0.8-0.7-1.2l0,0c-0.5-0.7-1-1.3-1.6-1.8c-0.7-0.6-1.5-1.2-2.3-1.8
			c-1.8-1.1-3.9-2.2-6.3-3.2c-1.6-0.7-3.3-1.3-5-2l0,0c-0.7-0.3-1.4-0.5-2.1-0.8c0.7-0.3,1.4-0.3,2.2,0.1
			c4.9,2.2,17.5,5.4,18.9,10.7c3.5,12.7-20.9,26.8-22.4,28.5C219.3,132.5,218.6,132.5,218.1,131.9z"/>
		
			<linearGradient id="SVGID_5_" gradientUnits="userSpaceOnUse" x1="565.5695" y1="868.4596" x2="565.5695" y2="868.4596" gradientTransform="matrix(0 1 -1 0 1111.9852 -491.6311)">
			<stop  offset="0" style="stop-color:#3CF4CC"/>
			<stop  offset="9.000000e-02" style="stop-color:#39EDB8"/>
			<stop  offset="0.21" style="stop-color:#37E7A5"/>
			<stop  offset="0.35" style="stop-color:#35E399"/>
			<stop  offset="0.53" style="stop-color:#34E191"/>
			<stop  offset="0.93" style="stop-color:#34E08F"/>
		</linearGradient>
		<path class="st13" d="M243.5,73.9L243.5,73.9L243.5,73.9z"/>
		
			<linearGradient id="SVGID_6_" gradientUnits="userSpaceOnUse" x1="574.3423" y1="874.898" x2="574.3423" y2="874.898" gradientTransform="matrix(0 1 -1 0 1111.9852 -491.6311)">
			<stop  offset="0" style="stop-color:#3CF4CC"/>
			<stop  offset="9.000000e-02" style="stop-color:#39EDB8"/>
			<stop  offset="0.21" style="stop-color:#37E7A5"/>
			<stop  offset="0.35" style="stop-color:#35E399"/>
			<stop  offset="0.53" style="stop-color:#34E191"/>
			<stop  offset="0.93" style="stop-color:#34E08F"/>
		</linearGradient>
		<path class="st14" d="M237.1,82.7L237.1,82.7L237.1,82.7z"/>
		
			<linearGradient id="SVGID_7_" gradientUnits="userSpaceOnUse" x1="598.4017" y1="909.1234" x2="598.4017" y2="909.1234" gradientTransform="matrix(0 1 -1 0 1111.9852 -491.6311)">
			<stop  offset="0" style="stop-color:#3CF4CC"/>
			<stop  offset="9.000000e-02" style="stop-color:#39EDB8"/>
			<stop  offset="0.21" style="stop-color:#37E7A5"/>
			<stop  offset="0.35" style="stop-color:#35E399"/>
			<stop  offset="0.53" style="stop-color:#34E191"/>
			<stop  offset="0.93" style="stop-color:#34E08F"/>
		</linearGradient>
		<path class="st15" d="M202.9,106.8L202.9,106.8L202.9,106.8z"/>
		
			<linearGradient id="SVGID_8_" gradientUnits="userSpaceOnUse" x1="652.6012" y1="868.6573" x2="652.6012" y2="868.6573" gradientTransform="matrix(0 1 -1 0 1111.9852 -491.6311)">
			<stop  offset="0" style="stop-color:#3CF4CC"/>
			<stop  offset="9.000000e-02" style="stop-color:#39EDB8"/>
			<stop  offset="0.21" style="stop-color:#37E7A5"/>
			<stop  offset="0.35" style="stop-color:#35E399"/>
			<stop  offset="0.53" style="stop-color:#34E191"/>
			<stop  offset="0.93" style="stop-color:#34E08F"/>
		</linearGradient>
		<path class="st16" d="M243.3,161L243.3,161L243.3,161z"/>
		
			<linearGradient id="SVGID_9_" gradientUnits="userSpaceOnUse" x1="926.7409" y1="1188.0833" x2="1031.579" y2="1188.0833" gradientTransform="matrix(0 1 -1 0 1410.0752 -860.6311)">
			<stop  offset="0" style="stop-color:#3CF4CC"/>
			<stop  offset="0" style="stop-color:#3CF3CA"/>
			<stop  offset="5.000000e-02" style="stop-color:#39ECB4"/>
			<stop  offset="0.1" style="stop-color:#37E7A3"/>
			<stop  offset="0.17" style="stop-color:#35E398"/>
			<stop  offset="0.26" style="stop-color:#34E191"/>
			<stop  offset="0.52" style="stop-color:#34E08F"/>
		</linearGradient>
		<path class="st17" d="M234.8,170.4c-1.3-0.9-1.6-2.7-0.7-3.9l0,0c0.8-1.2,1.6-2.4,2.3-3.7c0.7-1.2,1.2-2.5,1.7-3.8l0,0
			c0.3-0.9,0.6-1.8,0.8-2.8c0.2-0.9,0.3-1.8,0.3-2.7c0-0.3,0-0.6,0-0.9c0-0.7-0.1-1.3-0.3-1.9l0,0c-0.2-0.8-0.5-1.7-0.9-2.4
			c-0.4-0.8-0.8-1.5-1.4-2.2l0,0c-0.6-0.8-1.4-1.6-2.2-2.3c-0.9-0.8-1.8-1.4-2.8-2.1c-0.9-0.6-1.9-1.2-3-1.7
			c-1.2-0.6-2.6-1.3-3.9-1.9c-1.1-0.5-2.3-1-3.4-1.5l-2.3-1c-2.2-0.9-4.4-1.8-6.5-2.8c-2.3-1.1-4.5-2.3-6.4-3.7
			c-1.3-0.9-2.5-2-3.6-3.2c-0.8-0.9-1.5-1.9-2.1-2.9c-0.6-1.1-1-2.2-1.3-3.5l0,0c-0.2-0.8-0.3-1.7-0.3-2.6c0-0.4,0-0.9,0.1-1.3
			c0.1-0.8,0.2-1.6,0.5-2.4c0.2-0.8,0.5-1.6,0.9-2.3c0.7-1.5,1.6-3,2.6-4.4c1.1-1.5,2.4-2.9,3.7-4.3c1.4-1.4,2.8-2.8,4.4-4.2
			c1.8-1.7,3.8-3.3,5.7-4.9c2-1.6,4-3.3,5.9-4.9c1.9-1.6,3.8-3.2,5.6-4.8c1.8-1.6,3.4-3.2,4.9-4.8l0,0c1.1-1.2,2.2-2.5,3.2-3.8
			c0.9-1.1,1.6-2.4,2.3-3.6l0,0c0.3-0.5,0.5-1,0.7-1.6c0.2-0.5,0.3-1,0.5-1.5c0.3-1.5,1.9-2.5,3.4-2.1c1.5,0.3,2.5,1.9,2.1,3.4
			c-0.4,1.5-0.9,3-1.6,4.4c-0.8,1.6-1.7,3.1-2.8,4.5c-1.1,1.5-2.3,2.9-3.6,4.3c-1.6,1.7-3.4,3.4-5.2,5.1c-1.8,1.7-3.8,3.3-5.7,4.9
			c-2,1.7-4,3.3-5.9,4.9c-0.6,0.5-1.2,1-1.7,1.5c-1.3,1.1-2.6,2.2-3.8,3.3l0,0c-1.5,1.3-2.8,2.6-4.1,3.9c-1.1,1.2-2.2,2.4-3.2,3.7
			l0,0v0c-0.6,0.8-1.2,1.7-1.6,2.6c-0.4,0.7-0.7,1.5-1,2.3c-0.1,0.5-0.2,0.9-0.3,1.4c0,0.2,0,0.5,0,0.7c0,0.5,0,0.9,0.2,1.3
			c0.2,0.7,0.4,1.4,0.8,2c0.4,0.7,0.8,1.3,1.3,1.8c0.6,0.6,1.2,1.2,1.9,1.8c0.8,0.6,1.6,1.1,2.4,1.7c1.8,1.1,3.9,2.1,6.1,3
			c1.5,0.6,3,1.3,4.6,1.9c2,0.8,4,1.6,6,2.5c1.4,0.6,2.8,1.3,4.1,2c0.6,0.3,1.1,0.6,1.7,0.9c1.2,0.7,2.4,1.5,3.5,2.4
			c1.5,1.1,2.9,2.5,4,4l0,0c0.8,1,1.4,2,2,3.2c0.6,1.2,1,2.4,1.3,3.6l0,0c0.1,0.5,0.2,1,0.3,1.4s0.1,1,0.2,1.4c0,0.4,0,0.8,0,1.2
			c0,1.3-0.1,2.5-0.4,3.8c-0.2,1.2-0.6,2.4-1,3.6c-0.6,1.6-1.2,3.1-2,4.6c-0.8,1.4-1.7,2.9-2.6,4.2C237.8,171,236,171.3,234.8,170.4
			L234.8,170.4z"/>
		
			<linearGradient id="SVGID_10_" gradientUnits="userSpaceOnUse" x1="634.3025" y1="871.0294" x2="634.3025" y2="871.0294" gradientTransform="matrix(0 1 -1 0 1111.9852 -491.6311)">
			<stop  offset="0" style="stop-color:#3CF4CC"/>
			<stop  offset="9.000000e-02" style="stop-color:#39EDB8"/>
			<stop  offset="0.21" style="stop-color:#37E7A5"/>
			<stop  offset="0.35" style="stop-color:#35E399"/>
			<stop  offset="0.53" style="stop-color:#34E191"/>
			<stop  offset="0.93" style="stop-color:#34E08F"/>
		</linearGradient>
		<path class="st18" d="M241,142.7L241,142.7L241,142.7z"/>
		
			<linearGradient id="SVGID_11_" gradientUnits="userSpaceOnUse" x1="1000.7234" y1="1175.1217" x2="1030.5529" y2="1175.1217" gradientTransform="matrix(0 1 -1 0 1410.0752 -860.6311)">
			<stop  offset="0" style="stop-color:#2ED265"/>
			<stop  offset="0.36" style="stop-color:#2ED368"/>
			<stop  offset="0.59" style="stop-color:#30D670"/>
			<stop  offset="0.78" style="stop-color:#32DB7F"/>
			<stop  offset="0.92" style="stop-color:#34E08F"/>
		</linearGradient>
		<path class="st19" d="M234.2,169.9c-0.8-1-0.9-2.4-0.1-3.4c0.8-1.2,1.6-2.4,2.3-3.7c0.7-1.2,1.2-2.5,1.7-3.8l0,0
			c0.3-0.9,0.6-1.8,0.8-2.8c0.2-0.9,0.3-1.8,0.3-2.7c0-0.3,0-0.6,0-0.9c0-0.7-0.1-1.3-0.3-1.9l0,0c-0.2-0.8-0.5-1.7-0.9-2.4
			c-0.4-0.8-0.8-1.5-1.4-2.2l0,0c-0.6-0.8-1.4-1.6-2.2-2.3c-0.9-0.8-1.8-1.4-2.8-2.1c-0.9-0.6-1.9-1.2-3-1.7
			c5.1,1.9,9.1,2.1,11.6,7.7C243.7,155.4,238.6,164.6,234.2,169.9z"/>
		
			<linearGradient id="SVGID_12_" gradientUnits="userSpaceOnUse" x1="959.7396" y1="1193.7203" x2="995.9981" y2="1193.7203" gradientTransform="matrix(0 1 -1 0 1410.0752 -860.6311)">
			<stop  offset="0" style="stop-color:#34E08F"/>
			<stop  offset="0.15" style="stop-color:#35E399"/>
			<stop  offset="0.7" style="stop-color:#39EEBA"/>
			<stop  offset="1" style="stop-color:#3BF2C6"/>
			<stop  offset="1" style="stop-color:#3CF4CC;stop-opacity:0.52"/>
			<stop  offset="1" style="stop-color:#3CF4CC;stop-opacity:0.5"/>
		</linearGradient>
		<path class="st20" d="M231.7,135.4c-9.3-1.2-27.9-8.4-30.3-13.9c-2.7-6.1,7.5-16.4,17.1-22.3c-1.3,1.1-2.6,2.2-3.8,3.3l0,0
			c-1.5,1.3-2.8,2.6-4.1,3.9c-1.1,1.2-2.2,2.4-3.2,3.7l0,0v0c-0.6,0.8-1.2,1.7-1.6,2.6c-0.4,0.7-0.7,1.5-1,2.3
			c-0.1,0.5-0.2,0.9-0.3,1.4c0,0.2,0,0.5,0,0.7c0,0.5,0,0.9,0.2,1.3c0.2,0.7,0.4,1.4,0.8,2c0.4,0.7,0.8,1.3,1.3,1.8
			c0.6,0.6,1.2,1.2,1.9,1.8c0.8,0.6,1.6,1.1,2.4,1.7c1.8,1.1,3.9,2.1,6.1,3c1.5,0.6,3,1.3,4.6,1.9c2,0.8,4,1.6,6,2.5
			C229,134,230.4,134.6,231.7,135.4z"/>
	</g>
</g>
</svg>
