<svg id="Ebene_1" data-name="Ebene 1" xmlns="http://www.w3.org/2000/svg" viewBox="0 0 470.28 470.28"><path d="M781,520.29c0,129.86-105.28,235.14-235.14,235.14S310.72,650.15,310.72,520.29,416,285.14,545.86,285.14,781,390.42,781,520.29Z" transform="translate(-310.72 -285.14)" fill="#34e08f"/><path d="M709.85,606.05a6.05,6.05,0,0,1-8.22,2.38l-139-76.61,70.44,140.46a6,6,0,1,1-10.81,5.42L546.86,527.32,445.18,629a6.05,6.05,0,1,1-8.56-8.56L537,520,418.52,401.51a6.05,6.05,0,0,1,8.56-8.56l118.29,118.3L676.9,379.72a6,6,0,1,1,8.56,8.55L558.18,515.54l149.29,82.29a6.06,6.06,0,0,1,2.38,8.22Z" transform="translate(-310.72 -285.14)" fill="#38a0f5"/><path d="M464.79,419.92a47.64,47.64,0,1,1-64.68-64.48.57.57,0,0,1,.79.74,47.65,47.65,0,0,0,63.22,63,.52.52,0,0,1,.67.73Zm9.8,219.69a35.87,35.87,0,1,1-48.7-48.55.43.43,0,0,1,.6.56,35.55,35.55,0,0,0-3.2,15.27,36,36,0,0,0,35.41,35.42,35.58,35.58,0,0,0,15.38-3.25.4.4,0,0,1,.51.55Z" transform="translate(-310.72 -285.14)" fill="#ea8e2a"/><path d="M470.5,397.29a47.35,47.35,0,0,1-5.82,22.82A47.65,47.65,0,0,1,400,355.47a47.66,47.66,0,0,1,70.46,41.82Zm8.38,225.28a35.74,35.74,0,0,1-4.37,17.19,35.87,35.87,0,0,1-48.67-48.67,35.86,35.86,0,0,1,53,31.48Z" transform="translate(-310.72 -285.14)" fill="#f2a13f"/><path d="M711.64,402.56A35.87,35.87,0,1,1,662.94,354a.43.43,0,0,1,.6.56,35.55,35.55,0,0,0-3.2,15.27A35.87,35.87,0,0,0,711.13,402a.4.4,0,0,1,.51.55ZM606.36,552.05a70.92,70.92,0,1,1-96.29-96,.85.85,0,0,1,1.18,1.1A70.94,70.94,0,0,0,605.35,551,.78.78,0,0,1,606.36,552.05ZM566.19,666.62a17.24,17.24,0,1,1-23.41-23.33.2.2,0,0,1,.29.26A17.25,17.25,0,0,0,566,666.36a.19.19,0,0,1,.24.26ZM698,474.22a17.24,17.24,0,1,1-23.41-23.34.2.2,0,0,1,.28.27A17.25,17.25,0,0,0,697.7,474a.2.2,0,0,1,.25.27Z" transform="translate(-310.72 -285.14)" fill="#53b1f2"/><path d="M614.85,518.38a70.57,70.57,0,0,1-8.65,34A70.93,70.93,0,0,1,510,456.12a70.93,70.93,0,0,1,104.88,62.26ZM715.93,385.52a35.74,35.74,0,0,1-4.37,17.19A35.87,35.87,0,0,1,662.89,354a35.86,35.86,0,0,1,53,31.48ZM568.26,658.44a17,17,0,0,1-2.11,8.25,17,17,0,0,1-8.26,2.11,17.25,17.25,0,0,1-15.13-25.5,17.25,17.25,0,0,1,25.5,15.14ZM700,466a17.2,17.2,0,0,1-2.1,8.26,17.25,17.25,0,0,1-23.4-23.4A17.25,17.25,0,0,1,700,466Z" transform="translate(-310.72 -285.14)" fill="#62bcef"/><path d="M668.41,706a35.87,35.87,0,1,1-48.7-48.55.43.43,0,0,1,.6.56,35.59,35.59,0,0,0-3.2,15.27,35.89,35.89,0,0,0,50.79,32.18.39.39,0,0,1,.51.54Zm69.35-87.21a39.79,39.79,0,1,1-54-53.86.48.48,0,0,1,.66.62,39.81,39.81,0,0,0,52.81,52.64A.43.43,0,0,1,737.76,618.81Z" transform="translate(-310.72 -285.14)" fill="#2bba57"/><path d="M672.7,689a35.7,35.7,0,0,1-4.37,17.18,35.87,35.87,0,0,1-48.67-48.67,35.88,35.88,0,0,1,53,31.49Zm69.82-89.08A39.65,39.65,0,0,1,737.67,619a39.8,39.8,0,0,1-54-54,39.79,39.79,0,0,1,58.85,34.93Z" transform="translate(-310.72 -285.14)" fill="#2ed265"/><path d="M502.79,373.91A16.13,16.13,0,1,1,518.92,390,16.13,16.13,0,0,1,502.79,373.91Zm89.55-24.19a16.13,16.13,0,1,0,16.13,16.13A16.13,16.13,0,0,0,592.34,349.72Zm-57.29,56.45a8.07,8.07,0,1,0,8.07,8.07A8.06,8.06,0,0,0,535.05,406.17ZM726.22,516.88a8.07,8.07,0,1,0,8.07,8.06A8.06,8.06,0,0,0,726.22,516.88ZM501.32,667.61a8.07,8.07,0,1,0,8.06,8.06A8.06,8.06,0,0,0,501.32,667.61Z" transform="translate(-310.72 -285.14)" fill="#38a0f5"/><path d="M364.05,506.39a6.05,6.05,0,0,1,6.1-6l75,.64a6,6,0,1,1-.1,12.09l-75-.63A6,6,0,0,1,364.05,506.39Zm.1,20.52a6.05,6.05,0,0,1,6.1-6l42.75.36a6.05,6.05,0,0,1-.11,12.1L370.15,533A6.05,6.05,0,0,1,364.15,526.91Z" transform="translate(-310.72 -285.14)" fill="#fff5f5"/></svg>