<svg id="Ebene_1" data-name="Ebene 1" xmlns="http://www.w3.org/2000/svg" viewBox="0 0 556.26 556.26"><circle cx="278.13" cy="278.13" r="278.13" fill="#34e08f"/><path d="M558.85,723.53a10.14,10.14,0,0,1-7,2.86H540.07v10.83l34.65,34.65a220.23,220.23,0,0,0,25.57-6.9Z" transform="translate(-251.74 -220.21)" fill="#bec8f7"/><path d="M579,743.68l-20.16-20.15a10.12,10.12,0,0,1-7,2.86H540.07v10.83l20.67,20.67S558.92,738.78,579,743.68Z" transform="translate(-251.74 -220.21)" fill="#a2b1ea"/><path d="M500.09,723.53,458.65,765a220.23,220.23,0,0,0,25.57,6.9l34.65-34.65V726.39H507.13A10.1,10.1,0,0,1,500.09,723.53Z" transform="translate(-251.74 -220.21)" fill="#bec8f7"/><path d="M518.87,726.39H507.13a10.15,10.15,0,0,1-7.05-2.86L481.62,742s16-3,16.58,15.9l20.67-20.67Z" transform="translate(-251.74 -220.21)" fill="#a2b1ea"/><path d="M518,776.19q5.7.28,11.48.29t11.48-.29v-49.8H518v49.8Z" transform="translate(-251.74 -220.21)" fill="#bec8f7"/><path d="M518,644.09h23v62H518Z" transform="translate(-251.74 -220.21)" fill="#d3dcfb"/><path d="M529.47,680.42A13.42,13.42,0,0,1,518,674v32.11h23V674A13.45,13.45,0,0,1,529.47,680.42Z" transform="translate(-251.74 -220.21)" fill="#bec8f7"/><path d="M563.29,716.23a11.48,11.48,0,0,0-11.48-11.48H507.13a11.48,11.48,0,1,0,0,23h44.68A11.47,11.47,0,0,0,563.29,716.23Z" transform="translate(-251.74 -220.21)" fill="#e9efff"/><path d="M532.65,716.23a11.48,11.48,0,0,1,11.48-11.48h-37a11.48,11.48,0,1,0,0,23h37A11.47,11.47,0,0,1,532.65,716.23Z" transform="translate(-251.74 -220.21)" fill="#d3dcfb"/><path d="M541,340.66v-18a11.48,11.48,0,0,0-23,0v18Z" transform="translate(-251.74 -220.21)" fill="#d3dcfb"/><path d="M346.09,374.94H712.85V625.37H346.09Z" transform="translate(-251.74 -220.21)" fill="#e9efff"/><path d="M346.09,374.94h86V625.37h-86Z" transform="translate(-251.74 -220.21)" fill="#d3dcfb"/><path d="M626.41,480.91h-31a7,7,0,0,1-7-7V421.49a7,7,0,0,1,7-7h31a7,7,0,0,1,0,13.95h-24V467h24a7,7,0,0,1,0,14Z" transform="translate(-251.74 -220.21)" fill="#53b1f2"/><path d="M626.41,585.8h-31a7,7,0,0,1-7-7V526.38a7,7,0,0,1,7-7h31a7,7,0,0,1,0,14h-24v38.49h24a7,7,0,0,1,0,14Z" transform="translate(-251.74 -220.21)" fill="#53b1f2"/><path d="M595.39,559.58h-33.5a7,7,0,0,1-7-7V447.71a7,7,0,0,1,7-7h33.5a7,7,0,1,1,0,14H568.87v90.93h26.52a7,7,0,0,1,0,14Z" transform="translate(-251.74 -220.21)" fill="#38a0f5"/><path d="M463.55,480.91h-31a7,7,0,1,1,0-14h24V428.46h-24a7,7,0,1,1,0-13.95h31a7,7,0,0,1,7,7v52.44A7,7,0,0,1,463.55,480.91Z" transform="translate(-251.74 -220.21)" fill="#53b1f2"/><path d="M463.55,585.8h-31a7,7,0,0,1,0-14h24V533.35h-24a7,7,0,1,1,0-14h31a7,7,0,0,1,7,7v52.44A7,7,0,0,1,463.55,585.8Z" transform="translate(-251.74 -220.21)" fill="#53b1f2"/><path d="M497.05,559.58h-33.5a7,7,0,0,1,0-14h26.52V454.69H463.55a7,7,0,1,1,0-14h33.5a7,7,0,0,1,7,7V552.6a7,7,0,0,1-7,7Z" transform="translate(-251.74 -220.21)" fill="#38a0f5"/><path d="M561.89,507.13H497.05a7,7,0,0,1,0-14h64.84a7,7,0,1,1,0,14Z" transform="translate(-251.74 -220.21)" fill="#53b1f2"/><path d="M529.47,507.13a7,7,0,0,1-7-7V451.43a7,7,0,0,1,14,0v48.72a7,7,0,0,1-7,7Z" transform="translate(-251.74 -220.21)" fill="#ffb332"/><path d="M550.18,434H508.76a7,7,0,1,1,0-13.95h41.42a7,7,0,0,1,0,13.95Z" transform="translate(-251.74 -220.21)" fill="#ffdd40"/><path d="M533.07,411.68h-7.2a7,7,0,1,1,0-13.95h7.2a7,7,0,1,1,0,13.95Z" transform="translate(-251.74 -220.21)" fill="#d3dcfb"/><path d="M716.89,646.57H342.05a11.48,11.48,0,0,1,0-23H716.89a11.48,11.48,0,0,1,0,23Z" transform="translate(-251.74 -220.21)" fill="#d3dcfb"/><path d="M421.75,635.09a11.48,11.48,0,0,1,11.48-11.48H342.05a11.48,11.48,0,0,0,0,23h91.18A11.48,11.48,0,0,1,421.75,635.09Z" transform="translate(-251.74 -220.21)" fill="#bec8f7"/><path d="M721,376.7H338a7.4,7.4,0,0,1-7.4-7.4V345.58a7.4,7.4,0,0,1,7.4-7.4H721a7.4,7.4,0,0,1,7.4,7.4V369.3A7.4,7.4,0,0,1,721,376.7Z" transform="translate(-251.74 -220.21)" fill="#d3dcfb"/><path d="M728.37,369.3V345.58a7.4,7.4,0,0,0-7.4-7.4h-77.1a7.4,7.4,0,0,0-7.4,7.4V369.3a7.41,7.41,0,0,0,7.4,7.4H721A7.4,7.4,0,0,0,728.37,369.3Z" transform="translate(-251.74 -220.21)" fill="#d3dcfb"/><path d="M424.71,369.3V345.58a7.4,7.4,0,0,1,7.4-7.4H338a7.4,7.4,0,0,0-7.4,7.4V369.3a7.4,7.4,0,0,0,7.4,7.4h94.14A7.41,7.41,0,0,1,424.71,369.3Z" transform="translate(-251.74 -220.21)" fill="#bec8f7"/><path d="M659.59,434.51h-23a13,13,0,1,1,0-26.05h23a13,13,0,1,1,0,26.05Z" transform="translate(-251.74 -220.21)" fill="#ff9e54"/><path d="M659.59,487h-23a13,13,0,1,1,0-26.06h23a13,13,0,0,1,0,26.06Z" transform="translate(-251.74 -220.21)" fill="#ffdd40"/><path d="M659.59,539.4h-23a13,13,0,1,1,0-26h23a13,13,0,1,1,0,26Z" transform="translate(-251.74 -220.21)" fill="#4aa077"/><path d="M659.59,591.85h-23a13,13,0,1,1,0-26.06h23a13,13,0,0,1,0,26.06Z" transform="translate(-251.74 -220.21)" fill="#86d8fc"/><path d="M648.12,421.48a13,13,0,0,1,12.25-13c-.26,0-.51,0-.78,0h-23a13,13,0,1,0,0,26.05h23c.27,0,.52,0,.78,0A13,13,0,0,1,648.12,421.48Z" transform="translate(-251.74 -220.21)" fill="#ff8743"/><path d="M648.12,473.93a13,13,0,0,1,12.25-13c-.26,0-.51,0-.78,0h-23a13,13,0,1,0,0,26.06h23c.27,0,.52,0,.78,0a13,13,0,0,1-12.25-13Z" transform="translate(-251.74 -220.21)" fill="#ffb332"/><path d="M648.12,526.37a13,13,0,0,1,12.25-13c-.26,0-.51,0-.78,0h-23a13,13,0,1,0,0,26h23c.27,0,.52,0,.78,0a13,13,0,0,1-12.25-13Z" transform="translate(-251.74 -220.21)" fill="#479962"/><path d="M648.12,578.82a13,13,0,0,1,12.25-13c-.26,0-.51,0-.78,0h-23a13,13,0,1,0,0,26.06h23c.27,0,.52,0,.78,0A13,13,0,0,1,648.12,578.82Z" transform="translate(-251.74 -220.21)" fill="#56c2ff"/><path d="M399.35,434.51H422.3a13,13,0,1,0,0-26.05H399.35a13,13,0,1,0,0,26.05Z" transform="translate(-251.74 -220.21)" fill="#df6b57"/><path d="M399.35,487H422.3a13,13,0,0,0,0-26.06H399.35a13,13,0,0,0,0,26.06Z" transform="translate(-251.74 -220.21)" fill="#479962"/><path d="M399.35,539.4H422.3a13,13,0,1,0,0-26H399.35a13,13,0,1,0,0,26Z" transform="translate(-251.74 -220.21)" fill="#ffb332"/><path d="M399.35,591.85H422.3a13,13,0,0,0,0-26.06H399.35a13,13,0,0,0,0,26.06Z" transform="translate(-251.74 -220.21)" fill="#df6b57"/></svg>