<svg id="Ebene_1" data-name="Ebene 1" xmlns="http://www.w3.org/2000/svg" viewBox="0 0 498.06 498.03"><path d="M786.59,504A248,248,0,0,1,726.8,665.87c-2.37,2.78-4.81,5.47-7.32,8.14-2.05,2.21-4.14,4.35-6.26,6.47A248.24,248.24,0,0,1,537.55,753c-1.15,0-2.3,0-3.43,0A243.21,243.21,0,0,1,499,750c-.48-.07-.94-.14-1.42-.25-1.8-.26-3.59-.58-5.37-.9-2.27-.41-4.53-.85-6.79-1.36C373,723.59,288.53,623.64,288.53,504c0-137.53,111.51-249,249-249S786.59,366.45,786.59,504Z" transform="translate(-288.53 -254.97)" fill="#34e08f"/><path d="M377.3,494.77a28.07,28.07,0,1,1,28.08-28.07A28.1,28.1,0,0,1,377.3,494.77Zm0-46.14a18.08,18.08,0,1,0,18.08,18.07A18.1,18.1,0,0,0,377.3,448.63Z" transform="translate(-288.53 -254.97)" fill="#6b9cb2"/><path d="M402.23,517.36H352.37a25.75,25.75,0,0,1-25.72-25.73V441.77a25.75,25.75,0,0,1,25.72-25.72h49.86A25.75,25.75,0,0,1,428,441.77v49.86A25.75,25.75,0,0,1,402.23,517.36ZM352.37,426a15.75,15.75,0,0,0-15.73,15.73v49.86a15.75,15.75,0,0,0,15.73,15.73h49.86A15.75,15.75,0,0,0,418,491.63V441.77A15.75,15.75,0,0,0,402.23,426Z" transform="translate(-288.53 -254.97)" fill="#6b9cb2"/><path d="M416.26,664.36V623H402.48a3.67,3.67,0,0,1-3.67-3.67V605.58a3.67,3.67,0,0,1,3.67-3.67h13.78V584.15a23.37,23.37,0,0,1,23.37-23.37H454.2a3.67,3.67,0,0,1,3.67,3.67v11.66a3.67,3.67,0,0,1-3.67,3.68h-9.38a7.43,7.43,0,0,0-7.43,7.42v14.7h16a3.67,3.67,0,0,1,3.64,4.15l-1.82,13.79a3.67,3.67,0,0,1-3.64,3.19H437.39v41.32" transform="translate(-288.53 -254.97)" fill="#1e7fca"/><path d="M720,366.08v302.6a27.76,27.76,0,0,1-.53,5.33c-2.05,2.21-4.14,4.35-6.26,6.47A248.24,248.24,0,0,1,537.55,753c-1.15,0-2.3,0-3.43,0A243.21,243.21,0,0,1,499,750v2.1a20.39,20.39,0,0,1-1.42-2.35,40.16,40.16,0,0,1-5.37-20.16V366.08a13.56,13.56,0,0,1,13.56-13.55H706.45A13.56,13.56,0,0,1,720,366.08Z" transform="translate(-288.53 -254.97)" fill="#fff5f5"/><path d="M547.68,352.53a13.59,13.59,0,0,0-13.56,13.55V753A243.21,243.21,0,0,1,499,750v2.1a20.39,20.39,0,0,1-1.42-2.35c-1.8-.26-3.59-.58-5.37-.9V366.08a13.56,13.56,0,0,1,13.56-13.55Z" transform="translate(-288.53 -254.97)" fill="#deecf1"/><path d="M619.69,372.41H592.55a6.78,6.78,0,1,0,0,13.56h27.14a6.78,6.78,0,1,0,0-13.56ZM719.48,674c-2.05,2.21-4.14,4.35-6.26,6.47V366.08a6.8,6.8,0,0,0-6.77-6.79H505.79a6.8,6.8,0,0,0-6.77,6.79V752.13a20.39,20.39,0,0,1-1.42-2.35c-1.8-.26-3.59-.58-5.37-.9-2.27-.41-4.53-.85-6.78-1.36V412.85a7,7,0,0,1-1.85.25,6.79,6.79,0,0,1-6.79-6.79V379.2a6.79,6.79,0,0,1,6.79-6.79,7,7,0,0,1,1.85.25v-6.58a20.37,20.37,0,0,1,20.34-20.34H706.45a20.38,20.38,0,0,1,20.35,20.34v6.58a6.8,6.8,0,0,1,8.63,6.54v27.11a6.8,6.8,0,0,1-8.63,6.54v15a6.8,6.8,0,0,1,8.63,6.51v27.14A6.8,6.8,0,0,1,726.8,468V665.87Z" transform="translate(-288.53 -254.97)" fill="#38a0f5"/><path d="M593.06,515.42H533.78a4.53,4.53,0,0,0-4.52,4.54v64.57a4.52,4.52,0,0,0,4.52,4.51h59.28a4.51,4.51,0,0,0,4.51-4.51V520A4.52,4.52,0,0,0,593.06,515.42Zm85.41,0H619.18a4.53,4.53,0,0,0-4.51,4.54v64.57a4.52,4.52,0,0,0,4.51,4.51h59.29a4.52,4.52,0,0,0,4.51-4.51V520A4.53,4.53,0,0,0,678.47,515.42ZM593.06,613.6H533.78a4.53,4.53,0,0,0-4.52,4.51v64.6a4.52,4.52,0,0,0,4.52,4.51h59.28a4.51,4.51,0,0,0,4.51-4.51v-64.6A4.52,4.52,0,0,0,593.06,613.6Zm85.41,0H619.18a4.52,4.52,0,0,0-4.51,4.51v64.6a4.52,4.52,0,0,0,4.51,4.51h59.29a4.52,4.52,0,0,0,4.51-4.51v-64.6A4.52,4.52,0,0,0,678.47,613.6ZM581.85,461.18H529.72a9,9,0,0,0,0,18.06h52.13a9,9,0,1,0,0-18.06ZM611.13,425H529.72a9,9,0,0,0,0,18.09h81.41a9,9,0,0,0,0-18.09Z" transform="translate(-288.53 -254.97)" fill="#aed3ff"/><path d="M538.77,714.36a8.88,8.88,0,0,0-4.65,1.29,9,9,0,0,0,0,15.51,8.88,8.88,0,0,0,4.65,1.29,9,9,0,0,0,0-18.09Zm27.13,0a9,9,0,1,0,9.05,9A9,9,0,0,0,565.9,714.36Zm27.14,0a9,9,0,1,0,9,9A9,9,0,0,0,593,714.36ZM664.24,416a22.62,22.62,0,1,0,22.63,22.6A22.61,22.61,0,0,0,664.24,416Z" transform="translate(-288.53 -254.97)" fill="#83bfff"/><path d="M524.77,305.38a5.35,5.35,0,0,0-6.76,2.36.25.25,0,0,0,0,.07,3.89,3.89,0,0,1-5.78,1.14,26.28,26.28,0,0,0-42.42,19.46c-8-1.52-22.44-6-33.27-19a5.52,5.52,0,0,0-3.16-2,5.26,5.26,0,0,0-5.79,3c-.4.88-9.66,21.92-1.62,42,3.63,9.06,10.12,16.39,19.35,21.86a33.66,33.66,0,0,1-19.47,3.05,5.25,5.25,0,0,0-3.54,9.65,65.22,65.22,0,0,0,100-55.14v0a30.54,30.54,0,0,0-.78-6.84v-.05a7.66,7.66,0,0,1,1.93-7.06,23.7,23.7,0,0,0,3.79-5.16A5.25,5.25,0,0,0,524.77,305.38Z" transform="translate(-288.53 -254.97)" fill="#3cf4cc"/></svg>
