<svg id="Ebene_1" data-name="Ebene 1" xmlns="http://www.w3.org/2000/svg" viewBox="0 0 506.47 506.44"><path d="M776,518.19a252.18,252.18,0,0,1-60.8,164.62c-2.41,2.83-4.89,5.57-7.44,8.28-2.09,2.25-4.22,4.42-6.37,6.58a252.41,252.41,0,0,1-178.64,73.74c-1.17,0-2.34,0-3.48,0a248.3,248.3,0,0,1-35.69-3,14.71,14.71,0,0,1-1.45-.26c-1.83-.25-3.65-.58-5.46-.91-2.31-.42-4.61-.86-6.9-1.38-114.39-24.34-200.24-126-200.24-247.65C269.53,378.33,382.92,265,522.75,265S776,378.33,776,518.19Z" transform="translate(-269.53 -264.97)" fill="#34e08f"/><path d="M372.65,523.19V553.3a19.14,19.14,0,0,0,29.46,16.12l70.16-44.91" transform="translate(-269.53 -264.97)" fill="#df6b57"/><path d="M400.1,570.54a19.13,19.13,0,0,1-27.45-17.24V523.19l16.59.22V553.3A19,19,0,0,0,400.1,570.54Z" transform="translate(-269.53 -264.97)" fill="#dd544f"/><path d="M375.37,532.12H522.72a52.52,52.52,0,0,0,52.52-52.52v-77a52.52,52.52,0,0,0-52.52-52.52H375.37a52.52,52.52,0,0,0-52.51,52.52v77A52.52,52.52,0,0,0,375.37,532.12Z" transform="translate(-269.53 -264.97)" fill="#df6b57"/><path d="M401.94,532.11H375.38a52.52,52.52,0,0,1-52.52-52.52V402.65a52.52,52.52,0,0,1,52.52-52.52h26.56a52.51,52.51,0,0,0-52.51,52.52v76.94A52.51,52.51,0,0,0,401.94,532.11Z" transform="translate(-269.53 -264.97)" fill="#dd544f"/><path d="M512.59,416.46H381.85a11.34,11.34,0,0,1-11.34-11.34v-.24a11.34,11.34,0,0,1,11.34-11.34H512.59a11.34,11.34,0,0,1,11.34,11.34v.24A11.34,11.34,0,0,1,512.59,416.46Z" transform="translate(-269.53 -264.97)" fill="#fff5f5"/><path d="M483.19,455.31H382a11.46,11.46,0,1,1,0-22.91H483.19a11.46,11.46,0,0,1,0,22.91Z" transform="translate(-269.53 -264.97)" fill="#fff5f5"/><path d="M670.38,672.13v22.94A219.37,219.37,0,0,1,641,718.38l0,0-70.16-44.9Z" transform="translate(-269.53 -264.97)" fill="#53b1f2"/><path d="M520.3,681.06H667.65a52.52,52.52,0,0,0,52.52-52.52V551.59a52.52,52.52,0,0,0-52.52-52.51H520.3a52.52,52.52,0,0,0-52.52,52.51v76.95a52.52,52.52,0,0,0,52.52,52.52Z" transform="translate(-269.53 -264.97)" fill="#53b1f2"/><path d="M546.86,681.06H520.3a52.52,52.52,0,0,1-52.52-52.52V551.59a52.51,52.51,0,0,1,52.52-52.51h26.56a52.5,52.5,0,0,0-52.5,52.51v76.95A52.5,52.5,0,0,0,546.86,681.06Z" transform="translate(-269.53 -264.97)" fill="#38a0f5"/><path d="M545.18,564.27H675.92a11.33,11.33,0,0,0,11.34-11.34v-.23a11.34,11.34,0,0,0-11.34-11.34H545.18a11.34,11.34,0,0,0-11.34,11.34v.23A11.34,11.34,0,0,0,545.18,564.27Z" transform="translate(-269.53 -264.97)" fill="#fff5f5"/><path d="M545.3,603.13H646.52a11.46,11.46,0,0,0,0-22.92H545.3a11.46,11.46,0,1,0,0,22.92Z" transform="translate(-269.53 -264.97)" fill="#fff5f5"/><path d="M681.83,469.81l-.56-2.33A16,16,0,0,1,692,448.41l24.76-7.81a16.05,16.05,0,0,1,20.43,11.54l1.39,5.78a16.05,16.05,0,0,1-12.91,19.59l-25.59,4.35A16,16,0,0,1,681.83,469.81Z" transform="translate(-269.53 -264.97)" fill="#f2a13f"/><path d="M652.64,408.41,651,406.67a16,16,0,0,1-.21-21.9l17.54-19.14a16,16,0,0,1,23.46-.22l4.1,4.3a16.07,16.07,0,0,1-1.39,23.43l-20,16.56a16,16,0,0,1-21.87-1.29Z" transform="translate(-269.53 -264.97)" fill="#f2a13f"/><path d="M593.41,375.15l-2.3-.68A16,16,0,0,1,580,355.6l5.62-25.34a16,16,0,0,1,20.2-11.92l5.71,1.68A16.06,16.06,0,0,1,622,341l-9,24.33A16,16,0,0,1,593.41,375.15Z" transform="translate(-269.53 -264.97)" fill="#f2a13f"/></svg>