<?xml version="1.0" encoding="utf-8"?>
<!-- Generator: Adobe Illustrator 25.1.0, SVG Export Plug-In . SVG Version: 6.00 Build 0)  -->
<svg version="1.1"
	 id="Layer_1" xmlns:krita="http://krita.org/namespaces/svg/krita" xmlns:sodipodi="http://sodipodi.sourceforge.net/DTD/sodipodi-0.dtd"
	 xmlns="http://www.w3.org/2000/svg" xmlns:xlink="http://www.w3.org/1999/xlink" x="0px" y="0px" viewBox="0 0 696.2 67.6"
	 style="enable-background:new 0 0 696.2 67.6;" xml:space="preserve">
<style type="text/css">
	.st0{fill:#E8ECD7;}
</style>
<g>
	<path class="st0" d="M17.3,9.7c-1.7,0-3.3,0-4.8,0s-2.7,0-3.8,0.1c-0.7,0-1.2,0.2-1.4,0.4C7.1,10.6,7,11.1,7,11.8v10.7
		c0,0.6,0.1,0.9,0.3,1.1c0.2,0.2,0.6,0.2,1,0.2h21.3c0.6,0,1,0.3,1,1c0,0.2-0.1,0.6-0.2,1c-0.1,0.4-0.3,0.9-0.6,1.3
		c-0.2,0.4-0.5,0.9-0.8,1.3c-0.3,0.4-0.6,0.7-0.9,0.9c-0.4,0.2-0.8,0.4-1.3,0.4c-0.5,0.1-1.1,0.1-1.9,0.1H8.4
		c-0.5,0-0.9,0.1-1.1,0.3S7,30.8,7,31.4v11c0,0.8,0.1,1.3,0.4,1.6s0.8,0.4,1.6,0.4c0.7,0,1.7,0,2.9,0c1.2,0,2.8,0,4.9,0
		c3.6,0,6.7,0,9.3-0.1c2.6-0.1,4.8-0.2,6.7-0.3c0.6,0,1,0.3,1,0.8c0,0.4-0.1,0.8-0.3,1.3c-0.2,0.5-0.5,1-0.8,1.6
		c-0.3,0.5-0.7,1-1.1,1.3c-0.4,0.4-0.8,0.7-1.1,0.8c-0.6,0.3-1.9,0.4-3.9,0.5c-1.9,0.1-4.9,0.1-9,0.1c-3.3,0-6.3,0-8.9,0
		c-2.6,0-4.9-0.1-7-0.2c-0.3,0-0.6-0.1-1-0.3C0.2,49.8,0,49.3,0,48.5V5.4c0-0.6,0.2-1,0.5-1.1C0.9,4.1,1.2,4,1.4,4
		c2.2-0.1,4.4-0.2,6.7-0.2C10.4,3.7,13,3.7,16,3.7c1.7,0,3.3,0,4.9,0s2.9,0,4.1,0c1.2,0,2.2,0.1,3,0.1c0.8,0.1,1.4,0.1,1.7,0.2
		c0.3,0.1,0.7,0.3,1,0.7c0.3,0.4,0.7,0.8,0.9,1.3c0.3,0.5,0.5,1,0.7,1.6c0.2,0.6,0.3,1,0.3,1.4c0,0.3-0.1,0.5-0.3,0.7
		c-0.2,0.2-0.4,0.2-0.7,0.2c-1.8-0.1-3.9-0.2-6.5-0.2C22.6,9.8,20,9.7,17.3,9.7z"/>
	<path class="st0" d="M75.4,49.5c0,0.6-0.3,0.9-0.8,0.9h-4.2c-0.8,0-1.3-0.2-1.5-0.5c-0.2-0.3-0.3-0.9-0.3-1.6V29.1
		c0-2.2-0.1-3.8-0.4-4.9c-0.3-1.1-0.7-1.9-1.2-2.6c-0.6-0.6-1.5-1.1-2.6-1.4c-1.1-0.3-2.7-0.4-4.8-0.4c-1.8,0-3.3,0-4.6,0.1
		c-1.3,0.1-2.4,0.2-3.4,0.3c-0.8,0.1-1.3,0.3-1.4,0.6c-0.2,0.3-0.3,1-0.3,2.1v26.6c0,0.6-0.3,1-0.8,1H44c-0.6,0-0.9-0.3-0.9-1V16.1
		c0-0.5,0.3-0.8,1-1c1.9-0.2,4.3-0.5,7.1-0.8c2.8-0.3,5.8-0.4,8.8-0.4c3.6,0,6.4,0.2,8.4,0.7c2,0.5,3.5,1.3,4.5,2.3
		c0.9,1,1.6,2.2,2,3.8c0.4,1.6,0.6,3.8,0.6,6.8V49.5z"/>
	<path class="st0" d="M105.6,14c2.9,0,5.5,0.1,7.8,0.2c2.3,0.2,4.1,0.3,5.4,0.4c0.6,0,0.9,0.4,0.9,1c0,5.5-0.4,9.9-1.3,13.1
		c-0.9,3.2-2,5.5-3.5,6.8c-0.6,0.5-1.2,0.9-1.9,1.3c-0.7,0.4-1.6,0.8-2.8,1.1c-1.1,0.3-2.5,0.5-4.1,0.7c-1.6,0.2-3.6,0.3-6,0.3
		c-1.8,0-3.1,0-3.9,0.1c-0.8,0.1-1.3,0.2-1.6,0.4c-0.2,0.2-0.4,0.8-0.5,1.7c-0.1,1-0.2,2-0.2,3c0,0.8,0.4,1.2,1.2,1.2
		c0.4,0,1,0,1.8,0s1.7,0,2.7,0c1,0,2.1,0,3.2-0.1c1.1,0,2.2,0,3.3,0c2.1,0,3.8,0,5.3,0.1c1.5,0.1,2.7,0.2,3.7,0.3
		c1,0.1,1.7,0.3,2.3,0.4c0.6,0.2,1.1,0.4,1.4,0.6c0.6,0.5,1.2,1.3,1.6,2.4c0.4,1.1,0.6,2.7,0.6,4.7c0,2.5-0.4,4.6-1.1,6.4
		c-0.7,1.8-1.6,3.1-2.5,3.9c-1.2,1-3,1.8-5.5,2.4c-2.4,0.6-5.9,0.9-10.3,0.9c-3.6,0-6.5-0.1-8.5-0.4c-2-0.3-3.4-0.6-4.2-1
		c-0.4-0.2-0.8-0.6-1.1-1c-0.3-0.4-0.6-0.9-0.9-1.4c-0.3-0.5-0.4-1-0.6-1.4c-0.1-0.5-0.2-0.9-0.2-1.1c0-0.3,0.1-0.6,0.3-0.7
		c0.2-0.1,0.5-0.2,0.8-0.1c1.6,0.2,3.7,0.5,6.1,0.7c2.5,0.3,5.2,0.4,8.1,0.4c3.5,0,6.1-0.1,7.8-0.4c1.7-0.3,2.8-0.7,3.3-1.1
		c0.5-0.4,0.9-1,1.2-1.8c0.3-0.8,0.4-1.8,0.4-3c0-0.9-0.1-1.6-0.4-2.2c-0.3-0.5-0.5-0.9-0.8-1.1c-0.2-0.1-0.4-0.3-0.8-0.3
		s-0.9-0.2-1.7-0.2c-0.8-0.1-1.8-0.1-3-0.1c-1.3,0-2.9,0-4.9,0c-1.2,0-2.4,0-3.7,0c-1.3,0-2.6,0-3.9,0.1c-1.3,0-2.5,0.1-3.7,0.1
		c-1.2,0-2.2,0.1-3.1,0.1c-0.3,0-0.5-0.1-0.7-0.2c-0.2-0.1-0.2-0.4-0.2-0.7c0-1.1,0-2.3,0.1-3.5s0.1-2.4,0.2-3.5
		c0.1-1.1,0.2-2.1,0.2-3c0.1-0.9,0.1-1.6,0.1-2c0-1.3-0.2-3-0.6-4.9c-0.4-1.9-0.6-4.3-0.6-7.1c0-2.4,0.2-4.4,0.7-5.9
		c0.5-1.5,1.2-2.7,2.2-3.6c0.6-0.5,1.2-0.9,2-1.3c0.8-0.4,1.8-0.7,3-1c1.2-0.3,2.7-0.4,4.4-0.6C101.2,14.1,103.2,14,105.6,14z
		 M93.7,26.7c0,1.6,0.1,3,0.4,4.2c0.3,1.2,0.5,1.9,0.7,2.2c0.2,0.2,0.8,0.4,1.7,0.4c0.9,0,1.9,0.1,3.1,0.1c1.6,0,3-0.1,4.2-0.2
		c1.2-0.1,2.2-0.3,3-0.5c0.8-0.2,1.5-0.4,2-0.7c0.5-0.3,1-0.5,1.3-0.7c0.8-0.7,1.5-1.8,2.1-3.4c0.6-1.6,0.8-3.7,0.8-6.4
		c0-0.5-0.1-0.9-0.2-1.2c-0.2-0.3-0.6-0.5-1.3-0.6c-0.9-0.1-1.9-0.2-2.8-0.2c-0.9-0.1-2.2-0.1-3.8-0.1c-2.8,0-4.9,0.1-6.4,0.4
		c-1.5,0.3-2.6,0.7-3.2,1.2c-0.5,0.6-0.9,1.3-1.2,2.1C93.8,24.1,93.7,25.3,93.7,26.7z"/>
	<path class="st0" d="M138.3,3.6c0,1.6-0.3,2.6-1,3c-0.5,0.3-1,0.5-1.7,0.6c-0.7,0.1-1.3,0.1-1.8,0.1c-1.7,0-2.9-0.2-3.5-0.7
		c-0.6-0.4-0.8-1.3-0.8-2.8c0-1.7,0.3-2.7,1-3.1c0.4-0.3,0.9-0.5,1.4-0.6c0.6-0.1,1.3-0.2,2.1-0.2s1.5,0,2.1,0.1
		c0.6,0.1,1,0.3,1.2,0.6c0.3,0.2,0.6,0.6,0.7,1.1C138.3,2.3,138.3,2.9,138.3,3.6z M137.3,49.5c0,0.6-0.3,1-0.9,1h-5.2
		c-0.4,0-0.6-0.1-0.7-0.2c-0.1-0.1-0.1-0.4-0.1-0.8V15.4c0-0.6,0.3-1,1-1h5c0.4,0,0.6,0.1,0.7,0.2c0.1,0.1,0.1,0.4,0.1,0.8V49.5z"/>
	<path class="st0" d="M182.5,49.5c0,0.6-0.3,0.9-0.8,0.9h-4.2c-0.8,0-1.3-0.2-1.5-0.5c-0.2-0.3-0.3-0.9-0.3-1.6V29.1
		c0-2.2-0.1-3.8-0.4-4.9c-0.3-1.1-0.7-1.9-1.2-2.6c-0.6-0.6-1.5-1.1-2.6-1.4c-1.1-0.3-2.7-0.4-4.8-0.4c-1.8,0-3.3,0-4.6,0.1
		c-1.3,0.1-2.4,0.2-3.4,0.3c-0.8,0.1-1.3,0.3-1.4,0.6c-0.2,0.3-0.3,1-0.3,2.1v26.6c0,0.6-0.3,1-0.8,1H151c-0.6,0-0.9-0.3-0.9-1V16.1
		c0-0.5,0.3-0.8,1-1c1.9-0.2,4.3-0.5,7.1-0.8c2.8-0.3,5.8-0.4,8.8-0.4c3.6,0,6.4,0.2,8.4,0.7c2,0.5,3.5,1.3,4.5,2.3
		c0.9,1,1.6,2.2,2,3.8c0.4,1.6,0.6,3.8,0.6,6.8V49.5z"/>
	<path class="st0" d="M193.1,32.7c0-4.1,0.5-7.4,1.4-9.9c1-2.5,2.2-4.4,3.7-5.7c1.2-1,2.8-1.8,4.8-2.4c2-0.6,4.6-0.9,7.6-0.9
		c3,0,5.4,0.2,7.1,0.7c1.8,0.5,3.2,1.2,4.2,2.1c0.6,0.6,1.1,1.2,1.6,2c0.5,0.8,0.9,1.8,1.2,3c0.3,1.2,0.6,2.7,0.8,4.4
		c0.2,1.7,0.3,3.7,0.3,6.1c0,0.8-0.1,1.4-0.3,1.8c-0.2,0.4-0.7,0.6-1.4,0.6h-21.8c-1,0-1.7,0.1-1.9,0.3c-0.3,0.2-0.4,0.5-0.4,1
		c0,1.6,0.2,3,0.6,4.2c0.4,1.2,1,2.2,1.9,2.9c0.8,0.7,2,1.3,3.6,1.6c1.6,0.3,3.6,0.5,5.9,0.5c2.3,0,4.6-0.1,6.6-0.4s3.7-0.5,4.9-0.7
		c0.2,0,0.4,0,0.7,0.2c0.2,0.2,0.3,0.4,0.3,0.7c0,0.4-0.1,0.8-0.2,1.2c-0.2,0.5-0.4,0.9-0.7,1.3c-0.3,0.4-0.6,0.9-0.9,1.3
		c-0.3,0.4-0.7,0.7-1.1,0.9c-0.7,0.4-2,0.7-3.9,1c-1.9,0.3-4.3,0.4-7.2,0.4c-3.3,0-6-0.3-8.2-0.9c-2.1-0.6-3.8-1.4-5-2.5
		c-0.7-0.6-1.3-1.3-1.8-2.1c-0.5-0.8-1-1.8-1.4-3c-0.4-1.2-0.7-2.5-0.9-4.1S193.1,34.9,193.1,32.7z M210.2,19.2
		c-3.3,0-5.7,0.6-7.2,1.9c-0.5,0.4-0.9,0.8-1.2,1.4c-0.3,0.6-0.6,1.2-0.8,1.8c-0.2,0.6-0.4,1.3-0.5,1.9c-0.1,0.6-0.2,1.2-0.2,1.8
		c0,0.5,0.1,0.8,0.4,1c0.3,0.1,0.9,0.2,1.8,0.2h12.8c0.9,0,1.6,0,2.2,0s1-0.1,1.1-0.3c0.2-0.2,0.4-0.5,0.4-0.7
		c0-0.2,0.1-0.5,0.1-0.8c0-1.5-0.2-2.8-0.5-4c-0.3-1.2-0.9-2.1-1.6-2.7c-0.6-0.5-1.4-0.8-2.5-1.1C213.3,19.3,211.9,19.2,210.2,19.2z
		"/>
	<path class="st0" d="M234.5,32.7c0-4.1,0.5-7.4,1.4-9.9c1-2.5,2.2-4.4,3.7-5.7c1.2-1,2.8-1.8,4.8-2.4c2-0.6,4.6-0.9,7.6-0.9
		c3,0,5.4,0.2,7.1,0.7c1.8,0.5,3.2,1.2,4.2,2.1c0.6,0.6,1.1,1.2,1.6,2c0.5,0.8,0.9,1.8,1.2,3c0.3,1.2,0.6,2.7,0.8,4.4
		c0.2,1.7,0.3,3.7,0.3,6.1c0,0.8-0.1,1.4-0.3,1.8c-0.2,0.4-0.7,0.6-1.4,0.6h-21.8c-1,0-1.7,0.1-1.9,0.3c-0.3,0.2-0.4,0.5-0.4,1
		c0,1.6,0.2,3,0.6,4.2c0.4,1.2,1,2.2,1.9,2.9c0.8,0.7,2,1.3,3.6,1.6c1.6,0.3,3.6,0.5,5.9,0.5c2.3,0,4.6-0.1,6.6-0.4s3.7-0.5,4.9-0.7
		c0.2,0,0.4,0,0.7,0.2c0.2,0.2,0.3,0.4,0.3,0.7c0,0.4-0.1,0.8-0.2,1.2c-0.2,0.5-0.4,0.9-0.7,1.3c-0.3,0.4-0.6,0.9-0.9,1.3
		c-0.3,0.4-0.7,0.7-1.1,0.9c-0.7,0.4-2,0.7-3.9,1c-1.9,0.3-4.3,0.4-7.2,0.4c-3.3,0-6-0.3-8.2-0.9c-2.1-0.6-3.8-1.4-5-2.5
		c-0.7-0.6-1.3-1.3-1.8-2.1c-0.5-0.8-1-1.8-1.4-3c-0.4-1.2-0.7-2.5-0.9-4.1S234.5,34.9,234.5,32.7z M251.5,19.2
		c-3.3,0-5.7,0.6-7.2,1.9c-0.5,0.4-0.9,0.8-1.2,1.4c-0.3,0.6-0.6,1.2-0.8,1.8c-0.2,0.6-0.4,1.3-0.5,1.9c-0.1,0.6-0.2,1.2-0.2,1.8
		c0,0.5,0.1,0.8,0.4,1c0.3,0.1,0.9,0.2,1.8,0.2h12.8c0.9,0,1.6,0,2.2,0s1-0.1,1.1-0.3c0.2-0.2,0.4-0.5,0.4-0.7
		c0-0.2,0.1-0.5,0.1-0.8c0-1.5-0.2-2.8-0.5-4c-0.3-1.2-0.9-2.1-1.6-2.7c-0.6-0.5-1.4-0.8-2.5-1.1C254.7,19.3,253.2,19.2,251.5,19.2z
		"/>
	<path class="st0" d="M277.7,16c0-0.6,0.3-1,1-1.1c1.8-0.2,3.9-0.4,6.1-0.7c2.3-0.2,4.4-0.3,6.4-0.3c1.9,0,3.5,0,4.9,0.1
		c1.4,0.1,2.4,0.3,3,0.6c0.7,0.4,1.3,1,1.7,2c0.5,0.9,0.7,1.9,0.7,2.8c0,0.3-0.1,0.5-0.3,0.7c-0.2,0.2-0.4,0.2-0.6,0.2
		c-0.9-0.1-2-0.2-3.3-0.2c-1.3-0.1-2.6-0.1-3.7-0.1c-1.2,0-2.4,0-3.6,0.1c-1.2,0-2.3,0.1-3.4,0.2c-0.4,0.1-0.8,0.2-1,0.3
		c-0.3,0.1-0.5,0.2-0.7,0.4c-0.2,0.2-0.3,0.4-0.3,0.8c0,0.3-0.1,0.8-0.1,1.4v26.4c0,0.6-0.3,1-1,1h-5c-0.6,0-0.9-0.3-0.9-1V16z"/>
	<path class="st0" d="M316.1,3.6c0,1.6-0.3,2.6-1,3c-0.5,0.3-1,0.5-1.7,0.6c-0.7,0.1-1.3,0.1-1.8,0.1c-1.7,0-2.9-0.2-3.5-0.7
		c-0.6-0.4-0.8-1.3-0.8-2.8c0-1.7,0.3-2.7,1-3.1c0.4-0.3,0.9-0.5,1.4-0.6c0.6-0.1,1.3-0.2,2.1-0.2s1.5,0,2.1,0.1
		c0.6,0.1,1,0.3,1.2,0.6c0.3,0.2,0.6,0.6,0.7,1.1C316,2.3,316.1,2.9,316.1,3.6z M315,49.5c0,0.6-0.3,1-0.9,1h-5.2
		c-0.4,0-0.6-0.1-0.7-0.2c-0.1-0.1-0.1-0.4-0.1-0.8V15.4c0-0.6,0.3-1,1-1h5c0.4,0,0.6,0.1,0.7,0.2c0.1,0.1,0.1,0.4,0.1,0.8V49.5z"/>
	<path class="st0" d="M360.2,49.5c0,0.6-0.3,0.9-0.8,0.9h-4.2c-0.8,0-1.3-0.2-1.5-0.5c-0.2-0.3-0.3-0.9-0.3-1.6V29.1
		c0-2.2-0.1-3.8-0.4-4.9c-0.3-1.1-0.7-1.9-1.2-2.6c-0.6-0.6-1.5-1.1-2.6-1.4c-1.1-0.3-2.7-0.4-4.8-0.4c-1.8,0-3.3,0-4.6,0.1
		c-1.3,0.1-2.4,0.2-3.4,0.3c-0.8,0.1-1.3,0.3-1.4,0.6c-0.2,0.3-0.3,1-0.3,2.1v26.6c0,0.6-0.3,1-0.8,1h-5.1c-0.6,0-0.9-0.3-0.9-1
		V16.1c0-0.5,0.3-0.8,1-1c1.9-0.2,4.3-0.5,7.1-0.8c2.8-0.3,5.8-0.4,8.8-0.4c3.6,0,6.4,0.2,8.4,0.7c2,0.5,3.5,1.3,4.5,2.3
		c0.9,1,1.6,2.2,2,3.8c0.4,1.6,0.6,3.8,0.6,6.8V49.5z"/>
	<path class="st0" d="M390.5,14c2.9,0,5.5,0.1,7.8,0.2c2.3,0.2,4.1,0.3,5.4,0.4c0.6,0,0.9,0.4,0.9,1c0,5.5-0.4,9.9-1.3,13.1
		c-0.9,3.2-2,5.5-3.5,6.8c-0.6,0.5-1.2,0.9-1.9,1.3c-0.7,0.4-1.6,0.8-2.8,1.1c-1.1,0.3-2.5,0.5-4.1,0.7c-1.6,0.2-3.6,0.3-6,0.3
		c-1.8,0-3.1,0-3.9,0.1c-0.8,0.1-1.3,0.2-1.6,0.4c-0.2,0.2-0.4,0.8-0.5,1.7c-0.1,1-0.2,2-0.2,3c0,0.8,0.4,1.2,1.2,1.2
		c0.4,0,1,0,1.8,0s1.7,0,2.7,0c1,0,2.1,0,3.2-0.1c1.1,0,2.2,0,3.3,0c2.1,0,3.8,0,5.3,0.1c1.5,0.1,2.7,0.2,3.7,0.3
		c1,0.1,1.7,0.3,2.3,0.4c0.6,0.2,1.1,0.4,1.4,0.6c0.6,0.5,1.2,1.3,1.6,2.4c0.4,1.1,0.6,2.7,0.6,4.7c0,2.5-0.4,4.6-1.1,6.4
		c-0.7,1.8-1.6,3.1-2.5,3.9c-1.2,1-3,1.8-5.5,2.4c-2.4,0.6-5.9,0.9-10.3,0.9c-3.6,0-6.5-0.1-8.5-0.4c-2-0.3-3.4-0.6-4.2-1
		c-0.4-0.2-0.8-0.6-1.1-1c-0.3-0.4-0.6-0.9-0.9-1.4c-0.3-0.5-0.4-1-0.6-1.4c-0.1-0.5-0.2-0.9-0.2-1.1c0-0.3,0.1-0.6,0.3-0.7
		c0.2-0.1,0.5-0.2,0.8-0.1c1.6,0.2,3.7,0.5,6.1,0.7c2.5,0.3,5.2,0.4,8.1,0.4c3.5,0,6.1-0.1,7.8-0.4c1.7-0.3,2.8-0.7,3.3-1.1
		c0.5-0.4,0.9-1,1.2-1.8c0.3-0.8,0.4-1.8,0.4-3c0-0.9-0.1-1.6-0.4-2.2c-0.3-0.5-0.5-0.9-0.8-1.1c-0.2-0.1-0.4-0.3-0.8-0.3
		s-0.9-0.2-1.7-0.2c-0.8-0.1-1.8-0.1-3-0.1c-1.3,0-2.9,0-4.9,0c-1.2,0-2.4,0-3.7,0c-1.3,0-2.6,0-3.9,0.1c-1.3,0-2.5,0.1-3.7,0.1
		c-1.2,0-2.2,0.1-3.1,0.1c-0.3,0-0.5-0.1-0.7-0.2c-0.2-0.1-0.2-0.4-0.2-0.7c0-1.1,0-2.3,0.1-3.5s0.1-2.4,0.2-3.5
		c0.1-1.1,0.2-2.1,0.2-3c0.1-0.9,0.1-1.6,0.1-2c0-1.3-0.2-3-0.6-4.9c-0.4-1.9-0.6-4.3-0.6-7.1c0-2.4,0.2-4.4,0.7-5.9
		c0.5-1.5,1.2-2.7,2.2-3.6c0.6-0.5,1.2-0.9,2-1.3c0.8-0.4,1.8-0.7,3-1c1.2-0.3,2.7-0.4,4.4-0.6C386,14.1,388.1,14,390.5,14z
		 M378.5,26.7c0,1.6,0.1,3,0.4,4.2c0.3,1.2,0.5,1.9,0.7,2.2c0.2,0.2,0.8,0.4,1.7,0.4c0.9,0,1.9,0.1,3.1,0.1c1.6,0,3-0.1,4.2-0.2
		c1.2-0.1,2.2-0.3,3-0.5c0.8-0.2,1.5-0.4,2-0.7c0.5-0.3,1-0.5,1.3-0.7c0.8-0.7,1.5-1.8,2.1-3.4c0.6-1.6,0.8-3.7,0.8-6.4
		c0-0.5-0.1-0.9-0.2-1.2c-0.2-0.3-0.6-0.5-1.3-0.6c-0.9-0.1-1.9-0.2-2.8-0.2c-0.9-0.1-2.2-0.1-3.8-0.1c-2.8,0-4.9,0.1-6.4,0.4
		c-1.5,0.3-2.6,0.7-3.2,1.2c-0.5,0.6-0.9,1.3-1.2,2.1C378.7,24.1,378.5,25.3,378.5,26.7z"/>
	<path class="st0" d="M463.7,35.7c0,3.2-0.4,5.7-1.1,7.7c-0.7,2-1.7,3.5-2.9,4.5c-0.6,0.5-1.2,0.9-2,1.2c-0.8,0.4-1.8,0.7-3,1
		c-1.2,0.3-2.6,0.5-4.3,0.7c-1.7,0.2-3.6,0.2-5.8,0.2c-2.9,0-5.5-0.1-7.7-0.4s-3.7-0.6-4.4-1c-0.8-0.5-1.5-1.2-2-2.3
		c-0.6-1.1-0.9-2.1-0.9-2.9c0-0.4,0.1-0.6,0.4-0.8s0.5-0.2,0.8-0.2c0.7,0.1,1.6,0.3,2.7,0.4c1.1,0.2,2.2,0.3,3.5,0.4
		c1.2,0.1,2.5,0.3,3.8,0.3c1.3,0.1,2.6,0.1,3.8,0.1c3.1,0,5.4-0.1,6.9-0.4c1.5-0.3,2.5-0.7,3-1.2c0.6-0.5,1.1-1.2,1.5-2.1
		c0.4-0.9,0.6-2.1,0.6-3.8c0-1.3-0.1-2.3-0.3-3c-0.2-0.6-0.5-1.1-0.9-1.4c-0.3-0.3-1.1-0.6-2.2-0.9c-1.2-0.3-2.5-0.7-4.1-1
		c-1.6-0.3-3.3-0.7-5.1-1.1c-1.8-0.4-3.5-0.7-5.2-1.1c-1.6-0.4-3.1-0.7-4.3-1.1c-1.3-0.4-2.2-0.7-2.7-1c-0.8-0.6-1.4-1.6-1.8-3.1
		c-0.4-1.4-0.6-3.1-0.6-5.1c0-3,0.4-5.5,1.1-7.3c0.7-1.8,1.7-3.3,2.9-4.3c1.3-1.1,3.2-2,5.7-2.7c2.5-0.6,5.7-1,9.6-1
		c5.8,0,9.5,0.4,11.1,1.1c0.4,0.2,0.7,0.5,1.1,0.9c0.3,0.4,0.7,0.8,0.9,1.3c0.3,0.5,0.5,1,0.7,1.5c0.2,0.5,0.3,1,0.3,1.4
		c0,0.3-0.1,0.6-0.3,0.8c-0.2,0.2-0.4,0.3-0.7,0.2c-1.4-0.1-3.2-0.3-5.3-0.6c-2.2-0.2-4.6-0.3-7.1-0.3c-3,0-5.4,0.2-7.1,0.6
		c-1.7,0.4-2.9,0.8-3.6,1.3c-0.7,0.6-1.2,1.4-1.6,2.5c-0.4,1.1-0.6,2.3-0.6,3.6c0,1.1,0.1,1.9,0.2,2.5c0.2,0.6,0.4,1.1,0.6,1.4
		c0.3,0.3,1,0.7,2.1,1c1.1,0.3,2.5,0.7,4.1,1.1c1.6,0.4,3.3,0.7,5.2,1.1c1.8,0.3,3.6,0.7,5.3,1.1c1.7,0.4,3.2,0.7,4.5,1.1
		c1.3,0.3,2.2,0.7,2.7,1c0.8,0.5,1.4,1.4,1.9,2.8C463.4,31.6,463.7,33.4,463.7,35.7z"/>
	<path class="st0" d="M506.2,48.4c0,0.6-0.3,0.9-1,1c-0.8,0.2-1.7,0.4-2.9,0.5c-1.1,0.2-2.4,0.3-3.7,0.4c-1.3,0.1-2.7,0.2-4.2,0.3
		c-1.5,0.1-2.9,0.1-4.4,0.1c-3.8,0-6.8-0.3-8.9-0.9c-2.1-0.6-3.7-1.4-4.8-2.5c-0.5-0.5-0.9-1.1-1.2-1.7c-0.3-0.6-0.6-1.3-0.8-2.2
		c-0.2-0.8-0.3-1.8-0.4-2.9c-0.1-1.1-0.1-2.4-0.1-3.8V15.3c0-0.6,0.3-0.9,0.8-0.9h3.9c0.9,0,1.4,0.1,1.7,0.4
		c0.3,0.3,0.4,0.8,0.4,1.6V36c0,1.9,0.1,3.4,0.4,4.4c0.3,1,0.6,1.8,1.1,2.4c0.6,0.6,1.6,1.2,2.9,1.6c1.3,0.4,3.1,0.6,5.3,0.6
		c1.3,0,2.6,0,3.8-0.1c1.2-0.1,2.2-0.2,3-0.4c0.8-0.1,1.3-0.4,1.7-0.8c0.3-0.4,0.5-1,0.5-2V15.3c0-0.6,0.3-0.9,0.9-0.9h5
		c0.6,0,1,0.3,1,1V48.4z"/>
	<path class="st0" d="M544.7,15c0.7,0.4,1.2,1.1,1.6,1.9c0.4,0.9,0.6,1.6,0.6,2.3c0,0.4-0.2,0.7-0.4,0.9c-0.3,0.3-0.6,0.3-0.8,0.2
		c-1.2-0.1-2.6-0.3-4.1-0.4c-1.5-0.1-3.2-0.2-5.2-0.2c-2.6,0-4.7,0.2-6.2,0.5c-1.5,0.3-2.6,0.8-3.3,1.5c-0.9,0.8-1.6,2-2.2,3.7
		c-0.6,1.7-0.9,3.9-0.9,6.7c0,3.2,0.2,5.5,0.7,7.1c0.4,1.6,1.1,2.7,2,3.5c1.7,1.4,4.8,2.1,9.5,2.1c2.3,0,4.3-0.1,5.8-0.3
		s2.9-0.4,4-0.5c0.2-0.1,0.5-0.1,0.7,0.1s0.3,0.4,0.3,0.7c0,0.3-0.1,0.7-0.2,1.1c-0.2,0.4-0.4,0.9-0.6,1.3c-0.2,0.5-0.5,0.9-0.8,1.3
		c-0.3,0.4-0.6,0.7-1,0.9c-0.6,0.4-1.9,0.7-3.6,0.9c-1.8,0.3-4,0.4-6.6,0.4c-3.3,0-5.9-0.3-7.9-0.9c-1.9-0.6-3.5-1.4-4.8-2.4
		c-1.3-1.1-2.4-2.9-3.2-5.2c-0.8-2.3-1.2-5.6-1.2-9.8c0-4,0.5-7.2,1.5-9.7c1-2.5,2.3-4.4,3.7-5.7c1.2-1.1,2.9-1.9,5-2.5
		c2.1-0.6,4.9-0.9,8.3-0.9C540.4,13.8,543.5,14.2,544.7,15z"/>
	<path class="st0" d="M581.4,15c0.7,0.4,1.2,1.1,1.6,1.9c0.4,0.9,0.6,1.6,0.6,2.3c0,0.4-0.2,0.7-0.4,0.9c-0.3,0.3-0.6,0.3-0.8,0.2
		c-1.2-0.1-2.6-0.3-4.1-0.4c-1.5-0.1-3.2-0.2-5.2-0.2c-2.6,0-4.7,0.2-6.2,0.5c-1.5,0.3-2.6,0.8-3.3,1.5c-0.9,0.8-1.6,2-2.2,3.7
		c-0.6,1.7-0.9,3.9-0.9,6.7c0,3.2,0.2,5.5,0.7,7.1c0.4,1.6,1.1,2.7,2,3.5c1.7,1.4,4.8,2.1,9.5,2.1c2.3,0,4.3-0.1,5.8-0.3
		s2.9-0.4,4-0.5c0.2-0.1,0.5-0.1,0.7,0.1s0.3,0.4,0.3,0.7c0,0.3-0.1,0.7-0.2,1.1c-0.2,0.4-0.4,0.9-0.6,1.3c-0.2,0.5-0.5,0.9-0.8,1.3
		c-0.3,0.4-0.6,0.7-1,0.9c-0.6,0.4-1.9,0.7-3.6,0.9c-1.8,0.3-4,0.4-6.6,0.4c-3.3,0-5.9-0.3-7.9-0.9c-1.9-0.6-3.5-1.4-4.8-2.4
		c-1.3-1.1-2.4-2.9-3.2-5.2c-0.8-2.3-1.2-5.6-1.2-9.8c0-4,0.5-7.2,1.5-9.7c1-2.5,2.3-4.4,3.7-5.7c1.2-1.1,2.9-1.9,5-2.5
		c2.1-0.6,4.9-0.9,8.3-0.9C577.1,13.8,580.1,14.2,581.4,15z"/>
	<path class="st0" d="M590.3,32.7c0-4.1,0.5-7.4,1.4-9.9c1-2.5,2.2-4.4,3.7-5.7c1.2-1,2.8-1.8,4.8-2.4c2-0.6,4.6-0.9,7.6-0.9
		c3,0,5.4,0.2,7.1,0.7c1.8,0.5,3.2,1.2,4.2,2.1c0.6,0.6,1.1,1.2,1.6,2c0.5,0.8,0.9,1.8,1.2,3c0.3,1.2,0.6,2.7,0.8,4.4
		c0.2,1.7,0.3,3.7,0.3,6.1c0,0.8-0.1,1.4-0.3,1.8c-0.2,0.4-0.7,0.6-1.4,0.6h-21.8c-1,0-1.7,0.1-1.9,0.3c-0.3,0.2-0.4,0.5-0.4,1
		c0,1.6,0.2,3,0.6,4.2c0.4,1.2,1,2.2,1.9,2.9c0.8,0.7,2,1.3,3.6,1.6c1.6,0.3,3.6,0.5,5.9,0.5c2.3,0,4.6-0.1,6.6-0.4s3.7-0.5,4.9-0.7
		c0.2,0,0.4,0,0.7,0.2c0.2,0.2,0.3,0.4,0.3,0.7c0,0.4-0.1,0.8-0.2,1.2c-0.2,0.5-0.4,0.9-0.7,1.3c-0.3,0.4-0.6,0.9-0.9,1.3
		c-0.3,0.4-0.7,0.7-1.1,0.9c-0.7,0.4-2,0.7-3.9,1c-1.9,0.3-4.3,0.4-7.2,0.4c-3.3,0-6-0.3-8.2-0.9c-2.1-0.6-3.8-1.4-5-2.5
		c-0.7-0.6-1.3-1.3-1.8-2.1c-0.5-0.8-1-1.8-1.4-3c-0.4-1.2-0.7-2.5-0.9-4.1S590.3,34.9,590.3,32.7z M607.3,19.2
		c-3.3,0-5.7,0.6-7.2,1.9c-0.5,0.4-0.9,0.8-1.2,1.4c-0.3,0.6-0.6,1.2-0.8,1.8c-0.2,0.6-0.4,1.3-0.5,1.9c-0.1,0.6-0.2,1.2-0.2,1.8
		c0,0.5,0.1,0.8,0.4,1c0.3,0.1,0.9,0.2,1.8,0.2h12.8c0.9,0,1.6,0,2.2,0s1-0.1,1.1-0.3c0.2-0.2,0.4-0.5,0.4-0.7
		c0-0.2,0.1-0.5,0.1-0.8c0-1.5-0.2-2.8-0.5-4c-0.3-1.2-0.9-2.1-1.6-2.7c-0.6-0.5-1.4-0.8-2.5-1.1C610.5,19.3,609.1,19.2,607.3,19.2z
		"/>
	<path class="st0" d="M647.3,13.9c2.6,0,4.7,0.1,6.3,0.3s2.7,0.4,3.2,0.7c0.6,0.4,1.2,1.1,1.7,2c0.5,0.9,0.7,1.8,0.7,2.4
		c0,0.3-0.1,0.6-0.3,0.7c-0.2,0.2-0.4,0.2-0.7,0.2c-1.3-0.1-2.9-0.3-4.6-0.4c-1.7-0.2-3.7-0.2-5.7-0.2c-4,0-6.6,0.4-7.8,1.2
		c-0.5,0.4-0.8,0.9-1.1,1.6c-0.3,0.7-0.4,1.6-0.4,2.5c0,1.3,0.2,2.1,0.7,2.6c0.2,0.2,0.7,0.5,1.7,0.7c0.9,0.2,2,0.5,3.2,0.8
		s2.6,0.6,4.1,0.8c1.5,0.3,2.9,0.6,4.2,0.9c1.3,0.3,2.5,0.6,3.6,0.9c1,0.3,1.8,0.6,2.2,0.9c0.5,0.4,0.9,1.1,1.3,2.1
		c0.3,1,0.5,2.4,0.5,4.1c0,2.5-0.3,4.6-1,6.1c-0.6,1.5-1.4,2.7-2.3,3.5c-0.9,0.8-2.3,1.4-4.2,1.9c-1.9,0.5-4.6,0.7-8.1,0.7
		c-3,0-5.2-0.1-6.8-0.3c-1.5-0.2-2.6-0.6-3.2-1c-0.3-0.2-0.6-0.5-0.9-0.9c-0.3-0.4-0.6-0.8-0.8-1.3c-0.2-0.4-0.4-0.9-0.6-1.3
		c-0.1-0.4-0.2-0.8-0.2-1c0-0.4,0.1-0.6,0.3-0.8c0.2-0.2,0.4-0.2,0.7-0.2c1.5,0.2,3.2,0.4,5,0.7c1.9,0.2,4,0.3,6.3,0.3
		c1.9,0,3.5-0.1,4.7-0.3c1.2-0.2,2.1-0.5,2.6-0.9c0.5-0.4,0.9-0.9,1.2-1.5c0.3-0.6,0.4-1.4,0.4-2.4c0-1.4-0.3-2.3-0.9-2.6
		c-0.3-0.3-1-0.6-1.9-0.8c-1-0.3-2.1-0.6-3.3-0.9c-1.3-0.3-2.6-0.6-4.1-0.9c-1.4-0.3-2.8-0.6-4.1-0.9c-1.3-0.3-2.4-0.6-3.4-0.9
		c-1-0.3-1.7-0.6-2-0.9c-0.5-0.4-0.9-1.1-1.2-2.2c-0.3-1.1-0.4-2.1-0.4-3.2c0-2.7,0.3-4.8,1-6.4c0.6-1.6,1.5-2.8,2.6-3.7
		c0.9-0.8,2.4-1.5,4.3-2S644.1,13.9,647.3,13.9z"/>
	<path class="st0" d="M683.6,13.9c2.6,0,4.7,0.1,6.3,0.3s2.7,0.4,3.2,0.7c0.6,0.4,1.2,1.1,1.7,2c0.5,0.9,0.7,1.8,0.7,2.4
		c0,0.3-0.1,0.6-0.3,0.7c-0.2,0.2-0.4,0.2-0.7,0.2c-1.3-0.1-2.9-0.3-4.6-0.4c-1.7-0.2-3.7-0.2-5.7-0.2c-4,0-6.6,0.4-7.8,1.2
		c-0.5,0.4-0.8,0.9-1.1,1.6c-0.3,0.7-0.4,1.6-0.4,2.5c0,1.3,0.2,2.1,0.7,2.6c0.2,0.2,0.7,0.5,1.7,0.7c0.9,0.2,2,0.5,3.2,0.8
		s2.6,0.6,4.1,0.8c1.5,0.3,2.9,0.6,4.2,0.9c1.3,0.3,2.5,0.6,3.6,0.9c1,0.3,1.8,0.6,2.2,0.9c0.5,0.4,0.9,1.1,1.3,2.1
		c0.3,1,0.5,2.4,0.5,4.1c0,2.5-0.3,4.6-1,6.1c-0.6,1.5-1.4,2.7-2.3,3.5c-0.9,0.8-2.3,1.4-4.2,1.9c-1.9,0.5-4.6,0.7-8.1,0.7
		c-3,0-5.2-0.1-6.8-0.3c-1.5-0.2-2.6-0.6-3.2-1c-0.3-0.2-0.6-0.5-0.9-0.9c-0.3-0.4-0.6-0.8-0.8-1.3c-0.2-0.4-0.4-0.9-0.6-1.3
		c-0.1-0.4-0.2-0.8-0.2-1c0-0.4,0.1-0.6,0.3-0.8c0.2-0.2,0.4-0.2,0.7-0.2c1.5,0.2,3.2,0.4,5,0.7c1.9,0.2,4,0.3,6.3,0.3
		c1.9,0,3.5-0.1,4.7-0.3c1.2-0.2,2.1-0.5,2.6-0.9c0.5-0.4,0.9-0.9,1.2-1.5c0.3-0.6,0.4-1.4,0.4-2.4c0-1.4-0.3-2.3-0.9-2.6
		c-0.3-0.3-1-0.6-1.9-0.8c-1-0.3-2.1-0.6-3.3-0.9c-1.3-0.3-2.6-0.6-4.1-0.9c-1.4-0.3-2.8-0.6-4.1-0.9c-1.3-0.3-2.4-0.6-3.4-0.9
		c-1-0.3-1.7-0.6-2-0.9c-0.5-0.4-0.9-1.1-1.2-2.2c-0.3-1.1-0.4-2.1-0.4-3.2c0-2.7,0.3-4.8,1-6.4c0.6-1.6,1.5-2.8,2.6-3.7
		c0.9-0.8,2.4-1.5,4.3-2S680.5,13.9,683.6,13.9z"/>
</g>
</svg>
