<?xml version="1.0" encoding="utf-8"?>
<!-- Generator: Adobe Illustrator 24.0.2, SVG Export Plug-In . SVG Version: 6.00 Build 0)  -->
<svg version="1.1"
	 id="Layer_1" xmlns:krita="http://krita.org/namespaces/svg/krita" xmlns:sodipodi="http://sodipodi.sourceforge.net/DTD/sodipodi-0.dtd"
	 xmlns="http://www.w3.org/2000/svg" xmlns:xlink="http://www.w3.org/1999/xlink" x="0px" y="0px" viewBox="0 0 447.9 69.1"
	 style="enable-background:new 0 0 447.9 69.1;" xml:space="preserve">
<style type="text/css">
	.st0{enable-background:new    ;}
	.st1{fill:#E8ECD7;}
</style>
<g class="st0">
	<path class="st1" d="M18.1,10.2c-1.8,0-3.5,0-5,0c-1.5,0-2.8,0-3.9,0.1c-0.8,0-1.3,0.2-1.5,0.5c-0.2,0.3-0.4,0.8-0.4,1.5v11.2
		c0,0.6,0.1,0.9,0.4,1.1c0.2,0.2,0.6,0.3,1.1,0.3h22.2c0.7,0,1,0.3,1,1c0,0.2-0.1,0.6-0.2,1c-0.1,0.5-0.3,0.9-0.6,1.4
		c-0.2,0.5-0.5,0.9-0.8,1.3c-0.3,0.4-0.6,0.7-1,0.9c-0.4,0.2-0.8,0.4-1.3,0.5c-0.5,0.1-1.2,0.1-2,0.1H8.8c-0.5,0-0.9,0.1-1.2,0.3
		c-0.2,0.2-0.4,0.7-0.4,1.3v11.5c0,0.8,0.2,1.4,0.5,1.7c0.3,0.3,0.9,0.4,1.6,0.4c0.8,0,1.8,0,3,0c1.2,0,3,0,5.1,0c3.8,0,7,0,9.7-0.1
		c2.7-0.1,5-0.2,6.9-0.3c0.7,0,1,0.3,1,0.9c0,0.4-0.1,0.9-0.4,1.4c-0.2,0.6-0.5,1.1-0.9,1.6c-0.3,0.5-0.7,1-1.2,1.4
		c-0.4,0.4-0.8,0.7-1.2,0.8c-0.7,0.3-2,0.5-4,0.5s-5.1,0.1-9.4,0.1c-3.5,0-6.6,0-9.3,0c-2.7,0-5.2-0.1-7.3-0.2c-0.3,0-0.6-0.1-1-0.4
		C0.2,52,0,51.4,0,50.6v-45c0-0.6,0.2-1,0.5-1.2c0.4-0.2,0.7-0.3,1-0.3c2.3-0.1,4.6-0.2,7-0.3c2.4-0.1,5.1-0.1,8.2-0.1
		c1.8,0,3.5,0,5.1,0c1.6,0,3,0,4.3,0c1.2,0,2.3,0.1,3.2,0.1c0.9,0.1,1.5,0.2,1.8,0.3c0.3,0.1,0.7,0.3,1,0.7c0.4,0.4,0.7,0.8,1,1.4
		c0.3,0.5,0.5,1.1,0.7,1.7c0.2,0.6,0.3,1.1,0.3,1.5c0,0.3-0.1,0.5-0.3,0.7c-0.2,0.2-0.5,0.3-0.8,0.3c-1.9-0.1-4.1-0.2-6.7-0.2
		C23.6,10.2,20.9,10.2,18.1,10.2z"/>
	<path class="st1" d="M60.3,30.5c1.3,0,2.3-0.2,2.9-0.6c0.6-0.4,1.3-1.2,1.9-2.4l4.5-9.2c0.5-1.1,1.1-1.9,1.8-2.4
		c0.7-0.5,1.8-0.8,3.3-0.8h2.4c0.8,0,1.1,0.4,0.8,1.2l-6.4,13.1c-0.5,1-0.9,1.8-1.2,2.4c-0.2,0.6-0.4,1.2-0.4,1.9c0,1,0.6,2.6,1.7,5
		l5.8,12.8c0.2,0.4,0.3,0.7,0.1,0.9c-0.2,0.2-0.5,0.3-0.9,0.3h-2.1c-1.7,0-2.9-0.3-3.6-0.8c-0.7-0.5-1.3-1.3-1.8-2.5l-4.3-9.5
		c-0.3-0.7-0.6-1.3-0.9-1.7c-0.3-0.4-0.6-0.8-0.9-1c-0.3-0.2-0.7-0.4-1.2-0.5c-0.5-0.1-1-0.1-1.8-0.1h-1.6c-1.2,0-2.1,0.2-2.8,0.5
		c-0.7,0.3-1.3,1-1.8,2.2L49,49.5c-0.5,1.1-1.1,1.9-1.8,2.4c-0.7,0.5-1.8,0.8-3.3,0.8h-2.4c-0.8,0-1.1-0.4-0.7-1.2l6.8-13.9
		c0.5-1.1,0.8-1.9,1-2.6c0.2-0.7,0.3-1.3,0.3-1.9c0-0.6-0.1-1.3-0.4-2.1c-0.2-0.7-0.6-1.7-1.2-2.8l-5.7-12.1c-0.3-0.8,0-1.2,0.8-1.2
		h2.2c1.6,0,2.8,0.2,3.5,0.6c0.7,0.4,1.3,1.3,1.9,2.6l4,8.8c0.3,0.8,0.6,1.4,0.9,1.8c0.3,0.5,0.6,0.8,0.9,1c0.3,0.2,0.7,0.4,1.2,0.5
		c0.4,0.1,1,0.1,1.7,0.1H60.3z"/>
	<path class="st1" d="M88.8,15.3c0.8-0.1,1.7-0.2,2.8-0.3c1.1-0.1,2.3-0.2,3.6-0.3c1.3-0.1,2.6-0.2,3.9-0.2c1.3,0,2.6-0.1,3.7-0.1
		c2.2,0,4.1,0.1,5.7,0.2c1.6,0.1,3,0.3,4.2,0.6c1.2,0.3,2.2,0.6,3,1c0.8,0.4,1.5,0.8,2.1,1.4c1.2,1.1,2.3,2.8,3,5.2s1.2,5.7,1.2,9.9
		c0,4.6-0.5,8.2-1.5,10.8c-1,2.6-2.1,4.6-3.4,5.8c-1.2,1.1-2.9,2-5.1,2.7c-2.2,0.7-5.1,1-8.6,1c-1.4,0-2.8,0-4.1-0.1
		c-1.3,0-2.5-0.1-3.6-0.1c-0.4,0-0.7,0-1,0.1c-0.3,0.1-0.4,0.5-0.4,1.1V67c0,0.8-0.1,1.3-0.4,1.6s-0.7,0.5-1.4,0.5h-4.2
		c-0.4,0-0.6-0.1-0.8-0.2C87.1,68.8,87,68.4,87,68V17.4c0-0.7,0.1-1.2,0.4-1.4S88.1,15.4,88.8,15.3z M114.9,33.3
		c0-3.3-0.3-5.8-0.8-7.5c-0.6-1.7-1.2-2.8-1.9-3.5c-0.8-0.7-1.9-1.2-3.2-1.4c-1.3-0.3-3.2-0.4-5.5-0.4c-1.8,0-3.3,0-4.7,0.1
		c-1.3,0.1-2.4,0.2-3.1,0.3c-0.6,0.1-1,0.3-1.3,0.6s-0.3,1-0.3,1.9v20.3c0,1,0.1,1.7,0.4,2.1c0.2,0.4,0.7,0.6,1.3,0.7
		c0.9,0.2,1.9,0.3,3,0.4s2.4,0.1,3.8,0.1c2.6,0,4.6-0.2,6-0.6c1.4-0.4,2.4-0.9,3.2-1.7c0.9-0.8,1.6-2.2,2.2-4.1
		C114.6,38.7,114.9,36.2,114.9,33.3z"/>
	<path class="st1" d="M131.2,34.1c0-4.3,0.5-7.7,1.5-10.4c1-2.6,2.3-4.6,3.9-6c1.2-1.1,2.9-1.9,5-2.5c2.1-0.6,4.8-0.9,7.9-0.9
		c3.1,0,5.6,0.3,7.5,0.8c1.8,0.5,3.3,1.2,4.4,2.2c0.6,0.6,1.2,1.3,1.7,2.1c0.5,0.8,0.9,1.9,1.3,3.1s0.6,2.8,0.9,4.6
		c0.2,1.8,0.3,3.9,0.3,6.3c0,0.9-0.1,1.5-0.4,1.9c-0.2,0.4-0.7,0.6-1.4,0.6H141c-1.1,0-1.7,0.1-2,0.3c-0.3,0.2-0.4,0.6-0.4,1.1
		c0,1.7,0.2,3.2,0.6,4.4c0.4,1.3,1,2.3,1.9,3.1c0.8,0.8,2.1,1.3,3.8,1.7c1.7,0.3,3.8,0.5,6.2,0.5c2.4,0,4.8-0.1,6.9-0.4
		c2.2-0.3,3.9-0.5,5.1-0.8c0.2,0,0.5,0,0.7,0.2c0.2,0.2,0.3,0.4,0.3,0.8c0,0.4-0.1,0.8-0.3,1.3c-0.2,0.5-0.4,0.9-0.7,1.4
		c-0.3,0.5-0.6,0.9-1,1.3c-0.4,0.4-0.7,0.7-1.1,0.9c-0.7,0.4-2.1,0.7-4,1c-2,0.3-4.5,0.4-7.5,0.4c-3.5,0-6.3-0.3-8.5-0.9
		c-2.2-0.6-4-1.5-5.2-2.6c-0.7-0.6-1.4-1.4-1.9-2.2c-0.6-0.9-1-1.9-1.4-3.1c-0.4-1.2-0.7-2.7-0.9-4.3
		C131.3,38.3,131.2,36.4,131.2,34.1z M149,20c-3.5,0-6,0.7-7.6,2c-0.5,0.4-0.9,0.9-1.2,1.5c-0.3,0.6-0.6,1.2-0.8,1.9
		c-0.2,0.7-0.4,1.3-0.5,2c-0.1,0.7-0.2,1.3-0.2,1.9c0,0.5,0.1,0.9,0.4,1c0.3,0.1,0.9,0.2,1.9,0.2h13.3c0.9,0,1.7,0,2.3,0
		c0.6,0,1-0.1,1.2-0.3c0.2-0.2,0.4-0.5,0.4-0.7c0-0.2,0.1-0.5,0.1-0.9c0-1.5-0.2-2.9-0.5-4.2c-0.4-1.3-0.9-2.2-1.7-2.8
		c-0.6-0.5-1.5-0.9-2.6-1.2C152.3,20.2,150.8,20,149,20z"/>
	<path class="st1" d="M176.3,16.7c0-0.6,0.3-1,1-1.2c1.9-0.2,4.1-0.5,6.4-0.7c2.4-0.2,4.6-0.3,6.7-0.3c2,0,3.7,0,5.1,0.1
		c1.4,0.1,2.5,0.3,3.1,0.6c0.7,0.4,1.3,1.1,1.8,2.1c0.5,1,0.7,2,0.7,2.9c0,0.3-0.1,0.5-0.3,0.7c-0.2,0.2-0.4,0.2-0.6,0.2
		c-0.9-0.1-2.1-0.2-3.5-0.3s-2.7-0.1-3.9-0.1c-1.3,0-2.5,0-3.7,0.1c-1.2,0-2.4,0.1-3.5,0.2c-0.4,0.1-0.8,0.2-1.1,0.3
		c-0.3,0.1-0.5,0.2-0.7,0.4c-0.2,0.2-0.3,0.5-0.3,0.8c0,0.3-0.1,0.8-0.1,1.4v27.6c0,0.7-0.3,1-1,1h-5.2c-0.6,0-0.9-0.3-0.9-1V16.7z"
		/>
	<path class="st1" d="M216.4,3.7c0,1.6-0.3,2.7-1,3.2c-0.5,0.3-1.1,0.5-1.8,0.6c-0.7,0.1-1.3,0.1-1.8,0.1c-1.8,0-3-0.2-3.6-0.7
		c-0.6-0.4-0.9-1.4-0.9-2.9c0-1.7,0.3-2.8,1-3.2c0.4-0.3,0.9-0.5,1.5-0.6c0.6-0.1,1.3-0.2,2.2-0.2s1.5,0,2.2,0.1
		c0.6,0.1,1.1,0.3,1.3,0.6c0.3,0.2,0.6,0.6,0.7,1.2C216.3,2.4,216.4,3,216.4,3.7z M215.3,51.6c0,0.7-0.3,1-0.9,1h-5.5
		c-0.4,0-0.6-0.1-0.7-0.2c-0.1-0.1-0.1-0.4-0.1-0.8V16.1c0-0.7,0.4-1,1.1-1h5.3c0.4,0,0.6,0.1,0.7,0.2c0.1,0.1,0.1,0.4,0.1,0.8V51.6
		z"/>
	<path class="st1" d="M257.6,14.6c4,0,7.4,0.1,10.2,0.2c2.8,0.1,5.2,0.4,7.1,0.6c1.9,0.3,3.4,0.6,4.6,1c1.2,0.4,2,0.9,2.7,1.5
		c0.6,0.5,1.1,1.1,1.4,1.8c0.4,0.6,0.7,1.4,0.9,2.3c0.2,0.9,0.3,1.9,0.4,3.2c0.1,1.2,0.1,2.7,0.1,4.4v22c0,0.7-0.3,1-0.9,1h-3.9
		c-0.9,0-1.5-0.2-1.8-0.5c-0.4-0.3-0.5-1-0.5-2.2V31.3c0-2.5-0.1-4.4-0.3-5.7c-0.2-1.2-0.7-2.2-1.3-2.9c-0.7-0.7-2.1-1.2-4.4-1.5
		c-2.3-0.3-5.6-0.5-9.8-0.5c-0.7,0-1.2,0.2-1.3,0.6c-0.2,0.4-0.3,0.9-0.3,1.7v28.5c0,0.7-0.3,1.1-0.9,1.1h-5.5
		c-0.5,0-0.7-0.4-0.7-1.1V23c0-0.8-0.1-1.4-0.3-1.7c-0.2-0.3-0.7-0.5-1.5-0.5c-3,0-5.7,0.1-8.1,0.2c-2.4,0.1-4.3,0.3-5.6,0.6
		c-0.8,0.1-1.3,0.3-1.6,0.6s-0.4,1-0.4,2.1v27.2c0,0.7-0.3,1.1-0.9,1.1h-5.4c-0.5,0-0.8-0.3-0.8-1V17.1c0-0.5,0.3-0.9,0.9-1
		c3.5-0.3,7.5-0.7,12.1-1C246.4,14.8,251.7,14.6,257.6,14.6z"/>
	<path class="st1" d="M296,34.1c0-4.3,0.5-7.7,1.5-10.4c1-2.6,2.3-4.6,3.9-6c1.2-1.1,2.9-1.9,5-2.5c2.1-0.6,4.8-0.9,7.9-0.9
		c3.1,0,5.6,0.3,7.5,0.8c1.8,0.5,3.3,1.2,4.4,2.2c0.6,0.6,1.2,1.3,1.7,2.1c0.5,0.8,0.9,1.9,1.3,3.1s0.6,2.8,0.9,4.6
		c0.2,1.8,0.3,3.9,0.3,6.3c0,0.9-0.1,1.5-0.4,1.9c-0.2,0.4-0.7,0.6-1.4,0.6h-22.8c-1.1,0-1.7,0.1-2,0.3c-0.3,0.2-0.4,0.6-0.4,1.1
		c0,1.7,0.2,3.2,0.6,4.4c0.4,1.3,1,2.3,1.9,3.1c0.8,0.8,2.1,1.3,3.8,1.7c1.7,0.3,3.8,0.5,6.2,0.5c2.4,0,4.8-0.1,6.9-0.4
		c2.2-0.3,3.9-0.5,5.1-0.8c0.2,0,0.5,0,0.7,0.2c0.2,0.2,0.3,0.4,0.3,0.8c0,0.4-0.1,0.8-0.3,1.3c-0.2,0.5-0.4,0.9-0.7,1.4
		c-0.3,0.5-0.6,0.9-1,1.3c-0.4,0.4-0.7,0.7-1.1,0.9c-0.7,0.4-2.1,0.7-4,1c-2,0.3-4.5,0.4-7.5,0.4c-3.5,0-6.3-0.3-8.5-0.9
		c-2.2-0.6-4-1.5-5.2-2.6c-0.7-0.6-1.4-1.4-1.9-2.2s-1-1.9-1.4-3.1c-0.4-1.2-0.7-2.7-0.9-4.3C296.1,38.3,296,36.4,296,34.1z
		 M313.8,20c-3.5,0-6,0.7-7.6,2c-0.5,0.4-0.9,0.9-1.2,1.5c-0.3,0.6-0.6,1.2-0.8,1.9c-0.2,0.7-0.4,1.3-0.5,2
		c-0.1,0.7-0.2,1.3-0.2,1.9c0,0.5,0.1,0.9,0.4,1c0.3,0.1,0.9,0.2,1.9,0.2h13.3c0.9,0,1.7,0,2.3,0s1-0.1,1.2-0.3
		c0.2-0.2,0.4-0.5,0.4-0.7c0-0.2,0.1-0.5,0.1-0.9c0-1.5-0.2-2.9-0.5-4.2c-0.4-1.3-0.9-2.2-1.7-2.8c-0.6-0.5-1.5-0.9-2.6-1.2
		C317.1,20.2,315.6,20,313.8,20z"/>
	<path class="st1" d="M374.9,51.7c0,0.6-0.3,0.9-0.9,0.9h-4.4c-0.8,0-1.3-0.2-1.5-0.5c-0.2-0.3-0.3-0.9-0.3-1.7V30.4
		c0-2.3-0.1-4-0.4-5.1c-0.3-1.1-0.7-2-1.2-2.7c-0.6-0.7-1.5-1.2-2.7-1.5c-1.2-0.3-2.8-0.5-5-0.5c-1.9,0-3.5,0-4.8,0.1
		c-1.3,0.1-2.5,0.2-3.6,0.3c-0.8,0.1-1.3,0.3-1.5,0.6c-0.2,0.3-0.3,1.1-0.3,2.2v27.7c0,0.7-0.3,1-0.9,1h-5.3c-0.6,0-0.9-0.3-0.9-1
		V16.8c0-0.5,0.3-0.9,1-1c2-0.2,4.5-0.5,7.5-0.8s6-0.4,9.2-0.4c3.8,0,6.7,0.3,8.7,0.8c2,0.5,3.6,1.3,4.7,2.4c1,1,1.6,2.3,2.1,4
		c0.4,1.6,0.6,4,0.6,7.1V51.7z"/>
	<path class="st1" d="M389.7,9.9c0-1,0-1.7,0.1-2.2c0.1-0.5,0.2-0.9,0.4-1.1c0.3-0.3,0.9-0.7,1.7-1c0.9-0.3,2-0.6,3.5-0.8
		c0.3,0,0.5,0,0.8,0.2c0.2,0.2,0.3,0.5,0.3,0.9v5.2c0,0.9,0,1.6,0.1,2.2c0.1,0.5,0.2,0.9,0.5,1.2c0.2,0.3,0.6,0.4,1.2,0.5
		c0.5,0.1,1.2,0.1,2.1,0.1h11.6c0.7,0,1.1,0.3,1.1,0.9c0,0.4-0.1,0.9-0.3,1.4c-0.2,0.5-0.5,0.9-0.8,1.4s-0.6,0.8-0.9,1.1
		c-0.3,0.3-0.6,0.5-0.8,0.6c-0.4,0.2-0.8,0.3-1.1,0.4c-0.4,0-0.9,0.1-1.6,0.1h-7.8c-1.4,0-2.3,0.2-2.7,0.6c-0.4,0.4-0.6,1.3-0.6,2.7
		v15.3c0,2.1,0.1,3.5,0.3,4.4c0.2,0.9,0.5,1.5,1,1.9c0.5,0.4,1.2,0.7,2.2,0.9c1,0.2,2.4,0.3,4.1,0.3c1.4,0,2.7,0,3.9-0.1
		c1.2-0.1,2.2-0.2,3.1-0.4c0.2,0,0.5,0,0.7,0.2c0.2,0.2,0.4,0.4,0.4,0.7c0,0.4-0.1,0.9-0.3,1.3c-0.2,0.5-0.4,0.9-0.7,1.3
		s-0.6,0.8-1,1.2c-0.4,0.3-0.7,0.6-1,0.8c-0.5,0.3-1.4,0.5-2.6,0.7c-1.2,0.2-3,0.3-5.3,0.3c-2.5,0-4.6-0.2-6.1-0.6s-2.7-1-3.5-1.7
		c-0.4-0.4-0.7-0.8-1-1.3c-0.3-0.5-0.5-1.1-0.6-1.8c-0.2-0.7-0.3-1.6-0.4-2.6c-0.1-1-0.1-2.3-0.1-3.9V24c0-1.5-0.2-2.4-0.6-2.7
		c-0.4-0.3-1.1-0.5-2.2-0.5h-3.1c-0.3,0-0.5-0.1-0.6-0.3c-0.1-0.2-0.2-0.3-0.2-0.5c0-0.4,0.1-0.9,0.2-1.4s0.3-1,0.5-1.4
		c0.2-0.4,0.4-0.8,0.7-1.2c0.2-0.3,0.5-0.6,0.7-0.7c0.5-0.2,1.1-0.4,1.9-0.4h1.1c1,0,1.5-0.7,1.5-2V9.9z"/>
	<path class="st1" d="M434.8,14.5c2.7,0,4.9,0.1,6.6,0.3c1.7,0.2,2.8,0.5,3.3,0.8c0.7,0.4,1.2,1.1,1.7,2.1c0.5,1,0.7,1.8,0.7,2.6
		c0,0.3-0.1,0.6-0.3,0.8c-0.2,0.2-0.4,0.2-0.7,0.2c-1.4-0.1-3-0.3-4.8-0.5c-1.8-0.2-3.8-0.3-6-0.3c-4.2,0-6.9,0.4-8.1,1.2
		c-0.5,0.4-0.9,0.9-1.2,1.7c-0.3,0.7-0.5,1.6-0.5,2.6c0,1.3,0.2,2.2,0.7,2.7c0.2,0.2,0.8,0.5,1.7,0.7c1,0.2,2.1,0.5,3.4,0.8
		s2.7,0.6,4.2,0.9c1.5,0.3,3,0.6,4.4,0.9c1.4,0.3,2.6,0.6,3.7,0.9c1.1,0.3,1.8,0.6,2.3,1c0.5,0.4,1,1.2,1.3,2.2
		c0.4,1.1,0.5,2.5,0.5,4.2c0,2.6-0.3,4.8-1,6.4c-0.7,1.6-1.5,2.8-2.4,3.6c-1,0.8-2.4,1.5-4.4,2c-2,0.5-4.8,0.8-8.5,0.8
		c-3.1,0-5.5-0.1-7.1-0.4c-1.6-0.2-2.7-0.6-3.4-1c-0.3-0.2-0.6-0.5-0.9-0.9c-0.3-0.4-0.6-0.9-0.8-1.3c-0.2-0.5-0.4-0.9-0.6-1.3
		c-0.1-0.4-0.2-0.8-0.2-1.1c0-0.4,0.1-0.7,0.3-0.8c0.2-0.2,0.4-0.2,0.7-0.2c1.5,0.2,3.3,0.5,5.3,0.7c2,0.2,4.2,0.3,6.6,0.3
		c2,0,3.6-0.1,4.9-0.3c1.3-0.2,2.2-0.5,2.7-0.9c0.5-0.4,0.9-0.9,1.3-1.6c0.3-0.7,0.5-1.5,0.5-2.5c0-1.4-0.3-2.4-0.9-2.7
		c-0.3-0.3-1-0.6-2-0.9s-2.2-0.6-3.5-0.9c-1.3-0.3-2.7-0.6-4.2-0.9c-1.5-0.3-2.9-0.6-4.3-0.9c-1.3-0.3-2.5-0.6-3.6-0.9
		c-1-0.3-1.7-0.6-2.1-1c-0.5-0.4-0.9-1.1-1.2-2.3c-0.3-1.1-0.4-2.2-0.4-3.3c0-2.8,0.3-5,1-6.7c0.7-1.7,1.6-2.9,2.7-3.9
		c1-0.9,2.5-1.5,4.5-2.1C428.8,14.8,431.5,14.5,434.8,14.5z"/>
</g>
</svg>
