<?xml version="1.0" encoding="utf-8"?>
<!-- Generator: Adobe Illustrator 24.0.2, SVG Export Plug-In . SVG Version: 6.00 Build 0)  -->
<svg version="1.1"
	 id="Layer_1" xmlns:krita="http://krita.org/namespaces/svg/krita" xmlns:sodipodi="http://sodipodi.sourceforge.net/DTD/sodipodi-0.dtd"
	 xmlns="http://www.w3.org/2000/svg" xmlns:xlink="http://www.w3.org/1999/xlink" x="0px" y="0px" viewBox="0 0 346.7 54.2"
	 style="enable-background:new 0 0 346.7 54.2;" xml:space="preserve">
<style type="text/css">
	.st0{enable-background:new    ;}
	.st1{fill:#E8ECD7;}
</style>
<g class="st0">
	<path class="st1" d="M39.4,52.7c0,0.7-0.3,1-0.9,1h-3.9c-1,0-1.6-0.2-1.9-0.5c-0.3-0.3-0.5-1-0.5-2.1V35.9c0-0.8,0-1.5-0.1-1.9
		c-0.1-0.5-0.2-0.8-0.4-1.1c-0.2-0.2-0.5-0.4-0.9-0.5c-0.4-0.1-0.9-0.1-1.6-0.1H10.4c-0.7,0-1.3,0-1.7,0.1c-0.4,0.1-0.7,0.2-1,0.5
		c-0.2,0.2-0.4,0.6-0.5,1.1c-0.1,0.5-0.1,1.1-0.1,1.9V51c0,1.2-0.2,1.9-0.5,2.2c-0.4,0.3-1,0.5-2.1,0.5H0.9c-0.4,0-0.6-0.1-0.7-0.3
		C0,53.2,0,52.9,0,52.6V6c0-0.7,0.3-1,0.9-1h3.8c1,0,1.6,0.2,2,0.5C7,5.9,7.2,6.6,7.2,7.8v14.3c0,0.9,0,1.5,0.1,2.1
		c0.1,0.5,0.2,0.9,0.5,1.1c0.2,0.2,0.6,0.4,1,0.4c0.4,0,1,0.1,1.7,0.1h18.8c1.2,0,2.1-0.2,2.4-0.6c0.4-0.4,0.6-1.3,0.6-2.7V7.7
		c0-1.1,0.2-1.8,0.5-2.2c0.3-0.3,1-0.5,2-0.5h3.8c0.4,0,0.6,0.1,0.7,0.3c0.1,0.2,0.1,0.4,0.1,0.8V52.7z"/>
	<path class="st1" d="M83.4,52.1c0,0.6-0.4,1-1.1,1.1c-1.7,0.2-3.8,0.5-6.2,0.7c-2.4,0.2-5.1,0.3-8,0.3c-2.2,0-4.1-0.1-5.7-0.2
		c-1.6-0.1-2.9-0.3-4-0.5c-1.1-0.2-2-0.5-2.7-0.9c-0.7-0.3-1.3-0.7-1.8-1.2c-0.8-0.8-1.5-1.8-1.9-3.2c-0.5-1.4-0.7-3.2-0.7-5.3
		c0-2.1,0.2-3.9,0.7-5.5c0.5-1.6,1.1-2.7,1.9-3.3c0.5-0.3,1.4-0.6,2.7-0.8c1.3-0.3,3-0.5,4.9-0.7c1.9-0.2,4.1-0.4,6.4-0.6
		c2.4-0.2,4.8-0.3,7.3-0.4c0.9,0,1.3-0.5,1.3-1.4c0-2-0.1-3.5-0.4-4.5c-0.3-1-0.7-1.8-1.3-2.3c-0.7-0.6-1.7-1-3-1.2
		c-1.3-0.2-3.3-0.3-5.9-0.3c-1,0-2.1,0-3.1,0.1c-1.1,0-2.1,0.1-3.2,0.2c-1,0.1-2,0.2-2.9,0.3c-0.9,0.1-1.7,0.3-2.4,0.4
		c-0.2,0-0.5,0-0.7-0.1c-0.2-0.1-0.4-0.4-0.4-0.7c0-0.3,0.1-0.7,0.3-1.2c0.2-0.5,0.4-0.9,0.6-1.4c0.3-0.5,0.6-0.9,0.9-1.3
		c0.3-0.4,0.7-0.7,1-0.9c0.9-0.5,2.3-0.9,4.4-1.2c2.1-0.3,4.6-0.4,7.6-0.4c3.6,0,6.4,0.2,8.4,0.7c1.9,0.5,3.3,1.2,4.2,2.1
		c0.4,0.5,0.8,1,1.2,1.7c0.4,0.6,0.7,1.5,0.9,2.5c0.3,1,0.5,2.3,0.6,3.9c0.1,1.6,0.2,3.6,0.2,5.9V52.1z M76.4,38.4
		c0-0.7-0.1-1.1-0.4-1.2c-0.3-0.1-0.6-0.2-1-0.2c-1.3,0-2.9,0-4.5,0.1c-1.7,0.1-3.3,0.2-4.8,0.3c-1.5,0.1-2.9,0.3-4,0.5
		c-1.2,0.2-1.9,0.4-2.2,0.6c-0.4,0.3-0.7,0.7-0.9,1.4c-0.2,0.6-0.3,1.5-0.3,2.7c0,2.3,0.5,3.7,1.5,4.5c0.5,0.5,1.4,0.8,2.6,1.1
		c1.2,0.2,3,0.4,5.3,0.4c2.2,0,4-0.1,5.4-0.3c1.4-0.2,2.3-0.4,2.6-0.7c0.2-0.2,0.4-0.6,0.6-1c0.1-0.4,0.2-1.2,0.2-2.4V38.4z"/>
	<path class="st1" d="M96.3,17.8c0-0.6,0.3-1,1-1.2c1.9-0.2,4.1-0.5,6.4-0.7c2.4-0.2,4.6-0.3,6.7-0.3c2,0,3.7,0,5.1,0.1
		c1.4,0.1,2.5,0.3,3.1,0.6c0.7,0.4,1.3,1.1,1.8,2.1c0.5,1,0.7,2,0.7,2.9c0,0.3-0.1,0.5-0.3,0.7c-0.2,0.2-0.4,0.2-0.6,0.2
		c-0.9-0.1-2.1-0.2-3.5-0.3s-2.7-0.1-3.9-0.1c-1.2,0-2.5,0-3.7,0.1c-1.2,0-2.4,0.1-3.5,0.2c-0.4,0.1-0.8,0.2-1.1,0.3
		c-0.3,0.1-0.5,0.2-0.7,0.4c-0.2,0.2-0.3,0.5-0.3,0.8c0,0.3-0.1,0.8-0.1,1.4v27.6c0,0.7-0.3,1-1,1h-5.2c-0.6,0-0.9-0.3-0.9-1V17.8z"
		/>
	<path class="st1" d="M159.3,53.1c-1.8,0.3-3.7,0.5-5.7,0.7c-2,0.2-4.6,0.3-7.6,0.3c-2.3,0-4.2-0.1-5.8-0.2c-1.6-0.1-3-0.4-4.2-0.6
		c-1.2-0.3-2.2-0.6-3-1c-0.8-0.4-1.5-0.9-2.2-1.4c-1.2-1.1-2.3-2.8-3.3-5.1c-0.9-2.4-1.4-5.7-1.4-9.8c0-2.4,0.1-4.5,0.4-6.3
		c0.3-1.8,0.7-3.3,1.1-4.6c0.5-1.3,1-2.4,1.6-3.3c0.6-0.9,1.2-1.6,1.8-2.2c1.2-1.2,2.9-2.1,5.2-2.8c2.3-0.7,5.1-1,8.6-1
		c1.4,0,2.8,0,4.1,0c1.3,0,2.5,0.1,3.6,0.2c0.4,0,0.8,0,1.1-0.1c0.3-0.1,0.4-0.5,0.4-1V2.2c0-0.8,0.1-1.4,0.3-1.7
		c0.2-0.3,0.7-0.5,1.3-0.5h4.5c0.2,0,0.4,0.1,0.6,0.2c0.2,0.1,0.3,0.5,0.3,1v49.9c0,0.7-0.1,1.2-0.4,1.5
		C160.4,52.9,160,53,159.3,53.1z M133.1,35.2c0,3.4,0.3,5.9,0.9,7.5c0.6,1.6,1.3,2.8,2.1,3.4c0.7,0.7,1.8,1.2,3.3,1.5
		c1.5,0.3,3.5,0.5,6.2,0.5c1.7,0,3,0,4-0.1c1-0.1,1.9-0.2,2.7-0.3c0.7-0.1,1.1-0.3,1.3-0.7c0.2-0.4,0.3-1.1,0.3-2.1V24.8
		c0-1-0.1-1.7-0.4-2.1c-0.2-0.4-0.7-0.6-1.4-0.7c-0.9-0.1-1.9-0.2-3-0.3c-1.1-0.1-2.4-0.1-3.7-0.1c-2.5,0-4.5,0.2-5.9,0.5
		c-1.4,0.4-2.6,0.9-3.4,1.7c-0.9,0.8-1.6,2.2-2.2,4.1C133.4,29.8,133.1,32.3,133.1,35.2z"/>
	<path class="st1" d="M183,45.7c0.2,0.7,0.4,1.3,0.8,1.6c0.3,0.4,0.9,0.5,1.8,0.5c0.8,0,1.4-0.2,1.7-0.5c0.3-0.3,0.6-0.9,0.8-1.6
		l4.2-21.4c0.4-1.7,0.8-2.9,1.1-3.7c0.4-0.8,0.8-1.4,1.3-1.8c0.5-0.5,1.3-0.9,2.3-1.2s2.3-0.4,3.7-0.4c1.4,0,2.7,0.1,3.7,0.3
		c1.1,0.2,1.8,0.6,2.4,1.2c0.5,0.5,1,1.2,1.3,2c0.3,0.9,0.6,2.1,0.9,3.6l3.8,21.1c0.1,1,0.4,1.6,0.7,1.9c0.3,0.3,0.9,0.5,1.6,0.5
		c0.9,0,1.5-0.2,1.8-0.5c0.3-0.4,0.6-1.1,0.8-2.2l4.9-25.2c0.3-1.4,0.7-2.4,1.3-3c0.6-0.6,1.6-0.9,3-0.9h2.1c0.8,0,1.2,0.4,1,1.2
		l-6,29.2c-0.4,1.7-0.8,3.1-1.2,4c-0.4,0.9-0.9,1.7-1.5,2.2c-0.5,0.4-1.2,0.7-2.1,1c-0.9,0.3-2.2,0.4-4.1,0.4
		c-1.7,0-3.1-0.1-4.1-0.4c-1-0.3-1.7-0.6-2.2-1c-0.6-0.4-1-1.1-1.4-1.9c-0.3-0.8-0.7-2.1-1-4l-3.8-21.1c-0.1-1-0.3-1.6-0.6-1.9
		s-0.7-0.4-1.3-0.4c-0.7,0-1.2,0.2-1.5,0.5c-0.3,0.3-0.5,1-0.7,1.9L194,46.7c-0.4,2-0.8,3.4-1.3,4.2c-0.5,0.8-0.9,1.5-1.5,1.8
		c-0.5,0.4-1.2,0.7-2.2,1c-1,0.3-2.4,0.4-4,0.4c-1.9,0-3.3-0.1-4.2-0.4c-0.9-0.3-1.6-0.6-2.2-1c-0.4-0.4-0.8-1-1.2-1.8
		c-0.4-0.8-0.7-2-1.1-3.6l-5.9-30.1c-0.2-0.8,0.1-1.2,0.9-1.2h2.4c1.4,0,2.4,0.3,3,0.8c0.6,0.5,1.1,1.6,1.4,3.3L183,45.7z"/>
	<path class="st1" d="M269.6,52.1c0,0.6-0.4,1-1.1,1.1c-1.7,0.2-3.8,0.5-6.2,0.7c-2.4,0.2-5.1,0.3-8,0.3c-2.2,0-4.1-0.1-5.7-0.2
		c-1.6-0.1-2.9-0.3-4-0.5c-1.1-0.2-2-0.5-2.7-0.9c-0.7-0.3-1.3-0.7-1.8-1.2c-0.8-0.8-1.5-1.8-1.9-3.2c-0.5-1.4-0.7-3.2-0.7-5.3
		c0-2.1,0.2-3.9,0.7-5.5s1.1-2.7,1.9-3.3c0.5-0.3,1.4-0.6,2.7-0.8c1.3-0.3,3-0.5,4.9-0.7s4.1-0.4,6.4-0.6c2.4-0.2,4.8-0.3,7.3-0.4
		c0.9,0,1.3-0.5,1.3-1.4c0-2-0.1-3.5-0.4-4.5c-0.3-1-0.7-1.8-1.3-2.3c-0.7-0.6-1.7-1-3-1.2c-1.3-0.2-3.3-0.3-5.9-0.3
		c-1,0-2.1,0-3.1,0.1c-1.1,0-2.1,0.1-3.2,0.2c-1,0.1-2,0.2-2.9,0.3c-0.9,0.1-1.7,0.3-2.4,0.4c-0.2,0-0.5,0-0.7-0.1
		c-0.2-0.1-0.4-0.4-0.4-0.7c0-0.3,0.1-0.7,0.3-1.2c0.2-0.5,0.4-0.9,0.6-1.4c0.3-0.5,0.6-0.9,0.9-1.3c0.3-0.4,0.7-0.7,1-0.9
		c0.9-0.5,2.3-0.9,4.4-1.2c2.1-0.3,4.6-0.4,7.6-0.4c3.6,0,6.4,0.2,8.4,0.7c1.9,0.5,3.3,1.2,4.2,2.1c0.4,0.5,0.8,1,1.2,1.7
		c0.4,0.6,0.7,1.5,0.9,2.5c0.3,1,0.5,2.3,0.6,3.9c0.1,1.6,0.2,3.6,0.2,5.9V52.1z M262.6,38.4c0-0.7-0.1-1.1-0.4-1.2
		c-0.3-0.1-0.6-0.2-1-0.2c-1.3,0-2.9,0-4.5,0.1c-1.7,0.1-3.3,0.2-4.8,0.3c-1.5,0.1-2.9,0.3-4,0.5c-1.2,0.2-1.9,0.4-2.2,0.6
		c-0.4,0.3-0.7,0.7-0.9,1.4c-0.2,0.6-0.3,1.5-0.3,2.7c0,2.3,0.5,3.7,1.5,4.5c0.5,0.5,1.4,0.8,2.6,1.1c1.2,0.2,3,0.4,5.3,0.4
		c2.2,0,4-0.1,5.4-0.3c1.4-0.2,2.3-0.4,2.6-0.7c0.2-0.2,0.4-0.6,0.6-1c0.1-0.4,0.2-1.2,0.2-2.4V38.4z"/>
	<path class="st1" d="M282.5,17.8c0-0.6,0.3-1,1-1.2c1.9-0.2,4.1-0.5,6.4-0.7c2.4-0.2,4.6-0.3,6.7-0.3c2,0,3.7,0,5.1,0.1
		c1.4,0.1,2.5,0.3,3.1,0.6c0.7,0.4,1.3,1.1,1.8,2.1c0.5,1,0.7,2,0.7,2.9c0,0.3-0.1,0.5-0.3,0.7c-0.2,0.2-0.4,0.2-0.6,0.2
		c-0.9-0.1-2.1-0.2-3.5-0.3s-2.7-0.1-3.9-0.1c-1.2,0-2.5,0-3.7,0.1c-1.2,0-2.4,0.1-3.5,0.2c-0.4,0.1-0.8,0.2-1.1,0.3
		c-0.3,0.1-0.5,0.2-0.7,0.4c-0.2,0.2-0.3,0.5-0.3,0.8c0,0.3-0.1,0.8-0.1,1.4v27.6c0,0.7-0.3,1-1,1h-5.2c-0.6,0-0.9-0.3-0.9-1V17.8z"
		/>
	<path class="st1" d="M312.3,35.2c0-4.3,0.5-7.7,1.5-10.4c1-2.6,2.3-4.6,3.9-6c1.2-1.1,2.9-1.9,5-2.5c2.1-0.6,4.8-0.9,7.9-0.9
		c3.1,0,5.6,0.3,7.5,0.8c1.8,0.5,3.3,1.2,4.4,2.2c0.6,0.6,1.2,1.3,1.7,2.1c0.5,0.8,0.9,1.9,1.3,3.1c0.4,1.3,0.6,2.8,0.9,4.6
		c0.2,1.8,0.3,3.9,0.3,6.3c0,0.9-0.1,1.5-0.4,1.9c-0.2,0.4-0.7,0.6-1.4,0.6h-22.8c-1.1,0-1.7,0.1-2,0.3c-0.3,0.2-0.4,0.6-0.4,1.1
		c0,1.7,0.2,3.2,0.6,4.4c0.4,1.3,1,2.3,1.9,3.1c0.8,0.8,2.1,1.3,3.8,1.7c1.7,0.3,3.8,0.5,6.2,0.5c2.4,0,4.8-0.1,6.9-0.4
		c2.2-0.3,3.9-0.5,5.1-0.8c0.2,0,0.5,0,0.7,0.2c0.2,0.2,0.3,0.4,0.3,0.8c0,0.4-0.1,0.8-0.3,1.3c-0.2,0.5-0.4,0.9-0.7,1.4
		c-0.3,0.5-0.6,0.9-1,1.3c-0.4,0.4-0.7,0.7-1.1,0.9c-0.7,0.4-2.1,0.7-4,1c-2,0.3-4.5,0.4-7.5,0.4c-3.5,0-6.3-0.3-8.5-0.9
		c-2.2-0.6-4-1.5-5.2-2.6c-0.7-0.6-1.4-1.4-1.9-2.2s-1-1.9-1.4-3.1c-0.4-1.2-0.7-2.7-0.9-4.3S312.3,37.5,312.3,35.2z M330,21.1
		c-3.5,0-6,0.7-7.6,2c-0.5,0.4-0.9,0.9-1.2,1.5c-0.3,0.6-0.6,1.2-0.8,1.9c-0.2,0.7-0.4,1.3-0.5,2c-0.1,0.7-0.2,1.3-0.2,1.9
		c0,0.5,0.1,0.9,0.4,1c0.3,0.1,0.9,0.2,1.9,0.2h13.3c0.9,0,1.7,0,2.3,0c0.6,0,1-0.1,1.2-0.3c0.2-0.2,0.4-0.5,0.4-0.7
		c0-0.2,0.1-0.5,0.1-0.9c0-1.5-0.2-2.9-0.5-4.2c-0.4-1.3-0.9-2.2-1.7-2.8c-0.6-0.5-1.5-0.9-2.6-1.2C333.3,21.2,331.9,21.1,330,21.1z
		"/>
</g>
</svg>
