<?xml version="1.0" encoding="utf-8"?>
<!-- Generator: Adobe Illustrator 24.0.2, SVG Export Plug-In . SVG Version: 6.00 Build 0)  -->
<svg version="1.1"
	 id="Layer_1" xmlns:krita="http://krita.org/namespaces/svg/krita" xmlns:sodipodi="http://sodipodi.sourceforge.net/DTD/sodipodi-0.dtd"
	 xmlns="http://www.w3.org/2000/svg" xmlns:xlink="http://www.w3.org/1999/xlink" x="0px" y="0px" viewBox="0 0 567.9 70.1"
	 style="enable-background:new 0 0 567.9 70.1;" xml:space="preserve">
<style type="text/css">
	.st0{enable-background:new    ;}
	.st1{fill:#E8ECD7;}
</style>
<g class="st0">
	<path class="st1" d="M7.2,51.5c0,1.4-0.7,2.1-2.1,2.1H0.9c-0.3,0-0.6-0.1-0.7-0.3C0.1,53,0,52.8,0,52.5V6.9c0-1.3,0.6-2,1.9-2h4.5
		C6.7,4.9,7,5,7.1,5.2C7.2,5.4,7.2,5.6,7.2,6V51.5z"/>
	<path class="st1" d="M49.9,15.6c4,0,7.4,0.1,10.2,0.2c2.8,0.1,5.2,0.4,7.1,0.6c1.9,0.3,3.4,0.6,4.6,1c1.2,0.4,2,0.9,2.7,1.5
		c0.6,0.5,1.1,1.1,1.4,1.8c0.4,0.6,0.7,1.4,0.9,2.3c0.2,0.9,0.3,1.9,0.4,3.2c0.1,1.2,0.1,2.7,0.1,4.4v22c0,0.7-0.3,1-0.9,1h-3.9
		c-0.9,0-1.5-0.2-1.8-0.5c-0.4-0.3-0.5-1-0.5-2.2V32.3c0-2.5-0.1-4.4-0.3-5.7c-0.2-1.2-0.7-2.2-1.3-2.9c-0.7-0.7-2.1-1.2-4.4-1.5
		c-2.3-0.3-5.6-0.5-9.8-0.5c-0.7,0-1.2,0.2-1.3,0.6c-0.2,0.4-0.3,0.9-0.3,1.7v28.5c0,0.7-0.3,1.1-0.9,1.1h-5.5
		c-0.5,0-0.7-0.4-0.7-1.1V24c0-0.8-0.1-1.4-0.3-1.7c-0.2-0.3-0.7-0.5-1.5-0.5c-3,0-5.7,0.1-8.1,0.2c-2.4,0.1-4.3,0.3-5.6,0.6
		c-0.8,0.1-1.3,0.3-1.6,0.6c-0.2,0.3-0.4,1-0.4,2.1v27.2c0,0.7-0.3,1.1-0.9,1.1h-5.4c-0.5,0-0.8-0.3-0.8-1V18.1c0-0.5,0.3-0.9,0.9-1
		c3.5-0.3,7.5-0.7,12.1-1C38.7,15.7,43.9,15.6,49.9,15.6z"/>
	<path class="st1" d="M92,16.3c0.8-0.1,1.7-0.2,2.8-0.3c1.1-0.1,2.3-0.2,3.6-0.3c1.3-0.1,2.6-0.2,3.9-0.2c1.3,0,2.6-0.1,3.7-0.1
		c2.2,0,4.1,0.1,5.7,0.2c1.6,0.1,3,0.3,4.2,0.6c1.2,0.3,2.2,0.6,3,1c0.8,0.4,1.5,0.8,2.1,1.4c1.2,1.1,2.3,2.8,3,5.2s1.2,5.7,1.2,9.9
		c0,4.6-0.5,8.2-1.5,10.8c-1,2.6-2.1,4.6-3.4,5.8c-1.2,1.1-2.9,2-5.1,2.7c-2.2,0.7-5.1,1-8.6,1c-1.4,0-2.8,0-4.1-0.1
		c-1.3,0-2.5-0.1-3.6-0.1c-0.4,0-0.7,0-1,0.1c-0.3,0.1-0.4,0.5-0.4,1.1V68c0,0.8-0.1,1.3-0.4,1.6c-0.2,0.3-0.7,0.5-1.4,0.5h-4.2
		c-0.4,0-0.6-0.1-0.8-0.2c-0.1-0.1-0.2-0.5-0.2-0.9V18.3c0-0.7,0.1-1.2,0.4-1.4C90.9,16.6,91.3,16.4,92,16.3z M118.2,34.2
		c0-3.3-0.3-5.8-0.8-7.5c-0.6-1.7-1.2-2.8-1.9-3.5c-0.8-0.7-1.9-1.2-3.2-1.4c-1.3-0.3-3.2-0.4-5.5-0.4c-1.8,0-3.3,0-4.7,0.1
		c-1.3,0.1-2.4,0.2-3.1,0.3c-0.6,0.1-1,0.3-1.3,0.6c-0.2,0.3-0.3,1-0.3,1.9v20.3c0,1,0.1,1.7,0.4,2.1c0.2,0.4,0.7,0.6,1.3,0.7
		c0.9,0.2,1.9,0.3,3,0.4c1.2,0,2.4,0.1,3.8,0.1c2.6,0,4.6-0.2,6-0.6c1.4-0.4,2.4-0.9,3.2-1.7c0.9-0.8,1.6-2.2,2.2-4.1
		C117.8,39.6,118.2,37.2,118.2,34.2z"/>
	<path class="st1" d="M143.6,52.6c0,0.6-0.3,0.9-0.9,0.9H140c-1.3,0-2.2-0.2-2.7-0.6c-0.5-0.4-0.8-1.3-0.8-2.6V1c0-0.7,0.3-1,0.9-1
		h5.5c0.4,0,0.6,0.4,0.6,1.1V52.6z"/>
	<path class="st1" d="M154.9,35.1c0-4.3,0.5-7.7,1.5-10.4c1-2.6,2.3-4.6,3.9-6c1.2-1.1,2.9-1.9,5-2.5c2.1-0.6,4.8-0.9,7.9-0.9
		c3.1,0,5.6,0.3,7.5,0.8c1.8,0.5,3.3,1.2,4.4,2.2c0.6,0.6,1.2,1.3,1.7,2.1c0.5,0.8,0.9,1.9,1.3,3.1c0.4,1.3,0.6,2.8,0.9,4.6
		c0.2,1.8,0.3,3.9,0.3,6.3c0,0.9-0.1,1.5-0.4,1.9c-0.2,0.4-0.7,0.6-1.4,0.6h-22.8c-1.1,0-1.7,0.1-2,0.3c-0.3,0.2-0.4,0.6-0.4,1.1
		c0,1.7,0.2,3.2,0.6,4.4c0.4,1.3,1,2.3,1.9,3.1c0.8,0.8,2.1,1.3,3.8,1.7c1.7,0.3,3.8,0.5,6.2,0.5c2.4,0,4.8-0.1,6.9-0.4
		c2.2-0.3,3.9-0.5,5.1-0.8c0.2,0,0.5,0,0.7,0.2c0.2,0.2,0.3,0.4,0.3,0.8c0,0.4-0.1,0.8-0.3,1.3c-0.2,0.5-0.4,0.9-0.7,1.4
		c-0.3,0.5-0.6,0.9-1,1.3s-0.7,0.7-1.1,0.9c-0.7,0.4-2.1,0.7-4,1c-2,0.3-4.5,0.4-7.5,0.4c-3.5,0-6.3-0.3-8.5-0.9
		c-2.2-0.6-4-1.5-5.2-2.6c-0.7-0.6-1.4-1.4-1.9-2.2c-0.6-0.9-1-1.9-1.4-3.1c-0.4-1.2-0.7-2.7-0.9-4.3S154.9,37.3,154.9,35.1z
		 M172.7,21c-3.5,0-6,0.7-7.6,2c-0.5,0.4-0.9,0.9-1.2,1.5c-0.3,0.6-0.6,1.2-0.8,1.9c-0.2,0.7-0.4,1.3-0.5,2
		c-0.1,0.7-0.2,1.3-0.2,1.9c0,0.5,0.1,0.9,0.4,1c0.3,0.1,0.9,0.2,1.9,0.2H178c0.9,0,1.7,0,2.3,0c0.6,0,1-0.1,1.2-0.3
		c0.2-0.2,0.4-0.5,0.4-0.7c0-0.2,0.1-0.5,0.1-0.9c0-1.5-0.2-2.9-0.5-4.2c-0.4-1.3-0.9-2.2-1.7-2.8c-0.6-0.5-1.5-0.9-2.6-1.2
		C176,21.1,174.5,21,172.7,21z"/>
	<path class="st1" d="M229,15.6c4,0,7.4,0.1,10.2,0.2c2.8,0.1,5.2,0.4,7.1,0.6c1.9,0.3,3.4,0.6,4.6,1c1.2,0.4,2,0.9,2.7,1.5
		c0.6,0.5,1.1,1.1,1.4,1.8c0.4,0.6,0.7,1.4,0.9,2.3c0.2,0.9,0.3,1.9,0.4,3.2c0.1,1.2,0.1,2.7,0.1,4.4v22c0,0.7-0.3,1-0.9,1h-3.9
		c-0.9,0-1.5-0.2-1.8-0.5c-0.4-0.3-0.5-1-0.5-2.2V32.3c0-2.5-0.1-4.4-0.3-5.7c-0.2-1.2-0.7-2.2-1.3-2.9c-0.7-0.7-2.1-1.2-4.4-1.5
		c-2.3-0.3-5.6-0.5-9.8-0.5c-0.7,0-1.2,0.2-1.3,0.6c-0.2,0.4-0.3,0.9-0.3,1.7v28.5c0,0.7-0.3,1.1-0.9,1.1h-5.5
		c-0.5,0-0.7-0.4-0.7-1.1V24c0-0.8-0.1-1.4-0.3-1.7c-0.2-0.3-0.7-0.5-1.5-0.5c-3,0-5.7,0.1-8.1,0.2c-2.4,0.1-4.3,0.3-5.6,0.6
		c-0.8,0.1-1.3,0.3-1.6,0.6s-0.4,1-0.4,2.1v27.2c0,0.7-0.3,1.1-0.9,1.1h-5.4c-0.5,0-0.8-0.3-0.8-1V18.1c0-0.5,0.3-0.9,0.9-1
		c3.5-0.3,7.5-0.7,12.1-1C217.7,15.7,223,15.6,229,15.6z"/>
	<path class="st1" d="M267.3,35.1c0-4.3,0.5-7.7,1.5-10.4c1-2.6,2.3-4.6,3.9-6c1.2-1.1,2.9-1.9,5-2.5c2.1-0.6,4.8-0.9,7.9-0.9
		c3.1,0,5.6,0.3,7.5,0.8c1.8,0.5,3.3,1.2,4.4,2.2c0.6,0.6,1.2,1.3,1.7,2.1c0.5,0.8,0.9,1.9,1.3,3.1c0.4,1.3,0.6,2.8,0.9,4.6
		c0.2,1.8,0.3,3.9,0.3,6.3c0,0.9-0.1,1.5-0.4,1.9c-0.2,0.4-0.7,0.6-1.4,0.6h-22.8c-1.1,0-1.7,0.1-2,0.3c-0.3,0.2-0.4,0.6-0.4,1.1
		c0,1.7,0.2,3.2,0.6,4.4c0.4,1.3,1,2.3,1.9,3.1c0.8,0.8,2.1,1.3,3.8,1.7c1.7,0.3,3.8,0.5,6.2,0.5c2.4,0,4.8-0.1,6.9-0.4
		c2.2-0.3,3.9-0.5,5.1-0.8c0.2,0,0.5,0,0.7,0.2c0.2,0.2,0.3,0.4,0.3,0.8c0,0.4-0.1,0.8-0.3,1.3c-0.2,0.5-0.4,0.9-0.7,1.4
		c-0.3,0.5-0.6,0.9-1,1.3s-0.7,0.7-1.1,0.9c-0.7,0.4-2.1,0.7-4,1s-4.5,0.4-7.5,0.4c-3.5,0-6.3-0.3-8.5-0.9c-2.2-0.6-4-1.5-5.2-2.6
		c-0.7-0.6-1.4-1.4-1.9-2.2s-1-1.9-1.4-3.1c-0.4-1.2-0.7-2.7-0.9-4.3C267.4,39.3,267.3,37.3,267.3,35.1z M285.1,21
		c-3.5,0-6,0.7-7.6,2c-0.5,0.4-0.9,0.9-1.2,1.5c-0.3,0.6-0.6,1.2-0.8,1.9c-0.2,0.7-0.4,1.3-0.5,2c-0.1,0.7-0.2,1.3-0.2,1.9
		c0,0.5,0.1,0.9,0.4,1c0.3,0.1,0.9,0.2,1.9,0.2h13.3c0.9,0,1.7,0,2.3,0c0.6,0,1-0.1,1.2-0.3c0.2-0.2,0.4-0.5,0.4-0.7
		c0-0.2,0.1-0.5,0.1-0.9c0-1.5-0.2-2.9-0.5-4.2c-0.4-1.3-0.9-2.2-1.7-2.8c-0.6-0.5-1.5-0.9-2.6-1.2C288.4,21.1,286.9,21,285.1,21z"
		/>
	<path class="st1" d="M346.2,52.6c0,0.6-0.3,0.9-0.9,0.9H341c-0.8,0-1.3-0.2-1.5-0.5c-0.2-0.3-0.3-0.9-0.3-1.7V31.3
		c0-2.3-0.1-4-0.4-5.1c-0.3-1.1-0.7-2-1.2-2.7c-0.6-0.7-1.5-1.2-2.7-1.5c-1.2-0.3-2.8-0.5-5-0.5c-1.9,0-3.5,0-4.8,0.1
		c-1.3,0.1-2.5,0.2-3.6,0.3c-0.8,0.1-1.3,0.3-1.5,0.6c-0.2,0.3-0.3,1.1-0.3,2.2v27.7c0,0.7-0.3,1-0.9,1h-5.3c-0.6,0-0.9-0.3-0.9-1
		V17.7c0-0.5,0.3-0.9,1-1c2-0.2,4.5-0.5,7.5-0.8c3-0.3,6-0.4,9.2-0.4c3.8,0,6.7,0.3,8.7,0.8c2,0.5,3.6,1.3,4.7,2.4
		c1,1,1.6,2.3,2.1,4c0.4,1.6,0.6,4,0.6,7.1V52.6z"/>
	<path class="st1" d="M361.1,10.8c0-1,0-1.7,0.1-2.2c0.1-0.5,0.2-0.9,0.4-1.1c0.3-0.3,0.9-0.7,1.7-1c0.9-0.3,2-0.6,3.5-0.8
		c0.3,0,0.5,0,0.8,0.2c0.2,0.2,0.3,0.5,0.3,0.9V12c0,0.9,0,1.6,0.1,2.2c0.1,0.5,0.2,0.9,0.5,1.2c0.2,0.3,0.6,0.4,1.2,0.5
		c0.5,0.1,1.2,0.1,2.1,0.1h11.6c0.7,0,1.1,0.3,1.1,0.9c0,0.4-0.1,0.9-0.3,1.4c-0.2,0.5-0.5,0.9-0.8,1.4s-0.6,0.8-0.9,1.1
		c-0.3,0.3-0.6,0.5-0.8,0.6c-0.4,0.2-0.8,0.3-1.1,0.4c-0.4,0-0.9,0.1-1.6,0.1h-7.8c-1.4,0-2.3,0.2-2.7,0.6c-0.4,0.4-0.6,1.3-0.6,2.7
		v15.3c0,2.1,0.1,3.5,0.3,4.4c0.2,0.9,0.5,1.5,1,1.9c0.5,0.4,1.2,0.7,2.2,0.9c1,0.2,2.4,0.3,4.1,0.3c1.4,0,2.7,0,3.9-0.1
		c1.2-0.1,2.2-0.2,3.1-0.4c0.2,0,0.5,0,0.7,0.2c0.2,0.2,0.4,0.4,0.4,0.7c0,0.4-0.1,0.9-0.3,1.3c-0.2,0.5-0.4,0.9-0.7,1.3
		s-0.6,0.8-1,1.2c-0.4,0.3-0.7,0.6-1,0.8c-0.5,0.3-1.4,0.5-2.6,0.7c-1.2,0.2-3,0.3-5.3,0.3c-2.5,0-4.6-0.2-6.1-0.6s-2.7-1-3.5-1.7
		c-0.4-0.4-0.7-0.8-1-1.3c-0.3-0.5-0.5-1.1-0.6-1.8c-0.2-0.7-0.3-1.6-0.4-2.6c-0.1-1-0.1-2.3-0.1-3.9V25c0-1.5-0.2-2.4-0.6-2.7
		c-0.4-0.3-1.1-0.5-2.2-0.5h-3.1c-0.3,0-0.5-0.1-0.6-0.3c-0.1-0.2-0.2-0.3-0.2-0.5c0-0.4,0.1-0.9,0.2-1.4s0.3-1,0.5-1.4
		c0.2-0.4,0.4-0.8,0.7-1.2c0.2-0.3,0.5-0.6,0.7-0.7c0.5-0.2,1.1-0.4,1.9-0.4h1.1c1,0,1.5-0.7,1.5-2V10.8z"/>
	<path class="st1" d="M422.1,52c0,0.6-0.4,1-1.1,1.1c-1.7,0.2-3.8,0.5-6.2,0.7c-2.4,0.2-5.1,0.3-8,0.3c-2.2,0-4.1-0.1-5.7-0.2
		c-1.6-0.1-2.9-0.3-4-0.5c-1.1-0.2-2-0.5-2.7-0.9c-0.7-0.3-1.3-0.7-1.8-1.2c-0.8-0.8-1.5-1.8-1.9-3.2c-0.5-1.4-0.7-3.2-0.7-5.3
		c0-2.1,0.2-3.9,0.7-5.5c0.5-1.6,1.1-2.7,1.9-3.3c0.5-0.3,1.4-0.6,2.7-0.8c1.3-0.3,3-0.5,4.9-0.7s4.1-0.4,6.4-0.6
		c2.4-0.2,4.8-0.3,7.3-0.4c0.9,0,1.3-0.5,1.3-1.4c0-2-0.1-3.5-0.4-4.5s-0.7-1.8-1.3-2.3c-0.7-0.6-1.7-1-3-1.2
		c-1.3-0.2-3.3-0.3-5.9-0.3c-1,0-2.1,0-3.1,0.1c-1.1,0-2.1,0.1-3.2,0.2c-1,0.1-2,0.2-2.9,0.3c-0.9,0.1-1.7,0.3-2.4,0.4
		c-0.2,0-0.5,0-0.7-0.1c-0.2-0.1-0.4-0.4-0.4-0.7c0-0.3,0.1-0.7,0.3-1.2c0.2-0.5,0.4-0.9,0.6-1.4c0.3-0.5,0.6-0.9,0.9-1.3
		c0.3-0.4,0.7-0.7,1-0.9c0.9-0.5,2.3-0.9,4.4-1.2s4.6-0.4,7.6-0.4c3.6,0,6.4,0.2,8.4,0.7c1.9,0.5,3.3,1.2,4.2,2.1
		c0.4,0.5,0.8,1,1.2,1.7c0.4,0.6,0.7,1.5,0.9,2.5c0.3,1,0.5,2.3,0.6,3.9c0.1,1.6,0.2,3.6,0.2,5.9V52z M415.1,38.3
		c0-0.7-0.1-1.1-0.4-1.2c-0.3-0.1-0.6-0.2-1-0.2c-1.3,0-2.9,0-4.5,0.1c-1.7,0.1-3.3,0.2-4.8,0.3c-1.5,0.1-2.9,0.3-4,0.5
		c-1.2,0.2-1.9,0.4-2.2,0.6c-0.4,0.3-0.7,0.7-0.9,1.4c-0.2,0.6-0.3,1.5-0.3,2.7c0,2.3,0.5,3.7,1.5,4.5c0.5,0.5,1.4,0.8,2.6,1.1
		c1.2,0.2,3,0.4,5.3,0.4c2.2,0,4-0.1,5.4-0.3c1.4-0.2,2.3-0.4,2.6-0.7c0.2-0.2,0.4-0.6,0.6-1c0.1-0.4,0.2-1.2,0.2-2.4V38.3z"/>
	<path class="st1" d="M436.7,10.8c0-1,0-1.7,0.1-2.2c0.1-0.5,0.2-0.9,0.4-1.1c0.3-0.3,0.9-0.7,1.7-1c0.9-0.3,2-0.6,3.5-0.8
		c0.3,0,0.5,0,0.8,0.2c0.2,0.2,0.3,0.5,0.3,0.9V12c0,0.9,0,1.6,0.1,2.2c0.1,0.5,0.2,0.9,0.5,1.2c0.2,0.3,0.6,0.4,1.2,0.5
		c0.5,0.1,1.2,0.1,2.1,0.1H459c0.7,0,1.1,0.3,1.1,0.9c0,0.4-0.1,0.9-0.3,1.4c-0.2,0.5-0.5,0.9-0.8,1.4s-0.6,0.8-0.9,1.1
		c-0.3,0.3-0.6,0.5-0.8,0.6c-0.4,0.2-0.8,0.3-1.1,0.4c-0.4,0-0.9,0.1-1.6,0.1h-7.8c-1.4,0-2.3,0.2-2.7,0.6c-0.4,0.4-0.6,1.3-0.6,2.7
		v15.3c0,2.1,0.1,3.5,0.3,4.4c0.2,0.9,0.5,1.5,1,1.9c0.5,0.4,1.2,0.7,2.2,0.9c1,0.2,2.4,0.3,4.1,0.3c1.4,0,2.7,0,3.9-0.1
		c1.2-0.1,2.2-0.2,3.1-0.4c0.2,0,0.5,0,0.7,0.2c0.2,0.2,0.4,0.4,0.4,0.7c0,0.4-0.1,0.9-0.3,1.3c-0.2,0.5-0.4,0.9-0.7,1.3
		s-0.6,0.8-1,1.2c-0.4,0.3-0.7,0.6-1,0.8c-0.5,0.3-1.4,0.5-2.6,0.7c-1.2,0.2-3,0.3-5.3,0.3c-2.5,0-4.6-0.2-6.1-0.6s-2.7-1-3.5-1.7
		c-0.4-0.4-0.7-0.8-1-1.3c-0.3-0.5-0.5-1.1-0.6-1.8c-0.2-0.7-0.3-1.6-0.4-2.6c-0.1-1-0.1-2.3-0.1-3.9V25c0-1.5-0.2-2.4-0.6-2.7
		c-0.4-0.3-1.1-0.5-2.2-0.5h-3.1c-0.3,0-0.5-0.1-0.6-0.3c-0.1-0.2-0.2-0.3-0.2-0.5c0-0.4,0.1-0.9,0.2-1.4s0.3-1,0.5-1.4
		c0.2-0.4,0.4-0.8,0.7-1.2c0.2-0.3,0.5-0.6,0.7-0.7c0.5-0.2,1.1-0.4,1.9-0.4h1.1c1,0,1.5-0.7,1.5-2V10.8z"/>
	<path class="st1" d="M475.6,4.7c0,1.6-0.3,2.7-1,3.2c-0.5,0.3-1.1,0.5-1.8,0.6c-0.7,0.1-1.3,0.1-1.8,0.1c-1.8,0-3-0.2-3.6-0.7
		c-0.6-0.4-0.9-1.4-0.9-2.9c0-1.7,0.3-2.8,1-3.2c0.4-0.3,0.9-0.5,1.5-0.6c0.6-0.1,1.3-0.2,2.2-0.2s1.5,0,2.2,0.1
		c0.6,0.1,1.1,0.3,1.3,0.6c0.3,0.2,0.6,0.6,0.7,1.2S475.6,4,475.6,4.7z M474.5,52.6c0,0.7-0.3,1-0.9,1h-5.5c-0.4,0-0.6-0.1-0.7-0.2
		c-0.1-0.1-0.1-0.4-0.1-0.8V17c0-0.7,0.4-1,1.1-1h5.3c0.4,0,0.6,0.1,0.7,0.2c0.1,0.1,0.1,0.4,0.1,0.8V52.6z"/>
	<path class="st1" d="M522.9,34.3c0,4.4-0.5,8-1.6,10.8c-1.1,2.8-2.3,4.7-3.7,5.9c-1.2,1-3,1.8-5.2,2.5c-2.2,0.6-5.1,1-8.5,1
		c-3.4,0-6.2-0.4-8.4-1.1c-2.2-0.7-3.9-1.7-5.1-2.8c-1.2-1.2-2.2-2.9-3-5.2c-0.9-2.3-1.3-5.6-1.3-9.9c0-4.4,0.5-8,1.6-10.7
		c1.1-2.7,2.4-4.7,4-5.9c1.3-1,3.1-1.8,5.3-2.4c2.2-0.6,5-0.9,8.3-0.9c3.5,0,6.3,0.3,8.5,0.9c2.2,0.6,3.8,1.5,5,2.7
		c0.6,0.6,1.1,1.3,1.6,2.1c0.5,0.8,1,1.8,1.4,3.1c0.4,1.2,0.7,2.7,1,4.4C522.7,30.1,522.9,32.1,522.9,34.3z M515.9,34.6
		c0-3.1-0.2-5.5-0.7-7.1c-0.5-1.6-1.2-2.9-2-3.9c-1.3-1.6-4.1-2.4-8.3-2.4c-2.2,0-4,0.2-5.4,0.6c-1.4,0.4-2.5,1-3.2,1.7
		c-0.9,0.8-1.6,2.1-2.3,3.9c-0.6,1.8-1,4.3-1,7.5c0,2.7,0.2,5,0.7,6.9c0.5,1.8,1.2,3.2,2,4.1c0.8,0.8,2,1.4,3.5,1.8
		c1.5,0.4,3.1,0.5,4.9,0.5c3.9,0,6.7-0.6,8.3-1.9c1-0.7,1.8-2.1,2.5-4S515.9,37.9,515.9,34.6z"/>
	<path class="st1" d="M567.9,52.6c0,0.6-0.3,0.9-0.9,0.9h-4.4c-0.8,0-1.3-0.2-1.5-0.5c-0.2-0.3-0.3-0.9-0.3-1.7V31.3
		c0-2.3-0.1-4-0.4-5.1c-0.3-1.1-0.7-2-1.2-2.7c-0.6-0.7-1.5-1.2-2.7-1.5c-1.2-0.3-2.8-0.5-5-0.5c-1.9,0-3.5,0-4.8,0.1
		c-1.3,0.1-2.5,0.2-3.6,0.3c-0.8,0.1-1.3,0.3-1.5,0.6c-0.2,0.3-0.3,1.1-0.3,2.2v27.7c0,0.7-0.3,1-0.9,1H535c-0.6,0-0.9-0.3-0.9-1
		V17.7c0-0.5,0.3-0.9,1-1c2-0.2,4.5-0.5,7.5-0.8s6-0.4,9.2-0.4c3.8,0,6.7,0.3,8.7,0.8c2,0.5,3.6,1.3,4.7,2.4c1,1,1.6,2.3,2.1,4
		c0.4,1.6,0.6,4,0.6,7.1V52.6z"/>
</g>
</svg>
