<?xml version="1.0" encoding="utf-8"?>
<!-- Generator: Adobe Illustrator 25.1.0, SVG Export Plug-In . SVG Version: 6.00 Build 0)  -->
<svg version="1.1"
	 id="Layer_1" xmlns:krita="http://krita.org/namespaces/svg/krita" xmlns:sodipodi="http://sodipodi.sourceforge.net/DTD/sodipodi-0.dtd"
	 xmlns="http://www.w3.org/2000/svg" xmlns:xlink="http://www.w3.org/1999/xlink" x="0px" y="0px" viewBox="0 0 304.8 48.9"
	 style="enable-background:new 0 0 304.8 48.9;" xml:space="preserve">
<style type="text/css">
	.st0{fill:#E8ECD7;}
</style>
<g>
	<path class="st0" d="M57.1,48.5c-1.3,0-2.3-0.2-2.9-0.7c-0.6-0.5-0.9-1.5-1.1-3L49.4,12c-0.1-0.9-0.3-1.5-0.7-1.8
		c-0.3-0.3-1-0.5-1.8-0.5s-1.5,0.2-1.8,0.6c-0.3,0.4-0.6,1-0.8,1.9l-6.1,26.4c-0.3,1.5-0.7,2.6-1.1,3.5c-0.4,0.9-0.8,1.5-1.3,1.9
		c-0.6,0.5-1.4,0.8-2.4,1.1c-1,0.3-2.3,0.4-3.9,0.4c-1.4,0-2.6-0.1-3.7-0.4c-1.1-0.3-1.9-0.6-2.5-1.1c-0.5-0.4-0.9-1.1-1.2-2
		c-0.3-0.9-0.7-2-0.9-3.2l-5.6-26.6c-0.2-1-0.5-1.7-0.9-2S13.7,9.8,13,9.8c-1,0-1.6,0.2-1.9,0.6c-0.3,0.4-0.5,1.2-0.7,2.4L6.5,45
		c-0.2,1.4-0.6,2.3-1.2,2.8s-1.5,0.7-2.9,0.7H0.7c-0.6,0-0.8-0.4-0.7-1.2L4.4,12c0.1-1,0.3-1.9,0.4-2.6c0.2-0.7,0.3-1.3,0.5-1.7
		s0.4-0.8,0.6-1.1C6.1,6.3,6.4,6,6.6,5.8c1.1-1,3.3-1.6,6.6-1.6c2.9,0,4.9,0.5,6,1.4c0.5,0.5,1,1.1,1.3,2c0.3,0.8,0.7,2.1,1,3.7
		l5.7,26.3c0.2,1,0.5,1.6,0.8,2c0.3,0.3,0.9,0.5,1.7,0.5c0.8,0,1.4-0.1,1.7-0.4c0.3-0.3,0.6-0.9,0.8-1.9l6-26.4
		c0.3-1.5,0.7-2.7,1.1-3.6c0.4-0.9,0.9-1.6,1.5-2.1c0.5-0.4,1.3-0.8,2.4-1c1.1-0.3,2.5-0.4,4.1-0.4c1.8,0,3.2,0.1,4.2,0.4
		c1,0.3,1.6,0.6,2.1,0.9c0.5,0.3,0.9,0.9,1.2,1.7c0.3,0.8,0.6,1.9,0.8,3.4l4,36.8c0.1,0.3,0,0.6-0.2,0.8c-0.2,0.2-0.4,0.3-0.7,0.3
		H57.1z"/>
	<path class="st0" d="M67.1,31.8c0-3.9,0.5-7,1.4-9.4c0.9-2.4,2.1-4.2,3.5-5.4c1.1-1,2.6-1.7,4.5-2.2c1.9-0.5,4.3-0.8,7.2-0.8
		c2.8,0,5.1,0.2,6.7,0.7c1.7,0.5,3,1.1,4,2c0.6,0.5,1.1,1.1,1.5,1.9c0.5,0.7,0.8,1.7,1.2,2.8c0.3,1.1,0.6,2.5,0.8,4.1
		c0.2,1.6,0.3,3.5,0.3,5.7c0,0.8-0.1,1.3-0.3,1.7c-0.2,0.3-0.7,0.5-1.3,0.5H76c-1,0-1.6,0.1-1.8,0.3c-0.3,0.2-0.4,0.5-0.4,1
		c0,1.5,0.2,2.8,0.5,4c0.3,1.1,0.9,2.1,1.8,2.8c0.7,0.7,1.9,1.2,3.4,1.5c1.5,0.3,3.4,0.5,5.6,0.5c2.2,0,4.3-0.1,6.2-0.4
		s3.5-0.5,4.6-0.7c0.2,0,0.4,0,0.6,0.2c0.2,0.2,0.3,0.4,0.3,0.7c0,0.3-0.1,0.7-0.2,1.2c-0.2,0.4-0.4,0.9-0.6,1.3
		c-0.3,0.4-0.6,0.8-0.9,1.2c-0.3,0.4-0.7,0.7-1,0.8c-0.6,0.3-1.9,0.6-3.6,0.9c-1.8,0.3-4,0.4-6.8,0.4c-3.1,0-5.7-0.3-7.7-0.8
		c-2-0.5-3.6-1.3-4.7-2.4c-0.7-0.6-1.2-1.2-1.7-2C69,43,68.6,42,68.2,40.9c-0.4-1.1-0.7-2.4-0.8-3.9C67.2,35.6,67.1,33.8,67.1,31.8z
		 M83.2,19c-3.1,0-5.4,0.6-6.8,1.8c-0.4,0.3-0.8,0.8-1.1,1.3c-0.3,0.5-0.6,1.1-0.7,1.7c-0.2,0.6-0.3,1.2-0.5,1.8
		c-0.1,0.6-0.2,1.2-0.2,1.7c0,0.5,0.1,0.8,0.4,0.9c0.3,0.1,0.8,0.2,1.7,0.2h12c0.8,0,1.5,0,2,0s0.9-0.1,1.1-0.3
		c0.2-0.2,0.3-0.4,0.4-0.7c0-0.2,0.1-0.5,0.1-0.8c0-1.4-0.2-2.7-0.5-3.8c-0.3-1.1-0.8-2-1.5-2.6c-0.6-0.4-1.4-0.8-2.4-1
		C86.1,19.2,84.8,19,83.2,19z"/>
	<path class="st0" d="M134,14.2c3.6,0,6.7,0.1,9.2,0.2s4.7,0.3,6.4,0.6c1.7,0.3,3.1,0.6,4.1,0.9c1,0.4,1.8,0.8,2.4,1.3
		c0.5,0.5,1,1,1.3,1.6s0.6,1.3,0.8,2.1c0.2,0.8,0.3,1.8,0.4,2.9s0.1,2.4,0.1,3.9v19.9c0,0.6-0.3,0.9-0.8,0.9h-3.5
		c-0.8,0-1.3-0.1-1.7-0.4c-0.3-0.3-0.5-0.9-0.5-2V29.2c0-2.3-0.1-4-0.3-5.1c-0.2-1.1-0.6-2-1.2-2.6c-0.6-0.6-1.9-1.1-4-1.3
		c-2.1-0.3-5-0.4-8.9-0.4c-0.7,0-1.1,0.2-1.2,0.5c-0.2,0.3-0.2,0.8-0.2,1.5v25.7c0,0.6-0.3,1-0.8,1h-4.9c-0.4,0-0.7-0.3-0.7-1V21.8
		c0-0.7-0.1-1.3-0.2-1.6c-0.2-0.3-0.6-0.5-1.3-0.5c-2.7,0-5.1,0.1-7.3,0.2c-2.2,0.1-3.9,0.3-5.1,0.5c-0.7,0.1-1.2,0.3-1.4,0.6
		c-0.2,0.3-0.3,0.9-0.3,1.9v24.6c0,0.6-0.3,1-0.8,1h-4.9c-0.5,0-0.7-0.3-0.7-0.9V16.4c0-0.5,0.3-0.8,0.8-0.9c3.1-0.3,6.8-0.6,11-0.9
		C123.8,14.3,128.6,14.2,134,14.2z"/>
	<path class="st0" d="M170.4,0.9c0-0.6,0.3-0.9,0.9-0.9h4.7c0.6,0,0.8,0.3,0.8,1v12.8c0,0.5,0.1,0.8,0.4,0.9
		c0.2,0.1,0.5,0.1,0.9,0.1c1.4-0.2,2.9-0.3,4.4-0.5c1.6-0.2,3.3-0.3,5.3-0.3c2.6,0,4.7,0.2,6.3,0.6c1.6,0.4,2.9,1,3.9,1.7
		c1.1,1,2.1,2.5,2.9,4.5c0.8,2.1,1.2,5,1.2,8.8c0,4.2-0.5,7.6-1.4,10.2c-0.9,2.5-2.1,4.4-3.4,5.7c-0.6,0.5-1.2,0.9-2,1.3
		c-0.8,0.4-1.7,0.7-2.8,1c-1.1,0.3-2.4,0.5-3.9,0.7c-1.5,0.2-3.3,0.2-5.4,0.2c-2.2,0-4.3-0.1-6.3-0.2c-2-0.2-3.7-0.4-5.2-0.6
		c-0.5-0.1-0.8-0.2-1-0.4c-0.2-0.2-0.3-0.6-0.3-1.2V0.9z M195.7,30.7c0-2.9-0.3-5.1-0.8-6.5c-0.5-1.4-1.1-2.4-1.8-2.9
		c-0.7-0.6-1.6-1-2.8-1.3c-1.2-0.2-2.7-0.4-4.5-0.4c-1.5,0-2.9,0.1-4.2,0.2s-2.4,0.3-3.4,0.5c-0.5,0.1-0.9,0.3-1.1,0.7
		c-0.2,0.4-0.3,1.1-0.3,2.2V40c0,1.1,0.1,1.9,0.3,2.3c0.2,0.4,0.7,0.6,1.4,0.7c0.6,0.1,1.5,0.2,2.6,0.3c1.1,0.1,2.2,0.1,3.1,0.1
		c2.3,0,4.1-0.2,5.4-0.6s2.2-0.9,3-1.5c0.9-0.8,1.7-2.1,2.2-3.9S195.7,33.5,195.7,30.7z"/>
	<path class="st0" d="M210.5,31.8c0-3.9,0.5-7,1.4-9.4c0.9-2.4,2.1-4.2,3.5-5.4c1.1-1,2.6-1.7,4.5-2.2c1.9-0.5,4.3-0.8,7.2-0.8
		c2.8,0,5.1,0.2,6.7,0.7c1.7,0.5,3,1.1,4,2c0.6,0.5,1.1,1.1,1.5,1.9c0.5,0.7,0.8,1.7,1.2,2.8c0.3,1.1,0.6,2.5,0.8,4.1
		c0.2,1.6,0.3,3.5,0.3,5.7c0,0.8-0.1,1.3-0.3,1.7c-0.2,0.3-0.7,0.5-1.3,0.5h-20.5c-1,0-1.6,0.1-1.8,0.3c-0.3,0.2-0.4,0.5-0.4,1
		c0,1.5,0.2,2.8,0.5,4c0.3,1.1,0.9,2.1,1.8,2.8c0.7,0.7,1.9,1.2,3.4,1.5c1.5,0.3,3.4,0.5,5.6,0.5c2.2,0,4.3-0.1,6.2-0.4
		s3.5-0.5,4.6-0.7c0.2,0,0.4,0,0.6,0.2c0.2,0.2,0.3,0.4,0.3,0.7c0,0.3-0.1,0.7-0.2,1.2c-0.2,0.4-0.4,0.9-0.6,1.3
		c-0.3,0.4-0.6,0.8-0.9,1.2c-0.3,0.4-0.7,0.7-1,0.8c-0.6,0.3-1.9,0.6-3.6,0.9c-1.8,0.3-4,0.4-6.8,0.4c-3.1,0-5.7-0.3-7.7-0.8
		c-2-0.5-3.6-1.3-4.7-2.4c-0.7-0.6-1.2-1.2-1.7-2c-0.5-0.8-0.9-1.7-1.3-2.8c-0.4-1.1-0.7-2.4-0.8-3.9
		C210.6,35.6,210.5,33.8,210.5,31.8z M226.6,19c-3.1,0-5.4,0.6-6.8,1.8c-0.4,0.3-0.8,0.8-1.1,1.3c-0.3,0.5-0.6,1.1-0.7,1.7
		c-0.2,0.6-0.3,1.2-0.5,1.8c-0.1,0.6-0.2,1.2-0.2,1.7c0,0.5,0.1,0.8,0.4,0.9c0.3,0.1,0.8,0.2,1.7,0.2h12c0.8,0,1.5,0,2,0
		s0.9-0.1,1.1-0.3c0.2-0.2,0.3-0.4,0.4-0.7c0-0.2,0.1-0.5,0.1-0.8c0-1.4-0.2-2.7-0.5-3.8c-0.3-1.1-0.8-2-1.5-2.6
		c-0.6-0.4-1.4-0.8-2.4-1C229.6,19.2,228.3,19,226.6,19z"/>
	<path class="st0" d="M251.3,16.1c0-0.6,0.3-0.9,0.9-1c1.7-0.2,3.7-0.4,5.8-0.6c2.1-0.2,4.1-0.3,6-0.3c1.8,0,3.3,0,4.6,0.1
		c1.3,0.1,2.2,0.3,2.8,0.6c0.7,0.3,1.2,1,1.6,1.9c0.4,0.9,0.7,1.8,0.7,2.6c0,0.3-0.1,0.5-0.3,0.6c-0.2,0.2-0.4,0.2-0.6,0.2
		c-0.8-0.1-1.9-0.2-3.1-0.2c-1.3-0.1-2.4-0.1-3.5-0.1c-1.1,0-2.3,0-3.4,0.1c-1.1,0-2.2,0.1-3.2,0.2c-0.4,0.1-0.7,0.2-1,0.3
		c-0.3,0.1-0.5,0.2-0.6,0.4c-0.2,0.2-0.2,0.4-0.3,0.7c0,0.3-0.1,0.7-0.1,1.3v24.9c0,0.6-0.3,0.9-0.9,0.9h-4.7
		c-0.6,0-0.8-0.3-0.8-0.9V16.1z"/>
	<path class="st0" d="M293,14.1c2.5,0,4.5,0.1,6,0.3c1.5,0.2,2.5,0.4,3,0.7c0.6,0.4,1.1,1,1.6,1.9c0.4,0.9,0.6,1.7,0.6,2.3
		c0,0.3-0.1,0.5-0.3,0.7c-0.2,0.2-0.4,0.2-0.6,0.2c-1.3-0.1-2.7-0.3-4.4-0.4c-1.6-0.2-3.4-0.2-5.4-0.2c-3.8,0-6.3,0.4-7.3,1.1
		c-0.4,0.3-0.8,0.9-1.1,1.5c-0.3,0.7-0.4,1.5-0.4,2.4c0,1.2,0.2,2,0.7,2.4c0.2,0.2,0.7,0.4,1.6,0.7c0.9,0.2,1.9,0.5,3.1,0.7
		s2.4,0.5,3.8,0.8c1.4,0.3,2.7,0.5,4,0.8c1.3,0.3,2.4,0.6,3.3,0.8c1,0.3,1.7,0.6,2,0.9c0.5,0.4,0.9,1.1,1.2,2c0.3,1,0.5,2.2,0.5,3.8
		c0,2.4-0.3,4.3-0.9,5.8c-0.6,1.5-1.3,2.5-2.2,3.3c-0.9,0.7-2.2,1.3-4,1.8c-1.8,0.5-4.3,0.7-7.7,0.7c-2.8,0-4.9-0.1-6.4-0.3
		c-1.4-0.2-2.4-0.5-3.1-0.9c-0.3-0.2-0.5-0.5-0.8-0.8c-0.3-0.4-0.5-0.8-0.7-1.2s-0.4-0.8-0.5-1.2c-0.1-0.4-0.2-0.7-0.2-1
		c0-0.3,0.1-0.6,0.3-0.7c0.2-0.2,0.4-0.2,0.6-0.2c1.4,0.2,3,0.4,4.7,0.6c1.8,0.2,3.8,0.3,6,0.3c1.8,0,3.2-0.1,4.4-0.3
		c1.2-0.2,2-0.5,2.5-0.8c0.5-0.3,0.9-0.8,1.1-1.4c0.3-0.6,0.4-1.4,0.4-2.3c0-1.3-0.3-2.1-0.8-2.5c-0.3-0.3-0.9-0.5-1.8-0.8
		c-0.9-0.3-2-0.5-3.2-0.8c-1.2-0.3-2.5-0.6-3.8-0.8c-1.4-0.3-2.7-0.6-3.9-0.8c-1.2-0.3-2.3-0.6-3.2-0.8c-0.9-0.3-1.6-0.6-1.9-0.9
		c-0.5-0.3-0.8-1-1.1-2c-0.3-1-0.4-2-0.4-3c0-2.5,0.3-4.5,0.9-6c0.6-1.5,1.4-2.7,2.4-3.5c0.9-0.8,2.2-1.4,4.1-1.9S290,14.1,293,14.1
		z"/>
</g>
</svg>
