<?xml version="1.0" encoding="utf-8"?>
<!-- Generator: Adobe Illustrator 24.0.2, SVG Export Plug-In . SVG Version: 6.00 Build 0)  -->
<svg version="1.1"
	 id="Layer_1" xmlns:krita="http://krita.org/namespaces/svg/krita" xmlns:sodipodi="http://sodipodi.sourceforge.net/DTD/sodipodi-0.dtd"
	 xmlns="http://www.w3.org/2000/svg" xmlns:xlink="http://www.w3.org/1999/xlink" x="0px" y="0px" viewBox="0 0 334.2 71.6"
	 style="enable-background:new 0 0 334.2 71.6;" xml:space="preserve">
<style type="text/css">
	.st0{enable-background:new    ;}
	.st1{fill:#E8ECD7;}
</style>
<g class="st0">
	<path class="st1" d="M63.2,53.7c-1.5,0-2.6-0.3-3.2-0.8c-0.6-0.5-1-1.6-1.2-3.3l-4.1-36.3c-0.1-1-0.3-1.6-0.7-1.9
		c-0.4-0.3-1.1-0.5-2-0.5c-1,0-1.6,0.2-2,0.6c-0.4,0.4-0.7,1.1-0.9,2.1l-6.8,29.2c-0.4,1.6-0.8,2.9-1.2,3.9c-0.4,1-0.9,1.7-1.4,2.1
		C39,49.3,38.1,49.8,37,50c-1.1,0.3-2.6,0.4-4.3,0.4c-1.5,0-2.9-0.1-4.1-0.4c-1.2-0.3-2.1-0.7-2.8-1.2c-0.5-0.5-1-1.2-1.4-2.2
		c-0.4-1-0.7-2.2-1-3.6l-6.2-29.4c-0.2-1.1-0.6-1.8-1-2.2c-0.4-0.4-1-0.5-1.9-0.5c-1.1,0-1.8,0.2-2.1,0.6c-0.3,0.4-0.6,1.3-0.8,2.6
		L7.2,49.9C7,51.4,6.5,52.5,5.9,53s-1.7,0.8-3.2,0.8H0.8c-0.6,0-0.9-0.4-0.8-1.3l4.8-39.1c0.1-1.2,0.3-2.1,0.5-2.9
		C5.5,9.7,5.7,9,5.9,8.5C6,8,6.3,7.6,6.5,7.3C6.8,7,7.1,6.7,7.4,6.4c1.2-1.2,3.7-1.7,7.3-1.7c3.2,0,5.4,0.5,6.7,1.5
		c0.6,0.5,1.1,1.3,1.4,2.2c0.4,0.9,0.8,2.3,1.2,4.1l6.3,29.2c0.2,1.1,0.5,1.8,0.9,2.2c0.3,0.3,1,0.5,1.9,0.5c0.9,0,1.5-0.2,1.9-0.5
		c0.3-0.3,0.6-1,0.9-2.1l6.7-29.2c0.4-1.7,0.8-3,1.3-4c0.5-1,1-1.7,1.7-2.3c0.6-0.5,1.5-0.9,2.7-1.2c1.2-0.3,2.7-0.4,4.6-0.4
		c2,0,3.6,0.2,4.6,0.5c1.1,0.3,1.8,0.7,2.3,1c0.5,0.4,1,1,1.4,1.8c0.4,0.8,0.7,2.1,0.9,3.8l4.5,40.8c0.1,0.4,0,0.7-0.2,0.9
		c-0.2,0.2-0.5,0.3-0.8,0.3H63.2z"/>
	<path class="st1" d="M111.3,34.4c0,4.4-0.5,8-1.6,10.8c-1.1,2.8-2.3,4.7-3.7,5.9c-1.2,1-3,1.8-5.2,2.5c-2.2,0.6-5.1,1-8.5,1
		c-3.4,0-6.2-0.4-8.4-1.1c-2.2-0.7-3.9-1.7-5.1-2.8c-1.2-1.2-2.2-2.9-3-5.2c-0.9-2.3-1.3-5.6-1.3-9.9c0-4.4,0.5-8,1.6-10.7
		c1.1-2.7,2.4-4.7,4-5.9c1.3-1,3.1-1.8,5.3-2.4c2.2-0.6,5-0.9,8.3-0.9c3.5,0,6.3,0.3,8.5,0.9c2.2,0.6,3.8,1.5,5,2.7
		c0.6,0.6,1.1,1.3,1.6,2.1c0.5,0.8,1,1.8,1.4,3.1c0.4,1.2,0.7,2.7,1,4.4C111.1,30.3,111.3,32.2,111.3,34.4z M104.3,34.8
		c0-3.1-0.2-5.5-0.7-7.1c-0.5-1.6-1.2-2.9-2-3.9c-1.3-1.6-4.1-2.4-8.3-2.4c-2.2,0-4,0.2-5.4,0.6c-1.4,0.4-2.5,1-3.2,1.7
		c-0.9,0.8-1.6,2.1-2.3,3.9c-0.6,1.8-1,4.3-1,7.5c0,2.7,0.2,5,0.7,6.9c0.5,1.8,1.2,3.2,2,4.1c0.8,0.8,2,1.4,3.5,1.8
		c1.5,0.4,3.1,0.5,4.9,0.5c3.9,0,6.7-0.6,8.3-1.9c1-0.7,1.8-2.1,2.5-4C103.9,40.6,104.3,38,104.3,34.8z"/>
	<path class="st1" d="M153.7,53.1c-1.8,0.3-3.7,0.5-5.7,0.7c-2,0.2-4.6,0.3-7.6,0.3c-2.3,0-4.2-0.1-5.8-0.2c-1.6-0.1-3-0.4-4.2-0.6
		c-1.2-0.3-2.2-0.6-3-1c-0.8-0.4-1.5-0.9-2.2-1.4c-1.2-1.1-2.3-2.8-3.3-5.1c-0.9-2.4-1.4-5.7-1.4-9.8c0-2.4,0.1-4.5,0.4-6.3
		c0.3-1.8,0.7-3.3,1.1-4.6c0.5-1.3,1-2.4,1.6-3.3c0.6-0.9,1.2-1.6,1.8-2.2c1.2-1.2,2.9-2.1,5.2-2.8c2.3-0.7,5.1-1,8.6-1
		c1.4,0,2.8,0,4.1,0c1.3,0,2.5,0.1,3.6,0.2c0.4,0,0.8,0,1.1-0.1c0.3-0.1,0.4-0.5,0.4-1V2.2c0-0.8,0.1-1.4,0.3-1.7
		c0.2-0.3,0.7-0.5,1.3-0.5h4.5c0.2,0,0.4,0.1,0.6,0.2c0.2,0.1,0.3,0.5,0.3,1v49.9c0,0.7-0.1,1.2-0.4,1.5
		C154.8,52.9,154.4,53,153.7,53.1z M127.5,35.2c0,3.4,0.3,5.9,0.9,7.5c0.6,1.6,1.3,2.8,2.1,3.4c0.7,0.7,1.8,1.2,3.3,1.5
		c1.5,0.3,3.5,0.5,6.2,0.5c1.7,0,3,0,4-0.1c1-0.1,1.9-0.2,2.7-0.3c0.7-0.1,1.1-0.3,1.3-0.7c0.2-0.4,0.3-1.1,0.3-2.1V24.8
		c0-1-0.1-1.7-0.4-2.1c-0.2-0.4-0.7-0.6-1.4-0.7c-0.9-0.1-1.9-0.2-3-0.3c-1.1-0.1-2.4-0.1-3.7-0.1c-2.5,0-4.5,0.2-5.9,0.5
		c-1.4,0.4-2.6,0.9-3.4,1.7c-0.9,0.8-1.6,2.2-2.2,4.1C127.8,29.8,127.5,32.3,127.5,35.2z"/>
	<path class="st1" d="M166.6,35.2c0-4.3,0.5-7.7,1.5-10.4c1-2.6,2.3-4.6,3.9-6c1.2-1.1,2.9-1.9,5-2.5c2.1-0.6,4.8-0.9,7.9-0.9
		c3.1,0,5.6,0.3,7.5,0.8c1.8,0.5,3.3,1.2,4.4,2.2c0.6,0.6,1.2,1.3,1.7,2.1c0.5,0.8,0.9,1.9,1.3,3.1c0.4,1.3,0.6,2.8,0.9,4.6
		c0.2,1.8,0.3,3.9,0.3,6.3c0,0.9-0.1,1.5-0.4,1.9c-0.2,0.4-0.7,0.6-1.4,0.6h-22.8c-1.1,0-1.7,0.1-2,0.3c-0.3,0.2-0.4,0.6-0.4,1.1
		c0,1.7,0.2,3.2,0.6,4.4c0.4,1.3,1,2.3,1.9,3.1c0.8,0.8,2.1,1.3,3.8,1.7c1.7,0.3,3.8,0.5,6.2,0.5c2.4,0,4.8-0.1,6.9-0.4
		c2.2-0.3,3.9-0.5,5.1-0.8c0.2,0,0.5,0,0.7,0.2c0.2,0.2,0.3,0.4,0.3,0.8c0,0.4-0.1,0.8-0.3,1.3c-0.2,0.5-0.4,0.9-0.7,1.4
		c-0.3,0.5-0.6,0.9-1,1.3c-0.4,0.4-0.7,0.7-1.1,0.9c-0.7,0.4-2.1,0.7-4,1c-2,0.3-4.5,0.4-7.5,0.4c-3.5,0-6.3-0.3-8.5-0.9
		c-2.2-0.6-4-1.5-5.2-2.6c-0.7-0.6-1.4-1.4-1.9-2.2c-0.6-0.9-1-1.9-1.4-3.1c-0.4-1.2-0.7-2.7-0.9-4.3
		C166.7,39.4,166.6,37.5,166.6,35.2z M184.4,21.1c-3.5,0-6,0.7-7.6,2c-0.5,0.4-0.9,0.9-1.2,1.5c-0.3,0.6-0.6,1.2-0.8,1.9
		c-0.2,0.7-0.4,1.3-0.5,2c-0.1,0.7-0.2,1.3-0.2,1.9c0,0.5,0.1,0.9,0.4,1c0.3,0.1,0.9,0.2,1.9,0.2h13.3c0.9,0,1.7,0,2.3,0
		c0.6,0,1-0.1,1.2-0.3c0.2-0.2,0.4-0.5,0.4-0.7c0-0.2,0.1-0.5,0.1-0.9c0-1.5-0.2-2.9-0.5-4.2c-0.4-1.3-0.9-2.2-1.7-2.8
		c-0.6-0.5-1.5-0.9-2.6-1.2C187.7,21.2,186.2,21.1,184.4,21.1z"/>
	<path class="st1" d="M218.9,52.8c0,0.6-0.3,0.9-0.9,0.9h-2.7c-1.3,0-2.2-0.2-2.7-0.6c-0.5-0.4-0.8-1.3-0.8-2.6V1.2
		c0-0.7,0.3-1,0.9-1h5.5c0.4,0,0.6,0.4,0.6,1.1V52.8z"/>
	<path class="st1" d="M240.4,4.8c0,1.6-0.3,2.7-1,3.2c-0.5,0.3-1.1,0.5-1.8,0.6c-0.7,0.1-1.3,0.1-1.8,0.1c-1.8,0-3-0.2-3.6-0.7
		c-0.6-0.4-0.9-1.4-0.9-2.9c0-1.7,0.3-2.8,1-3.2c0.4-0.3,0.9-0.5,1.5-0.6c0.6-0.1,1.3-0.2,2.2-0.2c0.8,0,1.5,0,2.2,0.1
		c0.6,0.1,1.1,0.3,1.3,0.6c0.3,0.2,0.6,0.6,0.7,1.2S240.4,4.1,240.4,4.8z M239.3,52.7c0,0.7-0.3,1-0.9,1h-5.5
		c-0.4,0-0.6-0.1-0.7-0.2c-0.1-0.1-0.1-0.4-0.1-0.8V17.1c0-0.7,0.4-1,1.1-1h5.3c0.4,0,0.6,0.1,0.7,0.2c0.1,0.1,0.1,0.4,0.1,0.8V52.7
		z"/>
	<path class="st1" d="M286.5,52.8c0,0.6-0.3,0.9-0.9,0.9h-4.4c-0.8,0-1.3-0.2-1.5-0.5c-0.2-0.3-0.3-0.9-0.3-1.7V31.5
		c0-2.3-0.1-4-0.4-5.1c-0.3-1.1-0.7-2-1.2-2.7c-0.6-0.7-1.5-1.2-2.7-1.5c-1.2-0.3-2.8-0.5-5-0.5c-1.9,0-3.5,0-4.8,0.1
		c-1.3,0.1-2.5,0.2-3.6,0.3c-0.8,0.1-1.3,0.3-1.5,0.6c-0.2,0.3-0.3,1.1-0.3,2.2v27.7c0,0.7-0.3,1-0.9,1h-5.3c-0.6,0-0.9-0.3-0.9-1
		V17.9c0-0.5,0.3-0.9,1-1c2-0.2,4.5-0.5,7.5-0.8s6-0.4,9.2-0.4c3.8,0,6.7,0.3,8.7,0.8c2,0.5,3.6,1.3,4.7,2.4c1,1,1.6,2.3,2.1,4
		c0.4,1.6,0.6,4,0.6,7.1V52.8z"/>
	<path class="st1" d="M318,15.7c3,0,5.7,0.1,8.1,0.3c2.4,0.2,4.3,0.3,5.6,0.5c0.6,0,0.9,0.4,0.9,1.1c0,5.8-0.4,10.3-1.3,13.6
		c-0.9,3.3-2.1,5.7-3.6,7.1c-0.6,0.5-1.2,0.9-2,1.4c-0.7,0.4-1.7,0.8-2.9,1.1c-1.2,0.3-2.6,0.6-4.3,0.8c-1.7,0.2-3.8,0.3-6.2,0.4
		c-1.9,0-3.2,0-4,0.1c-0.8,0.1-1.4,0.2-1.7,0.4c-0.2,0.2-0.4,0.8-0.5,1.8c-0.1,1-0.2,2.1-0.2,3.2c0,0.9,0.4,1.3,1.2,1.3
		c0.4,0,1.1,0,1.9,0c0.8,0,1.8,0,2.8,0c1.1,0,2.2,0,3.3-0.1c1.2,0,2.3,0,3.4,0c2.2,0,4,0,5.5,0.1c1.5,0.1,2.8,0.2,3.8,0.3
		c1,0.1,1.8,0.3,2.4,0.5c0.6,0.2,1.1,0.4,1.5,0.6c0.7,0.5,1.2,1.4,1.7,2.5c0.4,1.2,0.6,2.8,0.6,4.9c0,2.6-0.4,4.8-1.1,6.7
		c-0.7,1.8-1.6,3.2-2.6,4.1c-1.2,1.1-3.1,1.9-5.7,2.5c-2.5,0.6-6.1,0.9-10.7,0.9c-3.8,0-6.7-0.1-8.9-0.4c-2.1-0.3-3.6-0.6-4.4-1
		c-0.4-0.2-0.8-0.6-1.2-1c-0.4-0.5-0.7-0.9-0.9-1.4c-0.3-0.5-0.5-1-0.6-1.5c-0.1-0.5-0.2-0.9-0.2-1.2c0-0.3,0.1-0.6,0.4-0.7
		c0.2-0.1,0.5-0.2,0.9-0.1c1.7,0.2,3.8,0.5,6.4,0.8c2.6,0.3,5.4,0.4,8.4,0.4c3.6,0,6.3-0.2,8.1-0.5c1.8-0.3,2.9-0.7,3.4-1.1
		c0.5-0.4,0.9-1,1.3-1.9c0.3-0.9,0.5-1.9,0.5-3.1c0-1-0.1-1.7-0.4-2.3c-0.3-0.6-0.5-0.9-0.8-1.2c-0.2-0.1-0.5-0.3-0.8-0.4
		c-0.4-0.1-0.9-0.2-1.7-0.3c-0.8-0.1-1.8-0.1-3.2-0.1c-1.3,0-3,0-5.1,0c-1.2,0-2.5,0-3.9,0c-1.4,0-2.7,0-4,0.1
		c-1.3,0-2.6,0.1-3.8,0.1c-1.2,0-2.3,0.1-3.3,0.1c-0.3,0-0.5-0.1-0.7-0.2c-0.2-0.1-0.3-0.4-0.3-0.8c0-1.2,0-2.4,0.1-3.6
		c0.1-1.3,0.2-2.5,0.3-3.6c0.1-1.2,0.2-2.2,0.3-3.1c0.1-0.9,0.1-1.6,0.1-2.1c0-1.4-0.2-3.1-0.6-5.1c-0.4-2-0.6-4.5-0.6-7.5
		c0-2.5,0.3-4.5,0.8-6.2c0.5-1.6,1.3-2.9,2.3-3.8c0.6-0.5,1.3-0.9,2.1-1.3c0.8-0.4,1.9-0.7,3.1-1c1.3-0.3,2.8-0.5,4.6-0.6
		C313.4,15.8,315.5,15.7,318,15.7z M305.6,28.9c0,1.6,0.1,3.1,0.4,4.4c0.3,1.3,0.5,2,0.8,2.3s0.8,0.4,1.8,0.4c0.9,0,2,0.1,3.3,0.1
		c1.7,0,3.1-0.1,4.4-0.2c1.2-0.1,2.3-0.3,3.1-0.5s1.6-0.5,2.1-0.7c0.6-0.3,1-0.5,1.3-0.8c0.9-0.7,1.6-1.9,2.2-3.6
		c0.6-1.7,0.9-3.9,0.9-6.7c0-0.5-0.1-0.9-0.3-1.3c-0.2-0.3-0.6-0.5-1.3-0.6c-1-0.1-1.9-0.2-2.9-0.3c-1-0.1-2.3-0.1-4-0.1
		c-2.9,0-5.1,0.2-6.7,0.5c-1.6,0.3-2.7,0.7-3.3,1.3c-0.5,0.6-0.9,1.4-1.2,2.2S305.6,27.5,305.6,28.9z"/>
</g>
</svg>
