<?xml version="1.0" encoding="utf-8"?>
<!-- Generator: Adobe Illustrator 24.0.2, SVG Export Plug-In . SVG Version: 6.00 Build 0)  -->
<svg version="1.1"
	 id="Layer_1" xmlns:krita="http://krita.org/namespaces/svg/krita" xmlns:sodipodi="http://sodipodi.sourceforge.net/DTD/sodipodi-0.dtd"
	 xmlns="http://www.w3.org/2000/svg" xmlns:xlink="http://www.w3.org/1999/xlink" x="0px" y="0px" viewBox="0 0 527.6 54.3"
	 style="enable-background:new 0 0 527.6 54.3;" xml:space="preserve">
<style type="text/css">
	.st0{fill:#E8ECD7;}
</style>
<g>
	<path class="st0" d="M27.7,14c0,2.4-0.4,4.6-1.1,6.5c-0.7,1.9-1.6,3.2-2.7,3.9c-0.9,0.7-2.1,1.1-3.6,1.4c-1.5,0.3-3.5,0.4-5.9,0.4
		H6.7c-0.4,0-0.7,0.1-0.9,0.3c-0.2,0.2-0.3,0.6-0.3,1.1v12c0,0.5-0.1,0.8-0.2,1c-0.1,0.2-0.4,0.3-0.9,0.3H0.7
		c-0.3,0-0.5-0.1-0.6-0.2C0,40.6,0,40.4,0,40.2V4.1c0-0.3,0.1-0.5,0.2-0.6c0.1-0.1,0.3-0.2,0.5-0.2c1.9-0.1,3.8-0.1,5.9-0.2
		C8.7,3,10.9,3,13.1,3c1.8,0,3.3,0,4.5,0.1c1.2,0.1,2.3,0.2,3.1,0.3c0.9,0.1,1.6,0.3,2.1,0.5c0.5,0.2,1,0.5,1.5,0.8
		c0.4,0.3,0.9,0.7,1.3,1.2C26,6.4,26.4,7,26.7,7.7c0.3,0.7,0.6,1.6,0.8,2.7C27.6,11.4,27.7,12.6,27.7,14z M22,14.5
		c0-1.7-0.2-2.9-0.5-3.8c-0.4-0.9-0.8-1.5-1.4-1.9c-0.2-0.1-0.5-0.3-0.9-0.4c-0.4-0.1-0.8-0.3-1.3-0.3c-0.5-0.1-1.2-0.1-2-0.2
		c-0.8-0.1-1.7-0.1-2.9-0.1c-1.3,0-2.6,0-3.8,0c-1.2,0-2.1,0-2.9,0.1C6.2,7.9,5.9,8,5.7,8.1C5.6,8.2,5.5,8.5,5.5,8.9v11.5
		c0,0.5,0.1,0.8,0.2,1c0.1,0.2,0.5,0.3,1,0.3h7.1c1.6,0,2.8,0,3.6-0.1c0.8-0.1,1.4-0.3,1.9-0.5c0.7-0.4,1.3-1.1,1.9-2.2
		S22,16.4,22,14.5z"/>
	<path class="st0" d="M35.1,13c0-0.5,0.3-0.8,0.8-0.9c1.5-0.2,3.2-0.4,5-0.5c1.8-0.2,3.6-0.3,5.2-0.3c1.5,0,2.8,0,3.9,0.1
		c1.1,0.1,1.9,0.2,2.4,0.5c0.6,0.3,1,0.8,1.4,1.6c0.4,0.8,0.6,1.5,0.6,2.3c0,0.2-0.1,0.4-0.2,0.5c-0.1,0.1-0.3,0.2-0.5,0.1
		c-0.7-0.1-1.6-0.1-2.7-0.2c-1.1-0.1-2.1-0.1-3-0.1c-1,0-1.9,0-2.9,0.1c-1,0-1.9,0.1-2.7,0.2c-0.3,0.1-0.6,0.1-0.8,0.2
		c-0.2,0.1-0.4,0.2-0.5,0.3c-0.1,0.1-0.2,0.4-0.3,0.6c0,0.3-0.1,0.6-0.1,1.1v21.4c0,0.5-0.3,0.8-0.8,0.8h-4c-0.5,0-0.7-0.3-0.7-0.8
		V13z"/>
	<path class="st0" d="M87,25.9c0,3.4-0.4,6.2-1.2,8.4C85,36.4,84,38,82.9,38.9c-1,0.8-2.3,1.4-4.1,1.9c-1.7,0.5-3.9,0.8-6.6,0.8
		c-2.6,0-4.8-0.3-6.5-0.9c-1.7-0.6-3.1-1.3-4-2.2c-0.9-0.9-1.7-2.2-2.4-4c-0.7-1.8-1-4.4-1-7.7c0-3.4,0.4-6.2,1.2-8.3
		c0.8-2.1,1.8-3.6,3.1-4.6c1-0.8,2.4-1.4,4.1-1.9c1.7-0.5,3.9-0.7,6.5-0.7c2.7,0,4.9,0.2,6.6,0.7c1.7,0.5,3,1.2,3.9,2.1
		c0.4,0.4,0.9,1,1.3,1.6c0.4,0.6,0.7,1.4,1.1,2.4c0.3,1,0.6,2.1,0.8,3.4C86.9,22.7,87,24.2,87,25.9z M81.6,26.2
		c0-2.4-0.2-4.3-0.6-5.5c-0.4-1.3-0.9-2.2-1.6-3c-1-1.2-3.2-1.8-6.4-1.8c-1.7,0-3.1,0.2-4.2,0.5c-1.1,0.3-1.9,0.8-2.5,1.3
		c-0.7,0.6-1.3,1.7-1.8,3.1c-0.5,1.4-0.8,3.3-0.8,5.8c0,2.1,0.2,3.9,0.6,5.3c0.4,1.4,0.9,2.5,1.6,3.2c0.6,0.6,1.5,1.1,2.7,1.4
		c1.2,0.3,2.4,0.4,3.8,0.4c3.1,0,5.2-0.5,6.4-1.5c0.7-0.6,1.4-1.6,1.9-3.1C81.3,30.8,81.6,28.7,81.6,26.2z"/>
	<path class="st0" d="M102.1,2.9c0,1.3-0.3,2.1-0.8,2.5c-0.4,0.3-0.8,0.5-1.4,0.5c-0.5,0-1,0.1-1.4,0.1c-1.5,0-2.4-0.2-2.8-0.6
		c-0.3-0.2-0.4-0.5-0.5-0.9c-0.1-0.4-0.1-0.8-0.1-1.4c0-1.4,0.3-2.2,0.8-2.5c0.3-0.2,0.6-0.4,1.1-0.5C97.5,0,98.1,0,98.7,0
		c0.6,0,1.2,0,1.7,0.1c0.5,0.1,0.8,0.2,1,0.4C101.9,0.9,102.1,1.7,102.1,2.9z M101.2,47.5c0,0.7,0,1.3-0.1,1.8
		c0,0.5-0.1,0.9-0.1,1.2c-0.1,0.3-0.1,0.6-0.2,0.8c-0.1,0.2-0.2,0.4-0.3,0.7c-0.2,0.3-0.4,0.6-0.8,0.9c-0.3,0.3-0.7,0.6-1.1,0.8
		c-0.4,0.2-0.8,0.4-1.1,0.5c-0.4,0.1-0.7,0.2-1,0.2c-0.6,0-0.8-0.3-0.8-1V12.5c0-0.5,0.2-0.8,0.7-0.8h4.2c0.4,0,0.7,0.3,0.7,0.8
		V47.5z"/>
	<path class="st0" d="M110.1,26.5c0-3.3,0.4-6,1.2-8.1c0.8-2.1,1.8-3.6,3-4.6c1-0.8,2.3-1.5,3.9-1.9c1.6-0.5,3.7-0.7,6.2-0.7
		c2.4,0,4.4,0.2,5.8,0.6c1.4,0.4,2.6,1,3.4,1.7c0.5,0.4,0.9,1,1.3,1.6c0.4,0.6,0.7,1.4,1,2.4c0.3,1,0.5,2.2,0.7,3.6
		c0.2,1.4,0.3,3,0.3,4.9c0,0.7-0.1,1.2-0.3,1.5c-0.2,0.3-0.6,0.4-1.1,0.4h-17.7c-0.8,0-1.3,0.1-1.6,0.2c-0.2,0.2-0.3,0.4-0.3,0.8
		c0,1.3,0.1,2.5,0.4,3.4c0.3,1,0.8,1.8,1.5,2.4c0.6,0.6,1.6,1,2.9,1.3c1.3,0.3,2.9,0.4,4.8,0.4c1.9,0,3.7-0.1,5.4-0.3
		c1.7-0.2,3-0.4,4-0.6c0.2,0,0.4,0,0.5,0.1c0.2,0.1,0.3,0.3,0.3,0.6c0,0.3-0.1,0.6-0.2,1c-0.1,0.4-0.3,0.7-0.5,1.1
		c-0.2,0.4-0.5,0.7-0.8,1c-0.3,0.3-0.6,0.6-0.9,0.7c-0.6,0.3-1.6,0.6-3.1,0.8c-1.5,0.2-3.5,0.3-5.8,0.3c-2.7,0-4.9-0.2-6.6-0.7
		c-1.7-0.5-3.1-1.1-4.1-2c-0.6-0.5-1.1-1.1-1.5-1.7c-0.4-0.7-0.8-1.5-1.1-2.4c-0.3-1-0.6-2.1-0.7-3.3
		C110.2,29.8,110.1,28.3,110.1,26.5z M123.9,15.6c-2.7,0-4.6,0.5-5.9,1.6c-0.4,0.3-0.7,0.7-1,1.1c-0.3,0.5-0.5,1-0.6,1.5
		c-0.2,0.5-0.3,1-0.4,1.6c-0.1,0.5-0.1,1-0.1,1.5c0,0.4,0.1,0.7,0.3,0.8c0.2,0.1,0.7,0.2,1.5,0.2h10.4c0.7,0,1.3,0,1.8,0
		c0.5,0,0.8-0.1,0.9-0.2c0.2-0.2,0.3-0.4,0.3-0.6c0-0.2,0.1-0.4,0.1-0.7c0-1.2-0.1-2.3-0.4-3.3c-0.3-1-0.7-1.7-1.3-2.2
		c-0.5-0.4-1.2-0.7-2-0.9C126.5,15.7,125.3,15.6,123.9,15.6z"/>
	<path class="st0" d="M166.2,12.2c0.6,0.3,1,0.9,1.3,1.6c0.3,0.7,0.5,1.3,0.5,1.8c0,0.3-0.1,0.6-0.4,0.8c-0.2,0.2-0.5,0.3-0.6,0.2
		c-1-0.1-2.1-0.2-3.3-0.3s-2.6-0.2-4.2-0.2c-2.1,0-3.8,0.1-5,0.4c-1.2,0.3-2.1,0.7-2.7,1.2c-0.7,0.6-1.3,1.6-1.8,3
		c-0.5,1.4-0.7,3.2-0.7,5.5c0,2.6,0.2,4.5,0.5,5.8c0.4,1.3,0.9,2.2,1.7,2.9c1.3,1.1,3.9,1.7,7.7,1.7c1.9,0,3.5-0.1,4.7-0.3
		c1.3-0.2,2.3-0.3,3.3-0.4c0.2-0.1,0.4,0,0.6,0.1c0.2,0.1,0.3,0.3,0.3,0.6c0,0.3-0.1,0.6-0.2,0.9c-0.1,0.4-0.3,0.7-0.5,1.1
		c-0.2,0.4-0.4,0.7-0.7,1.1c-0.3,0.3-0.5,0.6-0.8,0.7c-0.5,0.3-1.5,0.6-2.9,0.8c-1.4,0.2-3.2,0.3-5.3,0.3c-2.7,0-4.8-0.2-6.4-0.7
		c-1.6-0.5-2.9-1.1-3.9-2c-1.1-0.9-2-2.3-2.6-4.2c-0.7-1.9-1-4.5-1-8c0-3.2,0.4-5.9,1.2-7.9c0.8-2,1.8-3.6,3-4.6c1-0.9,2.3-1.5,4-2
		c1.7-0.5,4-0.7,6.8-0.7C162.7,11.2,165.1,11.5,166.2,12.2z"/>
	<path class="st0" d="M176.3,7.7c0-0.7,0-1.3,0.1-1.7c0.1-0.4,0.2-0.7,0.3-0.9c0.2-0.3,0.7-0.5,1.3-0.8c0.7-0.2,1.6-0.4,2.7-0.6
		c0.2,0,0.4,0,0.6,0.2c0.2,0.2,0.3,0.4,0.3,0.7v4c0,0.7,0,1.3,0.1,1.7s0.2,0.7,0.4,0.9c0.2,0.2,0.5,0.3,0.9,0.4
		c0.4,0.1,1,0.1,1.6,0.1h9c0.6,0,0.8,0.2,0.8,0.7c0,0.3-0.1,0.7-0.3,1.1c-0.2,0.4-0.4,0.7-0.6,1.1s-0.5,0.6-0.7,0.9
		c-0.2,0.2-0.4,0.4-0.6,0.5c-0.3,0.1-0.6,0.2-0.9,0.3c-0.3,0-0.7,0.1-1.3,0.1h-6c-1.1,0-1.8,0.1-2.1,0.4c-0.3,0.3-0.4,1-0.4,2.1
		v11.9c0,1.6,0.1,2.7,0.3,3.4c0.2,0.7,0.4,1.2,0.8,1.5c0.4,0.3,0.9,0.6,1.7,0.7c0.8,0.1,1.8,0.2,3.2,0.2c1.1,0,2.1,0,3.1-0.1
		c0.9-0.1,1.7-0.2,2.4-0.3c0.2,0,0.4,0,0.6,0.1c0.2,0.1,0.3,0.3,0.3,0.5c0,0.3-0.1,0.7-0.2,1c-0.1,0.4-0.3,0.7-0.6,1
		s-0.5,0.6-0.8,0.9c-0.3,0.3-0.6,0.5-0.8,0.6c-0.4,0.2-1.1,0.4-2,0.6c-0.9,0.1-2.3,0.2-4.1,0.2c-2,0-3.6-0.1-4.8-0.4
		c-1.2-0.3-2.1-0.7-2.7-1.3c-0.3-0.3-0.6-0.6-0.8-1c-0.2-0.4-0.4-0.9-0.5-1.4c-0.1-0.6-0.2-1.2-0.3-2s-0.1-1.8-0.1-3V18.7
		c0-1.2-0.1-1.9-0.4-2.1c-0.3-0.2-0.9-0.4-1.7-0.4h-2.4c-0.2,0-0.4-0.1-0.5-0.2c-0.1-0.1-0.1-0.3-0.1-0.4c0-0.3,0.1-0.7,0.2-1.1
		s0.3-0.8,0.4-1.1s0.3-0.6,0.5-0.9c0.2-0.3,0.4-0.4,0.6-0.6c0.4-0.2,0.9-0.3,1.5-0.3h0.8c0.8,0,1.2-0.5,1.2-1.6V7.7z"/>
	<path class="st0" d="M245.9,21.6c0,4.4-0.5,8-1.6,10.8c-1.1,2.7-2.4,4.7-3.9,5.7c-1.3,1-3.1,1.8-5.3,2.3c-2.3,0.5-5.1,0.7-8.5,0.7
		c-2.2,0-4.4,0-6.4-0.1c-2,0-3.9-0.1-5.5-0.2c-0.3,0-0.5-0.1-0.8-0.3c-0.3-0.2-0.4-0.5-0.4-1.1V4.4c0-0.5,0.1-0.8,0.4-0.9
		c0.3-0.1,0.5-0.2,0.7-0.1c1.7-0.1,3.6-0.1,5.7-0.2c2.1-0.1,4.4-0.1,6.9-0.1c2.1,0,3.8,0.1,5.3,0.2c1.5,0.1,2.8,0.3,4,0.6
		c1.1,0.3,2.1,0.6,2.9,1c0.8,0.4,1.5,0.8,2.2,1.4c1.2,1,2.2,2.7,3.1,5.2S245.9,17.2,245.9,21.6z M239.9,21.8c0-3.3-0.3-5.9-0.8-7.7
		c-0.6-1.8-1.3-3.2-2.2-4.1c-0.9-0.8-2.2-1.4-3.9-1.6C231.3,8.1,229.3,8,227,8c-1.2,0-2.4,0-3.7,0.1c-1.3,0-2.3,0.1-3.1,0.1
		c-0.6,0.1-1,0.2-1.1,0.4c-0.1,0.2-0.2,0.5-0.2,1.1v24.9c0,0.5,0.1,0.9,0.4,1.1c0.2,0.2,0.6,0.3,1.1,0.3c1.5,0.1,3.8,0.2,6.9,0.2
		c2.5,0,4.4-0.2,5.8-0.5s2.4-0.8,3.2-1.3c0.9-0.7,1.7-2.1,2.5-4.1C239.5,28.1,239.9,25.3,239.9,21.8z"/>
	<path class="st0" d="M253.2,26.5c0-3.3,0.4-6,1.2-8.1c0.8-2.1,1.8-3.6,3-4.6c1-0.8,2.3-1.5,3.9-1.9c1.6-0.5,3.7-0.7,6.2-0.7
		c2.4,0,4.4,0.2,5.8,0.6c1.4,0.4,2.6,1,3.4,1.7c0.5,0.4,0.9,1,1.3,1.6c0.4,0.6,0.7,1.4,1,2.4c0.3,1,0.5,2.2,0.7,3.6
		c0.2,1.4,0.3,3,0.3,4.9c0,0.7-0.1,1.2-0.3,1.5c-0.2,0.3-0.6,0.4-1.1,0.4h-17.7c-0.8,0-1.3,0.1-1.6,0.2c-0.2,0.2-0.3,0.4-0.3,0.8
		c0,1.3,0.1,2.5,0.4,3.4c0.3,1,0.8,1.8,1.5,2.4c0.6,0.6,1.6,1,2.9,1.3c1.3,0.3,2.9,0.4,4.8,0.4c1.9,0,3.7-0.1,5.4-0.3
		c1.7-0.2,3-0.4,4-0.6c0.2,0,0.4,0,0.5,0.1c0.2,0.1,0.3,0.3,0.3,0.6c0,0.3-0.1,0.6-0.2,1c-0.1,0.4-0.3,0.7-0.5,1.1
		c-0.2,0.4-0.5,0.7-0.8,1c-0.3,0.3-0.6,0.6-0.9,0.7c-0.6,0.3-1.6,0.6-3.1,0.8c-1.5,0.2-3.5,0.3-5.8,0.3c-2.7,0-4.9-0.2-6.6-0.7
		c-1.7-0.5-3.1-1.1-4.1-2c-0.6-0.5-1.1-1.1-1.5-1.7c-0.4-0.7-0.8-1.5-1.1-2.4c-0.3-1-0.6-2.1-0.7-3.3
		C253.3,29.8,253.2,28.3,253.2,26.5z M267.1,15.6c-2.7,0-4.6,0.5-5.9,1.6c-0.4,0.3-0.7,0.7-1,1.1c-0.3,0.5-0.5,1-0.6,1.5
		c-0.2,0.5-0.3,1-0.4,1.6c-0.1,0.5-0.1,1-0.1,1.5c0,0.4,0.1,0.7,0.3,0.8c0.2,0.1,0.7,0.2,1.5,0.2h10.4c0.7,0,1.3,0,1.8,0
		c0.5,0,0.8-0.1,0.9-0.2c0.2-0.2,0.3-0.4,0.3-0.6c0-0.2,0.1-0.4,0.1-0.7c0-1.2-0.1-2.3-0.4-3.3c-0.3-1-0.7-1.7-1.3-2.2
		c-0.5-0.4-1.2-0.7-2-0.9C269.6,15.7,268.5,15.6,267.1,15.6z"/>
	<path class="st0" d="M299.5,11.3c2.1,0,3.8,0.1,5.2,0.3c1.3,0.2,2.2,0.4,2.6,0.6c0.5,0.3,1,0.9,1.3,1.7c0.4,0.8,0.6,1.4,0.6,2
		c0,0.3-0.1,0.5-0.3,0.6c-0.2,0.1-0.3,0.2-0.5,0.1c-1.1-0.1-2.3-0.2-3.8-0.4c-1.4-0.1-3-0.2-4.6-0.2c-3.3,0-5.4,0.3-6.3,1
		c-0.4,0.3-0.7,0.7-0.9,1.3c-0.2,0.6-0.4,1.3-0.4,2c0,1,0.2,1.7,0.6,2.1c0.1,0.2,0.6,0.4,1.3,0.6c0.7,0.2,1.6,0.4,2.6,0.6
		c1,0.2,2.1,0.4,3.3,0.7c1.2,0.2,2.3,0.5,3.4,0.7c1.1,0.2,2,0.5,2.9,0.7c0.8,0.2,1.4,0.5,1.8,0.8c0.4,0.3,0.8,0.9,1,1.7
		c0.3,0.8,0.4,1.9,0.4,3.3c0,2.1-0.3,3.7-0.8,5c-0.5,1.3-1.2,2.2-1.9,2.8c-0.7,0.6-1.9,1.1-3.4,1.5c-1.5,0.4-3.7,0.6-6.6,0.6
		c-2.4,0-4.3-0.1-5.5-0.3c-1.2-0.2-2.1-0.4-2.6-0.8c-0.2-0.1-0.5-0.4-0.7-0.7c-0.2-0.3-0.5-0.7-0.6-1c-0.2-0.4-0.3-0.7-0.4-1
		c-0.1-0.3-0.2-0.6-0.2-0.8c0-0.3,0.1-0.5,0.3-0.6s0.3-0.2,0.5-0.1c1.2,0.2,2.6,0.4,4.1,0.5c1.5,0.2,3.2,0.3,5.2,0.3
		c1.5,0,2.8-0.1,3.8-0.3c1-0.2,1.7-0.4,2.1-0.7c0.4-0.3,0.7-0.7,1-1.2c0.2-0.5,0.4-1.2,0.4-2c0-1.1-0.2-1.8-0.7-2.1
		c-0.3-0.2-0.8-0.4-1.6-0.7c-0.8-0.2-1.7-0.5-2.7-0.7c-1-0.2-2.1-0.5-3.3-0.7c-1.2-0.2-2.3-0.5-3.3-0.7c-1-0.2-2-0.5-2.8-0.7
		c-0.8-0.2-1.4-0.5-1.7-0.8c-0.4-0.3-0.7-0.9-1-1.8c-0.2-0.9-0.3-1.7-0.3-2.6c0-2.2,0.3-3.9,0.8-5.2c0.5-1.3,1.2-2.3,2.1-3
		c0.7-0.7,1.9-1.2,3.5-1.6C294.8,11.5,296.9,11.3,299.5,11.3z"/>
	<path class="st0" d="M338.8,12.2c0.6,0.3,1,0.9,1.3,1.6c0.3,0.7,0.5,1.3,0.5,1.8c0,0.3-0.1,0.6-0.4,0.8c-0.2,0.2-0.5,0.3-0.6,0.2
		c-1-0.1-2.1-0.2-3.3-0.3c-1.2-0.1-2.6-0.2-4.2-0.2c-2.1,0-3.8,0.1-5,0.4c-1.2,0.3-2.1,0.7-2.7,1.2c-0.7,0.6-1.3,1.6-1.8,3
		c-0.5,1.4-0.7,3.2-0.7,5.5c0,2.6,0.2,4.5,0.5,5.8c0.4,1.3,0.9,2.2,1.7,2.9c1.3,1.1,3.9,1.7,7.7,1.7c1.9,0,3.5-0.1,4.7-0.3
		c1.3-0.2,2.3-0.3,3.3-0.4c0.2-0.1,0.4,0,0.6,0.1c0.2,0.1,0.3,0.3,0.3,0.6c0,0.3-0.1,0.6-0.2,0.9c-0.1,0.4-0.3,0.7-0.5,1.1
		c-0.2,0.4-0.4,0.7-0.7,1.1c-0.3,0.3-0.5,0.6-0.8,0.7c-0.5,0.3-1.5,0.6-2.9,0.8c-1.4,0.2-3.2,0.3-5.3,0.3c-2.7,0-4.8-0.2-6.4-0.7
		c-1.6-0.5-2.9-1.1-3.9-2c-1.1-0.9-2-2.3-2.6-4.2c-0.7-1.9-1-4.5-1-8c0-3.2,0.4-5.9,1.2-7.9c0.8-2,1.8-3.6,3-4.6c1-0.9,2.3-1.5,4-2
		c1.7-0.5,4-0.7,6.8-0.7C335.3,11.2,337.8,11.5,338.8,12.2z"/>
	<path class="st0" d="M347.6,13c0-0.5,0.3-0.8,0.8-0.9c1.5-0.2,3.2-0.4,5-0.5s3.6-0.3,5.2-0.3c1.5,0,2.8,0,3.9,0.1
		c1.1,0.1,1.9,0.2,2.4,0.5c0.6,0.3,1,0.8,1.4,1.6c0.4,0.8,0.6,1.5,0.6,2.3c0,0.2-0.1,0.4-0.2,0.5c-0.1,0.1-0.3,0.2-0.5,0.1
		c-0.7-0.1-1.6-0.1-2.7-0.2c-1.1-0.1-2.1-0.1-3-0.1c-1,0-1.9,0-2.9,0.1c-1,0-1.9,0.1-2.7,0.2c-0.3,0.1-0.6,0.1-0.8,0.2
		c-0.2,0.1-0.4,0.2-0.5,0.3s-0.2,0.4-0.3,0.6c0,0.3-0.1,0.6-0.1,1.1v21.4c0,0.5-0.3,0.8-0.8,0.8h-4c-0.5,0-0.7-0.3-0.7-0.8V13z"/>
	<path class="st0" d="M378.7,2.9c0,1.3-0.3,2.1-0.8,2.5c-0.4,0.3-0.8,0.4-1.4,0.5c-0.5,0.1-1,0.1-1.4,0.1c-1.4,0-2.3-0.2-2.8-0.6
		c-0.4-0.3-0.7-1.1-0.7-2.2c0-1.3,0.3-2.2,0.8-2.5c0.3-0.2,0.7-0.4,1.2-0.5c0.5-0.1,1-0.1,1.7-0.1c0.6,0,1.2,0,1.7,0.1
		c0.5,0.1,0.8,0.2,1,0.4c0.3,0.2,0.4,0.5,0.6,0.9C378.7,1.9,378.7,2.4,378.7,2.9z M377.9,40.2c0,0.5-0.2,0.8-0.7,0.8h-4.3
		c-0.3,0-0.5-0.1-0.5-0.2c-0.1-0.1-0.1-0.3-0.1-0.6V12.5c0-0.5,0.3-0.8,0.8-0.8h4.1c0.3,0,0.5,0.1,0.6,0.2c0.1,0.1,0.1,0.3,0.1,0.6
		V40.2z"/>
	<path class="st0" d="M389.6,11.9c0.6-0.1,1.3-0.2,2.2-0.3c0.9-0.1,1.8-0.2,2.8-0.3c1-0.1,2-0.1,3-0.2c1,0,2-0.1,2.9-0.1
		c1.7,0,3.2,0,4.5,0.1c1.3,0.1,2.3,0.2,3.2,0.4c0.9,0.2,1.7,0.5,2.3,0.8c0.6,0.3,1.1,0.7,1.6,1.1c1,0.9,1.8,2.2,2.4,4.1
		c0.6,1.8,0.9,4.4,0.9,7.7c0,3.5-0.4,6.3-1.1,8.4c-0.8,2.1-1.7,3.6-2.7,4.5c-0.9,0.9-2.3,1.5-4,2.1c-1.7,0.5-4,0.8-6.7,0.8
		c-1.1,0-2.2,0-3.2-0.1c-1,0-2-0.1-2.8-0.1c-0.3,0-0.6,0-0.8,0.1c-0.2,0.1-0.3,0.4-0.3,0.9v10.2c0,0.6-0.1,1-0.3,1.3
		c-0.2,0.2-0.6,0.4-1.1,0.4h-3.3c-0.3,0-0.5-0.1-0.6-0.2c-0.1-0.1-0.2-0.4-0.2-0.7V13.5c0-0.5,0.1-0.9,0.3-1.1
		C388.8,12.2,389.1,12,389.6,11.9z M410,25.9c0-2.6-0.2-4.5-0.6-5.8c-0.4-1.3-0.9-2.2-1.5-2.7c-0.6-0.5-1.5-0.9-2.5-1.1
		s-2.5-0.3-4.3-0.3c-1.4,0-2.6,0-3.6,0.1c-1,0.1-1.8,0.1-2.4,0.2c-0.5,0.1-0.8,0.2-1,0.5c-0.2,0.3-0.3,0.8-0.3,1.5V34
		c0,0.8,0.1,1.3,0.3,1.6c0.2,0.3,0.5,0.5,1,0.5c0.7,0.1,1.5,0.2,2.4,0.3c0.9,0,1.9,0.1,3,0.1c2,0,3.6-0.1,4.6-0.4
		c1.1-0.3,1.9-0.7,2.5-1.3c0.7-0.6,1.3-1.7,1.7-3.2C409.7,30.1,410,28.2,410,25.9z"/>
	<path class="st0" d="M425.5,7.7c0-0.7,0-1.3,0.1-1.7c0.1-0.4,0.2-0.7,0.3-0.9c0.2-0.3,0.7-0.5,1.3-0.8c0.7-0.2,1.6-0.4,2.7-0.6
		c0.2,0,0.4,0,0.6,0.2c0.2,0.2,0.3,0.4,0.3,0.7v4c0,0.7,0,1.3,0.1,1.7s0.2,0.7,0.4,0.9c0.2,0.2,0.5,0.3,0.9,0.4
		c0.4,0.1,1,0.1,1.6,0.1h9c0.6,0,0.8,0.2,0.8,0.7c0,0.3-0.1,0.7-0.3,1.1c-0.2,0.4-0.4,0.7-0.6,1.1c-0.2,0.3-0.5,0.6-0.7,0.9
		c-0.2,0.2-0.4,0.4-0.6,0.5c-0.3,0.1-0.6,0.2-0.9,0.3s-0.7,0.1-1.3,0.1h-6c-1.1,0-1.8,0.1-2.1,0.4c-0.3,0.3-0.4,1-0.4,2.1v11.9
		c0,1.6,0.1,2.7,0.3,3.4c0.2,0.7,0.4,1.2,0.8,1.5c0.4,0.3,0.9,0.6,1.7,0.7c0.8,0.1,1.8,0.2,3.2,0.2c1.1,0,2.1,0,3.1-0.1
		c0.9-0.1,1.7-0.2,2.4-0.3c0.2,0,0.4,0,0.6,0.1c0.2,0.1,0.3,0.3,0.3,0.5c0,0.3-0.1,0.7-0.2,1c-0.2,0.4-0.3,0.7-0.6,1
		s-0.5,0.6-0.8,0.9s-0.6,0.5-0.8,0.6c-0.4,0.2-1.1,0.4-2,0.6c-0.9,0.1-2.3,0.2-4.1,0.2c-2,0-3.6-0.1-4.8-0.4
		c-1.2-0.3-2.1-0.7-2.7-1.3c-0.3-0.3-0.6-0.6-0.8-1c-0.2-0.4-0.4-0.9-0.5-1.4c-0.1-0.6-0.2-1.2-0.3-2s-0.1-1.8-0.1-3V18.7
		c0-1.2-0.1-1.9-0.4-2.1c-0.3-0.2-0.9-0.4-1.7-0.4h-2.4c-0.2,0-0.4-0.1-0.5-0.2c-0.1-0.1-0.1-0.3-0.1-0.4c0-0.3,0.1-0.7,0.2-1.1
		s0.3-0.8,0.4-1.1s0.3-0.6,0.5-0.9c0.2-0.3,0.4-0.4,0.6-0.6c0.4-0.2,0.9-0.3,1.5-0.3h0.8c0.8,0,1.2-0.5,1.2-1.6V7.7z"/>
	<path class="st0" d="M455.8,2.9c0,1.3-0.3,2.1-0.8,2.5c-0.4,0.3-0.8,0.4-1.4,0.5c-0.5,0.1-1,0.1-1.4,0.1c-1.4,0-2.3-0.2-2.8-0.6
		c-0.4-0.3-0.7-1.1-0.7-2.2c0-1.3,0.3-2.2,0.8-2.5c0.3-0.2,0.7-0.4,1.2-0.5c0.5-0.1,1-0.1,1.7-0.1c0.6,0,1.2,0,1.7,0.1
		c0.5,0.1,0.8,0.2,1,0.4c0.3,0.2,0.4,0.5,0.6,0.9C455.8,1.9,455.8,2.4,455.8,2.9z M455,40.2c0,0.5-0.2,0.8-0.7,0.8H450
		c-0.3,0-0.5-0.1-0.5-0.2c-0.1-0.1-0.1-0.3-0.1-0.6V12.5c0-0.5,0.3-0.8,0.8-0.8h4.1c0.3,0,0.5,0.1,0.6,0.2c0.1,0.1,0.1,0.3,0.1,0.6
		V40.2z"/>
	<path class="st0" d="M492.6,25.9c0,3.4-0.4,6.2-1.2,8.4c-0.8,2.1-1.8,3.7-2.9,4.6c-1,0.8-2.3,1.4-4.1,1.9c-1.7,0.5-3.9,0.8-6.6,0.8
		c-2.6,0-4.8-0.3-6.5-0.9c-1.7-0.6-3.1-1.3-4-2.2c-0.9-0.9-1.7-2.2-2.4-4s-1-4.4-1-7.7c0-3.4,0.4-6.2,1.2-8.3
		c0.8-2.1,1.8-3.6,3.1-4.6c1-0.8,2.4-1.4,4.1-1.9c1.7-0.5,3.9-0.7,6.5-0.7c2.7,0,4.9,0.2,6.6,0.7s3,1.2,3.9,2.1
		c0.4,0.4,0.9,1,1.3,1.6c0.4,0.6,0.7,1.4,1.1,2.4c0.3,1,0.6,2.1,0.8,3.4C492.5,22.7,492.6,24.2,492.6,25.9z M487.1,26.2
		c0-2.4-0.2-4.3-0.6-5.5c-0.4-1.3-0.9-2.2-1.6-3c-1-1.2-3.2-1.8-6.4-1.8c-1.7,0-3.1,0.2-4.2,0.5c-1.1,0.3-1.9,0.8-2.5,1.3
		c-0.7,0.6-1.3,1.7-1.8,3.1c-0.5,1.4-0.8,3.3-0.8,5.8c0,2.1,0.2,3.9,0.6,5.3c0.4,1.4,0.9,2.5,1.6,3.2c0.6,0.6,1.5,1.1,2.7,1.4
		c1.2,0.3,2.4,0.4,3.8,0.4c3.1,0,5.2-0.5,6.4-1.5c0.7-0.6,1.4-1.6,1.9-3.1C486.9,30.8,487.1,28.7,487.1,26.2z"/>
	<path class="st0" d="M527.6,40.2c0,0.5-0.2,0.7-0.7,0.7h-3.4c-0.6,0-1-0.1-1.2-0.4c-0.2-0.3-0.3-0.7-0.3-1.3V23.6
		c0-1.8-0.1-3.1-0.3-4c-0.2-0.9-0.5-1.5-1-2.1c-0.5-0.5-1.2-0.9-2.1-1.1c-0.9-0.2-2.2-0.4-3.9-0.4c-1.5,0-2.7,0-3.7,0.1
		c-1,0.1-2,0.1-2.8,0.3c-0.6,0.1-1,0.2-1.2,0.5c-0.1,0.3-0.2,0.8-0.2,1.7v21.6c0,0.5-0.2,0.8-0.7,0.8H502c-0.5,0-0.7-0.3-0.7-0.8V13
		c0-0.4,0.3-0.7,0.8-0.8c1.6-0.2,3.5-0.4,5.8-0.6c2.3-0.2,4.7-0.3,7.1-0.3c2.9,0,5.2,0.2,6.8,0.6c1.6,0.4,2.8,1,3.7,1.9
		c0.7,0.8,1.3,1.8,1.6,3.1c0.3,1.3,0.5,3.1,0.5,5.5V40.2z"/>
</g>
</svg>
