<?xml version="1.0" encoding="utf-8"?>
<!-- Generator: Adobe Illustrator 24.0.2, SVG Export Plug-In . SVG Version: 6.00 Build 0)  -->
<svg version="1.1"
	 id="Layer_1" xmlns:krita="http://krita.org/namespaces/svg/krita" xmlns:sodipodi="http://sodipodi.sourceforge.net/DTD/sodipodi-0.dtd"
	 xmlns="http://www.w3.org/2000/svg" xmlns:xlink="http://www.w3.org/1999/xlink" x="0px" y="0px" viewBox="0 0 334 54.4"
	 style="enable-background:new 0 0 334 54.4;" xml:space="preserve">
<style type="text/css">
	.st0{enable-background:new    ;}
	.st1{fill:#E8ECD7;}
</style>
<g class="st0">
	<path class="st1" d="M35.6,18.9c0,3.1-0.5,5.9-1.4,8.3c-1,2.4-2.1,4.1-3.5,5.1c-1.1,0.9-2.6,1.5-4.6,1.8c-2,0.4-4.5,0.5-7.6,0.5
		H8.6c-0.5,0-0.9,0.1-1.2,0.4c-0.2,0.2-0.4,0.7-0.4,1.4V52c0,0.6-0.1,1-0.3,1.3c-0.2,0.2-0.6,0.3-1.2,0.3H0.9
		c-0.4,0-0.6-0.1-0.7-0.3C0,53.1,0,52.9,0,52.6V6.2c0-0.4,0.1-0.6,0.3-0.8c0.2-0.1,0.4-0.2,0.6-0.3C3.3,5,5.9,4.9,8.5,4.9
		s5.4-0.1,8.3-0.1c2.3,0,4.2,0,5.8,0.1s2.9,0.2,4,0.4c1.1,0.2,2,0.4,2.7,0.7c0.7,0.3,1.3,0.6,1.9,1c0.6,0.4,1.1,0.9,1.6,1.5
		c0.5,0.6,1,1.5,1.4,2.4c0.4,1,0.7,2.1,1,3.4C35.5,15.6,35.6,17.2,35.6,18.9z M28.3,19.6c0-2.2-0.2-3.8-0.7-4.9
		c-0.5-1.1-1-1.9-1.8-2.4c-0.3-0.2-0.7-0.4-1.1-0.6c-0.5-0.2-1-0.3-1.7-0.4c-0.7-0.1-1.5-0.2-2.5-0.3s-2.2-0.1-3.7-0.1
		c-1.7,0-3.3,0-4.8,0c-1.5,0-2.7,0-3.7,0.1c-0.4,0-0.8,0.2-1,0.3c-0.2,0.2-0.3,0.5-0.3,1v14.8c0,0.6,0.1,1,0.3,1.3
		c0.2,0.2,0.6,0.3,1.2,0.3h9.1c2.1,0,3.6-0.1,4.6-0.2s1.9-0.3,2.5-0.6c0.9-0.5,1.7-1.5,2.4-2.8C27.9,23.8,28.3,22,28.3,19.6z"/>
	<path class="st1" d="M45.1,17.6c0-0.6,0.3-1,1-1.2c1.9-0.2,4.1-0.5,6.4-0.7c2.4-0.2,4.6-0.3,6.7-0.3c2,0,3.7,0,5.1,0.1
		c1.4,0.1,2.5,0.3,3.1,0.6c0.7,0.4,1.3,1.1,1.8,2.1c0.5,1,0.7,2,0.7,2.9c0,0.3-0.1,0.5-0.3,0.7c-0.2,0.2-0.4,0.2-0.6,0.2
		c-0.9-0.1-2.1-0.2-3.5-0.3s-2.7-0.1-3.9-0.1c-1.2,0-2.5,0-3.7,0.1c-1.2,0-2.4,0.1-3.5,0.2c-0.4,0.1-0.8,0.2-1.1,0.3
		c-0.3,0.1-0.5,0.2-0.7,0.4c-0.2,0.2-0.3,0.5-0.3,0.8c0,0.3-0.1,0.8-0.1,1.4v27.6c0,0.7-0.3,1-1,1h-5.2c-0.6,0-0.9-0.3-0.9-1V17.6z"
		/>
	<path class="st1" d="M111.9,34.3c0,4.4-0.5,8-1.6,10.8c-1.1,2.8-2.3,4.7-3.7,5.9c-1.2,1-3,1.8-5.2,2.5c-2.2,0.6-5.1,1-8.5,1
		c-3.4,0-6.2-0.4-8.4-1.1c-2.2-0.7-3.9-1.7-5.1-2.8c-1.2-1.2-2.2-2.9-3-5.2C75.4,43,75,39.7,75,35.4c0-4.4,0.5-8,1.6-10.7
		c1.1-2.7,2.4-4.7,4-5.9c1.3-1,3.1-1.8,5.3-2.4c2.2-0.6,5-0.9,8.3-0.9c3.5,0,6.3,0.3,8.5,0.9c2.2,0.6,3.8,1.5,5,2.7
		c0.6,0.6,1.1,1.3,1.6,2.1c0.5,0.8,1,1.8,1.4,3.1c0.4,1.2,0.7,2.7,1,4.4C111.8,30.1,111.9,32.1,111.9,34.3z M104.9,34.6
		c0-3.1-0.2-5.5-0.7-7.1c-0.5-1.6-1.2-2.9-2-3.9c-1.3-1.6-4.1-2.4-8.3-2.4c-2.2,0-4,0.2-5.4,0.6c-1.4,0.4-2.5,1-3.2,1.7
		c-0.9,0.8-1.6,2.1-2.3,3.9c-0.6,1.8-1,4.3-1,7.5c0,2.7,0.2,5,0.7,6.9c0.5,1.8,1.2,3.2,2,4.1c0.8,0.8,2,1.4,3.5,1.8
		c1.5,0.4,3.1,0.5,4.9,0.5c3.9,0,6.7-0.6,8.3-1.9c1-0.7,1.8-2.1,2.5-4C104.6,40.5,104.9,37.9,104.9,34.6z"/>
	<path class="st1" d="M124.8,10.8c0-1,0-1.7,0.1-2.2c0.1-0.5,0.2-0.9,0.4-1.1c0.3-0.3,0.9-0.7,1.7-1c0.9-0.3,2-0.6,3.5-0.8
		c0.3,0,0.5,0,0.8,0.2c0.2,0.2,0.3,0.5,0.3,0.9V12c0,0.9,0,1.6,0.1,2.2s0.2,0.9,0.5,1.2c0.2,0.3,0.6,0.4,1.2,0.5
		c0.5,0.1,1.2,0.1,2.1,0.1h11.6c0.7,0,1.1,0.3,1.1,0.9c0,0.4-0.1,0.9-0.3,1.4c-0.2,0.5-0.5,0.9-0.8,1.4s-0.6,0.8-0.9,1.1
		c-0.3,0.3-0.6,0.5-0.8,0.6c-0.4,0.2-0.8,0.3-1.1,0.4c-0.4,0-0.9,0.1-1.6,0.1H135c-1.4,0-2.3,0.2-2.7,0.6c-0.4,0.4-0.6,1.3-0.6,2.7
		v15.3c0,2.1,0.1,3.5,0.3,4.4c0.2,0.9,0.5,1.5,1,1.9c0.5,0.4,1.2,0.7,2.2,0.9c1,0.2,2.4,0.3,4.1,0.3c1.4,0,2.7,0,3.9-0.1
		c1.2-0.1,2.2-0.2,3.1-0.4c0.2,0,0.5,0,0.7,0.2c0.2,0.2,0.4,0.4,0.4,0.7c0,0.4-0.1,0.9-0.3,1.3c-0.2,0.5-0.4,0.9-0.7,1.3
		s-0.6,0.8-1,1.2c-0.4,0.3-0.7,0.6-1,0.8c-0.5,0.3-1.4,0.5-2.6,0.7c-1.2,0.2-3,0.3-5.3,0.3c-2.5,0-4.6-0.2-6.1-0.6s-2.7-1-3.5-1.7
		c-0.4-0.4-0.7-0.8-1-1.3s-0.5-1.1-0.6-1.8c-0.2-0.7-0.3-1.6-0.4-2.6c-0.1-1-0.1-2.3-0.1-3.9V25c0-1.5-0.2-2.4-0.6-2.7
		c-0.4-0.3-1.1-0.5-2.2-0.5h-3.1c-0.3,0-0.5-0.1-0.6-0.3c-0.1-0.2-0.2-0.3-0.2-0.5c0-0.4,0.1-0.9,0.2-1.4c0.1-0.5,0.3-1,0.5-1.4
		c0.2-0.4,0.4-0.8,0.7-1.2c0.2-0.3,0.5-0.6,0.7-0.7c0.5-0.2,1.1-0.4,1.9-0.4h1.1c1,0,1.5-0.7,1.5-2V10.8z"/>
	<path class="st1" d="M190.5,34.3c0,4.4-0.5,8-1.6,10.8c-1.1,2.8-2.3,4.7-3.7,5.9c-1.2,1-3,1.8-5.2,2.5c-2.2,0.6-5.1,1-8.5,1
		c-3.4,0-6.2-0.4-8.4-1.1c-2.2-0.7-3.9-1.7-5.1-2.8c-1.2-1.2-2.2-2.9-3-5.2c-0.9-2.3-1.3-5.6-1.3-9.9c0-4.4,0.5-8,1.6-10.7
		c1.1-2.7,2.4-4.7,4-5.9c1.3-1,3.1-1.8,5.3-2.4c2.2-0.6,5-0.9,8.3-0.9c3.5,0,6.3,0.3,8.5,0.9c2.2,0.6,3.8,1.5,5,2.7
		c0.6,0.6,1.1,1.3,1.6,2.1c0.5,0.8,1,1.8,1.4,3.1c0.4,1.2,0.7,2.7,1,4.4C190.4,30.1,190.5,32.1,190.5,34.3z M183.5,34.6
		c0-3.1-0.2-5.5-0.7-7.1c-0.5-1.6-1.2-2.9-2-3.9c-1.3-1.6-4.1-2.4-8.3-2.4c-2.2,0-4,0.2-5.4,0.6c-1.4,0.4-2.5,1-3.2,1.7
		c-0.9,0.8-1.6,2.1-2.3,3.9c-0.6,1.8-1,4.3-1,7.5c0,2.7,0.2,5,0.7,6.9c0.5,1.8,1.2,3.2,2,4.1c0.8,0.8,2,1.4,3.5,1.8s3.1,0.5,4.9,0.5
		c3.9,0,6.7-0.6,8.3-1.9c1-0.7,1.8-2.1,2.5-4C183.2,40.5,183.5,37.9,183.5,34.6z"/>
	<path class="st1" d="M228.7,16.6c0.7,0.4,1.3,1.1,1.7,2c0.4,0.9,0.6,1.7,0.6,2.4c0,0.4-0.2,0.7-0.5,1c-0.3,0.3-0.6,0.3-0.8,0.3
		c-1.2-0.1-2.7-0.3-4.2-0.4c-1.6-0.1-3.4-0.2-5.4-0.2c-2.7,0-4.9,0.2-6.4,0.5c-1.6,0.4-2.7,0.9-3.5,1.5c-0.9,0.8-1.7,2.1-2.3,3.9
		c-0.6,1.8-0.9,4.1-0.9,7c0,3.3,0.2,5.8,0.7,7.4c0.5,1.6,1.2,2.9,2.1,3.7c1.7,1.4,5,2.2,9.9,2.2c2.4,0,4.5-0.1,6.1-0.3
		c1.6-0.2,3-0.4,4.2-0.5c0.2-0.1,0.5-0.1,0.7,0.1c0.2,0.2,0.4,0.4,0.4,0.8s-0.1,0.7-0.3,1.2c-0.2,0.5-0.4,0.9-0.6,1.4
		c-0.2,0.5-0.5,0.9-0.9,1.4c-0.3,0.4-0.7,0.7-1,0.9c-0.7,0.4-1.9,0.7-3.8,1c-1.8,0.3-4.1,0.4-6.9,0.4c-3.5,0-6.2-0.3-8.2-0.9
		c-2-0.6-3.7-1.5-5-2.6c-1.4-1.2-2.5-3-3.4-5.4c-0.9-2.4-1.3-5.8-1.3-10.2c0-4.2,0.5-7.6,1.6-10.2c1.1-2.6,2.4-4.6,3.9-6
		c1.2-1.1,3-2,5.2-2.6c2.2-0.6,5.1-0.9,8.7-0.9C224.2,15.3,227.4,15.8,228.7,16.6z"/>
	<path class="st1" d="M274.9,34.3c0,4.4-0.5,8-1.6,10.8c-1.1,2.8-2.3,4.7-3.7,5.9c-1.2,1-3,1.8-5.2,2.5c-2.2,0.6-5.1,1-8.5,1
		c-3.4,0-6.2-0.4-8.4-1.1c-2.2-0.7-3.9-1.7-5.1-2.8c-1.2-1.2-2.2-2.9-3-5.2c-0.9-2.3-1.3-5.6-1.3-9.9c0-4.4,0.5-8,1.6-10.7
		c1.1-2.7,2.4-4.7,4-5.9c1.3-1,3.1-1.8,5.3-2.4c2.2-0.6,5-0.9,8.3-0.9c3.5,0,6.3,0.3,8.5,0.9c2.2,0.6,3.8,1.5,5,2.7
		c0.6,0.6,1.1,1.3,1.6,2.1c0.5,0.8,1,1.8,1.4,3.1c0.4,1.2,0.7,2.7,1,4.4C274.8,30.1,274.9,32.1,274.9,34.3z M267.9,34.6
		c0-3.1-0.2-5.5-0.7-7.1c-0.5-1.6-1.2-2.9-2-3.9c-1.3-1.6-4.1-2.4-8.3-2.4c-2.2,0-4,0.2-5.4,0.6c-1.4,0.4-2.5,1-3.2,1.7
		c-0.9,0.8-1.6,2.1-2.3,3.9c-0.6,1.8-1,4.3-1,7.5c0,2.7,0.2,5,0.7,6.9c0.5,1.8,1.2,3.2,2,4.1c0.8,0.8,2,1.4,3.5,1.8s3.1,0.5,4.9,0.5
		c3.9,0,6.7-0.6,8.3-1.9c1-0.7,1.8-2.1,2.5-4C267.6,40.5,267.9,37.9,267.9,34.6z"/>
	<path class="st1" d="M293.3,52.6c0,0.6-0.3,0.9-0.9,0.9h-2.7c-1.3,0-2.2-0.2-2.7-0.6c-0.5-0.4-0.8-1.3-0.8-2.6V1c0-0.7,0.3-1,0.9-1
		h5.5c0.4,0,0.6,0.4,0.6,1.1V52.6z"/>
	<path class="st1" d="M320.9,15.5c2.7,0,4.9,0.1,6.6,0.3c1.7,0.2,2.8,0.5,3.3,0.8c0.7,0.4,1.2,1.1,1.7,2.1c0.5,1,0.7,1.8,0.7,2.6
		c0,0.3-0.1,0.6-0.3,0.8c-0.2,0.2-0.4,0.2-0.7,0.2c-1.4-0.1-3-0.3-4.8-0.5c-1.8-0.2-3.8-0.3-6-0.3c-4.2,0-6.9,0.4-8.1,1.2
		c-0.5,0.4-0.9,0.9-1.2,1.7c-0.3,0.7-0.5,1.6-0.5,2.6c0,1.3,0.2,2.2,0.7,2.7c0.2,0.2,0.8,0.5,1.7,0.7c1,0.2,2.1,0.5,3.4,0.8
		s2.7,0.6,4.2,0.9c1.5,0.3,3,0.6,4.4,0.9c1.4,0.3,2.6,0.6,3.7,0.9c1.1,0.3,1.8,0.6,2.3,1c0.5,0.4,1,1.2,1.3,2.2
		c0.4,1.1,0.5,2.5,0.5,4.2c0,2.6-0.3,4.8-1,6.4c-0.7,1.6-1.5,2.8-2.4,3.6c-1,0.8-2.4,1.5-4.4,2c-2,0.5-4.8,0.8-8.5,0.8
		c-3.1,0-5.5-0.1-7.1-0.4c-1.6-0.2-2.7-0.6-3.4-1c-0.3-0.2-0.6-0.5-0.9-0.9c-0.3-0.4-0.6-0.9-0.8-1.3c-0.2-0.5-0.4-0.9-0.6-1.3
		c-0.1-0.4-0.2-0.8-0.2-1.1c0-0.4,0.1-0.7,0.3-0.8c0.2-0.2,0.4-0.2,0.7-0.2c1.5,0.2,3.3,0.5,5.3,0.7c2,0.2,4.2,0.3,6.6,0.3
		c2,0,3.6-0.1,4.9-0.3s2.2-0.5,2.7-0.9c0.5-0.4,0.9-0.9,1.3-1.6c0.3-0.7,0.5-1.5,0.5-2.5c0-1.4-0.3-2.4-0.9-2.7
		c-0.3-0.3-1-0.6-2-0.9c-1-0.3-2.2-0.6-3.5-0.9c-1.3-0.3-2.7-0.6-4.2-0.9c-1.5-0.3-2.9-0.6-4.3-0.9c-1.3-0.3-2.5-0.6-3.6-0.9
		c-1-0.3-1.7-0.6-2.1-1c-0.5-0.4-0.9-1.1-1.2-2.3c-0.3-1.1-0.4-2.2-0.4-3.3c0-2.8,0.3-5,1-6.7c0.7-1.7,1.6-2.9,2.7-3.9
		c1-0.9,2.5-1.5,4.5-2.1C314.9,15.7,317.6,15.5,320.9,15.5z"/>
</g>
</svg>
