<?xml version="1.0" encoding="utf-8"?>
<!-- Generator: Adobe Illustrator 24.0.2, SVG Export Plug-In . SVG Version: 6.00 Build 0)  -->
<svg version="1.1"
	 id="Layer_1" xmlns:krita="http://krita.org/namespaces/svg/krita" xmlns:sodipodi="http://sodipodi.sourceforge.net/DTD/sodipodi-0.dtd"
	 xmlns="http://www.w3.org/2000/svg" xmlns:xlink="http://www.w3.org/1999/xlink" x="0px" y="0px" viewBox="0 0 182.4 49.2"
	 style="enable-background:new 0 0 182.4 49.2;" xml:space="preserve">
<style type="text/css">
	.st0{enable-background:new    ;}
	.st1{fill:#E8ECD7;}
</style>
<g class="st0">
	<path class="st1" d="M24.8,47.3c0,0.9-0.4,1.4-1.2,1.4h-5.1c-0.6,0-0.9-0.3-0.9-1V10.2c0-0.9,0-1.6-0.1-2.2c-0.1-0.6-0.3-1-0.5-1.3
		c-0.3-0.3-0.7-0.5-1.3-0.6C15,6,14.3,5.9,13.3,5.9H0.7C0.2,5.9,0,5.7,0,5.3c0-0.9,0.2-1.8,0.5-2.8c0.4-1,0.7-1.6,1.1-1.9
		C2,0.3,2.5,0.2,3.1,0.1C3.7,0,4.5,0,5.5,0h36.4c0.4,0,0.6,0.1,0.7,0.2c0.1,0.1,0.1,0.4,0.1,0.6c0,0.9-0.2,1.8-0.5,2.8
		c-0.3,0.9-0.7,1.5-1,1.8c-0.2,0.2-0.6,0.4-1,0.4c-0.5,0-1.1,0.1-1.9,0.1h-9.4c-0.9,0-1.6,0-2.1,0.1c-0.5,0.1-0.9,0.3-1.2,0.6
		C25.3,7,25.1,7.4,25,8c-0.1,0.6-0.1,1.4-0.1,2.3V47.3z"/>
	<path class="st1" d="M37.9,30.2c0-4.3,0.5-7.7,1.5-10.4c1-2.6,2.3-4.6,3.9-6c1.2-1.1,2.9-1.9,5-2.5c2.1-0.6,4.8-0.9,7.9-0.9
		c3.1,0,5.6,0.3,7.5,0.8c1.8,0.5,3.3,1.2,4.4,2.2c0.6,0.6,1.2,1.3,1.7,2.1c0.5,0.8,0.9,1.9,1.3,3.1c0.4,1.3,0.6,2.8,0.9,4.6
		c0.2,1.8,0.3,3.9,0.3,6.3c0,0.9-0.1,1.5-0.4,1.9c-0.2,0.4-0.7,0.6-1.4,0.6H47.8c-1.1,0-1.7,0.1-2,0.3c-0.3,0.2-0.4,0.6-0.4,1.1
		c0,1.7,0.2,3.2,0.6,4.4c0.4,1.3,1,2.3,1.9,3.1c0.8,0.8,2.1,1.3,3.8,1.7c1.7,0.3,3.8,0.5,6.2,0.5c2.4,0,4.8-0.1,6.9-0.4
		c2.2-0.3,3.9-0.5,5.1-0.8c0.2,0,0.5,0,0.7,0.2c0.2,0.2,0.3,0.4,0.3,0.8c0,0.4-0.1,0.8-0.3,1.3c-0.2,0.5-0.4,0.9-0.7,1.4
		c-0.3,0.5-0.6,0.9-1,1.3c-0.4,0.4-0.7,0.7-1.1,0.9c-0.7,0.4-2.1,0.7-4,1c-2,0.3-4.5,0.4-7.5,0.4c-3.5,0-6.3-0.3-8.5-0.9
		c-2.2-0.6-4-1.5-5.2-2.6c-0.7-0.6-1.4-1.4-1.9-2.2c-0.6-0.9-1-1.9-1.4-3.1c-0.4-1.2-0.7-2.7-0.9-4.3C38.1,34.4,37.9,32.4,37.9,30.2
		z M55.7,16.1c-3.5,0-6,0.7-7.6,2c-0.5,0.4-0.9,0.9-1.2,1.5c-0.3,0.6-0.6,1.2-0.8,1.9c-0.2,0.7-0.4,1.3-0.5,2
		c-0.1,0.7-0.2,1.3-0.2,1.9c0,0.5,0.1,0.9,0.4,1c0.3,0.1,0.9,0.2,1.9,0.2h13.3c0.9,0,1.7,0,2.3,0c0.6,0,1-0.1,1.2-0.3
		c0.2-0.2,0.4-0.5,0.4-0.7c0-0.2,0.1-0.5,0.1-0.9c0-1.5-0.2-2.9-0.5-4.2c-0.4-1.3-0.9-2.2-1.7-2.8c-0.6-0.5-1.5-0.9-2.6-1.2
		C59,16.2,57.6,16.1,55.7,16.1z"/>
	<path class="st1" d="M113.3,47.1c0,0.6-0.4,1-1.1,1.1c-1.7,0.2-3.8,0.5-6.2,0.7c-2.4,0.2-5.1,0.3-8,0.3c-2.2,0-4.1-0.1-5.7-0.2
		c-1.6-0.1-2.9-0.3-4-0.5c-1.1-0.2-2-0.5-2.7-0.9c-0.7-0.3-1.3-0.7-1.8-1.2c-0.8-0.8-1.5-1.8-1.9-3.2c-0.5-1.4-0.7-3.2-0.7-5.3
		c0-2.1,0.2-3.9,0.7-5.5s1.1-2.7,1.9-3.3c0.5-0.3,1.4-0.6,2.7-0.8c1.3-0.3,3-0.5,4.9-0.7s4.1-0.4,6.4-0.6c2.4-0.2,4.8-0.3,7.3-0.4
		c0.9,0,1.3-0.5,1.3-1.4c0-2-0.1-3.5-0.4-4.5c-0.3-1-0.7-1.8-1.3-2.3c-0.7-0.6-1.7-1-3-1.2c-1.3-0.2-3.3-0.3-5.9-0.3
		c-1,0-2.1,0-3.1,0.1c-1.1,0-2.1,0.1-3.2,0.2c-1,0.1-2,0.2-2.9,0.3c-0.9,0.1-1.7,0.3-2.4,0.4c-0.2,0-0.5,0-0.7-0.1
		c-0.2-0.1-0.4-0.4-0.4-0.7c0-0.3,0.1-0.7,0.3-1.2c0.2-0.5,0.4-0.9,0.6-1.4c0.3-0.5,0.6-0.9,0.9-1.3c0.3-0.4,0.7-0.7,1-0.9
		c0.9-0.5,2.3-0.9,4.4-1.2c2.1-0.3,4.6-0.4,7.6-0.4c3.6,0,6.4,0.2,8.4,0.7c1.9,0.5,3.3,1.2,4.2,2.1c0.4,0.5,0.8,1,1.2,1.7
		c0.4,0.6,0.7,1.5,0.9,2.5c0.3,1,0.5,2.3,0.6,3.9c0.1,1.6,0.2,3.6,0.2,5.9V47.1z M106.3,33.4c0-0.7-0.1-1.1-0.4-1.2
		c-0.3-0.1-0.6-0.2-1-0.2c-1.3,0-2.9,0-4.5,0.1c-1.7,0.1-3.3,0.2-4.8,0.3c-1.5,0.1-2.9,0.3-4,0.5c-1.2,0.2-1.9,0.4-2.2,0.6
		c-0.4,0.3-0.7,0.7-0.9,1.4c-0.2,0.6-0.3,1.5-0.3,2.7c0,2.3,0.5,3.7,1.5,4.5c0.5,0.5,1.4,0.8,2.6,1.1c1.2,0.2,3,0.4,5.3,0.4
		c2.2,0,4-0.1,5.4-0.3c1.4-0.2,2.3-0.4,2.6-0.7c0.2-0.2,0.4-0.6,0.6-1c0.1-0.4,0.2-1.2,0.2-2.4V33.4z"/>
	<path class="st1" d="M155.2,10.7c4,0,7.4,0.1,10.2,0.2c2.8,0.1,5.2,0.4,7.1,0.6c1.9,0.3,3.4,0.6,4.6,1c1.2,0.4,2,0.9,2.7,1.5
		c0.6,0.5,1.1,1.1,1.4,1.8c0.4,0.6,0.7,1.4,0.9,2.3c0.2,0.9,0.3,1.9,0.4,3.2c0.1,1.2,0.1,2.7,0.1,4.4v22c0,0.7-0.3,1-0.9,1h-3.9
		c-0.9,0-1.5-0.2-1.8-0.5c-0.4-0.3-0.5-1-0.5-2.2V27.4c0-2.5-0.1-4.4-0.3-5.7c-0.2-1.2-0.7-2.2-1.3-2.9c-0.7-0.7-2.1-1.2-4.4-1.5
		c-2.3-0.3-5.6-0.5-9.8-0.5c-0.7,0-1.2,0.2-1.3,0.6c-0.2,0.4-0.3,0.9-0.3,1.7v28.5c0,0.7-0.3,1.1-0.9,1.1h-5.5
		c-0.5,0-0.7-0.4-0.7-1.1V19.1c0-0.8-0.1-1.4-0.3-1.7c-0.2-0.3-0.7-0.5-1.5-0.5c-3,0-5.7,0.1-8.1,0.2c-2.4,0.1-4.3,0.3-5.6,0.6
		c-0.8,0.1-1.3,0.3-1.6,0.6s-0.4,1-0.4,2.1v27.2c0,0.7-0.3,1.1-0.9,1.1H127c-0.5,0-0.8-0.3-0.8-1V13.2c0-0.5,0.3-0.9,0.9-1
		c3.5-0.3,7.5-0.7,12.1-1C143.9,10.8,149.2,10.7,155.2,10.7z"/>
</g>
</svg>
