<?xml version="1.0" encoding="utf-8"?>
<!-- Generator: Adobe Illustrator 24.0.2, SVG Export Plug-In . SVG Version: 6.00 Build 0)  -->
<svg version="1.1"
	 id="Layer_1" xmlns:krita="http://krita.org/namespaces/svg/krita" xmlns:sodipodi="http://sodipodi.sourceforge.net/DTD/sodipodi-0.dtd"
	 xmlns="http://www.w3.org/2000/svg" xmlns:xlink="http://www.w3.org/1999/xlink" x="0px" y="0px" viewBox="0 0 596.3 53.1"
	 style="enable-background:new 0 0 596.3 53.1;" xml:space="preserve">
<style type="text/css">
	.st0{enable-background:new    ;}
	.st1{fill:#E8ECD7;}
</style>
<g class="st0">
	<path class="st1" d="M39.4,51.6c0,0.7-0.3,1-0.9,1h-3.9c-1,0-1.6-0.2-1.9-0.5c-0.3-0.3-0.5-1-0.5-2.1V34.8c0-0.8,0-1.5-0.1-1.9
		c-0.1-0.5-0.2-0.8-0.4-1.1c-0.2-0.2-0.5-0.4-0.9-0.5c-0.4-0.1-0.9-0.1-1.6-0.1H10.4c-0.7,0-1.3,0-1.7,0.1c-0.4,0.1-0.7,0.2-1,0.5
		c-0.2,0.2-0.4,0.6-0.5,1.1c-0.1,0.5-0.1,1.1-0.1,1.9V50c0,1.2-0.2,1.9-0.5,2.2c-0.4,0.3-1,0.5-2.1,0.5H0.9c-0.4,0-0.6-0.1-0.7-0.3
		C0,52.1,0,51.8,0,51.6V5c0-0.7,0.3-1,0.9-1h3.8c1,0,1.6,0.2,2,0.5C7,4.8,7.2,5.6,7.2,6.8v14.3c0,0.9,0,1.5,0.1,2.1
		c0.1,0.5,0.2,0.9,0.5,1.1c0.2,0.2,0.6,0.4,1,0.4c0.4,0,1,0.1,1.7,0.1h18.8c1.2,0,2.1-0.2,2.4-0.6c0.4-0.4,0.6-1.3,0.6-2.7V6.6
		c0-1.1,0.2-1.8,0.5-2.2c0.3-0.3,1-0.5,2-0.5h3.8c0.4,0,0.6,0.1,0.7,0.3c0.1,0.2,0.1,0.4,0.1,0.8V51.6z"/>
	<path class="st1" d="M86.7,50.5c0,0.6-0.3,0.9-1,1.1c-0.8,0.2-1.8,0.4-3,0.5c-1.2,0.2-2.5,0.3-3.9,0.5c-1.4,0.1-2.9,0.3-4.4,0.3
		c-1.5,0.1-3.1,0.1-4.6,0.1c-4,0-7.1-0.3-9.3-0.9s-3.9-1.5-5-2.6c-0.5-0.5-0.9-1.1-1.2-1.8c-0.3-0.6-0.6-1.4-0.8-2.3
		c-0.2-0.9-0.3-1.9-0.4-3c-0.1-1.1-0.1-2.5-0.1-4V16c0-0.6,0.3-0.9,0.8-0.9h4.1c0.9,0,1.5,0.2,1.8,0.5c0.3,0.3,0.4,0.9,0.4,1.7v20.4
		c0,2,0.1,3.6,0.4,4.6c0.3,1.1,0.7,1.9,1.2,2.5c0.7,0.7,1.7,1.2,3,1.6c1.3,0.4,3.2,0.6,5.5,0.6c1.4,0,2.7,0,4-0.1
		c1.3-0.1,2.3-0.2,3.1-0.4c0.8-0.1,1.4-0.4,1.7-0.8c0.3-0.4,0.5-1.1,0.5-2.1V16c0-0.6,0.3-0.9,0.9-0.9h5.2c0.7,0,1,0.4,1,1.1V50.5z"
		/>
	<path class="st1" d="M128.9,14.6c4,0,7.4,0.1,10.2,0.2c2.8,0.1,5.2,0.4,7.1,0.6c1.9,0.3,3.4,0.6,4.6,1c1.2,0.4,2,0.9,2.7,1.5
		c0.6,0.5,1.1,1.1,1.4,1.8c0.4,0.6,0.7,1.4,0.9,2.3c0.2,0.9,0.3,1.9,0.4,3.2c0.1,1.2,0.1,2.7,0.1,4.4v22c0,0.7-0.3,1-0.9,1h-3.9
		c-0.9,0-1.5-0.2-1.8-0.5c-0.4-0.3-0.5-1-0.5-2.2V31.3c0-2.5-0.1-4.4-0.3-5.7c-0.2-1.2-0.7-2.2-1.3-2.9c-0.7-0.7-2.1-1.2-4.4-1.5
		c-2.3-0.3-5.6-0.5-9.8-0.5c-0.7,0-1.2,0.2-1.3,0.6c-0.2,0.4-0.3,0.9-0.3,1.7v28.5c0,0.7-0.3,1.1-0.9,1.1h-5.5
		c-0.5,0-0.7-0.4-0.7-1.1V23c0-0.8-0.1-1.4-0.3-1.7c-0.2-0.3-0.7-0.5-1.5-0.5c-3,0-5.7,0.1-8.1,0.2c-2.4,0.1-4.3,0.3-5.6,0.6
		c-0.8,0.1-1.3,0.3-1.6,0.6c-0.2,0.3-0.4,1-0.4,2.1v27.2c0,0.7-0.3,1.1-0.9,1.1h-5.4c-0.5,0-0.8-0.3-0.8-1V17.1c0-0.5,0.3-0.9,0.9-1
		c3.5-0.3,7.5-0.7,12.1-1C117.6,14.8,122.9,14.6,128.9,14.6z"/>
	<path class="st1" d="M199.5,51c0,0.6-0.4,1-1.1,1.1c-1.7,0.2-3.8,0.5-6.2,0.7c-2.4,0.2-5.1,0.3-8,0.3c-2.2,0-4.1-0.1-5.7-0.2
		c-1.6-0.1-2.9-0.3-4-0.5c-1.1-0.2-2-0.5-2.7-0.9c-0.7-0.3-1.3-0.7-1.8-1.2c-0.8-0.8-1.5-1.8-1.9-3.2c-0.5-1.4-0.7-3.2-0.7-5.3
		c0-2.1,0.2-3.9,0.7-5.5c0.5-1.6,1.1-2.7,1.9-3.3c0.5-0.3,1.4-0.6,2.7-0.8c1.3-0.3,3-0.5,4.9-0.7c1.9-0.2,4.1-0.4,6.4-0.6
		c2.4-0.2,4.8-0.3,7.3-0.4c0.9,0,1.3-0.5,1.3-1.4c0-2-0.1-3.5-0.4-4.5c-0.3-1-0.7-1.8-1.3-2.3c-0.7-0.6-1.7-1-3-1.2
		c-1.3-0.2-3.3-0.3-5.9-0.3c-1,0-2.1,0-3.1,0.1c-1.1,0-2.1,0.1-3.2,0.2c-1,0.1-2,0.2-2.9,0.3c-0.9,0.1-1.7,0.3-2.4,0.4
		c-0.2,0-0.5,0-0.7-0.1c-0.2-0.1-0.4-0.4-0.4-0.7c0-0.3,0.1-0.7,0.3-1.2c0.2-0.5,0.4-0.9,0.6-1.4c0.3-0.5,0.6-0.9,0.9-1.3
		c0.3-0.4,0.7-0.7,1-0.9c0.9-0.5,2.3-0.9,4.4-1.2s4.6-0.4,7.6-0.4c3.6,0,6.4,0.2,8.4,0.7c1.9,0.5,3.3,1.2,4.2,2.1
		c0.4,0.5,0.8,1,1.2,1.7c0.4,0.6,0.7,1.5,0.9,2.5c0.3,1,0.5,2.3,0.6,3.9c0.1,1.6,0.2,3.6,0.2,5.9V51z M192.5,37.4
		c0-0.7-0.1-1.1-0.4-1.2c-0.3-0.1-0.6-0.2-1-0.2c-1.3,0-2.9,0-4.5,0.1c-1.7,0.1-3.3,0.2-4.8,0.3c-1.5,0.1-2.9,0.3-4,0.5
		c-1.2,0.2-1.9,0.4-2.2,0.6c-0.4,0.3-0.7,0.7-0.9,1.4c-0.2,0.6-0.3,1.5-0.3,2.7c0,2.3,0.5,3.7,1.5,4.5c0.5,0.5,1.4,0.8,2.6,1.1
		c1.2,0.2,3,0.4,5.3,0.4c2.2,0,4-0.1,5.4-0.3c1.4-0.2,2.3-0.4,2.6-0.7c0.2-0.2,0.4-0.6,0.6-1c0.1-0.4,0.2-1.2,0.2-2.4V37.4z"/>
	<path class="st1" d="M246.2,51.7c0,0.6-0.3,0.9-0.9,0.9h-4.4c-0.8,0-1.3-0.2-1.5-0.5c-0.2-0.3-0.3-0.9-0.3-1.7V30.4
		c0-2.3-0.1-4-0.4-5.1c-0.3-1.1-0.7-2-1.2-2.7c-0.6-0.7-1.5-1.2-2.7-1.5c-1.2-0.3-2.8-0.5-5-0.5c-1.9,0-3.5,0-4.8,0.1
		c-1.3,0.1-2.5,0.2-3.6,0.3c-0.8,0.1-1.3,0.3-1.5,0.6c-0.2,0.3-0.3,1.1-0.3,2.2v27.7c0,0.7-0.3,1-0.9,1h-5.3c-0.6,0-0.9-0.3-0.9-1
		V16.8c0-0.5,0.3-0.9,1-1c2-0.2,4.5-0.5,7.5-0.8s6-0.4,9.2-0.4c3.8,0,6.7,0.3,8.7,0.8c2,0.5,3.6,1.3,4.7,2.4c1,1,1.6,2.3,2.1,4
		c0.4,1.6,0.6,4,0.6,7.1V51.7z"/>
	<path class="st1" d="M311.8,18c0,3.1-0.5,5.9-1.4,8.3c-1,2.4-2.1,4.1-3.5,5.1c-1.1,0.9-2.6,1.5-4.6,1.8c-2,0.4-4.5,0.5-7.6,0.5
		h-9.9c-0.5,0-0.9,0.1-1.2,0.4c-0.2,0.2-0.4,0.7-0.4,1.4V51c0,0.6-0.1,1-0.3,1.3c-0.2,0.2-0.6,0.3-1.2,0.3h-4.8
		c-0.4,0-0.6-0.1-0.7-0.3c-0.1-0.2-0.1-0.4-0.1-0.8V5.3c0-0.4,0.1-0.6,0.3-0.8c0.2-0.1,0.4-0.2,0.6-0.3c2.4-0.1,4.9-0.2,7.6-0.3
		s5.4-0.1,8.3-0.1c2.3,0,4.2,0,5.8,0.1s2.9,0.2,4,0.4c1.1,0.2,2,0.4,2.7,0.7c0.7,0.3,1.3,0.6,1.9,1c0.6,0.4,1.1,0.9,1.6,1.5
		c0.5,0.6,1,1.5,1.4,2.4c0.4,1,0.7,2.1,1,3.4C311.7,14.7,311.8,16.2,311.8,18z M304.5,18.6c0-2.2-0.2-3.8-0.7-4.9
		c-0.5-1.1-1-1.9-1.8-2.4c-0.3-0.2-0.7-0.4-1.1-0.6c-0.5-0.2-1-0.3-1.7-0.4c-0.7-0.1-1.5-0.2-2.5-0.3s-2.2-0.1-3.7-0.1
		c-1.7,0-3.3,0-4.8,0c-1.5,0-2.7,0-3.7,0.1c-0.4,0-0.8,0.2-1,0.3c-0.2,0.2-0.3,0.5-0.3,1v14.8c0,0.6,0.1,1,0.3,1.3
		c0.2,0.2,0.6,0.3,1.2,0.3h9.1c2.1,0,3.6-0.1,4.6-0.2s1.9-0.3,2.5-0.6c0.9-0.5,1.7-1.5,2.4-2.8C304.1,22.9,304.5,21,304.5,18.6z"/>
	<path class="st1" d="M321.3,16.7c0-0.6,0.3-1,1-1.2c1.9-0.2,4.1-0.5,6.4-0.7c2.4-0.2,4.6-0.3,6.7-0.3c2,0,3.7,0,5.1,0.1
		c1.4,0.1,2.5,0.3,3.1,0.6c0.7,0.4,1.3,1.1,1.8,2.1c0.5,1,0.7,2,0.7,2.9c0,0.3-0.1,0.5-0.3,0.7c-0.2,0.2-0.4,0.2-0.6,0.2
		c-0.9-0.1-2.1-0.2-3.5-0.3s-2.7-0.1-3.9-0.1c-1.2,0-2.5,0-3.7,0.1c-1.2,0-2.4,0.1-3.5,0.2c-0.4,0.1-0.8,0.2-1.1,0.3
		c-0.3,0.1-0.5,0.2-0.7,0.4c-0.2,0.2-0.3,0.5-0.3,0.8c0,0.3-0.1,0.8-0.1,1.4v27.6c0,0.7-0.3,1-1,1h-5.2c-0.6,0-0.9-0.3-0.9-1V16.7z"
		/>
	<path class="st1" d="M383.4,51c0,0.6-0.4,1-1.1,1.1c-1.7,0.2-3.8,0.5-6.2,0.7c-2.4,0.2-5.1,0.3-8,0.3c-2.2,0-4.1-0.1-5.7-0.2
		c-1.6-0.1-2.9-0.3-4-0.5c-1.1-0.2-2-0.5-2.7-0.9c-0.7-0.3-1.3-0.7-1.8-1.2c-0.8-0.8-1.5-1.8-1.9-3.2c-0.5-1.4-0.7-3.2-0.7-5.3
		c0-2.1,0.2-3.9,0.7-5.5c0.5-1.6,1.1-2.7,1.9-3.3c0.5-0.3,1.4-0.6,2.7-0.8c1.3-0.3,3-0.5,4.9-0.7c1.9-0.2,4.1-0.4,6.4-0.6
		c2.4-0.2,4.8-0.3,7.3-0.4c0.9,0,1.3-0.5,1.3-1.4c0-2-0.1-3.5-0.4-4.5c-0.3-1-0.7-1.8-1.3-2.3c-0.7-0.6-1.7-1-3-1.2
		c-1.3-0.2-3.3-0.3-5.9-0.3c-1,0-2.1,0-3.1,0.1c-1.1,0-2.1,0.1-3.2,0.2c-1,0.1-2,0.2-2.9,0.3c-0.9,0.1-1.7,0.3-2.4,0.4
		c-0.2,0-0.5,0-0.7-0.1c-0.2-0.1-0.4-0.4-0.4-0.7c0-0.3,0.1-0.7,0.3-1.2c0.2-0.5,0.4-0.9,0.6-1.4c0.3-0.5,0.6-0.9,0.9-1.3
		c0.3-0.4,0.7-0.7,1-0.9c0.9-0.5,2.3-0.9,4.4-1.2s4.6-0.4,7.6-0.4c3.6,0,6.4,0.2,8.4,0.7c1.9,0.5,3.3,1.2,4.2,2.1
		c0.4,0.5,0.8,1,1.2,1.7c0.4,0.6,0.7,1.5,0.9,2.5c0.3,1,0.5,2.3,0.6,3.9c0.1,1.6,0.2,3.6,0.2,5.9V51z M376.4,37.4
		c0-0.7-0.1-1.1-0.4-1.2c-0.3-0.1-0.6-0.2-1-0.2c-1.3,0-2.9,0-4.5,0.1c-1.7,0.1-3.3,0.2-4.8,0.3c-1.5,0.1-2.9,0.3-4,0.5
		c-1.2,0.2-1.9,0.4-2.2,0.6c-0.4,0.3-0.7,0.7-0.9,1.4c-0.2,0.6-0.3,1.5-0.3,2.7c0,2.3,0.5,3.7,1.5,4.5c0.5,0.5,1.4,0.8,2.6,1.1
		c1.2,0.2,3,0.4,5.3,0.4c2.2,0,4-0.1,5.4-0.3c1.4-0.2,2.3-0.4,2.6-0.7c0.2-0.2,0.4-0.6,0.6-1c0.1-0.4,0.2-1.2,0.2-2.4V37.4z"/>
	<path class="st1" d="M423.2,15.7c0.7,0.4,1.3,1.1,1.7,2c0.4,0.9,0.6,1.7,0.6,2.4c0,0.4-0.2,0.7-0.5,1c-0.3,0.3-0.6,0.3-0.8,0.3
		c-1.2-0.1-2.7-0.3-4.2-0.4c-1.6-0.1-3.4-0.2-5.4-0.2c-2.7,0-4.9,0.2-6.4,0.5c-1.6,0.4-2.7,0.9-3.5,1.5c-0.9,0.8-1.7,2.1-2.3,3.9
		c-0.6,1.8-0.9,4.1-0.9,7c0,3.3,0.2,5.8,0.7,7.4s1.2,2.9,2.1,3.7c1.7,1.4,5,2.2,9.9,2.2c2.4,0,4.5-0.1,6.1-0.3
		c1.6-0.2,3-0.4,4.2-0.5c0.2-0.1,0.5-0.1,0.7,0.1s0.4,0.4,0.4,0.8s-0.1,0.7-0.3,1.2c-0.2,0.5-0.4,0.9-0.6,1.4
		c-0.2,0.5-0.5,0.9-0.9,1.4c-0.3,0.4-0.7,0.7-1,0.9c-0.7,0.4-1.9,0.7-3.8,1c-1.8,0.3-4.1,0.4-6.9,0.4c-3.5,0-6.2-0.3-8.2-0.9
		c-2-0.6-3.7-1.5-5-2.6c-1.4-1.2-2.5-3-3.4-5.4s-1.3-5.8-1.3-10.2c0-4.2,0.5-7.6,1.6-10.2c1.1-2.6,2.4-4.6,3.9-6
		c1.2-1.1,3-2,5.2-2.6c2.2-0.6,5.1-0.9,8.7-0.9C418.7,14.4,421.9,14.8,423.2,15.7z"/>
	<path class="st1" d="M436.2,9.9c0-1,0-1.7,0.1-2.2c0.1-0.5,0.2-0.9,0.4-1.1c0.3-0.3,0.9-0.7,1.7-1c0.9-0.3,2-0.6,3.5-0.8
		c0.3,0,0.5,0,0.8,0.2c0.2,0.2,0.3,0.5,0.3,0.9v5.2c0,0.9,0,1.6,0.1,2.2s0.2,0.9,0.5,1.2c0.2,0.3,0.6,0.4,1.2,0.5
		c0.5,0.1,1.2,0.1,2.1,0.1h11.6c0.7,0,1.1,0.3,1.1,0.9c0,0.4-0.1,0.9-0.3,1.4c-0.2,0.5-0.5,0.9-0.8,1.4s-0.6,0.8-0.9,1.1
		c-0.3,0.3-0.6,0.5-0.8,0.6c-0.4,0.2-0.8,0.3-1.1,0.4c-0.4,0-0.9,0.1-1.6,0.1h-7.8c-1.4,0-2.3,0.2-2.7,0.6c-0.4,0.4-0.6,1.3-0.6,2.7
		v15.3c0,2.1,0.1,3.5,0.3,4.4c0.2,0.9,0.5,1.5,1,1.9c0.5,0.4,1.2,0.7,2.2,0.9c1,0.2,2.4,0.3,4.1,0.3c1.4,0,2.7,0,3.9-0.1
		c1.2-0.1,2.2-0.2,3.1-0.4c0.2,0,0.5,0,0.7,0.2c0.2,0.2,0.4,0.4,0.4,0.7c0,0.4-0.1,0.9-0.3,1.3c-0.2,0.5-0.4,0.9-0.7,1.3
		s-0.6,0.8-1,1.2c-0.4,0.3-0.7,0.6-1,0.8c-0.5,0.3-1.4,0.5-2.6,0.7c-1.2,0.2-3,0.3-5.3,0.3c-2.5,0-4.6-0.2-6.1-0.6s-2.7-1-3.5-1.7
		c-0.4-0.4-0.7-0.8-1-1.3s-0.5-1.1-0.6-1.8c-0.2-0.7-0.3-1.6-0.4-2.6c-0.1-1-0.1-2.3-0.1-3.9V24c0-1.5-0.2-2.4-0.6-2.7
		c-0.4-0.3-1.1-0.5-2.2-0.5h-3.1c-0.3,0-0.5-0.1-0.6-0.3c-0.1-0.2-0.2-0.3-0.2-0.5c0-0.4,0.1-0.9,0.2-1.4c0.1-0.5,0.3-1,0.5-1.4
		c0.2-0.4,0.4-0.8,0.7-1.2c0.2-0.3,0.5-0.6,0.7-0.7c0.5-0.2,1.1-0.4,1.9-0.4h1.1c1,0,1.5-0.7,1.5-2V9.9z"/>
	<path class="st1" d="M475.2,3.7c0,1.6-0.3,2.7-1,3.2c-0.5,0.3-1.1,0.5-1.8,0.6c-0.7,0.1-1.3,0.1-1.8,0.1c-1.8,0-3-0.2-3.6-0.7
		c-0.6-0.4-0.9-1.4-0.9-2.9c0-1.7,0.3-2.8,1-3.2c0.4-0.3,0.9-0.5,1.5-0.6c0.6-0.1,1.3-0.2,2.2-0.2s1.5,0,2.2,0.1
		c0.6,0.1,1.1,0.3,1.3,0.6c0.3,0.2,0.6,0.6,0.7,1.2C475.1,2.4,475.2,3,475.2,3.7z M474.1,51.6c0,0.7-0.3,1-0.9,1h-5.5
		c-0.4,0-0.6-0.1-0.7-0.2c-0.1-0.1-0.1-0.4-0.1-0.8V16.1c0-0.7,0.4-1,1.1-1h5.3c0.4,0,0.6,0.1,0.7,0.2c0.1,0.1,0.1,0.4,0.1,0.8V51.6
		z"/>
	<path class="st1" d="M514.4,15.7c0.7,0.4,1.3,1.1,1.7,2c0.4,0.9,0.6,1.7,0.6,2.4c0,0.4-0.2,0.7-0.5,1c-0.3,0.3-0.6,0.3-0.8,0.3
		c-1.2-0.1-2.7-0.3-4.2-0.4c-1.6-0.1-3.4-0.2-5.4-0.2c-2.7,0-4.9,0.2-6.4,0.5c-1.6,0.4-2.7,0.9-3.5,1.5c-0.9,0.8-1.7,2.1-2.3,3.9
		c-0.6,1.8-0.9,4.1-0.9,7c0,3.3,0.2,5.8,0.7,7.4s1.2,2.9,2.1,3.7c1.7,1.4,5,2.2,9.9,2.2c2.4,0,4.5-0.1,6.1-0.3
		c1.6-0.2,3-0.4,4.2-0.5c0.2-0.1,0.5-0.1,0.7,0.1s0.4,0.4,0.4,0.8s-0.1,0.7-0.3,1.2c-0.2,0.5-0.4,0.9-0.6,1.4
		c-0.2,0.5-0.5,0.9-0.9,1.4c-0.3,0.4-0.7,0.7-1,0.9c-0.7,0.4-1.9,0.7-3.8,1c-1.8,0.3-4.1,0.4-6.9,0.4c-3.5,0-6.2-0.3-8.2-0.9
		c-2-0.6-3.7-1.5-5-2.6c-1.4-1.2-2.5-3-3.4-5.4s-1.3-5.8-1.3-10.2c0-4.2,0.5-7.6,1.6-10.2c1.1-2.6,2.4-4.6,3.9-6
		c1.2-1.1,3-2,5.2-2.6c2.2-0.6,5.1-0.9,8.7-0.9C509.9,14.4,513.1,14.8,514.4,15.7z"/>
	<path class="st1" d="M523.7,34.1c0-4.3,0.5-7.7,1.5-10.4c1-2.6,2.3-4.6,3.9-6c1.2-1.1,2.9-1.9,5-2.5c2.1-0.6,4.8-0.9,7.9-0.9
		c3.1,0,5.6,0.3,7.5,0.8c1.8,0.5,3.3,1.2,4.4,2.2c0.6,0.6,1.2,1.3,1.7,2.1c0.5,0.8,0.9,1.9,1.3,3.1c0.4,1.3,0.6,2.8,0.9,4.6
		c0.2,1.8,0.3,3.9,0.3,6.3c0,0.9-0.1,1.5-0.4,1.9c-0.2,0.4-0.7,0.6-1.4,0.6h-22.8c-1.1,0-1.7,0.1-2,0.3c-0.3,0.2-0.4,0.6-0.4,1.1
		c0,1.7,0.2,3.2,0.6,4.4c0.4,1.3,1,2.3,1.9,3.1c0.8,0.8,2.1,1.3,3.8,1.7c1.7,0.3,3.8,0.5,6.2,0.5c2.4,0,4.8-0.1,6.9-0.4
		c2.2-0.3,3.9-0.5,5.1-0.8c0.2,0,0.5,0,0.7,0.2c0.2,0.2,0.3,0.4,0.3,0.8c0,0.4-0.1,0.8-0.3,1.3c-0.2,0.5-0.4,0.9-0.7,1.4
		c-0.3,0.5-0.6,0.9-1,1.3c-0.4,0.4-0.7,0.7-1.1,0.9c-0.7,0.4-2.1,0.7-4,1c-2,0.3-4.5,0.4-7.5,0.4c-3.5,0-6.3-0.3-8.5-0.9
		c-2.2-0.6-4-1.5-5.2-2.6c-0.7-0.6-1.4-1.4-1.9-2.2c-0.6-0.9-1-1.9-1.4-3.1c-0.4-1.2-0.7-2.7-0.9-4.3
		C523.8,38.3,523.7,36.4,523.7,34.1z M541.5,20c-3.5,0-6,0.7-7.6,2c-0.5,0.4-0.9,0.9-1.2,1.5c-0.3,0.6-0.6,1.2-0.8,1.9
		c-0.2,0.7-0.4,1.3-0.5,2c-0.1,0.7-0.2,1.3-0.2,1.9c0,0.5,0.1,0.9,0.4,1c0.3,0.1,0.9,0.2,1.9,0.2h13.3c0.9,0,1.7,0,2.3,0
		c0.6,0,1-0.1,1.2-0.3c0.2-0.2,0.4-0.5,0.4-0.7c0-0.2,0.1-0.5,0.1-0.9c0-1.5-0.2-2.9-0.5-4.2c-0.4-1.3-0.9-2.2-1.7-2.8
		c-0.6-0.5-1.5-0.9-2.6-1.2C544.8,20.2,543.3,20,541.5,20z"/>
	<path class="st1" d="M583.2,14.5c2.7,0,4.9,0.1,6.6,0.3c1.7,0.2,2.8,0.5,3.3,0.8c0.7,0.4,1.2,1.1,1.7,2.1c0.5,1,0.7,1.8,0.7,2.6
		c0,0.3-0.1,0.6-0.3,0.8c-0.2,0.2-0.4,0.2-0.7,0.2c-1.4-0.1-3-0.3-4.8-0.5c-1.8-0.2-3.8-0.3-6-0.3c-4.2,0-6.9,0.4-8.1,1.2
		c-0.5,0.4-0.9,0.9-1.2,1.7c-0.3,0.7-0.5,1.6-0.5,2.6c0,1.3,0.2,2.2,0.7,2.7c0.2,0.2,0.8,0.5,1.7,0.7c1,0.2,2.1,0.5,3.4,0.8
		s2.7,0.6,4.2,0.9c1.5,0.3,3,0.6,4.4,0.9c1.4,0.3,2.6,0.6,3.7,0.9c1.1,0.3,1.8,0.6,2.3,1c0.5,0.4,1,1.2,1.3,2.2
		c0.4,1.1,0.5,2.5,0.5,4.2c0,2.6-0.3,4.8-1,6.4c-0.7,1.6-1.5,2.8-2.4,3.6c-1,0.8-2.4,1.5-4.4,2c-2,0.5-4.8,0.8-8.5,0.8
		c-3.1,0-5.5-0.1-7.1-0.4c-1.6-0.2-2.7-0.6-3.4-1c-0.3-0.2-0.6-0.5-0.9-0.9c-0.3-0.4-0.6-0.9-0.8-1.3c-0.2-0.5-0.4-0.9-0.6-1.3
		c-0.1-0.4-0.2-0.8-0.2-1.1c0-0.4,0.1-0.7,0.3-0.8c0.2-0.2,0.4-0.2,0.7-0.2c1.5,0.2,3.3,0.5,5.3,0.7c2,0.2,4.2,0.3,6.6,0.3
		c2,0,3.6-0.1,4.9-0.3s2.2-0.5,2.7-0.9c0.5-0.4,0.9-0.9,1.3-1.6c0.3-0.7,0.5-1.5,0.5-2.5c0-1.4-0.3-2.4-0.9-2.7
		c-0.3-0.3-1-0.6-2-0.9c-1-0.3-2.2-0.6-3.5-0.9c-1.3-0.3-2.7-0.6-4.2-0.9c-1.5-0.3-2.9-0.6-4.3-0.9c-1.3-0.3-2.5-0.6-3.6-0.9
		c-1-0.3-1.7-0.6-2.1-1c-0.5-0.4-0.9-1.1-1.2-2.3c-0.3-1.1-0.4-2.2-0.4-3.3c0-2.8,0.3-5,1-6.7c0.7-1.7,1.6-2.9,2.7-3.9
		c1-0.9,2.5-1.5,4.5-2.1C577.2,14.8,579.9,14.5,583.2,14.5z"/>
</g>
</svg>
