<?xml version="1.0" encoding="utf-8"?>
<!-- Generator: Adobe Illustrator 24.0.2, SVG Export Plug-In . SVG Version: 6.00 Build 0)  -->
<svg version="1.1"
	 id="Layer_1" xmlns:krita="http://krita.org/namespaces/svg/krita" xmlns:sodipodi="http://sodipodi.sourceforge.net/DTD/sodipodi-0.dtd"
	 xmlns="http://www.w3.org/2000/svg" xmlns:xlink="http://www.w3.org/1999/xlink" x="0px" y="0px" viewBox="0 0 230.6 70.8"
	 style="enable-background:new 0 0 230.6 70.8;" xml:space="preserve">
<style type="text/css">
	.st0{enable-background:new    ;}
	.st1{fill:#E8ECD7;}
</style>
<g class="st0">
	<path class="st1" d="M36,38.5c0,3.3-0.4,6-1.2,8c-0.8,2-1.8,3.6-3,4.7c-0.6,0.5-1.3,0.9-2.1,1.3c-0.8,0.4-1.9,0.7-3.1,1
		c-1.2,0.3-2.7,0.5-4.5,0.7c-1.7,0.2-3.7,0.3-6,0.3c-3.1,0-5.8-0.1-8.1-0.4S4.2,53.4,3.4,53c-0.8-0.5-1.5-1.3-2.1-2.4
		c-0.6-1.1-0.9-2.1-0.9-3.1c0-0.4,0.1-0.7,0.4-0.8c0.3-0.2,0.5-0.2,0.8-0.2c0.7,0.1,1.6,0.3,2.8,0.5c1.1,0.2,2.3,0.3,3.6,0.5
		c1.3,0.1,2.6,0.3,4,0.4c1.4,0.1,2.7,0.1,3.9,0.1c3.3,0,5.7-0.2,7.2-0.5c1.5-0.3,2.6-0.7,3.2-1.3c0.7-0.5,1.2-1.3,1.6-2.2
		c0.4-0.9,0.6-2.2,0.6-3.9c0-1.4-0.1-2.4-0.4-3.1c-0.2-0.7-0.6-1.2-0.9-1.4c-0.3-0.3-1.1-0.6-2.3-1c-1.2-0.4-2.6-0.7-4.3-1.1
		c-1.7-0.4-3.4-0.7-5.3-1.1c-1.9-0.4-3.7-0.8-5.4-1.2c-1.7-0.4-3.2-0.8-4.5-1.2C4,29.7,3,29.4,2.5,29c-0.9-0.6-1.5-1.7-1.9-3.2
		C0.2,24.3,0,22.5,0,20.5c0-3.2,0.4-5.7,1.2-7.6c0.8-1.9,1.8-3.4,3-4.5c1.4-1.2,3.4-2.1,6-2.8s5.9-1,10-1c6.1,0,10,0.4,11.6,1.2
		c0.4,0.2,0.8,0.5,1.1,0.9c0.4,0.4,0.7,0.9,1,1.4c0.3,0.5,0.5,1,0.7,1.5c0.2,0.5,0.3,1,0.3,1.4c0,0.3-0.1,0.6-0.3,0.8
		c-0.2,0.2-0.5,0.3-0.8,0.2c-1.4-0.1-3.3-0.3-5.6-0.6c-2.3-0.2-4.8-0.4-7.5-0.4c-3.2,0-5.6,0.2-7.4,0.6c-1.8,0.4-3,0.8-3.7,1.4
		c-0.7,0.6-1.3,1.5-1.7,2.6c-0.4,1.1-0.6,2.4-0.6,3.7c0,1.1,0.1,2,0.3,2.6C7.8,22.5,8,23,8.2,23.3c0.3,0.3,1,0.7,2.2,1
		c1.2,0.4,2.6,0.7,4.3,1.1c1.7,0.4,3.5,0.8,5.4,1.1c1.9,0.4,3.8,0.7,5.5,1.1c1.8,0.4,3.3,0.8,4.7,1.1c1.4,0.4,2.3,0.7,2.8,1
		c0.8,0.5,1.5,1.5,2,2.9C35.7,34.2,36,36.1,36,38.5z"/>
	<path class="st1" d="M77.1,52.3c0,0.6-0.4,1-1.1,1.1c-1.7,0.2-3.8,0.5-6.2,0.7c-2.4,0.2-5.1,0.3-8,0.3c-2.2,0-4.1-0.1-5.7-0.2
		c-1.6-0.1-2.9-0.3-4-0.5c-1.1-0.2-2-0.5-2.7-0.9c-0.7-0.3-1.3-0.7-1.8-1.2c-0.8-0.8-1.5-1.8-1.9-3.2c-0.5-1.4-0.7-3.2-0.7-5.3
		c0-2.1,0.2-3.9,0.7-5.5c0.5-1.6,1.1-2.7,1.9-3.3c0.5-0.3,1.4-0.6,2.7-0.8c1.3-0.3,3-0.5,4.9-0.7c1.9-0.2,4.1-0.4,6.4-0.6
		c2.4-0.2,4.8-0.3,7.3-0.4c0.9,0,1.3-0.5,1.3-1.4c0-2-0.1-3.5-0.4-4.5c-0.3-1-0.7-1.8-1.3-2.3c-0.7-0.6-1.7-1-3-1.2
		c-1.3-0.2-3.3-0.3-5.9-0.3c-1,0-2.1,0-3.1,0.1c-1.1,0-2.1,0.1-3.2,0.2c-1,0.1-2,0.2-2.9,0.3c-0.9,0.1-1.7,0.3-2.4,0.4
		c-0.2,0-0.5,0-0.7-0.1c-0.2-0.1-0.4-0.4-0.4-0.7c0-0.3,0.1-0.7,0.3-1.2c0.2-0.5,0.4-0.9,0.6-1.4c0.3-0.5,0.6-0.9,0.9-1.3
		c0.3-0.4,0.7-0.7,1-0.9c0.9-0.5,2.3-0.9,4.4-1.2s4.6-0.4,7.6-0.4c3.6,0,6.4,0.2,8.4,0.7c1.9,0.5,3.3,1.2,4.2,2.1
		c0.4,0.5,0.8,1,1.2,1.7c0.4,0.6,0.7,1.5,0.9,2.5c0.3,1,0.5,2.3,0.6,3.9c0.1,1.6,0.2,3.6,0.2,5.9V52.3z M70.1,38.6
		c0-0.7-0.1-1.1-0.4-1.2c-0.3-0.1-0.6-0.2-1-0.2c-1.3,0-2.9,0-4.5,0.1c-1.7,0.1-3.3,0.2-4.8,0.3c-1.5,0.1-2.9,0.3-4,0.5
		c-1.2,0.2-1.9,0.4-2.2,0.6c-0.4,0.3-0.7,0.7-0.9,1.4c-0.2,0.6-0.3,1.5-0.3,2.7c0,2.3,0.5,3.7,1.5,4.5c0.5,0.5,1.4,0.8,2.6,1.1
		c1.2,0.2,3,0.4,5.3,0.4c2.2,0,4-0.1,5.4-0.3c1.4-0.2,2.3-0.4,2.6-0.7c0.2-0.2,0.4-0.6,0.6-1c0.1-0.4,0.2-1.2,0.2-2.4V38.6z"/>
	<path class="st1" d="M91.7,25.1c0-1.3-0.2-2.2-0.6-2.5c-0.4-0.3-1.1-0.5-2.2-0.5h-3c-0.6,0-0.9-0.4-0.9-1.2c0-0.3,0.1-0.7,0.2-1.2
		c0.1-0.5,0.3-0.9,0.5-1.3c0.2-0.4,0.4-0.8,0.6-1.2c0.2-0.4,0.5-0.6,0.7-0.7c0.2-0.1,0.5-0.2,0.8-0.3c0.3,0,0.7,0,1.2,0h1.2
		c0.6,0,1-0.1,1.2-0.4c0.2-0.3,0.3-0.7,0.3-1.4c0-3.2,0.3-5.6,0.8-7.2c0.5-1.6,1.3-3,2.3-4c1.1-1,2.5-1.7,4.5-2.3
		c1.9-0.6,4.5-0.9,7.7-0.9c4,0,6.5,0.3,7.6,1c0.7,0.4,1.2,1,1.6,1.9c0.4,0.9,0.6,1.7,0.6,2.4c0,0.6-0.3,0.9-0.9,0.9
		c-0.7,0-1.6-0.1-2.9-0.2C111.7,6,110,6,108.1,6c-2.3,0-4,0.1-5.1,0.4c-1.1,0.3-2,0.7-2.5,1.3c-0.5,0.5-0.9,1.3-1.2,2.2
		c-0.2,0.9-0.4,2.3-0.4,4.2v0.5c0,0.6,0.1,1,0.4,1.3s0.9,0.4,2,0.4H115c0.7,0,1,0.3,1,0.9c0,0.3-0.1,0.6-0.2,1.1
		c-0.1,0.4-0.3,0.9-0.5,1.3c-0.2,0.4-0.5,0.8-0.7,1.2c-0.3,0.4-0.5,0.6-0.8,0.8c-0.4,0.4-1.4,0.6-3,0.6h-9.1c-1.2,0-2,0.1-2.3,0.4
		s-0.4,1-0.4,2.2v28.1c0,0.7-0.4,1-1.1,1h-5.2c-0.6,0-0.9-0.3-0.9-1V25.1z"/>
	<path class="st1" d="M117.6,35.4c0-4.3,0.5-7.7,1.5-10.4c1-2.6,2.3-4.6,3.9-6c1.2-1.1,2.9-1.9,5-2.5c2.1-0.6,4.8-0.9,7.9-0.9
		c3.1,0,5.6,0.3,7.5,0.8c1.8,0.5,3.3,1.2,4.4,2.2c0.6,0.6,1.2,1.3,1.7,2.1c0.5,0.8,0.9,1.9,1.3,3.1c0.4,1.3,0.6,2.8,0.9,4.6
		c0.2,1.8,0.3,3.9,0.3,6.3c0,0.9-0.1,1.5-0.4,1.9c-0.2,0.4-0.7,0.6-1.4,0.6h-22.8c-1.1,0-1.7,0.1-2,0.3c-0.3,0.2-0.4,0.6-0.4,1.1
		c0,1.7,0.2,3.2,0.6,4.4c0.4,1.3,1,2.3,1.9,3.1c0.8,0.8,2.1,1.3,3.8,1.7c1.7,0.3,3.8,0.5,6.2,0.5c2.4,0,4.8-0.1,6.9-0.4
		c2.2-0.3,3.9-0.5,5.1-0.8c0.2,0,0.5,0,0.7,0.2c0.2,0.2,0.3,0.4,0.3,0.8c0,0.4-0.1,0.8-0.3,1.3c-0.2,0.5-0.4,0.9-0.7,1.4
		c-0.3,0.5-0.6,0.9-1,1.3c-0.4,0.4-0.7,0.7-1.1,0.9c-0.7,0.4-2.1,0.7-4,1c-2,0.3-4.5,0.4-7.5,0.4c-3.5,0-6.3-0.3-8.5-0.9
		c-2.2-0.6-4-1.5-5.2-2.6c-0.7-0.6-1.4-1.4-1.9-2.2c-0.6-0.9-1-1.9-1.4-3.1c-0.4-1.2-0.7-2.7-0.9-4.3
		C117.7,39.6,117.6,37.6,117.6,35.4z M135.4,21.2c-3.5,0-6,0.7-7.6,2c-0.5,0.4-0.9,0.9-1.2,1.5c-0.3,0.6-0.6,1.2-0.8,1.9
		c-0.2,0.7-0.4,1.3-0.5,2c-0.1,0.7-0.2,1.3-0.2,1.9c0,0.5,0.1,0.9,0.4,1c0.3,0.1,0.9,0.2,1.9,0.2h13.3c0.9,0,1.7,0,2.3,0
		c0.6,0,1-0.1,1.2-0.3c0.2-0.2,0.4-0.5,0.4-0.7c0-0.2,0.1-0.5,0.1-0.9c0-1.5-0.2-2.9-0.5-4.2c-0.4-1.3-0.9-2.2-1.7-2.8
		c-0.6-0.5-1.5-0.9-2.6-1.2C138.7,21.4,137.2,21.2,135.4,21.2z"/>
	<path class="st1" d="M164.4,11.1c0-1,0-1.7,0.1-2.2c0.1-0.5,0.2-0.9,0.4-1.1c0.3-0.3,0.9-0.7,1.7-1c0.9-0.3,2-0.6,3.5-0.8
		c0.3,0,0.5,0,0.8,0.2c0.2,0.2,0.3,0.5,0.3,0.9v5.2c0,0.9,0,1.6,0.1,2.2s0.2,0.9,0.5,1.2c0.2,0.3,0.6,0.4,1.2,0.5
		c0.5,0.1,1.2,0.1,2.1,0.1h11.6c0.7,0,1.1,0.3,1.1,0.9c0,0.4-0.1,0.9-0.3,1.4c-0.2,0.5-0.5,0.9-0.8,1.4s-0.6,0.8-0.9,1.1
		c-0.3,0.3-0.6,0.5-0.8,0.6c-0.4,0.2-0.8,0.3-1.1,0.4c-0.4,0-0.9,0.1-1.6,0.1h-7.8c-1.4,0-2.3,0.2-2.7,0.6c-0.4,0.4-0.6,1.3-0.6,2.7
		v15.3c0,2.1,0.1,3.5,0.3,4.4c0.2,0.9,0.5,1.5,1,1.9c0.5,0.4,1.2,0.7,2.2,0.9c1,0.2,2.4,0.3,4.1,0.3c1.4,0,2.7,0,3.9-0.1
		c1.2-0.1,2.2-0.2,3.1-0.4c0.2,0,0.5,0,0.7,0.2c0.2,0.2,0.4,0.4,0.4,0.7c0,0.4-0.1,0.9-0.3,1.3c-0.2,0.5-0.4,0.9-0.7,1.3
		s-0.6,0.8-1,1.2c-0.4,0.3-0.7,0.6-1,0.8c-0.5,0.3-1.4,0.5-2.6,0.7c-1.2,0.2-3,0.3-5.3,0.3c-2.5,0-4.6-0.2-6.1-0.6s-2.7-1-3.5-1.7
		c-0.4-0.4-0.7-0.8-1-1.3s-0.5-1.1-0.6-1.8c-0.2-0.7-0.3-1.6-0.4-2.6c-0.1-1-0.1-2.3-0.1-3.9V25.3c0-1.5-0.2-2.4-0.6-2.7
		c-0.4-0.3-1.1-0.5-2.2-0.5h-3.1c-0.3,0-0.5-0.1-0.6-0.3c-0.1-0.2-0.2-0.3-0.2-0.5c0-0.4,0.1-0.9,0.2-1.4c0.1-0.5,0.3-1,0.5-1.4
		c0.2-0.4,0.4-0.8,0.7-1.2c0.2-0.3,0.5-0.6,0.7-0.7c0.5-0.2,1.1-0.4,1.9-0.4h1.1c1,0,1.5-0.7,1.5-2V11.1z"/>
	<path class="st1" d="M215.6,65.5c-0.5,1.8-1.3,3.2-2.2,4c-0.9,0.8-2.3,1.3-4.1,1.3h-1c-0.4,0-0.7-0.1-0.9-0.4
		c-0.2-0.2-0.2-0.6-0.1-1.1l4-12.4c0.1-0.5,0.3-1,0.4-1.4c0.1-0.5,0.1-0.8,0.1-1.1c0-0.4-0.2-0.6-0.7-0.6c-0.2,0-0.6,0-1,0
		c-0.4,0-0.9,0-1.5,0c-1.8,0-3.3-0.2-4.3-0.5s-1.9-0.8-2.6-1.4c-0.8-0.7-1.5-1.9-2.2-3.6c-0.7-1.7-1.5-4.2-2.4-7.5l-6.4-23.3
		c-0.3-0.9,0-1.4,1-1.4h1.9c1.7,0,2.9,0.3,3.6,0.9c0.7,0.6,1.3,1.8,1.7,3.5l4.9,18.7c0.7,2.4,1.2,4.1,1.7,5.1c0.4,1,0.8,1.7,1.2,2.1
		c0.4,0.3,0.8,0.6,1.4,0.7c0.5,0.1,1.3,0.2,2.2,0.2c1.7,0,2.8-0.2,3.2-0.6c0.4-0.3,0.8-0.9,1.1-1.7c0.4-0.9,0.9-2.4,1.6-4.8
		l5.9-19.5c0.6-1.9,1.2-3.1,2-3.7c0.8-0.6,2-0.9,3.6-0.9h1.7c1,0,1.3,0.5,1.1,1.4L215.6,65.5z"/>
</g>
</svg>
