<?xml version="1.0" encoding="utf-8"?>
<!-- Generator: Adobe Illustrator 25.1.0, SVG Export Plug-In . SVG Version: 6.00 Build 0)  -->
<svg version="1.1"
	 id="Layer_1" xmlns:krita="http://krita.org/namespaces/svg/krita" xmlns:sodipodi="http://sodipodi.sourceforge.net/DTD/sodipodi-0.dtd"
	 xmlns="http://www.w3.org/2000/svg" xmlns:xlink="http://www.w3.org/1999/xlink" x="0px" y="0px" viewBox="0 0 700.1 48.7"
	 style="enable-background:new 0 0 700.1 48.7;" xml:space="preserve">
<style type="text/css">
	.st0{fill:#E8ECD7;}
</style>
<g>
	<path class="st0" d="M1.5,40.5c2.7,1.7,6.7,3.1,10.9,3.1c6.2,0,9.9-3.3,9.9-8.1c0-4.4-2.5-6.9-8.9-9.4C5.7,23.5,1,19.5,1,12.8
		C1,5.5,7.1,0,16.2,0c4.8,0,8.3,1.1,10.4,2.3l-1.7,5C23.5,6.4,20.3,5,16,5c-6.4,0-8.9,3.9-8.9,7.1c0,4.4,2.9,6.6,9.4,9.1
		c8,3.1,12,6.9,12,13.9c0,7.3-5.4,13.6-16.5,13.6c-4.6,0-9.5-1.3-12-3L1.5,40.5z"/>
	<path class="st0" d="M61.3,46.7c-1.6,0.8-5.2,2-9.7,2c-10.2,0-16.9-6.9-16.9-17.3c0-10.4,7.1-18,18.2-18c3.6,0,6.9,0.9,8.5,1.8
		L60,19.9c-1.5-0.8-3.8-1.6-7.1-1.6c-7.8,0-12,5.7-12,12.8c0,7.8,5,12.7,11.8,12.7c3.5,0,5.8-0.9,7.6-1.7L61.3,46.7z"/>
	<path class="st0" d="M75.3,4.6c0.1,2.1-1.5,3.8-3.9,3.8c-2.2,0-3.7-1.7-3.7-3.8c0-2.2,1.6-3.9,3.8-3.9C73.9,0.7,75.3,2.4,75.3,4.6z
		 M68.5,48V14.1h6.2V48H68.5z"/>
	<path class="st0" d="M88.3,32.1c0.1,8.3,5.5,11.8,11.6,11.8c4.4,0,7.1-0.8,9.4-1.8l1,4.4c-2.2,1-5.9,2.1-11.3,2.1
		c-10.4,0-16.7-6.9-16.7-17.1c0-10.2,6-18.3,15.9-18.3c11.1,0,14,9.7,14,16c0,1.3-0.1,2.2-0.2,2.9H88.3z M106.3,27.7
		c0.1-3.9-1.6-10-8.5-10c-6.2,0-9,5.7-9.5,10H106.3z"/>
	<path class="st0" d="M119.9,23.2c0-3.5-0.1-6.4-0.3-9.2h5.5l0.3,5.6h0.1c1.7-3.2,5.6-6.4,11.2-6.4c4.7,0,12,2.8,12,14.4V48h-6.2
		V28.4c0-5.5-2-10-7.8-10c-4.1,0-7.2,2.9-8.3,6.3c-0.3,0.8-0.4,1.8-0.4,2.9V48h-6.2V23.2z"/>
	<path class="st0" d="M182.9,46.7c-1.6,0.8-5.2,2-9.7,2c-10.2,0-16.9-6.9-16.9-17.3c0-10.4,7.1-18,18.2-18c3.6,0,6.9,0.9,8.5,1.8
		l-1.4,4.8c-1.5-0.8-3.8-1.6-7.1-1.6c-7.8,0-12,5.7-12,12.8c0,7.8,5,12.7,11.8,12.7c3.5,0,5.8-0.9,7.6-1.7L182.9,46.7z"/>
	<path class="st0" d="M193.1,32.1c0.1,8.3,5.5,11.8,11.6,11.8c4.4,0,7.1-0.8,9.4-1.8l1,4.4c-2.2,1-5.9,2.1-11.3,2.1
		c-10.4,0-16.7-6.9-16.7-17.1c0-10.2,6-18.3,15.9-18.3c11.1,0,14,9.7,14,16c0,1.3-0.1,2.2-0.2,2.9H193.1z M211.2,27.7
		c0.1-3.9-1.6-10-8.5-10c-6.2,0-9,5.7-9.5,10H211.2z"/>
	<path class="st0" d="M272.8,46.4c-2.2,1.1-6.7,2.2-12.5,2.2c-13.3,0-23.3-8.4-23.3-23.9C237,10,247,0,261.7,0
		c5.9,0,9.6,1.3,11.2,2.1l-1.5,5c-2.3-1.1-5.6-2-9.5-2c-11.1,0-18.4,7.1-18.4,19.5c0,11.6,6.7,19,18.1,19c3.7,0,7.5-0.8,9.9-2
		L272.8,46.4z"/>
	<path class="st0" d="M310.1,30.7c0,12.5-8.7,18-16.9,18c-9.2,0-16.2-6.7-16.2-17.4c0-11.3,7.4-18,16.8-18
		C303.5,13.3,310.1,20.4,310.1,30.7z M283.2,31.1c0,7.4,4.3,13,10.3,13c5.9,0,10.3-5.5,10.3-13.2c0-5.7-2.9-13-10.2-13
		C286.4,17.9,283.2,24.6,283.2,31.1z"/>
	<path class="st0" d="M317.9,23.2c0-3.5-0.1-6.4-0.3-9.2h5.4l0.3,5.5h0.2c1.9-3.2,5-6.2,10.6-6.2c4.6,0,8.1,2.8,9.6,6.8h0.1
		c1.1-1.9,2.4-3.4,3.8-4.4c2-1.5,4.3-2.4,7.5-2.4c4.5,0,11.1,2.9,11.1,14.7v20h-6V28.8c0-6.5-2.4-10.4-7.4-10.4
		c-3.5,0-6.2,2.6-7.3,5.6c-0.3,0.8-0.5,2-0.5,3.1V48h-6V27.7c0-5.4-2.4-9.3-7.1-9.3c-3.9,0-6.7,3.1-7.6,6.2c-0.3,0.9-0.5,2-0.5,3V48
		h-6V23.2z"/>
	<path class="st0" d="M376.2,23.2c0-3.5-0.1-6.4-0.3-9.2h5.4l0.3,5.5h0.2c1.9-3.2,5-6.2,10.6-6.2c4.6,0,8.1,2.8,9.6,6.8h0.1
		c1.1-1.9,2.4-3.4,3.8-4.4c2-1.5,4.3-2.4,7.5-2.4c4.5,0,11.1,2.9,11.1,14.7v20h-6V28.8c0-6.5-2.4-10.4-7.4-10.4
		c-3.5,0-6.2,2.6-7.3,5.6c-0.3,0.8-0.5,2-0.5,3.1V48h-6V27.7c0-5.4-2.4-9.3-7.1-9.3c-3.9,0-6.7,3.1-7.6,6.2c-0.3,0.9-0.5,2-0.5,3V48
		h-6V23.2z"/>
	<path class="st0" d="M463,38.7c0,3.5,0.1,6.6,0.3,9.2h-5.5l-0.4-5.5h-0.1c-1.6,2.7-5.2,6.3-11.2,6.3c-5.3,0-11.7-2.9-11.7-14.8
		V14.1h6.2v18.8c0,6.4,2,10.8,7.6,10.8c4.1,0,7-2.9,8.1-5.6c0.3-0.9,0.6-2,0.6-3.2V14.1h6.2V38.7z"/>
	<path class="st0" d="M473.2,23.2c0-3.5-0.1-6.4-0.3-9.2h5.5l0.3,5.6h0.1c1.7-3.2,5.6-6.4,11.2-6.4c4.7,0,12,2.8,12,14.4V48h-6.2
		V28.4c0-5.5-2-10-7.8-10c-4.1,0-7.2,2.9-8.3,6.3c-0.3,0.8-0.4,1.8-0.4,2.9V48h-6.2V23.2z"/>
	<path class="st0" d="M518.9,4.6c0.1,2.1-1.5,3.8-3.9,3.8c-2.2,0-3.7-1.7-3.7-3.8c0-2.2,1.6-3.9,3.8-3.9
		C517.4,0.7,518.9,2.4,518.9,4.6z M512,48V14.1h6.2V48H512z"/>
	<path class="st0" d="M552.6,46.7c-1.6,0.8-5.2,2-9.7,2c-10.2,0-16.9-6.9-16.9-17.3c0-10.4,7.1-18,18.2-18c3.6,0,6.9,0.9,8.5,1.8
		l-1.4,4.8c-1.5-0.8-3.8-1.6-7.1-1.6c-7.8,0-12,5.7-12,12.8c0,7.8,5,12.7,11.8,12.7c3.5,0,5.8-0.9,7.6-1.7L552.6,46.7z"/>
	<path class="st0" d="M578.5,48l-0.5-4.3h-0.2c-1.9,2.7-5.5,5-10.4,5c-6.9,0-10.4-4.8-10.4-9.7c0-8.2,7.3-12.7,20.4-12.6v-0.7
		c0-2.8-0.8-7.8-7.7-7.8c-3.1,0-6.4,1-8.8,2.5l-1.4-4.1c2.8-1.8,6.9-3,11.1-3c10.4,0,12.9,7.1,12.9,13.9v12.7c0,2.9,0.1,5.8,0.6,8.1
		H578.5z M577.6,30.7c-6.7-0.1-14.4,1-14.4,7.6c0,4,2.7,5.9,5.8,5.9c4.4,0,7.2-2.8,8.2-5.7c0.2-0.6,0.4-1.3,0.4-2V30.7z"/>
	<path class="st0" d="M600.7,4.3v9.7h8.8v4.7h-8.8V37c0,4.2,1.2,6.6,4.6,6.6c1.6,0,2.8-0.2,3.6-0.4l0.3,4.6
		c-1.2,0.5-3.1,0.8-5.5,0.8c-2.9,0-5.2-0.9-6.7-2.6c-1.8-1.8-2.4-4.8-2.4-8.8V18.8h-5.3v-4.7h5.3V6L600.7,4.3z"/>
	<path class="st0" d="M623.3,4.6c0.1,2.1-1.5,3.8-3.9,3.8c-2.2,0-3.7-1.7-3.7-3.8c0-2.2,1.6-3.9,3.8-3.9
		C621.8,0.7,623.3,2.4,623.3,4.6z M616.4,48V14.1h6.2V48H616.4z"/>
	<path class="st0" d="M663.5,30.7c0,12.5-8.7,18-16.9,18c-9.2,0-16.2-6.7-16.2-17.4c0-11.3,7.4-18,16.8-18
		C656.9,13.3,663.5,20.4,663.5,30.7z M636.6,31.1c0,7.4,4.3,13,10.3,13c5.9,0,10.3-5.5,10.3-13.2c0-5.7-2.9-13-10.2-13
		C639.7,17.9,636.6,24.6,636.6,31.1z"/>
	<path class="st0" d="M671.2,23.2c0-3.5-0.1-6.4-0.3-9.2h5.5l0.3,5.6h0.1c1.7-3.2,5.6-6.4,11.2-6.4c4.7,0,12,2.8,12,14.4V48h-6.2
		V28.4c0-5.5-2-10-7.8-10c-4.1,0-7.2,2.9-8.3,6.3c-0.3,0.8-0.4,1.8-0.4,2.9V48h-6.2V23.2z"/>
</g>
</svg>
