<?xml version="1.0" encoding="utf-8"?>
<!-- Generator: Adobe Illustrator 24.0.2, SVG Export Plug-In . SVG Version: 6.00 Build 0)  -->
<svg version="1.1"
	 id="Layer_1" xmlns:krita="http://krita.org/namespaces/svg/krita" xmlns:sodipodi="http://sodipodi.sourceforge.net/DTD/sodipodi-0.dtd"
	 xmlns="http://www.w3.org/2000/svg" xmlns:xlink="http://www.w3.org/1999/xlink" x="0px" y="0px" viewBox="0 0 561.5 53.5"
	 style="enable-background:new 0 0 561.5 53.5;" xml:space="preserve">
<style type="text/css">
	.st0{enable-background:new    ;}
	.st1{fill:#E8ECD7;}
</style>
<g class="st0">
	<path class="st1" d="M7.5,28.4c0,4.2,0.4,7.6,1.1,10.2c0.7,2.6,1.8,4.4,3.1,5.3c1.1,0.8,2.7,1.5,4.7,1.9c2,0.5,4.8,0.7,8.2,0.7
		c1.4,0,2.8,0,4.1-0.1c1.3-0.1,2.6-0.2,3.8-0.3c1.2-0.1,2.3-0.2,3.2-0.4c1-0.1,1.8-0.2,2.4-0.3c0.6-0.1,0.9,0.2,0.9,0.9
		c-0.1,0.8-0.4,1.8-1,2.8c-0.6,1.1-1.3,1.9-2.1,2.3c-0.8,0.4-2.3,0.8-4.5,1.2c-2.2,0.3-5.2,0.5-9.1,0.5c-4.2,0-7.6-0.4-10.3-1.2
		c-2.6-0.8-4.6-1.8-6-3.1c-0.8-0.7-1.6-1.5-2.3-2.6c-0.7-1.1-1.3-2.4-1.9-4.1c-0.5-1.6-1-3.5-1.3-5.7C0.2,34.4,0,31.8,0,28.9
		c0-5.9,0.7-10.5,2.1-13.8c1.4-3.4,3-5.8,4.9-7.4C7.7,7.1,8.6,6.5,9.6,6c1-0.5,2.2-0.9,3.6-1.3c1.4-0.4,2.9-0.7,4.7-0.9
		c1.8-0.2,3.8-0.3,6.1-0.3c3.1,0,5.6,0.1,7.6,0.3c2,0.2,3.5,0.6,4.3,1.1c0.5,0.2,0.9,0.6,1.3,1c0.4,0.4,0.7,0.9,0.9,1.3
		c0.3,0.5,0.5,0.9,0.6,1.4c0.1,0.5,0.2,0.9,0.2,1.2c0,0.3-0.1,0.5-0.2,0.8s-0.4,0.3-0.8,0.3c-1.5-0.2-3.3-0.4-5.4-0.6
		c-2.1-0.2-4.7-0.3-7.8-0.3c-3.6,0-6.3,0.3-8.2,0.8c-1.9,0.5-3.4,1.2-4.5,2.2c-1.3,1.1-2.4,2.9-3.2,5.4C7.9,20.8,7.5,24.1,7.5,28.4z
		"/>
	<path class="st1" d="M83.2,33.3c0,4.4-0.5,8-1.6,10.8c-1.1,2.8-2.3,4.7-3.7,5.9c-1.2,1-3,1.8-5.2,2.5c-2.2,0.6-5.1,1-8.5,1
		c-3.4,0-6.2-0.4-8.4-1.1c-2.2-0.7-3.9-1.7-5.1-2.8c-1.2-1.2-2.2-2.9-3-5.2c-0.9-2.3-1.3-5.6-1.3-9.9c0-4.4,0.5-8,1.6-10.7
		c1.1-2.7,2.4-4.7,4-5.9c1.3-1,3.1-1.8,5.3-2.4c2.2-0.6,5-0.9,8.3-0.9c3.5,0,6.3,0.3,8.5,0.9c2.2,0.6,3.8,1.5,5,2.7
		c0.6,0.6,1.1,1.3,1.6,2.1c0.5,0.8,1,1.8,1.4,3.1c0.4,1.2,0.7,2.7,1,4.4C83,29.2,83.2,31.1,83.2,33.3z M76.2,33.7
		c0-3.1-0.2-5.5-0.7-7.1c-0.5-1.6-1.2-2.9-2-3.9c-1.3-1.6-4.1-2.4-8.3-2.4c-2.2,0-4,0.2-5.4,0.6c-1.4,0.4-2.5,1-3.2,1.7
		c-0.9,0.8-1.6,2.1-2.3,3.9c-0.6,1.8-1,4.3-1,7.5c0,2.7,0.2,5,0.7,6.9c0.5,1.8,1.2,3.2,2,4.1c0.8,0.8,2,1.4,3.5,1.8
		c1.5,0.4,3.1,0.5,4.9,0.5c3.9,0,6.7-0.6,8.3-1.9c1-0.7,1.8-2.1,2.5-4C75.8,39.6,76.2,37,76.2,33.7z"/>
	<path class="st1" d="M123.3,14.6c4,0,7.4,0.1,10.2,0.2c2.8,0.1,5.2,0.4,7.1,0.6c1.9,0.3,3.4,0.6,4.6,1c1.2,0.4,2,0.9,2.7,1.5
		c0.6,0.5,1.1,1.1,1.4,1.8c0.4,0.6,0.7,1.4,0.9,2.3c0.2,0.9,0.3,1.9,0.4,3.2c0.1,1.2,0.1,2.7,0.1,4.4v22c0,0.7-0.3,1-0.9,1h-3.9
		c-0.9,0-1.5-0.2-1.8-0.5c-0.4-0.3-0.5-1-0.5-2.2V31.3c0-2.5-0.1-4.4-0.3-5.7c-0.2-1.2-0.7-2.2-1.3-2.9c-0.7-0.7-2.1-1.2-4.4-1.5
		c-2.3-0.3-5.6-0.5-9.8-0.5c-0.7,0-1.2,0.2-1.3,0.6c-0.2,0.4-0.3,0.9-0.3,1.7v28.5c0,0.7-0.3,1.1-0.9,1.1h-5.5
		c-0.5,0-0.7-0.4-0.7-1.1V23c0-0.8-0.1-1.4-0.3-1.7c-0.2-0.3-0.7-0.5-1.5-0.5c-3,0-5.7,0.1-8.1,0.2c-2.4,0.1-4.3,0.3-5.6,0.6
		c-0.8,0.1-1.3,0.3-1.6,0.6c-0.2,0.3-0.4,1-0.4,2.1v27.2c0,0.7-0.3,1.1-0.9,1.1h-5.4c-0.5,0-0.8-0.3-0.8-1V17.1c0-0.5,0.3-0.9,0.9-1
		c3.5-0.3,7.5-0.7,12.1-1C112.1,14.8,117.4,14.6,123.3,14.6z"/>
	<path class="st1" d="M192.7,14.6c4,0,7.4,0.1,10.2,0.2c2.8,0.1,5.2,0.4,7.1,0.6c1.9,0.3,3.4,0.6,4.6,1c1.2,0.4,2,0.9,2.7,1.5
		c0.6,0.5,1.1,1.1,1.4,1.8c0.4,0.6,0.7,1.4,0.9,2.3c0.2,0.9,0.3,1.9,0.4,3.2c0.1,1.2,0.1,2.7,0.1,4.4v22c0,0.7-0.3,1-0.9,1h-3.9
		c-0.9,0-1.5-0.2-1.8-0.5c-0.4-0.3-0.5-1-0.5-2.2V31.3c0-2.5-0.1-4.4-0.3-5.7c-0.2-1.2-0.7-2.2-1.3-2.9c-0.7-0.7-2.1-1.2-4.4-1.5
		c-2.3-0.3-5.6-0.5-9.8-0.5c-0.7,0-1.2,0.2-1.3,0.6c-0.2,0.4-0.3,0.9-0.3,1.7v28.5c0,0.7-0.3,1.1-0.9,1.1h-5.5
		c-0.5,0-0.7-0.4-0.7-1.1V23c0-0.8-0.1-1.4-0.3-1.7c-0.2-0.3-0.7-0.5-1.5-0.5c-3,0-5.7,0.1-8.1,0.2c-2.4,0.1-4.3,0.3-5.6,0.6
		c-0.8,0.1-1.3,0.3-1.6,0.6c-0.2,0.3-0.4,1-0.4,2.1v27.2c0,0.7-0.3,1.1-0.9,1.1h-5.4c-0.5,0-0.8-0.3-0.8-1V17.1c0-0.5,0.3-0.9,0.9-1
		c3.5-0.3,7.5-0.7,12.1-1C181.4,14.8,186.7,14.6,192.7,14.6z"/>
	<path class="st1" d="M266.6,50.5c0,0.6-0.3,0.9-1,1.1c-0.8,0.2-1.8,0.4-3,0.5c-1.2,0.2-2.5,0.3-3.9,0.5c-1.4,0.1-2.9,0.3-4.4,0.3
		c-1.5,0.1-3.1,0.1-4.6,0.1c-4,0-7.1-0.3-9.3-0.9c-2.2-0.6-3.9-1.5-5-2.6c-0.5-0.5-0.9-1.1-1.2-1.8c-0.3-0.6-0.6-1.4-0.8-2.3
		c-0.2-0.9-0.3-1.9-0.4-3c-0.1-1.1-0.1-2.5-0.1-4V16c0-0.6,0.3-0.9,0.8-0.9h4.1c0.9,0,1.5,0.2,1.8,0.5c0.3,0.3,0.4,0.9,0.4,1.7v20.4
		c0,2,0.1,3.6,0.4,4.6c0.3,1.1,0.7,1.9,1.2,2.5c0.7,0.7,1.7,1.2,3,1.6c1.3,0.4,3.2,0.6,5.5,0.6c1.4,0,2.7,0,4-0.1
		c1.3-0.1,2.3-0.2,3.1-0.4c0.8-0.1,1.4-0.4,1.7-0.8c0.3-0.4,0.5-1.1,0.5-2.1V16c0-0.6,0.3-0.9,0.9-0.9h5.2c0.7,0,1,0.4,1,1.1V50.5z"
		/>
	<path class="st1" d="M313.6,51.7c0,0.6-0.3,0.9-0.9,0.9h-4.4c-0.8,0-1.3-0.2-1.5-0.5c-0.2-0.3-0.3-0.9-0.3-1.7V30.4
		c0-2.3-0.1-4-0.4-5.1c-0.3-1.1-0.7-2-1.2-2.7c-0.6-0.7-1.5-1.2-2.7-1.5c-1.2-0.3-2.8-0.5-5-0.5c-1.9,0-3.5,0-4.8,0.1
		c-1.3,0.1-2.5,0.2-3.6,0.3c-0.8,0.1-1.3,0.3-1.5,0.6c-0.2,0.3-0.3,1.1-0.3,2.2v27.7c0,0.7-0.3,1-0.9,1h-5.3c-0.6,0-0.9-0.3-0.9-1
		V16.8c0-0.5,0.3-0.9,1-1c2-0.2,4.5-0.5,7.5-0.8s6-0.4,9.2-0.4c3.8,0,6.7,0.3,8.7,0.8c2,0.5,3.6,1.3,4.7,2.4c1,1,1.6,2.3,2.1,4
		c0.4,1.6,0.6,4,0.6,7.1V51.7z"/>
	<path class="st1" d="M334.9,3.7c0,1.6-0.3,2.7-1,3.2c-0.5,0.3-1.1,0.5-1.8,0.6c-0.7,0.1-1.3,0.1-1.8,0.1c-1.8,0-3-0.2-3.6-0.7
		c-0.6-0.4-0.9-1.4-0.9-2.9c0-1.7,0.3-2.8,1-3.2c0.4-0.3,0.9-0.5,1.5-0.6c0.6-0.1,1.3-0.2,2.2-0.2s1.5,0,2.2,0.1
		c0.6,0.1,1.1,0.3,1.3,0.6c0.3,0.2,0.6,0.6,0.7,1.2C334.9,2.4,334.9,3,334.9,3.7z M333.9,51.6c0,0.7-0.3,1-0.9,1h-5.5
		c-0.4,0-0.6-0.1-0.7-0.2c-0.1-0.1-0.1-0.4-0.1-0.8V16.1c0-0.7,0.4-1,1.1-1h5.3c0.4,0,0.6,0.1,0.7,0.2c0.1,0.1,0.1,0.4,0.1,0.8V51.6
		z"/>
	<path class="st1" d="M374.2,15.7c0.7,0.4,1.3,1.1,1.7,2c0.4,0.9,0.6,1.7,0.6,2.4c0,0.4-0.2,0.7-0.5,1c-0.3,0.3-0.6,0.3-0.8,0.3
		c-1.2-0.1-2.7-0.3-4.2-0.4c-1.6-0.1-3.4-0.2-5.4-0.2c-2.7,0-4.9,0.2-6.4,0.5c-1.6,0.4-2.7,0.9-3.5,1.5c-0.9,0.8-1.7,2.1-2.3,3.9
		c-0.6,1.8-0.9,4.1-0.9,7c0,3.3,0.2,5.8,0.7,7.4s1.2,2.9,2.1,3.7c1.7,1.4,5,2.2,9.9,2.2c2.4,0,4.5-0.1,6.1-0.3
		c1.6-0.2,3-0.4,4.2-0.5c0.2-0.1,0.5-0.1,0.7,0.1s0.4,0.4,0.4,0.8s-0.1,0.7-0.3,1.2c-0.2,0.5-0.4,0.9-0.6,1.4
		c-0.2,0.5-0.5,0.9-0.9,1.4c-0.3,0.4-0.7,0.7-1,0.9c-0.7,0.4-1.9,0.7-3.8,1c-1.8,0.3-4.1,0.4-6.9,0.4c-3.5,0-6.2-0.3-8.2-0.9
		c-2-0.6-3.7-1.5-5-2.6c-1.4-1.2-2.5-3-3.4-5.4s-1.3-5.8-1.3-10.2c0-4.2,0.5-7.6,1.6-10.2c1.1-2.6,2.4-4.6,3.9-6
		c1.2-1.1,3-2,5.2-2.6c2.2-0.6,5.1-0.9,8.7-0.9C369.7,14.4,372.9,14.8,374.2,15.7z"/>
	<path class="st1" d="M415.7,51c0,0.6-0.4,1-1.1,1.1c-1.7,0.2-3.8,0.5-6.2,0.7c-2.4,0.2-5.1,0.3-8,0.3c-2.2,0-4.1-0.1-5.7-0.2
		c-1.6-0.1-2.9-0.3-4-0.5c-1.1-0.2-2-0.5-2.7-0.9c-0.7-0.3-1.3-0.7-1.8-1.2c-0.8-0.8-1.5-1.8-1.9-3.2c-0.5-1.4-0.7-3.2-0.7-5.3
		c0-2.1,0.2-3.9,0.7-5.5c0.5-1.6,1.1-2.7,1.9-3.3c0.5-0.3,1.4-0.6,2.7-0.8c1.3-0.3,3-0.5,4.9-0.7c1.9-0.2,4.1-0.4,6.4-0.6
		c2.4-0.2,4.8-0.3,7.3-0.4c0.9,0,1.3-0.5,1.3-1.4c0-2-0.1-3.5-0.4-4.5c-0.3-1-0.7-1.8-1.3-2.3c-0.7-0.6-1.7-1-3-1.2
		c-1.3-0.2-3.3-0.3-5.9-0.3c-1,0-2.1,0-3.1,0.1c-1.1,0-2.1,0.1-3.2,0.2c-1,0.1-2,0.2-2.9,0.3c-0.9,0.1-1.7,0.3-2.4,0.4
		c-0.2,0-0.5,0-0.7-0.1c-0.2-0.1-0.4-0.4-0.4-0.7c0-0.3,0.1-0.7,0.3-1.2c0.2-0.5,0.4-0.9,0.6-1.4c0.3-0.5,0.6-0.9,0.9-1.3
		c0.3-0.4,0.7-0.7,1-0.9c0.9-0.5,2.3-0.9,4.4-1.2s4.6-0.4,7.6-0.4c3.6,0,6.4,0.2,8.4,0.7c1.9,0.5,3.3,1.2,4.2,2.1
		c0.4,0.5,0.8,1,1.2,1.7c0.4,0.6,0.7,1.5,0.9,2.5c0.3,1,0.5,2.3,0.6,3.9c0.1,1.6,0.2,3.6,0.2,5.9V51z M408.7,37.4
		c0-0.7-0.1-1.1-0.4-1.2c-0.3-0.1-0.6-0.2-1-0.2c-1.3,0-2.9,0-4.5,0.1c-1.7,0.1-3.3,0.2-4.8,0.3c-1.5,0.1-2.9,0.3-4,0.5
		c-1.2,0.2-1.9,0.4-2.2,0.6c-0.4,0.3-0.7,0.7-0.9,1.4c-0.2,0.6-0.3,1.5-0.3,2.7c0,2.3,0.5,3.7,1.5,4.5c0.5,0.5,1.4,0.8,2.6,1.1
		c1.2,0.2,3,0.4,5.3,0.4c2.2,0,4-0.1,5.4-0.3c1.4-0.2,2.3-0.4,2.6-0.7c0.2-0.2,0.4-0.6,0.6-1c0.1-0.4,0.2-1.2,0.2-2.4V37.4z"/>
	<path class="st1" d="M430.3,9.9c0-1,0-1.7,0.1-2.2c0.1-0.5,0.2-0.9,0.4-1.1c0.3-0.3,0.9-0.7,1.7-1c0.9-0.3,2-0.6,3.5-0.8
		c0.3,0,0.5,0,0.8,0.2c0.2,0.2,0.3,0.5,0.3,0.9v5.2c0,0.9,0,1.6,0.1,2.2s0.2,0.9,0.5,1.2c0.2,0.3,0.6,0.4,1.2,0.5
		c0.5,0.1,1.2,0.1,2.1,0.1h11.6c0.7,0,1.1,0.3,1.1,0.9c0,0.4-0.1,0.9-0.3,1.4c-0.2,0.5-0.5,0.9-0.8,1.4s-0.6,0.8-0.9,1.1
		c-0.3,0.3-0.6,0.5-0.8,0.6c-0.4,0.2-0.8,0.3-1.1,0.4c-0.4,0-0.9,0.1-1.6,0.1h-7.8c-1.4,0-2.3,0.2-2.7,0.6c-0.4,0.4-0.6,1.3-0.6,2.7
		v15.3c0,2.1,0.1,3.5,0.3,4.4c0.2,0.9,0.5,1.5,1,1.9c0.5,0.4,1.2,0.7,2.2,0.9c1,0.2,2.4,0.3,4.1,0.3c1.4,0,2.7,0,3.9-0.1
		c1.2-0.1,2.2-0.2,3.1-0.4c0.2,0,0.5,0,0.7,0.2c0.2,0.2,0.4,0.4,0.4,0.7c0,0.4-0.1,0.9-0.3,1.3c-0.2,0.5-0.4,0.9-0.7,1.3
		s-0.6,0.8-1,1.2c-0.4,0.3-0.7,0.6-1,0.8c-0.5,0.3-1.4,0.5-2.6,0.7c-1.2,0.2-3,0.3-5.3,0.3c-2.5,0-4.6-0.2-6.1-0.6s-2.7-1-3.5-1.7
		c-0.4-0.4-0.7-0.8-1-1.3s-0.5-1.1-0.6-1.8c-0.2-0.7-0.3-1.6-0.4-2.6c-0.1-1-0.1-2.3-0.1-3.9V24c0-1.5-0.2-2.4-0.6-2.7
		c-0.4-0.3-1.1-0.5-2.2-0.5h-3.1c-0.3,0-0.5-0.1-0.6-0.3c-0.1-0.2-0.2-0.3-0.2-0.5c0-0.4,0.1-0.9,0.2-1.4c0.1-0.5,0.3-1,0.5-1.4
		c0.2-0.4,0.4-0.8,0.7-1.2c0.2-0.3,0.5-0.6,0.7-0.7c0.5-0.2,1.1-0.4,1.9-0.4h1.1c1,0,1.5-0.7,1.5-2V9.9z"/>
	<path class="st1" d="M469.3,3.7c0,1.6-0.3,2.7-1,3.2c-0.5,0.3-1.1,0.5-1.8,0.6c-0.7,0.1-1.3,0.1-1.8,0.1c-1.8,0-3-0.2-3.6-0.7
		c-0.6-0.4-0.9-1.4-0.9-2.9c0-1.7,0.3-2.8,1-3.2c0.4-0.3,0.9-0.5,1.5-0.6c0.6-0.1,1.3-0.2,2.2-0.2s1.5,0,2.2,0.1
		c0.6,0.1,1.1,0.3,1.3,0.6c0.3,0.2,0.6,0.6,0.7,1.2C469.2,2.4,469.3,3,469.3,3.7z M468.2,51.6c0,0.7-0.3,1-0.9,1h-5.5
		c-0.4,0-0.6-0.1-0.7-0.2c-0.1-0.1-0.1-0.4-0.1-0.8V16.1c0-0.7,0.4-1,1.1-1h5.3c0.4,0,0.6,0.1,0.7,0.2c0.1,0.1,0.1,0.4,0.1,0.8V51.6
		z"/>
	<path class="st1" d="M516.5,33.3c0,4.4-0.5,8-1.6,10.8c-1.1,2.8-2.3,4.7-3.7,5.9c-1.2,1-3,1.8-5.2,2.5c-2.2,0.6-5.1,1-8.5,1
		c-3.4,0-6.2-0.4-8.4-1.1c-2.2-0.7-3.9-1.7-5.1-2.8c-1.2-1.2-2.2-2.9-3-5.2c-0.9-2.3-1.3-5.6-1.3-9.9c0-4.4,0.5-8,1.6-10.7
		c1.1-2.7,2.4-4.7,4-5.9c1.3-1,3.1-1.8,5.3-2.4c2.2-0.6,5-0.9,8.3-0.9c3.5,0,6.3,0.3,8.5,0.9c2.2,0.6,3.8,1.5,5,2.7
		c0.6,0.6,1.1,1.3,1.6,2.1c0.5,0.8,1,1.8,1.4,3.1c0.4,1.2,0.7,2.7,1,4.4C516.4,29.2,516.5,31.1,516.5,33.3z M509.5,33.7
		c0-3.1-0.2-5.5-0.7-7.1c-0.5-1.6-1.2-2.9-2-3.9c-1.3-1.6-4.1-2.4-8.3-2.4c-2.2,0-4,0.2-5.4,0.6c-1.4,0.4-2.5,1-3.2,1.7
		c-0.9,0.8-1.6,2.1-2.3,3.9c-0.6,1.8-1,4.3-1,7.5c0,2.7,0.2,5,0.7,6.9c0.5,1.8,1.2,3.2,2,4.1c0.8,0.8,2,1.4,3.5,1.8
		c1.5,0.4,3.1,0.5,4.9,0.5c3.9,0,6.7-0.6,8.3-1.9c1-0.7,1.8-2.1,2.5-4C509.2,39.6,509.5,37,509.5,33.7z"/>
	<path class="st1" d="M561.5,51.7c0,0.6-0.3,0.9-0.9,0.9h-4.4c-0.8,0-1.3-0.2-1.5-0.5c-0.2-0.3-0.3-0.9-0.3-1.7V30.4
		c0-2.3-0.1-4-0.4-5.1c-0.3-1.1-0.7-2-1.2-2.7c-0.6-0.7-1.5-1.2-2.7-1.5c-1.2-0.3-2.8-0.5-5-0.5c-1.9,0-3.5,0-4.8,0.1
		c-1.3,0.1-2.5,0.2-3.6,0.3c-0.8,0.1-1.3,0.3-1.5,0.6c-0.2,0.3-0.3,1.1-0.3,2.2v27.7c0,0.7-0.3,1-0.9,1h-5.3c-0.6,0-0.9-0.3-0.9-1
		V16.8c0-0.5,0.3-0.9,1-1c2-0.2,4.5-0.5,7.5-0.8s6-0.4,9.2-0.4c3.8,0,6.7,0.3,8.7,0.8c2,0.5,3.6,1.3,4.7,2.4c1,1,1.6,2.3,2.1,4
		c0.4,1.6,0.6,4,0.6,7.1V51.7z"/>
</g>
</svg>
