<?xml version="1.0" encoding="utf-8"?>
<!-- Generator: Adobe Illustrator 24.0.2, SVG Export Plug-In . SVG Version: 6.00 Build 0)  -->
<svg version="1.1"
	 id="Layer_1" xmlns:krita="http://krita.org/namespaces/svg/krita" xmlns:sodipodi="http://sodipodi.sourceforge.net/DTD/sodipodi-0.dtd"
	 xmlns="http://www.w3.org/2000/svg" xmlns:xlink="http://www.w3.org/1999/xlink" x="0px" y="0px" viewBox="0 0 423.6 70.5"
	 style="enable-background:new 0 0 423.6 70.5;" xml:space="preserve">
<style type="text/css">
	.st0{enable-background:new    ;}
	.st1{fill:#E8ECD7;}
</style>
<g class="st0">
	<path class="st1" d="M18.1,10.2c-1.8,0-3.5,0-5,0c-1.5,0-2.8,0-3.9,0.1c-0.8,0-1.3,0.2-1.5,0.5c-0.2,0.3-0.4,0.8-0.4,1.5v11.2
		c0,0.6,0.1,0.9,0.4,1.1c0.2,0.2,0.6,0.3,1.1,0.3h22.2c0.7,0,1,0.3,1,1c0,0.2-0.1,0.6-0.2,1c-0.1,0.5-0.3,0.9-0.6,1.4
		c-0.2,0.5-0.5,0.9-0.8,1.3c-0.3,0.4-0.6,0.7-1,0.9c-0.4,0.2-0.8,0.4-1.3,0.5c-0.5,0.1-1.2,0.1-2,0.1H8.8c-0.5,0-0.9,0.1-1.2,0.3
		c-0.2,0.2-0.4,0.7-0.4,1.3v11.5c0,0.8,0.2,1.4,0.5,1.7c0.3,0.3,0.9,0.4,1.6,0.4c0.8,0,1.8,0,3,0c1.2,0,3,0,5.1,0c3.8,0,7,0,9.7-0.1
		c2.7-0.1,5-0.2,6.9-0.3c0.7,0,1,0.3,1,0.9c0,0.4-0.1,0.9-0.4,1.4c-0.2,0.6-0.5,1.1-0.9,1.6c-0.3,0.5-0.7,1-1.2,1.4
		c-0.4,0.4-0.8,0.7-1.2,0.8c-0.7,0.3-2,0.5-4,0.5s-5.1,0.1-9.4,0.1c-3.5,0-6.6,0-9.3,0c-2.7,0-5.2-0.1-7.3-0.2c-0.3,0-0.6-0.1-1-0.4
		C0.2,52,0,51.4,0,50.6v-45c0-0.6,0.2-1,0.5-1.2c0.4-0.2,0.7-0.3,1-0.3c2.3-0.1,4.6-0.2,7-0.3c2.4-0.1,5.1-0.1,8.2-0.1
		c1.8,0,3.5,0,5.1,0c1.6,0,3,0,4.3,0c1.2,0,2.3,0.1,3.2,0.1c0.9,0.1,1.5,0.2,1.8,0.3c0.3,0.1,0.7,0.3,1,0.7c0.4,0.4,0.7,0.8,1,1.4
		c0.3,0.5,0.5,1.1,0.7,1.7c0.2,0.6,0.3,1.1,0.3,1.5c0,0.3-0.1,0.5-0.3,0.7c-0.2,0.2-0.5,0.3-0.8,0.3c-1.9-0.1-4.1-0.2-6.7-0.2
		C23.6,10.2,20.9,10.2,18.1,10.2z"/>
	<path class="st1" d="M78.7,51.7c0,0.6-0.3,0.9-0.9,0.9h-4.4c-0.8,0-1.3-0.2-1.5-0.5c-0.2-0.3-0.3-0.9-0.3-1.7V30.4
		c0-2.3-0.1-4-0.4-5.1c-0.3-1.1-0.7-2-1.2-2.7c-0.6-0.7-1.5-1.2-2.7-1.5c-1.2-0.3-2.8-0.5-5-0.5c-1.9,0-3.5,0-4.8,0.1
		c-1.3,0.1-2.5,0.2-3.6,0.3c-0.8,0.1-1.3,0.3-1.5,0.6c-0.2,0.3-0.3,1.1-0.3,2.2v27.7c0,0.7-0.3,1-0.9,1h-5.3c-0.6,0-0.9-0.3-0.9-1
		V16.8c0-0.5,0.3-0.9,1-1c2-0.2,4.5-0.5,7.5-0.8s6-0.4,9.2-0.4c3.8,0,6.7,0.3,8.7,0.8c2,0.5,3.6,1.3,4.7,2.4c1,1,1.6,2.3,2.1,4
		c0.4,1.6,0.6,4,0.6,7.1V51.7z"/>
	<path class="st1" d="M110.2,14.6c3,0,5.7,0.1,8.1,0.3s4.3,0.3,5.6,0.5c0.6,0,0.9,0.4,0.9,1.1c0,5.8-0.4,10.3-1.3,13.6
		c-0.9,3.3-2.1,5.7-3.6,7.1c-0.6,0.5-1.2,0.9-2,1.4c-0.7,0.4-1.7,0.8-2.9,1.1c-1.2,0.3-2.6,0.6-4.3,0.8c-1.7,0.2-3.8,0.3-6.2,0.4
		c-1.9,0-3.2,0-4,0.1c-0.8,0.1-1.4,0.2-1.7,0.4c-0.2,0.2-0.4,0.8-0.5,1.8c-0.1,1-0.2,2.1-0.2,3.2c0,0.9,0.4,1.3,1.2,1.3
		c0.4,0,1.1,0,1.9,0c0.8,0,1.8,0,2.8,0c1.1,0,2.2,0,3.3-0.1c1.2,0,2.3,0,3.4,0c2.2,0,4,0,5.5,0.1c1.5,0.1,2.8,0.2,3.8,0.3
		c1,0.1,1.8,0.3,2.4,0.5c0.6,0.2,1.1,0.4,1.5,0.6c0.7,0.5,1.2,1.4,1.7,2.5c0.4,1.2,0.6,2.8,0.6,4.9c0,2.6-0.4,4.8-1.1,6.7
		c-0.7,1.8-1.6,3.2-2.6,4.1c-1.2,1.1-3.1,1.9-5.7,2.5c-2.5,0.6-6.1,0.9-10.7,0.9c-3.8,0-6.7-0.1-8.9-0.4c-2.1-0.3-3.6-0.6-4.4-1
		c-0.4-0.2-0.8-0.6-1.2-1c-0.4-0.5-0.7-0.9-0.9-1.4c-0.3-0.5-0.5-1-0.6-1.5c-0.1-0.5-0.2-0.9-0.2-1.2c0-0.3,0.1-0.6,0.4-0.7
		C90.7,63,91,63,91.3,63c1.7,0.2,3.8,0.5,6.4,0.8c2.6,0.3,5.4,0.4,8.4,0.4c3.6,0,6.3-0.2,8.1-0.5c1.8-0.3,2.9-0.7,3.4-1.1
		c0.5-0.4,0.9-1,1.3-1.9c0.3-0.9,0.5-1.9,0.5-3.1c0-1-0.1-1.7-0.4-2.3c-0.3-0.6-0.5-0.9-0.8-1.2c-0.2-0.1-0.5-0.3-0.8-0.4
		c-0.4-0.1-0.9-0.2-1.7-0.3c-0.8-0.1-1.8-0.1-3.2-0.1c-1.3,0-3,0-5.1,0c-1.2,0-2.5,0-3.9,0c-1.4,0-2.7,0-4,0.1
		c-1.3,0-2.6,0.1-3.8,0.1c-1.2,0-2.3,0.1-3.3,0.1c-0.3,0-0.5-0.1-0.7-0.2c-0.2-0.1-0.3-0.4-0.3-0.8c0-1.2,0-2.4,0.1-3.6
		c0.1-1.3,0.2-2.5,0.3-3.6c0.1-1.2,0.2-2.2,0.3-3.1s0.1-1.6,0.1-2.1c0-1.4-0.2-3.1-0.6-5.1c-0.4-2-0.6-4.5-0.6-7.5
		c0-2.5,0.3-4.5,0.8-6.2c0.5-1.6,1.3-2.9,2.3-3.8c0.6-0.5,1.3-0.9,2.1-1.3c0.8-0.4,1.9-0.7,3.1-1c1.3-0.3,2.8-0.5,4.6-0.6
		C105.6,14.7,107.7,14.6,110.2,14.6z M97.8,27.9c0,1.6,0.1,3.1,0.4,4.4c0.3,1.3,0.5,2,0.8,2.3c0.2,0.2,0.8,0.4,1.8,0.4
		c0.9,0,2,0.1,3.3,0.1c1.7,0,3.1-0.1,4.4-0.2c1.2-0.1,2.3-0.3,3.1-0.5c0.9-0.2,1.6-0.5,2.1-0.7c0.6-0.3,1-0.5,1.3-0.8
		c0.9-0.7,1.6-1.9,2.2-3.6c0.6-1.7,0.9-3.9,0.9-6.7c0-0.5-0.1-0.9-0.3-1.3c-0.2-0.3-0.6-0.5-1.3-0.6c-1-0.1-1.9-0.2-2.9-0.3
		c-1-0.1-2.3-0.1-4-0.1c-2.9,0-5.1,0.2-6.7,0.5c-1.6,0.3-2.7,0.7-3.3,1.3c-0.5,0.6-0.9,1.4-1.2,2.2C97.9,25.2,97.8,26.4,97.8,27.9z"
		/>
	<path class="st1" d="M144.4,3.7c0,1.6-0.3,2.7-1,3.2c-0.5,0.3-1.1,0.5-1.8,0.6c-0.7,0.1-1.3,0.1-1.8,0.1c-1.8,0-3-0.2-3.6-0.7
		c-0.6-0.4-0.9-1.4-0.9-2.9c0-1.7,0.3-2.8,1-3.2c0.4-0.3,0.9-0.5,1.5-0.6c0.6-0.1,1.3-0.2,2.2-0.2s1.5,0,2.2,0.1
		c0.6,0.1,1.1,0.3,1.3,0.6c0.3,0.2,0.6,0.6,0.7,1.2C144.3,2.4,144.4,3,144.4,3.7z M143.3,51.6c0,0.7-0.3,1-0.9,1h-5.5
		c-0.4,0-0.6-0.1-0.7-0.2c-0.1-0.1-0.1-0.4-0.1-0.8V16.1c0-0.7,0.4-1,1.1-1h5.3c0.4,0,0.6,0.1,0.7,0.2c0.1,0.1,0.1,0.4,0.1,0.8V51.6
		z"/>
	<path class="st1" d="M190.4,51.7c0,0.6-0.3,0.9-0.9,0.9h-4.4c-0.8,0-1.3-0.2-1.5-0.5c-0.2-0.3-0.3-0.9-0.3-1.7V30.4
		c0-2.3-0.1-4-0.4-5.1c-0.3-1.1-0.7-2-1.2-2.7c-0.6-0.7-1.5-1.2-2.7-1.5c-1.2-0.3-2.8-0.5-5-0.5c-1.9,0-3.5,0-4.8,0.1
		c-1.3,0.1-2.5,0.2-3.6,0.3c-0.8,0.1-1.3,0.3-1.5,0.6c-0.2,0.3-0.3,1.1-0.3,2.2v27.7c0,0.7-0.3,1-0.9,1h-5.3c-0.6,0-0.9-0.3-0.9-1
		V16.8c0-0.5,0.3-0.9,1-1c2-0.2,4.5-0.5,7.5-0.8s6-0.4,9.2-0.4c3.8,0,6.7,0.3,8.7,0.8c2,0.5,3.6,1.3,4.7,2.4c1,1,1.6,2.3,2.1,4
		c0.4,1.6,0.6,4,0.6,7.1V51.7z"/>
	<path class="st1" d="M201.5,34.1c0-4.3,0.5-7.7,1.5-10.4c1-2.6,2.3-4.6,3.9-6c1.2-1.1,2.9-1.9,5-2.5c2.1-0.6,4.8-0.9,7.9-0.9
		c3.1,0,5.6,0.3,7.5,0.8c1.8,0.5,3.3,1.2,4.4,2.2c0.6,0.6,1.2,1.3,1.7,2.1c0.5,0.8,0.9,1.9,1.3,3.1c0.4,1.3,0.6,2.8,0.9,4.6
		c0.2,1.8,0.3,3.9,0.3,6.3c0,0.9-0.1,1.5-0.4,1.9c-0.2,0.4-0.7,0.6-1.4,0.6h-22.8c-1.1,0-1.7,0.1-2,0.3c-0.3,0.2-0.4,0.6-0.4,1.1
		c0,1.7,0.2,3.2,0.6,4.4c0.4,1.3,1,2.3,1.9,3.1c0.8,0.8,2.1,1.3,3.8,1.7c1.7,0.3,3.8,0.5,6.2,0.5c2.4,0,4.8-0.1,6.9-0.4
		c2.2-0.3,3.9-0.5,5.1-0.8c0.2,0,0.5,0,0.7,0.2c0.2,0.2,0.3,0.4,0.3,0.8c0,0.4-0.1,0.8-0.3,1.3c-0.2,0.5-0.4,0.9-0.7,1.4
		c-0.3,0.5-0.6,0.9-1,1.3c-0.4,0.4-0.7,0.7-1.1,0.9c-0.7,0.4-2.1,0.7-4,1c-2,0.3-4.5,0.4-7.5,0.4c-3.5,0-6.3-0.3-8.5-0.9
		c-2.2-0.6-4-1.5-5.2-2.6c-0.7-0.6-1.4-1.4-1.9-2.2s-1-1.9-1.4-3.1c-0.4-1.2-0.7-2.7-0.9-4.3S201.5,36.4,201.5,34.1z M219.3,20
		c-3.5,0-6,0.7-7.6,2c-0.5,0.4-0.9,0.9-1.2,1.5c-0.3,0.6-0.6,1.2-0.8,1.9c-0.2,0.7-0.4,1.3-0.5,2c-0.1,0.7-0.2,1.3-0.2,1.9
		c0,0.5,0.1,0.9,0.4,1c0.3,0.1,0.9,0.2,1.9,0.2h13.3c0.9,0,1.7,0,2.3,0c0.6,0,1-0.1,1.2-0.3c0.2-0.2,0.4-0.5,0.4-0.7
		c0-0.2,0.1-0.5,0.1-0.9c0-1.5-0.2-2.9-0.5-4.2c-0.4-1.3-0.9-2.2-1.7-2.8c-0.6-0.5-1.5-0.9-2.6-1.2C222.6,20.2,221.1,20,219.3,20z"
		/>
	<path class="st1" d="M244.7,34.1c0-4.3,0.5-7.7,1.5-10.4c1-2.6,2.3-4.6,3.9-6c1.2-1.1,2.9-1.9,5-2.5c2.1-0.6,4.8-0.9,7.9-0.9
		c3.1,0,5.6,0.3,7.5,0.8c1.8,0.5,3.3,1.2,4.4,2.2c0.6,0.6,1.2,1.3,1.7,2.1c0.5,0.8,0.9,1.9,1.3,3.1c0.4,1.3,0.6,2.8,0.9,4.6
		c0.2,1.8,0.3,3.9,0.3,6.3c0,0.9-0.1,1.5-0.4,1.9c-0.2,0.4-0.7,0.6-1.4,0.6h-22.8c-1.1,0-1.7,0.1-2,0.3c-0.3,0.2-0.4,0.6-0.4,1.1
		c0,1.7,0.2,3.2,0.6,4.4c0.4,1.3,1,2.3,1.9,3.1c0.8,0.8,2.1,1.3,3.8,1.7c1.7,0.3,3.8,0.5,6.2,0.5c2.4,0,4.8-0.1,6.9-0.4
		c2.2-0.3,3.9-0.5,5.1-0.8c0.2,0,0.5,0,0.7,0.2c0.2,0.2,0.3,0.4,0.3,0.8c0,0.4-0.1,0.8-0.3,1.3c-0.2,0.5-0.4,0.9-0.7,1.4
		c-0.3,0.5-0.6,0.9-1,1.3c-0.4,0.4-0.7,0.7-1.1,0.9c-0.7,0.4-2.1,0.7-4,1c-2,0.3-4.5,0.4-7.5,0.4c-3.5,0-6.3-0.3-8.5-0.9
		c-2.2-0.6-4-1.5-5.2-2.6c-0.7-0.6-1.4-1.4-1.9-2.2s-1-1.9-1.4-3.1c-0.4-1.2-0.7-2.7-0.9-4.3S244.7,36.4,244.7,34.1z M262.4,20
		c-3.5,0-6,0.7-7.6,2c-0.5,0.4-0.9,0.9-1.2,1.5c-0.3,0.6-0.6,1.2-0.8,1.9c-0.2,0.7-0.4,1.3-0.5,2c-0.1,0.7-0.2,1.3-0.2,1.9
		c0,0.5,0.1,0.9,0.4,1c0.3,0.1,0.9,0.2,1.9,0.2h13.3c0.9,0,1.7,0,2.3,0c0.6,0,1-0.1,1.2-0.3c0.2-0.2,0.4-0.5,0.4-0.7
		c0-0.2,0.1-0.5,0.1-0.9c0-1.5-0.2-2.9-0.5-4.2c-0.4-1.3-0.9-2.2-1.7-2.8c-0.6-0.5-1.5-0.9-2.6-1.2C265.7,20.2,264.3,20,262.4,20z"
		/>
	<path class="st1" d="M289.8,16.7c0-0.6,0.3-1,1-1.2c1.9-0.2,4.1-0.5,6.4-0.7c2.4-0.2,4.6-0.3,6.7-0.3c2,0,3.7,0,5.1,0.1
		c1.4,0.1,2.5,0.3,3.1,0.6c0.7,0.4,1.3,1.1,1.8,2.1c0.5,1,0.7,2,0.7,2.9c0,0.3-0.1,0.5-0.3,0.7c-0.2,0.2-0.4,0.2-0.6,0.2
		c-0.9-0.1-2.1-0.2-3.5-0.3s-2.7-0.1-3.9-0.1c-1.2,0-2.5,0-3.7,0.1c-1.2,0-2.4,0.1-3.5,0.2c-0.4,0.1-0.8,0.2-1.1,0.3
		c-0.3,0.1-0.5,0.2-0.7,0.4c-0.2,0.2-0.3,0.5-0.3,0.8c0,0.3-0.1,0.8-0.1,1.4v27.6c0,0.7-0.3,1-1,1h-5.2c-0.6,0-0.9-0.3-0.9-1V16.7z"
		/>
	<path class="st1" d="M329.8,3.7c0,1.6-0.3,2.7-1,3.2c-0.5,0.3-1.1,0.5-1.8,0.6c-0.7,0.1-1.3,0.1-1.8,0.1c-1.8,0-3-0.2-3.6-0.7
		c-0.6-0.4-0.9-1.4-0.9-2.9c0-1.7,0.3-2.8,1-3.2c0.4-0.3,0.9-0.5,1.5-0.6c0.6-0.1,1.3-0.2,2.2-0.2c0.8,0,1.5,0,2.2,0.1
		c0.6,0.1,1.1,0.3,1.3,0.6c0.3,0.2,0.6,0.6,0.7,1.2S329.8,3,329.8,3.7z M328.7,51.6c0,0.7-0.3,1-0.9,1h-5.5c-0.4,0-0.6-0.1-0.7-0.2
		c-0.1-0.1-0.1-0.4-0.1-0.8V16.1c0-0.7,0.4-1,1.1-1h5.3c0.4,0,0.6,0.1,0.7,0.2c0.1,0.1,0.1,0.4,0.1,0.8V51.6z"/>
	<path class="st1" d="M375.9,51.7c0,0.6-0.3,0.9-0.9,0.9h-4.4c-0.8,0-1.3-0.2-1.5-0.5c-0.2-0.3-0.3-0.9-0.3-1.7V30.4
		c0-2.3-0.1-4-0.4-5.1c-0.3-1.1-0.7-2-1.2-2.7c-0.6-0.7-1.5-1.2-2.7-1.5c-1.2-0.3-2.8-0.5-5-0.5c-1.9,0-3.5,0-4.8,0.1
		c-1.3,0.1-2.5,0.2-3.6,0.3c-0.8,0.1-1.3,0.3-1.5,0.6c-0.2,0.3-0.3,1.1-0.3,2.2v27.7c0,0.7-0.3,1-0.9,1h-5.3c-0.6,0-0.9-0.3-0.9-1
		V16.8c0-0.5,0.3-0.9,1-1c2-0.2,4.5-0.5,7.5-0.8s6-0.4,9.2-0.4c3.8,0,6.7,0.3,8.7,0.8c2,0.5,3.6,1.3,4.7,2.4c1,1,1.6,2.3,2.1,4
		c0.4,1.6,0.6,4,0.6,7.1V51.7z"/>
	<path class="st1" d="M407.4,14.6c3,0,5.7,0.1,8.1,0.3s4.3,0.3,5.6,0.5c0.6,0,0.9,0.4,0.9,1.1c0,5.8-0.4,10.3-1.3,13.6
		c-0.9,3.3-2.1,5.7-3.6,7.1c-0.6,0.5-1.2,0.9-2,1.4c-0.7,0.4-1.7,0.8-2.9,1.1c-1.2,0.3-2.6,0.6-4.3,0.8c-1.7,0.2-3.8,0.3-6.2,0.4
		c-1.9,0-3.2,0-4,0.1c-0.8,0.1-1.4,0.2-1.7,0.4c-0.2,0.2-0.4,0.8-0.5,1.8c-0.1,1-0.2,2.1-0.2,3.2c0,0.9,0.4,1.3,1.2,1.3
		c0.4,0,1.1,0,1.9,0c0.8,0,1.8,0,2.8,0c1.1,0,2.2,0,3.3-0.1c1.2,0,2.3,0,3.4,0c2.2,0,4,0,5.5,0.1c1.5,0.1,2.8,0.2,3.8,0.3
		c1,0.1,1.8,0.3,2.4,0.5c0.6,0.2,1.1,0.4,1.5,0.6c0.7,0.5,1.2,1.4,1.7,2.5c0.4,1.2,0.6,2.8,0.6,4.9c0,2.6-0.4,4.8-1.1,6.7
		c-0.7,1.8-1.6,3.2-2.6,4.1c-1.2,1.1-3.1,1.9-5.7,2.5c-2.5,0.6-6.1,0.9-10.7,0.9c-3.8,0-6.7-0.1-8.9-0.4c-2.1-0.3-3.6-0.6-4.4-1
		c-0.4-0.2-0.8-0.6-1.2-1c-0.4-0.5-0.7-0.9-0.9-1.4c-0.3-0.5-0.5-1-0.6-1.5c-0.1-0.5-0.2-0.9-0.2-1.2c0-0.3,0.1-0.6,0.4-0.7
		c0.2-0.1,0.5-0.2,0.9-0.1c1.7,0.2,3.8,0.5,6.4,0.8c2.6,0.3,5.4,0.4,8.4,0.4c3.6,0,6.3-0.2,8.1-0.5c1.8-0.3,2.9-0.7,3.4-1.1
		c0.5-0.4,0.9-1,1.3-1.9c0.3-0.9,0.5-1.9,0.5-3.1c0-1-0.1-1.7-0.4-2.3c-0.3-0.6-0.5-0.9-0.8-1.2c-0.2-0.1-0.5-0.3-0.8-0.4
		c-0.4-0.1-0.9-0.2-1.7-0.3c-0.8-0.1-1.8-0.1-3.2-0.1c-1.3,0-3,0-5.1,0c-1.2,0-2.5,0-3.9,0c-1.4,0-2.7,0-4,0.1
		c-1.3,0-2.6,0.1-3.8,0.1c-1.2,0-2.3,0.1-3.3,0.1c-0.3,0-0.5-0.1-0.7-0.2c-0.2-0.1-0.3-0.4-0.3-0.8c0-1.2,0-2.4,0.1-3.6
		c0.1-1.3,0.2-2.5,0.3-3.6c0.1-1.2,0.2-2.2,0.3-3.1s0.1-1.6,0.1-2.1c0-1.4-0.2-3.1-0.6-5.1c-0.4-2-0.6-4.5-0.6-7.5
		c0-2.5,0.3-4.5,0.8-6.2c0.5-1.6,1.3-2.9,2.3-3.8c0.6-0.5,1.3-0.9,2.1-1.3c0.8-0.4,1.9-0.7,3.1-1c1.3-0.3,2.8-0.5,4.6-0.6
		C402.8,14.7,404.9,14.6,407.4,14.6z M395,27.9c0,1.6,0.1,3.1,0.4,4.4c0.3,1.3,0.5,2,0.8,2.3c0.2,0.2,0.8,0.4,1.8,0.4
		c0.9,0,2,0.1,3.3,0.1c1.7,0,3.1-0.1,4.4-0.2c1.2-0.1,2.3-0.3,3.1-0.5c0.9-0.2,1.6-0.5,2.1-0.7c0.6-0.3,1-0.5,1.3-0.8
		c0.9-0.7,1.6-1.9,2.2-3.6c0.6-1.7,0.9-3.9,0.9-6.7c0-0.5-0.1-0.9-0.3-1.3c-0.2-0.3-0.6-0.5-1.3-0.6c-1-0.1-1.9-0.2-2.9-0.3
		c-1-0.1-2.3-0.1-4-0.1c-2.9,0-5.1,0.2-6.7,0.5c-1.6,0.3-2.7,0.7-3.3,1.3c-0.5,0.6-0.9,1.4-1.2,2.2C395.1,25.2,395,26.4,395,27.9z"
		/>
</g>
</svg>
