<?xml version="1.0" encoding="utf-8"?>
<!-- Generator: Adobe Illustrator 24.0.2, SVG Export Plug-In . SVG Version: 6.00 Build 0)  -->
<svg version="1.1"
	 id="Layer_1" xmlns:krita="http://krita.org/namespaces/svg/krita" xmlns:sodipodi="http://sodipodi.sourceforge.net/DTD/sodipodi-0.dtd"
	 xmlns="http://www.w3.org/2000/svg" xmlns:xlink="http://www.w3.org/1999/xlink" x="0px" y="0px" viewBox="0 0 327.7 50.8"
	 style="enable-background:new 0 0 327.7 50.8;" xml:space="preserve">
<style type="text/css">
	.st0{fill:#E8ECD7;}
</style>
<g>
	<path class="st0" d="M16.8,10.5c-1.7,0-3.2,0-4.7,0s-2.6,0-3.7,0.1c-0.7,0-1.2,0.2-1.4,0.4c-0.2,0.2-0.3,0.7-0.3,1.4v10.4
		c0,0.5,0.1,0.9,0.3,1c0.2,0.2,0.6,0.2,1,0.2h20.6c0.6,0,0.9,0.3,0.9,0.9c0,0.2-0.1,0.5-0.2,1c-0.1,0.4-0.3,0.8-0.5,1.3
		c-0.2,0.4-0.5,0.8-0.8,1.2c-0.3,0.4-0.6,0.7-0.9,0.9c-0.4,0.2-0.8,0.4-1.2,0.4c-0.5,0.1-1.1,0.1-1.8,0.1h-16
		c-0.5,0-0.8,0.1-1.1,0.3c-0.2,0.2-0.3,0.6-0.3,1.2v10.7c0,0.8,0.1,1.3,0.4,1.5C7.5,44,8,44.2,8.7,44.2s1.7,0,2.8,0
		c1.2,0,2.7,0,4.8,0c3.5,0,6.5,0,9-0.1c2.5-0.1,4.6-0.2,6.5-0.3c0.6,0,0.9,0.3,0.9,0.8c0,0.4-0.1,0.8-0.3,1.3
		c-0.2,0.5-0.5,1-0.8,1.5c-0.3,0.5-0.7,0.9-1.1,1.3c-0.4,0.4-0.8,0.6-1.1,0.8c-0.6,0.3-1.9,0.4-3.8,0.5c-1.9,0.1-4.8,0.1-8.7,0.1
		c-3.2,0-6.1,0-8.6,0S3.5,50,1.5,49.9c-0.3,0-0.6-0.1-1-0.3C0.2,49.4,0,48.9,0,48.1V6.2c0-0.6,0.2-0.9,0.5-1.1
		C0.8,5,1.1,4.9,1.4,4.9c2.1-0.1,4.3-0.2,6.5-0.2c2.2-0.1,4.7-0.1,7.6-0.1c1.7,0,3.2,0,4.7,0c1.5,0,2.8,0,4,0c1.2,0,2.1,0.1,2.9,0.1
		C28,4.8,28.6,4.9,28.9,5c0.3,0.1,0.6,0.3,1,0.7c0.3,0.4,0.6,0.8,0.9,1.3c0.3,0.5,0.5,1,0.7,1.5c0.2,0.5,0.3,1,0.3,1.4
		c0,0.3-0.1,0.5-0.3,0.6c-0.2,0.2-0.4,0.2-0.7,0.2c-1.7-0.1-3.8-0.2-6.3-0.2C22,10.5,19.5,10.5,16.8,10.5z"/>
	<path class="st0" d="M70.9,49.4c-1.7,0.3-3.4,0.5-5.3,0.7c-1.9,0.2-4.3,0.3-7.1,0.3c-2.1,0-3.9-0.1-5.4-0.2c-1.5-0.1-2.8-0.3-4-0.6
		c-1.1-0.3-2.1-0.6-2.8-1c-0.8-0.4-1.4-0.8-2-1.3c-1.2-1-2.2-2.6-3-4.8c-0.9-2.2-1.3-5.3-1.3-9.1c0-2.2,0.1-4.2,0.4-5.8
		c0.3-1.7,0.6-3.1,1-4.3c0.4-1.2,0.9-2.2,1.5-3c0.6-0.8,1.1-1.5,1.6-2c1.1-1.1,2.7-1.9,4.8-2.6c2.1-0.6,4.8-1,8-1c1.3,0,2.6,0,3.9,0
		c1.2,0,2.3,0.1,3.3,0.2c0.4,0,0.7,0,1-0.1c0.3-0.1,0.4-0.4,0.4-1V2c0-0.8,0.1-1.3,0.3-1.6C66.4,0.1,66.8,0,67.5,0h4.2
		c0.2,0,0.4,0.1,0.6,0.2c0.2,0.1,0.2,0.4,0.2,0.9v46.4c0,0.7-0.1,1.1-0.3,1.4C71.9,49.2,71.5,49.4,70.9,49.4z M46.5,32.8
		c0,3.1,0.3,5.5,0.9,7c0.6,1.5,1.2,2.6,1.9,3.1c0.7,0.6,1.7,1.1,3,1.4s3.3,0.5,5.7,0.5c1.6,0,2.8,0,3.8-0.1c0.9-0.1,1.8-0.2,2.5-0.3
		c0.6-0.1,1-0.3,1.2-0.6s0.3-1,0.3-2V23c0-0.9-0.1-1.6-0.3-1.9c-0.2-0.4-0.6-0.6-1.3-0.7c-0.8-0.1-1.7-0.2-2.8-0.3
		c-1-0.1-2.2-0.1-3.5-0.1c-2.3,0-4.2,0.2-5.5,0.5c-1.3,0.3-2.4,0.9-3.1,1.6c-0.8,0.8-1.5,2-2.1,3.9C46.8,27.8,46.5,30,46.5,32.8z"/>
	<path class="st0" d="M116,48c0,0.5-0.3,0.9-0.9,1c-0.8,0.2-1.7,0.3-2.8,0.5c-1.1,0.2-2.3,0.3-3.6,0.4c-1.3,0.1-2.7,0.2-4.1,0.3
		c-1.4,0.1-2.9,0.1-4.3,0.1c-3.7,0-6.6-0.3-8.7-0.9S88,48.1,87,47.1c-0.4-0.5-0.8-1-1.1-1.6c-0.3-0.6-0.6-1.3-0.7-2.1
		c-0.2-0.8-0.3-1.7-0.4-2.8c-0.1-1-0.1-2.3-0.1-3.7v-21c0-0.6,0.2-0.9,0.7-0.9h3.8c0.8,0,1.4,0.1,1.6,0.4c0.2,0.3,0.4,0.8,0.4,1.6
		v19c0,1.9,0.1,3.3,0.4,4.3c0.2,1,0.6,1.8,1.1,2.3c0.6,0.6,1.6,1.1,2.8,1.5c1.3,0.4,3,0.6,5.2,0.6c1.3,0,2.5,0,3.7-0.1
		c1.2-0.1,2.2-0.2,2.9-0.4c0.8-0.1,1.3-0.4,1.6-0.8c0.3-0.4,0.5-1,0.5-1.9V15.9c0-0.6,0.3-0.9,0.9-0.9h4.8c0.6,0,0.9,0.3,0.9,1V48z"
		/>
	<path class="st0" d="M153.4,15.6c0.7,0.4,1.2,1,1.6,1.9c0.4,0.8,0.6,1.6,0.6,2.2c0,0.4-0.1,0.7-0.4,0.9c-0.3,0.2-0.5,0.3-0.8,0.2
		c-1.2-0.1-2.5-0.3-4-0.4c-1.5-0.1-3.1-0.2-5-0.2c-2.5,0-4.5,0.2-6,0.5c-1.5,0.3-2.5,0.8-3.3,1.4c-0.8,0.8-1.6,2-2.1,3.6
		c-0.6,1.6-0.9,3.8-0.9,6.5c0,3.1,0.2,5.4,0.6,6.9c0.4,1.5,1.1,2.7,2,3.4c1.6,1.3,4.7,2,9.2,2c2.3,0,4.2-0.1,5.7-0.3
		c1.5-0.2,2.8-0.4,3.9-0.5c0.2-0.1,0.4-0.1,0.7,0.1c0.2,0.2,0.3,0.4,0.3,0.7s-0.1,0.7-0.2,1.1s-0.3,0.9-0.6,1.3
		c-0.2,0.4-0.5,0.9-0.8,1.3c-0.3,0.4-0.6,0.7-0.9,0.9c-0.6,0.4-1.8,0.7-3.5,0.9c-1.7,0.2-3.9,0.4-6.4,0.4c-3.2,0-5.8-0.3-7.6-0.8
		s-3.4-1.4-4.6-2.4c-1.3-1.1-2.3-2.8-3.1-5c-0.8-2.2-1.2-5.4-1.2-9.5c0-3.9,0.5-7,1.5-9.4c1-2.4,2.2-4.3,3.6-5.6
		c1.2-1,2.8-1.8,4.8-2.4c2.1-0.6,4.8-0.9,8.1-0.9C149.2,14.4,152.2,14.8,153.4,15.6z"/>
	<path class="st0" d="M192,48.5c0,0.6-0.3,0.9-1,1c-1.6,0.2-3.5,0.4-5.8,0.6c-2.3,0.2-4.7,0.3-7.5,0.3c-2.1,0-3.8-0.1-5.3-0.2
		c-1.5-0.1-2.7-0.3-3.7-0.5c-1-0.2-1.9-0.5-2.5-0.8c-0.7-0.3-1.2-0.7-1.7-1.1c-0.8-0.7-1.4-1.7-1.8-3c-0.4-1.3-0.7-2.9-0.7-5
		c0-2,0.2-3.7,0.6-5.1c0.4-1.5,1-2.5,1.8-3c0.4-0.3,1.3-0.5,2.5-0.8c1.3-0.2,2.8-0.5,4.6-0.7c1.8-0.2,3.8-0.4,6-0.5
		c2.2-0.2,4.5-0.3,6.8-0.4c0.8,0,1.2-0.5,1.2-1.3c0-1.9-0.1-3.3-0.4-4.2c-0.2-0.9-0.6-1.7-1.2-2.1c-0.6-0.6-1.6-1-2.8-1.1
		c-1.2-0.2-3.1-0.3-5.5-0.3c-0.9,0-1.9,0-2.9,0.1c-1,0-2,0.1-2.9,0.2c-1,0.1-1.9,0.2-2.7,0.3c-0.8,0.1-1.6,0.2-2.3,0.4
		c-0.2,0-0.4,0-0.7-0.1c-0.2-0.1-0.3-0.4-0.3-0.7c0-0.3,0.1-0.7,0.2-1.1c0.2-0.4,0.4-0.9,0.6-1.3c0.2-0.4,0.5-0.8,0.8-1.2
		c0.3-0.4,0.6-0.6,0.9-0.9c0.8-0.5,2.2-0.9,4.1-1.1c1.9-0.2,4.3-0.4,7.1-0.4c3.4,0,6,0.2,7.8,0.7c1.8,0.4,3.1,1.1,3.9,1.9
		c0.4,0.4,0.8,1,1.1,1.5c0.3,0.6,0.6,1.4,0.9,2.3c0.2,1,0.4,2.2,0.5,3.7c0.1,1.5,0.2,3.3,0.2,5.5V48.5z M185.5,35.8
		c0-0.6-0.1-1-0.4-1.1c-0.2-0.1-0.6-0.2-1-0.2c-1.3,0-2.7,0-4.2,0.1c-1.6,0.1-3.1,0.2-4.5,0.3c-1.4,0.1-2.7,0.3-3.8,0.4
		c-1.1,0.2-1.8,0.4-2.1,0.6c-0.4,0.3-0.6,0.7-0.8,1.3c-0.2,0.6-0.3,1.4-0.3,2.5c0,2.1,0.5,3.5,1.4,4.2c0.5,0.4,1.3,0.8,2.4,1
		c1.1,0.2,2.8,0.3,5,0.3c2,0,3.7-0.1,5-0.2c1.3-0.2,2.1-0.4,2.4-0.6c0.2-0.2,0.4-0.5,0.5-0.9c0.1-0.4,0.2-1.1,0.2-2.2V35.8z"/>
	<path class="st0" d="M205.6,10.2c0-0.9,0-1.6,0.1-2c0.1-0.5,0.2-0.8,0.4-1c0.3-0.3,0.8-0.6,1.6-0.9c0.8-0.3,1.9-0.5,3.3-0.7
		c0.3,0,0.5,0,0.7,0.2c0.2,0.2,0.3,0.4,0.3,0.8v4.8c0,0.8,0,1.5,0.1,2c0.1,0.5,0.2,0.9,0.4,1.1c0.2,0.2,0.6,0.4,1.1,0.5
		c0.5,0.1,1.1,0.1,1.9,0.1h10.8c0.7,0,1,0.3,1,0.9c0,0.4-0.1,0.8-0.3,1.3c-0.2,0.4-0.4,0.9-0.7,1.3c-0.3,0.4-0.5,0.7-0.8,1
		c-0.3,0.3-0.5,0.5-0.7,0.6c-0.4,0.2-0.7,0.3-1,0.3c-0.3,0-0.8,0.1-1.5,0.1h-7.2c-1.3,0-2.1,0.2-2.5,0.5c-0.4,0.4-0.5,1.2-0.5,2.5
		v14.2c0,1.9,0.1,3.3,0.3,4.1c0.2,0.8,0.5,1.4,0.9,1.8c0.4,0.4,1.1,0.7,2,0.9c0.9,0.2,2.2,0.3,3.9,0.3c1.3,0,2.6,0,3.7-0.1
		c1.1-0.1,2-0.2,2.8-0.3c0.2,0,0.4,0,0.7,0.2c0.2,0.2,0.3,0.4,0.3,0.6c0,0.4-0.1,0.8-0.3,1.2c-0.2,0.4-0.4,0.8-0.7,1.2
		c-0.3,0.4-0.6,0.8-0.9,1.1c-0.3,0.3-0.7,0.6-1,0.7c-0.5,0.3-1.3,0.5-2.4,0.7s-2.7,0.3-4.9,0.3c-2.4,0-4.3-0.2-5.7-0.5
		c-1.4-0.4-2.5-0.9-3.3-1.6c-0.4-0.4-0.7-0.8-0.9-1.2c-0.2-0.5-0.4-1-0.6-1.7c-0.2-0.7-0.3-1.5-0.3-2.4c-0.1-1-0.1-2.2-0.1-3.6V23.4
		c0-1.4-0.2-2.2-0.5-2.5c-0.4-0.3-1-0.4-2.1-0.4h-2.9c-0.3,0-0.5-0.1-0.6-0.2c-0.1-0.2-0.2-0.3-0.2-0.5c0-0.4,0.1-0.8,0.2-1.3
		c0.1-0.5,0.3-0.9,0.5-1.3s0.4-0.8,0.6-1.1c0.2-0.3,0.4-0.5,0.7-0.7c0.4-0.2,1-0.3,1.8-0.3h1c0.9,0,1.4-0.6,1.4-1.9V10.2z"/>
	<path class="st0" d="M241.9,4.5c0,1.5-0.3,2.5-0.9,2.9c-0.4,0.3-1,0.5-1.6,0.6c-0.6,0.1-1.2,0.1-1.7,0.1c-1.7,0-2.8-0.2-3.3-0.7
		c-0.5-0.4-0.8-1.3-0.8-2.7c0-1.6,0.3-2.6,0.9-3c0.4-0.3,0.8-0.5,1.4-0.6c0.6-0.1,1.3-0.2,2-0.2c0.8,0,1.4,0,2,0.1
		c0.6,0.1,1,0.3,1.2,0.5c0.3,0.2,0.5,0.6,0.7,1.1C241.8,3.2,241.9,3.8,241.9,4.5z M240.9,49c0,0.6-0.3,0.9-0.9,0.9h-5.1
		c-0.4,0-0.6-0.1-0.6-0.2c-0.1-0.1-0.1-0.4-0.1-0.7V15.9c0-0.6,0.3-0.9,1-0.9h4.9c0.4,0,0.6,0.1,0.7,0.2c0.1,0.1,0.1,0.4,0.1,0.7V49
		z"/>
	<path class="st0" d="M285.8,32c0,4.1-0.5,7.4-1.5,10c-1,2.6-2.1,4.4-3.5,5.5c-1.2,0.9-2.8,1.7-4.9,2.3c-2.1,0.6-4.7,0.9-7.9,0.9
		c-3.1,0-5.7-0.3-7.8-1c-2.1-0.7-3.7-1.6-4.8-2.6c-1.1-1.1-2-2.7-2.8-4.8c-0.8-2.1-1.2-5.2-1.2-9.2c0-4.1,0.5-7.4,1.5-9.9
		c1-2.5,2.2-4.4,3.7-5.5c1.3-0.9,2.9-1.7,4.9-2.3c2-0.6,4.6-0.9,7.7-0.9c3.3,0,5.9,0.3,7.9,0.9c2,0.6,3.6,1.4,4.6,2.5
		c0.5,0.5,1,1.2,1.5,1.9c0.5,0.8,0.9,1.7,1.3,2.8c0.4,1.1,0.7,2.5,0.9,4.1C285.7,28.2,285.8,30,285.8,32z M279.3,32.4
		c0-2.9-0.2-5.1-0.7-6.6c-0.4-1.5-1.1-2.7-1.9-3.6c-1.2-1.5-3.8-2.2-7.7-2.2c-2.1,0-3.7,0.2-5.1,0.6c-1.3,0.4-2.3,0.9-3,1.5
		c-0.8,0.8-1.5,2-2.1,3.7c-0.6,1.7-0.9,4-0.9,6.9c0,2.5,0.2,4.7,0.7,6.4c0.4,1.7,1.1,3,1.9,3.9c0.8,0.8,1.8,1.3,3.2,1.6
		s2.9,0.5,4.5,0.5c3.7,0,6.2-0.6,7.7-1.7c0.9-0.7,1.7-1.9,2.3-3.7C279,37.8,279.3,35.4,279.3,32.4z"/>
	<path class="st0" d="M327.7,49.1c0,0.6-0.3,0.9-0.8,0.9h-4.1c-0.8,0-1.2-0.2-1.4-0.5c-0.2-0.3-0.3-0.8-0.3-1.5V29.3
		c0-2.1-0.1-3.7-0.4-4.8c-0.3-1-0.6-1.9-1.1-2.5c-0.6-0.6-1.4-1.1-2.5-1.4c-1.1-0.3-2.6-0.4-4.7-0.4c-1.7,0-3.2,0-4.5,0.1
		s-2.3,0.2-3.3,0.3c-0.8,0.1-1.2,0.3-1.4,0.6c-0.2,0.3-0.3,1-0.3,2V49c0,0.6-0.3,0.9-0.8,0.9h-5c-0.6,0-0.9-0.3-0.9-0.9V16.6
		c0-0.5,0.3-0.8,0.9-0.9c1.9-0.2,4.2-0.5,6.9-0.7s5.6-0.4,8.5-0.4c3.5,0,6.2,0.2,8.1,0.7c1.9,0.5,3.4,1.2,4.4,2.2
		c0.9,0.9,1.5,2.2,1.9,3.7c0.4,1.5,0.6,3.7,0.6,6.6V49.1z"/>
</g>
</svg>
