<?xml version="1.0" encoding="utf-8"?>
<!-- Generator: Adobe Illustrator 24.0.2, SVG Export Plug-In . SVG Version: 6.00 Build 0)  -->
<svg version="1.1" id="Layer_1" xmlns="http://www.w3.org/2000/svg" xmlns:xlink="http://www.w3.org/1999/xlink" x="0px" y="0px"
	 viewBox="0 0 1148.7 1148.7" style="enable-background:new 0 0 1148.7 1148.7;" xml:space="preserve">
<style type="text/css">
	.st0{fill:#E8ECD7;}
	.st1{fill:none;stroke:#E8ECD7;stroke-width:14;stroke-miterlimit:10;}
</style>
<g>
	<path class="st0" d="M401.4,826.8V378c-8.2,7-17.3,13.8-27.5,20.3c-10.2,6.5-20.5,12.7-31.2,18.4c-10.6,5.7-21.2,10.9-31.9,15.4
		c-10.6,4.6-20.5,8.3-29.6,11.4v-39.6c27.5-8.9,53.8-21.1,78.9-36.6c25.1-15.5,49.4-33.4,73-53.7h13v513.2H401.4z"/>
	<path class="st0" d="M705.3,835.2c-24,0-45.5-5.4-64.4-16.1c-18.9-10.7-35-26.5-48.1-47.4c-13.2-20.9-23.2-46.8-30.1-77.9
		c-6.9-31-10.3-66.9-10.3-107.5c0-89.1,14.1-156.4,42.2-201.8c28.1-45.4,68.7-68.1,121.6-68.1c100.8,0,151.2,85.8,151.2,257.3
		c0,42.5-3.6,79.9-10.9,112.4c-7.2,32.4-17.8,59.7-31.7,81.9c-13.9,22.2-30.9,38.9-50.9,50.2C753.8,829.5,731,835.2,705.3,835.2z
		 M713.3,355.6c-37.3,0-65.8,18.9-85.4,56.7s-29.4,94.6-29.4,170.5c0,70,9.4,123.2,28.2,159.5c18.8,36.3,46.6,54.4,83.5,54.4
		c18,0,33.9-4.7,47.8-14.2c13.9-9.5,25.5-23.3,34.8-41.7c9.3-18.3,16.4-41,21.2-68.1c4.8-27.1,7.2-58.2,7.2-93.5
		C821.2,430.1,785.2,355.6,713.3,355.6z"/>
</g>
<path class="st1" d="M940,979.9H208.8c-46.9,0-84.9-38-84.9-84.9V253.8c0-46.9,38-84.9,84.9-84.9H940c46.9,0,84.9,38,84.9,84.9V895
	C1024.9,941.9,986.9,979.9,940,979.9z"/>
<g>
</g>
<g>
</g>
<g>
</g>
<g>
</g>
<g>
</g>
<g>
</g>
<g>
</g>
<g>
</g>
<g>
</g>
<g>
</g>
<g>
</g>
<g>
</g>
<g>
</g>
<g>
</g>
<g>
</g>
</svg>
