<svg id="Ebene_1" data-name="Ebene 1" xmlns="http://www.w3.org/2000/svg" viewBox="0 0 598.28 76.38"><line x1="69.58" y1="28.42" x2="69.58" y2="7.86" fill="none" stroke="#38a0f5" stroke-linecap="round" stroke-miterlimit="10" stroke-width="6.82"/><line x1="69.58" y1="59.33" x2="69.58" y2="35.24" fill="none" stroke="#f55656" stroke-linecap="round" stroke-miterlimit="10" stroke-width="6.82"/><line x1="214.15" y1="26.14" x2="214.15" y2="5.59" fill="none" stroke="#2ed265" stroke-linecap="round" stroke-miterlimit="10" stroke-width="6.82"/><line x1="214.15" y1="57.06" x2="214.15" y2="32.96" fill="none" stroke="#f2a13f" stroke-linecap="round" stroke-miterlimit="10" stroke-width="6.82"/><line x1="165.96" y1="36.6" x2="165.96" y2="12.05" fill="none" stroke="#38a0f5" stroke-linecap="round" stroke-miterlimit="10" stroke-width="6.82"/><line x1="165.96" y1="67.52" x2="165.96" y2="43.42" fill="none" stroke="#f55656" stroke-linecap="round" stroke-miterlimit="10" stroke-width="6.82"/><line x1="93.22" y1="40.24" x2="93.22" y2="19.68" fill="none" stroke="#2ed265" stroke-linecap="round" stroke-miterlimit="10" stroke-width="6.82"/><line x1="93.22" y1="69.79" x2="93.22" y2="47.06" fill="none" stroke="#f2a13f" stroke-linecap="round" stroke-miterlimit="10" stroke-width="6.82"/><line x1="143.23" y1="39.69" x2="143.23" y2="64.33" fill="none" stroke="#38a0f5" stroke-linecap="round" stroke-miterlimit="10" stroke-width="6.82"/><line x1="143.23" y1="7.5" x2="143.23" y2="32.87" fill="none" stroke="#f55656" stroke-linecap="round" stroke-miterlimit="10" stroke-width="6.82"/><path d="M963.28,573.86c-25.65,0-60.47-67.29-86.15-67.29-29.78,0-29.52,67.29-59,67.29h-.32c-25.65,0-60.46-67.29-86.15-67.29-29.78,0-29.52,67.29-59,67.29" transform="translate(-660.6 -502.02)" fill="none" stroke="#34e08f" stroke-linecap="round" stroke-miterlimit="10" stroke-width="9.09"/><path d="M665.14,506.57c25.66,0,60.47,67.29,86.16,67.29,29.78,0,29.53-67.29,59-67.29h.31c25.66,0,60.47,67.29,86.16,67.29,29.78,0,29.52-67.29,59-67.29" transform="translate(-660.6 -502.02)" fill="none" stroke="#34e08f" stroke-linecap="round" stroke-miterlimit="10" stroke-width="9.09"/><line x1="311.77" y1="36.6" x2="311.77" y2="12.05" fill="none" stroke="#2ed265" stroke-linecap="round" stroke-miterlimit="10" stroke-width="6.82"/><line x1="311.77" y1="67.52" x2="311.77" y2="43.42" fill="none" stroke="#f2a13f" stroke-linecap="round" stroke-miterlimit="10" stroke-width="6.82"/><line x1="239.02" y1="40.24" x2="239.02" y2="19.68" fill="none" stroke="#2ed265" stroke-linecap="round" stroke-miterlimit="10" stroke-width="6.82"/><line x1="239.02" y1="69.79" x2="239.02" y2="47.06" fill="none" stroke="#f2a13f" stroke-linecap="round" stroke-miterlimit="10" stroke-width="6.82"/><line x1="289.04" y1="39.69" x2="289.04" y2="64.33" fill="none" stroke="#38a0f5" stroke-linecap="round" stroke-miterlimit="10" stroke-width="6.82"/><line x1="289.04" y1="7.5" x2="289.04" y2="32.87" fill="none" stroke="#f55656" stroke-linecap="round" stroke-miterlimit="10" stroke-width="6.82"/><path d="M1109.09,573.86c-25.66,0-60.47-67.29-86.16-67.29-29.78,0-29.52,67.29-59,67.29h-.32c-25.66,0-60.47-67.29-86.16-67.29-29.78,0-29.52,67.29-59,67.29" transform="translate(-660.6 -502.02)" fill="none" stroke="#34e08f" stroke-linecap="round" stroke-miterlimit="10" stroke-width="9.09"/><path d="M811,506.57c25.66,0,60.47,67.29,86.16,67.29,29.78,0,29.52-67.29,59-67.29h.31c25.66,0,60.47,67.29,86.16,67.29,29.78,0,29.52-67.29,59-67.29" transform="translate(-660.6 -502.02)" fill="none" stroke="#34e08f" stroke-linecap="round" stroke-miterlimit="10" stroke-width="9.09"/><line x1="360.62" y1="28.42" x2="360.62" y2="7.86" fill="none" stroke="#38a0f5" stroke-linecap="round" stroke-miterlimit="10" stroke-width="6.82"/><line x1="360.62" y1="59.33" x2="360.62" y2="35.24" fill="none" stroke="#f55656" stroke-linecap="round" stroke-miterlimit="10" stroke-width="6.82"/><line x1="505.2" y1="26.14" x2="505.2" y2="5.59" fill="none" stroke="#38a0f5" stroke-linecap="round" stroke-miterlimit="10" stroke-width="6.82"/><line x1="505.2" y1="57.06" x2="505.2" y2="32.96" fill="none" stroke="#f55656" stroke-linecap="round" stroke-miterlimit="10" stroke-width="6.82"/><line x1="530.66" y1="40.24" x2="530.66" y2="19.68" fill="none" stroke="#2ed265" stroke-linecap="round" stroke-miterlimit="10" stroke-width="6.82"/><line x1="530.66" y1="71.15" x2="530.66" y2="47.06" fill="none" stroke="#f2a13f" stroke-linecap="round" stroke-miterlimit="10" stroke-width="6.82"/><line x1="457.01" y1="36.6" x2="457.01" y2="12.05" fill="none" stroke="#38a0f5" stroke-linecap="round" stroke-miterlimit="10" stroke-width="6.82"/><line x1="457.01" y1="67.52" x2="457.01" y2="43.42" fill="none" stroke="#f55656" stroke-linecap="round" stroke-miterlimit="10" stroke-width="6.82"/><line x1="384.27" y1="40.24" x2="384.27" y2="19.68" fill="none" stroke="#38a0f5" stroke-linecap="round" stroke-miterlimit="10" stroke-width="6.82"/><line x1="384.27" y1="69.79" x2="384.27" y2="47.06" fill="none" stroke="#f55656" stroke-linecap="round" stroke-miterlimit="10" stroke-width="6.82"/><line x1="434.28" y1="39.69" x2="434.28" y2="64.33" fill="none" stroke="#2ed265" stroke-linecap="round" stroke-miterlimit="10" stroke-width="6.82"/><line x1="434.28" y1="7.5" x2="434.28" y2="32.87" fill="none" stroke="#f2a13f" stroke-linecap="round" stroke-miterlimit="10" stroke-width="6.82"/><path d="M1254.33,573.86c-25.65,0-60.47-67.29-86.16-67.29-29.77,0-29.52,67.29-59,67.29h-.32c-25.65,0-60.47-67.29-86.15-67.29-29.78,0-29.52,67.29-59,67.29" transform="translate(-660.6 -502.02)" fill="none" stroke="#34e08f" stroke-linecap="round" stroke-miterlimit="10" stroke-width="9.09"/><path d="M956.19,506.57c25.66,0,60.47,67.29,86.16,67.29,29.78,0,29.53-67.29,59-67.29h.31c25.66,0,60.47,67.29,86.16,67.29,29.78,0,29.52-67.29,59-67.29" transform="translate(-660.6 -502.02)" fill="none" stroke="#34e08f" stroke-linecap="round" stroke-miterlimit="10" stroke-width="9.09"/></svg>