<svg id="Ebene_1" data-name="Ebene 1" xmlns="http://www.w3.org/2000/svg" viewBox="0 0 463.2 215.63"><path d="M1088.1,439.55" transform="translate(-728.54 -432.4)" fill="none" stroke="#34e08f" stroke-linecap="round" stroke-miterlimit="10" stroke-width="7.2"/><line x1="190.17" y1="35.94" x2="190.17" y2="13.21" fill="none" stroke="#38a0f5" stroke-linecap="round" stroke-miterlimit="10" stroke-width="6.82"/><line x1="160.17" y1="35.94" x2="160.17" y2="13.21" fill="none" stroke="#38a0f5" stroke-linecap="round" stroke-miterlimit="10" stroke-width="6.82"/><line x1="130.17" y1="35.94" x2="130.17" y2="13.21" fill="none" stroke="#38a0f5" stroke-linecap="round" stroke-miterlimit="10" stroke-width="6.82"/><line x1="100.17" y1="35.94" x2="100.17" y2="13.21" fill="none" stroke="#38a0f5" stroke-linecap="round" stroke-miterlimit="10" stroke-width="6.82"/><line x1="70.17" y1="35.94" x2="70.17" y2="13.21" fill="none" stroke="#38a0f5" stroke-linecap="round" stroke-miterlimit="10" stroke-width="6.82"/><line x1="40.17" y1="35.94" x2="40.17" y2="13.21" fill="none" stroke="#38a0f5" stroke-linecap="round" stroke-miterlimit="10" stroke-width="6.82"/><line x1="190.09" y1="35.94" x2="190.09" y2="13.21" fill="none" stroke="#38a0f5" stroke-linecap="round" stroke-miterlimit="10" stroke-width="6.82"/><line x1="250.09" y1="35.94" x2="250.09" y2="13.21" fill="none" stroke="#2ed265" stroke-linecap="round" stroke-miterlimit="10" stroke-width="6.82"/><line x1="220.09" y1="35.94" x2="220.09" y2="13.21" fill="none" stroke="#2ed265" stroke-linecap="round" stroke-miterlimit="10" stroke-width="6.82"/><line x1="190.17" y1="206.94" x2="190.17" y2="184.21" fill="none" stroke="#f55656" stroke-linecap="round" stroke-miterlimit="10" stroke-width="6.82"/><line x1="160.17" y1="206.94" x2="160.17" y2="184.21" fill="none" stroke="#f55656" stroke-linecap="round" stroke-miterlimit="10" stroke-width="6.82"/><line x1="130.17" y1="206.94" x2="130.17" y2="184.21" fill="none" stroke="#f55656" stroke-linecap="round" stroke-miterlimit="10" stroke-width="6.82"/><line x1="100.17" y1="206.94" x2="100.17" y2="184.21" fill="none" stroke="#f55656" stroke-linecap="round" stroke-miterlimit="10" stroke-width="6.82"/><line x1="70.17" y1="206.94" x2="70.17" y2="184.21" fill="none" stroke="#f55656" stroke-linecap="round" stroke-miterlimit="10" stroke-width="6.82"/><line x1="40.17" y1="206.94" x2="40.17" y2="184.21" fill="none" stroke="#f55656" stroke-linecap="round" stroke-miterlimit="10" stroke-width="6.82"/><line x1="190.09" y1="206.94" x2="190.09" y2="184.21" fill="none" stroke="#f55656" stroke-linecap="round" stroke-miterlimit="10" stroke-width="6.82"/><line x1="250.09" y1="206.94" x2="250.09" y2="184.21" fill="none" stroke="#f55656" stroke-linecap="round" stroke-miterlimit="10" stroke-width="6.82"/><line x1="220.09" y1="206.94" x2="220.09" y2="184.21" fill="none" stroke="#f55656" stroke-linecap="round" stroke-miterlimit="10" stroke-width="6.82"/><line x1="310.17" y1="35.94" x2="310.17" y2="13.21" fill="none" stroke="#2ed265" stroke-linecap="round" stroke-miterlimit="10" stroke-width="6.82"/><line x1="280.17" y1="35.94" x2="280.17" y2="13.21" fill="none" stroke="#2ed265" stroke-linecap="round" stroke-miterlimit="10" stroke-width="6.82"/><line x1="310.09" y1="35.94" x2="310.09" y2="13.21" fill="none" stroke="#2ed265" stroke-linecap="round" stroke-miterlimit="10" stroke-width="6.82"/><line x1="370.09" y1="35.94" x2="370.09" y2="13.21" fill="none" stroke="#2ed265" stroke-linecap="round" stroke-miterlimit="10" stroke-width="6.82"/><line x1="340.09" y1="35.94" x2="340.09" y2="13.21" fill="none" stroke="#2ed265" stroke-linecap="round" stroke-miterlimit="10" stroke-width="6.82"/><line x1="310.17" y1="205.94" x2="310.17" y2="183.21" fill="none" stroke="#f2a13f" stroke-linecap="round" stroke-miterlimit="10" stroke-width="6.82"/><line x1="280.17" y1="205.94" x2="280.17" y2="183.21" fill="none" stroke="#f2a13f" stroke-linecap="round" stroke-miterlimit="10" stroke-width="6.82"/><line x1="310.09" y1="205.94" x2="310.09" y2="183.21" fill="none" stroke="#f2a13f" stroke-linecap="round" stroke-miterlimit="10" stroke-width="6.82"/><line x1="370.09" y1="205.94" x2="370.09" y2="183.21" fill="none" stroke="#f2a13f" stroke-linecap="round" stroke-miterlimit="10" stroke-width="6.82"/><line x1="340.09" y1="205.94" x2="340.09" y2="183.21" fill="none" stroke="#f2a13f" stroke-linecap="round" stroke-miterlimit="10" stroke-width="6.82"/><line x1="418.1" y1="47.24" x2="433.28" y2="30.32" fill="none" stroke="#2ed265" stroke-linecap="round" stroke-miterlimit="10" stroke-width="6.82"/><line x1="396.86" y1="36.4" x2="402.29" y2="14.33" fill="none" stroke="#2ed265" stroke-linecap="round" stroke-miterlimit="10" stroke-width="6.82"/><line x1="431.78" y1="180.95" x2="414.48" y2="166.2" fill="none" stroke="#f2a13f" stroke-linecap="round" stroke-miterlimit="10" stroke-width="6.82"/><line x1="403.21" y1="201.18" x2="395.06" y2="179.96" fill="none" stroke="#f2a13f" stroke-linecap="round" stroke-miterlimit="10" stroke-width="6.82"/><line x1="434.66" y1="117.81" x2="457.12" y2="121.31" fill="none" stroke="#2ed265" stroke-linecap="round" stroke-miterlimit="10" stroke-width="6.82"/><line x1="434.39" y1="93.34" x2="457.06" y2="91.78" fill="none" stroke="#2ed265" stroke-linecap="round" stroke-miterlimit="10" stroke-width="6.82"/><line x1="428.89" y1="69.06" x2="450.73" y2="62.76" fill="none" stroke="#2ed265" stroke-linecap="round" stroke-miterlimit="10" stroke-width="6.82"/><line x1="427.43" y1="142.28" x2="448.19" y2="151.54" fill="none" stroke="#2ed265" stroke-linecap="round" stroke-miterlimit="10" stroke-width="6.82"/><line x1="29.27" y1="209.12" x2="377.31" y2="209.12" fill="none" stroke="#34e08f" stroke-linecap="round" stroke-miterlimit="10" stroke-width="7.2"/><path d="M1103.1,441.55c68,0,83.63,48.05,85,97,1.3,46.63-25,103-82,103" transform="translate(-728.54 -432.4)" fill="none" stroke="#34e08f" stroke-linecap="round" stroke-miterlimit="10" stroke-width="7.2"/><line x1="26.02" y1="9.07" x2="374.06" y2="9.07" fill="none" stroke="#34e08f" stroke-linecap="round" stroke-miterlimit="10" stroke-width="7.2"/><path d="M950.42,481.53l5.35-3.89a2.27,2.27,0,0,0,.82-2.53l-2-6.3a2.28,2.28,0,0,0-2.16-1.56h-6.61a2.28,2.28,0,0,0-2.16,1.56l-2,6.3a2.27,2.27,0,0,0,.82,2.53l5.35,3.89A2.3,2.3,0,0,0,950.42,481.53Z" transform="translate(-728.54 -432.4)" fill="#f4e558" stroke="#f4e558" stroke-linecap="round" stroke-miterlimit="10" stroke-width="0.98"/><path d="M1140.27,490.38l6.6.38a2.28,2.28,0,0,0,2.24-1.44l2.4-6.16a2.26,2.26,0,0,0-.67-2.58l-5.12-4.19a2.27,2.27,0,0,0-2.66-.15l-5.56,3.57a2.26,2.26,0,0,0-1,2.48l1.68,6.4A2.27,2.27,0,0,0,1140.27,490.38Z" transform="translate(-728.54 -432.4)" fill="#f4e558" stroke="#f4e558" stroke-linecap="round" stroke-miterlimit="10" stroke-width="0.98"/><path d="M1123.27,483.31l6.19-2.34a2.24,2.24,0,0,0,1.46-2.22l-.3-6.61a2.27,2.27,0,0,0-1.67-2.08l-6.38-1.75a2.27,2.27,0,0,0-2.49.94l-3.63,5.53a2.27,2.27,0,0,0,.12,2.66l4.13,5.16A2.28,2.28,0,0,0,1123.27,483.31Z" transform="translate(-728.54 -432.4)" fill="#f4e558" stroke="#f4e558" stroke-linecap="round" stroke-miterlimit="10" stroke-width="0.98"/><path d="M1100.29,481.22l5.35-3.89a2.26,2.26,0,0,0,.83-2.53l-2-6.29a2.26,2.26,0,0,0-2.15-1.56h-6.62a2.26,2.26,0,0,0-2.15,1.56l-2,6.29a2.25,2.25,0,0,0,.82,2.53l5.35,3.89A2.25,2.25,0,0,0,1100.29,481.22Z" transform="translate(-728.54 -432.4)" fill="#f4e558" stroke="#f4e558" stroke-linecap="round" stroke-miterlimit="10" stroke-width="0.98"/><path d="M1070.29,481.22l5.35-3.89a2.26,2.26,0,0,0,.83-2.53l-2-6.29a2.26,2.26,0,0,0-2.15-1.56h-6.62a2.26,2.26,0,0,0-2.15,1.56l-2,6.29a2.25,2.25,0,0,0,.82,2.53l5.35,3.89A2.25,2.25,0,0,0,1070.29,481.22Z" transform="translate(-728.54 -432.4)" fill="#f4e558" stroke="#f4e558" stroke-linecap="round" stroke-miterlimit="10" stroke-width="0.98"/><path d="M1040.29,481.22l5.35-3.89a2.26,2.26,0,0,0,.83-2.53l-2-6.29a2.26,2.26,0,0,0-2.15-1.56h-6.62a2.26,2.26,0,0,0-2.15,1.56l-2,6.29a2.25,2.25,0,0,0,.82,2.53l5.35,3.89A2.25,2.25,0,0,0,1040.29,481.22Z" transform="translate(-728.54 -432.4)" fill="#f4e558" stroke="#f4e558" stroke-linecap="round" stroke-miterlimit="10" stroke-width="0.98"/><path d="M1010.29,481.22l5.35-3.89a2.26,2.26,0,0,0,.83-2.53l-2.05-6.29a2.26,2.26,0,0,0-2.15-1.56h-6.62a2.26,2.26,0,0,0-2.15,1.56l-2,6.29a2.25,2.25,0,0,0,.82,2.53l5.35,3.89A2.25,2.25,0,0,0,1010.29,481.22Z" transform="translate(-728.54 -432.4)" fill="#f4e558" stroke="#f4e558" stroke-linecap="round" stroke-miterlimit="10" stroke-width="0.98"/><path d="M979.29,481.22l5.35-3.89a2.26,2.26,0,0,0,.83-2.53l-2.05-6.29a2.26,2.26,0,0,0-2.15-1.56h-6.62a2.26,2.26,0,0,0-2.15,1.56l-2,6.29a2.25,2.25,0,0,0,.82,2.53l5.35,3.89A2.25,2.25,0,0,0,979.29,481.22Z" transform="translate(-728.54 -432.4)" fill="#f4e558" stroke="#f4e558" stroke-linecap="round" stroke-miterlimit="10" stroke-width="0.98"/><path d="M1148.54,579.79l6.58.7a2.27,2.27,0,0,0,2.3-1.33l2.7-6a2.27,2.27,0,0,0-.55-2.61l-4.91-4.43a2.28,2.28,0,0,0-2.65-.28l-5.73,3.3a2.25,2.25,0,0,0-1.08,2.43l1.36,6.48A2.26,2.26,0,0,0,1148.54,579.79Z" transform="translate(-728.54 -432.4)" fill="#f4e558" stroke="#f4e558" stroke-linecap="round" stroke-miterlimit="10" stroke-width="0.98"/><path d="M1156.93,556.71l6.53-1.05a2.28,2.28,0,0,0,1.88-1.89l1-6.54a2.26,2.26,0,0,0-1.22-2.36l-5.9-3a2.27,2.27,0,0,0-2.63.43L1152,547a2.27,2.27,0,0,0-.41,2.63l3,5.89A2.29,2.29,0,0,0,1156.93,556.71Z" transform="translate(-728.54 -432.4)" fill="#f4e558" stroke="#f4e558" stroke-linecap="round" stroke-miterlimit="10" stroke-width="0.98"/><path d="M1147.6,504.82l5.09,4.22a2.25,2.25,0,0,0,2.66.17l5.59-3.54a2.27,2.27,0,0,0,1-2.47l-1.64-6.41a2.26,2.26,0,0,0-2-1.7l-6.6-.42a2.25,2.25,0,0,0-2.25,1.42l-2.44,6.15A2.26,2.26,0,0,0,1147.6,504.82Z" transform="translate(-728.54 -432.4)" fill="#f4e558" stroke="#f4e558" stroke-linecap="round" stroke-miterlimit="10" stroke-width="0.98"/><path d="M1164.85,529.91l.15-6.61a2.27,2.27,0,0,0-1.51-2.19l-6.25-2.19a2.28,2.28,0,0,0-2.55.77l-4,5.26a2.28,2.28,0,0,0-.06,2.66l3.77,5.44a2.26,2.26,0,0,0,2.51.88l6.34-1.9A2.26,2.26,0,0,0,1164.85,529.91Z" transform="translate(-728.54 -432.4)" fill="#f4e558" stroke="#f4e558" stroke-linecap="round" stroke-miterlimit="10" stroke-width="0.98"/><path d="M767.44,603.75l-5.29,4a2.27,2.27,0,0,0-.78,2.55l2.15,6.25a2.26,2.26,0,0,0,2.18,1.53l6.62-.11a2.26,2.26,0,0,0,2.12-1.6l1.94-6.33a2.26,2.26,0,0,0-.87-2.52l-5.41-3.79A2.25,2.25,0,0,0,767.44,603.75Z" transform="translate(-728.54 -432.4)" fill="#f4e558" stroke="#f4e558" stroke-linecap="round" stroke-miterlimit="10" stroke-width="0.98"/><path d="M976.44,603.75l-5.29,4a2.27,2.27,0,0,0-.78,2.55l2.15,6.25a2.26,2.26,0,0,0,2.18,1.53l6.62-.11a2.26,2.26,0,0,0,2.12-1.6l1.94-6.33a2.26,2.26,0,0,0-.87-2.52l-5.41-3.79A2.25,2.25,0,0,0,976.44,603.75Z" transform="translate(-728.54 -432.4)" fill="#f4e558" stroke="#f4e558" stroke-linecap="round" stroke-miterlimit="10" stroke-width="0.98"/><path d="M947.44,603.75l-5.29,4a2.27,2.27,0,0,0-.78,2.55l2.15,6.25a2.26,2.26,0,0,0,2.18,1.53l6.62-.11a2.26,2.26,0,0,0,2.12-1.6l1.94-6.33a2.26,2.26,0,0,0-.87-2.52l-5.41-3.79A2.25,2.25,0,0,0,947.44,603.75Z" transform="translate(-728.54 -432.4)" fill="#f4e558" stroke="#f4e558" stroke-linecap="round" stroke-miterlimit="10" stroke-width="0.98"/><path d="M917.44,603.75l-5.29,4a2.27,2.27,0,0,0-.78,2.55l2.15,6.25a2.26,2.26,0,0,0,2.18,1.53l6.62-.11a2.26,2.26,0,0,0,2.12-1.6l1.94-6.33a2.26,2.26,0,0,0-.87-2.52l-5.41-3.79A2.25,2.25,0,0,0,917.44,603.75Z" transform="translate(-728.54 -432.4)" fill="#f4e558" stroke="#f4e558" stroke-linecap="round" stroke-miterlimit="10" stroke-width="0.98"/><path d="M886.44,603.75l-5.29,4a2.27,2.27,0,0,0-.78,2.55l2.15,6.25a2.26,2.26,0,0,0,2.18,1.53l6.62-.11a2.26,2.26,0,0,0,2.12-1.6l1.94-6.33a2.26,2.26,0,0,0-.87-2.52l-5.41-3.79A2.25,2.25,0,0,0,886.44,603.75Z" transform="translate(-728.54 -432.4)" fill="#f4e558" stroke="#f4e558" stroke-linecap="round" stroke-miterlimit="10" stroke-width="0.98"/><path d="M857.44,603.75l-5.29,4a2.27,2.27,0,0,0-.78,2.55l2.15,6.25a2.26,2.26,0,0,0,2.18,1.53l6.62-.11a2.26,2.26,0,0,0,2.12-1.6l1.94-6.33a2.26,2.26,0,0,0-.87-2.52l-5.41-3.79A2.25,2.25,0,0,0,857.44,603.75Z" transform="translate(-728.54 -432.4)" fill="#f4e558" stroke="#f4e558" stroke-linecap="round" stroke-miterlimit="10" stroke-width="0.98"/><path d="M827.44,603.75l-5.29,4a2.27,2.27,0,0,0-.78,2.55l2.15,6.25a2.26,2.26,0,0,0,2.18,1.53l6.62-.11a2.26,2.26,0,0,0,2.12-1.6l1.94-6.33a2.26,2.26,0,0,0-.87-2.52l-5.41-3.79A2.25,2.25,0,0,0,827.44,603.75Z" transform="translate(-728.54 -432.4)" fill="#f4e558" stroke="#f4e558" stroke-linecap="round" stroke-miterlimit="10" stroke-width="0.98"/><path d="M796.44,603.75l-5.29,4a2.27,2.27,0,0,0-.78,2.55l2.15,6.25a2.26,2.26,0,0,0,2.18,1.53l6.62-.11a2.26,2.26,0,0,0,2.12-1.6l1.94-6.33a2.26,2.26,0,0,0-.87-2.52l-5.41-3.79A2.25,2.25,0,0,0,796.44,603.75Z" transform="translate(-728.54 -432.4)" fill="#f4e558" stroke="#f4e558" stroke-linecap="round" stroke-miterlimit="10" stroke-width="0.98"/><path d="M737.39,433.54h0v1.87h-4.16l-.65,2.38h0a6.57,6.57,0,0,1,.74-.05h.15a5.48,5.48,0,0,1,2.36.56,5.92,5.92,0,0,1,.91.56,4.7,4.7,0,0,1,.4.35,4.78,4.78,0,0,1,.53.58,3.79,3.79,0,0,1,.41.6,5,5,0,0,1-.38,5.54,4.73,4.73,0,0,1-.54.59,5.73,5.73,0,0,1-.73.59,5.5,5.5,0,0,1-3,.9h0a5.44,5.44,0,0,1-2.94-.86,5.35,5.35,0,0,1-.71-.54,4.51,4.51,0,0,1-.49-.52,4.12,4.12,0,0,1-.52-.75,2.07,2.07,0,0,1-.19-.36l1.71-.8a3.38,3.38,0,0,0,1.86,1.7,3.7,3.7,0,0,0,1.31.24,3.56,3.56,0,0,0,2.32-.84,5.47,5.47,0,0,0,.43-.44,3.07,3.07,0,0,0,.7-1.94v-.05a3.12,3.12,0,0,0-.77-2,3,3,0,0,0-.42-.41,3.64,3.64,0,0,0-4.14-.27l-1.79,1,1.22-4.54c.48-1.76.72-2.66.72-2.67l.1-.38Z" transform="translate(-728.54 -432.4)" fill="#3c4349"/><path d="M743.07,432.4v3.91h-1.88V432.4Z" transform="translate(-728.54 -432.4)" fill="#3c4349"/><path d="M739.8,633.29h0a4.13,4.13,0,0,1,2.63.93,4.21,4.21,0,0,1,.63.65,3.19,3.19,0,0,1,.37.59,3.71,3.71,0,0,1,.45,1.75v.1a3.78,3.78,0,0,1-.49,1.83,3,3,0,0,1-.39.58,4.85,4.85,0,0,1-.52.53,4.86,4.86,0,0,1,.54.48,4.38,4.38,0,0,1,.58.74,4.12,4.12,0,0,1,.62,2.17v.08a4.12,4.12,0,0,1-.71,2.3,4.67,4.67,0,0,1-.46.58,4.19,4.19,0,0,1-.54.48,5.27,5.27,0,0,1-.72.45,5,5,0,0,1-2,.5h-.27a4.72,4.72,0,0,1-1.58-.32,5.25,5.25,0,0,1-.91-.47,5.91,5.91,0,0,1-.62-.5,5.46,5.46,0,0,1-.5-.58,5.81,5.81,0,0,1-.41-.68,4.27,4.27,0,0,1-.4-1.73v-.07H737a2.31,2.31,0,0,0,.6,1.55,4.67,4.67,0,0,0,.35.34,3.66,3.66,0,0,0,.57.33,2.92,2.92,0,0,0,1.14.24,2.8,2.8,0,0,0,2-.77,2.37,2.37,0,0,0,.72-1.69,2.3,2.3,0,0,0-.58-1.52,2.74,2.74,0,0,0-2.15-.95h-1v-1.87h1.26a2.89,2.89,0,0,0,.56-.1,2.43,2.43,0,0,0,.43-.19,2.59,2.59,0,0,0,.46-.33,2,2,0,0,0,.63-1.46,2,2,0,0,0-.66-1.49,2.28,2.28,0,0,0-1.53-.59,2.24,2.24,0,0,0-1.63.69,2.09,2.09,0,0,0-.37.52,2.16,2.16,0,0,0-.2.94h-1.89v-.07a3.81,3.81,0,0,1,.94-2.52,3.06,3.06,0,0,1,.49-.49,3.76,3.76,0,0,1,.72-.48A4.09,4.09,0,0,1,739.8,633.29Z" transform="translate(-728.54 -432.4)" fill="#3c4349"/><path d="M748.6,632.4v3.91h-1.89V632.4Z" transform="translate(-728.54 -432.4)" fill="#3c4349"/></svg>