<svg id="Ebene_1" data-name="Ebene 1" xmlns="http://www.w3.org/2000/svg" viewBox="0 0 1102.05 105.87"><line x1="549.06" y1="96.3" x2="549.06" y2="73.56" fill="none" stroke="#f2a13f" stroke-linecap="round" stroke-miterlimit="10" stroke-width="6.82"/><line x1="519.06" y1="96.3" x2="519.06" y2="73.56" fill="none" stroke="#f2a13f" stroke-linecap="round" stroke-miterlimit="10" stroke-width="6.82"/><line x1="489.06" y1="96.3" x2="489.06" y2="73.56" fill="none" stroke="#f2a13f" stroke-linecap="round" stroke-miterlimit="10" stroke-width="6.82"/><line x1="459.06" y1="96.3" x2="459.06" y2="73.56" fill="none" stroke="#2ed265" stroke-linecap="round" stroke-miterlimit="10" stroke-width="6.82"/><line x1="429.06" y1="96.3" x2="429.06" y2="73.56" fill="none" stroke="#2ed265" stroke-linecap="round" stroke-miterlimit="10" stroke-width="6.82"/><line x1="399.06" y1="96.3" x2="399.06" y2="73.56" fill="none" stroke="#2ed265" stroke-linecap="round" stroke-miterlimit="10" stroke-width="6.82"/><line x1="369.06" y1="96.3" x2="369.06" y2="73.56" fill="none" stroke="#2ed265" stroke-linecap="round" stroke-miterlimit="10" stroke-width="6.82"/><line x1="339.06" y1="96.3" x2="339.06" y2="73.56" fill="none" stroke="#2ed265" stroke-linecap="round" stroke-miterlimit="10" stroke-width="6.82"/><line x1="309.06" y1="96.3" x2="309.06" y2="73.56" fill="none" stroke="#2ed265" stroke-linecap="round" stroke-miterlimit="10" stroke-width="6.82"/><line x1="279.06" y1="96.3" x2="279.06" y2="73.56" fill="none" stroke="#38a0f5" stroke-linecap="round" stroke-miterlimit="10" stroke-width="6.82"/><line x1="249.06" y1="96.3" x2="249.06" y2="73.56" fill="none" stroke="#38a0f5" stroke-linecap="round" stroke-miterlimit="10" stroke-width="6.82"/><line x1="189.06" y1="96.3" x2="189.06" y2="73.56" fill="none" stroke="#38a0f5" stroke-linecap="round" stroke-miterlimit="10" stroke-width="6.82"/><line x1="159.06" y1="96.3" x2="159.06" y2="73.56" fill="none" stroke="#38a0f5" stroke-linecap="round" stroke-miterlimit="10" stroke-width="6.82"/><line x1="219.06" y1="96.3" x2="219.06" y2="73.56" fill="none" stroke="#38a0f5" stroke-linecap="round" stroke-miterlimit="10" stroke-width="6.82"/><line x1="39.06" y1="96.3" x2="39.06" y2="73.56" fill="none" stroke="#f55656" stroke-linecap="round" stroke-miterlimit="10" stroke-width="6.82"/><line x1="129.06" y1="96.3" x2="129.06" y2="73.56" fill="none" stroke="#f55656" stroke-linecap="round" stroke-miterlimit="10" stroke-width="6.82"/><line x1="99.06" y1="96.3" x2="99.06" y2="73.56" fill="none" stroke="#f55656" stroke-linecap="round" stroke-miterlimit="10" stroke-width="6.82"/><line x1="69.06" y1="96.3" x2="69.06" y2="73.56" fill="none" stroke="#f55656" stroke-linecap="round" stroke-miterlimit="10" stroke-width="6.82"/><line x1="24.56" y1="98.43" x2="567.06" y2="98.43" fill="none" stroke="#34e08f" stroke-linecap="round" stroke-miterlimit="10" stroke-width="8.99"/><path d="M418,578.67h0v1.86h-4.16l-.65,2.39h0a4.8,4.8,0,0,1,.73-.05h.16a5.42,5.42,0,0,1,2.35.55,6.24,6.24,0,0,1,.91.56,3.54,3.54,0,0,1,.4.35,4.2,4.2,0,0,1,.54.59,5.91,5.91,0,0,1,.41.59,5,5,0,0,1-.38,5.54q-.17.21-.54.6a5.58,5.58,0,0,1-.73.58,5.5,5.5,0,0,1-3,.9H414a5.49,5.49,0,0,1-2.94-.86,5.33,5.33,0,0,1-.7-.54,5.2,5.2,0,0,1-.5-.51,6.15,6.15,0,0,1-.52-.76,2.46,2.46,0,0,1-.18-.36l1.71-.8a3.3,3.3,0,0,0,1.85,1.7,3.76,3.76,0,0,0,1.31.25,3.59,3.59,0,0,0,2.33-.84l.43-.44a3.15,3.15,0,0,0,.7-2v0a3.13,3.13,0,0,0-.77-2,4.75,4.75,0,0,0-.42-.41,3.63,3.63,0,0,0-2.28-.79,3.59,3.59,0,0,0-1.86.52l-1.79,1,1.22-4.54c.48-1.77.71-2.66.71-2.68l.11-.37Z" transform="translate(-409.12 -487.28)" fill="#3c4349"/><path d="M423.65,577.53v3.9h-1.89v-3.9Z" transform="translate(-409.12 -487.28)" fill="#3c4349"/><path d="M738.45,511.31h0a4.11,4.11,0,0,1,2.63.93,4.36,4.36,0,0,1,.64.66,4,4,0,0,1,.82,2.33v.11a3.86,3.86,0,0,1-.49,1.82,3.68,3.68,0,0,1-.39.58,6.21,6.21,0,0,1-.53.54,4.54,4.54,0,0,1,.55.48,4.35,4.35,0,0,1,.57.74,4.1,4.1,0,0,1,.63,2.17v.07a4.23,4.23,0,0,1-.71,2.31,7.27,7.27,0,0,1-.46.58,3.26,3.26,0,0,1-.55.47,3.79,3.79,0,0,1-.71.45,4.46,4.46,0,0,1-.75.3,4.68,4.68,0,0,1-1.25.2h-.28a4.63,4.63,0,0,1-1.57-.31,5.39,5.39,0,0,1-.92-.48,5.89,5.89,0,0,1-.61-.5,4.5,4.5,0,0,1-.5-.57,5.82,5.82,0,0,1-.41-.69,4.08,4.08,0,0,1-.4-1.73v-.06h1.88a2.31,2.31,0,0,0,.61,1.55,3,3,0,0,0,.35.33,2.17,2.17,0,0,0,.57.33,2.86,2.86,0,0,0,1.14.25,2.78,2.78,0,0,0,2-.78,2.37,2.37,0,0,0,.72-1.68,2.35,2.35,0,0,0-.57-1.53,2.76,2.76,0,0,0-2.15-.95h-1v-1.87h1.26a2.33,2.33,0,0,0,.57-.1,2.77,2.77,0,0,0,.43-.18,2.28,2.28,0,0,0,.46-.34,2,2,0,0,0,0-2.94,2.24,2.24,0,0,0-1.54-.59,2.29,2.29,0,0,0-1.63.68,2.65,2.65,0,0,0-.37.52,2.18,2.18,0,0,0-.19,1h-1.9v-.08a3.89,3.89,0,0,1,.94-2.52,3.49,3.49,0,0,1,.5-.49,4.43,4.43,0,0,1,.71-.48A4.13,4.13,0,0,1,738.45,511.31Z" transform="translate(-409.12 -487.28)" fill="#3c4349"/><path d="M747.24,510.43v3.9h-1.88v-3.9Z" transform="translate(-409.12 -487.28)" fill="#3c4349"/><line x1="1058.98" y1="96.3" x2="1058.98" y2="73.56" fill="none" stroke="#f2a13f" stroke-linecap="round" stroke-miterlimit="10" stroke-width="6.82"/><line x1="1028.98" y1="96.3" x2="1028.98" y2="73.56" fill="none" stroke="#f2a13f" stroke-linecap="round" stroke-miterlimit="10" stroke-width="6.82"/><line x1="998.98" y1="96.3" x2="998.98" y2="73.56" fill="none" stroke="#f2a13f" stroke-linecap="round" stroke-miterlimit="10" stroke-width="6.82"/><line x1="968.98" y1="96.3" x2="968.98" y2="73.56" fill="none" stroke="#2ed265" stroke-linecap="round" stroke-miterlimit="10" stroke-width="6.82"/><line x1="938.98" y1="96.3" x2="938.98" y2="73.56" fill="none" stroke="#2ed265" stroke-linecap="round" stroke-miterlimit="10" stroke-width="6.82"/><line x1="908.98" y1="96.3" x2="908.98" y2="73.56" fill="none" stroke="#2ed265" stroke-linecap="round" stroke-miterlimit="10" stroke-width="6.82"/><line x1="878.98" y1="96.3" x2="878.98" y2="73.56" fill="none" stroke="#2ed265" stroke-linecap="round" stroke-miterlimit="10" stroke-width="6.82"/><line x1="848.98" y1="96.3" x2="848.98" y2="73.56" fill="none" stroke="#2ed265" stroke-linecap="round" stroke-miterlimit="10" stroke-width="6.82"/><line x1="818.98" y1="96.3" x2="818.98" y2="73.56" fill="none" stroke="#2ed265" stroke-linecap="round" stroke-miterlimit="10" stroke-width="6.82"/><line x1="788.98" y1="96.3" x2="788.98" y2="73.56" fill="none" stroke="#38a0f5" stroke-linecap="round" stroke-miterlimit="10" stroke-width="6.82"/><line x1="758.98" y1="96.3" x2="758.98" y2="73.56" fill="none" stroke="#38a0f5" stroke-linecap="round" stroke-miterlimit="10" stroke-width="6.82"/><line x1="698.98" y1="96.3" x2="698.98" y2="73.56" fill="none" stroke="#38a0f5" stroke-linecap="round" stroke-miterlimit="10" stroke-width="6.82"/><line x1="668.98" y1="96.3" x2="668.98" y2="73.56" fill="none" stroke="#38a0f5" stroke-linecap="round" stroke-miterlimit="10" stroke-width="6.82"/><line x1="728.98" y1="96.3" x2="728.98" y2="73.56" fill="none" stroke="#38a0f5" stroke-linecap="round" stroke-miterlimit="10" stroke-width="6.82"/><line x1="548.98" y1="96.3" x2="548.98" y2="73.56" fill="none" stroke="#f2a13f" stroke-linecap="round" stroke-miterlimit="10" stroke-width="6.82"/><line x1="638.98" y1="96.3" x2="638.98" y2="73.56" fill="none" stroke="#f2a13f" stroke-linecap="round" stroke-miterlimit="10" stroke-width="6.82"/><line x1="608.98" y1="96.3" x2="608.98" y2="73.56" fill="none" stroke="#f2a13f" stroke-linecap="round" stroke-miterlimit="10" stroke-width="6.82"/><line x1="578.98" y1="96.3" x2="578.98" y2="73.56" fill="none" stroke="#f2a13f" stroke-linecap="round" stroke-miterlimit="10" stroke-width="6.82"/><line x1="534.48" y1="98.43" x2="1076.98" y2="98.43" fill="none" stroke="#34e08f" stroke-linecap="round" stroke-miterlimit="10" stroke-width="8.99"/><path d="M1502.37,578.31h0a4.14,4.14,0,0,1,2.63.93,4.26,4.26,0,0,1,.63.66,4,4,0,0,1,.82,2.33v.11a3.74,3.74,0,0,1-.49,1.82,3.68,3.68,0,0,1-.39.58,5,5,0,0,1-.53.54,3.38,3.38,0,0,1,.55.48,4.51,4.51,0,0,1,.58.74,4.18,4.18,0,0,1,.62,2.17v.07a4.23,4.23,0,0,1-.71,2.31,5.54,5.54,0,0,1-.46.58,2.91,2.91,0,0,1-.55.47,3.79,3.79,0,0,1-.71.45,4.31,4.31,0,0,1-.74.3,4.69,4.69,0,0,1-1.26.2h-.27a4.69,4.69,0,0,1-1.58-.31,5.39,5.39,0,0,1-.92-.48,7.17,7.17,0,0,1-.61-.5,4.5,4.5,0,0,1-.5-.57,5.82,5.82,0,0,1-.41-.69,4.08,4.08,0,0,1-.4-1.73v-.06h1.89a2.35,2.35,0,0,0,.6,1.55,4.15,4.15,0,0,0,.35.33,2.54,2.54,0,0,0,.57.33,2.93,2.93,0,0,0,1.14.25,2.78,2.78,0,0,0,2-.78,2.34,2.34,0,0,0,.73-1.68,2.3,2.3,0,0,0-.58-1.53,2.74,2.74,0,0,0-2.15-.95h-1v-1.87h1.26a2.27,2.27,0,0,0,.56-.1,2.41,2.41,0,0,0,.43-.18,2.28,2.28,0,0,0,.46-.34,2,2,0,0,0,0-2.94,2.23,2.23,0,0,0-1.53-.59,2.25,2.25,0,0,0-1.63.68,2.29,2.29,0,0,0-.37.52,2.18,2.18,0,0,0-.2,1h-1.89v-.08a3.87,3.87,0,0,1,.93-2.52,4.12,4.12,0,0,1,.5-.49,4.93,4.93,0,0,1,.71-.48A4.16,4.16,0,0,1,1502.37,578.31Z" transform="translate(-409.12 -487.28)" fill="#3c4349"/><path d="M1511.17,577.43v3.9h-1.89v-3.9Z" transform="translate(-409.12 -487.28)" fill="#3c4349"/><line x1="518.29" y1="57.82" x2="518.29" y2="35.09" fill="none" stroke="#2ed265" stroke-linecap="round" stroke-miterlimit="10" stroke-width="6.82"/><line x1="488.29" y1="57.82" x2="488.29" y2="35.09" fill="none" stroke="#2ed265" stroke-linecap="round" stroke-miterlimit="10" stroke-width="6.82"/><line x1="458.29" y1="57.82" x2="458.29" y2="35.09" fill="none" stroke="#f2a13f" stroke-linecap="round" stroke-miterlimit="10" stroke-width="6.82"/><line x1="428.29" y1="57.82" x2="428.29" y2="35.09" fill="none" stroke="#f2a13f" stroke-linecap="round" stroke-miterlimit="10" stroke-width="6.82"/><line x1="398.29" y1="57.82" x2="398.29" y2="35.09" fill="none" stroke="#f2a13f" stroke-linecap="round" stroke-miterlimit="10" stroke-width="6.82"/><line x1="368.29" y1="57.82" x2="368.29" y2="35.09" fill="none" stroke="#f2a13f" stroke-linecap="round" stroke-miterlimit="10" stroke-width="6.82"/><line x1="518.21" y1="57.82" x2="518.21" y2="35.09" fill="none" stroke="#2ed265" stroke-linecap="round" stroke-miterlimit="10" stroke-width="6.82"/><line x1="578.21" y1="57.82" x2="578.21" y2="35.09" fill="none" stroke="#2ed265" stroke-linecap="round" stroke-miterlimit="10" stroke-width="6.82"/><line x1="548.21" y1="57.82" x2="548.21" y2="35.09" fill="none" stroke="#2ed265" stroke-linecap="round" stroke-miterlimit="10" stroke-width="6.82"/><line x1="848.79" y1="57.82" x2="848.79" y2="35.09" fill="none" stroke="#f2a13f" stroke-linecap="round" stroke-miterlimit="10" stroke-width="6.82"/><line x1="818.79" y1="57.82" x2="818.79" y2="35.09" fill="none" stroke="#f2a13f" stroke-linecap="round" stroke-miterlimit="10" stroke-width="6.82"/><line x1="788.79" y1="57.82" x2="788.79" y2="35.09" fill="none" stroke="#f55656" stroke-linecap="round" stroke-miterlimit="10" stroke-width="6.82"/><line x1="758.79" y1="57.82" x2="758.79" y2="35.09" fill="none" stroke="#f55656" stroke-linecap="round" stroke-miterlimit="10" stroke-width="6.82"/><line x1="728.79" y1="57.82" x2="728.79" y2="35.09" fill="none" stroke="#f55656" stroke-linecap="round" stroke-miterlimit="10" stroke-width="6.82"/><line x1="698.79" y1="57.82" x2="698.79" y2="35.09" fill="none" stroke="#f55656" stroke-linecap="round" stroke-miterlimit="10" stroke-width="6.82"/><line x1="848.72" y1="57.82" x2="848.72" y2="35.09" fill="none" stroke="#f2a13f" stroke-linecap="round" stroke-miterlimit="10" stroke-width="6.82"/><line x1="908.72" y1="57.82" x2="908.72" y2="35.09" fill="none" stroke="#f2a13f" stroke-linecap="round" stroke-miterlimit="10" stroke-width="6.82"/><line x1="878.72" y1="57.82" x2="878.72" y2="35.09" fill="none" stroke="#f2a13f" stroke-linecap="round" stroke-miterlimit="10" stroke-width="6.82"/><path d="M1357.63,512.67h0v1.87h-4.16l-.65,2.38h0a6.57,6.57,0,0,1,.74-.05h.15a5.51,5.51,0,0,1,2.36.56,5.42,5.42,0,0,1,.9.56,2.84,2.84,0,0,1,.4.35,4.33,4.33,0,0,1,.54.58,4,4,0,0,1,.41.6,5,5,0,0,1-.38,5.54,4.73,4.73,0,0,1-.54.59,5.73,5.73,0,0,1-.73.59,5.5,5.5,0,0,1-3,.9h0a5.44,5.44,0,0,1-2.94-.86,5.35,5.35,0,0,1-.71-.54,6.34,6.34,0,0,1-.5-.52,4.53,4.53,0,0,1-.51-.75,2.07,2.07,0,0,1-.19-.36l1.71-.8a3.38,3.38,0,0,0,1.86,1.7,3.69,3.69,0,0,0,1.3.24,3.57,3.57,0,0,0,2.33-.84,5.47,5.47,0,0,0,.43-.44,3.07,3.07,0,0,0,.7-1.94v0a3.12,3.12,0,0,0-.77-2,3,3,0,0,0-.42-.41,3.64,3.64,0,0,0-4.14-.27l-1.79,1,1.22-4.54c.48-1.76.72-2.66.72-2.67l.1-.38Z" transform="translate(-409.12 -487.28)" fill="#3c4349"/><path d="M1363.31,511.53v3.91h-1.88v-3.91Z" transform="translate(-409.12 -487.28)" fill="#3c4349"/><path d="M1028.63,512.67h0v1.87h-4.16l-.65,2.38h0a6.57,6.57,0,0,1,.74-.05h.15a5.48,5.48,0,0,1,2.36.56,5.42,5.42,0,0,1,.9.56,3.52,3.52,0,0,1,.41.35,4.78,4.78,0,0,1,.53.58,4,4,0,0,1,.41.6,5,5,0,0,1-.38,5.54,4.73,4.73,0,0,1-.54.59,5.73,5.73,0,0,1-.73.59,5.5,5.5,0,0,1-3,.9h0a5.44,5.44,0,0,1-2.94-.86,5.35,5.35,0,0,1-.71-.54,4.51,4.51,0,0,1-.49-.52,4.12,4.12,0,0,1-.52-.75,2.07,2.07,0,0,1-.19-.36l1.71-.8a3.38,3.38,0,0,0,1.86,1.7,3.7,3.7,0,0,0,1.31.24,3.56,3.56,0,0,0,2.32-.84,5.47,5.47,0,0,0,.43-.44,3.07,3.07,0,0,0,.7-1.94v0a3.12,3.12,0,0,0-.77-2,3,3,0,0,0-.42-.41,3.64,3.64,0,0,0-4.14-.27l-1.79,1,1.22-4.54c.48-1.76.72-2.66.72-2.67l.1-.38Z" transform="translate(-409.12 -487.28)" fill="#3c4349"/><path d="M1034.31,511.53v3.91h-1.88v-3.91Z" transform="translate(-409.12 -487.28)" fill="#3c4349"/><path d="M1074,512.42h0a4.13,4.13,0,0,1,2.63.93,4.21,4.21,0,0,1,.63.65,3.19,3.19,0,0,1,.37.59,3.71,3.71,0,0,1,.45,1.75v.1a3.78,3.78,0,0,1-.49,1.83,3.27,3.27,0,0,1-.39.58,6,6,0,0,1-.52.53,4,4,0,0,1,.54.48,4.38,4.38,0,0,1,.58.74,4.12,4.12,0,0,1,.62,2.17v.08a4.12,4.12,0,0,1-.71,2.3,4.67,4.67,0,0,1-.46.58,4.19,4.19,0,0,1-.54.48,5.27,5.27,0,0,1-.72.45,5,5,0,0,1-2,.5h-.27a4.72,4.72,0,0,1-1.58-.32,5.25,5.25,0,0,1-.91-.47,7.57,7.57,0,0,1-.62-.5,5.46,5.46,0,0,1-.5-.58,5.81,5.81,0,0,1-.41-.68,4.27,4.27,0,0,1-.4-1.73v-.07h1.89a2.33,2.33,0,0,0,.6,1.55,4.67,4.67,0,0,0,.35.34,3.66,3.66,0,0,0,.57.33,2.92,2.92,0,0,0,1.14.24,2.84,2.84,0,0,0,2-.77,2.37,2.37,0,0,0,.72-1.69,2.3,2.3,0,0,0-.58-1.52,2.74,2.74,0,0,0-2.15-.95h-1v-1.87h1.26a2.89,2.89,0,0,0,.56-.1,3.46,3.46,0,0,0,.43-.19,2.59,2.59,0,0,0,.46-.33,2,2,0,0,0,0-3,2.28,2.28,0,0,0-1.53-.59,2.24,2.24,0,0,0-1.63.69,2.09,2.09,0,0,0-.37.52,2.13,2.13,0,0,0-.2.94H1070v-.07a3.81,3.81,0,0,1,.94-2.52,3.06,3.06,0,0,1,.49-.49,3.76,3.76,0,0,1,.72-.48A4.09,4.09,0,0,1,1074,512.42Z" transform="translate(-409.12 -487.28)" fill="#3c4349"/><path d="M1082.84,511.53v3.91H1081v-3.91Z" transform="translate(-409.12 -487.28)" fill="#3c4349"/><line x1="685.74" y1="32.72" x2="925.74" y2="32.72" fill="none" stroke="#34e08f" stroke-linecap="round" stroke-miterlimit="10" stroke-width="8.99"/><line x1="355.23" y1="32.72" x2="595.23" y2="32.72" fill="none" stroke="#34e08f" stroke-linecap="round" stroke-miterlimit="10" stroke-width="8.99"/><circle cx="355.23" cy="32.72" r="4.5" fill="#f55656"/><circle cx="685.6" cy="32.89" r="4.5" fill="#f55656"/><path d="M743.08,487.29v14.28H741.2v-1c-.11.12-.22.22-.33.32a4.16,4.16,0,0,1-.51.38,3.16,3.16,0,0,1-.67.3,4.71,4.71,0,0,1-1.26.21h-.12a4.59,4.59,0,0,1-2.42-.71,5.47,5.47,0,0,1-.5-.36,4.25,4.25,0,0,1-.62-.61,5.29,5.29,0,0,1-.55-.81,5,5,0,0,1-.6-2.37,4.94,4.94,0,0,1,.34-1.82,5.16,5.16,0,0,1,1-1.55q.35-.34.51-.48a4.6,4.6,0,0,1,2.91-1h0a3.83,3.83,0,0,1,2.44.85,2.51,2.51,0,0,1,.4.4h0v-6h1.88ZM740.54,495a3.89,3.89,0,0,0-.34-.36,2.42,2.42,0,0,0-.59-.41,2.74,2.74,0,0,0-3.36.66,3.08,3.08,0,0,0-.74,2v0a3,3,0,0,0,.29,1.28,3.34,3.34,0,0,0,.49.76,2.79,2.79,0,0,0,2.07.91,2.86,2.86,0,0,0,1.19-.27,3,3,0,0,0,.53-.34l.18-.16a2.44,2.44,0,0,0,.36-.41,3,3,0,0,0,.58-1.76v-.05A2.94,2.94,0,0,0,740.54,495Z" transform="translate(-409.12 -487.28)" fill="#3c4349"/><path d="M755,487.29v14.28h-1.89v-1l-.32.32a5.08,5.08,0,0,1-.52.38,3.08,3.08,0,0,1-.66.3,4.83,4.83,0,0,1-1.26.21h-.13a4.56,4.56,0,0,1-2.41-.71,4.42,4.42,0,0,1-.51-.36,4.28,4.28,0,0,1-.61-.61,4.65,4.65,0,0,1-.55-.81,5,5,0,0,1,.7-5.74,5.71,5.71,0,0,1,.52-.48,4.6,4.6,0,0,1,2.9-1h0a3.83,3.83,0,0,1,2.43.85,2.51,2.51,0,0,1,.4.4h0v-6H755ZM752.43,495c0-.06-.16-.18-.34-.36a2.87,2.87,0,0,0-.59-.41,2.82,2.82,0,0,0-1.22-.31,2.78,2.78,0,0,0-2.15,1,3.07,3.07,0,0,0-.73,2v0a3,3,0,0,0,.28,1.28,3.41,3.41,0,0,0,.5.76,2.76,2.76,0,0,0,2.07.91,2.85,2.85,0,0,0,1.18-.27,3,3,0,0,0,.54-.34l.17-.16a3.17,3.17,0,0,0,.37-.41,3,3,0,0,0,.57-1.76v-.05A3,3,0,0,0,752.43,495Z" transform="translate(-409.12 -487.28)" fill="#3c4349"/><path d="M758.16,487.28h2l6.86,10.21.62.95h0V487.31l0,0h1.84l0,0v14.24l0,0h-2q-.53-.74-3.89-5.82L760,490.4v11.15l0,0h-1.83l0,0V487.31Z" transform="translate(-409.12 -487.28)" fill="#3c4349"/><path d="M771.41,487.28h9.48v1.86H777.1v12.4h-1.9v-12.4h-3.8v-1.86Z" transform="translate(-409.12 -487.28)" fill="#3c4349"/><path d="M782.75,487.28h4.71a5,5,0,0,1,3.84,1.7,4.57,4.57,0,0,1-.68,6.65,5.17,5.17,0,0,1-3.19,1.06H784.6v4.86l0,0h-1.83l0,0V487.31Zm1.85,1.9v5.62h2.94a3.14,3.14,0,0,0,2.43-1.16,2.78,2.78,0,0,0,.56-1.6v-.12a2.68,2.68,0,0,0-1.23-2.2,3.47,3.47,0,0,0-2.12-.57h-2.56Z" transform="translate(-409.12 -487.28)" fill="#3c4349"/><path d="M1078.18,487.93v14.29h-1.88v-1a3.27,3.27,0,0,1-.33.32,3.33,3.33,0,0,1-.51.38,3.77,3.77,0,0,1-.67.31,5.07,5.07,0,0,1-1.26.2h-.12a4.59,4.59,0,0,1-2.42-.71,5.21,5.21,0,0,1-.5-.35,5.9,5.9,0,0,1-.62-.62,5.29,5.29,0,0,1-.55-.81,5,5,0,0,1-.6-2.37,4.94,4.94,0,0,1,.34-1.82,5.16,5.16,0,0,1,1-1.55,5.71,5.71,0,0,1,.52-.48,4.6,4.6,0,0,1,2.9-1h0a3.82,3.82,0,0,1,2.43.84,2.18,2.18,0,0,1,.4.41h0v-6h1.88Zm-2.54,7.75a3.89,3.89,0,0,0-.34-.36,3,3,0,0,0-.58-.41,2.86,2.86,0,0,0-1.23-.31,2.77,2.77,0,0,0-2.14,1,3,3,0,0,0-.74,2v0a3.11,3.11,0,0,0,.29,1.29,3.3,3.3,0,0,0,.49.75,2.8,2.8,0,0,0,2.08.92,2.72,2.72,0,0,0,1.18-.28,2.69,2.69,0,0,0,.53-.34l.18-.15a3.61,3.61,0,0,0,.36-.41,3,3,0,0,0,.58-1.77v-.05A3,3,0,0,0,1075.64,495.68Z" transform="translate(-409.12 -487.28)" fill="#3c4349"/><path d="M1090.07,487.93v14.29h-1.89v-1c-.11.12-.22.23-.32.32a3.91,3.91,0,0,1-.52.38,3.37,3.37,0,0,1-.66.31,5.21,5.21,0,0,1-1.26.2h-.13a4.56,4.56,0,0,1-2.41-.71,4.26,4.26,0,0,1-.51-.35,6,6,0,0,1-.61-.62,4.65,4.65,0,0,1-.55-.81,5,5,0,0,1-.61-2.37,5.07,5.07,0,0,1,1.31-3.37,5.71,5.71,0,0,1,.52-.48,4.64,4.64,0,0,1,2.9-1h0a3.82,3.82,0,0,1,2.43.84,2.18,2.18,0,0,1,.4.41h0v-6h1.89Zm-2.54,7.75c0-.06-.16-.18-.34-.36a3,3,0,0,0-.59-.41,2.82,2.82,0,0,0-1.22-.31,2.79,2.79,0,0,0-2.15,1,3,3,0,0,0-.73,2v0a3.09,3.09,0,0,0,.28,1.29,3.37,3.37,0,0,0,.5.75,2.8,2.8,0,0,0,2.07.92,2.72,2.72,0,0,0,1.18-.28,3,3,0,0,0,.54-.34l.17-.15a5.44,5.44,0,0,0,.37-.41,3,3,0,0,0,.57-1.77v-.05A3,3,0,0,0,1087.53,495.68Z" transform="translate(-409.12 -487.28)" fill="#3c4349"/><path d="M1093.26,487.92h2l6.86,10.22.62.94h0V488l0,0h1.84l0,0v14.24l0,0h-2c-.36-.5-1.65-2.44-3.9-5.82l-3.61-5.35v11.14l0,0h-1.83l0,0V488Z" transform="translate(-409.12 -487.28)" fill="#3c4349"/><path d="M1106.51,487.92H1116v1.87h-3.79v12.4h-1.9v-12.4h-3.8v-1.87Z" transform="translate(-409.12 -487.28)" fill="#3c4349"/><path d="M1117.85,487.92h4.71a5,5,0,0,1,3.84,1.7,4.57,4.57,0,0,1-.68,6.65,5.17,5.17,0,0,1-3.19,1.06h-2.83v4.86l0,0h-1.83l0,0V488Zm1.85,1.9v5.62h2.94a3.14,3.14,0,0,0,2.43-1.16,2.72,2.72,0,0,0,.56-1.59v-.13a2.69,2.69,0,0,0-1.23-2.2,3.47,3.47,0,0,0-2.12-.56h-2.56Z" transform="translate(-409.12 -487.28)" fill="#3c4349"/></svg>