<svg id="Ebene_1" data-name="Ebene 1" xmlns="http://www.w3.org/2000/svg" viewBox="0 0 592.13 174.46"><line x1="549.06" y1="26.14" x2="549.06" y2="3.41" fill="none" stroke="#f2a13f" stroke-linecap="round" stroke-miterlimit="10" stroke-width="6.82"/><line x1="519.06" y1="26.14" x2="519.06" y2="3.41" fill="none" stroke="#f2a13f" stroke-linecap="round" stroke-miterlimit="10" stroke-width="6.82"/><line x1="489.06" y1="26.14" x2="489.06" y2="3.41" fill="none" stroke="#f2a13f" stroke-linecap="round" stroke-miterlimit="10" stroke-width="6.82"/><line x1="459.06" y1="26.14" x2="459.06" y2="3.41" fill="none" stroke="#2ed265" stroke-linecap="round" stroke-miterlimit="10" stroke-width="6.82"/><line x1="429.06" y1="26.14" x2="429.06" y2="3.41" fill="none" stroke="#2ed265" stroke-linecap="round" stroke-miterlimit="10" stroke-width="6.82"/><line x1="399.06" y1="26.14" x2="399.06" y2="3.41" fill="none" stroke="#2ed265" stroke-linecap="round" stroke-miterlimit="10" stroke-width="6.82"/><line x1="369.06" y1="26.14" x2="369.06" y2="3.41" fill="none" stroke="#2ed265" stroke-linecap="round" stroke-miterlimit="10" stroke-width="6.82"/><line x1="339.06" y1="26.14" x2="339.06" y2="3.41" fill="none" stroke="#2ed265" stroke-linecap="round" stroke-miterlimit="10" stroke-width="6.82"/><line x1="309.06" y1="26.14" x2="309.06" y2="3.41" fill="none" stroke="#2ed265" stroke-linecap="round" stroke-miterlimit="10" stroke-width="6.82"/><line x1="279.06" y1="26.14" x2="279.06" y2="3.41" fill="none" stroke="#38a0f5" stroke-linecap="round" stroke-miterlimit="10" stroke-width="6.82"/><line x1="249.06" y1="26.14" x2="249.06" y2="3.41" fill="none" stroke="#38a0f5" stroke-linecap="round" stroke-miterlimit="10" stroke-width="6.82"/><line x1="189.06" y1="26.14" x2="189.06" y2="3.41" fill="none" stroke="#38a0f5" stroke-linecap="round" stroke-miterlimit="10" stroke-width="6.82"/><line x1="159.06" y1="26.14" x2="159.06" y2="3.41" fill="none" stroke="#38a0f5" stroke-linecap="round" stroke-miterlimit="10" stroke-width="6.82"/><line x1="219.06" y1="26.14" x2="219.06" y2="3.41" fill="none" stroke="#38a0f5" stroke-linecap="round" stroke-miterlimit="10" stroke-width="6.82"/><line x1="39.06" y1="26.14" x2="39.06" y2="3.41" fill="none" stroke="#f55656" stroke-linecap="round" stroke-miterlimit="10" stroke-width="6.82"/><line x1="129.06" y1="26.14" x2="129.06" y2="3.41" fill="none" stroke="#f55656" stroke-linecap="round" stroke-miterlimit="10" stroke-width="6.82"/><line x1="99.06" y1="26.14" x2="99.06" y2="3.41" fill="none" stroke="#f55656" stroke-linecap="round" stroke-miterlimit="10" stroke-width="6.82"/><line x1="69.06" y1="26.14" x2="69.06" y2="3.41" fill="none" stroke="#f55656" stroke-linecap="round" stroke-miterlimit="10" stroke-width="6.82"/><line x1="24.56" y1="28.28" x2="567.06" y2="28.28" fill="none" stroke="#34e08f" stroke-linecap="round" stroke-miterlimit="10" stroke-width="8.99"/><path d="M672.93,473.92h0v1.87h-4.16l-.65,2.38h0a6.57,6.57,0,0,1,.74-.05H669a5.51,5.51,0,0,1,2.36.56,5.74,5.74,0,0,1,.9.55,5.36,5.36,0,0,1,.4.36,4.33,4.33,0,0,1,.54.58,4,4,0,0,1,.41.6,5,5,0,0,1,.66,2.49,4.93,4.93,0,0,1-1,3,4.07,4.07,0,0,1-.54.6,5.73,5.73,0,0,1-.73.59,5.5,5.5,0,0,1-3,.9h-.05a5.49,5.49,0,0,1-2.94-.86,6.08,6.08,0,0,1-.7-.54,6.34,6.34,0,0,1-.5-.52,5.56,5.56,0,0,1-.51-.75,2.07,2.07,0,0,1-.19-.36l1.71-.8a3.43,3.43,0,0,0,1.85,1.7,3.74,3.74,0,0,0,1.31.24,3.59,3.59,0,0,0,2.33-.84,5.47,5.47,0,0,0,.43-.44,3.09,3.09,0,0,0,.7-1.94v-.05a3.12,3.12,0,0,0-.77-2,3,3,0,0,0-.42-.41,3.57,3.57,0,0,0-2.28-.79,3.67,3.67,0,0,0-1.86.51l-1.79,1,1.22-4.54c.48-1.76.71-2.66.71-2.68l.11-.37Z" transform="translate(-664.08 -452.69)" fill="#3c4349"/><path d="M678.61,472.78v3.91h-1.88v-3.91Z" transform="translate(-664.08 -452.69)" fill="#3c4349"/><path d="M1247.41,473.57h0a4.1,4.1,0,0,1,2.62.93,4.31,4.31,0,0,1,.64.65,3.82,3.82,0,0,1,.37.59,3.71,3.71,0,0,1,.45,1.75v.1a3.81,3.81,0,0,1-.49,1.83,4.15,4.15,0,0,1-.39.57,4.22,4.22,0,0,1-.53.54,3.87,3.87,0,0,1,.55.48,5.76,5.76,0,0,1,.58.74,4.21,4.21,0,0,1,.62,2.17V484a4.2,4.2,0,0,1-.71,2.3,7.27,7.27,0,0,1-.46.58,4.1,4.1,0,0,1-.55.48,5.2,5.2,0,0,1-.71.45,4.39,4.39,0,0,1-.74.29,4.47,4.47,0,0,1-1.26.21h-.28a4.67,4.67,0,0,1-1.57-.32,4.76,4.76,0,0,1-.92-.48,5.69,5.69,0,0,1-.61-.49,4.5,4.5,0,0,1-.5-.58,5.81,5.81,0,0,1-.41-.68,4.14,4.14,0,0,1-.4-1.73V484h1.88a2.34,2.34,0,0,0,.61,1.55,2.27,2.27,0,0,0,.35.33,2.82,2.82,0,0,0,.57.34,2.88,2.88,0,0,0,1.14.24,2.82,2.82,0,0,0,2-.77A2.4,2.4,0,0,0,1250,484a2.35,2.35,0,0,0-.58-1.52,2.72,2.72,0,0,0-2.15-.95h-1v-1.88h1.26a2.67,2.67,0,0,0,.57-.09,3.46,3.46,0,0,0,.43-.19,2.59,2.59,0,0,0,.46-.33,2,2,0,0,0,0-2.95,2.28,2.28,0,0,0-1.53-.59,2.22,2.22,0,0,0-1.63.69,2.32,2.32,0,0,0-.38.51,2.21,2.21,0,0,0-.19.95h-1.9v-.08a3.9,3.9,0,0,1,.94-2.52,3.81,3.81,0,0,1,.5-.48,3.42,3.42,0,0,1,.71-.48A4.13,4.13,0,0,1,1247.41,473.57Z" transform="translate(-664.08 -452.69)" fill="#3c4349"/><path d="M1256.21,472.68v3.91h-1.89v-3.91Z" transform="translate(-664.08 -452.69)" fill="#3c4349"/><rect x="1153.99" y="540.77" width="66" height="66" rx="3.72" transform="translate(94.27 -1125.69) rotate(45.23)" fill="#65dbbc"/><path d="M1181.92,626.79c-3.7-8.4-7.79-19.24-17-28.36-9.45-9.4-20.74-14.13-29.58-18.47l-.87-.87a2.35,2.35,0,0,1,1.68-4l47.17.19a2.34,2.34,0,0,1,2.34,2.36l-.19,47.16A2.35,2.35,0,0,1,1181.92,626.79Z" transform="translate(-664.08 -452.69)" fill="#7fefd5"/><path d="M1134.23,568.44c8.4-3.7,19.25-7.79,28.36-17,9.4-9.45,14.13-20.74,18.47-29.59l.87-.86a2.35,2.35,0,0,1,4,1.68l-.19,47.17a2.34,2.34,0,0,1-2.36,2.34l-47.16-.19A2.35,2.35,0,0,1,1134.23,568.44Z" transform="translate(-664.08 -452.69)" fill="#7fefd5"/><path d="M1240,578.83c-8.4,3.71-19.25,7.8-28.36,16.95-9.4,9.46-14.13,20.75-18.47,29.59l-.87.87a2.36,2.36,0,0,1-4-1.69l.19-47.16a2.34,2.34,0,0,1,2.36-2.34l47.16.18A2.35,2.35,0,0,1,1240,578.83Z" transform="translate(-664.08 -452.69)" fill="#7fefd5"/><path d="M1192,520.67c3.7,8.39,7.79,19.24,17,28.36,9.45,9.4,20.74,14.13,29.59,18.47l.86.87a2.36,2.36,0,0,1-1.68,4l-47.17-.19a2.34,2.34,0,0,1-2.34-2.36l.19-47.17A2.35,2.35,0,0,1,1192,520.67Z" transform="translate(-664.08 -452.69)" fill="#7fefd5"/><rect x="1008.99" y="539.77" width="66" height="66" rx="3.72" transform="translate(50.68 -1023.04) rotate(45.23)" fill="#65dbbc"/><path d="M1036.92,625.79c-3.7-8.4-7.79-19.24-17-28.36-9.45-9.4-20.74-14.13-29.58-18.47l-.87-.87a2.35,2.35,0,0,1,1.68-4l47.17.19a2.34,2.34,0,0,1,2.34,2.36l-.19,47.16A2.35,2.35,0,0,1,1036.92,625.79Z" transform="translate(-664.08 -452.69)" fill="#7fefd5"/><path d="M989.23,567.44c8.4-3.7,19.25-7.79,28.36-17,9.4-9.45,14.13-20.74,18.47-29.59l.87-.86a2.35,2.35,0,0,1,4,1.68l-.19,47.17a2.34,2.34,0,0,1-2.36,2.34L991.23,571A2.35,2.35,0,0,1,989.23,567.44Z" transform="translate(-664.08 -452.69)" fill="#7fefd5"/><path d="M1095,577.83c-8.4,3.71-19.25,7.8-28.36,16.95-9.4,9.46-14.13,20.75-18.47,29.59l-.87.87a2.36,2.36,0,0,1-4-1.69l.19-47.16a2.34,2.34,0,0,1,2.36-2.34l47.16.18A2.35,2.35,0,0,1,1095,577.83Z" transform="translate(-664.08 -452.69)" fill="#7fefd5"/><path d="M1047,519.67c3.7,8.39,7.79,19.24,17,28.36,9.45,9.4,20.74,14.13,29.59,18.47l.86.87a2.36,2.36,0,0,1-1.68,4l-47.17-.19a2.34,2.34,0,0,1-2.34-2.36l.19-47.17A2.35,2.35,0,0,1,1047,519.67Z" transform="translate(-664.08 -452.69)" fill="#7fefd5"/><line x1="58.06" y1="101.42" x2="58.06" y2="78.69" fill="none" stroke="#f55656" stroke-linecap="round" stroke-miterlimit="10" stroke-width="6.82"/><line x1="358.06" y1="132.17" x2="358.06" y2="109.44" fill="none" stroke="#2ed265" stroke-linecap="round" stroke-miterlimit="10" stroke-width="6.82"/><rect x="723.14" y="538.46" width="66" height="66" rx="3.72" transform="translate(-34.78 -820.5) rotate(45.23)" fill="#65dbbc"/><path d="M751.07,624.48c-3.71-8.39-7.79-19.24-17-28.36-9.45-9.4-20.74-14.12-29.59-18.47l-.86-.87a2.35,2.35,0,0,1,1.68-4l47.16.19a2.35,2.35,0,0,1,2.35,2.36l-.19,47.17A2.35,2.35,0,0,1,751.07,624.48Z" transform="translate(-664.08 -452.69)" fill="#7fefd5"/><path d="M703.38,566.14c8.39-3.71,19.24-7.8,28.36-16.95,9.4-9.46,14.12-20.75,18.47-29.59l.87-.87a2.36,2.36,0,0,1,4,1.69l-.19,47.16a2.34,2.34,0,0,1-2.36,2.34l-47.17-.18A2.35,2.35,0,0,1,703.38,566.14Z" transform="translate(-664.08 -452.69)" fill="#7fefd5"/><path d="M809.16,576.53c-8.39,3.7-19.24,7.79-28.35,17-9.4,9.45-14.13,20.74-18.47,29.59l-.88.86a2.35,2.35,0,0,1-4-1.68l.19-47.17a2.36,2.36,0,0,1,2.37-2.34l47.16.19A2.35,2.35,0,0,1,809.16,576.53Z" transform="translate(-664.08 -452.69)" fill="#7fefd5"/><path d="M761.13,518.36c3.71,8.4,7.8,19.25,17,28.36,9.46,9.4,20.75,14.13,29.59,18.47l.87.87a2.36,2.36,0,0,1-1.69,4l-47.16-.18a2.36,2.36,0,0,1-2.34-2.37l.18-47.16A2.35,2.35,0,0,1,761.13,518.36Z" transform="translate(-664.08 -452.69)" fill="#7fefd5"/><rect x="864.99" y="538.77" width="66" height="66" rx="3.72" transform="translate(7.39 -921.11) rotate(45.23)" fill="#65dbbc"/><path d="M892.92,624.79c-3.7-8.4-7.79-19.24-16.95-28.36-9.45-9.4-20.74-14.13-29.58-18.47l-.87-.87a2.35,2.35,0,0,1,1.68-4l47.17.19a2.34,2.34,0,0,1,2.34,2.36l-.19,47.16A2.35,2.35,0,0,1,892.92,624.79Z" transform="translate(-664.08 -452.69)" fill="#7fefd5"/><path d="M845.23,566.44c8.4-3.7,19.25-7.79,28.36-17,9.4-9.45,14.13-20.74,18.47-29.59l.87-.86a2.35,2.35,0,0,1,4,1.68l-.19,47.17a2.34,2.34,0,0,1-2.36,2.34L847.23,570A2.35,2.35,0,0,1,845.23,566.44Z" transform="translate(-664.08 -452.69)" fill="#7fefd5"/><path d="M951,576.83c-8.4,3.71-19.25,7.8-28.36,16.95-9.4,9.46-14.13,20.75-18.47,29.59l-.87.87a2.36,2.36,0,0,1-4-1.69l.19-47.16a2.34,2.34,0,0,1,2.36-2.34l47.16.18A2.35,2.35,0,0,1,951,576.83Z" transform="translate(-664.08 -452.69)" fill="#7fefd5"/><path d="M903,518.67c3.7,8.39,7.79,19.24,17,28.36,9.45,9.4,20.74,14.13,29.59,18.47l.86.87a2.36,2.36,0,0,1-1.68,4l-47.17-.19a2.34,2.34,0,0,1-2.34-2.36l.19-47.17A2.35,2.35,0,0,1,903,518.67Z" transform="translate(-664.08 -452.69)" fill="#7fefd5"/><line x1="148.09" y1="159.61" x2="148.09" y2="136.88" fill="none" stroke="#f55656" stroke-linecap="round" stroke-miterlimit="10" stroke-width="6.82"/><line x1="118.06" y1="154.17" x2="118.06" y2="131.44" fill="none" stroke="#f55656" stroke-linecap="round" stroke-miterlimit="10" stroke-width="6.82"/><line x1="88.11" y1="129.76" x2="88.11" y2="107.03" fill="none" stroke="#f55656" stroke-linecap="round" stroke-miterlimit="10" stroke-width="6.82"/><line x1="180.16" y1="115.17" x2="180.16" y2="92.44" fill="none" stroke="#38a0f5" stroke-linecap="round" stroke-miterlimit="10" stroke-width="6.82"/><line x1="298.06" y1="123.17" x2="298.06" y2="100.44" fill="none" stroke="#38a0f5" stroke-linecap="round" stroke-miterlimit="10" stroke-width="6.82"/><line x1="268.06" y1="155.17" x2="268.06" y2="132.44" fill="none" stroke="#38a0f5" stroke-linecap="round" stroke-miterlimit="10" stroke-width="6.82"/><line x1="238.06" y1="161.17" x2="238.06" y2="138.44" fill="none" stroke="#38a0f5" stroke-linecap="round" stroke-miterlimit="10" stroke-width="6.82"/><line x1="208.06" y1="130.17" x2="208.06" y2="107.44" fill="none" stroke="#38a0f5" stroke-linecap="round" stroke-miterlimit="10" stroke-width="6.82"/><line x1="478.06" y1="115.17" x2="478.06" y2="92.44" fill="none" stroke="#2ed265" stroke-linecap="round" stroke-miterlimit="10" stroke-width="6.82"/><line x1="448.06" y1="118.17" x2="448.06" y2="95.44" fill="none" stroke="#2ed265" stroke-linecap="round" stroke-miterlimit="10" stroke-width="6.82"/><line x1="418.06" y1="153.17" x2="418.06" y2="130.44" fill="none" stroke="#2ed265" stroke-linecap="round" stroke-miterlimit="10" stroke-width="6.82"/><line x1="388.06" y1="163.17" x2="388.06" y2="140.44" fill="none" stroke="#2ed265" stroke-linecap="round" stroke-miterlimit="10" stroke-width="6.82"/><line x1="328.06" y1="114.17" x2="328.06" y2="91.44" fill="none" stroke="#2ed265" stroke-linecap="round" stroke-miterlimit="10" stroke-width="6.82"/><line x1="537.97" y1="169.62" x2="537.97" y2="146.89" fill="none" stroke="#f2a13f" stroke-linecap="round" stroke-miterlimit="10" stroke-width="6.82"/><line x1="508.06" y1="139.17" x2="508.06" y2="116.44" fill="none" stroke="#f2a13f" stroke-linecap="round" stroke-miterlimit="10" stroke-width="6.82"/><path d="M1225.34,611c-25.66,0-60.47-67.29-86.16-67.29-29.78,0-29.52,67.29-59,67.29h-.32c-25.66,0-60.47-67.29-86.16-67.29-29.78,0-29.52,67.29-59,67.29" transform="translate(-664.08 -452.69)" fill="none" stroke="#34e08f" stroke-linecap="round" stroke-miterlimit="10" stroke-width="9.09"/><path d="M701.68,544c25.65,0,60.46,67.29,86.15,67.29,29.78,0,29.53-67.29,59-67.29h.31c25.66,0,60.47,67.29,86.16,67.29,29.78,0,29.52-67.29,59-67.29" transform="translate(-664.08 -452.69)" fill="none" stroke="#34e08f" stroke-linecap="round" stroke-miterlimit="10" stroke-width="9.09"/><path d="M706.17,603.86h.17a4.78,4.78,0,0,1,2.18.54,5.52,5.52,0,0,1,.68.43c.11.08.28.23.53.45a5.28,5.28,0,0,1,.54.66c.1.15.19.29.27.43l-1.7.84a3.65,3.65,0,0,0-.37-.51,3,3,0,0,0-2.23-1,2.93,2.93,0,0,0-2.12.77,2,2,0,0,0-.38.53,1.94,1.94,0,0,0-.24.92V608a1.25,1.25,0,0,0,.5,1.05,3.87,3.87,0,0,0,.43.28,8.05,8.05,0,0,0,1.51.56c.49.14,1.09.29,1.78.44a5.74,5.74,0,0,1,1,.35,4.46,4.46,0,0,1,.79.5,4.84,4.84,0,0,1,.64.64,3.85,3.85,0,0,1,.77,2.32v0a4.21,4.21,0,0,1-.75,2.38,4,4,0,0,1-1.21,1.14,3.94,3.94,0,0,1-.68.35,5.36,5.36,0,0,1-2.12.43,5.22,5.22,0,0,1-3.09-1c-.17-.13-.35-.29-.53-.45a7,7,0,0,1-.55-.61,5.75,5.75,0,0,1-.47-.72,4.39,4.39,0,0,1-.19-.4l1.71-.79a3.5,3.5,0,0,0,.43.72,2.73,2.73,0,0,0,.39.44,3.87,3.87,0,0,0,.61.47,3.41,3.41,0,0,0,1.66.44h.07a3.51,3.51,0,0,0,1.66-.43,3.8,3.8,0,0,0,.45-.34,2.14,2.14,0,0,0,.39-.47,2.38,2.38,0,0,0,.33-1.19,1.9,1.9,0,0,0-.84-1.61,2.69,2.69,0,0,0-.44-.23,4.47,4.47,0,0,0-1.06-.29,14.16,14.16,0,0,1-3-1,3.3,3.3,0,0,1-2.07-3.11,4,4,0,0,1,1.53-3.13,4.62,4.62,0,0,1,.71-.46,4.43,4.43,0,0,1,.8-.32A5.34,5.34,0,0,1,706.17,603.86Z" transform="translate(-664.08 -452.69)" fill="#65dbbc"/><path d="M717.18,603.86h.16a4.85,4.85,0,0,1,2.19.54,5.41,5.41,0,0,1,.67.43,6.84,6.84,0,0,1,.53.45,4.7,4.7,0,0,1,.55.66c.1.15.18.29.26.43l-1.7.84a2.48,2.48,0,0,0-.37-.51,3,3,0,0,0-2.23-1,2.9,2.9,0,0,0-2.11.77,2.08,2.08,0,0,0-.39.53,2.05,2.05,0,0,0-.23.92V608a1.25,1.25,0,0,0,.5,1.05,3.13,3.13,0,0,0,.43.28,8.18,8.18,0,0,0,1.5.56c.5.14,1.09.29,1.79.44a5.74,5.74,0,0,1,1,.35,4.85,4.85,0,0,1,.79.5,4.22,4.22,0,0,1,.63.64,3.78,3.78,0,0,1,.77,2.32v0a4.21,4.21,0,0,1-.75,2.38,3.85,3.85,0,0,1-.46.55,4.67,4.67,0,0,1-.74.59,4.83,4.83,0,0,1-.68.35,5.39,5.39,0,0,1-2.12.43,5.27,5.27,0,0,1-3.1-1c-.17-.13-.34-.29-.53-.45a5.32,5.32,0,0,1-.54-.61,5.75,5.75,0,0,1-.47-.72c-.12-.22-.18-.36-.2-.4l1.71-.79a4.7,4.7,0,0,0,.43.72,4.26,4.26,0,0,0,.39.44,3.86,3.86,0,0,0,.62.47,3.41,3.41,0,0,0,1.66.44h.07a3.51,3.51,0,0,0,1.66-.43,3.8,3.8,0,0,0,.45-.34,2.92,2.92,0,0,0,.39-.47,2.38,2.38,0,0,0,.33-1.19,1.9,1.9,0,0,0-.84-1.61,2.69,2.69,0,0,0-.44-.23,4.58,4.58,0,0,0-1.07-.29,14,14,0,0,1-3-1,3.3,3.3,0,0,1-2.07-3.11,4,4,0,0,1,.9-2.52,4.5,4.5,0,0,1,.63-.61,5.14,5.14,0,0,1,.7-.46,4.75,4.75,0,0,1,.8-.32A5.41,5.41,0,0,1,717.18,603.86Z" transform="translate(-664.08 -452.69)" fill="#65dbbc"/><path d="M724.33,604h4.73a4.56,4.56,0,0,1,3.62,1.53,3.31,3.31,0,0,1,.73,2.15v.21a3.63,3.63,0,0,1-1.25,2.77v0a3.45,3.45,0,0,1,.78.62,3.38,3.38,0,0,1,.93,2.33v.7a3.9,3.9,0,0,1-3,3.75,5.6,5.6,0,0,1-1.75.22h-4.84l0,0V604.06Zm1.85,7.8v4.6h3.25a2.49,2.49,0,0,0,2.37-1.23,2.4,2.4,0,0,0,.19-1v-.35a1.74,1.74,0,0,0-1.31-1.74,3.77,3.77,0,0,0-1.55-.28h-2.92Zm0-5.93v4h2.72a2.61,2.61,0,0,0,2.44-1.22,1.6,1.6,0,0,0,.16-.68v-.44c0-.71-.5-1.23-1.5-1.55a4.4,4.4,0,0,0-1.24-.14Z" transform="translate(-664.08 -452.69)" fill="#65dbbc"/></svg>