<svg id="Prizes_hardware" xmlns="http://www.w3.org/2000/svg" width="51.825" height="53.267" viewBox="0 0 51.825 53.267" class="h-7 w-7 mr-2"><g id="Layer_1" transform="translate(0 0)"><g id="Group_919" data-name="Group 919"><path id="Path_1699" data-name="Path 1699" d="M43.426,32.1A4.954,4.954,0,0,0,38.5,37.026V71.48a4.954,4.954,0,0,0,4.926,4.926H77.88a4.954,4.954,0,0,0,4.926-4.926V37.026A4.954,4.954,0,0,0,77.88,32.1Zm0,2.934H77.88A1.93,1.93,0,0,1,79.845,37V70.746l-6.812-7.205a1.556,1.556,0,0,0-1.074-.472h-7.1a5.424,5.424,0,1,0,0,2.987H71.33l6.943,7.362a1.983,1.983,0,0,1-.393.026H43.426a1.93,1.93,0,0,1-1.965-1.965V37.733l6.812,7.205a1.556,1.556,0,0,0,1.074.472h7.1a5.424,5.424,0,1,0,0-2.987H50l-6.943-7.336A1.769,1.769,0,0,1,43.426,35.034Zm18.236,6.419A2.463,2.463,0,1,1,59.2,43.917,2.427,2.427,0,0,1,61.661,41.454Zm-13.31,7.362a5.424,5.424,0,1,0,5.188,6.917h14.2a5.424,5.424,0,1,0,0-2.987H53.565A5.462,5.462,0,0,0,48.351,48.816Zm0,2.961a2.463,2.463,0,1,1-2.463,2.463A2.46,2.46,0,0,1,48.351,51.777Zm24.629,0a2.463,2.463,0,1,1-2.463,2.463A2.427,2.427,0,0,1,72.98,51.777ZM59.67,62.126a2.463,2.463,0,1,1-2.463,2.463A2.427,2.427,0,0,1,59.67,62.126Z" transform="translate(-38.5 -32.1)" fill="#676767"></path><ellipse id="Ellipse_698" data-name="Ellipse 698" cx="5.686" cy="5.686" rx="5.686" ry="5.686" transform="translate(17.555 6.183)" fill="#95c897"></ellipse><ellipse id="Ellipse_699" data-name="Ellipse 699" cx="5.686" cy="5.686" rx="5.686" ry="5.686" transform="translate(15.537 26.83)" fill="#036635"></ellipse><ellipse id="Ellipse_700" data-name="Ellipse 700" cx="5.686" cy="5.686" rx="5.686" ry="5.686" transform="translate(4.166 16.402)" fill="#0b996b"></ellipse></g></g><g id="Layer_2_1_" transform="translate(36.917 36.078)"><g id="Group_920" data-name="Group 920"><rect id="Rectangle_3621" data-name="Rectangle 3621" width="11.843" height="11.607" transform="translate(1.389 1.415)" fill="#fff"></rect><path id="Path_1700" data-name="Path 1700" d="M186.841,186.988a7.481,7.481,0,0,0,7.467-7.467V169.8H179.4v9.72A7.475,7.475,0,0,0,186.841,186.988Zm-4.585-11.135,2.017-.6a2.3,2.3,0,0,0,1-.734l1.179-1.729a.419.419,0,0,1,.734,0l1.179,1.729a2.3,2.3,0,0,0,1,.734l2.017.6a.428.428,0,0,1,.236.707l-1.284,1.651a2.118,2.118,0,0,0-.393,1.179l.052,2.1a.419.419,0,0,1-.6.445l-1.991-.707a2.451,2.451,0,0,0-1.231,0l-1.991.707a.431.431,0,0,1-.6-.445l.052-2.1a1.934,1.934,0,0,0-.393-1.179l-1.284-1.651A.464.464,0,0,1,182.256,175.852Z" transform="translate(-179.4 -169.8)" fill="#14bed4"></path></g></g></svg>