<?xml version="1.0" standalone="no"?>
<!DOCTYPE svg PUBLIC "-//W3C//DTD SVG 20010904//EN"
 "http://www.w3.org/TR/2001/REC-SVG-20010904/DTD/svg10.dtd">
<svg version="1.0" xmlns="http://www.w3.org/2000/svg"
 width="4230.000000pt" height="4230.000000pt" viewBox="0 0 4230.000000 4230.000000"
 preserveAspectRatio="xMidYMid meet">
<metadata>
Created by potrace 1.14, written by Peter Selinger 2001-2017
</metadata>
<g transform="translate(0.000000,4230.000000) scale(0.100000,-0.100000)"
fill="#000000" stroke="none">
<path d="M18425 42293 c-225 -20 -441 -98 -614 -220 -139 -99 -283 -268 -364
-428 -36 -71 -90 -222 -101 -286 -29 -154 -32 -297 -9 -436 7 -48 33 -146 57
-218 66 -198 94 -286 122 -390 2 -5 5 -19 7 -30 3 -11 13 -49 22 -85 9 -36 19
-76 21 -90 3 -14 7 -31 10 -39 2 -8 7 -30 10 -50 3 -20 9 -52 14 -71 5 -19 11
-51 14 -70 6 -36 10 -61 26 -145 5 -27 11 -71 15 -96 3 -25 8 -57 10 -70 2
-13 7 -46 10 -74 3 -27 7 -68 10 -90 4 -37 8 -72 20 -207 9 -98 15 -192 20
-318 l6 -125 -28 -16 c-43 -25 -836 -536 -848 -547 -6 -5 -16 -11 -21 -13 -11
-4 -281 -178 -299 -192 -10 -8 -264 -171 -385 -247 -36 -23 -98 -62 -137 -88
-40 -26 -150 -96 -244 -157 -94 -60 -203 -131 -242 -157 -40 -26 -88 -57 -107
-68 -19 -11 -46 -28 -60 -38 -14 -9 -41 -26 -59 -37 -18 -11 -46 -30 -61 -42
-15 -13 -30 -23 -33 -23 -4 0 -361 -228 -617 -394 -103 -67 -654 -422 -772
-497 -40 -26 -237 -152 -438 -282 -201 -130 -430 -277 -510 -328 -136 -87
-289 -186 -440 -284 -36 -23 -90 -58 -120 -77 -30 -19 -93 -60 -140 -90 -484
-313 -641 -414 -664 -428 -14 -8 -109 -69 -211 -135 -301 -195 -327 -212 -400
-258 -38 -24 -140 -90 -225 -146 -85 -56 -162 -105 -170 -109 -8 -4 -49 -29
-90 -56 -41 -27 -113 -74 -160 -104 -47 -30 -114 -74 -150 -97 -36 -23 -155
-100 -265 -170 -110 -71 -257 -166 -328 -212 -70 -46 -130 -83 -133 -83 -2 0
-10 -5 -17 -11 -7 -5 -70 -48 -142 -94 -295 -190 -334 -215 -415 -267 -47 -30
-121 -78 -165 -106 -44 -28 -174 -112 -290 -186 -115 -74 -215 -138 -221 -143
-5 -4 -19 -13 -30 -19 -10 -6 -212 -136 -449 -289 -828 -534 -915 -590 -970
-625 -30 -19 -139 -89 -241 -155 -102 -66 -193 -124 -202 -130 -9 -5 -39 -25
-67 -43 -48 -31 -50 -32 -65 -13 -90 113 -232 308 -290 396 -40 61 -81 122
-91 137 -10 15 -19 30 -19 33 0 3 -15 30 -34 59 -52 81 -199 385 -254 526 -99
249 -188 568 -217 775 -3 17 -7 41 -10 55 -14 70 -29 194 -40 340 -11 152 -17
197 -35 276 -100 433 -442 777 -875 880 -112 27 -343 37 -445 20 -23 -4 -35
-6 -100 -20 -250 -55 -508 -224 -668 -439 -162 -218 -237 -443 -236 -707 0
-82 12 -289 19 -333 2 -12 6 -49 10 -82 15 -140 50 -382 66 -453 5 -23 12 -59
15 -80 3 -20 9 -53 14 -72 5 -19 12 -51 15 -70 8 -46 69 -287 95 -375 12 -38
23 -78 25 -87 9 -40 79 -249 126 -375 173 -464 408 -917 702 -1357 62 -94 332
-459 358 -486 8 -8 30 -35 49 -60 19 -25 37 -47 40 -50 3 -3 18 -21 34 -40 61
-75 211 -243 306 -344 119 -126 320 -322 406 -396 291 -252 524 -427 845 -633
233 -150 678 -376 994 -504 215 -88 660 -240 753 -258 11 -2 50 -12 88 -23
227 -65 693 -162 954 -197 25 -3 56 -8 70 -10 14 -2 50 -7 80 -10 30 -4 62 -9
71 -10 8 -2 48 -6 88 -10 40 -3 81 -8 92 -10 11 -2 55 -7 99 -10 45 -3 94 -8
111 -10 17 -2 76 -7 132 -10 56 -4 122 -8 147 -11 279 -23 1161 -23 1475 1 28
2 109 6 180 10 72 4 142 8 157 10 15 2 73 6 130 10 57 3 114 8 128 10 14 2 63
7 110 10 47 4 96 8 110 10 14 2 59 7 100 10 41 3 86 8 100 10 23 3 56 7 180
21 68 8 107 12 200 24 47 6 103 13 125 16 22 2 51 7 65 9 14 2 50 7 80 10 30
4 96 13 145 20 50 8 110 17 135 20 25 3 70 10 100 15 30 5 75 12 100 15 25 3
142 22 260 41 118 19 229 37 245 40 44 7 229 40 395 70 47 9 96 18 110 20 35
6 180 33 210 39 14 3 39 8 55 11 17 3 109 20 205 39 96 19 191 37 210 40 19 3
42 8 50 10 8 2 28 6 44 9 28 5 104 20 156 32 14 3 39 7 55 10 17 3 46 9 65 15
19 5 38 9 42 9 10 0 5 -17 -47 -180 -90 -281 -331 -1053 -347 -1110 -5 -19
-29 -98 -53 -175 -52 -166 -195 -634 -200 -655 -4 -15 -118 -393 -176 -585
-17 -55 -39 -129 -48 -165 -10 -36 -43 -150 -73 -255 -31 -104 -58 -199 -61
-210 -3 -11 -16 -58 -30 -105 -26 -89 -106 -374 -112 -400 -2 -8 -23 -82 -45
-165 -23 -82 -44 -157 -46 -165 -2 -8 -8 -31 -13 -50 -5 -19 -26 -98 -46 -175
-19 -77 -42 -162 -50 -190 -12 -43 -71 -273 -80 -315 -2 -8 -17 -69 -34 -135
-46 -182 -123 -504 -136 -569 -3 -10 -13 -57 -24 -105 -32 -137 -99 -443 -104
-476 -3 -16 -8 -37 -11 -45 -3 -8 -7 -28 -10 -45 -2 -16 -9 -50 -15 -75 -5
-25 -12 -58 -15 -75 -3 -16 -8 -41 -11 -55 -16 -83 -35 -178 -39 -200 -3 -14
-7 -35 -10 -46 -2 -12 -7 -38 -10 -58 -3 -21 -13 -70 -21 -109 -12 -61 -45
-248 -61 -352 -3 -16 -7 -37 -9 -45 -2 -8 -6 -35 -9 -60 -3 -25 -8 -54 -10
-65 -2 -11 -7 -40 -10 -65 -3 -25 -8 -54 -10 -66 -2 -12 -7 -45 -11 -74 -4
-29 -8 -61 -10 -70 -2 -9 -6 -41 -10 -70 -4 -29 -8 -60 -10 -69 -1 -9 -6 -45
-10 -81 -4 -36 -8 -72 -10 -80 -2 -8 -6 -44 -10 -80 -3 -36 -8 -76 -10 -90 -5
-36 -16 -137 -30 -275 -3 -33 -8 -78 -10 -100 -2 -22 -7 -76 -10 -120 -3 -44
-8 -91 -10 -105 -7 -47 -18 -231 -31 -510 -14 -301 -7 -1081 11 -1191 2 -13 7
-69 11 -124 10 -145 11 -155 18 -210 3 -27 9 -77 12 -110 3 -33 8 -67 9 -76 2
-9 6 -40 10 -70 3 -30 10 -79 15 -109 6 -30 13 -75 16 -100 8 -66 83 -440 95
-476 5 -17 12 -41 14 -54 2 -13 14 -59 26 -104 11 -45 22 -88 24 -96 17 -86
148 -473 218 -645 53 -132 152 -351 186 -415 4 -8 34 -64 66 -125 32 -60 66
-121 75 -135 9 -14 20 -32 23 -40 4 -8 16 -28 27 -45 11 -16 27 -43 36 -60 16
-29 197 -297 215 -319 5 -6 44 -56 86 -111 256 -335 624 -695 998 -974 61 -46
117 -88 126 -95 66 -53 370 -244 534 -336 454 -255 1004 -471 1555 -610 130
-33 146 -37 195 -46 17 -3 55 -11 85 -19 63 -16 311 -64 415 -80 57 -9 173
-27 195 -30 14 -2 43 -6 65 -9 22 -3 58 -8 80 -10 22 -3 58 -7 80 -10 22 -3
65 -8 95 -11 30 -3 71 -8 90 -10 61 -8 243 -20 440 -30 69 -3 161 -8 205 -10
101 -6 766 -6 900 0 269 10 458 20 600 30 44 4 105 8 135 10 161 12 282 23
353 30 82 9 140 14 212 21 39 3 82 8 97 10 15 2 49 6 75 9 64 6 132 14 223 25
41 5 98 12 125 15 28 3 61 7 75 10 14 2 84 11 155 20 72 9 141 18 155 20 14 2
45 6 70 10 75 11 93 14 140 20 25 3 56 8 70 10 14 2 45 7 70 10 25 3 52 8 60
10 8 2 40 7 70 10 30 3 62 8 70 10 8 2 35 7 60 10 65 9 85 12 190 29 52 9 112
18 134 22 21 3 48 7 59 10 19 3 72 12 122 19 11 2 40 6 64 10 42 8 43 7 32
-14 -7 -11 -10 -21 -7 -21 2 0 0 -17 -5 -37 -6 -21 -12 -51 -15 -68 -3 -16
-12 -55 -19 -85 -8 -30 -16 -66 -19 -80 -9 -52 -67 -316 -76 -350 -5 -19 -11
-48 -14 -65 -3 -16 -26 -124 -50 -240 -25 -115 -47 -221 -50 -235 -11 -55 -48
-236 -51 -252 -20 -94 -139 -704 -160 -818 -8 -41 -28 -151 -45 -245 -17 -93
-33 -181 -35 -195 -1 -14 -10 -63 -19 -110 -28 -151 -55 -304 -60 -340 -2 -19
-9 -62 -15 -95 -6 -33 -13 -73 -15 -90 -5 -27 -30 -175 -41 -235 -2 -14 -6
-45 -9 -70 -3 -25 -14 -99 -25 -165 -11 -66 -23 -140 -26 -165 -3 -25 -9 -61
-11 -80 -3 -19 -11 -75 -19 -125 -8 -49 -16 -112 -19 -140 -4 -27 -8 -59 -10
-70 -3 -18 -11 -73 -22 -150 -2 -16 -6 -52 -9 -80 -3 -27 -8 -61 -10 -75 -10
-63 -60 -480 -71 -590 -3 -36 -7 -78 -9 -95 -2 -16 -6 -64 -10 -105 -3 -41 -8
-95 -10 -120 -2 -25 -7 -81 -10 -125 -3 -44 -8 -111 -11 -150 -2 -38 -7 -108
-9 -155 -3 -47 -7 -130 -10 -185 -6 -122 -12 -237 -20 -420 -7 -141 -8 -180
-21 -670 -15 -555 -9 -1910 11 -2400 12 -315 18 -438 30 -630 3 -49 8 -119 10
-155 3 -62 9 -130 20 -265 3 -33 8 -82 10 -110 4 -50 11 -115 21 -190 29 -236
143 -477 306 -652 40 -43 76 -79 80 -81 3 -2 19 -14 35 -28 82 -73 273 -177
383 -210 14 -4 30 -9 35 -11 36 -11 148 -34 190 -38 60 -7 260 -7 295 0 14 3
51 10 83 16 85 15 241 72 323 117 377 207 614 600 617 1022 1 66 -10 218 -18
260 -2 9 -6 58 -10 110 -4 52 -9 109 -10 125 -7 81 -23 349 -30 490 -20 441
-24 627 -31 1226 l-6 547 91 58 c49 33 157 102 238 154 81 52 183 119 227 148
43 28 80 52 82 52 2 0 202 128 459 295 28 17 178 114 335 215 157 101 321 207
365 235 44 28 184 118 310 200 127 81 268 173 315 203 124 80 161 104 415 267
127 81 276 178 332 214 56 36 155 100 220 141 64 41 159 102 210 135 50 33
150 97 220 142 70 45 205 132 298 192 150 97 288 185 360 231 13 8 89 58 170
110 155 101 176 114 307 198 94 59 251 161 524 337 102 66 193 125 202 130 9
6 37 24 62 40 25 16 53 34 62 40 10 5 63 39 118 75 157 101 427 276 515 332
44 29 136 88 205 133 221 143 340 220 365 235 14 8 235 150 490 315 256 165
522 336 591 380 179 115 849 546 979 630 61 39 157 102 215 139 58 37 155 100
216 139 210 135 339 219 420 270 122 79 229 148 329 213 50 32 97 62 105 66 8
5 47 29 87 55 40 27 139 91 220 143 81 52 150 98 151 102 2 4 8 8 12 8 5 0 55
30 111 66 l103 67 23 -29 c44 -55 171 -239 251 -364 184 -289 345 -605 512
-1005 68 -164 191 -525 251 -733 31 -108 96 -357 102 -389 2 -10 7 -29 10 -43
31 -124 100 -474 122 -614 4 -21 9 -48 11 -60 2 -11 7 -37 9 -56 3 -19 10 -66
16 -105 6 -38 12 -81 14 -95 2 -14 6 -43 9 -65 3 -22 8 -60 11 -85 3 -25 7
-61 10 -80 6 -47 13 -113 20 -185 3 -33 8 -76 10 -95 3 -19 7 -71 11 -115 3
-44 7 -100 9 -124 2 -24 7 -94 10 -155 4 -61 8 -136 11 -166 16 -225 22 -793
14 -1425 -1 -115 1 -221 4 -235 3 -13 8 -42 11 -63 4 -22 10 -50 15 -63 5 -13
7 -24 5 -24 -3 0 7 -33 21 -72 138 -386 437 -664 820 -763 462 -120 953 50
1240 429 45 60 134 212 134 229 0 7 4 17 9 23 10 10 58 155 65 194 2 14 7 36
10 50 40 165 40 1425 1 1950 -3 36 -7 106 -10 155 -3 50 -7 113 -10 140 -2 28
-7 86 -10 130 -3 44 -8 94 -10 110 -2 17 -7 66 -11 110 -3 44 -7 87 -9 95 -2
8 -6 44 -10 80 -3 36 -8 76 -10 90 -2 14 -7 50 -10 80 -3 30 -9 69 -11 85 -3
17 -7 46 -9 65 -2 19 -6 51 -9 70 -12 72 -16 96 -22 140 -7 51 -74 439 -89
510 -3 14 -12 59 -20 100 -8 41 -22 107 -30 145 -8 39 -17 79 -19 90 -13 63
-47 209 -51 215 -2 3 -6 17 -8 31 -9 45 -39 164 -69 269 -17 58 -32 112 -33
120 -2 8 -13 47 -25 85 -12 39 -30 99 -40 135 -45 152 -224 657 -265 745 -7
17 -35 82 -60 145 -105 258 -280 617 -446 912 -98 175 -268 451 -281 456 -4 2
-8 8 -8 13 0 36 -466 655 -609 809 -20 22 -58 65 -86 97 -27 32 -142 151 -255
264 -176 177 -250 246 -435 408 -16 15 -91 75 -165 135 -74 59 -142 113 -151
120 -33 27 -327 234 -394 277 -228 149 -486 298 -720 416 -143 72 -210 104
-417 197 -114 51 -391 157 -550 211 -148 49 -507 158 -561 169 -12 3 -94 23
-182 45 -155 40 -414 96 -485 107 -19 3 -42 7 -50 9 -8 3 -33 7 -55 10 -22 4
-56 10 -75 15 -19 5 -57 11 -85 15 -27 3 -61 8 -75 10 -65 11 -241 35 -290 40
-30 3 -62 8 -70 10 -13 3 -72 9 -205 20 -59 5 -191 17 -225 20 -43 4 -208 14
-315 20 -473 26 -1181 26 -1605 0 -41 -2 -124 -7 -185 -10 -60 -4 -130 -8
-155 -10 -25 -2 -79 -6 -120 -10 -41 -3 -100 -8 -130 -10 -30 -2 -89 -7 -130
-10 -41 -3 -93 -8 -115 -10 -22 -2 -71 -7 -110 -10 -38 -4 -83 -8 -100 -10
-16 -2 -59 -6 -95 -10 -233 -23 -351 -36 -660 -75 -91 -12 -176 -23 -190 -25
-14 -2 -50 -7 -80 -10 -30 -4 -62 -9 -70 -10 -8 -1 -40 -6 -70 -10 -30 -4 -62
-8 -70 -10 -16 -3 -93 -14 -150 -21 -19 -3 -46 -7 -60 -9 -44 -8 -86 -15 -121
-19 -19 -3 -63 -9 -99 -15 -36 -6 -83 -13 -105 -16 -22 -4 -51 -8 -65 -11 -14
-2 -41 -7 -60 -10 -19 -3 -46 -7 -60 -10 -14 -2 -41 -6 -60 -9 -20 -3 -74 -11
-120 -19 -46 -8 -85 -14 -87 -13 -2 3 10 48 43 162 8 28 66 239 129 470 63
231 130 479 150 550 20 72 49 177 65 235 15 58 37 141 49 185 12 44 31 112 41
150 11 39 29 104 40 145 11 41 22 82 24 90 25 99 38 149 46 170 5 14 12 36 14
50 3 14 13 52 22 85 9 33 18 67 20 75 2 8 26 101 54 205 28 105 53 197 55 205
2 8 22 87 45 175 23 88 43 167 45 175 2 8 10 40 18 70 21 72 175 682 181 712
2 13 15 68 30 123 14 55 34 138 45 185 11 47 30 123 41 170 12 47 23 96 26
110 3 14 18 81 35 150 42 180 184 817 209 940 12 58 23 114 26 125 12 61 25
124 29 146 7 35 13 67 25 124 6 28 12 61 15 75 3 14 11 59 20 100 8 41 16 86
19 100 4 23 32 175 42 225 5 25 22 120 28 160 3 17 16 95 30 175 14 80 27 163
31 185 3 23 7 50 9 60 2 11 7 43 11 70 3 28 15 106 25 175 11 69 22 148 25
175 4 28 13 95 20 150 8 55 17 125 20 155 3 30 8 66 10 80 2 14 7 52 10 85 7
68 15 138 20 175 2 14 7 61 11 105 3 44 8 87 9 96 2 9 6 56 10 105 3 49 8 100
10 114 4 27 11 118 20 245 3 44 7 112 10 150 23 353 23 1063 0 1435 -11 176
-33 450 -40 490 -2 14 -7 52 -10 85 -6 57 -11 99 -21 156 -2 15 -6 47 -9 70
-19 151 -97 539 -146 729 -17 63 -32 122 -34 130 -62 244 -180 592 -287 845
-67 159 -220 471 -272 558 -19 31 -32 57 -29 57 3 0 -1 7 -8 16 -7 9 -18 24
-24 34 -47 84 -89 150 -184 291 -125 187 -104 159 -259 354 -156 195 -194 238
-392 436 -214 214 -378 358 -565 495 -22 16 -49 37 -59 47 -11 9 -23 17 -27
17 -4 0 -14 6 -21 13 -22 23 -217 150 -353 232 -149 90 -464 252 -610 314 -55
24 -113 49 -130 56 -254 110 -669 241 -1015 320 -91 21 -530 104 -586 111 -12
1 -37 5 -55 8 -19 2 -72 10 -119 16 -47 6 -98 12 -115 15 -16 2 -59 7 -95 10
-36 3 -78 8 -95 10 -27 4 -64 7 -245 20 -340 25 -1203 25 -1495 0 -22 -2 -87
-6 -145 -10 -58 -4 -123 -8 -145 -10 -22 -1 -80 -6 -130 -9 -49 -4 -106 -9
-125 -11 -19 -3 -69 -7 -110 -10 -41 -3 -82 -7 -90 -10 -8 -2 -50 -7 -93 -10
-43 -4 -86 -8 -95 -10 -9 -1 -48 -6 -85 -10 -37 -3 -77 -8 -88 -10 -11 -2 -48
-7 -82 -10 -34 -3 -73 -8 -87 -10 -14 -2 -45 -7 -70 -10 -25 -3 -56 -8 -70
-10 -14 -3 -50 -7 -80 -10 -30 -3 -80 -10 -110 -15 -30 -5 -76 -12 -101 -15
-26 -3 -57 -8 -70 -10 -13 -3 -41 -7 -64 -10 -22 -3 -65 -10 -95 -15 -30 -5
-77 -12 -105 -16 -27 -3 -59 -8 -70 -10 -24 -5 -35 -7 -195 -33 -69 -12 -136
-23 -150 -26 -14 -2 -79 -13 -145 -25 -66 -11 -127 -22 -135 -25 -8 -2 -33 -6
-55 -10 -22 -3 -55 -8 -73 -11 -25 -5 -31 -3 -27 7 6 18 113 390 130 454 8 28
45 163 84 301 39 139 72 262 75 275 3 13 18 71 34 129 43 155 83 303 87 320 2
8 8 35 15 60 7 25 13 52 15 60 2 8 23 92 48 185 38 145 68 263 83 324 2 9 11
45 19 81 9 36 18 72 20 80 2 8 24 103 49 210 26 107 55 233 66 280 11 47 29
123 39 170 32 137 134 615 155 725 109 570 170 912 191 1060 3 22 8 51 10 65
3 14 7 43 10 65 3 22 8 51 10 65 3 14 7 43 10 65 3 22 8 51 10 65 3 14 7 45
10 70 3 25 8 62 10 83 3 20 7 56 10 80 3 23 10 74 15 112 5 39 12 93 15 120 7
62 15 130 21 174 2 18 7 63 10 100 3 36 7 77 9 91 2 14 7 61 11 105 4 44 8 91
9 105 1 14 6 63 9 110 4 47 9 105 11 130 3 25 7 85 11 135 3 49 8 110 10 135
11 155 19 493 18 795 -1 395 -7 557 -30 860 -3 44 -7 109 -10 145 -2 36 -6 81
-9 100 -2 19 -6 65 -10 101 -3 36 -7 78 -9 95 -2 16 -7 58 -11 94 -4 36 -9 74
-11 85 -2 11 -7 40 -10 65 -3 25 -7 56 -9 70 -7 41 -25 153 -29 180 -3 14 -7
41 -10 60 -5 30 -57 281 -72 345 -2 11 -6 31 -9 45 -14 74 -106 412 -155 568
-108 345 -142 428 -235 567 -206 310 -562 506 -940 518 -44 1 -93 1 -110 0z
m-1225 -7908 c0 -6 -59 -265 -91 -400 -10 -44 -37 -152 -59 -240 -22 -88 -43
-171 -46 -185 -13 -58 -147 -575 -181 -695 -14 -49 -27 -99 -29 -110 -2 -11
-17 -67 -33 -125 -17 -58 -60 -213 -96 -345 -36 -132 -75 -269 -85 -305 -26
-87 -134 -460 -170 -585 -16 -55 -54 -183 -85 -285 -31 -102 -58 -192 -60
-200 -9 -40 -128 -427 -135 -439 -4 -8 -14 -15 -21 -17 -8 -1 -112 -22 -231
-48 -120 -25 -225 -48 -235 -49 -10 -2 -29 -7 -43 -10 -25 -7 -492 -104 -540
-113 -14 -3 -122 -25 -242 -49 -119 -24 -227 -46 -240 -49 -51 -9 -315 -62
-358 -71 -42 -9 -63 -12 -114 -19 -27 -4 -52 -9 -56 -11 -3 -2 -44 -10 -90
-19 -47 -8 -98 -18 -115 -21 -77 -15 -202 -37 -220 -40 -11 -1 -87 -15 -170
-29 -82 -15 -166 -29 -185 -32 -29 -4 -253 -41 -361 -59 -14 -3 -41 -7 -60 -9
-19 -3 -47 -7 -64 -10 -33 -5 -106 -16 -145 -21 -14 -2 -45 -6 -70 -10 -52 -8
-67 -10 -175 -25 -44 -6 -93 -13 -110 -15 -72 -9 -132 -17 -155 -21 -14 -2
-56 -6 -93 -9 -37 -4 -78 -8 -90 -11 -12 -2 -51 -7 -87 -10 -36 -3 -76 -7 -90
-9 -23 -4 -63 -8 -210 -20 -30 -3 -77 -7 -105 -10 -64 -6 -144 -12 -270 -20
-55 -4 -118 -8 -140 -10 -171 -16 -859 -25 -1158 -14 -127 4 -136 -9 88 134
204 131 553 355 827 533 125 81 235 152 245 157 10 6 50 32 90 57 39 26 111
73 160 104 48 31 117 76 153 99 36 23 124 79 195 125 244 157 280 180 292 190
7 5 16 10 21 10 5 0 17 9 27 20 10 11 22 20 26 20 4 0 84 50 176 110 92 61
184 119 203 130 19 11 107 67 195 125 88 57 196 127 240 155 90 57 200 128
745 480 209 135 388 250 397 255 18 11 76 48 218 140 68 44 293 189 580 373
39 25 106 68 150 97 89 58 252 163 730 470 85 55 218 141 295 190 77 50 181
117 232 150 51 33 284 183 518 333 234 151 434 279 445 286 10 6 25 17 33 24
14 12 32 16 32 7z m5695 -5359 c22 -2 83 -7 135 -10 52 -4 111 -9 130 -11 19
-2 62 -7 95 -10 33 -3 70 -8 81 -10 12 -2 48 -6 80 -10 33 -4 70 -9 84 -11 14
-3 39 -7 55 -9 72 -11 103 -16 157 -26 l57 -11 -537 -345 c-295 -190 -573
-369 -617 -398 -44 -28 -105 -68 -135 -87 -30 -20 -221 -143 -425 -273 -397
-256 -831 -535 -1145 -738 -219 -142 -341 -220 -400 -257 -39 -24 -232 -148
-480 -309 -63 -41 -144 -93 -180 -116 -157 -101 -212 -137 -327 -211 -206
-133 -322 -208 -348 -224 -28 -17 -153 -97 -320 -206 -60 -39 -168 -108 -240
-154 -71 -46 -197 -127 -280 -180 -258 -166 -645 -416 -810 -522 -299 -192
-527 -339 -686 -442 -64 -42 -119 -76 -122 -76 -4 0 -2 10 3 23 5 12 25 78 44
147 20 69 45 154 56 190 40 129 81 270 82 277 0 5 6 24 14 43 7 19 18 55 25
80 7 25 14 50 15 55 2 6 21 69 44 140 23 72 43 137 45 145 7 29 43 146 100
325 31 99 58 187 60 195 2 8 17 58 34 110 16 52 51 163 77 245 25 83 61 197
79 255 18 58 58 184 88 280 30 96 60 186 65 200 5 14 10 28 10 33 1 8 71 234
102 327 10 30 41 127 68 215 56 178 139 441 202 642 29 90 47 134 59 137 13 4
267 55 356 72 11 2 31 6 45 9 14 3 36 7 50 10 14 3 70 14 125 25 55 11 111 22
125 25 14 3 48 9 75 15 28 5 64 12 80 15 17 3 41 7 55 10 62 12 137 27 155 29
19 3 111 20 165 31 14 3 41 8 60 11 19 3 85 15 145 26 128 23 113 21 280 48
72 11 144 23 160 26 17 3 39 7 50 9 57 8 116 17 165 25 30 5 73 11 95 15 22 3
51 7 65 10 14 2 41 6 60 9 229 31 279 38 304 42 15 2 49 7 75 9 25 3 57 7 71
9 25 4 88 11 185 22 28 3 61 7 75 9 14 2 57 6 95 10 39 3 88 8 110 10 135 12
184 16 220 20 22 2 81 7 130 10 50 4 110 8 135 10 25 2 131 7 235 10 105 4
191 9 193 10 5 4 718 -4 767 -9z m3516 -2537 c20 -79 68 -288 75 -329 12 -65
24 -137 28 -155 2 -11 9 -56 16 -100 6 -44 13 -91 15 -105 11 -72 34 -308 40
-410 24 -390 24 -990 0 -1320 -1 -19 -6 -80 -10 -135 -3 -55 -8 -113 -10 -130
-1 -16 -6 -64 -9 -105 -4 -41 -9 -91 -11 -110 -11 -95 -16 -139 -20 -185 -2
-28 -6 -64 -9 -80 -2 -17 -7 -59 -11 -95 -3 -36 -8 -72 -10 -80 -2 -8 -6 -42
-10 -75 -3 -33 -8 -71 -10 -85 -2 -14 -6 -45 -10 -70 -16 -128 -6 -113 -128
-193 -62 -40 -177 -114 -257 -166 -136 -87 -271 -173 -1053 -678 -314 -202
-344 -221 -514 -330 -54 -35 -141 -91 -195 -125 -53 -35 -165 -107 -250 -161
-84 -54 -256 -165 -383 -247 -126 -82 -327 -211 -445 -286 -118 -76 -260 -167
-315 -203 -55 -36 -108 -70 -118 -76 -10 -5 -167 -107 -350 -225 -355 -229
-460 -297 -630 -406 -59 -38 -177 -114 -262 -169 -85 -55 -196 -127 -247 -159
-51 -33 -142 -92 -203 -131 -188 -121 -707 -455 -867 -558 -311 -199 -442
-284 -550 -355 -60 -39 -112 -72 -114 -72 -2 0 -26 -15 -52 -33 -26 -18 -128
-84 -227 -147 -165 -105 -287 -184 -325 -210 -8 -5 -52 -34 -98 -63 -93 -59
-984 -632 -1134 -729 -164 -106 -220 -143 -238 -153 -9 -5 -82 -53 -163 -105
-81 -52 -205 -132 -275 -177 -70 -45 -132 -87 -139 -93 -7 -5 -14 -10 -17 -10
-3 0 -65 -39 -138 -87 -73 -47 -180 -116 -238 -153 -58 -37 -228 -146 -378
-243 l-273 -177 -28 63 c-30 67 -42 96 -47 112 -2 6 -16 46 -33 90 -31 82 -97
303 -106 357 -3 17 -8 35 -11 39 -2 4 -9 29 -14 56 -12 60 -17 86 -29 143 -20
97 -31 157 -36 205 -4 28 -8 57 -10 65 -2 8 -7 42 -11 75 -3 33 -8 68 -10 78
-1 9 -6 54 -9 100 -3 45 -8 98 -10 117 -26 203 -26 945 0 1291 14 192 17 227
20 249 2 14 7 59 10 100 3 41 8 86 10 100 2 14 7 59 10 100 4 41 9 84 11 95 2
11 7 47 9 80 3 33 7 69 10 80 2 11 4 28 4 38 1 16 84 74 351 245 36 23 142 91
235 151 94 60 238 153 320 206 83 53 215 139 295 190 155 100 272 175 374 240
35 22 153 98 262 168 110 71 314 203 454 293 140 90 262 168 270 174 26 18
522 337 590 380 36 22 162 104 280 181 118 76 224 144 235 149 11 5 31 18 45
29 14 10 59 40 100 66 41 26 104 67 140 90 54 36 420 271 780 502 47 30 137
88 200 129 63 41 159 102 213 137 54 34 139 89 190 122 51 33 211 137 357 230
146 93 270 173 275 177 9 8 504 326 663 427 149 95 429 275 485 312 32 22 62
39 66 39 5 0 11 4 13 8 2 4 53 39 113 77 61 38 112 73 113 77 2 5 8 8 12 8 5
0 24 10 43 23 18 12 250 162 515 332 265 171 616 396 780 502 163 105 349 224
412 264 63 40 178 114 255 164 77 50 190 123 250 162 61 39 164 105 230 148
246 159 297 192 427 275 72 47 161 104 197 127 37 23 71 47 78 53 7 5 16 10
20 10 4 1 33 18 63 40 30 21 59 35 63 30 5 -4 17 -41 28 -81z m-1007 -8426
c-8 -26 -16 -57 -19 -68 -2 -11 -38 -146 -80 -300 -42 -154 -92 -338 -111
-410 -19 -71 -39 -144 -45 -161 -5 -17 -11 -40 -13 -50 -2 -10 -27 -104 -56
-207 -29 -104 -53 -194 -54 -200 -2 -7 -8 -30 -14 -52 -7 -22 -28 -98 -48
-170 -35 -130 -48 -177 -84 -310 -10 -38 -49 -178 -85 -310 -37 -132 -80 -289
-96 -350 -17 -60 -32 -117 -34 -125 -2 -8 -18 -64 -34 -125 -43 -162 -141
-523 -155 -575 l-13 -45 -64 -12 c-35 -7 -82 -15 -104 -18 -22 -4 -58 -10 -80
-15 -22 -5 -58 -11 -80 -14 -23 -4 -52 -8 -65 -11 -14 -3 -52 -10 -85 -16 -33
-5 -71 -12 -85 -15 -70 -12 -178 -31 -230 -39 -19 -3 -42 -8 -50 -10 -8 -2
-37 -6 -65 -10 -27 -3 -57 -8 -65 -10 -8 -2 -33 -6 -55 -10 -44 -6 -71 -11
-155 -25 -87 -15 -112 -19 -155 -25 -22 -3 -62 -10 -90 -15 -27 -5 -70 -12
-95 -15 -25 -4 -101 -15 -170 -26 -69 -11 -144 -22 -166 -25 -23 -3 -52 -7
-64 -9 -12 -2 -48 -7 -79 -10 -31 -4 -63 -8 -71 -10 -8 -2 -37 -7 -65 -10 -27
-4 -61 -8 -75 -10 -14 -2 -47 -7 -75 -10 -27 -4 -61 -8 -75 -10 -14 -2 -52 -7
-85 -11 -33 -3 -68 -8 -77 -9 -9 -2 -48 -7 -85 -10 -37 -4 -75 -8 -83 -10 -8
-2 -44 -7 -80 -10 -36 -4 -76 -8 -90 -10 -14 -2 -52 -6 -85 -9 -33 -4 -85 -9
-115 -12 -30 -3 -73 -7 -95 -9 -88 -9 -154 -15 -235 -20 -47 -3 -103 -7 -125
-10 -22 -2 -83 -7 -135 -10 -52 -3 -129 -7 -170 -10 -411 -24 -917 -24 -1285
0 -33 2 -84 5 -112 6 -29 1 -53 5 -53 8 0 4 87 63 193 131 105 68 248 161 317
205 106 68 236 152 335 215 84 53 386 248 520 335 88 57 187 121 220 141 33
21 119 76 190 122 166 108 224 146 420 272 88 56 183 117 210 135 81 52 204
132 460 296 132 84 275 176 317 204 43 27 124 80 180 116 57 37 172 111 256
165 84 55 160 104 169 109 10 6 39 25 65 43 26 17 50 32 53 32 3 0 27 15 53
33 26 18 135 89 242 157 107 69 230 147 272 175 81 53 343 222 531 342 61 40
164 105 227 146 63 41 165 106 225 145 61 39 256 166 435 281 179 115 328 210
332 210 3 1 0 -20 -8 -46z m6236 -4967 c91 -4 185 -9 210 -11 163 -12 228 -17
250 -20 14 -2 59 -6 100 -10 90 -7 443 -52 520 -65 30 -6 74 -13 98 -16 107
-15 109 -11 -54 -117 -171 -110 -269 -174 -439 -282 -66 -42 -185 -119 -265
-171 -80 -51 -181 -117 -225 -144 -44 -28 -152 -98 -240 -155 -157 -102 -265
-171 -657 -423 -109 -70 -400 -257 -648 -417 -247 -159 -618 -398 -823 -530
-205 -132 -510 -328 -677 -436 -490 -315 -1099 -707 -1177 -758 -40 -25 -144
-92 -230 -148 -87 -56 -212 -136 -278 -179 -287 -184 -377 -242 -487 -313 -65
-42 -166 -107 -225 -145 -240 -154 -280 -180 -328 -211 -27 -18 -173 -112
-323 -209 l-273 -175 6 42 c3 23 8 49 10 57 3 8 7 35 10 60 3 25 7 56 10 70 6
30 14 75 21 115 4 26 11 64 29 167 2 13 9 52 15 88 5 36 12 75 14 86 2 12 7
37 10 55 3 19 8 46 11 62 8 42 14 75 31 172 21 121 103 556 109 575 2 8 6 31
9 50 3 19 15 82 27 140 11 58 23 116 25 130 4 25 46 228 105 510 38 182 89
418 135 625 19 88 37 169 39 180 1 11 8 38 13 60 6 22 13 51 16 65 4 24 60
268 111 485 13 55 27 116 31 135 4 19 8 37 9 40 17 60 75 301 81 334 9 52 32
96 51 97 20 1 44 4 118 19 28 5 65 12 83 15 77 12 98 16 112 20 8 3 31 7 50 9
40 5 102 16 134 22 44 9 202 36 231 40 17 2 41 6 55 9 14 3 39 7 55 10 17 3
44 7 60 10 17 3 46 8 65 11 19 2 58 9 85 14 28 5 70 12 95 15 25 3 86 13 135
21 104 17 125 21 180 29 23 3 50 7 60 9 11 2 45 7 75 11 30 4 64 9 75 11 11 3
38 7 60 10 22 2 51 7 65 9 14 2 61 9 106 15 44 6 91 13 104 15 13 2 48 7 78
10 30 3 57 7 61 9 3 2 37 7 74 11 37 3 77 8 87 10 16 3 67 9 320 40 19 2 58 6
85 10 28 3 68 7 90 10 22 3 65 7 95 10 30 3 71 8 90 10 19 3 64 7 100 10 36 3
81 7 100 10 19 2 69 7 110 10 41 3 95 8 120 10 25 2 83 7 130 11 47 3 101 7
120 9 19 2 87 6 150 10 63 3 144 8 180 10 36 2 144 7 240 10 96 4 176 7 177 8
5 5 692 -1 833 -7z"/>
<path d="M3530 39802 c-146 -9 -326 -59 -464 -130 -344 -176 -589 -525 -630
-897 -6 -58 -13 -146 -21 -260 -3 -44 -7 -102 -10 -130 -2 -27 -7 -90 -10
-140 -3 -49 -8 -108 -10 -130 -2 -22 -7 -83 -10 -135 -4 -52 -8 -115 -10 -140
-1 -25 -6 -90 -9 -145 -4 -55 -9 -122 -11 -150 -2 -27 -7 -104 -11 -170 -16
-296 -10 -413 31 -568 14 -50 27 -100 29 -110 13 -48 116 -238 164 -301 170
-224 392 -370 671 -443 108 -28 328 -39 436 -22 323 51 602 218 788 471 31 42
57 79 57 82 0 3 13 27 29 53 57 98 121 294 135 413 3 25 8 68 11 95 3 28 7
140 10 250 3 110 7 218 9 240 2 22 7 83 11 135 3 52 8 118 10 145 2 28 7 88
10 135 5 83 13 189 21 280 15 178 19 265 18 410 0 146 -3 177 -27 269 -115
437 -441 760 -871 861 -111 27 -242 39 -346 32z"/>
<path d="M38260 2946 c-3 -2 -27 -7 -54 -10 -27 -4 -52 -9 -56 -11 -4 -2 -17
-6 -31 -9 -13 -3 -35 -7 -49 -10 -37 -8 -179 -66 -230 -94 -102 -56 -190 -122
-270 -202 -99 -99 -164 -187 -220 -298 -37 -73 -104 -252 -95 -252 3 0 0 -12
-6 -26 -14 -38 -23 -110 -34 -259 -3 -44 -8 -107 -11 -140 -13 -171 -13 -373
2 -455 61 -340 261 -632 554 -807 139 -83 255 -126 435 -159 87 -16 279 -11
395 10 152 28 380 128 470 206 13 11 26 20 29 20 11 0 147 134 193 190 50 61
121 176 160 261 56 120 90 265 103 449 4 47 8 101 10 120 24 218 21 465 -5
535 -4 11 -8 23 -8 28 -3 47 -48 180 -93 269 -81 163 -243 347 -392 447 -118
79 -304 159 -412 177 -16 2 -55 9 -85 14 -56 9 -292 14 -300 6z"/>
</g>
</svg>
