<?xml version="1.0" encoding="utf-8"?>
<!-- Generator: Adobe Illustrator 24.0.2, SVG Export Plug-In . SVG Version: 6.00 Build 0)  -->
<svg version="1.1" id="Layer_1" xmlns="http://www.w3.org/2000/svg" xmlns:xlink="http://www.w3.org/1999/xlink" x="0px" y="0px"
	 viewBox="0 0 1133.9 286.2" style="enable-background:new 0 0 1133.9 286.2;" xml:space="preserve">
<style type="text/css">
	.st0{fill:none;}
	.st1{fill:#2ED265;}
	.st2{fill:#F2A13F;}
	.st3{fill:#34E08F;}
	.st4{fill:#38A0F5;}
	.st5{fill:none;stroke:#000000;stroke-width:5;stroke-linecap:round;stroke-miterlimit:10;}
</style>
<g>
	<rect x="199.9" y="2.8" class="st0" width="934" height="40.5"/>
	<path class="st1" d="M211.1,34.6c-0.2,0.9-0.6,1.6-1.1,1.9c-0.5,0.4-1.3,0.6-2.3,0.6h-1.2c-0.2,0-0.3-0.1-0.4-0.2s-0.1-0.3-0.1-0.4
		c0-0.2,0-0.4,0.1-0.6c0.1-0.2,0.2-0.6,0.3-1l6.3-20.7c0.4-1.2,0.7-2.2,1-3c0.3-0.8,0.6-1.5,0.9-2c0.3-0.5,0.5-0.9,0.8-1.2
		c0.2-0.3,0.5-0.6,0.7-0.8c0.5-0.4,1.2-0.8,2-1c0.9-0.2,2-0.4,3.4-0.4c1.4,0,2.5,0.1,3.2,0.3c0.8,0.2,1.4,0.5,1.9,0.9
		c0.2,0.2,0.4,0.4,0.7,0.8c0.2,0.3,0.5,0.7,0.7,1.3c0.3,0.5,0.5,1.2,0.8,2c0.3,0.8,0.6,1.8,0.9,2.9l6.1,21.3
		c0.1,0.4,0.2,0.7,0.2,0.8c0,0.2,0,0.3,0,0.5c0,0.3-0.2,0.5-0.6,0.5h-1.6c-1,0-1.7-0.2-2.1-0.6c-0.5-0.4-0.8-1-1.1-2l-2.1-7.1
		c-0.2-0.5-0.4-0.9-0.7-1.1c-0.3-0.2-0.8-0.3-1.7-0.3h-10.6c-0.8,0-1.3,0.1-1.6,0.3c-0.3,0.2-0.6,0.7-0.8,1.4L211.1,34.6z
		 M226.8,21.3c0-0.2-0.1-0.5-0.2-0.9c-0.1-0.4-0.2-0.9-0.4-1.5l-1.2-4.2c-0.4-1.4-0.7-2.4-1-3c-0.3-0.6-0.5-1-0.8-1.3
		c-0.2-0.2-0.5-0.3-0.9-0.4c-0.3-0.1-0.8-0.1-1.3-0.1c-0.6,0-1,0.1-1.3,0.2c-0.3,0.1-0.6,0.2-0.9,0.4c-0.2,0.1-0.3,0.3-0.4,0.5
		c-0.1,0.2-0.3,0.4-0.5,0.8c-0.2,0.3-0.3,0.7-0.5,1.2c-0.2,0.5-0.4,1.1-0.6,1.9l-1.2,4.2c-0.2,0.5-0.3,1-0.4,1.4
		c-0.1,0.4-0.1,0.7-0.1,0.9c0,0.4,0.1,0.6,0.3,0.8c0.2,0.2,0.7,0.2,1.4,0.2h8.5c0.6,0,1.1-0.1,1.2-0.3
		C226.7,21.8,226.8,21.6,226.8,21.3z"/>
	<path class="st1" d="M243.7,34.6c-0.2,0.9-0.6,1.6-1.1,1.9c-0.5,0.4-1.3,0.6-2.3,0.6H239c-0.2,0-0.3-0.1-0.4-0.2s-0.1-0.3-0.1-0.4
		c0-0.2,0-0.4,0.1-0.6c0.1-0.2,0.2-0.6,0.3-1l6.3-20.7c0.4-1.2,0.7-2.2,1-3c0.3-0.8,0.6-1.5,0.9-2c0.3-0.5,0.5-0.9,0.8-1.2
		c0.2-0.3,0.5-0.6,0.7-0.8c0.5-0.4,1.2-0.8,2-1c0.9-0.2,2-0.4,3.4-0.4c1.4,0,2.5,0.1,3.2,0.3c0.8,0.2,1.4,0.5,1.9,0.9
		c0.2,0.2,0.4,0.4,0.7,0.8c0.2,0.3,0.5,0.7,0.7,1.3c0.3,0.5,0.5,1.2,0.8,2c0.3,0.8,0.6,1.8,0.9,2.9l6.1,21.3
		c0.1,0.4,0.2,0.7,0.2,0.8c0,0.2,0,0.3,0,0.5c0,0.3-0.2,0.5-0.6,0.5h-1.6c-1,0-1.7-0.2-2.1-0.6c-0.5-0.4-0.8-1-1.1-2l-2.1-7.1
		c-0.2-0.5-0.4-0.9-0.7-1.1c-0.3-0.2-0.8-0.3-1.7-0.3h-10.6c-0.8,0-1.3,0.1-1.6,0.3c-0.3,0.2-0.6,0.7-0.8,1.4L243.7,34.6z
		 M259.4,21.3c0-0.2-0.1-0.5-0.2-0.9c-0.1-0.4-0.2-0.9-0.4-1.5l-1.2-4.2c-0.4-1.4-0.7-2.4-1-3c-0.3-0.6-0.5-1-0.8-1.3
		c-0.2-0.2-0.5-0.3-0.9-0.4c-0.3-0.1-0.8-0.1-1.3-0.1c-0.6,0-1,0.1-1.3,0.2c-0.3,0.1-0.6,0.2-0.9,0.4c-0.2,0.1-0.3,0.3-0.4,0.5
		c-0.1,0.2-0.3,0.4-0.5,0.8c-0.2,0.3-0.3,0.7-0.5,1.2c-0.2,0.5-0.4,1.1-0.6,1.9l-1.2,4.2c-0.2,0.5-0.3,1-0.4,1.4
		c-0.1,0.4-0.1,0.7-0.1,0.9c0,0.4,0.1,0.6,0.3,0.8c0.2,0.2,0.7,0.2,1.4,0.2h8.5c0.6,0,1.1-0.1,1.2-0.3
		C259.3,21.8,259.4,21.6,259.4,21.3z"/>
	<path class="st1" d="M276.2,34.6c-0.2,0.9-0.6,1.6-1.1,1.9c-0.5,0.4-1.3,0.6-2.3,0.6h-1.2c-0.2,0-0.3-0.1-0.4-0.2s-0.1-0.3-0.1-0.4
		c0-0.2,0-0.4,0.1-0.6c0.1-0.2,0.2-0.6,0.3-1l6.3-20.7c0.4-1.2,0.7-2.2,1-3c0.3-0.8,0.6-1.5,0.9-2c0.3-0.5,0.5-0.9,0.8-1.2
		c0.2-0.3,0.5-0.6,0.7-0.8c0.5-0.4,1.2-0.8,2-1c0.9-0.2,2-0.4,3.4-0.4c1.4,0,2.5,0.1,3.2,0.3c0.8,0.2,1.4,0.5,1.9,0.9
		c0.2,0.2,0.4,0.4,0.7,0.8c0.2,0.3,0.5,0.7,0.7,1.3c0.3,0.5,0.5,1.2,0.8,2c0.3,0.8,0.6,1.8,0.9,2.9l6.1,21.3
		c0.1,0.4,0.2,0.7,0.2,0.8c0,0.2,0,0.3,0,0.5c0,0.3-0.2,0.5-0.6,0.5h-1.6c-1,0-1.7-0.2-2.1-0.6c-0.5-0.4-0.8-1-1.1-2l-2.1-7.1
		c-0.2-0.5-0.4-0.9-0.7-1.1c-0.3-0.2-0.8-0.3-1.7-0.3h-10.6c-0.8,0-1.3,0.1-1.6,0.3c-0.3,0.2-0.6,0.7-0.8,1.4L276.2,34.6z
		 M291.9,21.3c0-0.2-0.1-0.5-0.2-0.9c-0.1-0.4-0.2-0.9-0.4-1.5l-1.2-4.2c-0.4-1.4-0.7-2.4-1-3c-0.3-0.6-0.5-1-0.8-1.3
		c-0.2-0.2-0.5-0.3-0.9-0.4c-0.3-0.1-0.8-0.1-1.3-0.1c-0.6,0-1,0.1-1.3,0.2c-0.3,0.1-0.6,0.2-0.9,0.4c-0.2,0.1-0.3,0.3-0.4,0.5
		c-0.1,0.2-0.3,0.4-0.5,0.8c-0.2,0.3-0.3,0.7-0.5,1.2c-0.2,0.5-0.4,1.1-0.6,1.9l-1.2,4.2c-0.2,0.5-0.3,1-0.4,1.4
		c-0.1,0.4-0.1,0.7-0.1,0.9c0,0.4,0.1,0.6,0.3,0.8c0.2,0.2,0.7,0.2,1.4,0.2h8.5c0.6,0,1.1-0.1,1.2-0.3
		C291.8,21.8,291.9,21.6,291.9,21.3z"/>
	<path class="st1" d="M315.8,36.2c0,0.6-0.3,0.9-0.8,0.9h-3.3c-0.4,0-0.6-0.2-0.6-0.6v-24c0-0.6,0-1.1-0.1-1.4
		c0-0.4-0.2-0.6-0.3-0.8c-0.2-0.2-0.5-0.3-0.8-0.4c-0.4-0.1-0.9-0.1-1.5-0.1h-8.1c-0.3,0-0.5-0.1-0.5-0.4c0-0.6,0.1-1.1,0.3-1.8
		c0.2-0.6,0.5-1,0.7-1.2c0.2-0.2,0.6-0.3,0.9-0.3c0.4,0,0.9-0.1,1.5-0.1h23.2c0.2,0,0.4,0,0.5,0.1c0.1,0.1,0.1,0.2,0.1,0.4
		c0,0.6-0.1,1.2-0.3,1.8c-0.2,0.6-0.4,1-0.7,1.1c-0.2,0.2-0.4,0.2-0.7,0.3c-0.3,0-0.7,0-1.2,0h-6c-0.6,0-1,0-1.3,0.1
		c-0.3,0.1-0.6,0.2-0.8,0.4c-0.2,0.2-0.3,0.5-0.4,0.9c-0.1,0.4-0.1,0.9-0.1,1.5V36.2z"/>
	<path class="st1" d="M344.7,36.2c0,0.6-0.3,0.9-0.8,0.9h-3.3c-0.4,0-0.6-0.2-0.6-0.6v-24c0-0.6,0-1.1-0.1-1.4
		c0-0.4-0.2-0.6-0.3-0.8c-0.2-0.2-0.5-0.3-0.8-0.4c-0.4-0.1-0.9-0.1-1.5-0.1h-8.1c-0.3,0-0.5-0.1-0.5-0.4c0-0.6,0.1-1.1,0.3-1.8
		c0.2-0.6,0.5-1,0.7-1.2c0.2-0.2,0.6-0.3,0.9-0.3c0.4,0,0.9-0.1,1.5-0.1h23.2c0.2,0,0.4,0,0.5,0.1c0.1,0.1,0.1,0.2,0.1,0.4
		c0,0.6-0.1,1.2-0.3,1.8c-0.2,0.6-0.4,1-0.7,1.1c-0.2,0.2-0.4,0.2-0.7,0.3c-0.3,0-0.7,0-1.2,0h-6c-0.6,0-1,0-1.3,0.1
		c-0.3,0.1-0.6,0.2-0.8,0.4c-0.2,0.2-0.3,0.5-0.4,0.9c-0.1,0.4-0.1,0.9-0.1,1.5V36.2z"/>
	<path class="st1" d="M373.7,36.2c0,0.6-0.3,0.9-0.8,0.9h-3.3c-0.4,0-0.6-0.2-0.6-0.6v-24c0-0.6,0-1.1-0.1-1.4
		c0-0.4-0.2-0.6-0.3-0.8c-0.2-0.2-0.5-0.3-0.8-0.4c-0.4-0.1-0.9-0.1-1.5-0.1h-8.1c-0.3,0-0.5-0.1-0.5-0.4c0-0.6,0.1-1.1,0.3-1.8
		c0.2-0.6,0.5-1,0.7-1.2c0.2-0.2,0.6-0.3,0.9-0.3c0.4,0,0.9-0.1,1.5-0.1h23.2c0.2,0,0.4,0,0.5,0.1c0.1,0.1,0.1,0.2,0.1,0.4
		c0,0.6-0.1,1.2-0.3,1.8c-0.2,0.6-0.4,1-0.7,1.1c-0.2,0.2-0.4,0.2-0.7,0.3c-0.3,0-0.7,0-1.2,0h-6c-0.6,0-1,0-1.3,0.1
		c-0.3,0.1-0.6,0.2-0.8,0.4c-0.2,0.2-0.3,0.5-0.4,0.9c-0.1,0.4-0.1,0.9-0.1,1.5V36.2z"/>
	<path class="st1" d="M402.6,36.2c0,0.6-0.3,0.9-0.8,0.9h-3.3c-0.4,0-0.6-0.2-0.6-0.6v-24c0-0.6,0-1.1-0.1-1.4
		c0-0.4-0.2-0.6-0.3-0.8c-0.2-0.2-0.5-0.3-0.8-0.4c-0.4-0.1-0.9-0.1-1.5-0.1h-8.1c-0.3,0-0.5-0.1-0.5-0.4c0-0.6,0.1-1.1,0.3-1.8
		c0.2-0.6,0.5-1,0.7-1.2c0.2-0.2,0.6-0.3,0.9-0.3c0.4,0,0.9-0.1,1.5-0.1h23.2c0.2,0,0.4,0,0.5,0.1c0.1,0.1,0.1,0.2,0.1,0.4
		c0,0.6-0.1,1.2-0.3,1.8c-0.2,0.6-0.4,1-0.7,1.1c-0.2,0.2-0.4,0.2-0.7,0.3c-0.3,0-0.7,0-1.2,0h-6c-0.6,0-1,0-1.3,0.1
		c-0.3,0.1-0.6,0.2-0.8,0.4c-0.2,0.2-0.3,0.5-0.4,0.9c-0.1,0.4-0.1,0.9-0.1,1.5V36.2z"/>
	<path class="st1" d="M419.5,21.6c0,2.7,0.2,4.9,0.7,6.5c0.5,1.7,1.1,2.8,2,3.4c0.7,0.5,1.7,0.9,3,1.2c1.3,0.3,3,0.5,5.2,0.5
		c0.9,0,1.8,0,2.6-0.1c0.9-0.1,1.7-0.1,2.4-0.2c0.8-0.1,1.5-0.2,2.1-0.2c0.6-0.1,1.1-0.1,1.5-0.2c0.4-0.1,0.6,0.1,0.6,0.6
		c-0.1,0.5-0.3,1.1-0.7,1.8c-0.4,0.7-0.8,1.2-1.3,1.5c-0.5,0.3-1.5,0.5-2.9,0.7c-1.4,0.2-3.3,0.3-5.8,0.3c-2.7,0-4.9-0.3-6.6-0.8
		c-1.7-0.5-3-1.2-3.8-2c-0.5-0.4-1-1-1.5-1.7s-0.9-1.6-1.2-2.6c-0.3-1-0.6-2.3-0.8-3.7c-0.2-1.4-0.3-3-0.3-4.9
		c0-3.7,0.4-6.7,1.3-8.8s1.9-3.7,3.2-4.7c0.5-0.4,1-0.8,1.7-1.1c0.6-0.3,1.4-0.6,2.3-0.9c0.9-0.2,1.9-0.4,3-0.6
		c1.1-0.1,2.4-0.2,3.9-0.2c2,0,3.6,0.1,4.9,0.2c1.3,0.1,2.2,0.4,2.8,0.7c0.3,0.2,0.6,0.4,0.8,0.6s0.4,0.6,0.6,0.9
		c0.2,0.3,0.3,0.6,0.4,0.9c0.1,0.3,0.1,0.6,0.1,0.8c0,0.2,0,0.3-0.1,0.5c-0.1,0.1-0.3,0.2-0.5,0.2c-1-0.1-2.1-0.3-3.5-0.4
		c-1.3-0.1-3-0.2-5-0.2c-2.3,0-4,0.2-5.3,0.5c-1.2,0.3-2.2,0.8-2.9,1.4c-0.8,0.7-1.5,1.9-2,3.5C419.8,16.8,419.5,18.9,419.5,21.6z"
		/>
	<path class="st1" d="M449.2,21.6c0,2.7,0.2,4.9,0.7,6.5c0.5,1.7,1.1,2.8,2,3.4c0.7,0.5,1.7,0.9,3,1.2c1.3,0.3,3,0.5,5.2,0.5
		c0.9,0,1.8,0,2.6-0.1c0.9-0.1,1.7-0.1,2.4-0.2c0.8-0.1,1.5-0.2,2.1-0.2c0.6-0.1,1.1-0.1,1.5-0.2c0.4-0.1,0.6,0.1,0.6,0.6
		c-0.1,0.5-0.3,1.1-0.7,1.8c-0.4,0.7-0.8,1.2-1.3,1.5c-0.5,0.3-1.5,0.5-2.9,0.7c-1.4,0.2-3.3,0.3-5.8,0.3c-2.7,0-4.9-0.3-6.6-0.8
		c-1.7-0.5-3-1.2-3.8-2c-0.5-0.4-1-1-1.5-1.7s-0.9-1.6-1.2-2.6c-0.3-1-0.6-2.3-0.8-3.7c-0.2-1.4-0.3-3-0.3-4.9
		c0-3.7,0.4-6.7,1.3-8.8s1.9-3.7,3.2-4.7c0.5-0.4,1-0.8,1.7-1.1c0.6-0.3,1.4-0.6,2.3-0.9c0.9-0.2,1.9-0.4,3-0.6
		c1.1-0.1,2.4-0.2,3.9-0.2c2,0,3.6,0.1,4.9,0.2c1.3,0.1,2.2,0.4,2.8,0.7c0.3,0.2,0.6,0.4,0.8,0.6s0.4,0.6,0.6,0.9
		c0.2,0.3,0.3,0.6,0.4,0.9c0.1,0.3,0.1,0.6,0.1,0.8c0,0.2,0,0.3-0.1,0.5c-0.1,0.1-0.3,0.2-0.5,0.2c-1-0.1-2.1-0.3-3.5-0.4
		c-1.3-0.1-3-0.2-5-0.2c-2.3,0-4,0.2-5.3,0.5c-1.2,0.3-2.2,0.8-2.9,1.4c-0.8,0.7-1.5,1.9-2,3.5C449.5,16.8,449.2,18.9,449.2,21.6z"
		/>
	<path class="st1" d="M478.9,21.6c0,2.7,0.2,4.9,0.7,6.5c0.5,1.7,1.1,2.8,2,3.4c0.7,0.5,1.7,0.9,3,1.2c1.3,0.3,3,0.5,5.2,0.5
		c0.9,0,1.8,0,2.6-0.1c0.9-0.1,1.7-0.1,2.4-0.2c0.8-0.1,1.5-0.2,2.1-0.2c0.6-0.1,1.1-0.1,1.5-0.2c0.4-0.1,0.6,0.1,0.6,0.6
		c-0.1,0.5-0.3,1.1-0.7,1.8c-0.4,0.7-0.8,1.2-1.3,1.5c-0.5,0.3-1.5,0.5-2.9,0.7c-1.4,0.2-3.3,0.3-5.8,0.3c-2.7,0-4.9-0.3-6.6-0.8
		c-1.7-0.5-3-1.2-3.8-2c-0.5-0.4-1-1-1.5-1.7s-0.9-1.6-1.2-2.6c-0.3-1-0.6-2.3-0.8-3.7c-0.2-1.4-0.3-3-0.3-4.9
		c0-3.7,0.4-6.7,1.3-8.8s1.9-3.7,3.2-4.7c0.5-0.4,1-0.8,1.7-1.1c0.6-0.3,1.4-0.6,2.3-0.9c0.9-0.2,1.9-0.4,3-0.6
		c1.1-0.1,2.4-0.2,3.9-0.2c2,0,3.6,0.1,4.9,0.2c1.3,0.1,2.2,0.4,2.8,0.7c0.3,0.2,0.6,0.4,0.8,0.6s0.4,0.6,0.6,0.9
		c0.2,0.3,0.3,0.6,0.4,0.9c0.1,0.3,0.1,0.6,0.1,0.8c0,0.2,0,0.3-0.1,0.5c-0.1,0.1-0.3,0.2-0.5,0.2c-1-0.1-2.1-0.3-3.5-0.4
		c-1.3-0.1-3-0.2-5-0.2c-2.3,0-4,0.2-5.3,0.5c-1.2,0.3-2.2,0.8-2.9,1.4c-0.8,0.7-1.5,1.9-2,3.5C479.2,16.8,478.9,18.9,478.9,21.6z"
		/>
	<path class="st1" d="M508.6,21.6c0,2.7,0.2,4.9,0.7,6.5c0.5,1.7,1.1,2.8,2,3.4c0.7,0.5,1.7,0.9,3,1.2c1.3,0.3,3,0.5,5.2,0.5
		c0.9,0,1.8,0,2.6-0.1c0.9-0.1,1.7-0.1,2.4-0.2c0.8-0.1,1.5-0.2,2.1-0.2c0.6-0.1,1.1-0.1,1.5-0.2c0.4-0.1,0.6,0.1,0.6,0.6
		c-0.1,0.5-0.3,1.1-0.7,1.8c-0.4,0.7-0.8,1.2-1.3,1.5c-0.5,0.3-1.5,0.5-2.9,0.7c-1.4,0.2-3.3,0.3-5.8,0.3c-2.7,0-4.9-0.3-6.6-0.8
		c-1.7-0.5-3-1.2-3.8-2c-0.5-0.4-1-1-1.5-1.7s-0.9-1.6-1.2-2.6c-0.3-1-0.6-2.3-0.8-3.7c-0.2-1.4-0.3-3-0.3-4.9
		c0-3.7,0.4-6.7,1.3-8.8s1.9-3.7,3.2-4.7c0.5-0.4,1-0.8,1.7-1.1c0.6-0.3,1.4-0.6,2.3-0.9c0.9-0.2,1.9-0.4,3-0.6
		c1.1-0.1,2.4-0.2,3.9-0.2c2,0,3.6,0.1,4.9,0.2c1.3,0.1,2.2,0.4,2.8,0.7c0.3,0.2,0.6,0.4,0.8,0.6s0.4,0.6,0.6,0.9
		c0.2,0.3,0.3,0.6,0.4,0.9c0.1,0.3,0.1,0.6,0.1,0.8c0,0.2,0,0.3-0.1,0.5c-0.1,0.1-0.3,0.2-0.5,0.2c-1-0.1-2.1-0.3-3.5-0.4
		c-1.3-0.1-3-0.2-5-0.2c-2.3,0-4,0.2-5.3,0.5c-1.2,0.3-2.2,0.8-2.9,1.4c-0.8,0.7-1.5,1.9-2,3.5C508.9,16.8,508.6,18.9,508.6,21.6z"
		/>
	<path class="st1" d="M536.8,34.6c-0.2,0.9-0.6,1.6-1.1,1.9c-0.5,0.4-1.3,0.6-2.3,0.6h-1.2c-0.2,0-0.3-0.1-0.4-0.2s-0.1-0.3-0.1-0.4
		c0-0.2,0-0.4,0.1-0.6c0.1-0.2,0.2-0.6,0.3-1l6.3-20.7c0.4-1.2,0.7-2.2,1-3c0.3-0.8,0.6-1.5,0.9-2c0.3-0.5,0.5-0.9,0.8-1.2
		c0.2-0.3,0.5-0.6,0.7-0.8c0.5-0.4,1.2-0.8,2-1c0.9-0.2,2-0.4,3.4-0.4c1.4,0,2.5,0.1,3.2,0.3c0.8,0.2,1.4,0.5,1.9,0.9
		c0.2,0.2,0.4,0.4,0.7,0.8c0.2,0.3,0.5,0.7,0.7,1.3c0.3,0.5,0.5,1.2,0.8,2c0.3,0.8,0.6,1.8,0.9,2.9l6.1,21.3
		c0.1,0.4,0.2,0.7,0.2,0.8c0,0.2,0,0.3,0,0.5c0,0.3-0.2,0.5-0.6,0.5h-1.6c-1,0-1.7-0.2-2.1-0.6c-0.5-0.4-0.8-1-1.1-2l-2.1-7.1
		c-0.2-0.5-0.4-0.9-0.7-1.1c-0.3-0.2-0.8-0.3-1.7-0.3h-10.6c-0.8,0-1.3,0.1-1.6,0.3c-0.3,0.2-0.6,0.7-0.8,1.4L536.8,34.6z
		 M552.5,21.3c0-0.2-0.1-0.5-0.2-0.9c-0.1-0.4-0.2-0.9-0.4-1.5l-1.2-4.2c-0.4-1.4-0.7-2.4-1-3c-0.3-0.6-0.5-1-0.8-1.3
		c-0.2-0.2-0.5-0.3-0.9-0.4c-0.3-0.1-0.8-0.1-1.3-0.1c-0.6,0-1,0.1-1.3,0.2c-0.3,0.1-0.6,0.2-0.9,0.4c-0.2,0.1-0.3,0.3-0.4,0.5
		c-0.1,0.2-0.3,0.4-0.5,0.8c-0.2,0.3-0.3,0.7-0.5,1.2c-0.2,0.5-0.4,1.1-0.6,1.9l-1.2,4.2c-0.2,0.5-0.3,1-0.4,1.4
		c-0.1,0.4-0.1,0.7-0.1,0.9c0,0.4,0.1,0.6,0.3,0.8c0.2,0.2,0.7,0.2,1.4,0.2h8.5c0.6,0,1.1-0.1,1.2-0.3
		C552.4,21.8,552.5,21.6,552.5,21.3z"/>
	<path class="st1" d="M569.4,34.6c-0.2,0.9-0.6,1.6-1.1,1.9c-0.5,0.4-1.3,0.6-2.3,0.6h-1.2c-0.2,0-0.3-0.1-0.4-0.2s-0.1-0.3-0.1-0.4
		c0-0.2,0-0.4,0.1-0.6c0.1-0.2,0.2-0.6,0.3-1l6.3-20.7c0.4-1.2,0.7-2.2,1-3c0.3-0.8,0.6-1.5,0.9-2c0.3-0.5,0.5-0.9,0.8-1.2
		c0.2-0.3,0.5-0.6,0.7-0.8c0.5-0.4,1.2-0.8,2-1c0.9-0.2,2-0.4,3.4-0.4c1.4,0,2.5,0.1,3.2,0.3c0.8,0.2,1.4,0.5,1.9,0.9
		c0.2,0.2,0.4,0.4,0.7,0.8c0.2,0.3,0.5,0.7,0.7,1.3c0.3,0.5,0.5,1.2,0.8,2c0.3,0.8,0.6,1.8,0.9,2.9l6.1,21.3
		c0.1,0.4,0.2,0.7,0.2,0.8c0,0.2,0,0.3,0,0.5c0,0.3-0.2,0.5-0.6,0.5h-1.6c-1,0-1.7-0.2-2.1-0.6c-0.5-0.4-0.8-1-1.1-2l-2.1-7.1
		c-0.2-0.5-0.4-0.9-0.7-1.1c-0.3-0.2-0.8-0.3-1.7-0.3h-10.6c-0.8,0-1.3,0.1-1.6,0.3c-0.3,0.2-0.6,0.7-0.8,1.4L569.4,34.6z
		 M585.1,21.3c0-0.2-0.1-0.5-0.2-0.9c-0.1-0.4-0.2-0.9-0.4-1.5l-1.2-4.2c-0.4-1.4-0.7-2.4-1-3c-0.3-0.6-0.5-1-0.8-1.3
		c-0.2-0.2-0.5-0.3-0.9-0.4c-0.3-0.1-0.8-0.1-1.3-0.1c-0.6,0-1,0.1-1.3,0.2c-0.3,0.1-0.6,0.2-0.9,0.4c-0.2,0.1-0.3,0.3-0.4,0.5
		c-0.1,0.2-0.3,0.4-0.5,0.8c-0.2,0.3-0.3,0.7-0.5,1.2c-0.2,0.5-0.4,1.1-0.6,1.9l-1.2,4.2c-0.2,0.5-0.3,1-0.4,1.4
		c-0.1,0.4-0.1,0.7-0.1,0.9c0,0.4,0.1,0.6,0.3,0.8c0.2,0.2,0.7,0.2,1.4,0.2h8.5c0.6,0,1.1-0.1,1.2-0.3
		C585,21.8,585.1,21.6,585.1,21.3z"/>
	<path class="st1" d="M609,36.2c0,0.6-0.3,0.9-0.8,0.9h-3.3c-0.4,0-0.6-0.2-0.6-0.6v-24c0-0.6,0-1.1-0.1-1.4c0-0.4-0.2-0.6-0.3-0.8
		c-0.2-0.2-0.5-0.3-0.8-0.4c-0.4-0.1-0.9-0.1-1.5-0.1h-8.1c-0.3,0-0.5-0.1-0.5-0.4c0-0.6,0.1-1.1,0.3-1.8c0.2-0.6,0.5-1,0.7-1.2
		c0.2-0.2,0.6-0.3,0.9-0.3c0.4,0,0.9-0.1,1.5-0.1h23.2c0.2,0,0.4,0,0.5,0.1c0.1,0.1,0.1,0.2,0.1,0.4c0,0.6-0.1,1.2-0.3,1.8
		c-0.2,0.6-0.4,1-0.7,1.1c-0.2,0.2-0.4,0.2-0.7,0.3c-0.3,0-0.7,0-1.2,0h-6c-0.6,0-1,0-1.3,0.1c-0.3,0.1-0.6,0.2-0.8,0.4
		c-0.2,0.2-0.3,0.5-0.4,0.9c-0.1,0.4-0.1,0.9-0.1,1.5V36.2z"/>
	<path class="st1" d="M637.9,36.2c0,0.6-0.3,0.9-0.8,0.9h-3.3c-0.4,0-0.6-0.2-0.6-0.6v-24c0-0.6,0-1.1-0.1-1.4
		c0-0.4-0.2-0.6-0.3-0.8c-0.2-0.2-0.5-0.3-0.8-0.4c-0.4-0.1-0.9-0.1-1.5-0.1h-8.1c-0.3,0-0.5-0.1-0.5-0.4c0-0.6,0.1-1.1,0.3-1.8
		c0.2-0.6,0.5-1,0.7-1.2c0.2-0.2,0.6-0.3,0.9-0.3c0.4,0,0.9-0.1,1.5-0.1h23.2c0.2,0,0.4,0,0.5,0.1c0.1,0.1,0.1,0.2,0.1,0.4
		c0,0.6-0.1,1.2-0.3,1.8c-0.2,0.6-0.4,1-0.7,1.1c-0.2,0.2-0.4,0.2-0.7,0.3c-0.3,0-0.7,0-1.2,0h-6c-0.6,0-1,0-1.3,0.1
		c-0.3,0.1-0.6,0.2-0.8,0.4c-0.2,0.2-0.3,0.5-0.4,0.9c-0.1,0.4-0.1,0.9-0.1,1.5V36.2z"/>
	<path class="st1" d="M666.8,36.2c0,0.6-0.3,0.9-0.8,0.9h-3.3c-0.4,0-0.6-0.2-0.6-0.6v-24c0-0.6,0-1.1-0.1-1.4
		c0-0.4-0.2-0.6-0.3-0.8c-0.2-0.2-0.5-0.3-0.8-0.4c-0.4-0.1-0.9-0.1-1.5-0.1h-8.1c-0.3,0-0.5-0.1-0.5-0.4c0-0.6,0.1-1.1,0.3-1.8
		c0.2-0.6,0.5-1,0.7-1.2c0.2-0.2,0.6-0.3,0.9-0.3c0.4,0,0.9-0.1,1.5-0.1h23.2c0.2,0,0.4,0,0.5,0.1c0.1,0.1,0.1,0.2,0.1,0.4
		c0,0.6-0.1,1.2-0.3,1.8s-0.4,1-0.7,1.1c-0.2,0.2-0.4,0.2-0.7,0.3c-0.3,0-0.7,0-1.2,0h-6c-0.6,0-1,0-1.3,0.1
		c-0.3,0.1-0.6,0.2-0.8,0.4c-0.2,0.2-0.3,0.5-0.4,0.9c-0.1,0.4-0.1,0.9-0.1,1.5V36.2z"/>
	<path class="st1" d="M695.8,36.2c0,0.6-0.3,0.9-0.8,0.9h-3.3c-0.4,0-0.6-0.2-0.6-0.6v-24c0-0.6,0-1.1-0.1-1.4
		c0-0.4-0.2-0.6-0.3-0.8c-0.2-0.2-0.5-0.3-0.8-0.4c-0.4-0.1-0.9-0.1-1.5-0.1h-8c-0.3,0-0.5-0.1-0.5-0.4c0-0.6,0.1-1.1,0.3-1.8
		c0.2-0.6,0.5-1,0.7-1.2c0.2-0.2,0.6-0.3,0.9-0.3c0.4,0,0.9-0.1,1.5-0.1h23.2c0.2,0,0.4,0,0.5,0.1c0.1,0.1,0.1,0.2,0.1,0.4
		c0,0.6-0.1,1.2-0.3,1.8c-0.2,0.6-0.4,1-0.7,1.1c-0.2,0.2-0.4,0.2-0.7,0.3c-0.3,0-0.7,0-1.2,0h-6c-0.6,0-1,0-1.3,0.1
		c-0.3,0.1-0.6,0.2-0.8,0.4c-0.2,0.2-0.3,0.5-0.4,0.9c-0.1,0.4-0.1,0.9-0.1,1.5V36.2z"/>
	<path class="st1" d="M733.9,34.1c0,0.6-0.1,1-0.4,1.3c-0.3,0.3-0.7,0.6-1.3,0.8c-1.1,0.3-2.5,0.5-4.2,0.8c-1.7,0.3-3.6,0.4-5.8,0.4
		c-1.5,0-2.8-0.1-3.9-0.2c-1.1-0.1-2.1-0.3-3-0.6c-0.9-0.2-1.6-0.5-2.2-0.9c-0.6-0.3-1.2-0.7-1.6-1.1c-0.5-0.4-0.9-1-1.4-1.7
		c-0.4-0.7-0.8-1.5-1.2-2.6c-0.4-1-0.6-2.2-0.8-3.6c-0.2-1.4-0.3-3-0.3-4.8c0-2,0.1-3.7,0.4-5.2c0.3-1.5,0.6-2.8,1-3.8
		c0.4-1.1,0.9-2,1.4-2.7c0.5-0.7,1-1.3,1.5-1.7c1-0.8,2.3-1.5,4.1-2.1s4.2-0.9,7.2-0.9c2.1,0,3.9,0.1,5.2,0.2
		c1.3,0.2,2.2,0.4,2.8,0.7c0.3,0.2,0.5,0.4,0.8,0.6c0.2,0.3,0.5,0.6,0.6,0.9c0.2,0.3,0.3,0.6,0.4,1c0.1,0.3,0.2,0.6,0.2,0.9
		c0,0.2-0.1,0.4-0.2,0.5c-0.2,0.1-0.3,0.2-0.5,0.1c-1-0.2-2.3-0.3-3.8-0.5c-1.6-0.2-3.2-0.3-4.9-0.3c-2.3,0-4.2,0.2-5.6,0.5
		c-1.4,0.3-2.4,0.8-3.1,1.4c-0.8,0.7-1.4,1.9-2,3.5c-0.6,1.6-0.9,3.7-0.9,6.3c0,2.7,0.2,4.9,0.7,6.5c0.5,1.6,1.1,2.8,1.9,3.5
		c0.6,0.6,1.5,1,2.7,1.3c1.2,0.3,2.6,0.5,4.2,0.5c1.3,0,2.5-0.1,3.5-0.2c1-0.1,1.8-0.3,2.5-0.4c0.4-0.1,0.7-0.2,0.9-0.5
		c0.2-0.2,0.3-0.6,0.3-1.1v-6.1c0-0.4-0.1-0.7-0.3-0.9c-0.2-0.2-0.5-0.2-0.9-0.2h-5.8c-0.2,0-0.4,0-0.5-0.1
		c-0.1-0.1-0.2-0.2-0.2-0.5c0-0.2,0.1-0.4,0.2-0.7c0.1-0.3,0.2-0.6,0.4-0.9c0.2-0.3,0.4-0.6,0.6-0.8c0.2-0.2,0.4-0.4,0.5-0.5
		c0.2-0.2,0.5-0.2,0.9-0.3c0.3,0,0.7,0,1.3,0h6.9c0.5,0,0.9,0.1,1.2,0.3c0.3,0.2,0.5,0.6,0.5,1.3V34.1z"/>
	<path class="st1" d="M766.7,34.1c0,0.6-0.1,1-0.4,1.3c-0.3,0.3-0.7,0.6-1.3,0.8c-1.1,0.3-2.5,0.5-4.2,0.8c-1.7,0.3-3.6,0.4-5.8,0.4
		c-1.5,0-2.8-0.1-3.9-0.2c-1.1-0.1-2.1-0.3-3-0.6c-0.9-0.2-1.6-0.5-2.2-0.9c-0.6-0.3-1.2-0.7-1.6-1.1c-0.5-0.4-0.9-1-1.4-1.7
		c-0.4-0.7-0.8-1.5-1.2-2.6c-0.4-1-0.6-2.2-0.8-3.6c-0.2-1.4-0.3-3-0.3-4.8c0-2,0.1-3.7,0.4-5.2c0.3-1.5,0.6-2.8,1-3.8
		c0.4-1.1,0.9-2,1.4-2.7c0.5-0.7,1-1.3,1.5-1.7c1-0.8,2.3-1.5,4.1-2.1s4.2-0.9,7.2-0.9c2.1,0,3.9,0.1,5.2,0.2
		c1.3,0.2,2.2,0.4,2.8,0.7c0.3,0.2,0.5,0.4,0.8,0.6c0.2,0.3,0.5,0.6,0.6,0.9c0.2,0.3,0.3,0.6,0.4,1c0.1,0.3,0.2,0.6,0.2,0.9
		c0,0.2-0.1,0.4-0.2,0.5c-0.2,0.1-0.3,0.2-0.5,0.1c-1-0.2-2.3-0.3-3.8-0.5c-1.6-0.2-3.2-0.3-4.9-0.3c-2.3,0-4.2,0.2-5.6,0.5
		c-1.4,0.3-2.4,0.8-3.1,1.4c-0.8,0.7-1.4,1.9-2,3.5c-0.6,1.6-0.9,3.7-0.9,6.3c0,2.7,0.2,4.9,0.7,6.5c0.5,1.6,1.1,2.8,1.9,3.5
		c0.6,0.6,1.5,1,2.7,1.3c1.2,0.3,2.6,0.5,4.2,0.5c1.3,0,2.5-0.1,3.5-0.2c1-0.1,1.8-0.3,2.5-0.4c0.4-0.1,0.7-0.2,0.9-0.5
		c0.2-0.2,0.3-0.6,0.3-1.1v-6.1c0-0.4-0.1-0.7-0.3-0.9c-0.2-0.2-0.5-0.2-0.9-0.2h-5.8c-0.2,0-0.4,0-0.5-0.1
		c-0.1-0.1-0.2-0.2-0.2-0.5c0-0.2,0.1-0.4,0.2-0.7c0.1-0.3,0.2-0.6,0.4-0.9c0.2-0.3,0.4-0.6,0.6-0.8c0.2-0.2,0.4-0.4,0.5-0.5
		c0.2-0.2,0.5-0.2,0.9-0.3c0.3,0,0.7,0,1.3,0h6.9c0.5,0,0.9,0.1,1.2,0.3c0.3,0.2,0.5,0.6,0.5,1.3V34.1z"/>
	<path class="st1" d="M799.5,34.1c0,0.6-0.1,1-0.4,1.3c-0.3,0.3-0.7,0.6-1.3,0.8c-1.1,0.3-2.5,0.5-4.2,0.8c-1.7,0.3-3.6,0.4-5.8,0.4
		c-1.5,0-2.8-0.1-3.9-0.2c-1.1-0.1-2.1-0.3-3-0.6c-0.9-0.2-1.6-0.5-2.2-0.9c-0.6-0.3-1.2-0.7-1.6-1.1c-0.5-0.4-0.9-1-1.4-1.7
		c-0.4-0.7-0.8-1.5-1.2-2.6c-0.4-1-0.6-2.2-0.8-3.6c-0.2-1.4-0.3-3-0.3-4.8c0-2,0.1-3.7,0.4-5.2c0.3-1.5,0.6-2.8,1-3.8
		c0.4-1.1,0.9-2,1.4-2.7c0.5-0.7,1-1.3,1.5-1.7c1-0.8,2.3-1.5,4.1-2.1s4.2-0.9,7.2-0.9c2.1,0,3.9,0.1,5.2,0.2
		c1.3,0.2,2.2,0.4,2.8,0.7c0.3,0.2,0.5,0.4,0.8,0.6c0.2,0.3,0.5,0.6,0.6,0.9c0.2,0.3,0.3,0.6,0.4,1c0.1,0.3,0.2,0.6,0.2,0.9
		c0,0.2-0.1,0.4-0.2,0.5c-0.2,0.1-0.3,0.2-0.5,0.1c-1-0.2-2.3-0.3-3.8-0.5c-1.6-0.2-3.2-0.3-4.9-0.3c-2.3,0-4.2,0.2-5.6,0.5
		c-1.4,0.3-2.4,0.8-3.1,1.4c-0.8,0.7-1.4,1.9-2,3.5c-0.6,1.6-0.9,3.7-0.9,6.3c0,2.7,0.2,4.9,0.7,6.5c0.5,1.6,1.1,2.8,1.9,3.5
		c0.6,0.6,1.5,1,2.7,1.3c1.2,0.3,2.6,0.5,4.2,0.5c1.3,0,2.5-0.1,3.5-0.2c1-0.1,1.8-0.3,2.5-0.4c0.4-0.1,0.7-0.2,0.9-0.5
		c0.2-0.2,0.3-0.6,0.3-1.1v-6.1c0-0.4-0.1-0.7-0.3-0.9c-0.2-0.2-0.5-0.2-0.9-0.2h-5.8c-0.2,0-0.4,0-0.5-0.1
		c-0.1-0.1-0.2-0.2-0.2-0.5c0-0.2,0.1-0.4,0.2-0.7c0.1-0.3,0.2-0.6,0.4-0.9c0.2-0.3,0.4-0.6,0.6-0.8c0.2-0.2,0.4-0.4,0.5-0.5
		c0.2-0.2,0.5-0.2,0.9-0.3c0.3,0,0.7,0,1.3,0h6.9c0.5,0,0.9,0.1,1.2,0.3c0.3,0.2,0.5,0.6,0.5,1.3V34.1z"/>
	<path class="st1" d="M832.3,34.1c0,0.6-0.1,1-0.4,1.3c-0.3,0.3-0.7,0.6-1.3,0.8c-1.1,0.3-2.5,0.5-4.2,0.8c-1.7,0.3-3.6,0.4-5.8,0.4
		c-1.5,0-2.8-0.1-3.9-0.2c-1.1-0.1-2.1-0.3-3-0.6c-0.9-0.2-1.6-0.5-2.2-0.9c-0.6-0.3-1.2-0.7-1.6-1.1c-0.5-0.4-0.9-1-1.4-1.7
		c-0.4-0.7-0.8-1.5-1.2-2.6c-0.4-1-0.6-2.2-0.8-3.6c-0.2-1.4-0.3-3-0.3-4.8c0-2,0.1-3.7,0.4-5.2c0.3-1.5,0.6-2.8,1-3.8
		c0.4-1.1,0.9-2,1.4-2.7c0.5-0.7,1-1.3,1.5-1.7c1-0.8,2.3-1.5,4.1-2.1s4.2-0.9,7.2-0.9c2.1,0,3.9,0.1,5.2,0.2
		c1.3,0.2,2.2,0.4,2.8,0.7c0.3,0.2,0.5,0.4,0.8,0.6c0.2,0.3,0.5,0.6,0.6,0.9c0.2,0.3,0.3,0.6,0.4,1c0.1,0.3,0.2,0.6,0.2,0.9
		c0,0.2-0.1,0.4-0.2,0.5c-0.2,0.1-0.3,0.2-0.5,0.1c-1-0.2-2.3-0.3-3.8-0.5c-1.6-0.2-3.2-0.3-4.9-0.3c-2.3,0-4.2,0.2-5.6,0.5
		c-1.4,0.3-2.4,0.8-3.1,1.4c-0.8,0.7-1.4,1.9-2,3.5c-0.6,1.6-0.9,3.7-0.9,6.3c0,2.7,0.2,4.9,0.7,6.5c0.5,1.6,1.1,2.8,1.9,3.5
		c0.6,0.6,1.5,1,2.7,1.3c1.2,0.3,2.6,0.5,4.2,0.5c1.3,0,2.5-0.1,3.5-0.2c1-0.1,1.8-0.3,2.5-0.4c0.4-0.1,0.7-0.2,0.9-0.5
		c0.2-0.2,0.3-0.6,0.3-1.1v-6.1c0-0.4-0.1-0.7-0.3-0.9c-0.2-0.2-0.5-0.2-0.9-0.2h-5.8c-0.2,0-0.4,0-0.5-0.1
		c-0.1-0.1-0.2-0.2-0.2-0.5c0-0.2,0.1-0.4,0.2-0.7c0.1-0.3,0.2-0.6,0.4-0.9c0.2-0.3,0.4-0.6,0.6-0.8c0.2-0.2,0.4-0.4,0.5-0.5
		c0.2-0.2,0.5-0.2,0.9-0.3c0.3,0,0.7,0,1.3,0h6.9c0.5,0,0.9,0.1,1.2,0.3c0.3,0.2,0.5,0.6,0.5,1.3V34.1z"/>
	<path class="st1" d="M842.3,34.6c-0.2,0.9-0.6,1.6-1.1,1.9c-0.5,0.4-1.3,0.6-2.3,0.6h-1.2c-0.2,0-0.3-0.1-0.4-0.2s-0.1-0.3-0.1-0.4
		c0-0.2,0-0.4,0.1-0.6c0.1-0.2,0.2-0.6,0.3-1l6.3-20.7c0.4-1.2,0.7-2.2,1-3c0.3-0.8,0.6-1.5,0.9-2c0.3-0.5,0.5-0.9,0.8-1.2
		c0.2-0.3,0.5-0.6,0.7-0.8c0.5-0.4,1.2-0.8,2-1c0.9-0.2,2-0.4,3.4-0.4s2.5,0.1,3.2,0.3c0.8,0.2,1.4,0.5,1.9,0.9
		c0.2,0.2,0.4,0.4,0.7,0.8c0.2,0.3,0.5,0.7,0.7,1.3c0.3,0.5,0.5,1.2,0.8,2c0.3,0.8,0.6,1.8,0.9,2.9l6.1,21.3
		c0.1,0.4,0.2,0.7,0.2,0.8c0,0.2,0,0.3,0,0.5c0,0.3-0.2,0.5-0.6,0.5H865c-1,0-1.7-0.2-2.1-0.6c-0.5-0.4-0.8-1-1.1-2l-2.1-7.1
		c-0.2-0.5-0.4-0.9-0.7-1.1c-0.3-0.2-0.8-0.3-1.7-0.3h-10.6c-0.8,0-1.3,0.1-1.6,0.3c-0.3,0.2-0.6,0.7-0.8,1.4L842.3,34.6z M858,21.3
		c0-0.2-0.1-0.5-0.2-0.9c-0.1-0.4-0.2-0.9-0.4-1.5l-1.2-4.2c-0.4-1.4-0.7-2.4-1-3c-0.3-0.6-0.5-1-0.8-1.3c-0.2-0.2-0.5-0.3-0.9-0.4
		c-0.3-0.1-0.8-0.1-1.3-0.1s-1,0.1-1.3,0.2c-0.3,0.1-0.6,0.2-0.9,0.4c-0.2,0.1-0.3,0.3-0.4,0.5c-0.1,0.2-0.3,0.4-0.5,0.8
		c-0.2,0.3-0.3,0.7-0.5,1.2c-0.2,0.5-0.4,1.1-0.6,1.9l-1.2,4.2c-0.2,0.5-0.3,1-0.4,1.4c-0.1,0.4-0.1,0.7-0.1,0.9
		c0,0.4,0.1,0.6,0.3,0.8c0.2,0.2,0.7,0.2,1.4,0.2h8.5c0.6,0,1.1-0.1,1.2-0.3C857.9,21.8,858,21.6,858,21.3z"/>
	<path class="st1" d="M874.9,34.6c-0.2,0.9-0.6,1.6-1.1,1.9c-0.5,0.4-1.3,0.6-2.3,0.6h-1.2c-0.2,0-0.3-0.1-0.4-0.2s-0.1-0.3-0.1-0.4
		c0-0.2,0-0.4,0.1-0.6c0.1-0.2,0.2-0.6,0.3-1l6.3-20.7c0.4-1.2,0.7-2.2,1-3c0.3-0.8,0.6-1.5,0.9-2c0.3-0.5,0.5-0.9,0.8-1.2
		c0.2-0.3,0.5-0.6,0.7-0.8c0.5-0.4,1.2-0.8,2-1c0.9-0.2,2-0.4,3.4-0.4s2.5,0.1,3.2,0.3c0.8,0.2,1.4,0.5,1.9,0.9
		c0.2,0.2,0.4,0.4,0.7,0.8c0.2,0.3,0.5,0.7,0.7,1.3c0.3,0.5,0.5,1.2,0.8,2c0.3,0.8,0.6,1.8,0.9,2.9l6.1,21.3
		c0.1,0.4,0.2,0.7,0.2,0.8c0,0.2,0,0.3,0,0.5c0,0.3-0.2,0.5-0.6,0.5h-1.6c-1,0-1.7-0.2-2.1-0.6c-0.5-0.4-0.8-1-1.1-2l-2.1-7.1
		c-0.2-0.5-0.4-0.9-0.7-1.1c-0.3-0.2-0.8-0.3-1.7-0.3h-10.6c-0.8,0-1.3,0.1-1.6,0.3c-0.3,0.2-0.6,0.7-0.8,1.4L874.9,34.6z
		 M890.6,21.3c0-0.2-0.1-0.5-0.2-0.9c-0.1-0.4-0.2-0.9-0.4-1.5l-1.2-4.2c-0.4-1.4-0.7-2.4-1-3c-0.3-0.6-0.5-1-0.8-1.3
		c-0.2-0.2-0.5-0.3-0.9-0.4c-0.3-0.1-0.8-0.1-1.3-0.1s-1,0.1-1.3,0.2c-0.3,0.1-0.6,0.2-0.9,0.4c-0.2,0.1-0.3,0.3-0.4,0.5
		c-0.1,0.2-0.3,0.4-0.5,0.8c-0.2,0.3-0.3,0.7-0.5,1.2c-0.2,0.5-0.4,1.1-0.6,1.9l-1.2,4.2c-0.2,0.5-0.3,1-0.4,1.4
		c-0.1,0.4-0.1,0.7-0.1,0.9c0,0.4,0.1,0.6,0.3,0.8c0.2,0.2,0.7,0.2,1.4,0.2h8.5c0.6,0,1.1-0.1,1.2-0.3
		C890.5,21.8,890.6,21.6,890.6,21.3z"/>
	<path class="st1" d="M907.5,34.6c-0.2,0.9-0.6,1.6-1.1,1.9c-0.5,0.4-1.3,0.6-2.3,0.6h-1.2c-0.2,0-0.3-0.1-0.4-0.2s-0.1-0.3-0.1-0.4
		c0-0.2,0-0.4,0.1-0.6c0.1-0.2,0.2-0.6,0.3-1l6.3-20.7c0.4-1.2,0.7-2.2,1-3c0.3-0.8,0.6-1.5,0.9-2c0.3-0.5,0.5-0.9,0.8-1.2
		c0.2-0.3,0.5-0.6,0.7-0.8c0.5-0.4,1.2-0.8,2-1c0.9-0.2,2-0.4,3.4-0.4s2.5,0.1,3.2,0.3c0.8,0.2,1.4,0.5,1.9,0.9
		c0.2,0.2,0.4,0.4,0.7,0.8c0.2,0.3,0.5,0.7,0.7,1.3c0.3,0.5,0.5,1.2,0.8,2c0.3,0.8,0.6,1.8,0.9,2.9l6.1,21.3
		c0.1,0.4,0.2,0.7,0.2,0.8c0,0.2,0,0.3,0,0.5c0,0.3-0.2,0.5-0.6,0.5h-1.6c-1,0-1.7-0.2-2.1-0.6c-0.5-0.4-0.8-1-1.1-2l-2.1-7.1
		c-0.2-0.5-0.4-0.9-0.7-1.1c-0.3-0.2-0.8-0.3-1.7-0.3h-10.6c-0.8,0-1.3,0.1-1.6,0.3c-0.3,0.2-0.6,0.7-0.8,1.4L907.5,34.6z
		 M923.1,21.3c0-0.2-0.1-0.5-0.2-0.9c-0.1-0.4-0.2-0.9-0.4-1.5l-1.2-4.2c-0.4-1.4-0.7-2.4-1-3c-0.3-0.6-0.5-1-0.8-1.3
		c-0.2-0.2-0.5-0.3-0.9-0.4c-0.3-0.1-0.8-0.1-1.3-0.1s-1,0.1-1.3,0.2c-0.3,0.1-0.6,0.2-0.9,0.4c-0.2,0.1-0.3,0.3-0.4,0.5
		c-0.1,0.2-0.3,0.4-0.5,0.8c-0.2,0.3-0.3,0.7-0.5,1.2c-0.2,0.5-0.4,1.1-0.6,1.9L912,19c-0.2,0.5-0.3,1-0.4,1.4
		c-0.1,0.4-0.1,0.7-0.1,0.9c0,0.4,0.1,0.6,0.3,0.8c0.2,0.2,0.7,0.2,1.4,0.2h8.5c0.6,0,1.1-0.1,1.2-0.3
		C923,21.8,923.1,21.6,923.1,21.3z"/>
	<path class="st1" d="M940,34.6c-0.2,0.9-0.6,1.6-1.1,1.9c-0.5,0.4-1.3,0.6-2.3,0.6h-1.2c-0.2,0-0.3-0.1-0.4-0.2s-0.1-0.3-0.1-0.4
		c0-0.2,0-0.4,0.1-0.6c0.1-0.2,0.2-0.6,0.3-1l6.3-20.7c0.4-1.2,0.7-2.2,1-3c0.3-0.8,0.6-1.5,0.9-2c0.3-0.5,0.5-0.9,0.8-1.2
		c0.2-0.3,0.5-0.6,0.7-0.8c0.5-0.4,1.2-0.8,2-1c0.9-0.2,2-0.4,3.4-0.4s2.5,0.1,3.2,0.3c0.8,0.2,1.4,0.5,1.9,0.9
		c0.2,0.2,0.4,0.4,0.7,0.8c0.2,0.3,0.5,0.7,0.7,1.3c0.3,0.5,0.5,1.2,0.8,2c0.3,0.8,0.6,1.8,0.9,2.9l6.1,21.3
		c0.1,0.4,0.2,0.7,0.2,0.8c0,0.2,0,0.3,0,0.5c0,0.3-0.2,0.5-0.6,0.5h-1.6c-1,0-1.7-0.2-2.1-0.6c-0.5-0.4-0.8-1-1.1-2l-2.1-7.1
		c-0.2-0.5-0.4-0.9-0.7-1.1c-0.3-0.2-0.8-0.3-1.7-0.3h-10.6c-0.8,0-1.3,0.1-1.6,0.3c-0.3,0.2-0.6,0.7-0.8,1.4L940,34.6z M955.7,21.3
		c0-0.2-0.1-0.5-0.2-0.9c-0.1-0.4-0.2-0.9-0.4-1.5l-1.2-4.2c-0.4-1.4-0.7-2.4-1-3c-0.3-0.6-0.5-1-0.8-1.3c-0.2-0.2-0.5-0.3-0.9-0.4
		c-0.3-0.1-0.8-0.1-1.3-0.1s-1,0.1-1.3,0.2c-0.3,0.1-0.6,0.2-0.9,0.4c-0.2,0.1-0.3,0.3-0.4,0.5c-0.1,0.2-0.3,0.4-0.5,0.8
		c-0.2,0.3-0.3,0.7-0.5,1.2c-0.2,0.5-0.4,1.1-0.6,1.9l-1.2,4.2c-0.2,0.5-0.3,1-0.4,1.4c-0.1,0.4-0.1,0.7-0.1,0.9
		c0,0.4,0.1,0.6,0.3,0.8c0.2,0.2,0.7,0.2,1.4,0.2h8.5c0.6,0,1.1-0.1,1.2-0.3C955.6,21.8,955.7,21.6,955.7,21.3z"/>
	<path class="st1" d="M972.6,34.6c-0.2,0.9-0.6,1.6-1.1,1.9c-0.5,0.4-1.3,0.6-2.3,0.6h-1.2c-0.2,0-0.3-0.1-0.4-0.2s-0.1-0.3-0.1-0.4
		c0-0.2,0-0.4,0.1-0.6c0.1-0.2,0.2-0.6,0.3-1l6.3-20.7c0.4-1.2,0.7-2.2,1-3c0.3-0.8,0.6-1.5,0.9-2c0.3-0.5,0.5-0.9,0.8-1.2
		c0.2-0.3,0.5-0.6,0.7-0.8c0.5-0.4,1.2-0.8,2-1c0.9-0.2,2-0.4,3.4-0.4s2.5,0.1,3.2,0.3c0.8,0.2,1.4,0.5,1.9,0.9
		c0.2,0.2,0.4,0.4,0.7,0.8c0.2,0.3,0.5,0.7,0.7,1.3c0.3,0.5,0.5,1.2,0.8,2c0.3,0.8,0.6,1.8,0.9,2.9l6.1,21.3
		c0.1,0.4,0.2,0.7,0.2,0.8c0,0.2,0,0.3,0,0.5c0,0.3-0.2,0.5-0.6,0.5h-1.6c-1,0-1.7-0.2-2.1-0.6c-0.5-0.4-0.8-1-1.1-2l-2.1-7.1
		c-0.2-0.5-0.4-0.9-0.7-1.1c-0.3-0.2-0.8-0.3-1.7-0.3H977c-0.8,0-1.3,0.1-1.6,0.3c-0.3,0.2-0.6,0.7-0.8,1.4L972.6,34.6z M988.3,21.3
		c0-0.2-0.1-0.5-0.2-0.9c-0.1-0.4-0.2-0.9-0.4-1.5l-1.2-4.2c-0.4-1.4-0.7-2.4-1-3c-0.3-0.6-0.5-1-0.8-1.3c-0.2-0.2-0.5-0.3-0.9-0.4
		c-0.3-0.1-0.8-0.1-1.3-0.1s-1,0.1-1.3,0.2c-0.3,0.1-0.6,0.2-0.9,0.4c-0.2,0.1-0.3,0.3-0.4,0.5c-0.1,0.2-0.3,0.4-0.5,0.8
		c-0.2,0.3-0.3,0.7-0.5,1.2c-0.2,0.5-0.4,1.1-0.6,1.9l-1.2,4.2c-0.2,0.5-0.3,1-0.4,1.4c-0.1,0.4-0.1,0.7-0.1,0.9
		c0,0.4,0.1,0.6,0.3,0.8c0.2,0.2,0.7,0.2,1.4,0.2h8.5c0.6,0,1.1-0.1,1.2-0.3C988.2,21.8,988.3,21.6,988.3,21.3z"/>
	<path class="st1" d="M1005.2,34.6c-0.2,0.9-0.6,1.6-1.1,1.9c-0.5,0.4-1.3,0.6-2.3,0.6h-1.2c-0.2,0-0.3-0.1-0.4-0.2
		s-0.1-0.3-0.1-0.4c0-0.2,0-0.4,0.1-0.6c0.1-0.2,0.2-0.6,0.3-1l6.3-20.7c0.4-1.2,0.7-2.2,1-3c0.3-0.8,0.6-1.5,0.9-2
		c0.3-0.5,0.5-0.9,0.8-1.2c0.2-0.3,0.5-0.6,0.7-0.8c0.5-0.4,1.2-0.8,2-1c0.9-0.2,2-0.4,3.4-0.4s2.5,0.1,3.2,0.3
		c0.8,0.2,1.4,0.5,1.9,0.9c0.2,0.2,0.4,0.4,0.7,0.8c0.2,0.3,0.5,0.7,0.7,1.3c0.3,0.5,0.5,1.2,0.8,2c0.3,0.8,0.6,1.8,0.9,2.9
		l6.1,21.3c0.1,0.4,0.2,0.7,0.2,0.8c0,0.2,0,0.3,0,0.5c0,0.3-0.2,0.5-0.6,0.5h-1.6c-1,0-1.7-0.2-2.1-0.6c-0.5-0.4-0.8-1-1.1-2
		l-2.1-7.1c-0.2-0.5-0.4-0.9-0.7-1.1c-0.3-0.2-0.8-0.3-1.7-0.3h-10.6c-0.8,0-1.3,0.1-1.6,0.3c-0.3,0.2-0.6,0.7-0.8,1.4L1005.2,34.6z
		 M1020.8,21.3c0-0.2-0.1-0.5-0.2-0.9c-0.1-0.4-0.2-0.9-0.4-1.5l-1.2-4.2c-0.4-1.4-0.7-2.4-1-3c-0.3-0.6-0.5-1-0.8-1.3
		c-0.2-0.2-0.5-0.3-0.9-0.4c-0.3-0.1-0.8-0.1-1.3-0.1s-1,0.1-1.3,0.2c-0.3,0.1-0.6,0.2-0.9,0.4c-0.2,0.1-0.3,0.3-0.4,0.5
		c-0.1,0.2-0.3,0.4-0.5,0.8c-0.2,0.3-0.3,0.7-0.5,1.2c-0.2,0.5-0.4,1.1-0.6,1.9l-1.2,4.2c-0.2,0.5-0.3,1-0.4,1.4
		c-0.1,0.4-0.1,0.7-0.1,0.9c0,0.4,0.1,0.6,0.3,0.8c0.2,0.2,0.7,0.2,1.4,0.2h8.5c0.6,0,1.1-0.1,1.2-0.3
		C1020.7,21.8,1020.8,21.6,1020.8,21.3z"/>
	<path class="st1" d="M1037.7,34.6c-0.2,0.9-0.6,1.6-1.1,1.9c-0.5,0.4-1.3,0.6-2.3,0.6h-1.2c-0.2,0-0.3-0.1-0.4-0.2
		s-0.1-0.3-0.1-0.4c0-0.2,0-0.4,0.1-0.6c0.1-0.2,0.2-0.6,0.3-1l6.3-20.7c0.4-1.2,0.7-2.2,1-3c0.3-0.8,0.6-1.5,0.9-2
		c0.3-0.5,0.5-0.9,0.8-1.2c0.2-0.3,0.5-0.6,0.7-0.8c0.5-0.4,1.2-0.8,2-1c0.9-0.2,2-0.4,3.4-0.4s2.5,0.1,3.2,0.3
		c0.8,0.2,1.4,0.5,1.9,0.9c0.2,0.2,0.4,0.4,0.7,0.8c0.2,0.3,0.5,0.7,0.7,1.3c0.3,0.5,0.5,1.2,0.8,2c0.3,0.8,0.6,1.8,0.9,2.9
		l6.1,21.3c0.1,0.4,0.2,0.7,0.2,0.8c0,0.2,0,0.3,0,0.5c0,0.3-0.2,0.5-0.6,0.5h-1.6c-1,0-1.7-0.2-2.1-0.6c-0.5-0.4-0.8-1-1.1-2
		l-2.1-7.1c-0.2-0.5-0.4-0.9-0.7-1.1c-0.3-0.2-0.8-0.3-1.7-0.3h-10.6c-0.8,0-1.3,0.1-1.6,0.3c-0.3,0.2-0.6,0.7-0.8,1.4L1037.7,34.6z
		 M1053.4,21.3c0-0.2-0.1-0.5-0.2-0.9c-0.1-0.4-0.2-0.9-0.4-1.5l-1.2-4.2c-0.4-1.4-0.7-2.4-1-3c-0.3-0.6-0.5-1-0.8-1.3
		c-0.2-0.2-0.5-0.3-0.9-0.4c-0.3-0.1-0.8-0.1-1.3-0.1s-1,0.1-1.3,0.2c-0.3,0.1-0.6,0.2-0.9,0.4c-0.2,0.1-0.3,0.3-0.4,0.5
		c-0.1,0.2-0.3,0.4-0.5,0.8c-0.2,0.3-0.3,0.7-0.5,1.2c-0.2,0.5-0.4,1.1-0.6,1.9l-1.2,4.2c-0.2,0.5-0.3,1-0.4,1.4
		c-0.1,0.4-0.1,0.7-0.1,0.9c0,0.4,0.1,0.6,0.3,0.8c0.2,0.2,0.7,0.2,1.4,0.2h8.5c0.6,0,1.1-0.1,1.2-0.3
		C1053.3,21.8,1053.4,21.6,1053.4,21.3z"/>
	<path class="st1" d="M1070.3,34.6c-0.2,0.9-0.6,1.6-1.1,1.9c-0.5,0.4-1.3,0.6-2.3,0.6h-1.2c-0.2,0-0.3-0.1-0.4-0.2
		s-0.1-0.3-0.1-0.4c0-0.2,0-0.4,0.1-0.6c0.1-0.2,0.2-0.6,0.3-1l6.3-20.7c0.4-1.2,0.7-2.2,1-3c0.3-0.8,0.6-1.5,0.9-2
		c0.3-0.5,0.5-0.9,0.8-1.2c0.2-0.3,0.5-0.6,0.7-0.8c0.5-0.4,1.2-0.8,2-1c0.9-0.2,2-0.4,3.4-0.4s2.5,0.1,3.2,0.3
		c0.8,0.2,1.4,0.5,1.9,0.9c0.2,0.2,0.4,0.4,0.7,0.8c0.2,0.3,0.5,0.7,0.7,1.3c0.3,0.5,0.5,1.2,0.8,2c0.3,0.8,0.6,1.8,0.9,2.9
		l6.1,21.3c0.1,0.4,0.2,0.7,0.2,0.8c0,0.2,0,0.3,0,0.5c0,0.3-0.2,0.5-0.6,0.5h-1.6c-1,0-1.7-0.2-2.1-0.6c-0.5-0.4-0.8-1-1.1-2
		l-2.1-7.1c-0.2-0.5-0.4-0.9-0.7-1.1c-0.3-0.2-0.8-0.3-1.7-0.3h-10.6c-0.8,0-1.3,0.1-1.6,0.3c-0.3,0.2-0.6,0.7-0.8,1.4L1070.3,34.6z
		 M1086,21.3c0-0.2-0.1-0.5-0.2-0.9c-0.1-0.4-0.2-0.9-0.4-1.5l-1.2-4.2c-0.4-1.4-0.7-2.4-1-3c-0.3-0.6-0.5-1-0.8-1.3
		c-0.2-0.2-0.5-0.3-0.9-0.4c-0.3-0.1-0.8-0.1-1.3-0.1s-1,0.1-1.3,0.2c-0.3,0.1-0.6,0.2-0.9,0.4c-0.2,0.1-0.3,0.3-0.4,0.5
		c-0.1,0.2-0.3,0.4-0.5,0.8c-0.2,0.3-0.3,0.7-0.5,1.2c-0.2,0.5-0.4,1.1-0.6,1.9l-1.2,4.2c-0.2,0.5-0.3,1-0.4,1.4
		c-0.1,0.4-0.1,0.7-0.1,0.9c0,0.4,0.1,0.6,0.3,0.8c0.2,0.2,0.7,0.2,1.4,0.2h8.5c0.6,0,1.1-0.1,1.2-0.3
		C1085.9,21.8,1086,21.6,1086,21.3z"/>
	<path class="st1" d="M1102.9,34.6c-0.2,0.9-0.6,1.6-1.1,1.9c-0.5,0.4-1.3,0.6-2.3,0.6h-1.2c-0.2,0-0.3-0.1-0.4-0.2
		s-0.1-0.3-0.1-0.4c0-0.2,0-0.4,0.1-0.6c0.1-0.2,0.2-0.6,0.3-1l6.3-20.7c0.4-1.2,0.7-2.2,1-3c0.3-0.8,0.6-1.5,0.9-2
		c0.3-0.5,0.5-0.9,0.8-1.2c0.2-0.3,0.5-0.6,0.7-0.8c0.5-0.4,1.2-0.8,2-1c0.9-0.2,2-0.4,3.4-0.4s2.5,0.1,3.2,0.3
		c0.8,0.2,1.4,0.5,1.9,0.9c0.2,0.2,0.4,0.4,0.7,0.8c0.2,0.3,0.5,0.7,0.7,1.3c0.3,0.5,0.5,1.2,0.8,2c0.3,0.8,0.6,1.8,0.9,2.9
		l6.1,21.3c0.1,0.4,0.2,0.7,0.2,0.8c0,0.2,0,0.3,0,0.5c0,0.3-0.2,0.5-0.6,0.5h-1.6c-1,0-1.7-0.2-2.1-0.6c-0.5-0.4-0.8-1-1.1-2
		l-2.1-7.1c-0.2-0.5-0.4-0.9-0.7-1.1c-0.3-0.2-0.8-0.3-1.7-0.3h-10.6c-0.8,0-1.3,0.1-1.6,0.3c-0.3,0.2-0.6,0.7-0.8,1.4L1102.9,34.6z
		 M1118.5,21.3c0-0.2-0.1-0.5-0.2-0.9c-0.1-0.4-0.2-0.9-0.4-1.5l-1.2-4.2c-0.4-1.4-0.7-2.4-1-3c-0.3-0.6-0.5-1-0.8-1.3
		c-0.2-0.2-0.5-0.3-0.9-0.4c-0.3-0.1-0.8-0.1-1.3-0.1s-1,0.1-1.3,0.2c-0.3,0.1-0.6,0.2-0.9,0.4c-0.2,0.1-0.3,0.3-0.4,0.5
		c-0.1,0.2-0.3,0.4-0.5,0.8c-0.2,0.3-0.3,0.7-0.5,1.2c-0.2,0.5-0.4,1.1-0.6,1.9l-1.2,4.2c-0.2,0.5-0.3,1-0.4,1.4
		c-0.1,0.4-0.1,0.7-0.1,0.9c0,0.4,0.1,0.6,0.3,0.8c0.2,0.2,0.7,0.2,1.4,0.2h8.5c0.6,0,1.1-0.1,1.2-0.3
		C1118.5,21.8,1118.5,21.6,1118.5,21.3z"/>
</g>
<g>
	<rect x="336.9" y="145.8" class="st0" width="660" height="40.5"/>
	<path class="st1" d="M378.1,145.8c0.1,0,0.3,0.6,0.7,1.7l11.8,30.4l0.3,0.7l0,0h-3.4c-0.1-0.1-0.8-1.8-2-5.1
		c-0.7-1.7-1-2.6-1.1-2.6h-16c-0.1,0.1-0.9,2.1-2.4,6c-0.4,1-0.6,1.6-0.7,1.7h-3.3l0,0h0l12.8-32.9H378.1z M376.4,150.3l-6.8,17.5
		h13.7L376.4,150.3L376.4,150.3z"/>
	<path class="st1" d="M460.4,145.8h20.7l0,0v3.1l0,0h-8.8v29.7l0,0h-3.1l0,0V149h-8.8l0,0L460.4,145.8L460.4,145.8z"/>
	<path class="st1" d="M567,145.8h0.3c3.8,0,7.2,1.5,10.3,4.6c1.4,1.6,2.2,2.8,2.5,3.7c-1.8,0.9-2.7,1.4-2.8,1.4
		c-0.4-0.7-0.9-1.5-1.5-2.3c-2.5-2.8-5.4-4.2-8.6-4.2H567c-3.4,0-6.3,1.5-8.8,4.5c-1.9,2.6-2.9,5.5-2.9,8.6v0.2
		c0,3.7,1.3,6.9,3.8,9.7c2.4,2.4,5,3.5,8.1,3.5c3.3,0,6.2-1.5,8.7-4.4c0.6-0.8,1.1-1.6,1.5-2.3l2.8,1.4c-0.3,0.9-1.3,2.2-2.7,3.9
		c-3,3-6.5,4.5-10.3,4.5c-4.1,0-7.7-1.7-10.9-5.2c-2.7-3.3-4-7.1-4-11.2v-0.2c0-4.5,1.6-8.5,4.7-11.9
		C559.9,147.3,563.2,145.8,567,145.8z"/>
	<path class="st1" d="M666.9,145.8c0.1,0,0.3,0.6,0.7,1.7l11.8,30.4l0.3,0.7l0,0h-3.4c-0.1-0.1-0.8-1.8-2-5.1
		c-0.7-1.7-1-2.6-1.1-2.6h-16c-0.1,0.1-0.9,2.1-2.4,6c-0.4,1-0.6,1.6-0.7,1.7h-3.3l0,0h0l12.8-32.9H666.9z M665.2,150.3l-6.8,17.5
		h13.7L665.2,150.3L665.2,150.3z"/>
	<path class="st1" d="M749.2,145.8h20.7l0,0v3.1l0,0h-8.8v29.7l0,0H758l0,0V149h-8.8l0,0L749.2,145.8L749.2,145.8z"/>
	<path class="st1" d="M855.9,145.8h0.3c3.9,0,7.4,1.5,10.5,4.6c1.2,1.3,2.1,2.6,2.7,3.7l0.1,0.3c-1.8,0.9-2.7,1.4-2.8,1.4h0
		c-0.3-0.8-1.1-1.9-2.2-3.2c-2.4-2.5-5.2-3.7-8.3-3.7h-0.2c-3.4,0-6.3,1.5-8.9,4.4c-2,2.7-3.1,5.6-3.1,8.8v0.2c0,3.2,1,6.1,3.1,8.7
		c2.5,3,5.5,4.4,9,4.4c2.9,0,5.5-1.1,7.9-3.2c1.2-1.3,2-2.3,2.3-3c0.4-0.6,0.8-1.6,1.3-2.9c0.1-0.4,0.3-1,0.4-1.6h-9l-0.1-0.1v-3
		l0.1-0.1h12.4l0.1,0.1c0,1.7-0.2,3.5-0.7,5.3c-1.1,3.6-3,6.5-5.8,8.7c-2.7,2-5.7,3-8.8,3c-3.9,0-7.3-1.5-10.3-4.4
		c-1.2-1.3-2.1-2.5-2.7-3.6c-1.5-2.7-2.2-5.4-2.2-8.3v-0.3c0-4.3,1.5-8.1,4.4-11.4c1.3-1.3,2.4-2.2,3.3-2.7
		C850.8,146.5,853.3,145.8,855.9,145.8z"/>
	<path class="st1" d="M959,145.8c0.1,0,0.3,0.6,0.7,1.7l11.8,30.4l0.3,0.7l0,0h-3.4c-0.1-0.1-0.8-1.8-2-5.1c-0.7-1.7-1-2.6-1.1-2.6
		h-16c-0.1,0.1-0.9,2.1-2.4,6c-0.4,1-0.6,1.6-0.7,1.7H943l0,0h0l12.8-32.9H959z M957.4,150.3l-6.8,17.5h13.7L957.4,150.3
		L957.4,150.3z"/>
</g>
<g>
	<rect x="306.9" y="190.8" class="st0" width="720" height="40.5"/>
	<path class="st2" d="M375.4,192.6c2.1,0,3.9,0.7,5.6,2.1c0.5,0.5,0.8,0.8,1,1c0.5,0.6,0.8,1.1,1,1.5c0.6,1.2,0.9,2.5,0.9,3.9v0.1
		c0,2-0.7,3.8-2,5.5c-0.5,0.5-0.9,0.9-1.2,1.2c-0.2,0.1-0.3,0.2-0.3,0.2c0.3,0.2,0.7,0.5,1.3,1c0.5,0.5,0.8,0.8,1.1,1.1
		c1.3,1.7,2,3.6,2,5.7c0,2.2-0.7,4.2-2.1,6c-0.2,0.3-0.6,0.6-1,1c-0.6,0.5-1.1,0.9-1.5,1.1c-1.5,0.9-3.1,1.3-4.8,1.3H375
		c-1.5,0-2.9-0.4-4.4-1.1c-0.5-0.3-1.1-0.7-1.6-1.1c-0.6-0.5-1-1-1.2-1.3c-0.3-0.4-0.6-0.8-0.8-1.2c-0.2-0.4-0.5-0.9-0.7-1.5
		c-0.4-1.1-0.6-2.1-0.6-3.1V216l0,0h3.1l0,0v0c0,1.4,0.5,2.7,1.4,3.9c0.4,0.4,0.7,0.7,0.9,0.9c1.2,0.9,2.5,1.4,4,1.4h0
		c1.5,0,2.9-0.5,4.1-1.5c0.5-0.4,0.8-0.7,1-1c0.9-1.2,1.3-2.4,1.3-3.8c0-1.4-0.5-2.7-1.4-3.9c-0.4-0.4-0.7-0.8-1-1
		c-0.4-0.3-0.7-0.5-1-0.7c-0.9-0.5-1.9-0.7-2.8-0.7h-2.3l0,0v-3.1l0,0h2.8c0.5,0,1-0.1,1.4-0.3c0.5-0.2,0.9-0.4,1.4-0.7
		c0.2-0.1,0.5-0.4,0.9-0.8c0.4-0.5,0.7-1,0.8-1.3c0.4-0.7,0.5-1.5,0.5-2.4c0-1.3-0.5-2.5-1.4-3.6c-0.4-0.4-0.7-0.7-0.9-0.8
		c-0.9-0.7-1.9-1-3-1h-0.1c-1.2,0-2.3,0.4-3.3,1.2c-1.3,1.1-1.9,2.5-1.9,4.2v0.1l0,0H367v-0.2c0-1.8,0.5-3.5,1.6-5
		c0.2-0.3,0.5-0.6,1-1.1c0.4-0.4,0.8-0.7,1.1-0.9C372.2,193.1,373.7,192.6,375.4,192.6z"/>
	<path class="st2" d="M479.5,193.2L479.5,193.2l0,22.3h2.5v3.1l0,0h-2.5v5.2l0,0h-3.1l0,0v-5.2h-14.6l4.8-8.5l5.4-9.5l3.5-6.3
		l0.7-1.1H479.5z M476.3,199.3l-4.5,7.9l-4.7,8.4h9.2V199.3z"/>
	<path class="st2" d="M576.1,193.2L576.1,193.2l0,22.3h2.5v3.1l0,0h-2.5v5.2l0,0H573l0,0v-5.2h-14.6l4.8-8.5l5.4-9.5l3.5-6.3
		l0.7-1.1H576.1z M573,199.3l-4.5,7.9l-4.7,8.4h9.2V199.3z"/>
	<path class="st2" d="M665.8,192.6c3,0,5.4,1.2,7.1,3.7c0.5,0.8,1,1.7,1.3,2.7c0.3,1,0.5,2.1,0.5,3.2c0,1.6-0.4,3-1.1,4.3l-5.6,6.4
		l-5.9,6.8l-1,1.2h13.6v3.1h-17.6l0,0v-3.3c0,0,0.1-0.1,0.2-0.3l5.6-6.5l5.4-6.2l2.7-3.1c0.4-0.7,0.5-1.5,0.5-2.4
		c0-1.5-0.4-2.8-1.3-4.1c-1.1-1.5-2.5-2.2-4.4-2.2h-0.2c-2.6,0-4.3,1.2-5.3,3.6c-0.1,0.4-0.3,1-0.4,1.7c-0.1,0.5-0.1,0.8-0.1,1.1
		h-3.1v-0.1c0-1,0.2-2.1,0.6-3.5c0.3-0.8,0.6-1.5,1-2.2c0.2-0.4,0.6-0.8,1-1.2C661,193.5,663.2,192.6,665.8,192.6z"/>
	<path class="st2" d="M769.2,193.2L769.2,193.2l0,22.3h2.5v3.1l0,0h-2.5v5.2l0,0h-3.1l0,0v-5.2h-14.6l4.8-8.5l5.4-9.5l3.5-6.3
		l0.7-1.1H769.2z M766.1,199.3l-4.5,7.9l-4.7,8.4h9.2V199.3z"/>
	<path class="st2" d="M865.9,193.2L865.9,193.2l0,22.3h2.5v3.1l0,0h-2.5v5.2l0,0h-3.1l0,0v-5.2h-14.6l4.8-8.5l5.4-9.5l3.5-6.3
		l0.7-1.1H865.9z M862.8,199.3l-4.5,7.9l-4.7,8.4h9.2V199.3z"/>
	<path class="st2" d="M957.1,192.6h0.3c1.6,0,3.3,0.4,4.9,1.3c0.5,0.3,1.1,0.7,1.7,1.1c0.7,0.6,1.3,1.1,1.7,1.7
		c0.5,0.7,0.9,1.3,1.1,1.8c0.3,0.5,0.5,1.2,0.8,1.9c0.3,1.1,0.5,2.1,0.5,3.1v0.3c0,1.9-0.5,3.7-1.5,5.5l-3.3,5.6l-5.6,9.7l-0.2,0.4
		c-1.8-1-2.7-1.5-2.7-1.6l5-8.5l0.3-0.6v0h0c-0.9,0.2-1.9,0.4-2.8,0.4c-2.4,0-4.5-0.7-6.5-2.2c-0.3-0.2-0.7-0.6-1.1-1
		c-0.7-0.7-1.2-1.3-1.4-1.8c-0.3-0.5-0.6-1.1-0.8-1.6c-0.6-1.4-0.9-2.8-0.9-4.2v-0.4c0-1.6,0.4-3.2,1.2-4.8c0.3-0.6,0.7-1.1,1.1-1.8
		c0.2-0.3,0.5-0.7,0.9-1c0.7-0.6,1.2-1.1,1.5-1.3c0.6-0.4,1.1-0.7,1.7-1C954.2,192.9,955.7,192.6,957.1,192.6z M949.5,203.5
		L949.5,203.5c0,1.9,0.6,3.5,1.8,5c0.4,0.5,0.8,0.9,1.3,1.2c1.4,1.1,3,1.6,4.7,1.6c1.8,0,3.5-0.6,5-1.9c0.4-0.4,0.7-0.7,0.9-0.9
		c1.2-1.5,1.8-3.2,1.8-5.1v0c0-1.9-0.6-3.6-1.9-5.1c-0.4-0.5-0.8-0.8-1.1-1c-1.4-1.1-3-1.7-4.8-1.7h0c-1.8,0-3.5,0.6-5,1.9
		c-0.5,0.5-0.8,0.8-0.9,1C950.1,200.1,949.5,201.7,949.5,203.5z"/>
</g>
<g>
	<rect x="0.8" y="157.1" class="st0" width="211.2" height="40.5"/>
	<path class="st3" d="M3.4,157.1h2.5c0.1,0.1,2.7,4.3,7.8,12.8l3.3,5.4h0v-18.2l0,0h2l0,0v21.4l0,0h-2.4c-0.1-0.2-0.5-0.7-1.1-1.8
		c0,0-2.7-4.3-7.8-12.8l-2.2-3.6v18.2l0,0H3.4l0,0L3.4,157.1L3.4,157.1z"/>
	<path class="st3" d="M23.4,164.6h2l0,0v8.8c0,1.5,0.8,2.5,2.5,2.9c0.3,0.1,0.9,0.1,1.7,0.1c1,0,1.7-0.1,2.2-0.4
		c0.8-0.4,1.3-0.9,1.5-1.5c0.1-0.4,0.2-0.9,0.2-1.3v-8.6l0,0h2l0,0v13.6l0,0h-2l0,0v-1.4c-1.1,1.1-2.4,1.6-4.1,1.6
		c-1.7,0-3.1-0.4-4.1-1.1c-1.3-1-2-2.3-2-3.9L23.4,164.6L23.4,164.6z"/>
	<path class="st3" d="M45.1,164.5h0.4c1.4,0,2.8,0.5,4.1,1.6c0.6,0.6,1.1,1.1,1.3,1.5l-1.7,1.1c-0.6-0.9-1.5-1.6-2.6-2
		c-0.4-0.1-0.8-0.2-1.2-0.2h-0.2c-1.2,0-2.3,0.5-3.2,1.5c-0.9,1-1.3,2.2-1.3,3.5v0.1c0,1.4,0.5,2.6,1.6,3.7c0.9,0.8,2,1.3,3.1,1.3
		c1.4,0,2.7-0.6,3.7-1.9l0.2-0.3l1.7,1.1c-0.8,1.3-2.1,2.3-3.6,2.8c-0.7,0.2-1.4,0.3-2,0.3c-1.7,0-3.2-0.6-4.6-1.9
		c-1.4-1.5-2.2-3.2-2.2-5.1v-0.2c0-1.9,0.7-3.6,2.2-5.1C42.1,165.1,43.6,164.5,45.1,164.5z"/>
	<path class="st3" d="M53.7,157.1h2l0,0v21.4l0,0h-2l0,0L53.7,157.1L53.7,157.1z"/>
	<path class="st3" d="M65.1,164.5c2,0,3.7,0.9,5.2,2.7c0.9,1.4,1.4,2.8,1.4,4.1v0.2c0,0.4,0,0.7-0.1,0.7H60.5c0,0.5,0.2,1.1,0.6,2
		c0.6,1.1,1.4,1.9,2.5,2.3c0.5,0.2,1,0.3,1.5,0.3c1.3,0,2.5-0.6,3.5-1.7c0.3-0.5,0.6-0.8,0.7-1.1h0c0.8,0.3,1.4,0.6,1.9,0.8
		c-0.2,0.6-0.7,1.3-1.4,2.2c-1.3,1.3-2.9,2-4.6,2c-2,0-3.8-0.9-5.2-2.7c-0.9-1.4-1.4-2.8-1.4-4.3v-0.1c0-2,0.7-3.7,2.1-5.1
		C61.9,165.1,63.4,164.5,65.1,164.5z M60.7,170.1h8.8c-0.4-1.3-1.1-2.2-2.1-2.8c-0.7-0.5-1.5-0.7-2.3-0.7c-1.4,0-2.6,0.7-3.6,2
		C61.1,169,60.9,169.5,60.7,170.1z"/>
	<path class="st3" d="M80.3,164.5h0.4c1.5,0,2.9,0.6,4.3,1.7c1.5,1.5,2.3,3.3,2.3,5.3c0,2.1-0.8,3.9-2.4,5.4
		c-1.3,1.1-2.8,1.7-4.4,1.7c-1.7,0-3.2-0.6-4.6-1.9c-1.4-1.5-2.2-3.2-2.2-5.1v-0.2c0-1.9,0.7-3.6,2.2-5.1
		C77.3,165.1,78.8,164.5,80.3,164.5z M75.8,171.6L75.8,171.6c0,1.5,0.5,2.7,1.6,3.7c0.9,0.9,2,1.3,3.1,1.3c1.5,0,2.7-0.7,3.8-2
		c0.6-1,0.9-2,0.9-3c0-1.5-0.6-2.7-1.7-3.8c-0.9-0.8-1.9-1.2-3-1.2h-0.2c-1.2,0-2.2,0.5-3.3,1.5C76.3,169.1,75.8,170.3,75.8,171.6z"
		/>
	<path class="st3" d="M90.9,157.1h2l0,0v7.5h3.8l0,0v2l0,0H93v8c0,0.4,0.1,0.8,0.3,1.1c0.2,0.3,0.5,0.5,0.8,0.6
		c0.2,0,0.3,0.1,0.4,0.1h0.1c0.4,0,0.9-0.1,1.5-0.4l0.2-0.1c0.5,1.1,0.8,1.7,0.8,1.9c-0.1,0.1-0.4,0.2-0.8,0.3
		c-0.7,0.2-1.2,0.3-1.6,0.3h-0.2c-0.5,0-1.1-0.2-1.6-0.5c-0.8-0.4-1.3-1-1.6-1.8c-0.2-0.5-0.3-1.1-0.3-1.7v-7.9h-2.3l0,0v-2l0,0h2.3
		V157.1z"/>
	<path class="st3" d="M101,157.1h0.1c0.4,0,0.7,0.2,1,0.5c0.3,0.3,0.4,0.6,0.4,1v0.1c0,0.4-0.2,0.8-0.5,1.1
		c-0.3,0.2-0.6,0.3-0.9,0.3H101c-0.4,0-0.8-0.2-1.1-0.6c-0.2-0.3-0.3-0.6-0.3-0.8v-0.1c0-0.4,0.2-0.7,0.5-1
		C100.3,157.2,100.6,157.1,101,157.1z M100,164.6h2l0,0v13.9l0,0h-2l0,0L100,164.6L100,164.6z"/>
	<path class="st3" d="M117,157.1h2l0,0v21.4l0,0h-2l0,0v-2.3h0c-1.1,1.6-2.6,2.4-4.8,2.4v0l0,0c-1.9,0-3.6-0.8-5-2.3
		c-1.2-1.4-1.8-3-1.8-4.7v-0.2c0-1.8,0.7-3.5,2-4.9c1.4-1.4,3-2.1,5-2.1c1.9,0,3.5,0.8,4.6,2.4l0,0.1h0L117,157.1L117,157.1z
		 M107.4,171.5L107.4,171.5c0,1.7,0.7,3.1,2,4.1c0.8,0.6,1.7,1,2.7,1c2.1,0,3.6-1,4.4-3.1c0.2-0.6,0.3-1.2,0.3-1.8v-0.3
		c0-0.8-0.3-1.7-0.8-2.7c-0.9-1.4-2.1-2.1-3.7-2.1c-2.1,0-3.6,1-4.5,2.9C107.6,170.2,107.4,170.9,107.4,171.5z"/>
	<path class="st3" d="M128.4,164.5c2,0,3.7,0.9,5.2,2.7c0.9,1.4,1.4,2.8,1.4,4.1v0.2c0,0.4,0,0.7-0.1,0.7h-11.1c0,0.5,0.2,1.1,0.6,2
		c0.6,1.1,1.4,1.9,2.5,2.3c0.5,0.2,1,0.3,1.5,0.3c1.3,0,2.5-0.6,3.5-1.7c0.3-0.5,0.6-0.8,0.7-1.1h0c0.8,0.3,1.4,0.6,1.9,0.8
		c-0.2,0.6-0.7,1.3-1.4,2.2c-1.3,1.3-2.9,2-4.6,2c-2,0-3.8-0.9-5.2-2.7c-0.9-1.4-1.4-2.8-1.4-4.3v-0.1c0-2,0.7-3.7,2.1-5.1
		C125.1,165.1,126.7,164.5,128.4,164.5z M124,170.1h8.8c-0.4-1.3-1.1-2.2-2.1-2.8c-0.7-0.5-1.5-0.7-2.3-0.7c-1.4,0-2.6,0.7-3.6,2
		C124.4,169,124.2,169.5,124,170.1z"/>
</g>
<g>
	<rect y="204.6" class="st0" width="196.1" height="40.5"/>
	<path class="st2" d="M2.5,204.6h2l0,0V224h9.2v2.1H2.5l0,0L2.5,204.6L2.5,204.6z"/>
	<path class="st2" d="M21.2,212c2,0,3.7,0.9,5.2,2.7c0.9,1.4,1.4,2.8,1.4,4.1v0.2c0,0.4,0,0.7-0.1,0.7H16.6c0,0.5,0.2,1.1,0.6,2
		c0.6,1.1,1.4,1.9,2.5,2.3c0.5,0.2,1,0.3,1.5,0.3c1.3,0,2.5-0.6,3.5-1.7c0.3-0.5,0.6-0.8,0.7-1.1h0c0.8,0.3,1.4,0.6,1.9,0.8
		c-0.2,0.6-0.7,1.3-1.4,2.2c-1.3,1.3-2.9,2-4.6,2c-2,0-3.8-0.9-5.2-2.7c-0.9-1.4-1.4-2.8-1.4-4.3V219c0-2,0.7-3.7,2.1-5.1
		C17.9,212.6,19.5,212,21.2,212z M16.8,217.6h8.8c-0.4-1.3-1.1-2.2-2.1-2.8c-0.7-0.5-1.5-0.7-2.3-0.7c-1.4,0-2.6,0.7-3.6,2
		C17.2,216.5,16.9,217,16.8,217.6z"/>
	<path class="st2" d="M36.7,212.1H37c2.7,0,4.6,1,5.5,3.1c0.2,0.6,0.4,1.3,0.4,2v8.8l0,0h-2l0,0v-8.8c0-1.4-0.7-2.4-2.2-2.9
		c-0.3-0.1-1-0.2-2-0.2c-1.2,0-2.1,0.3-2.7,0.8c-0.7,0.5-1.1,1.3-1.1,2.4v8.6l0,0h-2l0,0v-13.6l0,0h2l0,0v1.4
		C33.9,212.7,35.2,212.1,36.7,212.1z"/>
	<path class="st2" d="M51.8,212c1.2,0,2.3,0.3,3.3,1c0.2-0.2,0.4-0.4,0.5-0.5c0.4-0.2,0.7-0.4,1-0.4c0.3-0.1,0.5-0.1,0.7-0.1h0.5
		l0,0v2l0,0h-0.4c-0.3,0-0.5,0.1-0.7,0.3c-0.1,0.1-0.1,0.2-0.1,0.3c0.2,0.3,0.3,0.6,0.5,1c0.2,0.5,0.3,1.1,0.3,1.6
		c0,1.3-0.5,2.5-1.4,3.5c-0.4,0.4-0.7,0.6-0.9,0.7c-0.3,0.2-0.6,0.4-1,0.5c-0.7,0.3-1.4,0.4-2.1,0.4h-0.1c-0.8,0-1.6-0.2-2.4-0.6
		c-0.2,0.2-0.3,0.5-0.3,0.7c0,0.2,0.1,0.4,0.2,0.4c0.4,0.3,1.3,0.4,2.7,0.4l1,0c1.9,0,3.4,0.4,4.4,1.3c0.3,0.3,0.5,0.5,0.6,0.6
		c0.5,0.7,0.7,1.4,0.7,2.2s-0.3,1.5-0.8,2.3c-0.1,0.2-0.3,0.4-0.7,0.8c-0.4,0.3-0.6,0.5-0.8,0.7c-0.3,0.2-0.6,0.3-0.9,0.5
		c-0.4,0.2-0.8,0.3-1.2,0.4c-0.7,0.1-1.3,0.2-1.8,0.2h-0.5c-0.9,0-1.8-0.2-2.7-0.5c-0.5-0.2-0.9-0.4-1.2-0.6
		c-0.3-0.2-0.5-0.4-0.8-0.6c-0.3-0.3-0.5-0.5-0.6-0.6c-0.5-0.8-0.8-1.5-0.8-2.3v-0.2c0-0.8,0.3-1.6,1-2.5c0.2-0.3,0.5-0.5,0.7-0.7
		l0.1-0.1c-0.5-0.5-0.7-1.1-0.7-1.8v0c0-0.7,0.2-1.3,0.6-1.9c0,0,0,0,0-0.1c-0.2-0.2-0.4-0.5-0.6-0.7c-0.5-0.8-0.7-1.7-0.7-2.6
		c0-1.3,0.4-2.4,1.3-3.4c0.3-0.3,0.6-0.5,0.7-0.6c0.3-0.2,0.6-0.4,1-0.6C50.1,212.2,51,212,51.8,212z M48,227.7L48,227.7
		c0,0.7,0.3,1.2,1,1.7c0.9,0.6,2,0.9,3.3,0.9c1.2,0,2.3-0.3,3.1-0.8c0.2-0.1,0.3-0.3,0.6-0.5c0.4-0.5,0.6-0.9,0.6-1.4v0
		c0-0.4-0.2-0.9-0.6-1.2c-0.3-0.3-0.7-0.5-1.2-0.6c-0.6-0.2-1.2-0.2-1.7-0.2h-1.4c-0.7,0-1.4,0-1.9-0.1c-0.2,0.1-0.6,0.4-0.9,0.7
		C48.3,226.6,48,227.2,48,227.7z M48.4,217.1v0.1c0,0.6,0.2,1.2,0.7,1.8c0.2,0.3,0.4,0.4,0.5,0.5c0.7,0.5,1.4,0.7,2.2,0.7
		c0.9,0,1.7-0.3,2.4-0.9c0.7-0.6,1-1.4,1-2.2c0-0.8-0.3-1.5-0.9-2.1c-0.3-0.3-0.7-0.5-1-0.7c-0.5-0.2-1-0.3-1.4-0.3h-0.1
		c-0.6,0-1.3,0.2-1.9,0.5c-0.2,0.1-0.4,0.3-0.7,0.6c-0.3,0.3-0.5,0.6-0.6,0.9C48.5,216.4,48.4,216.8,48.4,217.1z"/>
	<path class="st2" d="M62.7,204.6h2l0,0v7.5h3.8l0,0v2l0,0h-3.8v8c0,0.4,0.1,0.8,0.3,1.1c0.2,0.3,0.5,0.5,0.8,0.6
		c0.2,0,0.3,0.1,0.4,0.1h0.1c0.4,0,0.9-0.1,1.5-0.4l0.2-0.1c0.5,1.1,0.8,1.7,0.8,1.9c-0.1,0.1-0.4,0.2-0.8,0.3
		c-0.7,0.2-1.2,0.3-1.6,0.3h-0.2c-0.5,0-1.1-0.2-1.6-0.5c-0.8-0.4-1.3-1-1.6-1.8c-0.2-0.5-0.3-1.1-0.3-1.7v-7.9h-2.3l0,0v-2l0,0h2.3
		V204.6z"/>
	<path class="st2" d="M71.7,204.6h2l0,0v9.1c1.1-1.1,2.5-1.6,4-1.6c2.9,0,4.7,1,5.7,3.1c0.3,0.6,0.4,1.3,0.4,2v8.8l0,0h-2l0,0v-8.8
		c0-1.6-0.9-2.6-2.7-3c-0.2-0.1-0.6-0.1-1.1-0.1h-0.6c-1.6,0-2.8,0.6-3.4,1.7c-0.2,0.5-0.3,1-0.3,1.5v8.6l0,0h-2l0,0L71.7,204.6
		L71.7,204.6z"/>
</g>
<g>
	<rect x="2.5" y="252.1" class="st0" width="168.4" height="40.5"/>
	<path class="st4" d="M13.9,252.1L13.9,252.1c2.6,0,4.8,1,6.8,2.9c0.7,0.8,1.2,1.4,1.5,1.9c1.1,1.8,1.7,3.8,1.7,5.9v0.1
		c0,2.5-0.8,4.8-2.4,6.9v0c0.8,0.8,1.7,1.7,2.6,2.7l-1.5,1.4l-2.6-2.6c-1.9,1.5-3.9,2.3-6.2,2.3c-2.5,0-4.7-0.9-6.7-2.8
		c-0.9-1-1.4-1.7-1.6-2.1c-1-1.8-1.6-3.7-1.6-5.7v-0.2c0-2.6,0.9-5,2.6-7.2c0.7-0.7,1.2-1.2,1.5-1.4
		C9.8,252.8,11.8,252.1,13.9,252.1z M6,262.7v0.1c0,2.4,0.8,4.5,2.5,6.3c1.6,1.5,3.4,2.3,5.4,2.3c1.7,0,3.2-0.6,4.6-1.7l0,0v0
		l-2.3-2.3l1.4-1.4h0l2.3,2.2c1.2-1.7,1.8-3.5,1.8-5.4v-0.1c0-2.4-0.8-4.5-2.5-6.3c-1.6-1.5-3.3-2.3-5.3-2.3c-2.2,0-4.2,0.9-5.8,2.8
		C6.7,258.7,6,260.6,6,262.7z"/>
	<path class="st4" d="M27.1,259.6h2l0,0v8.8c0,1.5,0.8,2.5,2.5,2.9c0.3,0.1,0.9,0.1,1.7,0.1c1,0,1.7-0.1,2.2-0.4
		c0.8-0.4,1.3-0.9,1.5-1.5c0.1-0.4,0.2-0.9,0.2-1.3v-8.6l0,0h2l0,0v13.6l0,0h-2l0,0v-1.4c-1.1,1.1-2.4,1.6-4.1,1.6
		c-1.7,0-3.1-0.4-4.1-1.1c-1.3-1-2-2.3-2-3.9L27.1,259.6L27.1,259.6z"/>
	<path class="st4" d="M49.3,259.5c1.9,0,3.5,0.8,4.6,2.4l0,0.1h0v-2.3l0,0h2l0,0v13.8l0,0h-2l0,0v-2.3h0c-1.1,1.6-2.6,2.4-4.8,2.4v0
		l0,0c-1.9,0-3.6-0.8-5-2.3c-1.2-1.4-1.8-3-1.8-4.7v-0.2c0-1.8,0.7-3.5,2-4.9C45.7,260.2,47.3,259.5,49.3,259.5z M44.4,266.5
		L44.4,266.5c0,1.7,0.7,3.1,2,4.1c0.8,0.6,1.7,1,2.7,1c2.1,0,3.6-1,4.4-3.1c0.2-0.6,0.3-1.2,0.3-1.8v-0.3c0-0.8-0.3-1.7-0.8-2.7
		c-0.9-1.4-2.1-2.1-3.7-2.1c-2.1,0-3.6,1-4.5,2.9C44.5,265.2,44.4,265.9,44.4,266.5z"/>
	<path class="st4" d="M59.9,252.1h2l0,0v21.4l0,0h-2l0,0L59.9,252.1L59.9,252.1z"/>
	<path class="st4" d="M67.1,252.1h0.1c0.4,0,0.7,0.2,1,0.5c0.3,0.3,0.4,0.6,0.4,1v0.1c0,0.4-0.2,0.8-0.5,1.1
		c-0.3,0.2-0.6,0.3-0.9,0.3h-0.1c-0.4,0-0.8-0.2-1.1-0.6c-0.2-0.3-0.3-0.6-0.3-0.8v-0.1c0-0.4,0.2-0.7,0.5-1
		C66.4,252.2,66.8,252.1,67.1,252.1z M66.1,259.6h2l0,0v13.9l0,0h-2l0,0L66.1,259.6L66.1,259.6z"/>
	<path class="st4" d="M72.9,252.1h2l0,0v7.5h3.8l0,0v2l0,0h-3.8v8c0,0.4,0.1,0.8,0.3,1.1c0.2,0.3,0.5,0.5,0.8,0.6
		c0.2,0,0.3,0.1,0.4,0.1h0.1c0.4,0,0.9-0.1,1.5-0.4l0.2-0.1c0.5,1.1,0.8,1.7,0.8,1.9c-0.1,0.1-0.4,0.2-0.8,0.3
		c-0.7,0.2-1.2,0.3-1.6,0.3h-0.2c-0.5,0-1.1-0.2-1.6-0.5c-0.8-0.4-1.3-1-1.6-1.8c-0.2-0.5-0.3-1.1-0.3-1.7v-7.9h-2.3l0,0v-2l0,0h2.3
		V252.1z"/>
	<path class="st4" d="M82.4,259.6c0,0,0.3,0.5,0.7,1.5l4,9.5c0,0,0.6-1.4,1.7-3.9c2-4.7,3-7.1,3.1-7.1H94v0l-7.8,18.2l-0.9,2.1h-2.2
		v0l2.8-6.6l-5.8-13.6l0,0H82.4z"/>
</g>
<g>
	<g>
		<rect x="348.4" y="242.1" class="st0" width="54" height="40.5"/>
		<path class="st4" d="M364.6,243.9c3,0,5.4,1.2,7.1,3.7c0.5,0.8,1,1.7,1.3,2.7c0.3,1,0.5,2.1,0.5,3.2c0,1.6-0.4,3-1.1,4.3l-5.6,6.4
			l-5.9,6.8l-1,1.2h13.6v3.1h-17.6l0,0V272c0,0,0.1-0.1,0.2-0.3l5.6-6.5l5.4-6.2l2.7-3.1c0.4-0.7,0.5-1.5,0.5-2.4
			c0-1.5-0.4-2.8-1.3-4.1c-1.1-1.5-2.5-2.2-4.4-2.2h-0.2c-2.6,0-4.3,1.2-5.3,3.6c-0.1,0.4-0.3,1-0.4,1.7c-0.1,0.5-0.1,0.8-0.1,1.1
			h-3.1v-0.1c0-1,0.2-2.1,0.6-3.5c0.3-0.8,0.6-1.5,1-2.2c0.2-0.4,0.6-0.8,1-1.2C359.8,244.8,361.9,243.9,364.6,243.9z"/>
		<path class="st4" d="M386.2,243.9c3,0,5.4,1.2,7.1,3.7c0.5,0.8,1,1.7,1.3,2.7c0.3,1,0.5,2.1,0.5,3.2c0,1.6-0.4,3-1.1,4.3l-5.6,6.4
			l-5.9,6.8l-1,1.2h13.6v3.1h-17.6l0,0V272c0,0,0.1-0.1,0.2-0.3l5.6-6.5l5.4-6.2l2.7-3.1c0.4-0.7,0.5-1.5,0.5-2.4
			c0-1.5-0.4-2.8-1.3-4.1c-1.1-1.5-2.5-2.2-4.4-2.2h-0.2c-2.6,0-4.3,1.2-5.3,3.6c-0.2,0.4-0.3,1-0.4,1.7c-0.1,0.5-0.1,0.8-0.1,1.1
			h-3.1v-0.1c0-1,0.2-2.1,0.6-3.5c0.3-0.8,0.6-1.5,1-2.2c0.2-0.4,0.6-0.8,1-1.2C381.5,244.8,383.6,243.9,386.2,243.9z"/>
	</g>
	<g>
		<rect x="433.5" y="242.1" class="st0" width="78" height="40.5"/>
		<path class="st4" d="M439,244.7h6.4l0,0v30.5l0,0h-3.1l0,0v-27.4H439l0,0L439,244.7L439,244.7z"/>
		<path class="st4" d="M464.7,244h0.2c3.1,0,5.9,1.3,8.4,3.9c2.9,3.2,4.3,7.1,4.3,11.6s-1.4,8.3-4.3,11.6c-2.5,2.6-5.3,3.9-8.5,3.9
			c-3.5,0-6.6-1.6-9.2-4.7c-2.4-3.1-3.6-6.6-3.6-10.6v-0.3c0-4,1.2-7.6,3.7-10.8C458.3,245.6,461.3,244,464.7,244z M455.1,259.4v0.2
			c0,3.2,1,6.1,2.9,8.7c2,2.4,4.2,3.5,6.8,3.5c2.7,0,5.1-1.4,7.1-4.1c1.7-2.5,2.5-5.2,2.5-8.3c0-3.1-0.9-5.9-2.6-8.4
			c-2-2.6-4.4-4-7.1-4h0c-2.7,0-5,1.3-7.1,4C456,253.7,455.1,256.4,455.1,259.4z"/>
		<path class="st4" d="M494.2,244h0.2c3.1,0,5.9,1.3,8.4,3.9c2.9,3.2,4.3,7.1,4.3,11.6s-1.4,8.3-4.3,11.6c-2.5,2.6-5.3,3.9-8.5,3.9
			c-3.5,0-6.6-1.6-9.2-4.7c-2.4-3.1-3.6-6.6-3.6-10.6v-0.3c0-4,1.2-7.6,3.7-10.8C487.9,245.6,490.8,244,494.2,244z M484.7,259.4v0.2
			c0,3.2,1,6.1,2.9,8.7c2,2.4,4.2,3.5,6.8,3.5c2.7,0,5.1-1.4,7.1-4.1c1.7-2.5,2.5-5.2,2.5-8.3c0-3.1-0.9-5.9-2.6-8.4
			c-2-2.6-4.4-4-7.1-4h0c-2.7,0-5,1.3-7.1,4C485.5,253.7,484.7,256.4,484.7,259.4z"/>
	</g>
	<g>
		<rect x="542.7" y="242.1" class="st0" width="54" height="40.5"/>
		<path class="st4" d="M547.8,244.5h18.7l0,0v2.9l-3.8,7.1l-5.1,9.7l-4.7,8.8l-1.3,2.6h0c-0.1,0-1-0.5-2.8-1.5l5.6-10.6l4.2-8
			c0,0,1.1-2.1,3.4-6.4c0.5-0.9,0.8-1.5,0.8-1.6h-15l0,0L547.8,244.5L547.8,244.5z"/>
		<path class="st4" d="M579.9,244l2.7,1.6l-5.5,9.5c0.9-0.2,1.8-0.4,2.7-0.4h0.2c2.1,0,4.1,0.6,6,1.9c0.4,0.3,0.9,0.7,1.5,1.2
			c0.5,0.5,0.9,1,1.2,1.3c0.4,0.6,0.7,1.1,0.9,1.5c0.8,1.6,1.2,3.3,1.2,4.9v0.3c0,1.8-0.5,3.6-1.4,5.3c-0.3,0.5-0.6,1-1.1,1.6
			c-0.2,0.3-0.5,0.6-1.1,1.1c-1,0.9-2.1,1.6-3.3,2c-1.3,0.5-2.6,0.8-4,0.8c-2.3,0-4.5-0.7-6.5-2.2c-0.3-0.3-0.8-0.6-1.3-1.1
			c-0.6-0.7-1.1-1.3-1.4-1.8c-0.4-0.7-0.8-1.4-1-2.1c-0.4-1.2-0.7-2.4-0.7-3.6v-0.3c0-1.6,0.4-3.2,1.2-4.8c0.2-0.4,0.9-1.6,2.2-3.8
			l5.8-10L579.9,244z M572.2,265.6L572.2,265.6c0,1.8,0.5,3.3,1.6,4.8c0.2,0.3,0.5,0.6,0.9,1.1c1.5,1.4,3.3,2,5.2,2
			c1.9,0,3.6-0.7,5.1-2c0.5-0.5,0.8-0.9,0.9-1c1.1-1.4,1.6-3,1.6-4.8c0-2.1-0.7-3.9-2.2-5.5c-0.4-0.4-0.8-0.7-1-0.9
			c-1.3-0.9-2.8-1.4-4.4-1.4c-1.9,0-3.6,0.7-5.1,2c-0.5,0.4-0.8,0.7-0.9,0.9C572.8,262.2,572.2,263.8,572.2,265.6z"/>
	</g>
	<g>
		<rect x="639.9" y="242.1" class="st0" width="54" height="40.5"/>
		<path class="st4" d="M662,244.5L662,244.5l0,22.3h2.5v3.1l0,0H662v5.2l0,0h-3.1l0,0V270h-14.6l4.8-8.5l5.4-9.5l3.5-6.3l0.7-1.1
			H662z M658.9,250.5l-4.5,7.9l-4.7,8.4h9.2V250.5z"/>
		<path class="st4" d="M677.8,243.9h0.1c1.6,0,3.2,0.5,4.6,1.5c0.3,0.2,0.7,0.5,1.2,1c0.6,0.6,1,1.1,1.1,1.5
			c0.8,1.3,1.2,2.7,1.2,4.2c0,1.9-0.6,3.7-1.9,5.3c-0.5,0.5-0.9,0.9-1.2,1.1l-0.1,0.1c0.3,0.2,0.8,0.5,1.3,0.9
			c0.6,0.5,1,0.9,1.3,1.3c1.5,1.8,2.2,3.8,2.2,6.1c0,2.3-0.8,4.4-2.4,6.3c-0.6,0.6-0.9,0.9-1.1,1.1c-0.6,0.5-1.2,0.9-1.6,1.1
			c-1.5,0.8-3.1,1.2-4.7,1.2h-0.4c-1.4,0-2.9-0.4-4.4-1.1c-0.5-0.3-1.1-0.6-1.7-1.1c-0.3-0.2-0.6-0.5-1-0.9c-0.7-0.8-1.2-1.4-1.5-2
			c-0.2-0.3-0.4-0.7-0.6-1.1c-0.4-1.2-0.7-2.3-0.7-3.3v-0.3c0-1.5,0.4-3,1.2-4.5c0.9-1.5,2.1-2.7,3.6-3.6c-0.2-0.2-0.6-0.5-1.1-1
			c-0.4-0.5-0.7-0.9-0.9-1.3c-0.8-1.3-1.1-2.7-1.1-4.2c0-2,0.6-3.7,1.9-5.3c0.6-0.6,1-1,1.2-1.1c0.4-0.3,0.7-0.5,1-0.7
			C675,244.2,676.4,243.9,677.8,243.9z M671.1,266.9L671.1,266.9c0,1.5,0.5,2.8,1.4,4c0.4,0.5,0.7,0.8,1.1,1.1
			c1.3,1,2.7,1.5,4.2,1.5h0.1c1.7,0,3.2-0.6,4.5-1.7c0.5-0.4,0.7-0.7,0.9-0.9c0.9-1.2,1.4-2.5,1.4-4c0-1.6-0.6-3-1.7-4.3
			c-0.5-0.5-0.8-0.8-1.1-1c-1.2-0.8-2.5-1.3-4-1.3h0c-1.7,0-3.2,0.6-4.6,1.7c-0.5,0.5-0.8,0.8-0.9,1c-0.3,0.4-0.6,0.8-0.8,1.3
			C671.2,265.2,671.1,266,671.1,266.9z M672.8,252.1c0,1.4,0.5,2.6,1.5,3.6c1,1,2.2,1.5,3.6,1.5c1.4,0,2.7-0.5,3.7-1.6
			c0.9-1,1.4-2.2,1.4-3.4v-0.1c0-1.2-0.5-2.4-1.4-3.4c-1.1-1.1-2.3-1.6-3.7-1.6c-1.3,0-2.5,0.5-3.6,1.5
			C673.3,249.5,672.8,250.7,672.8,252.1z"/>
	</g>
	<g>
		<rect x="721" y="242.1" class="st0" width="86" height="40.5"/>
		<path class="st4" d="M733.9,244.7h6.4l0,0v30.5l0,0h-3.1l0,0v-27.4h-3.3l0,0L733.9,244.7L733.9,244.7z"/>
		<path class="st4" d="M759.5,244h0.2c3.1,0,5.9,1.3,8.4,3.9c2.9,3.2,4.3,7.1,4.3,11.6s-1.4,8.3-4.3,11.6c-2.5,2.6-5.3,3.9-8.5,3.9
			c-3.5,0-6.6-1.6-9.2-4.7c-2.4-3.1-3.6-6.6-3.6-10.6v-0.3c0-4,1.2-7.6,3.7-10.8C753.1,245.6,756.1,244,759.5,244z M749.9,259.4v0.2
			c0,3.2,1,6.1,2.9,8.7c2,2.4,4.2,3.5,6.8,3.5c2.7,0,5.1-1.4,7.1-4.1c1.7-2.5,2.5-5.2,2.5-8.3c0-3.1-0.9-5.9-2.6-8.4
			c-2-2.6-4.4-4-7.1-4h0c-2.7,0-5,1.3-7.1,4C750.8,253.7,749.9,256.4,749.9,259.4z"/>
		<path class="st4" d="M785.8,243.9c2.1,0,3.9,0.7,5.6,2.1c0.5,0.5,0.8,0.8,1,1c0.5,0.6,0.8,1.1,1,1.5c0.6,1.2,0.9,2.5,0.9,3.9v0.1
			c0,2-0.7,3.8-2,5.5c-0.5,0.5-0.9,0.9-1.2,1.2c-0.2,0.1-0.3,0.2-0.3,0.2c0.3,0.2,0.7,0.5,1.3,1c0.5,0.5,0.8,0.8,1.1,1.1
			c1.3,1.7,2,3.6,2,5.7c0,2.2-0.7,4.2-2.1,6c-0.2,0.3-0.6,0.6-1,1c-0.6,0.5-1.1,0.9-1.5,1.1c-1.5,0.9-3.1,1.3-4.8,1.3h-0.3
			c-1.5,0-2.9-0.4-4.4-1.1c-0.5-0.3-1.1-0.7-1.6-1.1c-0.6-0.5-1-1-1.2-1.3c-0.3-0.4-0.6-0.8-0.8-1.2c-0.2-0.4-0.5-0.9-0.7-1.5
			c-0.4-1.1-0.6-2.1-0.6-3.1v-0.1l0,0h3.1l0,0v0c0,1.4,0.5,2.7,1.4,3.9c0.4,0.4,0.7,0.7,0.9,0.9c1.2,0.9,2.5,1.4,4,1.4h0
			c1.5,0,2.9-0.5,4.1-1.5c0.5-0.4,0.8-0.7,1-1c0.9-1.2,1.3-2.4,1.3-3.8c0-1.4-0.5-2.7-1.4-3.9c-0.4-0.4-0.7-0.8-1-1
			c-0.4-0.3-0.7-0.5-1-0.7c-0.9-0.5-1.9-0.7-2.8-0.7h-2.3l0,0v-3.1l0,0h2.8c0.5,0,1-0.1,1.4-0.3c0.5-0.2,0.9-0.4,1.4-0.7
			c0.2-0.1,0.5-0.4,0.9-0.8c0.4-0.5,0.7-1,0.8-1.3c0.4-0.7,0.5-1.5,0.5-2.4c0-1.3-0.5-2.5-1.4-3.6c-0.4-0.4-0.7-0.7-0.9-0.8
			c-0.9-0.7-1.9-1-3-1h-0.1c-1.2,0-2.3,0.4-3.3,1.2c-1.3,1.1-1.9,2.5-1.9,4.2v0.1l0,0h-3.1v-0.2c0-1.8,0.5-3.5,1.6-5
			c0.2-0.3,0.5-0.6,1-1.1c0.4-0.4,0.8-0.7,1.1-0.9C782.6,244.4,784.1,243.9,785.8,243.9z"/>
	</g>
	<g>
		<rect x="834.2" y="242.1" class="st0" width="54" height="40.5"/>
		<path class="st4" d="M862.3,244.5L862.3,244.5l0,3.1h-9.7l-0.2,1l-1.5,5.9h0c0.8-0.2,1.7-0.3,2.5-0.3c2.3,0,4.5,0.7,6.5,2.1
			c0.4,0.2,0.8,0.6,1.4,1.2c0.6,0.6,1,1.1,1.3,1.5c1.3,2,2,4.1,2,6.4c0,2.4-0.7,4.6-2.1,6.6c-0.3,0.4-0.7,0.8-1.2,1.4
			c-0.6,0.6-1.1,1-1.5,1.3c-0.7,0.5-1.4,0.8-1.9,1.1c-1.5,0.6-2.9,0.9-4.3,0.9h-0.4c-1.3,0-2.7-0.3-4.1-0.9c-0.6-0.3-1.2-0.6-1.9-1
			c-0.4-0.3-1-0.7-1.6-1.3c-0.6-0.7-1-1.1-1.2-1.4c-0.4-0.5-0.7-1-0.9-1.4c-0.2-0.3-0.3-0.6-0.3-0.7l2.9-1.3c0.2,0.5,0.5,1,0.9,1.5
			c0.2,0.3,0.5,0.6,0.9,1c0.6,0.5,1.1,0.9,1.5,1.2c1.3,0.7,2.6,1.1,4,1.1h0.2c1.7,0,3.2-0.5,4.7-1.6c0.3-0.2,0.6-0.5,1.1-1l0.4-0.5
			c0.4-0.5,0.6-0.9,0.8-1.3c0.6-1.2,0.9-2.5,0.9-3.7c0-2-0.7-3.7-2-5.3c-0.3-0.4-0.6-0.7-0.9-0.9c-1.6-1.3-3.3-1.9-5.2-1.9
			c-1.5,0-3,0.4-4.4,1.3l-2.8,1.6l2.3-8.9l1.8-6.8v0H862.3z"/>
		<path class="st4" d="M869.7,244.7h6.4l0,0v30.5l0,0h-3.1l0,0v-27.4h-3.3l0,0L869.7,244.7L869.7,244.7z"/>
	</g>
	<g>
		<rect x="931.4" y="242.1" class="st0" width="54" height="40.5"/>
		<path class="st4" d="M954,244.5L954,244.5l0,3.1h-9.7l-0.2,1l-1.5,5.9h0c0.8-0.2,1.7-0.3,2.5-0.3c2.3,0,4.5,0.7,6.5,2.1
			c0.4,0.2,0.8,0.6,1.4,1.2c0.6,0.6,1,1.1,1.3,1.5c1.3,2,2,4.1,2,6.4c0,2.4-0.7,4.6-2.1,6.6c-0.3,0.4-0.7,0.8-1.2,1.4
			c-0.6,0.6-1.1,1-1.5,1.3c-0.7,0.5-1.4,0.8-1.9,1.1c-1.5,0.6-2.9,0.9-4.3,0.9h-0.4c-1.3,0-2.7-0.3-4.1-0.9c-0.6-0.3-1.2-0.6-1.9-1
			c-0.4-0.3-1-0.7-1.6-1.3c-0.6-0.7-1-1.1-1.2-1.4c-0.4-0.5-0.7-1-0.9-1.4c-0.2-0.3-0.3-0.6-0.3-0.7l2.9-1.3c0.2,0.5,0.5,1,0.9,1.5
			c0.2,0.3,0.5,0.6,0.9,1c0.6,0.5,1.1,0.9,1.5,1.2c1.3,0.7,2.6,1.1,4,1.1h0.2c1.7,0,3.2-0.5,4.7-1.6c0.3-0.2,0.6-0.5,1.1-1l0.4-0.5
			c0.4-0.5,0.6-0.9,0.8-1.3c0.6-1.2,0.9-2.5,0.9-3.7c0-2-0.7-3.7-2-5.3c-0.3-0.4-0.6-0.7-0.9-0.9c-1.6-1.3-3.3-1.9-5.2-1.9
			c-1.5,0-3,0.4-4.4,1.3l-2.8,1.6l2.3-8.9l1.8-6.8v0H954z"/>
		<path class="st4" d="M979,244.5L979,244.5l0,3.1h-9.7l-0.2,1l-1.5,5.9h0c0.8-0.2,1.7-0.3,2.5-0.3c2.3,0,4.5,0.7,6.5,2.1
			c0.4,0.2,0.8,0.6,1.4,1.2c0.6,0.6,1,1.1,1.3,1.5c1.3,2,2,4.1,2,6.4c0,2.4-0.7,4.6-2.1,6.6c-0.3,0.4-0.7,0.8-1.2,1.4
			c-0.6,0.6-1.1,1-1.6,1.3c-0.7,0.5-1.4,0.8-1.9,1.1c-1.5,0.6-2.9,0.9-4.3,0.9h-0.4c-1.3,0-2.7-0.3-4.1-0.9c-0.6-0.3-1.2-0.6-1.9-1
			c-0.4-0.3-1-0.7-1.6-1.3c-0.6-0.7-1-1.1-1.2-1.4c-0.4-0.5-0.7-1-0.9-1.4c-0.2-0.3-0.3-0.6-0.3-0.7l2.9-1.3c0.2,0.5,0.5,1,0.9,1.5
			c0.2,0.3,0.5,0.6,0.9,1c0.6,0.5,1.1,0.9,1.6,1.2c1.3,0.7,2.6,1.1,4,1.1h0.2c1.7,0,3.2-0.5,4.7-1.6c0.3-0.2,0.6-0.5,1.1-1l0.4-0.5
			c0.4-0.5,0.6-0.9,0.8-1.3c0.6-1.2,0.9-2.5,0.9-3.7c0-2-0.7-3.7-2-5.3c-0.3-0.4-0.6-0.7-0.9-0.9c-1.6-1.3-3.3-1.9-5.2-1.9
			c-1.5,0-3,0.4-4.4,1.3l-2.8,1.6l2.3-8.9l1.8-6.8v0H979z"/>
	</g>
</g>
<g>
	<g>
		<line class="st5" x1="262" y1="57.7" x2="347.8" y2="116.1"/>
		<g>
			<path d="M361,125.1c-7.8-1.9-18.2-3.2-25.8-2.3l10.9-7.9l3.3-13C351.3,109.3,356.3,118.5,361,125.1z"/>
		</g>
	</g>
</g>
<g>
	<g>
		<line class="st5" x1="1028.5" y1="55.3" x2="970.1" y2="115.8"/>
		<g>
			<path d="M959,127.3c3.2-7.4,6.3-17.4,6.7-25l5.9,12l12.2,5.5C976.1,120.4,966.2,123.8,959,127.3z"/>
		</g>
	</g>
</g>
<g>
</g>
<g>
</g>
<g>
</g>
<g>
</g>
<g>
</g>
<g>
</g>
<g>
</g>
<g>
</g>
<g>
</g>
<g>
</g>
<g>
</g>
<g>
</g>
<g>
</g>
<g>
</g>
<g>
</g>
<g>
</g>
</svg>
