<svg id="Ebene_1" data-name="Ebene 1" xmlns="http://www.w3.org/2000/svg" xmlns:xlink="http://www.w3.org/1999/xlink" viewBox="0 0 393.43 604.85"><defs><linearGradient id="Unbenannter_Verlauf_4" x1="528.05" y1="1089.76" x2="612.78" y2="1089.76" gradientTransform="translate(1289.8 -367.7) rotate(90)" gradientUnits="userSpaceOnUse"><stop offset="0.12" stop-color="#34e08f"/><stop offset="0.59" stop-color="#34df8d"/><stop offset="0.76" stop-color="#33dd86"/><stop offset="0.87" stop-color="#31d97b"/><stop offset="0.97" stop-color="#2fd36a"/><stop offset="0.99" stop-color="#2ed266"/></linearGradient><linearGradient id="Unbenannter_Verlauf_5" x1="531.41" y1="1097.52" x2="550.32" y2="1097.52" gradientTransform="translate(1289.8 -367.7) rotate(90)" gradientUnits="userSpaceOnUse"><stop offset="0" stop-color="#2ed265"/><stop offset="0.45" stop-color="#2ed367"/><stop offset="0.61" stop-color="#2fd56e"/><stop offset="0.72" stop-color="#31d979"/><stop offset="0.82" stop-color="#33de8a"/><stop offset="0.9" stop-color="#36e6a0"/><stop offset="0.96" stop-color="#3aeebb"/><stop offset="1" stop-color="#3cf4cc"/></linearGradient><linearGradient id="Unbenannter_Verlauf_6" x1="554.07" y1="1082.61" x2="589.1" y2="1082.61" gradientTransform="translate(1289.8 -367.7) rotate(90)" gradientUnits="userSpaceOnUse"><stop offset="0" stop-color="#2ed265"/><stop offset="0.39" stop-color="#2ed368"/><stop offset="0.64" stop-color="#30d670"/><stop offset="0.85" stop-color="#32db7f"/><stop offset="1" stop-color="#34e08f"/></linearGradient><linearGradient id="Unbenannter_Verlauf_12" x1="169.19" y1="773.06" x2="169.19" y2="773.06" gradientTransform="translate(991.71 1.3) rotate(90)" gradientUnits="userSpaceOnUse"><stop offset="0" stop-color="#3cf4cc"/><stop offset="0.09" stop-color="#39edb8"/><stop offset="0.21" stop-color="#37e7a5"/><stop offset="0.35" stop-color="#35e399"/><stop offset="0.53" stop-color="#34e191"/><stop offset="0.93" stop-color="#34e08f"/></linearGradient><linearGradient id="Unbenannter_Verlauf_12-2" x1="176.85" y1="778.68" x2="176.85" y2="778.68" xlink:href="#Unbenannter_Verlauf_12"/><linearGradient id="Unbenannter_Verlauf_12-3" x1="197.83" y1="808.53" x2="197.83" y2="808.53" xlink:href="#Unbenannter_Verlauf_12"/><linearGradient id="Unbenannter_Verlauf_12-4" x1="245.1" y1="773.24" x2="245.1" y2="773.24" xlink:href="#Unbenannter_Verlauf_12"/><linearGradient id="Unbenannter_Verlauf_11" x1="531.37" y1="1089.93" x2="622.8" y2="1089.93" gradientTransform="translate(1289.8 -367.7) rotate(90)" gradientUnits="userSpaceOnUse"><stop offset="0" stop-color="#3cf4cc"/><stop offset="0" stop-color="#3cf3ca"/><stop offset="0.05" stop-color="#39ecb4"/><stop offset="0.1" stop-color="#37e7a3"/><stop offset="0.17" stop-color="#35e398"/><stop offset="0.26" stop-color="#34e191"/><stop offset="0.52" stop-color="#34e08f"/></linearGradient><linearGradient id="Unbenannter_Verlauf_12-5" x1="229.14" y1="775.31" x2="229.14" y2="775.31" xlink:href="#Unbenannter_Verlauf_12"/><linearGradient id="Unbenannter_Verlauf_13" x1="595.89" y1="1078.63" x2="621.9" y2="1078.63" gradientTransform="translate(1289.8 -367.7) rotate(90)" gradientUnits="userSpaceOnUse"><stop offset="0" stop-color="#2ed265"/><stop offset="0.36" stop-color="#2ed368"/><stop offset="0.59" stop-color="#30d670"/><stop offset="0.78" stop-color="#32db7f"/><stop offset="0.92" stop-color="#34e08f"/></linearGradient><linearGradient id="Unbenannter_Verlauf_14" x1="560.15" y1="1094.85" x2="591.77" y2="1094.85" gradientTransform="translate(1289.8 -367.7) rotate(90)" gradientUnits="userSpaceOnUse"><stop offset="0" stop-color="#34e08f"/><stop offset="0.15" stop-color="#35e399"/><stop offset="0.7" stop-color="#39eeba"/><stop offset="1" stop-color="#3bf2c6"/><stop offset="1" stop-color="#3cf4cc" stop-opacity="0.52"/><stop offset="1" stop-color="#3cf4cc" stop-opacity="0.5"/></linearGradient></defs><path d="M116,292,26.76,337.13a3.81,3.81,0,0,0-1.91,2.25L.18,417A3.81,3.81,0,0,0,4.38,422l137.86-20.49a3.81,3.81,0,0,0,3.15-4.64L121.44,294.57A3.81,3.81,0,0,0,116,292Z" fill="#f2a13f"/><path d="M277.42,292.36l89.25,45.1a3.82,3.82,0,0,1,1.91,2.24l24.67,77.65a3.82,3.82,0,0,1-4.2,4.93L251.19,401.79a3.81,3.81,0,0,1-3.15-4.64L272,294.9A3.81,3.81,0,0,1,277.42,292.36Z" fill="#f2a13f"/><path d="M189.58,483.85h.2l-.09.18H143.81a7.6,7.6,0,0,1-6.94-4.48,225.25,225.25,0,0,1-11.2-32.7H207.4C201.6,460.06,195.6,472.41,189.58,483.85Z" fill="#a3afb5"/><path d="M254.33,236.85Q254,252,252.88,266.58c-.17,2.17-.34,4.33-.54,6.48q-.72,8.38-1.71,16.57-.72,6.08-1.57,12-1.91,13.43-4.39,26.3-1.63,8.48-3.48,16.69c-.62,2.8-1.27,5.56-1.93,8.31q-1.41,5.82-2.91,11.52-1.65,6.25-3.41,12.35c-.63,2.18-1.28,4.35-1.93,6.5q-2.46,8.19-5.12,16.08c-.31.94-.63,1.88-.95,2.82q-4.06,11.92-8.46,23.14l-1,2.64q-3.84,9.69-7.85,18.84c-5.79,13.21-11.8,25.56-17.81,37h-.2c6-11.44,12-23.79,17.82-37H125.67c-16.11-59.44-24.86-151.25-24.86-204.15,0-76.12,16.93-139.15,51.5-190.93a288.32,288.32,0,0,1,42.13-49.7,7.62,7.62,0,0,1,10.44,0q2.16,2,4.28,4.13l.06.06q2.42,5.64,4.84,11.67c.41,1,.81,2,1.21,3,0,.12.09.23.14.34.36.91.71,1.83,1.07,2.75q3.06,7.89,6.07,16.36c.36,1,.73,2.07,1.09,3.12.79,2.25,1.56,4.54,2.33,6.86.38,1.16.77,2.33,1.15,3.5l1.14,3.54c.53,1.64,1.05,3.31,1.56,5,.39,1.23.76,2.48,1.14,3.73q1.32,4.41,2.61,9,1.94,6.86,3.76,14c.37,1.45.74,2.91,1.1,4.37,0,.1,0,.2.07.3.39,1.59.78,3.2,1.16,4.82s.76,3.24,1.13,4.88q1.13,4.91,2.16,9.93c.31,1.5.62,3,.92,4.51.08.39.15.78.23,1.17.23,1.15.45,2.31.67,3.47.17.87.33,1.74.49,2.61.29,1.57.58,3.14.85,4.72.25,1.36.48,2.73.71,4.1q.44,2.53.84,5.1a1.43,1.43,0,0,0,0,.22l.81,5.29c.27,1.85.54,3.7.79,5.57q.36,2.55.69,5.13c0,.06,0,.12,0,.17.23,1.77.45,3.54.66,5.32,0,.16,0,.32.05.47.15,1.21.28,2.43.42,3.66.08.71.16,1.43.23,2.14.19,1.76.37,3.53.54,5.3.14,1.45.28,2.9.41,4.36.06.72.12,1.45.19,2.18.12,1.55.25,3.09.37,4.65.15,1.91.28,3.84.41,5.78s.24,3.88.35,5.83.21,3.91.29,5.88c.08,1.75.15,3.51.2,5.28q.1,3,.18,6c0,1.17.05,2.34.07,3.52,0,.32,0,.64,0,1,0,1.26,0,2.53.05,3.8Q254.5,228.63,254.33,236.85Z" fill="#e4e8eb"/><path d="M273.49,446.85a217.64,217.64,0,0,1-11.6,32.52,7.94,7.94,0,0,1-7.22,4.48H186.33c6.26-11.44,12.52-23.79,18.55-37Z" fill="#a3afb5"/><path d="M207.4,446.85a551.45,551.45,0,0,0,46.82-210.18,551.56,551.56,0,0,0-26-179.23c-6.05-19-12.61-36.18-19.05-51.24l0-.12.06.06a288.72,288.72,0,0,1,29.28,33.49A292.93,292.93,0,0,0,209.22,6.26q2.42,5.64,4.84,11.67c.41,1,.81,2,1.21,3,0,.12.09.23.14.34.36.91.71,1.83,1.07,2.75q3.06,7.89,6.07,16.36c.36,1,.73,2.07,1.09,3.12.79,2.25,1.56,4.54,2.33,6.86.38,1.16.77,2.33,1.15,3.5l1.14,3.54a128.15,128.15,0,0,0,19.2-5c-.35-.54-.71-1.08-1.07-1.61.37.53.73,1.06,1.08,1.6s.7,1.06,1,1.59c.66,1,1.32,2,2,3,.77,1.22,1.54,2.45,2.3,3.69.61,1,1.22,2,1.82,3q2,3.29,3.84,6.65c.42.75.83,1.5,1.24,2.26,1.24,2.26,2.45,4.55,3.63,6.85q2.2,4.32,4.28,8.74,1.94,4.14,3.75,8.35a0,0,0,0,0,0,0c18.11,42.19,27,90.57,27,145.87,0,53-8.77,144.9-24.91,204.33h-65.9" fill="#dedfe0"/><circle cx="199.83" cy="205.35" r="72.5" fill="#39464f" stroke="#bac9d3" stroke-miterlimit="10" stroke-width="18.91"/><path d="M217.62,200.59H185.16a51.39,51.39,0,0,1,6.68-7.06h24.5a8.54,8.54,0,0,1,1.33,3.08A8.91,8.91,0,0,1,217.62,200.59Z" fill="#3cf4cc"/><path d="M207.44,214.38h-22.8a10.11,10.11,0,0,1-2.35-4.47,7.78,7.78,0,0,1-.14-2.59H214.1A63,63,0,0,1,207.44,214.38Z" fill="#f2a13f"/><path d="M211.24,176.45H185.53a11,11,0,0,1-3.07-5.78c-.09-.44-.14-.86-.19-1.28h34.18A30.19,30.19,0,0,1,211.24,176.45Z" fill="#3cf4cc"/><path d="M217.16,239H184.62a37.5,37.5,0,0,1,4.67-7.06h25.17a12.61,12.61,0,0,1,2.39,5A13.34,13.34,0,0,1,217.16,239Z" fill="#3cf4cc"/><path d="M188.69,156.79" fill="none" stroke="#34e08f" stroke-linecap="round" stroke-miterlimit="10" stroke-width="4.93"/><path d="M181.16,244.83a2.46,2.46,0,0,1-1.13-3.3c.23-.46.5-1,.82-1.52s.66-1.14,1-1.75c.75-1.22,1.6-2.53,2.43-3.74.55-.81,1.09-1.58,1.6-2.25.29-.39.57-.74.83-1.06,1.42-1.74,3.12-3.62,4.9-5.46.89-.92,1.79-1.83,2.69-2.71.72-.7,1.44-1.38,2.14-2l.51-.47c1.51-1.39,3-2.73,4.49-4.06s2.92-2.63,4.27-3.9,2.45-2.33,3.52-3.46a43.33,43.33,0,0,0,2.89-3.31,22,22,0,0,0,2-3,12.87,12.87,0,0,0,.66-1.41,10.72,10.72,0,0,0,.41-1.33,7.65,7.65,0,0,0,.18-1.58,6.53,6.53,0,0,0-.14-1.33,6.43,6.43,0,0,0-.37-1.15,7.44,7.44,0,0,0-.59-1.07h0a9.47,9.47,0,0,0-1.42-1.61,15.54,15.54,0,0,0-2-1.53,36.87,36.87,0,0,0-5.49-2.77c-1.38-.58-2.84-1.15-4.34-1.72h0c-.61-.24-1.23-.46-1.86-.7-1.71-.65-3.44-1.32-5.13-2a43.91,43.91,0,0,1-6.59-3.38,21.23,21.23,0,0,1-3.71-3A14.56,14.56,0,0,1,181.4,175a13,13,0,0,1-1.37-3.88c-.09-.51-.16-1-.2-1.49h0a14.25,14.25,0,0,1-.08-1.45,13.51,13.51,0,0,1,.47-3.52,13.65,13.65,0,0,1,1.26-3,2.46,2.46,0,0,1,4.45,2.09,2.2,2.2,0,0,1-.15.31A8.37,8.37,0,0,0,185,166a7.89,7.89,0,0,0-.29,2.21,8.52,8.52,0,0,0,.05,1c0,.34.08.69.15,1.06a8,8,0,0,0,.85,2.41,9.81,9.81,0,0,0,1.57,2.11,16.23,16.23,0,0,0,2,1.75,24.19,24.19,0,0,0,2.58,1.6,55.37,55.37,0,0,0,6.26,2.83c1.46.58,2.95,1.14,4.44,1.7l.17.07c2,.75,4,1.52,5.88,2.37a34.36,34.36,0,0,1,5.33,2.89,17.42,17.42,0,0,1,3,2.49,13.65,13.65,0,0,1,1.4,1.72,12,12,0,0,1,1,1.86,11,11,0,0,1,.67,2.08,11.76,11.76,0,0,1,.24,2.37,10.19,10.19,0,0,1-.08,1.35,12.33,12.33,0,0,1-.23,1.33,16.2,16.2,0,0,1-1.52,4,25.69,25.69,0,0,1-2.45,3.72h0q-1.52,1.92-3.21,3.69c-.59.61-1.18,1.22-1.81,1.83s-1.25,1.21-1.9,1.83c-1.41,1.31-2.87,2.63-4.35,4s-3,2.68-4.46,4c-1.64,1.49-3.42,3.23-5.12,5s-3.33,3.56-4.63,5.16h0c-.27.33-.6.75-.95,1.22s-.73,1-1.11,1.58c-.78,1.13-1.6,2.38-2.31,3.54-.48.77-.9,1.5-1.25,2.12-.2.35-.36.66-.48.92a2.48,2.48,0,0,1-3.31,1.12Z" fill="url(#Unbenannter_Verlauf_4)"/><path d="M188.65,153.63c-2.54,3.37-1.8,2.47-1.8,2.47" fill="none" stroke="#34e08f" stroke-linecap="round" stroke-miterlimit="10" stroke-width="4.93"/><line x1="208.11" y1="257.81" x2="207.62" y2="258.47" fill="none" stroke="#34e08f" stroke-linecap="round" stroke-miterlimit="10" stroke-width="4.93"/><path d="M202.63,182.62c-4.52-.38-12.15-3.43-14-4.44-8.94-5-8-7.39-2.73-14.47a1.87,1.87,0,0,1-.15.32A8.63,8.63,0,0,0,185,166a7.85,7.85,0,0,0-.29,2.21c0,.31,0,.64,0,1s.08.69.15,1.06a8.06,8.06,0,0,0,.85,2.41,9.81,9.81,0,0,0,1.57,2.11,16.23,16.23,0,0,0,2,1.75,27.12,27.12,0,0,0,2.58,1.6,57.2,57.2,0,0,0,6.26,2.83C199.64,181.5,201.13,182.05,202.63,182.62Z" fill="url(#Unbenannter_Verlauf_5)"/><path d="M196.47,221l.51-.46c1.51-1.39,3-2.74,4.5-4.07s2.91-2.62,4.26-3.89,2.45-2.33,3.53-3.46a43.2,43.2,0,0,0,2.88-3.31,21.16,21.16,0,0,0,2-3,12.87,12.87,0,0,0,.66-1.41,10.72,10.72,0,0,0,.41-1.33,7.2,7.2,0,0,0,.19-1.59,6.53,6.53,0,0,0-.14-1.33,6.43,6.43,0,0,0-.37-1.15,7.44,7.44,0,0,0-.59-1.07h0a9.47,9.47,0,0,0-1.42-1.61,15.54,15.54,0,0,0-2-1.53,36.87,36.87,0,0,0-5.49-2.77c-1.38-.58-2.84-1.15-4.34-1.72h0c-.61-.24-1.23-.46-1.86-.7a2.2,2.2,0,0,1,1.95,0c4.28,2,15.22,4.68,16.5,9.35,3.05,11.1-18.22,23.4-19.54,24.88C197.49,221.56,196.94,221.55,196.47,221Z" fill="url(#Unbenannter_Verlauf_6)"/><path d="M218.65,170.49Z" fill="url(#Unbenannter_Verlauf_12)"/><path d="M213,178.15Z" fill="url(#Unbenannter_Verlauf_12-2)"/><path d="M183.19,199.13Z" fill="url(#Unbenannter_Verlauf_12-3)"/><path d="M218.48,246.4Z" fill="url(#Unbenannter_Verlauf_12-4)"/><path d="M211,254.66a2.46,2.46,0,0,1-.62-3.43h0a34,34,0,0,0,2-3.2,21.9,21.9,0,0,0,1.47-3.28h0a16,16,0,0,0,.67-2.44,13.63,13.63,0,0,0,.23-2.39q0-.37,0-.75a10.55,10.55,0,0,0-.25-1.7h0a10.38,10.38,0,0,0-.76-2.13,10.79,10.79,0,0,0-1.18-1.88h0a14.22,14.22,0,0,0-1.9-2,22.54,22.54,0,0,0-2.41-1.8c-.81-.52-1.68-1-2.6-1.5-1.09-.56-2.23-1.11-3.41-1.64-1-.44-2-.86-3-1.28l-2-.83c-1.91-.79-3.83-1.58-5.67-2.45a36.11,36.11,0,0,1-5.62-3.2,18.15,18.15,0,0,1-3.12-2.76,13.37,13.37,0,0,1-1.79-2.56,12,12,0,0,1-1.12-3h0a10,10,0,0,1-.25-2.25,10.23,10.23,0,0,1,.06-1.12,10.8,10.8,0,0,1,.42-2.11,16.34,16.34,0,0,1,.75-2,22.73,22.73,0,0,1,2.31-3.82,39.34,39.34,0,0,1,3.2-3.75c1.18-1.23,2.46-2.46,3.81-3.67,1.59-1.45,3.28-2.88,5-4.31s3.45-2.87,5.16-4.3,3.3-2.79,4.84-4.18,3-2.78,4.28-4.15h0a38.66,38.66,0,0,0,2.81-3.31,21.12,21.12,0,0,0,2-3.17h0a14.11,14.11,0,0,0,.61-1.38,12.68,12.68,0,0,0,.4-1.33,2.46,2.46,0,1,1,4.8,1.1,17.44,17.44,0,0,1-1.41,3.83,26.51,26.51,0,0,1-2.45,3.92,45.22,45.22,0,0,1-3.17,3.73c-1.41,1.5-3,3-4.56,4.43s-3.28,2.89-5,4.31-3.47,2.88-5.16,4.29l-1.51,1.28c-1.15,1-2.27,1.95-3.33,2.91h0c-1.28,1.16-2.48,2.3-3.55,3.42a34.64,34.64,0,0,0-2.8,3.26h0a17.06,17.06,0,0,0-1.44,2.24,11,11,0,0,0-.85,2,6.49,6.49,0,0,0-.25,1.24c0,.21,0,.41,0,.62a5.18,5.18,0,0,0,.13,1.17,7.22,7.22,0,0,0,.65,1.77,8.23,8.23,0,0,0,1.14,1.61,12.49,12.49,0,0,0,1.64,1.53,20.13,20.13,0,0,0,2.11,1.44,46.06,46.06,0,0,0,5.31,2.66c1.3.57,2.66,1.14,4.05,1.7,1.71.72,3.47,1.44,5.19,2.22,1.22.55,2.43,1.13,3.59,1.77.49.26,1,.53,1.46.82A30.62,30.62,0,0,1,212.9,227a19.54,19.54,0,0,1,3.51,3.47h0a15.6,15.6,0,0,1,1.71,2.75,14.75,14.75,0,0,1,1.12,3.17h0c.1.41.17.83.24,1.24s.11.83.13,1.24,0,.72,0,1.09a16.7,16.7,0,0,1-.32,3.3,20.52,20.52,0,0,1-.86,3.16,27.41,27.41,0,0,1-1.78,4,40.53,40.53,0,0,1-2.27,3.66,2.45,2.45,0,0,1-3.41.6Z" fill="url(#Unbenannter_Verlauf_11)"/><path d="M216.41,230.44Z" fill="url(#Unbenannter_Verlauf_12-5)"/><path d="M210.51,254.21a2.46,2.46,0,0,1-.13-3,32.62,32.62,0,0,0,2-3.19,21.9,21.9,0,0,0,1.47-3.28h0a16,16,0,0,0,.67-2.44,13.72,13.72,0,0,0,.23-2.39c0-.26,0-.5,0-.76a10.89,10.89,0,0,0-.25-1.7h0a10.36,10.36,0,0,0-1.94-4h0a14.22,14.22,0,0,0-1.9-2,20.14,20.14,0,0,0-2.41-1.8c-.81-.52-1.68-1-2.6-1.5,4.42,1.63,7.93,1.87,10.14,6.72C218.76,241.51,214.39,249.57,210.51,254.21Z" fill="url(#Unbenannter_Verlauf_13)"/><path d="M208.36,224.07c-8.09-1.08-24.35-7.36-26.44-12.15-2.33-5.34,6.54-14.33,14.9-19.47q-1.73,1.45-3.32,2.9h0c-1.28,1.17-2.48,2.31-3.56,3.43a32.19,32.19,0,0,0-2.79,3.26h0a17.67,17.67,0,0,0-1.43,2.24,10.84,10.84,0,0,0-.86,2.05,7.35,7.35,0,0,0-.24,1.24,4.17,4.17,0,0,0,0,.61,5.2,5.2,0,0,0,.13,1.18,7.56,7.56,0,0,0,.66,1.77,8.49,8.49,0,0,0,1.13,1.61,12,12,0,0,0,1.65,1.53,21.79,21.79,0,0,0,2.11,1.44,45.26,45.26,0,0,0,5.31,2.66c1.29.57,2.66,1.13,4,1.7,1.72.71,3.48,1.44,5.2,2.22C206,222.85,207.2,223.44,208.36,224.07Z" fill="url(#Unbenannter_Verlauf_14)"/><path d="M247.46,52.45a128.15,128.15,0,0,1-19.2,5q-.56-1.78-1.14-3.54c-.38-1.18-.76-2.34-1.15-3.5-.77-2.32-1.54-4.61-2.33-6.86-.36-1.05-.72-2.08-1.09-3.12q-3-8.47-6.07-16.36c-.36-.92-.71-1.84-1.07-2.75,0-.11-.09-.22-.14-.34-.4-1-.81-2-1.21-3q-2.42-6-4.84-11.67A288.94,288.94,0,0,1,242,44.53c.74,1,1.48,2.09,2.21,3.14s1.45,2.11,2.16,3.17C246.75,51.37,247.11,51.91,247.46,52.45Z" fill="#a3afb5"/><path d="M242,44.53a288.94,288.94,0,0,0-32.8-38.27q2.42,5.64,4.84,11.67c.41,1,.81,2,1.21,3,0,.12.09.23.14.34.36.91.71,1.83,1.07,2.75q3.06,7.89,6.07,16.36c.36,1,.73,2.07,1.09,3.12.79,2.25,1.56,4.54,2.33,6.86.38,1.16.77,2.33,1.15,3.5l1.14,3.54h0a152.94,152.94,0,0,1-27.38,2.41c-18,0-34.68-3-48.52-8.08a288.32,288.32,0,0,1,42.13-49.7,7.62,7.62,0,0,1,10.44,0q2.16,2,4.28,4.13l0-.12.06.06A287.36,287.36,0,0,1,242,44.53Z" fill="#bac9d3"/><path d="M247.47,52.44h0c-.35-.54-.71-1.08-1.07-1.61C246.76,51.37,247.12,51.9,247.47,52.44Z" fill="#bac9d3"/><path d="M298.33,446.85H273.49" fill="none"/><path d="M125.67,446.85H92.33" fill="none"/><path d="M207.59,446.85h-.19" fill="none"/><path d="M96.8,369.05l2.14,19.23a3.76,3.76,0,0,1-3.16,4.13L29.44,402.88a3.76,3.76,0,0,1-4.15-4.9l5.38-16.13a3.73,3.73,0,0,1,2.72-2.47L92.22,365.8A3.75,3.75,0,0,1,96.8,369.05Z" fill="#d38a3c"/><path d="M302.16,371.84,300,391.07a3.76,3.76,0,0,0,3.15,4.13l66.34,10.47a3.76,3.76,0,0,0,4.16-4.9l-5.38-16.13a3.77,3.77,0,0,0-2.72-2.48l-58.83-13.57A3.75,3.75,0,0,0,302.16,371.84Z" fill="#d38a3c"/><path d="M234,560.63l-9.43,25.72c-3.83,10.46-12.65,17.89-22.81,18.46-.48,0-1,0-1.46,0s-1,0-1.45,0c-10.16-.57-19-8-22.82-18.46l-9.42-25.72a32.74,32.74,0,0,1-1.71-15.5c3.09-23.48,17.77-41.28,35.4-41.28s32.32,17.8,35.4,41.28A32.73,32.73,0,0,1,234,560.63Z" fill="#e54c2e"/><polyline points="223.75 594.95 212.62 594.95 188.04 594.95 177.63 594.95" fill="none"/><path d="M226.1,547.86l-7.31,19.93c-3,8.1-9.8,13.86-17.68,14.3-.37,0-.75,0-1.12,0s-.76,0-1.13,0c-7.88-.44-14.71-6.2-17.68-14.3l-7.31-19.93a25.53,25.53,0,0,1-1.32-12c2.39-18.2,14.42-32,28.09-32s24.39,13.79,26.78,32A25.4,25.4,0,0,1,226.1,547.86Z" fill="#f2a13f"/></svg>