<?xml version="1.0" encoding="utf-8"?>
<!-- Generator: Adobe Illustrator 25.1.0, SVG Export Plug-In . SVG Version: 6.00 Build 0)  -->
<svg version="1.1" id="Layer_1" xmlns="http://www.w3.org/2000/svg" xmlns:xlink="http://www.w3.org/1999/xlink" x="0px" y="0px"
	 viewBox="0 0 675.7 168" style="enable-background:new 0 0 675.7 168;" xml:space="preserve">
<style type="text/css">
	.st0{fill:none;stroke:#38A0F5;stroke-width:15;stroke-linecap:round;stroke-miterlimit:10;}
	.st1{fill:none;stroke:#F2A13F;stroke-width:15;stroke-linecap:round;stroke-miterlimit:10;}
	.st2{fill:none;stroke:#2ED265;stroke-width:15;stroke-linecap:round;stroke-miterlimit:10;}
	.st3{fill:none;stroke:#F55656;stroke-width:15;stroke-linecap:round;stroke-miterlimit:10;}
	.st4{fill:none;stroke:#34E08F;stroke-width:20;stroke-linecap:round;stroke-miterlimit:10;}
</style>
<g>
	<line class="st0" x1="153" y1="62.5" x2="153" y2="17.3"/>
	<line class="st1" x1="153" y1="130.5" x2="153" y2="77.5"/>
	<line class="st0" x1="471" y1="57.5" x2="471" y2="12.3"/>
	<line class="st1" x1="471" y1="125.5" x2="471" y2="72.5"/>
	<line class="st0" x1="527" y1="88.5" x2="527" y2="43.3"/>
	<line class="st1" x1="527" y1="156.5" x2="527" y2="103.5"/>
	<line class="st0" x1="365" y1="80.5" x2="365" y2="26.5"/>
	<line class="st1" x1="365" y1="148.5" x2="365" y2="95.5"/>
	<line class="st2" x1="205" y1="88.5" x2="205" y2="43.3"/>
	<line class="st3" x1="205" y1="153.5" x2="205" y2="103.5"/>
	<line class="st2" x1="315" y1="87.3" x2="315" y2="141.5"/>
	<line class="st3" x1="315" y1="16.5" x2="315" y2="72.3"/>
	<g>
		<path class="st4" d="M665.7,158c-56.4,0-133-148-189.5-148c-65.5,0-64.9,148-129.8,148h-0.7c-56.4,0-133-148-189.5-148
			C90.7,10,91.3,158,26.4,158"/>
		<path class="st4" d="M10,10c56.4,0,133,148,189.5,148c65.5,0,64.9-148,129.8-148h0.7c56.4,0,133,148,189.5,148
			c65.5,0,64.9-148,129.8-148"/>
	</g>
</g>
</svg>
