<svg id="Ebene_1" data-name="Ebene 1" xmlns="http://www.w3.org/2000/svg" viewBox="0 0 388.02 67.45"><line x1="21.34" y1="27.35" x2="21.34" y2="4.61" fill="none" stroke="#f55656" stroke-linecap="round" stroke-miterlimit="10" stroke-width="6.82"/><path d="M75,217.33h32.5" transform="translate(-69.99 -212.83)" fill="none" stroke="#34e08f" stroke-linecap="round" stroke-miterlimit="10" stroke-width="8.99"/><text transform="translate(0 55.91)" font-size="20" fill="#e8ecd7" font-family="LouisGeorgeCafe-Bold, Louis George Café" font-weight="700">DNA</text><text transform="translate(42.29 62.57) scale(0.58)" font-size="20" fill="#e8ecd7" font-family="LouisGeorgeCafe-Bold, Louis George Café" font-weight="700">0</text><line x1="149.34" y1="27.39" x2="149.34" y2="4.65" fill="none" stroke="#f55656" stroke-linecap="round" stroke-miterlimit="10" stroke-width="6.82"/><line x1="178.34" y1="27.39" x2="178.34" y2="4.65" fill="none" stroke="#38a0f5" stroke-linecap="round" stroke-miterlimit="10" stroke-width="6.82"/><path d="M201.09,217.85h65" transform="translate(-69.99 -212.83)" fill="none" stroke="#34e08f" stroke-linecap="round" stroke-miterlimit="10" stroke-width="8.99"/><line x1="305.93" y1="27.39" x2="305.93" y2="4.65" fill="none" stroke="#f55656" stroke-linecap="round" stroke-miterlimit="10" stroke-width="6.82"/><line x1="334.93" y1="27.39" x2="334.93" y2="4.65" fill="none" stroke="#38a0f5" stroke-linecap="round" stroke-miterlimit="10" stroke-width="6.82"/><line x1="365.43" y1="27.39" x2="365.43" y2="4.65" fill="none" stroke="#f2a13f" stroke-linecap="round" stroke-miterlimit="10" stroke-width="6.82"/><path d="M356,217.33h97.5" transform="translate(-69.99 -212.83)" fill="none" stroke="#34e08f" stroke-linecap="round" stroke-miterlimit="10" stroke-width="8.99"/><text transform="translate(309.17 54.82)" font-size="20" fill="#e8ecd7" font-family="LouisGeorgeCafe-Bold, Louis George Café" font-weight="700">DNA</text><text transform="translate(351.45 61.48) scale(0.58)" font-size="20" fill="#e8ecd7" font-family="LouisGeorgeCafe-Bold, Louis George Café" font-weight="700">2</text><text transform="translate(140.17 55.82)" font-size="20" fill="#e8ecd7" font-family="LouisGeorgeCafe-Bold, Louis George Café" font-weight="700">DNA</text><text transform="translate(182.45 62.48) scale(0.58)" font-size="20" fill="#e8ecd7" font-family="LouisGeorgeCafe-Bold, Louis George Café" font-weight="700">1</text><line x1="75.52" y1="5.49" x2="95.87" y2="5.49" fill="#e8ecd7" stroke="#e8ecd7" stroke-linecap="round" stroke-miterlimit="10" stroke-width="4"/><line x1="231.56" y1="5.89" x2="251.9" y2="5.89" fill="#e8ecd7" stroke="#e8ecd7" stroke-linecap="round" stroke-miterlimit="10" stroke-width="4"/><path d="M164.25,214.21V223a1.05,1.05,0,0,0,1.58.91l7.65-4.41a1.06,1.06,0,0,0,0-1.83l-7.65-4.41A1.05,1.05,0,0,0,164.25,214.21Z" transform="translate(-69.99 -212.83)" fill="#e8ecd7" stroke="#e8ecd7" stroke-linecap="round" stroke-miterlimit="10" stroke-width="0.58"/><path d="M319.61,214.73v8.82a1.06,1.06,0,0,0,1.59.92l7.64-4.42a1.05,1.05,0,0,0,0-1.82l-7.64-4.42A1.06,1.06,0,0,0,319.61,214.73Z" transform="translate(-69.99 -212.83)" fill="#e8ecd7" stroke="#e8ecd7" stroke-linecap="round" stroke-miterlimit="10" stroke-width="0.58"/></svg>