<?xml version="1.0" encoding="utf-8"?>
<!-- Generator: Adobe Illustrator 24.0.2, SVG Export Plug-In . SVG Version: 6.00 Build 0)  -->
<svg version="1.1" id="Publicdomainvectors.org" xmlns="http://www.w3.org/2000/svg" xmlns:xlink="http://www.w3.org/1999/xlink"
	 x="0px" y="0px" viewBox="0 0 320.7 304.5" style="enable-background:new 0 0 320.7 304.5;" xml:space="preserve">
<style type="text/css">
	.st0{fill-rule:evenodd;clip-rule:evenodd;fill:#323033;}
	.st1{fill-rule:evenodd;clip-rule:evenodd;fill:#B97D2F;}
	.st2{fill-rule:evenodd;clip-rule:evenodd;fill:#F2A13F;}
	.st3{fill-rule:evenodd;clip-rule:evenodd;fill:#CD8A35;}
	.st4{fill-rule:evenodd;clip-rule:evenodd;fill:#AF762B;}
	.st5{fill-rule:evenodd;clip-rule:evenodd;fill:#182632;}
</style>
<g>
	<g>
		<rect x="12.5" y="58.8" class="st0" width="294.6" height="19.1"/>
		<rect x="22.7" y="43.6" class="st1" width="275.3" height="49.3"/>
		<polygon class="st2" points="28,10.8 292.7,10.8 264.5,304.5 56.1,304.5 		"/>
		<path class="st1" d="M278.9,154.6l-3.3,34.6c-29.2,19.3-70,28.6-115.3,23.3C113.6,207,71.5,187,42.2,159.6l-3.5-36
			c25,28.2,70.1,50.3,121.5,56.3C209.8,185.7,253.4,175.2,278.9,154.6z"/>
		<path class="st3" d="M45,0h230.6C290.7,0,303,12.3,303,27.4v4.1H17.7v-4.1C17.7,12.3,30,0,45,0z"/>
		<path class="st4" d="M37.5,110.1c-1-75.5,238.3-66.4,239.4,65.2l13.8-143.8H29.9L37.5,110.1z"/>
		<path class="st5" d="M320.7,58.8c0,66.6-71.8,120.5-160.3,120.5C71.8,179.3,0,125.4,0,58.8h17.9c0,48.6,63.8,88,142.4,88
			c78.7,0,142.4-39.4,142.4-88H320.7z"/>
	</g>
</g>
</svg>
