<svg id="Ebene_1" data-name="Ebene 1" xmlns="http://www.w3.org/2000/svg" xmlns:xlink="http://www.w3.org/1999/xlink" viewBox="0 0 393.43 607.71"><defs><linearGradient id="Unbenannter_Verlauf_4" x1="558.05" y1="1091.62" x2="642.78" y2="1091.62" gradientTransform="translate(1292.66 -364.84) rotate(90)" gradientUnits="userSpaceOnUse"><stop offset="0.12" stop-color="#34e08f"/><stop offset="0.59" stop-color="#34df8d"/><stop offset="0.76" stop-color="#33dd86"/><stop offset="0.87" stop-color="#31d97b"/><stop offset="0.97" stop-color="#2fd36a"/><stop offset="0.99" stop-color="#2ed266"/></linearGradient><linearGradient id="Unbenannter_Verlauf_5" x1="561.41" y1="1099.37" x2="580.32" y2="1099.37" gradientTransform="translate(1292.66 -364.84) rotate(90)" gradientUnits="userSpaceOnUse"><stop offset="0" stop-color="#2ed265"/><stop offset="0.45" stop-color="#2ed367"/><stop offset="0.61" stop-color="#2fd56e"/><stop offset="0.72" stop-color="#31d979"/><stop offset="0.82" stop-color="#33de8a"/><stop offset="0.9" stop-color="#36e6a0"/><stop offset="0.96" stop-color="#3aeebb"/><stop offset="1" stop-color="#3cf4cc"/></linearGradient><linearGradient id="Unbenannter_Verlauf_6" x1="584.07" y1="1084.46" x2="619.1" y2="1084.46" gradientTransform="translate(1292.66 -364.84) rotate(90)" gradientUnits="userSpaceOnUse"><stop offset="0" stop-color="#2ed265"/><stop offset="0.39" stop-color="#2ed368"/><stop offset="0.64" stop-color="#30d670"/><stop offset="0.85" stop-color="#32db7f"/><stop offset="1" stop-color="#34e08f"/></linearGradient><linearGradient id="Unbenannter_Verlauf_12" x1="199.19" y1="774.92" x2="199.19" y2="774.92" gradientTransform="translate(994.57 4.16) rotate(90)" gradientUnits="userSpaceOnUse"><stop offset="0" stop-color="#3cf4cc"/><stop offset="0.09" stop-color="#39edb8"/><stop offset="0.21" stop-color="#37e7a5"/><stop offset="0.35" stop-color="#35e399"/><stop offset="0.53" stop-color="#34e191"/><stop offset="0.93" stop-color="#34e08f"/></linearGradient><linearGradient id="Unbenannter_Verlauf_12-2" x1="206.85" y1="780.54" x2="206.85" y2="780.54" xlink:href="#Unbenannter_Verlauf_12"/><linearGradient id="Unbenannter_Verlauf_12-3" x1="227.83" y1="810.39" x2="227.83" y2="810.39" xlink:href="#Unbenannter_Verlauf_12"/><linearGradient id="Unbenannter_Verlauf_12-4" x1="275.1" y1="775.09" x2="275.1" y2="775.09" xlink:href="#Unbenannter_Verlauf_12"/><linearGradient id="Unbenannter_Verlauf_11" x1="561.37" y1="1091.79" x2="652.8" y2="1091.79" gradientTransform="translate(1292.66 -364.84) rotate(90)" gradientUnits="userSpaceOnUse"><stop offset="0" stop-color="#3cf4cc"/><stop offset="0" stop-color="#3cf3ca"/><stop offset="0.05" stop-color="#39ecb4"/><stop offset="0.1" stop-color="#37e7a3"/><stop offset="0.17" stop-color="#35e398"/><stop offset="0.26" stop-color="#34e191"/><stop offset="0.52" stop-color="#34e08f"/></linearGradient><linearGradient id="Unbenannter_Verlauf_12-5" x1="259.14" y1="777.16" x2="259.14" y2="777.16" xlink:href="#Unbenannter_Verlauf_12"/><linearGradient id="Unbenannter_Verlauf_13" x1="625.89" y1="1080.49" x2="651.9" y2="1080.49" gradientTransform="translate(1292.66 -364.84) rotate(90)" gradientUnits="userSpaceOnUse"><stop offset="0" stop-color="#2ed265"/><stop offset="0.36" stop-color="#2ed368"/><stop offset="0.59" stop-color="#30d670"/><stop offset="0.78" stop-color="#32db7f"/><stop offset="0.92" stop-color="#34e08f"/></linearGradient><linearGradient id="Unbenannter_Verlauf_14" x1="590.15" y1="1096.71" x2="621.77" y2="1096.71" gradientTransform="translate(1292.66 -364.84) rotate(90)" gradientUnits="userSpaceOnUse"><stop offset="0" stop-color="#34e08f"/><stop offset="0.15" stop-color="#35e399"/><stop offset="0.7" stop-color="#39eeba"/><stop offset="1" stop-color="#3bf2c6"/><stop offset="1" stop-color="#3cf4cc" stop-opacity="0.52"/><stop offset="1" stop-color="#3cf4cc" stop-opacity="0.5"/></linearGradient></defs><path d="M116,294.89,26.76,340a3.82,3.82,0,0,0-1.91,2.24L.18,419.88a3.82,3.82,0,0,0,4.2,4.93l137.86-20.49a3.81,3.81,0,0,0,3.15-4.64L121.44,297.43A3.81,3.81,0,0,0,116,294.89Z" fill="#f2a13f"/><path d="M277.42,295.22l89.25,45.09a3.83,3.83,0,0,1,1.91,2.25l24.67,77.65a3.82,3.82,0,0,1-4.2,4.93l-137.86-20.5A3.81,3.81,0,0,1,248,400l24-102.25A3.81,3.81,0,0,1,277.42,295.22Z" fill="#f2a13f"/><path d="M242.1,45.94a102.91,102.91,0,0,1-21.27,7.87A504.87,504.87,0,0,0,198.83,0a7.55,7.55,0,0,1,4.72,2A290,290,0,0,1,242.1,45.94Z" fill="#aebac1"/><path d="M263.79,479.19a7.6,7.6,0,0,1-6.91,4.52l-85.56.48c34-53,71.23-134.28,76.41-241a506.12,506.12,0,0,0-26.9-189.4,102.91,102.91,0,0,0,21.27-7.87c37.45,52.61,56,117.33,56.42,196.21C298.88,306.23,286.72,427.51,263.79,479.19Z" fill="#cecece"/><path d="M220.83,53.81a99.17,99.17,0,0,1-26.5,2.9,100.73,100.73,0,0,1-39.93-9.35A289.45,289.45,0,0,1,193.11,2.1,7.51,7.51,0,0,1,198.83,0,504.87,504.87,0,0,1,220.83,53.81Z" fill="#bac9d3"/><path d="M247.73,243.21c-5.18,106.7-42.42,187.94-76.41,241l-26.15.15a7.61,7.61,0,0,1-7-4.45c-23.51-51.41-37-172.56-37.38-236.64-.44-78.41,17.16-143,53.57-195.89a100.73,100.73,0,0,0,39.93,9.35,99.17,99.17,0,0,0,26.5-2.9A506.12,506.12,0,0,1,247.73,243.21Z" fill="#e4e8eb"/><circle cx="200.83" cy="238.21" r="72.5" fill="#39464f" stroke="#bac9d3" stroke-miterlimit="10" stroke-width="18.91"/><path d="M218.62,233.45H186.16a50.83,50.83,0,0,1,6.68-7.06h24.5a8.54,8.54,0,0,1,1.33,3.08A8.91,8.91,0,0,1,218.62,233.45Z" fill="#3cf4cc"/><path d="M208.44,247.24h-22.8a10.16,10.16,0,0,1-2.35-4.47,7.78,7.78,0,0,1-.14-2.59H215.1A63.9,63.9,0,0,1,208.44,247.24Z" fill="#f2a13f"/><path d="M212.24,209.31H186.53a11,11,0,0,1-3.07-5.79c-.09-.43-.14-.86-.19-1.27h34.18A30.4,30.4,0,0,1,212.24,209.31Z" fill="#3cf4cc"/><path d="M218.16,271.87H185.62a37.5,37.5,0,0,1,4.67-7.06h25.17a12.63,12.63,0,0,1,2.39,5A13.46,13.46,0,0,1,218.16,271.87Z" fill="#3cf4cc"/><path d="M189.69,189.65" fill="none" stroke="#34e08f" stroke-linecap="round" stroke-miterlimit="10" stroke-width="4.93"/><path d="M182.16,277.69a2.46,2.46,0,0,1-1.13-3.3c.23-.46.5-1,.82-1.52s.66-1.14,1-1.75c.75-1.22,1.6-2.53,2.43-3.74.55-.81,1.09-1.58,1.6-2.25.29-.39.57-.74.83-1.06,1.42-1.74,3.12-3.62,4.9-5.46.89-.92,1.79-1.83,2.69-2.71.72-.71,1.44-1.39,2.14-2l.51-.46c1.51-1.39,3-2.74,4.49-4.07s2.92-2.62,4.27-3.89,2.45-2.33,3.52-3.46a43.33,43.33,0,0,0,2.89-3.31,22,22,0,0,0,2-3,12.87,12.87,0,0,0,.66-1.41,10.72,10.72,0,0,0,.41-1.33,7.67,7.67,0,0,0,.18-1.59,6.18,6.18,0,0,0-.51-2.48,6.84,6.84,0,0,0-.59-1.06h0a9.1,9.1,0,0,0-1.42-1.61,15.54,15.54,0,0,0-2-1.53,36.87,36.87,0,0,0-5.49-2.77c-1.38-.59-2.84-1.15-4.34-1.72h0l-1.86-.71c-1.71-.64-3.44-1.31-5.13-2a43,43,0,0,1-6.59-3.39,20.74,20.74,0,0,1-3.71-3,14.39,14.39,0,0,1-2.35-3.18A13,13,0,0,1,181,204c-.09-.51-.16-1-.2-1.49h0a14.25,14.25,0,0,1-.08-1.45,13.51,13.51,0,0,1,.47-3.52,13.65,13.65,0,0,1,1.26-3,2.46,2.46,0,0,1,4.45,2.08,1.87,1.87,0,0,1-.15.32,8.29,8.29,0,0,0-.8,1.92,8,8,0,0,0-.29,2.22,8.63,8.63,0,0,0,.05,1c0,.34.08.69.15,1.06a8.06,8.06,0,0,0,.85,2.41,9.81,9.81,0,0,0,1.57,2.11,16.23,16.23,0,0,0,2,1.75,25.91,25.91,0,0,0,2.58,1.6,57.2,57.2,0,0,0,6.26,2.83c1.46.57,2.95,1.13,4.44,1.7l.17.06c2,.76,4,1.53,5.88,2.38A33.54,33.54,0,0,1,215,220.8a17.83,17.83,0,0,1,3,2.48,13.75,13.75,0,0,1,1.4,1.73,12,12,0,0,1,1,1.86,10.74,10.74,0,0,1,.67,2.08,11.74,11.74,0,0,1,.24,2.36,10.34,10.34,0,0,1-.08,1.36A12.77,12.77,0,0,1,221,234a16.13,16.13,0,0,1-1.52,4,25.79,25.79,0,0,1-2.45,3.73h0q-1.52,1.92-3.21,3.69c-.59.6-1.18,1.22-1.81,1.83l-1.9,1.83c-1.41,1.31-2.87,2.63-4.35,4s-3,2.68-4.46,4c-1.64,1.5-3.42,3.24-5.12,5s-3.33,3.56-4.63,5.16h0c-.27.33-.6.74-.95,1.22s-.73,1-1.11,1.58c-.78,1.13-1.6,2.38-2.31,3.54-.48.77-.9,1.5-1.25,2.11-.2.36-.36.67-.48.92a2.48,2.48,0,0,1-3.31,1.13Z" fill="url(#Unbenannter_Verlauf_4)"/><path d="M189.65,186.49c-2.54,3.37-1.8,2.46-1.8,2.46" fill="none" stroke="#34e08f" stroke-linecap="round" stroke-miterlimit="10" stroke-width="4.93"/><line x1="209.11" y1="290.67" x2="208.62" y2="291.32" fill="none" stroke="#34e08f" stroke-linecap="round" stroke-miterlimit="10" stroke-width="4.93"/><path d="M203.63,215.48c-4.52-.38-12.15-3.43-14-4.44-8.94-5-8-7.39-2.73-14.47a1.77,1.77,0,0,1-.15.31,9,9,0,0,0-.8,1.93,8,8,0,0,0-.29,2.22c0,.31,0,.64,0,1a10.38,10.38,0,0,0,.15,1.06,8,8,0,0,0,.85,2.42,10.07,10.07,0,0,0,1.57,2.11,16.23,16.23,0,0,0,2,1.75,27.12,27.12,0,0,0,2.58,1.6,59.16,59.16,0,0,0,6.26,2.83C200.64,214.35,202.13,214.91,203.63,215.48Z" fill="url(#Unbenannter_Verlauf_5)"/><path d="M197.47,253.87l.51-.47c1.51-1.38,3-2.73,4.5-4.06s2.91-2.63,4.26-3.89,2.45-2.33,3.53-3.46,2-2.16,2.88-3.31a22.34,22.34,0,0,0,2-3,12.87,12.87,0,0,0,.66-1.41,10.72,10.72,0,0,0,.41-1.33,7.21,7.21,0,0,0,.19-1.6,6.18,6.18,0,0,0-.51-2.48,6.84,6.84,0,0,0-.59-1.06h0a9.1,9.1,0,0,0-1.42-1.61,15.54,15.54,0,0,0-2-1.53,36.87,36.87,0,0,0-5.49-2.77c-1.38-.59-2.84-1.15-4.34-1.72h0l-1.86-.71a2.27,2.27,0,0,1,1.95,0c4.28,2,15.22,4.69,16.5,9.36,3.05,11.1-18.22,23.4-19.54,24.88C198.49,254.41,197.94,254.41,197.47,253.87Z" fill="url(#Unbenannter_Verlauf_6)"/><path d="M219.65,203.35Z" fill="url(#Unbenannter_Verlauf_12)"/><path d="M214,211Z" fill="url(#Unbenannter_Verlauf_12-2)"/><path d="M184.19,232Z" fill="url(#Unbenannter_Verlauf_12-3)"/><path d="M219.48,279.26Z" fill="url(#Unbenannter_Verlauf_12-4)"/><path d="M212,287.51a2.46,2.46,0,0,1-.62-3.43h0a32.62,32.62,0,0,0,2-3.19,21.9,21.9,0,0,0,1.47-3.28h0a16,16,0,0,0,.67-2.44,13.72,13.72,0,0,0,.23-2.39c0-.26,0-.5,0-.76a10.89,10.89,0,0,0-.25-1.7h0a10.29,10.29,0,0,0-.76-2.12,10.43,10.43,0,0,0-1.18-1.88h0a14.22,14.22,0,0,0-1.9-2,20.14,20.14,0,0,0-2.41-1.8c-.81-.52-1.68-1-2.6-1.5-1.09-.57-2.23-1.11-3.41-1.64-1-.44-2-.86-3-1.28l-2-.83c-1.91-.79-3.83-1.59-5.67-2.46a36.07,36.07,0,0,1-5.62-3.19,18.21,18.21,0,0,1-3.12-2.77,13.3,13.3,0,0,1-1.79-2.55,12,12,0,0,1-1.12-3h0a10.08,10.08,0,0,1-.25-2.25,10.55,10.55,0,0,1,.06-1.13,10.85,10.85,0,0,1,.42-2.1,16.34,16.34,0,0,1,.75-2,22.73,22.73,0,0,1,2.31-3.82,39.47,39.47,0,0,1,3.2-3.76c1.18-1.23,2.46-2.45,3.81-3.66,1.59-1.45,3.28-2.88,5-4.31s3.45-2.87,5.16-4.3,3.3-2.79,4.84-4.18,3-2.78,4.28-4.15h0a38.66,38.66,0,0,0,2.81-3.31,21.12,21.12,0,0,0,2-3.17h0a13.29,13.29,0,0,0,.61-1.39,11.83,11.83,0,0,0,.4-1.32,2.46,2.46,0,1,1,4.8,1.1,17.63,17.63,0,0,1-1.41,3.83,26.41,26.41,0,0,1-2.45,3.91A43.76,43.76,0,0,1,214,211c-1.41,1.5-3,3-4.56,4.42s-3.28,2.89-5,4.31-3.47,2.89-5.16,4.3c-.51.42-1,.85-1.51,1.28-1.15,1-2.27,1.94-3.33,2.9h0c-1.28,1.17-2.48,2.31-3.55,3.43a33.42,33.42,0,0,0-2.8,3.26h0a17.75,17.75,0,0,0-1.44,2.24,10.81,10.81,0,0,0-.85,2.05,6.49,6.49,0,0,0-.25,1.24c0,.2,0,.41,0,.61a5.2,5.2,0,0,0,.13,1.18,7.53,7.53,0,0,0,.65,1.77,8.23,8.23,0,0,0,1.14,1.61,12.49,12.49,0,0,0,1.64,1.53,21.79,21.79,0,0,0,2.11,1.44,46.06,46.06,0,0,0,5.31,2.66c1.3.57,2.66,1.13,4.05,1.7,1.71.72,3.47,1.44,5.19,2.22,1.22.55,2.43,1.13,3.59,1.76.49.27,1,.54,1.46.82a30.71,30.71,0,0,1,3.07,2.09,19.82,19.82,0,0,1,3.51,3.46h0a16,16,0,0,1,1.71,2.75,14.83,14.83,0,0,1,1.12,3.18h0c.1.41.17.83.24,1.24s.11.83.13,1.24,0,.72,0,1.08a16.56,16.56,0,0,1-.32,3.3,20.33,20.33,0,0,1-.86,3.17,27.78,27.78,0,0,1-1.78,4,37.92,37.92,0,0,1-2.27,3.66,2.45,2.45,0,0,1-3.41.6Z" fill="url(#Unbenannter_Verlauf_11)"/><path d="M217.41,263.3Z" fill="url(#Unbenannter_Verlauf_12-5)"/><path d="M211.51,287.06a2.45,2.45,0,0,1-.13-3,33.86,33.86,0,0,0,2-3.19,21.57,21.57,0,0,0,1.47-3.29h0a15.91,15.91,0,0,0,.67-2.43,13.72,13.72,0,0,0,.23-2.39c0-.26,0-.5,0-.76a10.89,10.89,0,0,0-.25-1.7h0a10.29,10.29,0,0,0-.76-2.12,10.43,10.43,0,0,0-1.18-1.88h0a13.69,13.69,0,0,0-1.9-2,20.14,20.14,0,0,0-2.41-1.8,28.1,28.1,0,0,0-2.6-1.5c4.42,1.62,7.93,1.87,10.14,6.71C219.76,274.36,215.39,282.42,211.51,287.06Z" fill="url(#Unbenannter_Verlauf_13)"/><path d="M209.36,256.93c-8.09-1.09-24.35-7.37-26.44-12.15-2.33-5.34,6.54-14.34,14.9-19.48q-1.73,1.47-3.32,2.91h0c-1.28,1.17-2.48,2.31-3.56,3.42a34.53,34.53,0,0,0-2.79,3.26h0a17,17,0,0,0-1.43,2.24,11,11,0,0,0-.86,2,7.75,7.75,0,0,0-.24,1.24,4.3,4.3,0,0,0,0,.62,5.12,5.12,0,0,0,.13,1.17,7.47,7.47,0,0,0,.66,1.78,8.82,8.82,0,0,0,1.13,1.61,12.55,12.55,0,0,0,1.65,1.52,21.89,21.89,0,0,0,2.11,1.45,48.6,48.6,0,0,0,5.31,2.66c1.29.56,2.66,1.13,4,1.7,1.72.71,3.48,1.43,5.2,2.21C207,255.71,208.2,256.29,209.36,256.93Z" fill="url(#Unbenannter_Verlauf_14)"/><path d="M298.33,449.71H273.49" fill="none"/><path d="M125.67,449.71H92.33" fill="none"/><path d="M207.59,449.71h-.19" fill="none"/><path d="M96.8,371.91l2.14,19.23a3.77,3.77,0,0,1-3.16,4.13L29.44,405.74a3.76,3.76,0,0,1-4.15-4.9l5.38-16.13a3.77,3.77,0,0,1,2.72-2.48l58.83-13.57A3.75,3.75,0,0,1,96.8,371.91Z" fill="#d38a3c"/><path d="M302.16,374.7,300,393.93a3.77,3.77,0,0,0,3.15,4.13l66.34,10.47a3.76,3.76,0,0,0,4.16-4.9l-5.38-16.13a3.75,3.75,0,0,0-2.72-2.48l-58.83-13.57A3.75,3.75,0,0,0,302.16,374.7Z" fill="#d38a3c"/><path d="M237,563.49l-9.43,25.72c-3.83,10.46-12.65,17.89-22.81,18.46-.48,0-1,0-1.46,0s-1,0-1.45,0c-10.16-.57-19-8-22.82-18.46l-9.42-25.72a32.75,32.75,0,0,1-1.71-15.5c3.09-23.49,17.77-41.28,35.4-41.28s32.32,17.79,35.4,41.28A32.75,32.75,0,0,1,237,563.49Z" fill="#e54c2e"/><polyline points="223.75 597.81 212.62 597.81 188.04 597.81 177.63 597.81" fill="none"/><path d="M229.1,550.71l-7.31,19.94c-3,8.1-9.8,13.86-17.68,14.3-.37,0-.75,0-1.12,0s-.76,0-1.13,0c-7.88-.44-14.71-6.2-17.68-14.3l-7.31-19.94a25.49,25.49,0,0,1-1.32-12c2.39-18.2,14.42-32,28.09-32s24.39,13.79,26.78,32A25.36,25.36,0,0,1,229.1,550.71Z" fill="#f2a13f"/></svg>