<?xml version="1.0" encoding="utf-8"?>
<!-- Generator: Adobe Illustrator 24.0.2, SVG Export Plug-In . SVG Version: 6.00 Build 0)  -->
<svg version="1.1"
	 id="Layer_1" xmlns:krita="http://krita.org/namespaces/svg/krita" xmlns:sodipodi="http://sodipodi.sourceforge.net/DTD/sodipodi-0.dtd"
	 xmlns="http://www.w3.org/2000/svg" xmlns:xlink="http://www.w3.org/1999/xlink" x="0px" y="0px" viewBox="0 0 433.9 54.6"
	 style="enable-background:new 0 0 433.9 54.6;" xml:space="preserve">
<style type="text/css">
	.st0{enable-background:new    ;}
	.st1{fill:#E8ECD7;}
</style>
<g class="st0">
	<path class="st1" d="M8.1,49.8c-0.4,1.4-1,2.4-1.8,3s-2,0.9-3.6,0.9H0.9c-0.3,0-0.5-0.1-0.6-0.3S0,52.9,0,52.7s0.1-0.6,0.2-0.9
		c0.1-0.4,0.3-0.9,0.5-1.5l9.9-32.4c0.6-1.9,1.1-3.4,1.6-4.7c0.5-1.2,0.9-2.3,1.3-3.1c0.4-0.8,0.8-1.5,1.2-1.9
		c0.4-0.5,0.8-0.9,1.2-1.2c0.8-0.7,1.8-1.2,3.2-1.6c1.4-0.4,3.1-0.6,5.3-0.6c2.2,0,3.9,0.2,5.1,0.5c1.2,0.3,2.2,0.8,3,1.5
		c0.3,0.3,0.7,0.7,1,1.2c0.4,0.5,0.7,1.2,1.2,2c0.4,0.8,0.8,1.8,1.2,3.1c0.4,1.2,0.9,2.8,1.4,4.5l9.6,33.3c0.2,0.6,0.3,1.1,0.4,1.3
		c0,0.2,0.1,0.5,0.1,0.8c0,0.5-0.3,0.8-1,0.8h-2.5c-1.5,0-2.6-0.3-3.3-0.9c-0.7-0.6-1.3-1.6-1.7-3.2l-3.2-11.1
		c-0.3-0.8-0.6-1.4-1.1-1.7s-1.3-0.5-2.7-0.5H15c-1.2,0-2,0.2-2.5,0.5c-0.5,0.3-0.9,1.1-1.3,2.2L8.1,49.8z M32.7,29
		c0-0.3-0.1-0.8-0.3-1.4c-0.2-0.6-0.4-1.5-0.6-2.4L30,18.6c-0.6-2.2-1.1-3.7-1.5-4.6s-0.8-1.6-1.2-2c-0.4-0.3-0.8-0.5-1.4-0.6
		c-0.5-0.1-1.2-0.2-2.1-0.2c-0.9,0-1.6,0.1-2.1,0.3c-0.5,0.2-1,0.4-1.4,0.6c-0.2,0.2-0.5,0.4-0.7,0.7c-0.2,0.3-0.5,0.7-0.7,1.2
		c-0.3,0.5-0.5,1.2-0.8,1.9s-0.6,1.8-0.9,2.9l-1.9,6.6c-0.2,0.8-0.4,1.5-0.6,2.2c-0.1,0.6-0.2,1.1-0.2,1.3c0,0.6,0.2,1,0.5,1.2
		c0.3,0.2,1.1,0.4,2.2,0.4h13.2c1,0,1.7-0.1,1.9-0.4S32.7,29.4,32.7,29z"/>
	<path class="st1" d="M67.6,22c-1.4,0-2.3,0.2-2.7,0.6c-0.4,0.4-0.5,1.3-0.5,2.7v15.3c0,2.1,0.1,3.5,0.3,4.4c0.2,0.9,0.5,1.5,1,1.9
		c0.5,0.4,1.2,0.7,2.2,0.9c1,0.2,2.4,0.3,4.1,0.3c1.4,0,2.7,0,3.9-0.1c1.2-0.1,2.2-0.2,3.1-0.4c0.2,0,0.5,0,0.7,0.2
		c0.2,0.2,0.3,0.4,0.3,0.7c0,0.4-0.1,0.9-0.3,1.3c-0.2,0.5-0.4,0.9-0.7,1.3s-0.6,0.8-1,1.2c-0.4,0.3-0.7,0.6-1,0.8
		c-0.5,0.3-1.4,0.5-2.6,0.7c-1.2,0.2-3,0.3-5.3,0.3c-2.5,0-4.6-0.2-6.1-0.6c-1.5-0.4-2.7-1-3.5-1.7c-0.4-0.4-0.7-0.8-1-1.3
		c-0.3-0.5-0.5-1.1-0.6-1.8c-0.2-0.7-0.3-1.6-0.4-2.6c-0.1-1-0.1-2.3-0.1-3.9V25.1c0-1.5-0.2-2.4-0.6-2.7c-0.4-0.3-1.1-0.5-2.2-0.5
		h-3.1c-0.3,0-0.5-0.1-0.6-0.3c-0.1-0.2-0.2-0.3-0.2-0.5c0-0.4,0.1-0.9,0.2-1.4s0.3-1,0.5-1.4c0.2-0.4,0.5-0.8,0.7-1.2
		c0.3-0.3,0.5-0.6,0.7-0.7c0.5-0.2,1.2-0.4,2-0.4h1c1.1,0,1.6-0.7,1.6-2v-3.2c0-1,0-1.7,0.1-2.2c0.1-0.5,0.2-0.9,0.4-1.1
		c0.3-0.3,0.9-0.7,1.7-1c0.8-0.3,2-0.6,3.5-0.8C64,5.8,64.4,6.2,64.4,7v5.2c0,0.9,0,1.6,0.1,2.2c0.1,0.5,0.2,0.9,0.5,1.2
		c0.2,0.3,0.6,0.4,1.1,0.5c0.5,0.1,1.2,0.1,2.1,0.1h14.5c0.7,0,1.1-0.2,1.4-0.5c0.3-0.3,0.4-0.8,0.4-1.5v-3.2c0-1.8,0.2-2.9,0.6-3.3
		c0.3-0.3,0.9-0.7,1.7-1c0.8-0.3,2-0.6,3.5-0.8c0.7-0.1,1.1,0.3,1.1,1.1v5.2c0,0.9,0,1.6,0.1,2.2s0.2,0.9,0.5,1.2
		c0.2,0.3,0.6,0.4,1.2,0.5c0.5,0.1,1.2,0.1,2.1,0.1h11.6c0.7,0,1.1,0.3,1.1,0.9c0,0.4-0.1,0.9-0.3,1.4c-0.2,0.5-0.4,0.9-0.7,1.4
		s-0.6,0.8-0.9,1.1c-0.3,0.3-0.6,0.5-0.8,0.6c-0.4,0.2-0.7,0.3-1.1,0.4c-0.3,0-0.9,0.1-1.7,0.1h-7.8c-1.4,0-2.3,0.2-2.7,0.6
		c-0.4,0.4-0.6,1.3-0.6,2.7v15.3c0,2.1,0.1,3.5,0.4,4.4c0.2,0.9,0.6,1.5,1,1.9c0.9,0.8,3,1.2,6.3,1.2c1.4,0,2.7,0,3.9-0.1
		c1.2-0.1,2.2-0.2,3-0.4c0.2,0,0.5,0,0.7,0.2c0.2,0.2,0.4,0.4,0.4,0.7c0,0.4-0.1,0.9-0.3,1.3c-0.2,0.5-0.4,0.9-0.7,1.3
		s-0.6,0.8-1,1.2c-0.4,0.3-0.7,0.6-1,0.8c-0.5,0.3-1.4,0.5-2.6,0.7c-1.2,0.2-3,0.3-5.3,0.3c-2.5,0-4.6-0.2-6.1-0.6s-2.7-1-3.5-1.7
		c-0.4-0.4-0.8-0.8-1-1.3s-0.5-1.1-0.6-1.8c-0.1-0.7-0.3-1.6-0.3-2.6s-0.1-2.3-0.1-3.9V25.1c0-1.5-0.2-2.4-0.6-2.7
		c-0.4-0.3-1.2-0.5-2.3-0.5H67.6z"/>
	<path class="st1" d="M114.8,17.8c0-0.6,0.3-1,1-1.2c1.9-0.2,4.1-0.5,6.4-0.7c2.4-0.2,4.6-0.3,6.7-0.3c2,0,3.7,0,5.1,0.1
		c1.4,0.1,2.5,0.3,3.1,0.6c0.7,0.4,1.3,1.1,1.8,2.1c0.5,1,0.7,2,0.7,2.9c0,0.3-0.1,0.5-0.3,0.7c-0.2,0.2-0.4,0.2-0.6,0.2
		c-0.9-0.1-2.1-0.2-3.5-0.3c-1.4-0.1-2.7-0.1-3.9-0.1c-1.2,0-2.5,0-3.7,0.1c-1.2,0-2.4,0.1-3.5,0.2c-0.4,0.1-0.8,0.2-1.1,0.3
		c-0.3,0.1-0.5,0.2-0.7,0.4c-0.2,0.2-0.3,0.5-0.3,0.8c0,0.3-0.1,0.8-0.1,1.4v27.6c0,0.7-0.3,1-1,1h-5.2c-0.6,0-0.9-0.3-0.9-1V17.8z"
		/>
	<path class="st1" d="M154.9,4.8c0,1.6-0.3,2.7-1,3.2c-0.5,0.3-1.1,0.5-1.8,0.6c-0.7,0.1-1.3,0.1-1.8,0.1c-1.8,0-3-0.2-3.6-0.7
		c-0.6-0.4-0.9-1.4-0.9-2.9c0-1.7,0.3-2.8,1-3.2c0.4-0.3,0.9-0.5,1.5-0.6c0.6-0.1,1.3-0.2,2.2-0.2s1.5,0,2.2,0.1
		c0.6,0.1,1.1,0.3,1.3,0.6c0.3,0.2,0.6,0.6,0.7,1.2C154.8,3.5,154.9,4.1,154.9,4.8z M153.8,52.7c0,0.7-0.3,1-0.9,1h-5.5
		c-0.4,0-0.6-0.1-0.7-0.2c-0.1-0.1-0.1-0.4-0.1-0.8V17.1c0-0.7,0.4-1,1.1-1h5.3c0.4,0,0.6,0.1,0.7,0.2c0.1,0.1,0.1,0.4,0.1,0.8V52.7
		z"/>
	<path class="st1" d="M167.2,1c0-0.7,0.3-1,1-1h5.2c0.6,0,0.9,0.4,0.9,1.2v14.2c0,0.6,0.1,0.9,0.4,1c0.3,0.1,0.6,0.2,1,0.1
		c1.5-0.2,3.2-0.4,4.9-0.6c1.7-0.2,3.7-0.3,5.8-0.3c2.9,0,5.2,0.2,7,0.7c1.8,0.5,3.3,1.1,4.4,1.9c1.2,1.1,2.3,2.7,3.2,5
		c0.9,2.3,1.4,5.5,1.4,9.7c0,4.7-0.5,8.5-1.5,11.3c-1,2.8-2.3,4.9-3.8,6.3c-0.6,0.5-1.4,1-2.2,1.4c-0.8,0.4-1.9,0.8-3.1,1.2
		c-1.2,0.3-2.7,0.6-4.4,0.8c-1.7,0.2-3.7,0.3-6,0.3c-2.4,0-4.8-0.1-7-0.3c-2.2-0.2-4.1-0.4-5.8-0.7c-0.5-0.1-0.9-0.2-1.2-0.4
		c-0.2-0.2-0.4-0.6-0.4-1.3V1z M195.2,34c0-3.3-0.3-5.7-0.9-7.2c-0.6-1.6-1.3-2.6-2-3.2c-0.8-0.7-1.8-1.1-3.1-1.4
		c-1.3-0.3-3-0.4-5-0.4c-1.7,0-3.2,0.1-4.7,0.2c-1.4,0.1-2.7,0.3-3.7,0.6c-0.6,0.1-1,0.3-1.2,0.8c-0.2,0.4-0.3,1.2-0.3,2.4v18.6
		c0,1.2,0.1,2.1,0.4,2.5c0.2,0.4,0.7,0.7,1.5,0.8c0.7,0.1,1.6,0.3,2.9,0.3c1.2,0.1,2.4,0.1,3.5,0.1c2.6,0,4.6-0.2,5.9-0.6
		c1.4-0.4,2.5-0.9,3.3-1.6c1-0.9,1.8-2.3,2.5-4.3C194.9,39.6,195.2,37.1,195.2,34z"/>
	<path class="st1" d="M247.2,51.6c0,0.6-0.3,0.9-1,1.1c-0.8,0.2-1.8,0.4-3,0.5c-1.2,0.2-2.5,0.3-3.9,0.5c-1.4,0.1-2.9,0.3-4.4,0.3
		c-1.5,0.1-3.1,0.1-4.6,0.1c-4,0-7.1-0.3-9.3-0.9c-2.2-0.6-3.9-1.5-5-2.6c-0.5-0.5-0.9-1.1-1.2-1.8c-0.3-0.6-0.6-1.4-0.8-2.3
		c-0.2-0.9-0.3-1.9-0.4-3c-0.1-1.1-0.1-2.5-0.1-4V17.1c0-0.6,0.3-0.9,0.8-0.9h4.1c0.9,0,1.5,0.2,1.8,0.5c0.3,0.3,0.4,0.9,0.4,1.7
		v20.4c0,2,0.1,3.6,0.4,4.6c0.3,1.1,0.7,1.9,1.2,2.5c0.7,0.7,1.7,1.2,3,1.6c1.3,0.4,3.2,0.6,5.5,0.6c1.4,0,2.7,0,4-0.1
		c1.3-0.1,2.3-0.2,3.1-0.4c0.8-0.1,1.4-0.4,1.7-0.8c0.3-0.4,0.5-1.1,0.5-2.1V17.1c0-0.6,0.3-0.9,0.9-0.9h5.2c0.7,0,1,0.4,1,1.1V51.6
		z"/>
	<path class="st1" d="M262.1,10.9c0-1,0-1.7,0.1-2.2c0.1-0.5,0.2-0.9,0.4-1.1c0.3-0.3,0.9-0.7,1.7-1c0.9-0.3,2-0.6,3.5-0.8
		c0.3,0,0.5,0,0.8,0.2c0.2,0.2,0.3,0.5,0.3,0.9v5.2c0,0.9,0,1.6,0.1,2.2s0.2,0.9,0.5,1.2c0.2,0.3,0.6,0.4,1.2,0.5
		c0.5,0.1,1.2,0.1,2.1,0.1h11.6c0.7,0,1.1,0.3,1.1,0.9c0,0.4-0.1,0.9-0.3,1.4c-0.2,0.5-0.5,0.9-0.8,1.4s-0.6,0.8-0.9,1.1
		c-0.3,0.3-0.6,0.5-0.8,0.6c-0.4,0.2-0.8,0.3-1.1,0.4c-0.4,0-0.9,0.1-1.6,0.1h-7.8c-1.4,0-2.3,0.2-2.7,0.6c-0.4,0.4-0.6,1.3-0.6,2.7
		v15.3c0,2.1,0.1,3.5,0.3,4.4c0.2,0.9,0.5,1.5,1,1.9c0.5,0.4,1.2,0.7,2.2,0.9c1,0.2,2.4,0.3,4.1,0.3c1.4,0,2.7,0,3.9-0.1
		c1.2-0.1,2.2-0.2,3.1-0.4c0.2,0,0.5,0,0.7,0.2c0.2,0.2,0.4,0.4,0.4,0.7c0,0.4-0.1,0.9-0.3,1.3c-0.2,0.5-0.4,0.9-0.7,1.3
		s-0.6,0.8-1,1.2c-0.4,0.3-0.7,0.6-1,0.8c-0.5,0.3-1.4,0.5-2.6,0.7c-1.2,0.2-3,0.3-5.3,0.3c-2.5,0-4.6-0.2-6.1-0.6s-2.7-1-3.5-1.7
		c-0.4-0.4-0.7-0.8-1-1.3s-0.5-1.1-0.6-1.8c-0.2-0.7-0.3-1.6-0.4-2.6c-0.1-1-0.1-2.3-0.1-3.9V25.1c0-1.5-0.2-2.4-0.6-2.7
		c-0.4-0.3-1.1-0.5-2.2-0.5h-3.1c-0.3,0-0.5-0.1-0.6-0.3c-0.1-0.2-0.2-0.3-0.2-0.5c0-0.4,0.1-0.9,0.2-1.4c0.1-0.5,0.3-1,0.5-1.4
		c0.2-0.4,0.4-0.8,0.7-1.2c0.2-0.3,0.5-0.6,0.7-0.7c0.5-0.2,1.1-0.4,1.9-0.4h1.1c1,0,1.5-0.7,1.5-2V10.9z"/>
	<path class="st1" d="M301.1,4.8c0,1.6-0.3,2.7-1,3.2c-0.5,0.3-1.1,0.5-1.8,0.6c-0.7,0.1-1.3,0.1-1.8,0.1c-1.8,0-3-0.2-3.6-0.7
		c-0.6-0.4-0.9-1.4-0.9-2.9c0-1.7,0.3-2.8,1-3.2c0.4-0.3,0.9-0.5,1.5-0.6c0.6-0.1,1.3-0.2,2.2-0.2s1.5,0,2.2,0.1
		c0.6,0.1,1.1,0.3,1.3,0.6c0.3,0.2,0.6,0.6,0.7,1.2C301,3.5,301.1,4.1,301.1,4.8z M300,52.7c0,0.7-0.3,1-0.9,1h-5.5
		c-0.4,0-0.6-0.1-0.7-0.2c-0.1-0.1-0.1-0.4-0.1-0.8V17.1c0-0.7,0.4-1,1.1-1h5.3c0.4,0,0.6,0.1,0.7,0.2c0.1,0.1,0.1,0.4,0.1,0.8V52.7
		z"/>
	<path class="st1" d="M348.3,34.4c0,4.4-0.5,8-1.6,10.8c-1.1,2.8-2.3,4.7-3.7,5.9c-1.2,1-3,1.8-5.2,2.5c-2.2,0.6-5.1,1-8.5,1
		c-3.4,0-6.2-0.4-8.4-1.1c-2.2-0.7-3.9-1.7-5.1-2.8c-1.2-1.2-2.2-2.9-3-5.2c-0.9-2.3-1.3-5.6-1.3-9.9c0-4.4,0.5-8,1.6-10.7
		c1.1-2.7,2.4-4.7,4-5.9c1.3-1,3.1-1.8,5.3-2.4c2.2-0.6,5-0.9,8.3-0.9c3.5,0,6.3,0.3,8.5,0.9c2.2,0.6,3.8,1.5,5,2.7
		c0.6,0.6,1.1,1.3,1.6,2.1c0.5,0.8,1,1.8,1.4,3.1c0.4,1.2,0.7,2.7,1,4.4C348.2,30.3,348.3,32.2,348.3,34.4z M341.3,34.8
		c0-3.1-0.2-5.5-0.7-7.1c-0.5-1.6-1.2-2.9-2-3.9c-1.3-1.6-4.1-2.4-8.3-2.4c-2.2,0-4,0.2-5.4,0.6c-1.4,0.4-2.5,1-3.2,1.7
		c-0.9,0.8-1.6,2.1-2.3,3.9c-0.6,1.8-1,4.3-1,7.5c0,2.7,0.2,5,0.7,6.9c0.5,1.8,1.2,3.2,2,4.1c0.8,0.8,2,1.4,3.5,1.8
		c1.5,0.4,3.1,0.5,4.9,0.5c3.9,0,6.7-0.6,8.3-1.9c1-0.7,1.8-2.1,2.5-4C341,40.6,341.3,38,341.3,34.8z"/>
	<path class="st1" d="M393.3,52.8c0,0.6-0.3,0.9-0.9,0.9h-4.4c-0.8,0-1.3-0.2-1.5-0.5c-0.2-0.3-0.3-0.9-0.3-1.7V31.5
		c0-2.3-0.1-4-0.4-5.1c-0.3-1.1-0.7-2-1.2-2.7c-0.6-0.7-1.5-1.2-2.7-1.5c-1.2-0.3-2.8-0.5-5-0.5c-1.9,0-3.5,0-4.8,0.1
		c-1.3,0.1-2.5,0.2-3.6,0.3c-0.8,0.1-1.3,0.3-1.5,0.6c-0.2,0.3-0.3,1.1-0.3,2.2v27.7c0,0.7-0.3,1-0.9,1h-5.3c-0.6,0-0.9-0.3-0.9-1
		V17.9c0-0.5,0.3-0.9,1-1c2-0.2,4.5-0.5,7.5-0.8s6-0.4,9.2-0.4c3.8,0,6.7,0.3,8.7,0.8c2,0.5,3.6,1.3,4.7,2.4c1,1,1.6,2.3,2.1,4
		c0.4,1.6,0.6,4,0.6,7.1V52.8z"/>
	<path class="st1" d="M420.8,15.6c2.7,0,4.9,0.1,6.6,0.3c1.7,0.2,2.8,0.5,3.3,0.8c0.7,0.4,1.2,1.1,1.7,2.1c0.5,1,0.7,1.8,0.7,2.6
		c0,0.3-0.1,0.6-0.3,0.8c-0.2,0.2-0.4,0.2-0.7,0.2c-1.4-0.1-3-0.3-4.8-0.5c-1.8-0.2-3.8-0.3-6-0.3c-4.2,0-6.9,0.4-8.1,1.2
		c-0.5,0.4-0.9,0.9-1.2,1.7c-0.3,0.7-0.5,1.6-0.5,2.6c0,1.3,0.2,2.2,0.7,2.7c0.2,0.2,0.8,0.5,1.7,0.7c1,0.2,2.1,0.5,3.4,0.8
		s2.7,0.6,4.2,0.9c1.5,0.3,3,0.6,4.4,0.9c1.4,0.3,2.6,0.6,3.7,0.9c1.1,0.3,1.8,0.6,2.3,1c0.5,0.4,1,1.2,1.3,2.2
		c0.4,1.1,0.5,2.5,0.5,4.2c0,2.6-0.3,4.8-1,6.4c-0.7,1.6-1.5,2.8-2.4,3.6c-1,0.8-2.4,1.5-4.4,2c-2,0.5-4.8,0.8-8.5,0.8
		c-3.1,0-5.5-0.1-7.1-0.4c-1.6-0.2-2.7-0.6-3.4-1c-0.3-0.2-0.6-0.5-0.9-0.9c-0.3-0.4-0.6-0.9-0.8-1.3c-0.2-0.5-0.4-0.9-0.6-1.3
		c-0.1-0.4-0.2-0.8-0.2-1.1c0-0.4,0.1-0.7,0.3-0.8c0.2-0.2,0.4-0.2,0.7-0.2c1.5,0.2,3.3,0.5,5.3,0.7c2,0.2,4.2,0.3,6.6,0.3
		c2,0,3.6-0.1,4.9-0.3s2.2-0.5,2.7-0.9c0.5-0.4,0.9-0.9,1.3-1.6c0.3-0.7,0.5-1.5,0.5-2.5c0-1.4-0.3-2.4-0.9-2.7
		c-0.3-0.3-1-0.6-2-0.9c-1-0.3-2.2-0.6-3.5-0.9c-1.3-0.3-2.7-0.6-4.2-0.9c-1.5-0.3-2.9-0.6-4.3-0.9c-1.3-0.3-2.5-0.6-3.6-0.9
		c-1-0.3-1.7-0.6-2.1-1c-0.5-0.4-0.9-1.1-1.2-2.3c-0.3-1.1-0.4-2.2-0.4-3.3c0-2.8,0.3-5,1-6.7c0.7-1.7,1.6-2.9,2.7-3.9
		c1-0.9,2.5-1.5,4.5-2.1C414.8,15.9,417.4,15.6,420.8,15.6z"/>
</g>
</svg>
