<?xml version="1.0" encoding="utf-8"?>
<!-- Generator: Adobe Illustrator 24.0.2, SVG Export Plug-In . SVG Version: 6.00 Build 0)  -->
<svg version="1.1"
	 id="Layer_1" xmlns:krita="http://krita.org/namespaces/svg/krita" xmlns:sodipodi="http://sodipodi.sourceforge.net/DTD/sodipodi-0.dtd"
	 xmlns="http://www.w3.org/2000/svg" xmlns:xlink="http://www.w3.org/1999/xlink" x="0px" y="0px" viewBox="0 0 259.4 49.5"
	 style="enable-background:new 0 0 259.4 49.5;" xml:space="preserve">
<style type="text/css">
	.st0{enable-background:new    ;}
	.st1{fill:#E8ECD7;}
</style>
<g class="st0">
	<path class="st1" d="M63.2,49c-1.5,0-2.6-0.3-3.2-0.8c-0.6-0.5-1-1.6-1.2-3.3L54.7,8.6c-0.1-1-0.3-1.6-0.7-1.9
		c-0.4-0.3-1.1-0.5-2-0.5c-1,0-1.6,0.2-2,0.6c-0.4,0.4-0.7,1.1-0.9,2.1l-6.8,29.2c-0.4,1.6-0.8,2.9-1.2,3.9c-0.4,1-0.9,1.7-1.4,2.1
		c-0.7,0.5-1.6,0.9-2.7,1.2c-1.1,0.3-2.6,0.4-4.3,0.4c-1.5,0-2.9-0.1-4.1-0.4c-1.2-0.3-2.1-0.7-2.8-1.2c-0.5-0.5-1-1.2-1.4-2.2
		c-0.4-1-0.7-2.2-1-3.6L17.2,8.9c-0.2-1.1-0.6-1.8-1-2.2c-0.4-0.4-1-0.5-1.9-0.5c-1.1,0-1.8,0.2-2.1,0.6c-0.3,0.4-0.6,1.3-0.8,2.6
		L7.2,45.2c-0.2,1.5-0.7,2.6-1.3,3.1S4.2,49,2.7,49H0.8c-0.6,0-0.9-0.4-0.8-1.3L4.8,8.6C5,7.5,5.1,6.5,5.3,5.8
		C5.5,5,5.7,4.4,5.9,3.9C6,3.3,6.3,2.9,6.5,2.6C6.8,2.3,7.1,2,7.4,1.7C8.6,0.6,11.1,0,14.7,0c3.2,0,5.4,0.5,6.7,1.5
		C22,2,22.5,2.8,22.8,3.7C23.2,4.6,23.6,6,24,7.8L30.3,37c0.2,1.1,0.5,1.8,0.9,2.2c0.3,0.3,1,0.5,1.9,0.5c0.9,0,1.5-0.2,1.9-0.5
		c0.3-0.3,0.6-1,0.9-2.1l6.7-29.2c0.4-1.7,0.8-3,1.3-4c0.5-1,1-1.7,1.7-2.3c0.6-0.5,1.5-0.9,2.7-1.2S50.8,0,52.7,0
		c2,0,3.6,0.2,4.6,0.5c1.1,0.3,1.8,0.7,2.3,1c0.5,0.4,1,1,1.4,1.8s0.7,2.1,0.9,3.8l4.5,40.8c0.1,0.4,0,0.7-0.2,0.9
		c-0.2,0.2-0.5,0.3-0.8,0.3H63.2z"/>
	<path class="st1" d="M74.3,30.5c0-4.3,0.5-7.7,1.5-10.4c1-2.6,2.3-4.6,3.9-6c1.2-1.1,2.9-1.9,5-2.5c2.1-0.6,4.8-0.9,7.9-0.9
		c3.1,0,5.6,0.3,7.5,0.8c1.8,0.5,3.3,1.2,4.4,2.2c0.6,0.6,1.2,1.3,1.7,2.1c0.5,0.8,0.9,1.9,1.3,3.1c0.4,1.3,0.6,2.8,0.9,4.6
		c0.2,1.8,0.3,3.9,0.3,6.3c0,0.9-0.1,1.5-0.4,1.9c-0.2,0.4-0.7,0.6-1.4,0.6H84.2c-1.1,0-1.7,0.1-2,0.3c-0.3,0.2-0.4,0.6-0.4,1.1
		c0,1.7,0.2,3.2,0.6,4.4c0.4,1.3,1,2.3,1.9,3.1c0.8,0.8,2.1,1.3,3.8,1.7c1.7,0.3,3.8,0.5,6.2,0.5c2.4,0,4.8-0.1,6.9-0.4
		c2.2-0.3,3.9-0.5,5.1-0.8c0.2,0,0.5,0,0.7,0.2c0.2,0.2,0.3,0.4,0.3,0.8c0,0.4-0.1,0.8-0.3,1.3c-0.2,0.5-0.4,0.9-0.7,1.4
		c-0.3,0.5-0.6,0.9-1,1.3c-0.4,0.4-0.7,0.7-1.1,0.9c-0.7,0.4-2.1,0.7-4,1c-2,0.3-4.5,0.4-7.5,0.4c-3.5,0-6.3-0.3-8.5-0.9
		c-2.2-0.6-4-1.5-5.2-2.6c-0.7-0.6-1.4-1.4-1.9-2.2s-1-1.9-1.4-3.1c-0.4-1.2-0.7-2.7-0.9-4.3S74.3,32.8,74.3,30.5z M92.1,16.4
		c-3.5,0-6,0.7-7.6,2c-0.5,0.4-0.9,0.9-1.2,1.5c-0.3,0.6-0.6,1.2-0.8,1.9c-0.2,0.7-0.4,1.3-0.5,2c-0.1,0.7-0.2,1.3-0.2,1.9
		c0,0.5,0.1,0.9,0.4,1c0.3,0.1,0.9,0.2,1.9,0.2h13.3c0.9,0,1.7,0,2.3,0c0.6,0,1-0.1,1.2-0.3c0.2-0.2,0.4-0.5,0.4-0.7
		c0-0.2,0.1-0.5,0.1-0.9c0-1.5-0.2-2.9-0.5-4.2c-0.4-1.3-0.9-2.2-1.7-2.8c-0.6-0.5-1.5-0.9-2.6-1.2C95.4,16.6,93.9,16.4,92.1,16.4z"
		/>
	<path class="st1" d="M148.4,11c4,0,7.4,0.1,10.2,0.2c2.8,0.1,5.2,0.4,7.1,0.6c1.9,0.3,3.4,0.6,4.6,1c1.2,0.4,2,0.9,2.7,1.5
		c0.6,0.5,1.1,1.1,1.4,1.8c0.4,0.6,0.7,1.4,0.9,2.3c0.2,0.9,0.3,1.9,0.4,3.2c0.1,1.2,0.1,2.7,0.1,4.4v22c0,0.7-0.3,1-0.9,1h-3.9
		c-0.9,0-1.5-0.2-1.8-0.5c-0.4-0.3-0.5-1-0.5-2.2V27.7c0-2.5-0.1-4.4-0.3-5.7c-0.2-1.2-0.7-2.2-1.3-2.9c-0.7-0.7-2.1-1.2-4.4-1.5
		c-2.3-0.3-5.6-0.5-9.8-0.5c-0.7,0-1.2,0.2-1.3,0.6c-0.2,0.4-0.3,0.9-0.3,1.7V48c0,0.7-0.3,1.1-0.9,1.1h-5.5c-0.5,0-0.7-0.4-0.7-1.1
		V19.4c0-0.8-0.1-1.4-0.3-1.7c-0.2-0.3-0.7-0.5-1.5-0.5c-3,0-5.7,0.1-8.1,0.2c-2.4,0.1-4.3,0.3-5.6,0.6c-0.8,0.1-1.3,0.3-1.6,0.6
		s-0.4,1-0.4,2.1V48c0,0.7-0.3,1.1-0.9,1.1h-5.4c-0.5,0-0.8-0.3-0.8-1V13.5c0-0.5,0.3-0.9,0.9-1c3.5-0.3,7.5-0.7,12.1-1
		C137.2,11.2,142.5,11,148.4,11z"/>
	<path class="st1" d="M186.8,30.5c0-4.3,0.5-7.7,1.5-10.4c1-2.6,2.3-4.6,3.9-6c1.2-1.1,2.9-1.9,5-2.5c2.1-0.6,4.8-0.9,7.9-0.9
		c3.1,0,5.6,0.3,7.5,0.8c1.8,0.5,3.3,1.2,4.4,2.2c0.6,0.6,1.2,1.3,1.7,2.1c0.5,0.8,0.9,1.9,1.3,3.1c0.4,1.3,0.6,2.8,0.9,4.6
		c0.2,1.8,0.3,3.9,0.3,6.3c0,0.9-0.1,1.5-0.4,1.9c-0.2,0.4-0.7,0.6-1.4,0.6h-22.8c-1.1,0-1.7,0.1-2,0.3c-0.3,0.2-0.4,0.6-0.4,1.1
		c0,1.7,0.2,3.2,0.6,4.4c0.4,1.3,1,2.3,1.9,3.1c0.8,0.8,2.1,1.3,3.8,1.7c1.7,0.3,3.8,0.5,6.2,0.5c2.4,0,4.8-0.1,6.9-0.4
		c2.2-0.3,3.9-0.5,5.1-0.8c0.2,0,0.5,0,0.7,0.2c0.2,0.2,0.3,0.4,0.3,0.8c0,0.4-0.1,0.8-0.3,1.3c-0.2,0.5-0.4,0.9-0.7,1.4
		c-0.3,0.5-0.6,0.9-1,1.3c-0.4,0.4-0.7,0.7-1.1,0.9c-0.7,0.4-2.1,0.7-4,1c-2,0.3-4.5,0.4-7.5,0.4c-3.5,0-6.3-0.3-8.5-0.9
		c-2.2-0.6-4-1.5-5.2-2.6c-0.7-0.6-1.4-1.4-1.9-2.2c-0.6-0.9-1-1.9-1.4-3.1c-0.4-1.2-0.7-2.7-0.9-4.3
		C186.9,34.7,186.8,32.8,186.8,30.5z M204.6,16.4c-3.5,0-6,0.7-7.6,2c-0.5,0.4-0.9,0.9-1.2,1.5c-0.3,0.6-0.6,1.2-0.8,1.9
		c-0.2,0.7-0.4,1.3-0.5,2c-0.1,0.7-0.2,1.3-0.2,1.9c0,0.5,0.1,0.9,0.4,1c0.3,0.1,0.9,0.2,1.9,0.2h13.3c0.9,0,1.7,0,2.3,0
		c0.6,0,1-0.1,1.2-0.3c0.2-0.2,0.4-0.5,0.4-0.7c0-0.2,0.1-0.5,0.1-0.9c0-1.5-0.2-2.9-0.5-4.2c-0.4-1.3-0.9-2.2-1.7-2.8
		c-0.6-0.5-1.5-0.9-2.6-1.2C207.9,16.6,206.4,16.4,204.6,16.4z"/>
	<path class="st1" d="M246.3,10.9c2.7,0,4.9,0.1,6.6,0.3c1.7,0.2,2.8,0.5,3.3,0.8c0.7,0.4,1.2,1.1,1.7,2.1c0.5,1,0.7,1.8,0.7,2.6
		c0,0.3-0.1,0.6-0.3,0.8c-0.2,0.2-0.4,0.2-0.7,0.2c-1.4-0.1-3-0.3-4.8-0.5c-1.8-0.2-3.8-0.3-6-0.3c-4.2,0-6.9,0.4-8.1,1.2
		c-0.5,0.4-0.9,0.9-1.2,1.7c-0.3,0.7-0.5,1.6-0.5,2.6c0,1.3,0.2,2.2,0.7,2.7c0.2,0.2,0.8,0.5,1.7,0.7c1,0.2,2.1,0.5,3.4,0.8
		s2.7,0.6,4.2,0.9c1.5,0.3,3,0.6,4.4,0.9c1.4,0.3,2.6,0.6,3.7,0.9c1.1,0.3,1.8,0.6,2.3,1c0.5,0.4,1,1.2,1.3,2.2
		c0.4,1.1,0.5,2.5,0.5,4.2c0,2.6-0.3,4.8-1,6.4c-0.7,1.6-1.5,2.8-2.4,3.6c-1,0.8-2.4,1.5-4.4,2c-2,0.5-4.8,0.8-8.5,0.8
		c-3.1,0-5.5-0.1-7.1-0.4c-1.6-0.2-2.7-0.6-3.4-1c-0.3-0.2-0.6-0.5-0.9-0.9c-0.3-0.4-0.6-0.9-0.8-1.3c-0.2-0.5-0.4-0.9-0.6-1.3
		c-0.1-0.4-0.2-0.8-0.2-1.1c0-0.4,0.1-0.7,0.3-0.8c0.2-0.2,0.4-0.2,0.7-0.2c1.5,0.2,3.3,0.5,5.3,0.7c2,0.2,4.2,0.3,6.6,0.3
		c2,0,3.6-0.1,4.9-0.3s2.2-0.5,2.7-0.9c0.5-0.4,0.9-0.9,1.3-1.6c0.3-0.7,0.5-1.5,0.5-2.5c0-1.4-0.3-2.4-0.9-2.7
		c-0.3-0.3-1-0.6-2-0.9c-1-0.3-2.2-0.6-3.5-0.9c-1.3-0.3-2.7-0.6-4.2-0.9c-1.5-0.3-2.9-0.6-4.3-0.9c-1.3-0.3-2.5-0.6-3.6-0.9
		c-1-0.3-1.7-0.6-2.1-1c-0.5-0.4-0.9-1.1-1.2-2.3c-0.3-1.1-0.4-2.2-0.4-3.3c0-2.8,0.3-5,1-6.7c0.7-1.7,1.6-2.9,2.7-3.9
		c1-0.9,2.5-1.5,4.5-2.1C240.3,11.2,242.9,10.9,246.3,10.9z"/>
</g>
</svg>
