<?xml version="1.0" encoding="utf-8"?>
<!-- Generator: Adobe Illustrator 24.0.2, SVG Export Plug-In . SVG Version: 6.00 Build 0)  -->
<svg version="1.1"
	 id="Layer_1" xmlns:krita="http://krita.org/namespaces/svg/krita" xmlns:sodipodi="http://sodipodi.sourceforge.net/DTD/sodipodi-0.dtd"
	 xmlns="http://www.w3.org/2000/svg" xmlns:xlink="http://www.w3.org/1999/xlink" x="0px" y="0px" viewBox="0 0 351.9 54.6"
	 style="enable-background:new 0 0 351.9 54.6;" xml:space="preserve">
<style type="text/css">
	.st0{enable-background:new    ;}
	.st1{fill:#E8ECD7;}
</style>
<g class="st0">
	<path class="st1" d="M43.8,46.7c0,1.6-0.2,2.8-0.5,3.6c-0.3,0.8-0.7,1.5-1.2,2.1c-0.4,0.5-1.1,1-2.1,1.3c-1,0.3-2.5,0.5-4.6,0.5
		c-1.8,0-3.2-0.1-4.2-0.4c-1-0.3-1.8-0.6-2.4-1.1c-1.2-1-2.3-2.9-3.4-5.7L12,14.1c-0.6-1.3-1.1-2.1-1.5-2.6c-0.4-0.4-1-0.6-1.9-0.6
		c-0.8,0-1.3,0.2-1.6,0.5c-0.2,0.3-0.4,0.8-0.4,1.5v37.4c0,1.3-0.3,2.2-0.9,2.7c-0.6,0.4-1.6,0.6-3,0.6H0.9c-0.6,0-0.9-0.4-0.9-1.1
		v-40c0-1.8,0.1-3.2,0.4-4.1c0.3-1,0.7-1.7,1.2-2.2c0.5-0.4,1.2-0.8,2.2-1.1c1-0.3,2.4-0.5,4.2-0.5c1.9,0,3.4,0.1,4.4,0.4
		c1,0.3,1.8,0.6,2.4,1c0.6,0.5,1.2,1.2,1.8,2.1c0.6,0.9,1.2,2.3,1.8,4.1L31.9,45c0.5,1.2,1,1.9,1.4,2.3c0.4,0.4,1,0.6,1.8,0.6
		c0.8,0,1.3-0.2,1.6-0.7c0.2-0.5,0.4-1.1,0.4-1.9v-37c0-1.1,0.2-1.9,0.7-2.4c0.5-0.5,1.5-0.8,3-0.8h1.9c0.5,0,0.8,0.1,0.9,0.3
		c0.1,0.2,0.2,0.5,0.2,0.8V46.7z"/>
	<path class="st1" d="M92.4,34.4c0,4.4-0.5,8-1.6,10.8c-1.1,2.8-2.3,4.7-3.7,5.9c-1.2,1-3,1.8-5.2,2.5c-2.2,0.6-5.1,1-8.5,1
		c-3.4,0-6.2-0.4-8.4-1.1c-2.2-0.7-3.9-1.7-5.1-2.8c-1.2-1.2-2.2-2.9-3-5.2c-0.9-2.3-1.3-5.6-1.3-9.9c0-4.4,0.5-8,1.6-10.7
		c1.1-2.7,2.4-4.7,4-5.9c1.3-1,3.1-1.8,5.3-2.4c2.2-0.6,5-0.9,8.3-0.9c3.5,0,6.3,0.3,8.5,0.9c2.2,0.6,3.8,1.5,5,2.7
		c0.6,0.6,1.1,1.3,1.6,2.1c0.5,0.8,1,1.8,1.4,3.1c0.4,1.2,0.7,2.7,1,4.4C92.3,30.3,92.4,32.2,92.4,34.4z M85.5,34.8
		c0-3.1-0.2-5.5-0.7-7.1c-0.5-1.6-1.2-2.9-2-3.9c-1.3-1.6-4.1-2.4-8.3-2.4c-2.2,0-4,0.2-5.4,0.6c-1.4,0.4-2.5,1-3.2,1.7
		c-0.9,0.8-1.6,2.1-2.3,3.9c-0.6,1.8-1,4.3-1,7.5c0,2.7,0.2,5,0.7,6.9c0.5,1.8,1.2,3.2,2,4.1c0.8,0.8,2,1.4,3.5,1.8s3.1,0.5,4.9,0.5
		c3.9,0,6.7-0.6,8.3-1.9c1-0.7,1.8-2.1,2.5-4C85.1,40.6,85.5,38,85.5,34.8z"/>
	<path class="st1" d="M105.4,10.9c0-1,0-1.7,0.1-2.2c0.1-0.5,0.2-0.9,0.4-1.1c0.3-0.3,0.9-0.7,1.7-1c0.9-0.3,2-0.6,3.5-0.8
		c0.3,0,0.5,0,0.8,0.2c0.2,0.2,0.3,0.5,0.3,0.9v5.2c0,0.9,0,1.6,0.1,2.2c0.1,0.5,0.2,0.9,0.5,1.2c0.2,0.3,0.6,0.4,1.2,0.5
		c0.5,0.1,1.2,0.1,2.1,0.1h11.6c0.7,0,1.1,0.3,1.1,0.9c0,0.4-0.1,0.9-0.3,1.4c-0.2,0.5-0.5,0.9-0.8,1.4s-0.6,0.8-0.9,1.1
		c-0.3,0.3-0.6,0.5-0.8,0.6c-0.4,0.2-0.8,0.3-1.1,0.4c-0.4,0-0.9,0.1-1.6,0.1h-7.8c-1.4,0-2.3,0.2-2.7,0.6c-0.4,0.4-0.6,1.3-0.6,2.7
		v15.3c0,2.1,0.1,3.5,0.3,4.4c0.2,0.9,0.5,1.5,1,1.9c0.5,0.4,1.2,0.7,2.2,0.9c1,0.2,2.4,0.3,4.1,0.3c1.4,0,2.7,0,3.9-0.1
		c1.2-0.1,2.2-0.2,3.1-0.4c0.2,0,0.5,0,0.7,0.2c0.2,0.2,0.4,0.4,0.4,0.7c0,0.4-0.1,0.9-0.3,1.3c-0.2,0.5-0.4,0.9-0.7,1.3
		s-0.6,0.8-1,1.2c-0.4,0.3-0.7,0.6-1,0.8c-0.5,0.3-1.4,0.5-2.6,0.7c-1.2,0.2-3,0.3-5.3,0.3c-2.5,0-4.6-0.2-6.1-0.6
		c-1.5-0.4-2.7-1-3.5-1.7c-0.4-0.4-0.7-0.8-1-1.3c-0.3-0.5-0.5-1.1-0.6-1.8c-0.2-0.7-0.3-1.6-0.4-2.6s-0.1-2.3-0.1-3.9V25.1
		c0-1.5-0.2-2.4-0.6-2.7c-0.4-0.3-1.1-0.5-2.2-0.5h-3.1c-0.3,0-0.5-0.1-0.6-0.3c-0.1-0.2-0.2-0.3-0.2-0.5c0-0.4,0.1-0.9,0.2-1.4
		c0.1-0.5,0.3-1,0.5-1.4c0.2-0.4,0.4-0.8,0.7-1.2c0.2-0.3,0.5-0.6,0.7-0.7c0.5-0.2,1.1-0.4,1.9-0.4h1.1c1,0,1.5-0.7,1.5-2V10.9z"/>
	<path class="st1" d="M134.1,35.2c0-4.3,0.5-7.7,1.5-10.4c1-2.6,2.3-4.6,3.9-6c1.2-1.1,2.9-1.9,5-2.5c2.1-0.6,4.8-0.9,7.9-0.9
		c3.1,0,5.6,0.3,7.5,0.8c1.8,0.5,3.3,1.2,4.4,2.2c0.6,0.6,1.2,1.3,1.7,2.1c0.5,0.8,0.9,1.9,1.3,3.1c0.4,1.3,0.6,2.8,0.9,4.6
		c0.2,1.8,0.3,3.9,0.3,6.3c0,0.9-0.1,1.5-0.4,1.9c-0.2,0.4-0.7,0.6-1.4,0.6H144c-1.1,0-1.7,0.1-2,0.3c-0.3,0.2-0.4,0.6-0.4,1.1
		c0,1.7,0.2,3.2,0.6,4.4c0.4,1.3,1,2.3,1.9,3.1c0.8,0.8,2.1,1.3,3.8,1.7c1.7,0.3,3.8,0.5,6.2,0.5c2.4,0,4.8-0.1,6.9-0.4
		c2.2-0.3,3.9-0.5,5.1-0.8c0.2,0,0.5,0,0.7,0.2c0.2,0.2,0.3,0.4,0.3,0.8c0,0.4-0.1,0.8-0.3,1.3c-0.2,0.5-0.4,0.9-0.7,1.4
		c-0.3,0.5-0.6,0.9-1,1.3c-0.4,0.4-0.7,0.7-1.1,0.9c-0.7,0.4-2.1,0.7-4,1c-2,0.3-4.5,0.4-7.5,0.4c-3.5,0-6.3-0.3-8.5-0.9
		c-2.2-0.6-4-1.5-5.2-2.6c-0.7-0.6-1.4-1.4-1.9-2.2s-1-1.9-1.4-3.1c-0.4-1.2-0.7-2.7-0.9-4.3S134.1,37.5,134.1,35.2z M151.9,21.1
		c-3.5,0-6,0.7-7.6,2c-0.5,0.4-0.9,0.9-1.2,1.5c-0.3,0.6-0.6,1.2-0.8,1.9c-0.2,0.7-0.4,1.3-0.5,2c-0.1,0.7-0.2,1.3-0.2,1.9
		c0,0.5,0.1,0.9,0.4,1c0.3,0.1,0.9,0.2,1.9,0.2h13.3c0.9,0,1.7,0,2.3,0c0.6,0,1-0.1,1.2-0.3c0.2-0.2,0.4-0.5,0.4-0.7
		c0-0.2,0.1-0.5,0.1-0.9c0-1.5-0.2-2.9-0.5-4.2c-0.4-1.3-0.9-2.2-1.7-2.8c-0.6-0.5-1.5-0.9-2.6-1.2
		C155.2,21.2,153.7,21.1,151.9,21.1z"/>
	<path class="st1" d="M179.3,1c0-0.7,0.3-1,1-1h5.2c0.6,0,0.9,0.4,0.9,1.2v14.2c0,0.6,0.1,0.9,0.4,1c0.3,0.1,0.6,0.2,1,0.1
		c1.5-0.2,3.2-0.4,4.9-0.6c1.7-0.2,3.7-0.3,5.8-0.3c2.9,0,5.2,0.2,7,0.7c1.8,0.5,3.3,1.1,4.4,1.9c1.2,1.1,2.3,2.7,3.2,5
		c0.9,2.3,1.4,5.5,1.4,9.7c0,4.7-0.5,8.5-1.5,11.3c-1,2.8-2.3,4.9-3.8,6.3c-0.6,0.5-1.4,1-2.2,1.4c-0.8,0.4-1.9,0.8-3.1,1.2
		c-1.2,0.3-2.7,0.6-4.4,0.8c-1.7,0.2-3.7,0.3-6,0.3c-2.4,0-4.8-0.1-7-0.3c-2.2-0.2-4.1-0.4-5.8-0.7c-0.5-0.1-0.9-0.2-1.2-0.4
		c-0.2-0.2-0.4-0.6-0.4-1.3V1z M207.3,34c0-3.3-0.3-5.7-0.9-7.2c-0.6-1.6-1.3-2.6-2-3.2c-0.8-0.7-1.8-1.1-3.1-1.4
		c-1.3-0.3-3-0.4-5-0.4c-1.7,0-3.2,0.1-4.7,0.2c-1.4,0.1-2.7,0.3-3.7,0.6c-0.6,0.1-1,0.3-1.2,0.8c-0.2,0.4-0.3,1.2-0.3,2.4v18.6
		c0,1.2,0.1,2.1,0.4,2.5c0.2,0.4,0.7,0.7,1.5,0.8c0.7,0.1,1.6,0.3,2.9,0.3c1.2,0.1,2.4,0.1,3.5,0.1c2.6,0,4.6-0.2,5.9-0.6
		c1.4-0.4,2.5-0.9,3.3-1.6c1-0.9,1.8-2.3,2.5-4.3C207,39.6,207.3,37.1,207.3,34z"/>
	<path class="st1" d="M260.6,34.4c0,4.4-0.5,8-1.6,10.8c-1.1,2.8-2.3,4.7-3.7,5.9c-1.2,1-3,1.8-5.2,2.5c-2.2,0.6-5.1,1-8.5,1
		c-3.4,0-6.2-0.4-8.4-1.1c-2.2-0.7-3.9-1.7-5.1-2.8c-1.2-1.2-2.2-2.9-3-5.2c-0.9-2.3-1.3-5.6-1.3-9.9c0-4.4,0.5-8,1.6-10.7
		c1.1-2.7,2.4-4.7,4-5.9c1.3-1,3.1-1.8,5.3-2.4c2.2-0.6,5-0.9,8.3-0.9c3.5,0,6.3,0.3,8.5,0.9c2.2,0.6,3.8,1.5,5,2.7
		c0.6,0.6,1.1,1.3,1.6,2.1c0.5,0.8,1,1.8,1.4,3.1c0.4,1.2,0.7,2.7,1,4.4C260.5,30.3,260.6,32.2,260.6,34.4z M253.7,34.8
		c0-3.1-0.2-5.5-0.7-7.1c-0.5-1.6-1.2-2.9-2-3.9c-1.3-1.6-4.1-2.4-8.3-2.4c-2.2,0-4,0.2-5.4,0.6c-1.4,0.4-2.5,1-3.2,1.7
		c-0.9,0.8-1.6,2.1-2.3,3.9c-0.6,1.8-1,4.3-1,7.5c0,2.7,0.2,5,0.7,6.9c0.5,1.8,1.2,3.2,2,4.1c0.8,0.8,2,1.4,3.5,1.8s3.1,0.5,4.9,0.5
		c3.9,0,6.7-0.6,8.3-1.9c1-0.7,1.8-2.1,2.5-4C253.3,40.6,253.7,38,253.7,34.8z"/>
	<path class="st1" d="M306.8,34.4c0,4.4-0.5,8-1.6,10.8c-1.1,2.8-2.3,4.7-3.7,5.9c-1.2,1-3,1.8-5.2,2.5c-2.2,0.6-5.1,1-8.5,1
		c-3.4,0-6.2-0.4-8.4-1.1c-2.2-0.7-3.9-1.7-5.1-2.8c-1.2-1.2-2.2-2.9-3-5.2c-0.9-2.3-1.3-5.6-1.3-9.9c0-4.4,0.5-8,1.6-10.7
		c1.1-2.7,2.4-4.7,4-5.9c1.3-1,3.1-1.8,5.3-2.4c2.2-0.6,5-0.9,8.3-0.9c3.5,0,6.3,0.3,8.5,0.9c2.2,0.6,3.8,1.5,5,2.7
		c0.6,0.6,1.1,1.3,1.6,2.1c0.5,0.8,1,1.8,1.4,3.1c0.4,1.2,0.7,2.7,1,4.4C306.7,30.3,306.8,32.2,306.8,34.4z M299.8,34.8
		c0-3.1-0.2-5.5-0.7-7.1c-0.5-1.6-1.2-2.9-2-3.9c-1.3-1.6-4.1-2.4-8.3-2.4c-2.2,0-4,0.2-5.4,0.6c-1.4,0.4-2.5,1-3.2,1.7
		c-0.9,0.8-1.6,2.1-2.3,3.9c-0.6,1.8-1,4.3-1,7.5c0,2.7,0.2,5,0.7,6.9c0.5,1.8,1.2,3.2,2,4.1c0.8,0.8,2,1.4,3.5,1.8s3.1,0.5,4.9,0.5
		c3.9,0,6.7-0.6,8.3-1.9c1-0.7,1.8-2.1,2.5-4C299.5,40.6,299.8,38,299.8,34.8z"/>
	<path class="st1" d="M325.1,28.3c0,0.7,0,1.3,0.1,1.7c0.1,0.4,0.2,0.7,0.4,0.9s0.5,0.3,0.9,0.4c0.4,0,0.9,0.1,1.6,0.1h4.8
		c1.5,0,2.7-0.2,3.5-0.6c0.8-0.4,1.6-1.3,2.2-2.7l4.1-8.1c0.4-0.7,0.8-1.3,1.1-1.8c0.4-0.5,0.8-0.9,1.3-1.2c0.5-0.3,1-0.5,1.7-0.6
		c0.6-0.1,1.4-0.2,2.3-0.2h1.7c0.9,0,1.1,0.4,0.7,1.3l-6.6,12.8c-1.1,1.9-1.7,3.4-1.7,4.4c0,1,0.6,2.6,1.7,4.9l6,13.1
		c0.2,0.4,0.2,0.7,0,0.8c-0.2,0.2-0.4,0.3-0.8,0.3h-1.9c-0.9,0-1.7-0.1-2.3-0.2c-0.6-0.1-1.2-0.4-1.6-0.7c-0.5-0.3-0.9-0.7-1.2-1.3
		c-0.4-0.5-0.7-1.2-1-2l-3.6-7.8c-0.4-1-0.8-1.7-1.2-2.3c-0.4-0.6-0.8-1-1.2-1.4c-0.4-0.3-0.9-0.6-1.5-0.6c-0.6-0.1-1.3-0.1-2.2-0.1
		h-4.5c-0.7,0-1.2,0-1.6,0.1c-0.4,0.1-0.7,0.2-0.9,0.4s-0.3,0.5-0.4,1c0,0.4-0.1,1-0.1,1.7v12.3c0,0.7-0.3,1-0.9,1h-5.4
		c-0.5,0-0.8-0.3-0.8-1V1c0-0.7,0.3-1,0.8-1h5.5c0.4,0,0.6,0.1,0.7,0.3c0.1,0.2,0.1,0.5,0.1,0.9V28.3z"/>
</g>
</svg>
