<?xml version="1.0" encoding="utf-8"?>
<!-- Generator: Adobe Illustrator 24.0.2, SVG Export Plug-In . SVG Version: 6.00 Build 0)  -->
<svg version="1.1"
	 id="Layer_1" xmlns:krita="http://krita.org/namespaces/svg/krita" xmlns:sodipodi="http://sodipodi.sourceforge.net/DTD/sodipodi-0.dtd"
	 xmlns="http://www.w3.org/2000/svg" xmlns:xlink="http://www.w3.org/1999/xlink" x="0px" y="0px" viewBox="0 0 604.2 70.3"
	 style="enable-background:new 0 0 604.2 70.3;" xml:space="preserve">
<style type="text/css">
	.st0{enable-background:new    ;}
	.st1{fill:#E8ECD7;}
</style>
<g class="st0">
	<path class="st1" d="M35.6,19.2c0,3.1-0.5,5.9-1.4,8.3c-1,2.4-2.1,4.1-3.5,5.1c-1.1,0.9-2.6,1.5-4.6,1.8c-2,0.4-4.5,0.5-7.6,0.5
		H8.6c-0.5,0-0.9,0.1-1.2,0.4c-0.2,0.2-0.4,0.7-0.4,1.4v15.5c0,0.6-0.1,1-0.3,1.3c-0.2,0.2-0.6,0.3-1.2,0.3H0.9
		c-0.4,0-0.6-0.1-0.7-0.3C0,53.4,0,53.2,0,52.8V6.5c0-0.4,0.1-0.6,0.3-0.8c0.2-0.1,0.4-0.2,0.6-0.3c2.4-0.1,4.9-0.2,7.6-0.3
		S14,5,16.8,5c2.3,0,4.2,0,5.8,0.1s2.9,0.2,4,0.4c1.1,0.2,2,0.4,2.7,0.7c0.7,0.3,1.3,0.6,1.9,1c0.6,0.4,1.1,0.9,1.6,1.5
		c0.5,0.6,1,1.5,1.4,2.4c0.4,1,0.7,2.1,1,3.4C35.5,15.9,35.6,17.4,35.6,19.2z M28.3,19.9c0-2.2-0.2-3.8-0.7-4.9
		c-0.5-1.1-1-1.9-1.8-2.4c-0.3-0.2-0.7-0.4-1.1-0.6c-0.5-0.2-1-0.3-1.7-0.4c-0.7-0.1-1.5-0.2-2.5-0.3c-1-0.1-2.2-0.1-3.7-0.1
		c-1.7,0-3.3,0-4.8,0c-1.5,0-2.7,0-3.7,0.1c-0.4,0-0.8,0.2-1,0.3c-0.2,0.2-0.3,0.5-0.3,1v14.8c0,0.6,0.1,1,0.3,1.3
		C7.5,28.9,7.9,29,8.6,29h9.1c2.1,0,3.6-0.1,4.6-0.2c1-0.1,1.9-0.3,2.5-0.6c0.9-0.5,1.7-1.5,2.4-2.8C27.9,24.1,28.3,22.3,28.3,19.9z
		"/>
	<path class="st1" d="M45.1,17.9c0-0.6,0.3-1,1-1.2c1.9-0.2,4.1-0.5,6.4-0.7c2.4-0.2,4.6-0.3,6.7-0.3c2,0,3.7,0,5.1,0.1
		c1.4,0.1,2.5,0.3,3.1,0.6c0.7,0.4,1.3,1.1,1.8,2.1c0.5,1,0.7,2,0.7,2.9c0,0.3-0.1,0.5-0.3,0.7c-0.2,0.2-0.4,0.2-0.6,0.2
		c-0.9-0.1-2.1-0.2-3.5-0.3c-1.4-0.1-2.7-0.1-3.9-0.1c-1.2,0-2.5,0-3.7,0.1c-1.2,0-2.4,0.1-3.5,0.2c-0.4,0.1-0.8,0.2-1.1,0.3
		c-0.3,0.1-0.5,0.2-0.7,0.4c-0.2,0.2-0.3,0.5-0.3,0.8c0,0.3-0.1,0.8-0.1,1.4v27.6c0,0.7-0.3,1-1,1h-5.2c-0.6,0-0.9-0.3-0.9-1V17.9z"
		/>
	<path class="st1" d="M111.9,34.6c0,4.4-0.5,8-1.6,10.8c-1.1,2.8-2.3,4.7-3.7,5.9c-1.2,1-3,1.8-5.2,2.5c-2.2,0.6-5.1,1-8.5,1
		c-3.4,0-6.2-0.4-8.4-1.1c-2.2-0.7-3.9-1.7-5.1-2.8c-1.2-1.2-2.2-2.9-3-5.2C75.4,43.3,75,40,75,35.6c0-4.4,0.5-8,1.6-10.7
		c1.1-2.7,2.4-4.7,4-5.9c1.3-1,3.1-1.8,5.3-2.4c2.2-0.6,5-0.9,8.3-0.9c3.5,0,6.3,0.3,8.5,0.9c2.2,0.6,3.8,1.5,5,2.7
		c0.6,0.6,1.1,1.3,1.6,2.1c0.5,0.8,1,1.8,1.4,3.1c0.4,1.2,0.7,2.7,1,4.4C111.8,30.4,111.9,32.4,111.9,34.6z M104.9,34.9
		c0-3.1-0.2-5.5-0.7-7.1c-0.5-1.6-1.2-2.9-2-3.9c-1.3-1.6-4.1-2.4-8.3-2.4c-2.2,0-4,0.2-5.4,0.6c-1.4,0.4-2.5,1-3.2,1.7
		c-0.9,0.8-1.6,2.1-2.3,3.9c-0.6,1.8-1,4.3-1,7.5c0,2.7,0.2,5,0.7,6.9c0.5,1.8,1.2,3.2,2,4.1c0.8,0.8,2,1.4,3.5,1.8
		c1.5,0.4,3.1,0.5,4.9,0.5c3.9,0,6.7-0.6,8.3-1.9c1-0.7,1.8-2.1,2.5-4C104.6,40.8,104.9,38.2,104.9,34.9z"/>
	<path class="st1" d="M158,34.6c0,4.4-0.5,8-1.6,10.8c-1.1,2.8-2.3,4.7-3.7,5.9c-1.2,1-3,1.8-5.2,2.5c-2.2,0.6-5.1,1-8.5,1
		c-3.4,0-6.2-0.4-8.4-1.1c-2.2-0.7-3.9-1.7-5.1-2.8c-1.2-1.2-2.2-2.9-3-5.2c-0.9-2.3-1.3-5.6-1.3-9.9c0-4.4,0.5-8,1.6-10.7
		c1.1-2.7,2.4-4.7,4-5.9c1.3-1,3.1-1.8,5.3-2.4c2.2-0.6,5-0.9,8.3-0.9c3.5,0,6.3,0.3,8.5,0.9c2.2,0.6,3.8,1.5,5,2.7
		c0.6,0.6,1.1,1.3,1.6,2.1c0.5,0.8,1,1.8,1.4,3.1c0.4,1.2,0.7,2.7,1,4.4C157.9,30.4,158,32.4,158,34.6z M151.1,34.9
		c0-3.1-0.2-5.5-0.7-7.1c-0.5-1.6-1.2-2.9-2-3.9c-1.3-1.6-4.1-2.4-8.3-2.4c-2.2,0-4,0.2-5.4,0.6c-1.4,0.4-2.5,1-3.2,1.7
		c-0.9,0.8-1.6,2.1-2.3,3.9c-0.6,1.8-1,4.3-1,7.5c0,2.7,0.2,5,0.7,6.9c0.5,1.8,1.2,3.2,2,4.1c0.8,0.8,2,1.4,3.5,1.8s3.1,0.5,4.9,0.5
		c3.9,0,6.7-0.6,8.3-1.9c1-0.7,1.8-2.1,2.5-4C150.7,40.8,151.1,38.2,151.1,34.9z"/>
	<path class="st1" d="M171,25.1c0-1.3-0.2-2.2-0.6-2.5c-0.4-0.3-1.1-0.5-2.2-0.5h-3c-0.6,0-0.9-0.4-0.9-1.2c0-0.3,0.1-0.7,0.2-1.2
		c0.1-0.5,0.3-0.9,0.5-1.3c0.2-0.4,0.4-0.8,0.6-1.2c0.2-0.4,0.5-0.6,0.7-0.7c0.2-0.1,0.5-0.2,0.8-0.3c0.3,0,0.7,0,1.2,0h1.2
		c0.6,0,1-0.1,1.2-0.4c0.2-0.3,0.3-0.7,0.3-1.4c0-3.2,0.3-5.6,0.8-7.2c0.5-1.6,1.3-3,2.3-4c1.1-1,2.5-1.7,4.5-2.3
		c1.9-0.6,4.5-0.9,7.7-0.9c4,0,6.5,0.3,7.6,1c0.7,0.4,1.2,1,1.6,1.9c0.4,0.9,0.6,1.7,0.6,2.4c0,0.6-0.3,0.9-0.9,0.9
		c-0.7,0-1.6-0.1-2.9-0.2C190.9,6,189.3,6,187.3,6c-2.3,0-4,0.1-5.1,0.4c-1.1,0.3-2,0.7-2.5,1.3c-0.5,0.5-0.9,1.3-1.2,2.2
		c-0.2,0.9-0.4,2.3-0.4,4.2v0.5c0,0.6,0.1,1,0.4,1.3c0.2,0.3,0.9,0.4,2,0.4h13.7c0.7,0,1,0.3,1,0.9c0,0.3-0.1,0.6-0.2,1.1
		c-0.1,0.4-0.3,0.9-0.5,1.3c-0.2,0.4-0.5,0.8-0.7,1.2c-0.3,0.4-0.5,0.6-0.8,0.8c-0.4,0.4-1.4,0.6-3,0.6h-9.1c-1.2,0-2,0.1-2.3,0.4
		s-0.4,1-0.4,2.2v28.1c0,0.7-0.4,1-1.1,1h-5.2c-0.6,0-0.9-0.3-0.9-1V25.1z"/>
	<path class="st1" d="M252.5,34.6c0,4.4-0.5,8-1.6,10.8c-1.1,2.8-2.3,4.7-3.7,5.9c-1.2,1-3,1.8-5.2,2.5c-2.2,0.6-5.1,1-8.5,1
		c-3.4,0-6.2-0.4-8.4-1.1c-2.2-0.7-3.9-1.7-5.1-2.8c-1.2-1.2-2.2-2.9-3-5.2c-0.9-2.3-1.3-5.6-1.3-9.9c0-4.4,0.5-8,1.6-10.7
		c1.1-2.7,2.4-4.7,4-5.9c1.3-1,3.1-1.8,5.3-2.4c2.2-0.6,5-0.9,8.3-0.9c3.5,0,6.3,0.3,8.5,0.9c2.2,0.6,3.8,1.5,5,2.7
		c0.6,0.6,1.1,1.3,1.6,2.1c0.5,0.8,1,1.8,1.4,3.1c0.4,1.2,0.7,2.7,1,4.4C252.4,30.4,252.5,32.4,252.5,34.6z M245.5,34.9
		c0-3.1-0.2-5.5-0.7-7.1c-0.5-1.6-1.2-2.9-2-3.9c-1.3-1.6-4.1-2.4-8.3-2.4c-2.2,0-4,0.2-5.4,0.6c-1.4,0.4-2.5,1-3.2,1.7
		c-0.9,0.8-1.6,2.1-2.3,3.9c-0.6,1.8-1,4.3-1,7.5c0,2.7,0.2,5,0.7,6.9c0.5,1.8,1.2,3.2,2,4.1c0.8,0.8,2,1.4,3.5,1.8
		c1.5,0.4,3.1,0.5,4.9,0.5c3.9,0,6.7-0.6,8.3-1.9c1-0.7,1.8-2.1,2.5-4C245.2,40.8,245.5,38.2,245.5,34.9z"/>
	<path class="st1" d="M265.5,25.1c0-1.3-0.2-2.2-0.6-2.5c-0.4-0.3-1.1-0.5-2.2-0.5h-3c-0.6,0-0.9-0.4-0.9-1.2c0-0.3,0.1-0.7,0.2-1.2
		c0.1-0.5,0.3-0.9,0.5-1.3c0.2-0.4,0.4-0.8,0.6-1.2c0.2-0.4,0.5-0.6,0.7-0.7c0.2-0.1,0.5-0.2,0.8-0.3c0.3,0,0.7,0,1.2,0h1.2
		c0.6,0,1-0.1,1.2-0.4c0.2-0.3,0.3-0.7,0.3-1.4c0-3.2,0.3-5.6,0.8-7.2c0.5-1.6,1.3-3,2.3-4c1.1-1,2.5-1.7,4.5-2.3
		c1.9-0.6,4.5-0.9,7.7-0.9c4,0,6.5,0.3,7.6,1c0.7,0.4,1.2,1,1.6,1.9c0.4,0.9,0.6,1.7,0.6,2.4c0,0.6-0.3,0.9-0.9,0.9
		c-0.7,0-1.6-0.1-2.9-0.2C285.4,6,283.8,6,281.8,6c-2.3,0-4,0.1-5.1,0.4c-1.1,0.3-2,0.7-2.5,1.3c-0.5,0.5-0.9,1.3-1.2,2.2
		c-0.2,0.9-0.4,2.3-0.4,4.2v0.5c0,0.6,0.1,1,0.4,1.3s0.9,0.4,2,0.4h13.7c0.7,0,1,0.3,1,0.9c0,0.3-0.1,0.6-0.2,1.1
		c-0.1,0.4-0.3,0.9-0.5,1.3c-0.2,0.4-0.5,0.8-0.7,1.2c-0.3,0.4-0.5,0.6-0.8,0.8c-0.4,0.4-1.4,0.6-3,0.6h-9.1c-1.2,0-2,0.1-2.3,0.4
		s-0.4,1-0.4,2.2v28.1c0,0.7-0.4,1-1.1,1h-5.2c-0.6,0-0.9-0.3-0.9-1V25.1z"/>
	<path class="st1" d="M317.8,29.6c0,4.2,0.4,7.6,1.1,10.2s1.8,4.4,3.1,5.3c1.1,0.8,2.7,1.5,4.7,1.9c2,0.5,4.8,0.7,8.2,0.7
		c1.4,0,2.8,0,4.1-0.1c1.3-0.1,2.6-0.2,3.8-0.3c1.2-0.1,2.3-0.2,3.2-0.4c1-0.1,1.8-0.2,2.4-0.3c0.6-0.1,0.9,0.2,0.9,0.9
		c-0.1,0.8-0.4,1.8-1,2.8c-0.6,1.1-1.3,1.9-2.1,2.3c-0.8,0.4-2.3,0.8-4.5,1.2c-2.2,0.3-5.2,0.5-9.1,0.5c-4.2,0-7.6-0.4-10.3-1.2
		s-4.6-1.8-6-3.1c-0.8-0.7-1.6-1.5-2.3-2.6s-1.3-2.4-1.9-4.1c-0.5-1.6-1-3.5-1.3-5.7c-0.3-2.2-0.5-4.7-0.5-7.6
		c0-5.9,0.7-10.5,2.1-13.8c1.4-3.4,3-5.8,4.9-7.4c0.7-0.6,1.6-1.2,2.6-1.7c1-0.5,2.2-0.9,3.6-1.3c1.4-0.4,2.9-0.7,4.7-0.9
		c1.8-0.2,3.8-0.3,6.1-0.3c3.1,0,5.6,0.1,7.6,0.3c2,0.2,3.5,0.6,4.3,1.1c0.5,0.2,0.9,0.6,1.3,1c0.4,0.4,0.7,0.9,0.9,1.3
		c0.3,0.5,0.5,0.9,0.6,1.4c0.1,0.5,0.2,0.9,0.2,1.2c0,0.3-0.1,0.5-0.2,0.8c-0.1,0.2-0.4,0.3-0.8,0.3c-1.5-0.2-3.3-0.4-5.4-0.6
		c-2.1-0.2-4.7-0.3-7.8-0.3c-3.6,0-6.3,0.3-8.2,0.8c-1.9,0.5-3.4,1.2-4.5,2.2c-1.3,1.1-2.4,2.9-3.2,5.4
		C318.2,22,317.8,25.4,317.8,29.6z"/>
	<path class="st1" d="M393.5,34.6c0,4.4-0.5,8-1.6,10.8c-1.1,2.8-2.3,4.7-3.7,5.9c-1.2,1-3,1.8-5.2,2.5c-2.2,0.6-5.1,1-8.5,1
		c-3.4,0-6.2-0.4-8.4-1.1c-2.2-0.7-3.9-1.7-5.1-2.8c-1.2-1.2-2.2-2.9-3-5.2c-0.9-2.3-1.3-5.6-1.3-9.9c0-4.4,0.5-8,1.6-10.7
		c1.1-2.7,2.4-4.7,4-5.9c1.3-1,3.1-1.8,5.3-2.4c2.2-0.6,5-0.9,8.3-0.9c3.5,0,6.3,0.3,8.5,0.9c2.2,0.6,3.8,1.5,5,2.7
		c0.6,0.6,1.1,1.3,1.6,2.1c0.5,0.8,1,1.8,1.4,3.1c0.4,1.2,0.7,2.7,1,4.4C393.4,30.4,393.5,32.4,393.5,34.6z M386.5,34.9
		c0-3.1-0.2-5.5-0.7-7.1c-0.5-1.6-1.2-2.9-2-3.9c-1.3-1.6-4.1-2.4-8.3-2.4c-2.2,0-4,0.2-5.4,0.6c-1.4,0.4-2.5,1-3.2,1.7
		c-0.9,0.8-1.6,2.1-2.3,3.9c-0.6,1.8-1,4.3-1,7.5c0,2.7,0.2,5,0.7,6.9c0.5,1.8,1.2,3.2,2,4.1c0.8,0.8,2,1.4,3.5,1.8
		c1.5,0.4,3.1,0.5,4.9,0.5c3.9,0,6.7-0.6,8.3-1.9c1-0.7,1.8-2.1,2.5-4C386.1,40.8,386.5,38.2,386.5,34.9z"/>
	<path class="st1" d="M438.5,52.9c0,0.6-0.3,0.9-0.9,0.9h-4.4c-0.8,0-1.3-0.2-1.5-0.5c-0.2-0.3-0.3-0.9-0.3-1.7V31.6
		c0-2.3-0.1-4-0.4-5.1c-0.3-1.1-0.7-2-1.2-2.7c-0.6-0.7-1.5-1.2-2.7-1.5c-1.2-0.3-2.8-0.5-5-0.5c-1.9,0-3.5,0-4.8,0.1
		c-1.3,0.1-2.5,0.2-3.6,0.3c-0.8,0.1-1.3,0.3-1.5,0.6c-0.2,0.3-0.3,1.1-0.3,2.2v27.7c0,0.7-0.3,1-0.9,1h-5.3c-0.6,0-0.9-0.3-0.9-1
		V18c0-0.5,0.3-0.9,1-1c2-0.2,4.5-0.5,7.5-0.8s6-0.4,9.2-0.4c3.8,0,6.7,0.3,8.7,0.8c2,0.5,3.6,1.3,4.7,2.4c1,1,1.6,2.3,2.1,4
		c0.4,1.6,0.6,4,0.6,7.1V52.9z"/>
	<path class="st1" d="M478.5,16.9c0.7,0.4,1.3,1.1,1.7,2c0.4,0.9,0.6,1.7,0.6,2.4c0,0.4-0.2,0.7-0.5,1c-0.3,0.3-0.6,0.3-0.8,0.3
		c-1.2-0.1-2.7-0.3-4.2-0.4c-1.6-0.1-3.4-0.2-5.4-0.2c-2.7,0-4.9,0.2-6.4,0.5c-1.6,0.4-2.7,0.9-3.5,1.5c-0.9,0.8-1.7,2.1-2.3,3.9
		c-0.6,1.8-0.9,4.1-0.9,7c0,3.3,0.2,5.8,0.7,7.4s1.2,2.9,2.1,3.7c1.7,1.4,5,2.2,9.9,2.2c2.4,0,4.5-0.1,6.1-0.3
		c1.6-0.2,3-0.4,4.2-0.5c0.2-0.1,0.5-0.1,0.7,0.1s0.4,0.4,0.4,0.8s-0.1,0.7-0.3,1.2c-0.2,0.5-0.4,0.9-0.6,1.4
		c-0.2,0.5-0.5,0.9-0.9,1.4c-0.3,0.4-0.7,0.7-1,0.9c-0.7,0.4-1.9,0.7-3.8,1c-1.8,0.3-4.1,0.4-6.9,0.4c-3.5,0-6.2-0.3-8.2-0.9
		c-2-0.6-3.7-1.5-5-2.6c-1.4-1.2-2.5-3-3.4-5.4s-1.3-5.8-1.3-10.2c0-4.2,0.5-7.6,1.6-10.2c1.1-2.6,2.4-4.6,3.9-6
		c1.2-1.1,3-2,5.2-2.6c2.2-0.6,5.1-0.9,8.7-0.9C474,15.6,477.2,16.1,478.5,16.9z"/>
	<path class="st1" d="M487.8,35.4c0-4.3,0.5-7.7,1.5-10.4c1-2.6,2.3-4.6,3.9-6c1.2-1.1,2.9-1.9,5-2.5c2.1-0.6,4.8-0.9,7.9-0.9
		c3.1,0,5.6,0.3,7.5,0.8c1.8,0.5,3.3,1.2,4.4,2.2c0.6,0.6,1.2,1.3,1.7,2.1c0.5,0.8,0.9,1.9,1.3,3.1c0.4,1.3,0.6,2.8,0.9,4.6
		c0.2,1.8,0.3,3.9,0.3,6.3c0,0.9-0.1,1.5-0.4,1.9c-0.2,0.4-0.7,0.6-1.4,0.6h-22.8c-1.1,0-1.7,0.1-2,0.3c-0.3,0.2-0.4,0.6-0.4,1.1
		c0,1.7,0.2,3.2,0.6,4.4c0.4,1.3,1,2.3,1.9,3.1c0.8,0.8,2.1,1.3,3.8,1.7c1.7,0.3,3.8,0.5,6.2,0.5c2.4,0,4.8-0.1,6.9-0.4
		c2.2-0.3,3.9-0.5,5.1-0.8c0.2,0,0.5,0,0.7,0.2c0.2,0.2,0.3,0.4,0.3,0.8c0,0.4-0.1,0.8-0.3,1.3c-0.2,0.5-0.4,0.9-0.7,1.4
		c-0.3,0.5-0.6,0.9-1,1.3c-0.4,0.4-0.7,0.7-1.1,0.9c-0.7,0.4-2.1,0.7-4,1c-2,0.3-4.5,0.4-7.5,0.4c-3.5,0-6.3-0.3-8.5-0.9
		c-2.2-0.6-4-1.5-5.2-2.6c-0.7-0.6-1.4-1.4-1.9-2.2s-1-1.9-1.4-3.1c-0.4-1.2-0.7-2.7-0.9-4.3S487.8,37.6,487.8,35.4z M505.6,21.2
		c-3.5,0-6,0.7-7.6,2c-0.5,0.4-0.9,0.9-1.2,1.5c-0.3,0.6-0.6,1.2-0.8,1.9c-0.2,0.7-0.4,1.3-0.5,2c-0.1,0.7-0.2,1.3-0.2,1.9
		c0,0.5,0.1,0.9,0.4,1c0.3,0.1,0.9,0.2,1.9,0.2h13.3c0.9,0,1.7,0,2.3,0c0.6,0,1-0.1,1.2-0.3c0.2-0.2,0.4-0.5,0.4-0.7
		c0-0.2,0.1-0.5,0.1-0.9c0-1.5-0.2-2.9-0.5-4.2c-0.4-1.3-0.9-2.2-1.7-2.8c-0.6-0.5-1.5-0.9-2.6-1.2
		C508.9,21.4,507.4,21.2,505.6,21.2z"/>
	<path class="st1" d="M534.7,16.6c0.8-0.1,1.7-0.2,2.8-0.3c1.1-0.1,2.3-0.2,3.6-0.3c1.3-0.1,2.6-0.2,3.9-0.2c1.3,0,2.6-0.1,3.7-0.1
		c2.2,0,4.1,0.1,5.7,0.2c1.6,0.1,3,0.3,4.2,0.6c1.2,0.3,2.2,0.6,3,1c0.8,0.4,1.5,0.8,2.1,1.4c1.2,1.1,2.3,2.8,3,5.2s1.2,5.7,1.2,9.9
		c0,4.6-0.5,8.2-1.5,10.8c-1,2.6-2.1,4.6-3.4,5.8c-1.2,1.1-2.9,2-5.1,2.7c-2.2,0.7-5.1,1-8.6,1c-1.4,0-2.8,0-4.1-0.1
		c-1.3,0-2.5-0.1-3.6-0.1c-0.4,0-0.7,0-1,0.1c-0.3,0.1-0.4,0.5-0.4,1.1v13.1c0,0.8-0.1,1.3-0.4,1.6s-0.7,0.5-1.4,0.5h-4.2
		c-0.4,0-0.6-0.1-0.8-0.2c-0.1-0.1-0.2-0.5-0.2-0.9V18.6c0-0.7,0.1-1.2,0.4-1.4S534,16.7,534.7,16.6z M560.8,34.5
		c0-3.3-0.3-5.8-0.8-7.5c-0.6-1.7-1.2-2.8-1.9-3.5c-0.8-0.7-1.9-1.2-3.2-1.4c-1.3-0.3-3.2-0.4-5.5-0.4c-1.8,0-3.3,0-4.7,0.1
		c-1.3,0.1-2.4,0.2-3.1,0.3c-0.6,0.1-1,0.3-1.3,0.6s-0.3,1-0.3,1.9V45c0,1,0.1,1.7,0.4,2.1c0.2,0.4,0.7,0.6,1.3,0.7
		c0.9,0.2,1.9,0.3,3,0.4c1.2,0,2.4,0.1,3.8,0.1c2.6,0,4.6-0.2,6-0.6c1.4-0.4,2.4-0.9,3.2-1.7c0.9-0.8,1.6-2.2,2.2-4.1
		C560.5,39.9,560.8,37.5,560.8,34.5z"/>
	<path class="st1" d="M580.8,11.1c0-1,0-1.7,0.1-2.2c0.1-0.5,0.2-0.9,0.4-1.1c0.3-0.3,0.9-0.7,1.7-1c0.9-0.3,2-0.6,3.5-0.8
		c0.3,0,0.5,0,0.8,0.2c0.2,0.2,0.3,0.5,0.3,0.9v5.2c0,0.9,0,1.6,0.1,2.2c0.1,0.5,0.2,0.9,0.5,1.2c0.2,0.3,0.6,0.4,1.2,0.5
		c0.5,0.1,1.2,0.1,2.1,0.1h11.6c0.7,0,1.1,0.3,1.1,0.9c0,0.4-0.1,0.9-0.3,1.4c-0.2,0.5-0.5,0.9-0.8,1.4s-0.6,0.8-0.9,1.1
		c-0.3,0.3-0.6,0.5-0.8,0.6c-0.4,0.2-0.8,0.3-1.1,0.4c-0.4,0-0.9,0.1-1.6,0.1H591c-1.4,0-2.3,0.2-2.7,0.6c-0.4,0.4-0.6,1.3-0.6,2.7
		v15.3c0,2.1,0.1,3.5,0.3,4.4c0.2,0.9,0.5,1.5,1,1.9c0.5,0.4,1.2,0.7,2.2,0.9c1,0.2,2.4,0.3,4.1,0.3c1.4,0,2.7,0,3.9-0.1
		c1.2-0.1,2.2-0.2,3.1-0.4c0.2,0,0.5,0,0.7,0.2c0.2,0.2,0.4,0.4,0.4,0.7c0,0.4-0.1,0.9-0.3,1.3c-0.2,0.5-0.4,0.9-0.7,1.3
		s-0.6,0.8-1,1.2c-0.4,0.3-0.7,0.6-1,0.8c-0.5,0.3-1.4,0.5-2.6,0.7c-1.2,0.2-3,0.3-5.3,0.3c-2.5,0-4.6-0.2-6.1-0.6
		c-1.5-0.4-2.7-1-3.5-1.7c-0.4-0.4-0.7-0.8-1-1.3c-0.3-0.5-0.5-1.1-0.6-1.8c-0.2-0.7-0.3-1.6-0.4-2.6s-0.1-2.3-0.1-3.9V25.3
		c0-1.5-0.2-2.4-0.6-2.7c-0.4-0.3-1.1-0.5-2.2-0.5h-3.1c-0.3,0-0.5-0.1-0.6-0.3c-0.1-0.2-0.2-0.3-0.2-0.5c0-0.4,0.1-0.9,0.2-1.4
		c0.1-0.5,0.3-1,0.5-1.4c0.2-0.4,0.4-0.8,0.7-1.2c0.2-0.3,0.5-0.6,0.7-0.7c0.5-0.2,1.1-0.4,1.9-0.4h1.1c1,0,1.5-0.7,1.5-2V11.1z"/>
</g>
</svg>
