<?xml version="1.0" encoding="utf-8"?>
<!-- Generator: Adobe Illustrator 24.0.2, SVG Export Plug-In . SVG Version: 6.00 Build 0)  -->
<svg version="1.1"
	 id="Layer_1" xmlns:krita="http://krita.org/namespaces/svg/krita" xmlns:sodipodi="http://sodipodi.sourceforge.net/DTD/sodipodi-0.dtd"
	 xmlns="http://www.w3.org/2000/svg" xmlns:xlink="http://www.w3.org/1999/xlink" x="0px" y="0px" viewBox="0 0 255.3 54.1"
	 style="enable-background:new 0 0 255.3 54.1;" xml:space="preserve">
<style type="text/css">
	.st0{enable-background:new    ;}
	.st1{fill:#E8ECD7;}
</style>
<g class="st0">
	<path class="st1" d="M0,6.1c0-0.7,0.3-1,0.9-1C2,5.1,3.2,5,4.5,5c1.3,0,2.7-0.1,4-0.1c1.4,0,2.7-0.1,4.1-0.1s2.7,0,3.9,0
		c2.4,0,4.4,0,6,0.1c1.7,0.1,3.1,0.2,4.3,0.4C28,5.4,29,5.7,29.7,6c0.8,0.3,1.4,0.6,2,1c1.2,0.8,2.2,2.1,2.9,3.7
		c0.7,1.7,1.1,3.9,1.1,6.6c0,2.9-0.4,5.3-1.1,7.3c-0.7,2-1.7,3.7-2.8,5.3c-0.5,0.6-0.8,1.1-1,1.5c-0.2,0.4-0.3,0.8-0.3,1.3
		c0,0.5,0.1,1.2,0.3,1.9c0.2,0.7,0.5,1.8,1,3.1l5.5,14.5c0.1,0.4,0.1,0.7,0,1c-0.2,0.3-0.4,0.4-0.8,0.4h-1.7c-1.7,0-3.1-0.3-4-0.9
		s-1.7-1.9-2.3-3.8l-3.7-10.2c-0.3-0.9-0.7-1.6-1-2.2c-0.4-0.6-0.8-1-1.2-1.3c-0.5-0.3-1-0.5-1.6-0.6c-0.6-0.1-1.4-0.2-2.2-0.2H8.7
		c-0.6,0-1,0.1-1.2,0.3c-0.2,0.2-0.4,0.7-0.4,1.3v16c0,0.6-0.1,1-0.3,1.3c-0.2,0.2-0.6,0.3-1.2,0.3H0.9c-0.4,0-0.6-0.1-0.7-0.3
		C0,53.1,0,52.9,0,52.6V6.1z M28.4,18.6c0-1.6-0.2-3-0.6-4c-0.4-1-0.9-1.8-1.6-2.4c-0.6-0.5-1.6-0.8-3.2-1.1
		c-1.5-0.2-3.7-0.4-6.4-0.4c-1.5,0-3.1,0-4.6,0c-1.5,0-2.8,0.1-3.7,0.2c-0.4,0-0.8,0.2-1,0.4c-0.2,0.2-0.3,0.6-0.3,1.1v14.2
		c0,0.7,0.1,1.1,0.3,1.3c0.2,0.2,0.6,0.3,1.2,0.3h10.9c1.4,0,2.4,0,3.1-0.1c0.7-0.1,1.3-0.2,1.8-0.4c0.3-0.1,0.7-0.5,1.2-0.9
		c0.5-0.5,0.9-1.1,1.3-1.9c0.4-0.8,0.7-1.7,1-2.8C28.2,21,28.4,19.9,28.4,18.6z"/>
	<path class="st1" d="M45.1,35.1c0-4.3,0.5-7.7,1.5-10.4c1-2.6,2.3-4.6,3.9-6c1.2-1.1,2.9-1.9,5-2.5c2.1-0.6,4.8-0.9,7.9-0.9
		c3.1,0,5.6,0.3,7.5,0.8c1.8,0.5,3.3,1.2,4.4,2.2c0.6,0.6,1.2,1.3,1.7,2.1c0.5,0.8,0.9,1.9,1.3,3.1c0.4,1.3,0.6,2.8,0.9,4.6
		c0.2,1.8,0.3,3.9,0.3,6.3c0,0.9-0.1,1.5-0.4,1.9c-0.2,0.4-0.7,0.6-1.4,0.6H54.9c-1.1,0-1.7,0.1-2,0.3c-0.3,0.2-0.4,0.6-0.4,1.1
		c0,1.7,0.2,3.2,0.6,4.4c0.4,1.3,1,2.3,1.9,3.1c0.8,0.8,2.1,1.3,3.8,1.7c1.7,0.3,3.8,0.5,6.2,0.5c2.4,0,4.8-0.1,6.9-0.4
		c2.2-0.3,3.9-0.5,5.1-0.8c0.2,0,0.5,0,0.7,0.2c0.2,0.2,0.3,0.4,0.3,0.8c0,0.4-0.1,0.8-0.3,1.3c-0.2,0.5-0.4,0.9-0.7,1.4
		c-0.3,0.5-0.6,0.9-1,1.3c-0.4,0.4-0.7,0.7-1.1,0.9c-0.7,0.4-2.1,0.7-4,1c-2,0.3-4.5,0.4-7.5,0.4c-3.5,0-6.3-0.3-8.5-0.9
		c-2.2-0.6-4-1.5-5.2-2.6c-0.7-0.6-1.4-1.4-1.9-2.2c-0.6-0.9-1-1.9-1.4-3.1c-0.4-1.2-0.7-2.7-0.9-4.3C45.2,39.3,45.1,37.3,45.1,35.1
		z M62.9,21c-3.5,0-6,0.7-7.6,2c-0.5,0.4-0.9,0.9-1.2,1.5c-0.3,0.6-0.6,1.2-0.8,1.9c-0.2,0.7-0.4,1.3-0.5,2
		c-0.1,0.7-0.2,1.3-0.2,1.9c0,0.5,0.1,0.9,0.4,1c0.3,0.1,0.9,0.2,1.9,0.2h13.3c0.9,0,1.7,0,2.3,0c0.6,0,1-0.1,1.2-0.3
		c0.2-0.2,0.4-0.5,0.4-0.7c0-0.2,0.1-0.5,0.1-0.9c0-1.5-0.2-2.9-0.5-4.2c-0.4-1.3-0.9-2.2-1.7-2.8c-0.6-0.5-1.5-0.9-2.6-1.2
		C66.2,21.1,64.7,21,62.9,21z"/>
	<path class="st1" d="M104.5,15.5c2.7,0,4.9,0.1,6.6,0.3c1.7,0.2,2.8,0.5,3.3,0.8c0.7,0.4,1.2,1.1,1.7,2.1c0.5,1,0.7,1.8,0.7,2.6
		c0,0.3-0.1,0.6-0.3,0.8c-0.2,0.2-0.4,0.2-0.7,0.2c-1.4-0.1-3-0.3-4.8-0.5c-1.8-0.2-3.8-0.3-6-0.3c-4.2,0-6.9,0.4-8.1,1.2
		c-0.5,0.4-0.9,0.9-1.2,1.7c-0.3,0.7-0.5,1.6-0.5,2.6c0,1.3,0.2,2.2,0.7,2.7c0.2,0.2,0.8,0.5,1.7,0.7c1,0.2,2.1,0.5,3.4,0.8
		s2.7,0.6,4.2,0.9s3,0.6,4.4,0.9c1.4,0.3,2.6,0.6,3.7,0.9c1.1,0.3,1.8,0.6,2.3,1c0.5,0.4,1,1.2,1.3,2.2c0.4,1.1,0.5,2.5,0.5,4.2
		c0,2.6-0.3,4.8-1,6.4c-0.7,1.6-1.5,2.8-2.4,3.6c-1,0.8-2.4,1.5-4.4,2c-2,0.5-4.8,0.8-8.5,0.8c-3.1,0-5.5-0.1-7.1-0.4
		c-1.6-0.2-2.7-0.6-3.4-1c-0.3-0.2-0.6-0.5-0.9-0.9c-0.3-0.4-0.6-0.9-0.8-1.3c-0.2-0.5-0.4-0.9-0.6-1.3c-0.1-0.4-0.2-0.8-0.2-1.1
		c0-0.4,0.1-0.7,0.3-0.8c0.2-0.2,0.4-0.2,0.7-0.2c1.5,0.2,3.3,0.5,5.3,0.7c2,0.2,4.2,0.3,6.6,0.3c2,0,3.6-0.1,4.9-0.3
		s2.2-0.5,2.7-0.9c0.5-0.4,0.9-0.9,1.3-1.6c0.3-0.7,0.5-1.5,0.5-2.5c0-1.4-0.3-2.4-0.9-2.7c-0.3-0.3-1-0.6-2-0.9s-2.2-0.6-3.5-0.9
		c-1.3-0.3-2.7-0.6-4.2-0.9c-1.5-0.3-2.9-0.6-4.3-0.9c-1.3-0.3-2.5-0.6-3.6-0.9c-1-0.3-1.7-0.6-2.1-1c-0.5-0.4-0.9-1.1-1.2-2.3
		c-0.3-1.1-0.4-2.2-0.4-3.3c0-2.8,0.3-5,1-6.7c0.7-1.7,1.6-2.9,2.7-3.9c1-0.9,2.5-1.5,4.5-2.1C98.5,15.7,101.2,15.5,104.5,15.5z"/>
	<path class="st1" d="M161.7,51.5c0,0.6-0.3,0.9-1,1.1c-0.8,0.2-1.8,0.4-3,0.5c-1.2,0.2-2.5,0.3-3.9,0.5c-1.4,0.1-2.9,0.3-4.4,0.3
		s-3.1,0.1-4.6,0.1c-4,0-7.1-0.3-9.3-0.9c-2.2-0.6-3.9-1.5-5-2.6c-0.5-0.5-0.9-1.1-1.2-1.8c-0.3-0.6-0.6-1.4-0.8-2.3
		c-0.2-0.9-0.3-1.9-0.4-3c-0.1-1.1-0.1-2.5-0.1-4V16.9c0-0.6,0.3-0.9,0.8-0.9h4.1c0.9,0,1.5,0.2,1.8,0.5c0.3,0.3,0.4,0.9,0.4,1.7
		v20.4c0,2,0.1,3.6,0.4,4.6c0.3,1.1,0.7,1.9,1.2,2.5c0.7,0.7,1.7,1.2,3,1.6c1.3,0.4,3.2,0.6,5.5,0.6c1.4,0,2.7,0,4-0.1
		c1.3-0.1,2.3-0.2,3.1-0.4c0.8-0.1,1.4-0.4,1.7-0.8c0.3-0.4,0.5-1.1,0.5-2.1V16.9c0-0.6,0.3-0.9,0.9-0.9h5.2c0.7,0,1,0.4,1,1.1V51.5
		z"/>
	<path class="st1" d="M182.1,52.6c0,0.6-0.3,0.9-0.9,0.9h-2.7c-1.3,0-2.2-0.2-2.7-0.6c-0.5-0.4-0.8-1.3-0.8-2.6V1c0-0.7,0.3-1,0.9-1
		h5.5c0.4,0,0.6,0.4,0.6,1.1V52.6z"/>
	<path class="st1" d="M197.1,10.8c0-1,0-1.7,0.1-2.2c0.1-0.5,0.2-0.9,0.4-1.1c0.3-0.3,0.9-0.7,1.7-1c0.9-0.3,2-0.6,3.5-0.8
		c0.3,0,0.5,0,0.8,0.2c0.2,0.2,0.3,0.5,0.3,0.9V12c0,0.9,0,1.6,0.1,2.2s0.2,0.9,0.5,1.2c0.2,0.3,0.6,0.4,1.2,0.5
		c0.5,0.1,1.2,0.1,2.1,0.1h11.6c0.7,0,1.1,0.3,1.1,0.9c0,0.4-0.1,0.9-0.3,1.4c-0.2,0.5-0.5,0.9-0.8,1.4s-0.6,0.8-0.9,1.1
		c-0.3,0.3-0.6,0.5-0.8,0.6c-0.4,0.2-0.8,0.3-1.1,0.4c-0.4,0-0.9,0.1-1.6,0.1h-7.8c-1.4,0-2.3,0.2-2.7,0.6c-0.4,0.4-0.6,1.3-0.6,2.7
		v15.3c0,2.1,0.1,3.5,0.3,4.4c0.2,0.9,0.5,1.5,1,1.9c0.5,0.4,1.2,0.7,2.2,0.9c1,0.2,2.4,0.3,4.1,0.3c1.4,0,2.7,0,3.9-0.1
		c1.2-0.1,2.2-0.2,3.1-0.4c0.2,0,0.5,0,0.7,0.2c0.2,0.2,0.4,0.4,0.4,0.7c0,0.4-0.1,0.9-0.3,1.3c-0.2,0.5-0.4,0.9-0.7,1.3
		s-0.6,0.8-1,1.2c-0.4,0.3-0.7,0.6-1,0.8c-0.5,0.3-1.4,0.5-2.6,0.7c-1.2,0.2-3,0.3-5.3,0.3c-2.5,0-4.6-0.2-6.1-0.6s-2.7-1-3.5-1.7
		c-0.4-0.4-0.7-0.8-1-1.3s-0.5-1.1-0.6-1.8c-0.2-0.7-0.3-1.6-0.4-2.6c-0.1-1-0.1-2.3-0.1-3.9V25c0-1.5-0.2-2.4-0.6-2.7
		c-0.4-0.3-1.1-0.5-2.2-0.5h-3.1c-0.3,0-0.5-0.1-0.6-0.3c-0.1-0.2-0.2-0.3-0.2-0.5c0-0.4,0.1-0.9,0.2-1.4c0.1-0.5,0.3-1,0.5-1.4
		c0.2-0.4,0.4-0.8,0.7-1.2c0.2-0.3,0.5-0.6,0.7-0.7c0.5-0.2,1.1-0.4,1.9-0.4h1.1c1,0,1.5-0.7,1.5-2V10.8z"/>
	<path class="st1" d="M242.2,15.5c2.7,0,4.9,0.1,6.6,0.3c1.7,0.2,2.8,0.5,3.3,0.8c0.7,0.4,1.2,1.1,1.7,2.1c0.5,1,0.7,1.8,0.7,2.6
		c0,0.3-0.1,0.6-0.3,0.8c-0.2,0.2-0.4,0.2-0.7,0.2c-1.4-0.1-3-0.3-4.8-0.5c-1.8-0.2-3.8-0.3-6-0.3c-4.2,0-6.9,0.4-8.1,1.2
		c-0.5,0.4-0.9,0.9-1.2,1.7c-0.3,0.7-0.5,1.6-0.5,2.6c0,1.3,0.2,2.2,0.7,2.7c0.2,0.2,0.8,0.5,1.7,0.7c1,0.2,2.1,0.5,3.4,0.8
		s2.7,0.6,4.2,0.9s3,0.6,4.4,0.9c1.4,0.3,2.6,0.6,3.7,0.9c1.1,0.3,1.8,0.6,2.3,1c0.5,0.4,1,1.2,1.3,2.2c0.4,1.1,0.5,2.5,0.5,4.2
		c0,2.6-0.3,4.8-1,6.4c-0.7,1.6-1.5,2.8-2.4,3.6c-1,0.8-2.4,1.5-4.4,2c-2,0.5-4.8,0.8-8.5,0.8c-3.1,0-5.5-0.1-7.1-0.4
		c-1.6-0.2-2.7-0.6-3.4-1c-0.3-0.2-0.6-0.5-0.9-0.9c-0.3-0.4-0.6-0.9-0.8-1.3c-0.2-0.5-0.4-0.9-0.6-1.3c-0.1-0.4-0.2-0.8-0.2-1.1
		c0-0.4,0.1-0.7,0.3-0.8c0.2-0.2,0.4-0.2,0.7-0.2c1.5,0.2,3.3,0.5,5.3,0.7c2,0.2,4.2,0.3,6.6,0.3c2,0,3.6-0.1,4.9-0.3
		s2.2-0.5,2.7-0.9c0.5-0.4,0.9-0.9,1.3-1.6c0.3-0.7,0.5-1.5,0.5-2.5c0-1.4-0.3-2.4-0.9-2.7c-0.3-0.3-1-0.6-2-0.9s-2.2-0.6-3.5-0.9
		c-1.3-0.3-2.7-0.6-4.2-0.9c-1.5-0.3-2.9-0.6-4.3-0.9c-1.3-0.3-2.5-0.6-3.6-0.9c-1-0.3-1.7-0.6-2.1-1c-0.5-0.4-0.9-1.1-1.2-2.3
		c-0.3-1.1-0.4-2.2-0.4-3.3c0-2.8,0.3-5,1-6.7c0.7-1.7,1.6-2.9,2.7-3.9c1-0.9,2.5-1.5,4.5-2.1C236.2,15.7,238.9,15.5,242.2,15.5z"/>
</g>
</svg>
