<?xml version="1.0" standalone="no"?>
<!DOCTYPE svg PUBLIC "-//W3C//DTD SVG 20010904//EN" "http://www.w3.org/TR/2001/REC-SVG-20010904/DTD/svg10.dtd">
<!-- Created using Krita: http://krita.org -->
<svg xmlns="http://www.w3.org/2000/svg" 
    xmlns:xlink="http://www.w3.org/1999/xlink"
    xmlns:krita="http://krita.org/namespaces/svg/krita"
    xmlns:sodipodi="http://sodipodi.sourceforge.net/DTD/sodipodi-0.dtd"
    width="841.923pt"
    height="2620.81pt"
    viewBox="0 0 841.923 2620.81">
<defs/>
<circle id="shape1" transform="matrix(0.999999955285772 0 0 0.999999955285772 -94.0803016267506 28.8001068038506)" r="236.16088119539" cx="236.16088119539" cy="236.16088119539" fill="#1b2b38" fill-rule="evenodd"/><path id="shape3" transform="matrix(0.994653941436039 0.103263969308262 -0.103263969308262 0.994653941436039 -107.597499709162 -109.893286356626)" fill="#1b2b38" fill-rule="evenodd" stroke="#1b2b38" stroke-width="9.60003582095081" stroke-linecap="square" stroke-linejoin="bevel" d="M8.35217 727.464C65.9654 636.781 441.835 677.869 520.058 628.273C598.28 578.677 629.604 487.317 694.862 393.346C760.12 299.375 814.936 215.846 901.076 103.603C987.22 -8.64059 971.108 -2.39574 982 1.80061C1022.95 17.5842 1009.33 366.996 950.672 489.927C896.615 603.211 718.268 764.009 619.162 795.332C520.058 826.656 386.846 784.891 271.992 834.487C157.139 884.082 113.058 982.144 73.6098 967.608C33.765 952.934 -21.1083 773.836 8.35217 727.464Z"/><path id="shape4" transform="matrix(0.999999955285772 0 0 0.999999955285772 -355.70425415315 1099.69649796976)" fill="#1b2b38" fill-rule="evenodd" stroke="#1b2b38" stroke-width="9.60003582095081" stroke-linecap="square" stroke-linejoin="bevel" d="M290.537 62.4519C365.479 28.2391 268.634 7.42182 0 0"/><path id="shape5" transform="matrix(0.999999955285772 0 0 0.999999955285772 -163.963743030221 844.392917510432)" fill="#1b2b38" fill-rule="evenodd" stroke="#1b2b38" stroke-width="9.60003582095081" stroke-linecap="square" stroke-linejoin="bevel" d="M54.0911 140.631C96.6887 88.9687 232.353 41.2835 336.569 22.5388C440.783 3.79409 498.375 -11.2018 635.5 11.2919C772.625 33.7856 789.08 65.6517 959.115 95.6435C1129.15 125.635 1107.93 102.909 1131.89 125.635C1217.64 206.967 1186.1 508.109 1085.27 560.513C1074.22 566.256 1037.44 553.16 1016.71 551.141C883.686 538.185 717.957 539.894 569.771 524.898C421.586 509.902 429.813 474.287 284.461 489.283C139.108 504.279 104.044 594.981 70.5461 583.007C-17.3716 551.58 -23.4096 234.622 54.0911 140.631Z"/><path id="shape6" transform="matrix(0.903273317158956 0.429065525392348 -0.429065525392348 0.903273317158956 -67.4044260359307 1393.30527430234)" fill="#1b2b38" fill-rule="evenodd" stroke="#1b2b38" stroke-width="9.60003582095081" stroke-linecap="square" stroke-linejoin="bevel" d="M102.23 14.8946C158.867 -10.8491 185.395 -20.2288 391.641 133.037C597.888 286.303 631.154 528.972 637.808 602.412C644.46 675.852 647.786 877.013 614.521 953.646C581.255 1030.28 599.219 1018.78 581.255 1030.28C559.837 1043.98 492.743 1045.1 478.132 1030.28C469.636 1021.66 483.456 989.721 481.458 972.804C471.078 884.899 484.785 787.609 394.968 682.239C305.151 576.868 275.212 490.657 145.475 442.761C15.7396 394.866 31.2686 421.704 15.7396 394.866C-31.5637 313.112 36.6995 44.6807 102.23 14.8946Z"/><circle id="shape11" transform="matrix(0.999999936791082 0 0 0.999999936791082 407.041575199203 1762.56657405094)" r="404.787518580066" cx="404.787518580066" cy="404.787518580066" fill="#1b2b38" fill-rule="evenodd"/>
</svg>
