<svg xmlns="http://www.w3.org/2000/svg" xmlns:xlink="http://www.w3.org/1999/xlink" viewBox="0 0 735.64 354.79"><defs><style>.cls-1{fill:url(#Unbenannter_Verlauf_4);}.cls-2{fill:url(#Unbenannter_Verlauf_4-11);}.cls-3{fill:url(#Unbenannter_Verlauf_4-45);}.cls-4{fill:url(#Unbenannter_Verlauf_4-49);}</style><radialGradient id="Unbenannter_Verlauf_4" cx="167.67" cy="355" r="766.38" gradientTransform="translate(-4.64) scale(1.01 1)" gradientUnits="userSpaceOnUse"><stop offset="0" stop-color="#3cf4cc"/><stop offset="1" stop-color="#2ed265"/></radialGradient><radialGradient id="Unbenannter_Verlauf_4-11" cx="167.67" r="766.38" gradientTransform="matrix(1, 0, 0, 1, 0, 0)" xlink:href="#Unbenannter_Verlauf_4"/><radialGradient id="Unbenannter_Verlauf_4-45" cx="167.69" r="766.34" gradientTransform="matrix(1, 0, 0, 1, 0, 0)" xlink:href="#Unbenannter_Verlauf_4"/><radialGradient id="Unbenannter_Verlauf_4-49" cx="167.67" r="766.38" gradientTransform="matrix(1, 0, 0, 1, 0, 0)" xlink:href="#Unbenannter_Verlauf_4"/></defs><title>Logo_blank</title><g id="Ebene_1" data-name="Ebene 1"><path class="cls-1" d="M144.35,667.46a7.85,7.85,0,0,1-2.64,4.48,9.15,9.15,0,0,1-5.33,1.28h-2.91a1.1,1.1,0,0,1-1-.48,1.83,1.83,0,0,1-.32-1,4.84,4.84,0,0,1,.27-1.39l.7-2.24,14.75-48q1.29-4.17,2.37-6.94c.71-1.85,1.38-3.37,2-4.58A16,16,0,0,1,154,605.7a13.8,13.8,0,0,1,1.72-1.82,12.32,12.32,0,0,1,4.79-2.34,30.15,30.15,0,0,1,7.91-.86,32,32,0,0,1,7.59.7,10.76,10.76,0,0,1,4.47,2.18,10.46,10.46,0,0,1,1.56,1.76,22.33,22.33,0,0,1,1.72,2.94,33.91,33.91,0,0,1,1.83,4.58q.92,2.77,2.1,6.72L202.05,669q.44,1.39.54,1.92a6.15,6.15,0,0,1,.11,1.18c0,.78-.5,1.17-1.51,1.17h-3.77a7.94,7.94,0,0,1-4.95-1.28,9,9,0,0,1-2.58-4.69L185,650.82a5.12,5.12,0,0,0-1.61-2.51q-1-.69-4-.69H154.68a6.71,6.71,0,0,0-3.71.74,6.84,6.84,0,0,0-1.89,3.31Zm36.71-30.83a9.52,9.52,0,0,0-.38-2.08c-.25-1-.56-2.15-.91-3.57l-2.8-9.71a47.51,47.51,0,0,0-2.26-6.88,10.65,10.65,0,0,0-1.83-2.93,6,6,0,0,0-2-1,12,12,0,0,0-3.12-.32,10.64,10.64,0,0,0-3.12.37,8.85,8.85,0,0,0-2.05.91,5.75,5.75,0,0,0-1,1.06,12.68,12.68,0,0,0-1.08,1.76,25.13,25.13,0,0,0-1.24,2.88c-.43,1.18-.9,2.62-1.4,4.32l-2.9,9.82c-.36,1.21-.65,2.29-.86,3.25a10.81,10.81,0,0,0-.33,2,2.06,2.06,0,0,0,.76,1.82,6.39,6.39,0,0,0,3.23.53h19.81c1.5,0,2.47-.21,2.9-.64A2.17,2.17,0,0,0,181.06,636.63Z" transform="translate(-132.18 -319.61)"/><path class="cls-1" d="M220.57,667.46a7.79,7.79,0,0,1-2.64,4.48,9.13,9.13,0,0,1-5.33,1.28h-2.9a1.08,1.08,0,0,1-1-.48,1.76,1.76,0,0,1-.33-1,4.84,4.84,0,0,1,.27-1.39l.7-2.24,14.75-48q1.29-4.17,2.37-6.94c.72-1.85,1.38-3.37,2-4.58a16,16,0,0,1,1.78-2.88,14.49,14.49,0,0,1,1.72-1.82,12.39,12.39,0,0,1,4.79-2.34,30.28,30.28,0,0,1,7.92-.86,32.12,32.12,0,0,1,7.59.7,10.71,10.71,0,0,1,4.46,2.18,10,10,0,0,1,1.56,1.76,22.26,22.26,0,0,1,1.73,2.94,33.91,33.91,0,0,1,1.83,4.58q.92,2.77,2.1,6.72L278.28,669c.28.93.46,1.57.53,1.92a6.15,6.15,0,0,1,.11,1.18c0,.78-.5,1.17-1.51,1.17h-3.76a8,8,0,0,1-5-1.28,9.09,9.09,0,0,1-2.58-4.69l-4.85-16.43a5.05,5.05,0,0,0-1.61-2.51c-.65-.46-2-.69-4-.69H230.9a6.71,6.71,0,0,0-3.71.74,6.84,6.84,0,0,0-1.88,3.31Zm36.71-30.83a8.94,8.94,0,0,0-.38-2.08c-.25-1-.55-2.15-.91-3.57l-2.8-9.71a46.28,46.28,0,0,0-2.26-6.88,10.65,10.65,0,0,0-1.83-2.93,6,6,0,0,0-2-1,12,12,0,0,0-3.12-.32,10.64,10.64,0,0,0-3.12.37,9,9,0,0,0-2.05.91,5.75,5.75,0,0,0-1,1.06,15,15,0,0,0-1.08,1.76,25.29,25.29,0,0,0-1.23,2.88c-.43,1.18-.9,2.62-1.4,4.32l-2.91,9.82c-.36,1.21-.65,2.29-.86,3.25a10.51,10.51,0,0,0-.32,2,2.08,2.08,0,0,0,.75,1.82,6.42,6.42,0,0,0,3.23.53h19.81c1.51,0,2.47-.21,2.91-.64A2.16,2.16,0,0,0,257.28,636.63Z" transform="translate(-132.18 -319.61)"/><path class="cls-1" d="M300.34,637.27A56.14,56.14,0,0,0,302,652.42q1.68,5.76,4.58,7.89a19.44,19.44,0,0,0,7.05,2.88,56,56,0,0,0,12.22,1.07q3.12,0,6.14-.21t5.7-.48c1.8-.18,3.41-.36,4.85-.54s2.62-.3,3.55-.37,1.36.28,1.29,1.28a11.62,11.62,0,0,1-1.56,4.21,9.3,9.3,0,0,1-3.07,3.47,24.11,24.11,0,0,1-6.73,1.71,96.88,96.88,0,0,1-13.61.74,54.61,54.61,0,0,1-15.35-1.76,23.65,23.65,0,0,1-9-4.53,17.94,17.94,0,0,1-3.44-3.89,24.21,24.21,0,0,1-2.8-6,54.32,54.32,0,0,1-1.94-8.48,74.6,74.6,0,0,1-.75-11.26q0-13,3.07-20.48t7.37-11a18.54,18.54,0,0,1,3.88-2.51,29.9,29.9,0,0,1,5.33-2,47.52,47.52,0,0,1,7-1.34,76,76,0,0,1,9.1-.48c4.59,0,8.4.15,11.41.43a16.06,16.06,0,0,1,6.46,1.6,5.89,5.89,0,0,1,1.89,1.49,14.29,14.29,0,0,1,1.4,2,9.53,9.53,0,0,1,.91,2.08,6.28,6.28,0,0,1,.33,1.81,1.92,1.92,0,0,1-.33,1.12,1.14,1.14,0,0,1-1.18.37q-3.34-.42-8.08-.9t-11.62-.48A50.11,50.11,0,0,0,313.75,611a17.1,17.1,0,0,0-6.73,3.2q-2.91,2.46-4.79,8T300.34,637.27Z" transform="translate(-132.18 -319.61)"/><path class="cls-1" d="M420.92,671.73c0,1-.43,1.49-1.29,1.49h-5.81a3.93,3.93,0,0,1-2.85-.75c-.47-.49-.7-1.53-.7-3.09V646.76a19.81,19.81,0,0,0-.17-2.88,3,3,0,0,0-.64-1.6,2.42,2.42,0,0,0-1.4-.69,14.3,14.3,0,0,0-2.42-.16h-28a15,15,0,0,0-2.53.16,2.7,2.7,0,0,0-1.46.69,2.8,2.8,0,0,0-.7,1.6,20,20,0,0,0-.16,2.88v22.51c0,1.71-.27,2.79-.81,3.26a4.92,4.92,0,0,1-3.07.69h-5.59q-.87,0-1.08-.48a2.6,2.6,0,0,1-.22-1.12v-69c0-1,.43-1.49,1.3-1.49H369a4.4,4.4,0,0,1,3,.75c.54.49.81,1.63.81,3.41V626.5a22.09,22.09,0,0,0,.16,3,2.84,2.84,0,0,0,.7,1.65,2.35,2.35,0,0,0,1.46.64,23.1,23.1,0,0,0,2.53.11h28.09c1.87,0,3.09-.29,3.67-.86s.86-1.92.86-4.05v-22c0-1.64.23-2.71.7-3.2s1.45-.75,3-.75h5.7c.58,0,.93.12,1.08.37a2.66,2.66,0,0,1,.21,1.23Z" transform="translate(-132.18 -319.61)"/><path class="cls-1" d="M469.26,610.28h-7.48q-3.39,0-5.87.22a3.45,3.45,0,0,0-2.26.69,3.51,3.51,0,0,0-.54,2.29V630q0,1.28.54,1.65a2.85,2.85,0,0,0,1.62.37h33.16a1.33,1.33,0,0,1,1.5,1.5,5.36,5.36,0,0,1-.32,1.54,11.43,11.43,0,0,1-.86,2,15.81,15.81,0,0,1-1.24,2,4.81,4.81,0,0,1-1.45,1.39,5,5,0,0,1-2,.69,21.49,21.49,0,0,1-3,.16H455.38a2.55,2.55,0,0,0-1.73.48,2.66,2.66,0,0,0-.54,2v17.07a3.32,3.32,0,0,0,.7,2.45,3.59,3.59,0,0,0,2.43.64c1.14,0,2.65,0,4.52,0s4.41.06,7.64.06q8.5,0,14.48-.22t10.39-.42c1,0,1.51.42,1.51,1.28a5.37,5.37,0,0,1-.54,2.08,18.66,18.66,0,0,1-1.29,2.4,11.27,11.27,0,0,1-1.72,2.08,6.23,6.23,0,0,1-1.73,1.22,19.69,19.69,0,0,1-6,.8q-4.53.16-14,.16-7.75,0-13.89,0c-4.09,0-7.72-.13-10.87-.27a3.2,3.2,0,0,1-1.56-.53c-.61-.36-.92-1.14-.92-2.35V603.56c0-.92.27-1.51.81-1.76a3.49,3.49,0,0,1,1.45-.37c3.45-.14,6.93-.27,10.44-.37s7.61-.16,12.28-.16h7.59c2.4,0,4.54,0,6.4.05s3.45.11,4.74.21a15.67,15.67,0,0,1,2.69.38,3.53,3.53,0,0,1,1.56,1.06,9.86,9.86,0,0,1,1.46,2,14.43,14.43,0,0,1,1.07,2.45,7.12,7.12,0,0,1,.43,2.24,1.23,1.23,0,0,1-.48,1,1.78,1.78,0,0,1-1.13.37q-4.2-.21-10.07-.32T469.26,610.28Z" transform="translate(-132.18 -319.61)"/><path class="cls-1" d="M575.74,662.77a15.93,15.93,0,0,1-.7,5.38,9.18,9.18,0,0,1-1.78,3,6.72,6.72,0,0,1-3.17,1.92,22.89,22.89,0,0,1-6.84.75,26.63,26.63,0,0,1-6.35-.59,10.18,10.18,0,0,1-3.66-1.65q-2.58-2.13-5.06-8.43l-20.13-48.64a13.88,13.88,0,0,0-2.21-3.79,3.93,3.93,0,0,0-2.85-.9c-1.23,0-2,.23-2.37.69a3.78,3.78,0,0,0-.54,2.29v55.47c0,2-.47,3.31-1.4,4a8.19,8.19,0,0,1-4.52,1h-2.59c-.93,0-1.4-.53-1.4-1.6V612.31a22.62,22.62,0,0,1,.65-6.13,6.91,6.91,0,0,1,1.83-3.26,9,9,0,0,1,3.34-1.65,22.77,22.77,0,0,1,6.35-.69,28,28,0,0,1,6.57.58,10.31,10.31,0,0,1,3.55,1.55,11,11,0,0,1,2.64,3.15,40.49,40.49,0,0,1,2.74,6l20,48.43a12.63,12.63,0,0,0,2.1,3.47,3.76,3.76,0,0,0,2.74.91,2.4,2.4,0,0,0,2.37-1.07,6.43,6.43,0,0,0,.54-2.88V605.91a5.44,5.44,0,0,1,1-3.63q1-1.17,4.47-1.17H574a1.72,1.72,0,0,1,1.4.43,1.91,1.91,0,0,1,.32,1.17Z" transform="translate(-132.18 -319.61)"/><path class="cls-1" d="M617.73,665.22a24.91,24.91,0,0,1,.16-2.83,23.86,23.86,0,0,1,.48-2.77c.22-.89.45-1.69.7-2.4a5.49,5.49,0,0,1,.92-1.71,19.62,19.62,0,0,1,4.25-3.57q3.07-2.09,7-4.48t8.4-4.91q4.41-2.5,8.34-4.91t6.84-4.48a17.55,17.55,0,0,0,4-3.57,12.17,12.17,0,0,0,1.4-3.63,21.92,21.92,0,0,0,.54-5.12c0-3.91-.79-6.57-2.37-8q-1.29-1.38-4.79-2.13a50.42,50.42,0,0,0-10-.75q-3.12,0-6.24.22t-6,.53q-2.91.31-5.38.75l-4.31.74c-1.22.22-1.83-.25-1.83-1.38a4.61,4.61,0,0,1,.48-1.82,19,19,0,0,1,1.19-2.18,14.79,14.79,0,0,1,1.61-2.14,10.16,10.16,0,0,1,1.89-1.65,25,25,0,0,1,7.64-2.08,92.26,92.26,0,0,1,13.35-.8,60,60,0,0,1,13.84,1.23,17.28,17.28,0,0,1,7.59,3.68,14.59,14.59,0,0,1,3.39,5.92,28.45,28.45,0,0,1,1.24,8.8,32,32,0,0,1-1.3,9.49,18.32,18.32,0,0,1-3.66,6.83,23.36,23.36,0,0,1-4.57,3.68q-3.18,2.07-7.16,4.37t-8.29,4.64q-4.3,2.36-8,4.43c-2.48,1.38-4.62,2.63-6.41,3.73a12.15,12.15,0,0,0-3.34,2.62,3,3,0,0,0-.53,2.13,3.29,3.29,0,0,0,.1,1,1.78,1.78,0,0,1,.11.53,7.21,7.21,0,0,0,1.62.22c.93.07,2.15.12,3.66.16s3.24,0,5.22,0h6.3q5.8,0,10.17-.11t7.54-.26c2.11-.11,3.91-.22,5.38-.32l3.82-.27a1.62,1.62,0,0,1,1,.37,1.72,1.72,0,0,1,.49,1.44,5,5,0,0,1-.43,1.6,12.53,12.53,0,0,1-1.19,2.19c-.5.75-1,1.48-1.61,2.19a5,5,0,0,1-1.83,1.49c-1.22.64-3.81,1-7.75,1.23s-9.8.26-17.55.26q-12.5,0-18.41-.26t-6.57-1a4.4,4.4,0,0,1-1-2.34A36.31,36.31,0,0,1,617.73,665.22Z" transform="translate(-132.18 -319.61)"/><path class="cls-1" d="M747,636.74a80.61,80.61,0,0,1-.76,11.62,55.47,55.47,0,0,1-2,9,29.9,29.9,0,0,1-2.91,6.56,18.71,18.71,0,0,1-3.5,4.32,23.31,23.31,0,0,1-9,4.58,47.45,47.45,0,0,1-13,1.6q-8.71,0-13.88-2a18.9,18.9,0,0,1-11-9.12,29.52,29.52,0,0,1-2.47-6,50,50,0,0,1-1.67-8.32A88.24,88.24,0,0,1,686.2,638q0-12.27,2.64-19.84t6.4-11.1a25.56,25.56,0,0,1,8.61-4.69,41.51,41.51,0,0,1,13.57-1.92q8.61,0,13.73,1.71a21.3,21.3,0,0,1,8.12,4.58q3,3.11,5.39,10.3T747,636.74Zm-10.88.32a69.4,69.4,0,0,0-1.34-15.15q-1.35-5.76-3.72-8.21a11.49,11.49,0,0,0-6-3.1,36.65,36.65,0,0,0-8-.85A27.46,27.46,0,0,0,708,611a13.48,13.48,0,0,0-5.28,3.09q-2.26,2.36-4,8.16a54.07,54.07,0,0,0-1.77,15.31,59.29,59.29,0,0,0,1.5,14.93c1,3.7,2.26,6.37,3.77,8a11.66,11.66,0,0,0,5.6,3.41A28.11,28.11,0,0,0,715.8,665a32.7,32.7,0,0,0,9.1-1.07,14.42,14.42,0,0,0,5.44-2.67q2.14-2.13,4-8T736.15,637.06Z" transform="translate(-132.18 -319.61)"/><path class="cls-1" d="M759,665.22a24.91,24.91,0,0,1,.16-2.83,21.91,21.91,0,0,1,.48-2.77c.22-.89.45-1.69.7-2.4a5.49,5.49,0,0,1,.92-1.71,19.62,19.62,0,0,1,4.25-3.57q3.06-2.09,7-4.48c2.66-1.6,5.45-3.24,8.4-4.91s5.72-3.31,8.34-4.91,4.9-3.09,6.84-4.48a17.55,17.55,0,0,0,4-3.57,12.17,12.17,0,0,0,1.4-3.63,21.92,21.92,0,0,0,.54-5.12c0-3.91-.79-6.57-2.37-8q-1.29-1.38-4.79-2.13a50.42,50.42,0,0,0-10-.75q-3.12,0-6.24.22c-2.09.14-4.09.32-6,.53s-3.73.46-5.38.75l-4.31.74c-1.22.22-1.83-.25-1.83-1.38a4.61,4.61,0,0,1,.48-1.82,19,19,0,0,1,1.19-2.18,14.79,14.79,0,0,1,1.61-2.14A10.16,10.16,0,0,1,766.3,603a24.88,24.88,0,0,1,7.64-2.08,92.26,92.26,0,0,1,13.35-.8,59.85,59.85,0,0,1,13.83,1.23,17.17,17.17,0,0,1,7.59,3.68,14.49,14.49,0,0,1,3.4,5.92,28.46,28.46,0,0,1,1.23,8.8,32,32,0,0,1-1.29,9.49,18.32,18.32,0,0,1-3.66,6.83,23.36,23.36,0,0,1-4.57,3.68q-3.18,2.07-7.16,4.37t-8.29,4.64q-4.3,2.36-8,4.43c-2.48,1.38-4.62,2.63-6.41,3.73a12.15,12.15,0,0,0-3.34,2.62,3,3,0,0,0-.54,2.13,3.22,3.22,0,0,0,.11,1,1.78,1.78,0,0,1,.11.53,7.18,7.18,0,0,0,1.61.22c.94.07,2.16.12,3.67.16s3.24,0,5.22,0h6.29q5.82,0,10.18-.11t7.54-.26c2.11-.11,3.91-.22,5.38-.32l3.82-.27a1.62,1.62,0,0,1,1,.37,1.72,1.72,0,0,1,.49,1.44,5,5,0,0,1-.43,1.6,12.53,12.53,0,0,1-1.19,2.19c-.5.75-1,1.48-1.61,2.19a5,5,0,0,1-1.83,1.49c-1.22.64-3.81,1-7.75,1.23s-9.8.26-17.55.26q-12.5,0-18.41-.26t-6.57-1a4.4,4.4,0,0,1-1-2.34A36.31,36.31,0,0,1,759,665.22Z" transform="translate(-132.18 -319.61)"/><path class="cls-1" d="M867.82,671.51q0,1.71-1.62,1.71h-8.29c-.79,0-1.18-.46-1.18-1.39V614.44c0-1.49-.31-2.41-.91-2.77s-1.75-.36-3.4,0L836,614.87c-1,.14-1.51-.14-1.51-.85,0-3.7.51-6.19,1.51-7.47s2.91-2.13,5.49-2.56l24.23-4.69a2.14,2.14,0,0,1,1.67.16c.32.25.48.83.48,1.76Z" transform="translate(-132.18 -319.61)"/><path class="cls-2" d="M211.94,478.35a6,6,0,0,1-2.11-11.62A121.36,121.36,0,0,0,288.1,353.66a123,123,0,0,0-1.18-17A6,6,0,1,1,298.8,335,132.81,132.81,0,0,1,214.05,478,6,6,0,0,1,211.94,478.35Z" transform="translate(-132.18 -319.61)"/><path class="cls-2" d="M167.35,388.1a34.25,34.25,0,1,1,34.25-34.24A34.29,34.29,0,0,1,167.35,388.1Zm0-56.49a22.25,22.25,0,1,0,22.25,22.25A22.27,22.27,0,0,0,167.35,331.61Z" transform="translate(-132.18 -319.61)"/><path class="cls-2" d="M650.38,577.87a6,6,0,0,1-5.46-8.47,520.29,520.29,0,0,0,46.22-213.14,6,6,0,0,1,6-6h0a6,6,0,0,1,6,6,532.2,532.2,0,0,1-47.29,218A6,6,0,0,1,650.38,577.87Z" transform="translate(-132.18 -319.61)"/><path class="cls-2" d="M167.35,413.09a59.16,59.16,0,0,1-30.07-8.21,6,6,0,1,1,6.1-10.33,47.2,47.2,0,0,0,49.31-.84,6,6,0,0,1,6.45,10.12A59,59,0,0,1,167.35,413.09Z" transform="translate(-132.18 -319.61)"/><path class="cls-2" d="M220.05,408.26a6,6,0,0,1-4.42-10.06,65.05,65.05,0,0,0,13.9-23.56,6,6,0,1,1,11.38,3.81,77.13,77.13,0,0,1-16.44,27.87A6,6,0,0,1,220.05,408.26Z" transform="translate(-132.18 -319.61)"/><path class="cls-2" d="M167.35,431.42a77.13,77.13,0,0,1-29.29-5.74,6,6,0,1,1,4.54-11.11,65.6,65.6,0,0,0,50.91-.59,6,6,0,0,1,4.8,11A77.1,77.1,0,0,1,167.35,431.42Z" transform="translate(-132.18 -319.61)"/><path class="cls-2" d="M211.54,438.14a6,6,0,0,1-3-11.23,84.16,84.16,0,0,0,42.64-72.3,6,6,0,0,1,6-5.95h.06a6,6,0,0,1,5.94,6,96.21,96.21,0,0,1-48.74,82.65A6,6,0,0,1,211.54,438.14Z" transform="translate(-132.18 -319.61)"/><path class="cls-2" d="M167.35,449.75a95.86,95.86,0,0,1-28.82-4.42,6,6,0,0,1,3.6-11.44A84.09,84.09,0,0,0,194,433.4a6,6,0,0,1,3.81,11.38A95.73,95.73,0,0,1,167.35,449.75Z" transform="translate(-132.18 -319.61)"/><path class="cls-2" d="M210.11,459.29a6,6,0,0,1-2.38-11.51,102.19,102.19,0,0,0,61.85-93.92c0-3.28-.17-6.65-.5-10A6,6,0,1,1,281,342.67c.37,3.76.56,7.53.56,11.19a114.18,114.18,0,0,1-69.1,104.94A6,6,0,0,1,210.11,459.29Z" transform="translate(-132.18 -319.61)"/><path class="cls-2" d="M167.35,468.08a114.65,114.65,0,0,1-28.51-3.59,6,6,0,1,1,3-11.62,103.06,103.06,0,0,0,52.51-.42A6,6,0,1,1,197.49,464,114.32,114.32,0,0,1,167.35,468.08Z" transform="translate(-132.18 -319.61)"/><path class="cls-2" d="M167.35,486.41a133.35,133.35,0,0,1-28.3-3.06,6,6,0,0,1,2.55-11.72,120.88,120.88,0,0,0,53-.34,6,6,0,1,1,2.7,11.69A132.94,132.94,0,0,1,167.35,486.41Z" transform="translate(-132.18 -319.61)"/><path class="cls-2" d="M216.47,496.2a6,6,0,0,1-2-11.65,138,138,0,0,0,47.43-28.95,6,6,0,1,1,8.17,8.79,150,150,0,0,1-51.54,31.45A6,6,0,0,1,216.47,496.2Z" transform="translate(-132.18 -319.61)"/><path class="cls-2" d="M167.35,504.74a151.66,151.66,0,0,1-28.13-2.63,6,6,0,1,1,2.22-11.79,140.73,140.73,0,0,0,53.3-.28,6,6,0,1,1,2.35,11.76A151.94,151.94,0,0,1,167.35,504.74Z" transform="translate(-132.18 -319.61)"/><path class="cls-2" d="M307.73,395.86a6.39,6.39,0,0,1-1.49-.18,6,6,0,0,1-4.33-7.3,139.83,139.83,0,0,0,2.67-56,6,6,0,0,1,11.86-1.84,152,152,0,0,1-2.9,60.82A6,6,0,0,1,307.73,395.86Z" transform="translate(-132.18 -319.61)"/><path class="cls-2" d="M167.35,523.07a170.94,170.94,0,0,1-28-2.32,6,6,0,1,1,2-11.84,159.11,159.11,0,0,0,53.55-.24A6,6,0,1,1,197,520.48,170.55,170.55,0,0,1,167.35,523.07Z" transform="translate(-132.18 -319.61)"/><path class="cls-2" d="M327.46,391.68a5.86,5.86,0,0,1-1.17-.11,6,6,0,0,1-4.72-7.05,158.21,158.21,0,0,0,1.28-53.93,6,6,0,0,1,11.87-1.76,170.16,170.16,0,0,1-1.38,58A6,6,0,0,1,327.46,391.68Z" transform="translate(-132.18 -319.61)"/><path class="cls-2" d="M223.56,513.13a6,6,0,0,1-2.06-11.63A156.47,156.47,0,0,0,268,474.64a6,6,0,0,1,7.69,9.22,168.49,168.49,0,0,1-50,28.9A6,6,0,0,1,223.56,513.13Z" transform="translate(-132.18 -319.61)"/><path class="cls-2" d="M320.89,456.75a6,6,0,0,1-5.07-9.2c2.85-4.5,5.49-9.12,7.85-13.74a6,6,0,1,1,10.68,5.48c-2.53,4.93-5.35,9.87-8.39,14.67A6,6,0,0,1,320.89,456.75Z" transform="translate(-132.18 -319.61)"/><path class="cls-2" d="M167.35,541.4a189,189,0,0,1-27.91-2.07,6,6,0,0,1,1.78-11.87,177.79,177.79,0,0,0,53.76-.23,6,6,0,1,1,1.87,11.85A189.25,189.25,0,0,1,167.35,541.4Z" transform="translate(-132.18 -319.61)"/><path class="cls-2" d="M345.82,393.27a5.92,5.92,0,0,1-1.1-.1,6,6,0,0,1-4.8-7,176.94,176.94,0,0,0,1.57-54.63A6,6,0,0,1,353.4,330a191.07,191.07,0,0,1,1.5,23.83,189.29,189.29,0,0,1-3.18,34.51A6,6,0,0,1,345.82,393.27Z" transform="translate(-132.18 -319.61)"/><path class="cls-2" d="M233.5,529a6,6,0,0,1-2.19-11.59,175.2,175.2,0,0,0,46.95-27.46,6,6,0,0,1,7.59,9.3,187.29,187.29,0,0,1-50.17,29.34A6,6,0,0,1,233.5,529Z" transform="translate(-132.18 -319.61)"/><path class="cls-2" d="M363.22,399.88a5.58,5.58,0,0,1-1.2-.13,6,6,0,0,1-4.68-7.07,195.48,195.48,0,0,0,3.89-38.82c0-6-.3-12.23-.88-18.4a6,6,0,1,1,11.95-1.12c.62,6.54.93,13.1.93,19.52a207.44,207.44,0,0,1-4.13,41.21A6,6,0,0,1,363.22,399.88Z" transform="translate(-132.18 -319.61)"/><path class="cls-2" d="M167.35,559.73a208.07,208.07,0,0,1-27.83-1.88A6,6,0,1,1,141.13,546a195,195,0,0,0,53.93-.21,6,6,0,0,1,1.7,11.88A208.84,208.84,0,0,1,167.35,559.73Z" transform="translate(-132.18 -319.61)"/><path class="cls-2" d="M246.29,543.53A6,6,0,0,1,243.92,532a194,194,0,0,0,48.45-30,6,6,0,0,1,7.74,9.16A205.76,205.76,0,0,1,248.66,543,6,6,0,0,1,246.29,543.53Z" transform="translate(-132.18 -319.61)"/><path class="cls-2" d="M320.89,487.82a6,6,0,0,1-4.61-9.85,193.55,193.55,0,0,0,27.62-43.91,6,6,0,0,1,10.93,5,206.11,206.11,0,0,1-29.33,46.63A6,6,0,0,1,320.89,487.82Z" transform="translate(-132.18 -319.61)"/><path class="cls-2" d="M262,556.54a6,6,0,0,1-2.61-11.41,212.26,212.26,0,0,0,51.55-35A6,6,0,1,1,319,519a224.33,224.33,0,0,1-54.46,37A5.92,5.92,0,0,1,262,556.54Z" transform="translate(-132.18 -319.61)"/><path class="cls-2" d="M166.85,578.06h0a227.16,227.16,0,0,1-27.24-1.71,6,6,0,1,1,1.47-11.91,215.57,215.57,0,0,0,25.8,1.62,6,6,0,0,1,0,12Z" transform="translate(-132.18 -319.61)"/><path class="cls-2" d="M380.25,407.86a6.74,6.74,0,0,1-1.32-.14,6,6,0,0,1-4.54-7.17,213.39,213.39,0,0,0,5.17-46.69c0-3.69-.1-7.46-.3-11.21a6,6,0,0,1,12-.63c.2,4,.31,7.94.31,11.84a225.57,225.57,0,0,1-5.46,49.32A6,6,0,0,1,380.25,407.86Z" transform="translate(-132.18 -319.61)"/><path class="cls-2" d="M336.15,498.13a5.93,5.93,0,0,1-3.8-1.36,6,6,0,0,1-.84-8.44,211.87,211.87,0,0,0,32.26-54.06,6,6,0,0,1,11.11,4.55,223.87,223.87,0,0,1-34.09,57.12A6,6,0,0,1,336.15,498.13Z" transform="translate(-132.18 -319.61)"/><path class="cls-2" d="M167.85,578.06a6,6,0,0,1,0-12,214,214,0,0,0,27.29-1.81,6,6,0,1,1,1.56,11.9,229,229,0,0,1-28.82,1.91Z" transform="translate(-132.18 -319.61)"/><path class="cls-2" d="M359.26,498.13a6,6,0,0,1-4.86-9.51,230.19,230.19,0,0,0,29-54.17,6,6,0,0,1,11.24,4.2,242.15,242.15,0,0,1-30.51,57A6,6,0,0,1,359.26,498.13Z" transform="translate(-132.18 -319.61)"/><path class="cls-2" d="M402.49,385.62l-.65,0a6,6,0,0,1-5.32-6.61,233.6,233.6,0,0,0,1.37-25.12,6,6,0,1,1,12,0,247.26,247.26,0,0,1-1.44,26.44A6,6,0,0,1,402.49,385.62Z" transform="translate(-132.18 -319.61)"/><path class="cls-2" d="M281,567.32a6,6,0,0,1-2.89-11.26,231,231,0,0,0,57.11-44.26A6,6,0,1,1,344,520a243,243,0,0,1-60.08,46.55A6,6,0,0,1,281,567.32Z" transform="translate(-132.18 -319.61)"/><path class="cls-2" d="M304.08,575a6,6,0,0,1-3.23-11.06,250.2,250.2,0,0,0,102-129.32,6,6,0,1,1,11.35,3.9A262.24,262.24,0,0,1,307.29,574,6,6,0,0,1,304.08,575Z" transform="translate(-132.18 -319.61)"/><path class="cls-3" d="M331.77,578a6,6,0,0,1-3.61-10.79,266.75,266.75,0,0,0,91.33-124.8,6,6,0,1,1,11.32,4,278.66,278.66,0,0,1-95.43,130.41A5.94,5.94,0,0,1,331.77,578Z" transform="translate(-132.18 -319.61)"/><path class="cls-2" d="M366.54,572.7a6,6,0,0,1-4.1-10.38,285.78,285.78,0,0,0,57.41-75.08,6,6,0,0,1,10.61,5.62,298.05,298.05,0,0,1-59.82,78.22A6,6,0,0,1,366.54,572.7Z" transform="translate(-132.18 -319.61)"/><path class="cls-2" d="M447.84,439.59a6.24,6.24,0,0,1-1.64-.23,6,6,0,0,1-4.13-7.41,286.23,286.23,0,0,0,10.81-78.09c0-7.51-.3-15.17-.9-22.77a6,6,0,1,1,12-.94c.62,7.91.94,15.89.94,23.71a297.85,297.85,0,0,1-11.27,81.36A6,6,0,0,1,447.84,439.59Z" transform="translate(-132.18 -319.61)"/><path class="cls-2" d="M447.84,491.65a5.92,5.92,0,0,1-2.55-.57,6,6,0,0,1-2.88-8,301.1,301.1,0,0,0,28.8-129.23c0-7.54-.29-15.22-.85-22.83a6,6,0,0,1,12-.89c.58,7.9.88,15.88.88,23.72A313,313,0,0,1,453.27,488.2,6,6,0,0,1,447.84,491.65Z" transform="translate(-132.18 -319.61)"/><path class="cls-4" d="M387.66,577.72a6,6,0,0,1-4.27-10.21,305.89,305.89,0,0,0,36.77-45,6,6,0,1,1,10,6.67,317.59,317.59,0,0,1-38.22,46.81A5.94,5.94,0,0,1,387.66,577.72Z" transform="translate(-132.18 -319.61)"/><path class="cls-2" d="M447.84,530.33a6,6,0,0,1-5.12-9.12,321.58,321.58,0,0,0,46.82-167.35c0-7.45-.28-15.15-.82-22.9a6,6,0,0,1,12-.84c.56,8,.85,16,.85,23.74A333.62,333.62,0,0,1,453,527.45,6,6,0,0,1,447.84,530.33Z" transform="translate(-132.18 -319.61)"/><path class="cls-2" d="M412.76,577.72a6,6,0,0,1-4.48-10c4.29-4.83,8.39-9.71,12.16-14.5a6,6,0,0,1,9.42,7.43c-3.92,5-8.16,10-12.61,15A6,6,0,0,1,412.76,577.72Z" transform="translate(-132.18 -319.61)"/><path class="cls-2" d="M512.39,391.9l-.56,0a6,6,0,0,1-5.42-6.52c1-10.59,1.46-21.18,1.46-31.49,0-7.38-.26-15.1-.79-23a6,6,0,0,1,12-.79c.54,8.11.81,16.1.81,23.75,0,10.67-.51,21.64-1.51,32.59A6,6,0,0,1,512.39,391.9Z" transform="translate(-132.18 -319.61)"/><path class="cls-2" d="M447.84,563.33A6,6,0,0,1,443,553.8a336.63,336.63,0,0,0,58.2-132.57A6,6,0,1,1,513,423.59,348.68,348.68,0,0,1,452.7,560.85,6,6,0,0,1,447.84,563.33Z" transform="translate(-132.18 -319.61)"/><path class="cls-2" d="M460,577.72a6,6,0,0,1-4.8-9.58,358.81,358.81,0,0,0,42.68-74.38A6,6,0,0,1,509,498.45a370.63,370.63,0,0,1-44.11,76.86A6,6,0,0,1,460,577.72Z" transform="translate(-132.18 -319.61)"/><path class="cls-2" d="M530.79,391.9l-.53,0a6,6,0,0,1-5.45-6.5c.92-10.63,1.39-21.23,1.39-31.52,0-7.36-.25-15.1-.75-23a6,6,0,1,1,12-.76c.52,8.17.78,16.16.78,23.77,0,10.63-.48,21.59-1.44,32.56A6,6,0,0,1,530.79,391.9Z" transform="translate(-132.18 -319.61)"/><path class="cls-2" d="M510.52,484a5.9,5.9,0,0,1-2-.36,6,6,0,0,1-3.6-7.68,357.57,357.57,0,0,0,15-54.66,6,6,0,1,1,11.79,2.24A370,370,0,0,1,516.17,480,6,6,0,0,1,510.52,484Z" transform="translate(-132.18 -319.61)"/><path class="cls-2" d="M482.57,577.73a6,6,0,0,1-4.93-9.42A377.57,377.57,0,0,0,509.1,513.6,6,6,0,0,1,520,518.69a390,390,0,0,1-32.46,56.45A6,6,0,0,1,482.57,577.73Z" transform="translate(-132.18 -319.61)"/><path class="cls-2" d="M530,484a6,6,0,0,1-5.67-7.94,376.19,376.19,0,0,0,14.21-54.71,6,6,0,0,1,11.81,2.13,387.71,387.71,0,0,1-14.67,56.46A6,6,0,0,1,530,484Z" transform="translate(-132.18 -319.61)"/><path class="cls-2" d="M549.19,391.9l-.5,0a6,6,0,0,1-5.48-6.48c.87-10.6,1.32-21.21,1.32-31.54,0-7.47-.24-15-.72-23.07a6,6,0,0,1,12-.72c.5,8.3.74,16.08.74,23.79,0,10.66-.46,21.61-1.36,32.53A6,6,0,0,1,549.19,391.9Z" transform="translate(-132.18 -319.61)"/><path class="cls-2" d="M567.59,391.9l-.47,0a6,6,0,0,1-5.51-6.45c.83-10.55,1.25-21.17,1.25-31.57,0-7.39-.23-15.17-.69-23.13a6,6,0,0,1,12-.69c.47,8.19.71,16.2.71,23.82,0,10.72-.43,21.66-1.29,32.51A6,6,0,0,1,567.59,391.9Z" transform="translate(-132.18 -319.61)"/><path class="cls-2" d="M549.27,484a6,6,0,0,1-5.7-7.85,394.62,394.62,0,0,0,13.52-54.75,6,6,0,1,1,11.83,2A404.86,404.86,0,0,1,555,479.84,6,6,0,0,1,549.27,484Z" transform="translate(-132.18 -319.61)"/><path class="cls-2" d="M504.64,577.73a6,6,0,0,1-5-9.27,395.18,395.18,0,0,0,29.59-54.75,6,6,0,0,1,11,4.86A407.3,407.3,0,0,1,509.68,575,6,6,0,0,1,504.64,577.73Z" transform="translate(-132.18 -319.61)"/><path class="cls-2" d="M568.53,484a6,6,0,0,1-5.73-7.77,414.87,414.87,0,0,0,12.87-54.79,6,6,0,0,1,11.84,1.95,423.61,423.61,0,0,1-13.25,56.38A6,6,0,0,1,568.53,484Z" transform="translate(-132.18 -319.61)"/><path class="cls-2" d="M526.3,577.73a6,6,0,0,1-5.12-9.12,414,414,0,0,0,28-54.79,6,6,0,0,1,11.06,4.64,424,424,0,0,1-28.76,56.38A6,6,0,0,1,526.3,577.73Z" transform="translate(-132.18 -319.61)"/><path class="cls-2" d="M586,391.9l-.46,0a6,6,0,0,1-5.53-6.43c.79-10.47,1.19-21.1,1.19-31.59,0-7.48-.22-15.27-.66-23.18a6,6,0,0,1,12-.66c.44,8.13.67,16.14.67,23.84,0,10.79-.41,21.73-1.22,32.49A6,6,0,0,1,586,391.9Z" transform="translate(-132.18 -319.61)"/><path class="cls-2" d="M547.59,577.73a6,6,0,0,1-5.19-9,432.43,432.43,0,0,0,26.49-54.82A6,6,0,1,1,580,518.37a444.35,444.35,0,0,1-27.24,56.34A6,6,0,0,1,547.59,577.73Z" transform="translate(-132.18 -319.61)"/><path class="cls-2" d="M568.6,577.73a6,6,0,0,1-5.27-8.87A451.25,451.25,0,0,0,588.52,514a6,6,0,0,1,11.21,4.27,460.32,460.32,0,0,1-25.86,56.31A6,6,0,0,1,568.6,577.73Z" transform="translate(-132.18 -319.61)"/><path class="cls-2" d="M589.33,577.73A6,6,0,0,1,584,569c4.63-9,9.09-18.32,13.24-27.85a6,6,0,0,1,11,4.79c-4.26,9.78-8.83,19.39-13.58,28.57A6,6,0,0,1,589.33,577.73Z" transform="translate(-132.18 -319.61)"/><path class="cls-2" d="M620,503.67a6.05,6.05,0,0,1-1.82-.28,6,6,0,0,1-3.9-7.53,468.78,468.78,0,0,0,21.91-142c0-7.75-.2-15.68-.59-23.58a6,6,0,1,1,12-.59c.4,8.09.6,16.22.6,24.17a480.85,480.85,0,0,1-22.47,145.63A6,6,0,0,1,620,503.67Z" transform="translate(-132.18 -319.61)"/><path class="cls-2" d="M616.08,564.66a6,6,0,0,1-5.45-8.5,483.19,483.19,0,0,0,43.88-202.3c0-7.62-.19-15.55-.57-23.59a6,6,0,1,1,12-.57c.39,8.23.59,16.35.59,24.16a495.12,495.12,0,0,1-45,207.29A6,6,0,0,1,616.08,564.66Z" transform="translate(-132.18 -319.61)"/><path class="cls-2" d="M630.21,577.73a6,6,0,0,1-5.42-8.56,501,501,0,0,0,48.05-215.31c0-7.59-.18-15.31-.56-23.6a6,6,0,1,1,12-.55c.39,8.47.58,16.37.58,24.15a512.83,512.83,0,0,1-49.2,220.42A6,6,0,0,1,630.21,577.73Z" transform="translate(-132.18 -319.61)"/><path class="cls-2" d="M692.44,517.56a6.14,6.14,0,0,1-1.73-.25,6,6,0,0,1-4-7.47A541.5,541.5,0,0,0,707.35,402a6,6,0,0,1,11.95,1.05,552.47,552.47,0,0,1-21.12,110.23A6,6,0,0,1,692.44,517.56Z" transform="translate(-132.18 -319.61)"/><path class="cls-2" d="M702.39,546.32a5.88,5.88,0,0,1-2-.34,6,6,0,0,1-3.7-7.64,557.32,557.32,0,0,0,24.39-97.54A6,6,0,1,1,733,442.64a570.7,570.7,0,0,1-24.91,99.65A6,6,0,0,1,702.39,546.32Z" transform="translate(-132.18 -319.61)"/><path class="cls-2" d="M711.85,573.65a6,6,0,0,1-5.58-8.2,576.61,576.61,0,0,0,27.11-90.1,6,6,0,0,1,11.74,2.5,587.7,587.7,0,0,1-27.69,92A6,6,0,0,1,711.85,573.65Z" transform="translate(-132.18 -319.61)"/><path class="cls-2" d="M729.93,577.73a6,6,0,0,1-5.59-8.17A593.91,593.91,0,0,0,762.8,399.09a6,6,0,1,1,12,.89,606.11,606.11,0,0,1-39.24,173.91A6,6,0,0,1,729.93,577.73Z" transform="translate(-132.18 -319.61)"/><path class="cls-2" d="M749.55,577.73a6,6,0,0,1-5.62-8.11,613.15,613.15,0,0,0,38.9-215.76c0-3.83-.05-7.92-.14-12.51a6,6,0,0,1,5.88-6.12h.12a6,6,0,0,1,6,5.88c.09,4.67.14,8.84.14,12.75a625.25,625.25,0,0,1-39.66,220A6,6,0,0,1,749.55,577.73Z" transform="translate(-132.18 -319.61)"/><path class="cls-2" d="M779.75,545.66a6.17,6.17,0,0,1-1.74-.26,6,6,0,0,1-4-7.49,634.32,634.32,0,0,0,27.15-184c0-7.78-.15-15.74-.44-23.65a6,6,0,1,1,12-.44c.3,8.06.45,16.16.45,24.09a646.05,646.05,0,0,1-27.67,187.53A6,6,0,0,1,779.75,545.66Z" transform="translate(-132.18 -319.61)"/><path class="cls-2" d="M805.05,523.24a5.86,5.86,0,0,1-1.49-.19,6,6,0,0,1-4.33-7.3,654.65,654.65,0,0,0,20.26-161.89c0-7.71-.15-15.67-.43-23.66a6,6,0,1,1,12-.43c.29,8.13.44,16.23.44,24.09a667,667,0,0,1-20.63,164.86A6,6,0,0,1,805.05,523.24Z" transform="translate(-132.18 -319.61)"/><path class="cls-2" d="M808.26,576.86a5.92,5.92,0,0,1-1.93-.32,6,6,0,0,1-3.75-7.6,669.56,669.56,0,0,0,35.24-215.08c0-7.68-.15-15.64-.42-23.67a6,6,0,1,1,12-.41c.28,8.16.43,16.26.43,24.08a681.19,681.19,0,0,1-35.88,218.92A6,6,0,0,1,808.26,576.86Z" transform="translate(-132.18 -319.61)"/><path class="cls-2" d="M827.29,577.73a5.88,5.88,0,0,1-1.88-.31,6,6,0,0,1-3.82-7.58,686.78,686.78,0,0,0,28.86-127,6,6,0,1,1,11.9,1.53A698,698,0,0,1,833,573.6,6,6,0,0,1,827.29,577.73Z" transform="translate(-132.18 -319.61)"/><path class="cls-2" d="M846.57,577.73a6.18,6.18,0,0,1-1.83-.29,6,6,0,0,1-3.88-7.55c5.34-16.68,10.12-33.78,14.2-50.82a6,6,0,1,1,11.67,2.79c-4.15,17.34-9,34.73-14.44,51.7A6,6,0,0,1,846.57,577.73Z" transform="translate(-132.18 -319.61)"/><path class="cls-2" d="M167.85,578.06h-1a6,6,0,0,1,0-12h1a6,6,0,1,1,0,12Z" transform="translate(-132.18 -319.61)"/></g></svg>