<svg id="Ebene_1" data-name="Ebene 1" xmlns="http://www.w3.org/2000/svg" viewBox="0 0 463.99 227.18"><path d="M1091.09,438.77" transform="translate(-730.74 -429.12)" fill="none" stroke="#34e08f" stroke-linecap="round" stroke-miterlimit="10" stroke-width="7.2"/><line x1="190.96" y1="38.44" x2="190.96" y2="15.71" fill="none" stroke="#38a0f5" stroke-linecap="round" stroke-miterlimit="10" stroke-width="6.82"/><line x1="160.96" y1="38.44" x2="160.96" y2="15.71" fill="none" stroke="#38a0f5" stroke-linecap="round" stroke-miterlimit="10" stroke-width="6.82"/><line x1="130.96" y1="38.44" x2="130.96" y2="15.71" fill="none" stroke="#38a0f5" stroke-linecap="round" stroke-miterlimit="10" stroke-width="6.82"/><line x1="100.96" y1="38.44" x2="100.96" y2="15.71" fill="none" stroke="#38a0f5" stroke-linecap="round" stroke-miterlimit="10" stroke-width="6.82"/><line x1="70.96" y1="38.44" x2="70.96" y2="15.71" fill="none" stroke="#38a0f5" stroke-linecap="round" stroke-miterlimit="10" stroke-width="6.82"/><line x1="40.96" y1="38.44" x2="40.96" y2="15.71" fill="none" stroke="#38a0f5" stroke-linecap="round" stroke-miterlimit="10" stroke-width="6.82"/><line x1="190.89" y1="38.44" x2="190.89" y2="15.71" fill="none" stroke="#38a0f5" stroke-linecap="round" stroke-miterlimit="10" stroke-width="6.82"/><line x1="250.89" y1="38.44" x2="250.89" y2="15.71" fill="none" stroke="#2ed265" stroke-linecap="round" stroke-miterlimit="10" stroke-width="6.82"/><line x1="220.89" y1="38.44" x2="220.89" y2="15.71" fill="none" stroke="#2ed265" stroke-linecap="round" stroke-miterlimit="10" stroke-width="6.82"/><line x1="190.96" y1="209.44" x2="190.96" y2="186.71" fill="none" stroke="#f55656" stroke-linecap="round" stroke-miterlimit="10" stroke-width="6.82"/><line x1="160.96" y1="209.44" x2="160.96" y2="186.71" fill="none" stroke="#f55656" stroke-linecap="round" stroke-miterlimit="10" stroke-width="6.82"/><line x1="130.96" y1="209.44" x2="130.96" y2="186.71" fill="none" stroke="#f55656" stroke-linecap="round" stroke-miterlimit="10" stroke-width="6.82"/><line x1="100.96" y1="209.44" x2="100.96" y2="186.71" fill="none" stroke="#f55656" stroke-linecap="round" stroke-miterlimit="10" stroke-width="6.82"/><line x1="70.96" y1="209.44" x2="70.96" y2="186.71" fill="none" stroke="#f55656" stroke-linecap="round" stroke-miterlimit="10" stroke-width="6.82"/><line x1="40.96" y1="209.44" x2="40.96" y2="186.71" fill="none" stroke="#f55656" stroke-linecap="round" stroke-miterlimit="10" stroke-width="6.82"/><line x1="190.89" y1="209.44" x2="190.89" y2="186.71" fill="none" stroke="#f55656" stroke-linecap="round" stroke-miterlimit="10" stroke-width="6.82"/><line x1="250.89" y1="209.44" x2="250.89" y2="186.71" fill="none" stroke="#f55656" stroke-linecap="round" stroke-miterlimit="10" stroke-width="6.82"/><line x1="220.89" y1="209.44" x2="220.89" y2="186.71" fill="none" stroke="#f55656" stroke-linecap="round" stroke-miterlimit="10" stroke-width="6.82"/><line x1="310.96" y1="38.44" x2="310.96" y2="15.71" fill="none" stroke="#2ed265" stroke-linecap="round" stroke-miterlimit="10" stroke-width="6.82"/><line x1="280.96" y1="38.44" x2="280.96" y2="15.71" fill="none" stroke="#2ed265" stroke-linecap="round" stroke-miterlimit="10" stroke-width="6.82"/><line x1="310.89" y1="38.44" x2="310.89" y2="15.71" fill="none" stroke="#2ed265" stroke-linecap="round" stroke-miterlimit="10" stroke-width="6.82"/><line x1="370.89" y1="38.44" x2="370.89" y2="15.71" fill="none" stroke="#2ed265" stroke-linecap="round" stroke-miterlimit="10" stroke-width="6.82"/><line x1="340.89" y1="38.44" x2="340.89" y2="15.71" fill="none" stroke="#2ed265" stroke-linecap="round" stroke-miterlimit="10" stroke-width="6.82"/><line x1="310.96" y1="208.44" x2="310.96" y2="185.71" fill="none" stroke="#f2a13f" stroke-linecap="round" stroke-miterlimit="10" stroke-width="6.82"/><line x1="280.96" y1="208.44" x2="280.96" y2="185.71" fill="none" stroke="#f2a13f" stroke-linecap="round" stroke-miterlimit="10" stroke-width="6.82"/><line x1="310.89" y1="208.44" x2="310.89" y2="185.71" fill="none" stroke="#f2a13f" stroke-linecap="round" stroke-miterlimit="10" stroke-width="6.82"/><line x1="370.89" y1="208.44" x2="370.89" y2="185.71" fill="none" stroke="#f2a13f" stroke-linecap="round" stroke-miterlimit="10" stroke-width="6.82"/><line x1="340.89" y1="208.44" x2="340.89" y2="185.71" fill="none" stroke="#f2a13f" stroke-linecap="round" stroke-miterlimit="10" stroke-width="6.82"/><line x1="418.89" y1="49.74" x2="434.07" y2="32.82" fill="none" stroke="#2ed265" stroke-linecap="round" stroke-miterlimit="10" stroke-width="6.82"/><line x1="397.65" y1="38.9" x2="403.09" y2="16.83" fill="none" stroke="#2ed265" stroke-linecap="round" stroke-miterlimit="10" stroke-width="6.82"/><line x1="432.57" y1="183.45" x2="415.28" y2="168.7" fill="none" stroke="#f2a13f" stroke-linecap="round" stroke-miterlimit="10" stroke-width="6.82"/><line x1="404" y1="203.68" x2="395.85" y2="182.46" fill="none" stroke="#f2a13f" stroke-linecap="round" stroke-miterlimit="10" stroke-width="6.82"/><line x1="435.45" y1="120.31" x2="457.91" y2="123.81" fill="none" stroke="#2ed265" stroke-linecap="round" stroke-miterlimit="10" stroke-width="6.82"/><line x1="435.18" y1="95.84" x2="457.86" y2="94.28" fill="none" stroke="#2ed265" stroke-linecap="round" stroke-miterlimit="10" stroke-width="6.82"/><line x1="429.68" y1="71.56" x2="451.52" y2="65.26" fill="none" stroke="#2ed265" stroke-linecap="round" stroke-miterlimit="10" stroke-width="6.82"/><line x1="428.22" y1="144.78" x2="448.98" y2="154.04" fill="none" stroke="#2ed265" stroke-linecap="round" stroke-miterlimit="10" stroke-width="6.82"/><line x1="30.06" y1="211.62" x2="378.1" y2="211.62" fill="none" stroke="#34e08f" stroke-linecap="round" stroke-miterlimit="10" stroke-width="7.2"/><path d="M1106.09,440.77c68,0,83.63,48.05,85,97,1.3,46.63-25,103-82,103" transform="translate(-730.74 -429.12)" fill="none" stroke="#34e08f" stroke-linecap="round" stroke-miterlimit="10" stroke-width="7.2"/><line x1="26.81" y1="11.57" x2="374.85" y2="11.57" fill="none" stroke="#34e08f" stroke-linecap="round" stroke-miterlimit="10" stroke-width="7.2"/><path d="M953.41,480.75l5.35-3.89a2.27,2.27,0,0,0,.82-2.53l-2-6.29a2.28,2.28,0,0,0-2.16-1.57h-6.61a2.28,2.28,0,0,0-2.16,1.57l-2,6.29a2.27,2.27,0,0,0,.82,2.53l5.35,3.89A2.3,2.3,0,0,0,953.41,480.75Z" transform="translate(-730.74 -429.12)" fill="#f4e558" stroke="#f4e558" stroke-linecap="round" stroke-miterlimit="10" stroke-width="0.98"/><path d="M1143.26,489.6l6.6.38a2.27,2.27,0,0,0,2.24-1.44l2.4-6.16a2.26,2.26,0,0,0-.67-2.58l-5.12-4.19a2.27,2.27,0,0,0-2.66-.15l-5.56,3.57a2.26,2.26,0,0,0-1,2.48l1.68,6.4A2.27,2.27,0,0,0,1143.26,489.6Z" transform="translate(-730.74 -429.12)" fill="#f4e558" stroke="#f4e558" stroke-linecap="round" stroke-miterlimit="10" stroke-width="0.98"/><path d="M1126.26,482.53l6.19-2.34a2.24,2.24,0,0,0,1.46-2.22l-.3-6.61a2.27,2.27,0,0,0-1.67-2.08l-6.37-1.75a2.28,2.28,0,0,0-2.5.94l-3.63,5.53a2.27,2.27,0,0,0,.12,2.66l4.14,5.16A2.26,2.26,0,0,0,1126.26,482.53Z" transform="translate(-730.74 -429.12)" fill="#f4e558" stroke="#f4e558" stroke-linecap="round" stroke-miterlimit="10" stroke-width="0.98"/><path d="M1103.28,480.44l5.35-3.89a2.25,2.25,0,0,0,.83-2.53l-2-6.29a2.26,2.26,0,0,0-2.15-1.56h-6.62a2.26,2.26,0,0,0-2.15,1.56l-2,6.29a2.25,2.25,0,0,0,.82,2.53l5.35,3.89A2.25,2.25,0,0,0,1103.28,480.44Z" transform="translate(-730.74 -429.12)" fill="#f4e558" stroke="#f4e558" stroke-linecap="round" stroke-miterlimit="10" stroke-width="0.98"/><path d="M1073.28,480.44l5.35-3.89a2.25,2.25,0,0,0,.83-2.53l-2-6.29a2.26,2.26,0,0,0-2.15-1.56h-6.62a2.26,2.26,0,0,0-2.15,1.56l-2,6.29a2.25,2.25,0,0,0,.82,2.53l5.35,3.89A2.25,2.25,0,0,0,1073.28,480.44Z" transform="translate(-730.74 -429.12)" fill="#f4e558" stroke="#f4e558" stroke-linecap="round" stroke-miterlimit="10" stroke-width="0.98"/><path d="M1043.28,480.44l5.35-3.89a2.25,2.25,0,0,0,.83-2.53l-2-6.29a2.26,2.26,0,0,0-2.15-1.56h-6.62a2.26,2.26,0,0,0-2.15,1.56l-2,6.29a2.25,2.25,0,0,0,.82,2.53l5.35,3.89A2.25,2.25,0,0,0,1043.28,480.44Z" transform="translate(-730.74 -429.12)" fill="#f4e558" stroke="#f4e558" stroke-linecap="round" stroke-miterlimit="10" stroke-width="0.98"/><path d="M1013.28,480.44l5.35-3.89a2.25,2.25,0,0,0,.83-2.53l-2.05-6.29a2.26,2.26,0,0,0-2.15-1.56h-6.62a2.26,2.26,0,0,0-2.15,1.56l-2,6.29a2.25,2.25,0,0,0,.82,2.53l5.35,3.89A2.25,2.25,0,0,0,1013.28,480.44Z" transform="translate(-730.74 -429.12)" fill="#f4e558" stroke="#f4e558" stroke-linecap="round" stroke-miterlimit="10" stroke-width="0.98"/><path d="M982.28,480.44l5.35-3.89a2.25,2.25,0,0,0,.83-2.53l-2.05-6.29a2.26,2.26,0,0,0-2.15-1.56h-6.62a2.26,2.26,0,0,0-2.15,1.56l-2,6.29a2.25,2.25,0,0,0,.82,2.53l5.35,3.89A2.25,2.25,0,0,0,982.28,480.44Z" transform="translate(-730.74 -429.12)" fill="#f4e558" stroke="#f4e558" stroke-linecap="round" stroke-miterlimit="10" stroke-width="0.98"/><path d="M1151.53,579l6.58.7a2.27,2.27,0,0,0,2.31-1.33l2.69-6a2.25,2.25,0,0,0-.55-2.6l-4.91-4.44A2.28,2.28,0,0,0,1155,565l-5.73,3.3a2.26,2.26,0,0,0-1.08,2.44l1.36,6.47A2.27,2.27,0,0,0,1151.53,579Z" transform="translate(-730.74 -429.12)" fill="#f4e558" stroke="#f4e558" stroke-linecap="round" stroke-miterlimit="10" stroke-width="0.98"/><path d="M1159.92,555.93l6.53-1a2.27,2.27,0,0,0,1.88-1.89l1-6.53a2.26,2.26,0,0,0-1.22-2.37l-5.9-3a2.23,2.23,0,0,0-2.62.42l-4.67,4.69a2.26,2.26,0,0,0-.41,2.63l3,5.88A2.28,2.28,0,0,0,1159.92,555.93Z" transform="translate(-730.74 -429.12)" fill="#f4e558" stroke="#f4e558" stroke-linecap="round" stroke-miterlimit="10" stroke-width="0.98"/><path d="M1150.59,504l5.09,4.22a2.26,2.26,0,0,0,2.66.17l5.59-3.54a2.26,2.26,0,0,0,1-2.47l-1.64-6.41a2.26,2.26,0,0,0-2-1.7l-6.6-.42a2.27,2.27,0,0,0-2.25,1.42l-2.44,6.15A2.26,2.26,0,0,0,1150.59,504Z" transform="translate(-730.74 -429.12)" fill="#f4e558" stroke="#f4e558" stroke-linecap="round" stroke-miterlimit="10" stroke-width="0.98"/><path d="M1167.84,529.13l.15-6.61a2.27,2.27,0,0,0-1.51-2.19l-6.25-2.19a2.28,2.28,0,0,0-2.55.77l-4,5.26a2.25,2.25,0,0,0-.06,2.66l3.76,5.44a2.26,2.26,0,0,0,2.51.88l6.34-1.9A2.26,2.26,0,0,0,1167.84,529.13Z" transform="translate(-730.74 -429.12)" fill="#f4e558" stroke="#f4e558" stroke-linecap="round" stroke-miterlimit="10" stroke-width="0.98"/><path d="M770.43,603l-5.29,4a2.27,2.27,0,0,0-.78,2.55l2.15,6.25a2.26,2.26,0,0,0,2.18,1.53l6.62-.11a2.26,2.26,0,0,0,2.12-1.6l1.94-6.33a2.27,2.27,0,0,0-.86-2.52l-5.42-3.79A2.25,2.25,0,0,0,770.43,603Z" transform="translate(-730.74 -429.12)" fill="#f4e558" stroke="#f4e558" stroke-linecap="round" stroke-miterlimit="10" stroke-width="0.98"/><path d="M979.43,603l-5.29,4a2.27,2.27,0,0,0-.78,2.55l2.15,6.25a2.26,2.26,0,0,0,2.18,1.53l6.62-.11a2.26,2.26,0,0,0,2.12-1.6l1.94-6.33a2.27,2.27,0,0,0-.86-2.52l-5.42-3.79A2.25,2.25,0,0,0,979.43,603Z" transform="translate(-730.74 -429.12)" fill="#f4e558" stroke="#f4e558" stroke-linecap="round" stroke-miterlimit="10" stroke-width="0.98"/><path d="M950.43,603l-5.29,4a2.27,2.27,0,0,0-.78,2.55l2.15,6.25a2.26,2.26,0,0,0,2.18,1.53l6.62-.11a2.26,2.26,0,0,0,2.12-1.6l1.94-6.33a2.27,2.27,0,0,0-.86-2.52l-5.42-3.79A2.25,2.25,0,0,0,950.43,603Z" transform="translate(-730.74 -429.12)" fill="#f4e558" stroke="#f4e558" stroke-linecap="round" stroke-miterlimit="10" stroke-width="0.98"/><path d="M920.43,603l-5.29,4a2.27,2.27,0,0,0-.78,2.55l2.15,6.25a2.26,2.26,0,0,0,2.18,1.53l6.62-.11a2.26,2.26,0,0,0,2.12-1.6l1.94-6.33a2.27,2.27,0,0,0-.86-2.52l-5.42-3.79A2.25,2.25,0,0,0,920.43,603Z" transform="translate(-730.74 -429.12)" fill="#f4e558" stroke="#f4e558" stroke-linecap="round" stroke-miterlimit="10" stroke-width="0.98"/><path d="M889.43,603l-5.29,4a2.27,2.27,0,0,0-.78,2.55l2.15,6.25a2.26,2.26,0,0,0,2.18,1.53l6.62-.11a2.26,2.26,0,0,0,2.12-1.6l1.94-6.33a2.27,2.27,0,0,0-.86-2.52l-5.42-3.79A2.25,2.25,0,0,0,889.43,603Z" transform="translate(-730.74 -429.12)" fill="#f4e558" stroke="#f4e558" stroke-linecap="round" stroke-miterlimit="10" stroke-width="0.98"/><path d="M860.43,603l-5.29,4a2.27,2.27,0,0,0-.78,2.55l2.15,6.25a2.26,2.26,0,0,0,2.18,1.53l6.62-.11a2.26,2.26,0,0,0,2.12-1.6l1.94-6.33a2.27,2.27,0,0,0-.86-2.52l-5.42-3.79A2.25,2.25,0,0,0,860.43,603Z" transform="translate(-730.74 -429.12)" fill="#f4e558" stroke="#f4e558" stroke-linecap="round" stroke-miterlimit="10" stroke-width="0.98"/><path d="M830.43,603l-5.29,4a2.27,2.27,0,0,0-.78,2.55l2.15,6.25a2.26,2.26,0,0,0,2.18,1.53l6.62-.11a2.26,2.26,0,0,0,2.12-1.6l1.94-6.33a2.27,2.27,0,0,0-.86-2.52l-5.42-3.79A2.25,2.25,0,0,0,830.43,603Z" transform="translate(-730.74 -429.12)" fill="#f4e558" stroke="#f4e558" stroke-linecap="round" stroke-miterlimit="10" stroke-width="0.98"/><path d="M799.43,603l-5.29,4a2.27,2.27,0,0,0-.78,2.55l2.15,6.25a2.26,2.26,0,0,0,2.18,1.53l6.62-.11a2.26,2.26,0,0,0,2.12-1.6l1.94-6.33a2.27,2.27,0,0,0-.86-2.52l-5.42-3.79A2.25,2.25,0,0,0,799.43,603Z" transform="translate(-730.74 -429.12)" fill="#f4e558" stroke="#f4e558" stroke-linecap="round" stroke-miterlimit="10" stroke-width="0.98"/><text transform="translate(0 17.15)" font-size="20" fill="#e8ecd7" font-family="LouisGeorgeCafe-Bold, Louis George Café" font-weight="700">5<tspan x="12.08" y="0" font-family="MyriadPro-Regular, Myriad Pro" font-weight="400">&apos;</tspan></text><text transform="translate(6.47 217.15)" font-size="20" fill="#e8ecd7" font-family="LouisGeorgeCafe-Bold, Louis George Café" font-weight="700">3<tspan x="11.13" y="0" font-family="MyriadPro-Regular, Myriad Pro" font-weight="400">&apos;</tspan></text></svg>