<svg id="Ebene_1" data-name="Ebene 1" xmlns="http://www.w3.org/2000/svg" viewBox="0 0 1116.67 117.78"><line x1="549.85" y1="99.15" x2="549.85" y2="76.42" fill="none" stroke="#f2a13f" stroke-linecap="round" stroke-miterlimit="10" stroke-width="6.82"/><line x1="519.85" y1="99.15" x2="519.85" y2="76.42" fill="none" stroke="#f2a13f" stroke-linecap="round" stroke-miterlimit="10" stroke-width="6.82"/><line x1="489.85" y1="99.15" x2="489.85" y2="76.42" fill="none" stroke="#f2a13f" stroke-linecap="round" stroke-miterlimit="10" stroke-width="6.82"/><line x1="459.85" y1="99.15" x2="459.85" y2="76.42" fill="none" stroke="#2ed265" stroke-linecap="round" stroke-miterlimit="10" stroke-width="6.82"/><line x1="429.85" y1="99.15" x2="429.85" y2="76.42" fill="none" stroke="#2ed265" stroke-linecap="round" stroke-miterlimit="10" stroke-width="6.82"/><line x1="399.85" y1="99.15" x2="399.85" y2="76.42" fill="none" stroke="#2ed265" stroke-linecap="round" stroke-miterlimit="10" stroke-width="6.82"/><line x1="369.85" y1="99.15" x2="369.85" y2="76.42" fill="none" stroke="#2ed265" stroke-linecap="round" stroke-miterlimit="10" stroke-width="6.82"/><line x1="339.85" y1="99.15" x2="339.85" y2="76.42" fill="none" stroke="#2ed265" stroke-linecap="round" stroke-miterlimit="10" stroke-width="6.82"/><line x1="309.85" y1="99.15" x2="309.85" y2="76.42" fill="none" stroke="#2ed265" stroke-linecap="round" stroke-miterlimit="10" stroke-width="6.82"/><line x1="279.85" y1="99.15" x2="279.85" y2="76.42" fill="none" stroke="#38a0f5" stroke-linecap="round" stroke-miterlimit="10" stroke-width="6.82"/><line x1="249.85" y1="99.15" x2="249.85" y2="76.42" fill="none" stroke="#38a0f5" stroke-linecap="round" stroke-miterlimit="10" stroke-width="6.82"/><line x1="189.85" y1="99.15" x2="189.85" y2="76.42" fill="none" stroke="#38a0f5" stroke-linecap="round" stroke-miterlimit="10" stroke-width="6.82"/><line x1="159.85" y1="99.15" x2="159.85" y2="76.42" fill="none" stroke="#38a0f5" stroke-linecap="round" stroke-miterlimit="10" stroke-width="6.82"/><line x1="219.85" y1="99.15" x2="219.85" y2="76.42" fill="none" stroke="#38a0f5" stroke-linecap="round" stroke-miterlimit="10" stroke-width="6.82"/><line x1="39.85" y1="99.15" x2="39.85" y2="76.42" fill="none" stroke="#f55656" stroke-linecap="round" stroke-miterlimit="10" stroke-width="6.82"/><line x1="129.85" y1="99.15" x2="129.85" y2="76.42" fill="none" stroke="#f55656" stroke-linecap="round" stroke-miterlimit="10" stroke-width="6.82"/><line x1="99.85" y1="99.15" x2="99.85" y2="76.42" fill="none" stroke="#f55656" stroke-linecap="round" stroke-miterlimit="10" stroke-width="6.82"/><line x1="69.85" y1="99.15" x2="69.85" y2="76.42" fill="none" stroke="#f55656" stroke-linecap="round" stroke-miterlimit="10" stroke-width="6.82"/><line x1="25.35" y1="101.28" x2="567.85" y2="101.28" fill="none" stroke="#34e08f" stroke-linecap="round" stroke-miterlimit="10" stroke-width="8.99"/><text transform="translate(0 107.75)" font-size="20" fill="#e8ecd7" font-family="LouisGeorgeCafe-Bold, Louis George Café" font-weight="700">5<tspan x="12.08" y="0" font-family="MyriadPro-Regular, Myriad Pro" font-weight="400">&apos;</tspan></text><text transform="translate(324.54 40.65)" font-size="20" fill="#e8ecd7" font-family="LouisGeorgeCafe-Bold, Louis George Café" font-weight="700">3<tspan x="11.13" y="0" font-family="MyriadPro-Regular, Myriad Pro" font-weight="400">&apos;</tspan></text><line x1="1059.77" y1="99.15" x2="1059.77" y2="76.42" fill="none" stroke="#f2a13f" stroke-linecap="round" stroke-miterlimit="10" stroke-width="6.82"/><line x1="1029.77" y1="99.15" x2="1029.77" y2="76.42" fill="none" stroke="#f2a13f" stroke-linecap="round" stroke-miterlimit="10" stroke-width="6.82"/><line x1="999.77" y1="99.15" x2="999.77" y2="76.42" fill="none" stroke="#f2a13f" stroke-linecap="round" stroke-miterlimit="10" stroke-width="6.82"/><line x1="969.77" y1="99.15" x2="969.77" y2="76.42" fill="none" stroke="#2ed265" stroke-linecap="round" stroke-miterlimit="10" stroke-width="6.82"/><line x1="939.77" y1="99.15" x2="939.77" y2="76.42" fill="none" stroke="#2ed265" stroke-linecap="round" stroke-miterlimit="10" stroke-width="6.82"/><line x1="909.77" y1="99.15" x2="909.77" y2="76.42" fill="none" stroke="#2ed265" stroke-linecap="round" stroke-miterlimit="10" stroke-width="6.82"/><line x1="879.77" y1="99.15" x2="879.77" y2="76.42" fill="none" stroke="#2ed265" stroke-linecap="round" stroke-miterlimit="10" stroke-width="6.82"/><line x1="849.77" y1="99.15" x2="849.77" y2="76.42" fill="none" stroke="#2ed265" stroke-linecap="round" stroke-miterlimit="10" stroke-width="6.82"/><line x1="819.77" y1="99.15" x2="819.77" y2="76.42" fill="none" stroke="#2ed265" stroke-linecap="round" stroke-miterlimit="10" stroke-width="6.82"/><line x1="789.77" y1="99.15" x2="789.77" y2="76.42" fill="none" stroke="#38a0f5" stroke-linecap="round" stroke-miterlimit="10" stroke-width="6.82"/><line x1="759.77" y1="99.15" x2="759.77" y2="76.42" fill="none" stroke="#38a0f5" stroke-linecap="round" stroke-miterlimit="10" stroke-width="6.82"/><line x1="699.77" y1="99.15" x2="699.77" y2="76.42" fill="none" stroke="#38a0f5" stroke-linecap="round" stroke-miterlimit="10" stroke-width="6.82"/><line x1="669.77" y1="99.15" x2="669.77" y2="76.42" fill="none" stroke="#38a0f5" stroke-linecap="round" stroke-miterlimit="10" stroke-width="6.82"/><line x1="729.77" y1="99.15" x2="729.77" y2="76.42" fill="none" stroke="#38a0f5" stroke-linecap="round" stroke-miterlimit="10" stroke-width="6.82"/><line x1="549.77" y1="99.15" x2="549.77" y2="76.42" fill="none" stroke="#f2a13f" stroke-linecap="round" stroke-miterlimit="10" stroke-width="6.82"/><line x1="639.77" y1="99.15" x2="639.77" y2="76.42" fill="none" stroke="#f2a13f" stroke-linecap="round" stroke-miterlimit="10" stroke-width="6.82"/><line x1="609.77" y1="99.15" x2="609.77" y2="76.42" fill="none" stroke="#f2a13f" stroke-linecap="round" stroke-miterlimit="10" stroke-width="6.82"/><line x1="579.77" y1="99.15" x2="579.77" y2="76.42" fill="none" stroke="#f2a13f" stroke-linecap="round" stroke-miterlimit="10" stroke-width="6.82"/><line x1="535.27" y1="101.28" x2="1077.77" y2="101.28" fill="none" stroke="#34e08f" stroke-linecap="round" stroke-miterlimit="10" stroke-width="8.99"/><text transform="translate(1088.46 107.65)" font-size="20" fill="#e8ecd7" font-family="LouisGeorgeCafe-Bold, Louis George Café" font-weight="700">3<tspan x="11.13" y="0" font-family="MyriadPro-Regular, Myriad Pro" font-weight="400">&apos;</tspan></text><line x1="519.08" y1="60.67" x2="519.08" y2="37.94" fill="none" stroke="#2ed265" stroke-linecap="round" stroke-miterlimit="10" stroke-width="6.82"/><line x1="489.08" y1="60.67" x2="489.08" y2="37.94" fill="none" stroke="#2ed265" stroke-linecap="round" stroke-miterlimit="10" stroke-width="6.82"/><line x1="459.08" y1="60.67" x2="459.08" y2="37.94" fill="none" stroke="#f2a13f" stroke-linecap="round" stroke-miterlimit="10" stroke-width="6.82"/><line x1="429.08" y1="60.67" x2="429.08" y2="37.94" fill="none" stroke="#f2a13f" stroke-linecap="round" stroke-miterlimit="10" stroke-width="6.82"/><line x1="399.08" y1="60.67" x2="399.08" y2="37.94" fill="none" stroke="#f2a13f" stroke-linecap="round" stroke-miterlimit="10" stroke-width="6.82"/><line x1="369.08" y1="60.67" x2="369.08" y2="37.94" fill="none" stroke="#f2a13f" stroke-linecap="round" stroke-miterlimit="10" stroke-width="6.82"/><line x1="519" y1="60.67" x2="519" y2="37.94" fill="none" stroke="#2ed265" stroke-linecap="round" stroke-miterlimit="10" stroke-width="6.82"/><line x1="579" y1="60.67" x2="579" y2="37.94" fill="none" stroke="#2ed265" stroke-linecap="round" stroke-miterlimit="10" stroke-width="6.82"/><line x1="549" y1="60.67" x2="549" y2="37.94" fill="none" stroke="#2ed265" stroke-linecap="round" stroke-miterlimit="10" stroke-width="6.82"/><line x1="849.58" y1="60.67" x2="849.58" y2="37.94" fill="none" stroke="#f2a13f" stroke-linecap="round" stroke-miterlimit="10" stroke-width="6.82"/><line x1="819.58" y1="60.67" x2="819.58" y2="37.94" fill="none" stroke="#f2a13f" stroke-linecap="round" stroke-miterlimit="10" stroke-width="6.82"/><line x1="789.58" y1="60.67" x2="789.58" y2="37.94" fill="none" stroke="#f55656" stroke-linecap="round" stroke-miterlimit="10" stroke-width="6.82"/><line x1="759.58" y1="60.67" x2="759.58" y2="37.94" fill="none" stroke="#f55656" stroke-linecap="round" stroke-miterlimit="10" stroke-width="6.82"/><line x1="729.58" y1="60.67" x2="729.58" y2="37.94" fill="none" stroke="#f55656" stroke-linecap="round" stroke-miterlimit="10" stroke-width="6.82"/><line x1="699.58" y1="60.67" x2="699.58" y2="37.94" fill="none" stroke="#f55656" stroke-linecap="round" stroke-miterlimit="10" stroke-width="6.82"/><line x1="849.51" y1="60.67" x2="849.51" y2="37.94" fill="none" stroke="#f2a13f" stroke-linecap="round" stroke-miterlimit="10" stroke-width="6.82"/><line x1="909.51" y1="60.67" x2="909.51" y2="37.94" fill="none" stroke="#f2a13f" stroke-linecap="round" stroke-miterlimit="10" stroke-width="6.82"/><line x1="879.51" y1="60.67" x2="879.51" y2="37.94" fill="none" stroke="#f2a13f" stroke-linecap="round" stroke-miterlimit="10" stroke-width="6.82"/><text transform="translate(939.66 41.75)" font-size="20" fill="#e8ecd7" font-family="LouisGeorgeCafe-Bold, Louis George Café" font-weight="700">5<tspan x="12.08" y="0" font-family="MyriadPro-Regular, Myriad Pro" font-weight="400">&apos;</tspan></text><text transform="translate(610.66 41.75)" font-size="20" fill="#e8ecd7" font-family="LouisGeorgeCafe-Bold, Louis George Café" font-weight="700">5<tspan x="12.08" y="0" font-family="MyriadPro-Regular, Myriad Pro" font-weight="400">&apos;</tspan></text><text transform="translate(660.14 41.75)" font-size="20" fill="#e8ecd7" font-family="LouisGeorgeCafe-Bold, Louis George Café" font-weight="700">3<tspan x="11.13" y="0" font-family="MyriadPro-Regular, Myriad Pro" font-weight="400">&apos;</tspan></text><line x1="686.53" y1="35.57" x2="926.53" y2="35.57" fill="none" stroke="#34e08f" stroke-linecap="round" stroke-miterlimit="10" stroke-width="8.99"/><line x1="356.02" y1="35.57" x2="596.02" y2="35.57" fill="none" stroke="#34e08f" stroke-linecap="round" stroke-miterlimit="10" stroke-width="8.99"/><circle cx="356.02" cy="35.57" r="4.5" fill="#f55656"/><circle cx="686.39" cy="35.74" r="4.5" fill="#f55656"/><text transform="translate(324.35 17.15)" font-size="20" fill="#e8ecd7" font-family="LouisGeorgeCafe-Bold, Louis George Café" font-weight="700">ddNTP</text><text transform="translate(659.45 17.79)" font-size="20" fill="#e8ecd7" font-family="LouisGeorgeCafe-Bold, Louis George Café" font-weight="700">ddNTP</text></svg>