<?xml version="1.0" standalone="no"?>
<!DOCTYPE svg PUBLIC "-//W3C//DTD SVG 20010904//EN" "http://www.w3.org/TR/2001/REC-SVG-20010904/DTD/svg10.dtd">
<!-- Created using Krita: http://krita.org -->
<svg xmlns="http://www.w3.org/2000/svg" 
    xmlns:xlink="http://www.w3.org/1999/xlink"
    xmlns:krita="http://krita.org/namespaces/svg/krita"
    xmlns:sodipodi="http://sodipodi.sourceforge.net/DTD/sodipodi-0.dtd"
    width="841.923pt"
    height="2620.81pt"
    viewBox="0 0 841.923 2620.81">
<defs/>
<circle id="shape0" transform="translate(-92.1603438811278, 84.4803152243671)" r="236.16088119539" cx="236.16088119539" cy="236.16088119539" fill="#1b2b38" fill-rule="evenodd"/><ellipse id="shape1" transform="translate(449.281676420498, 2158.08805254974)" rx="366.721368360321" ry="366.721368360321" cx="366.721368360321" cy="366.721368360321" fill="#1b2b38" fill-rule="evenodd"/><path id="shape2" transform="translate(-120.015477174638, -26.310744616687)" fill="#1b2b38" fill-rule="evenodd" stroke="#1b2b38" stroke-width="9.60003582095081" stroke-linecap="square" stroke-linejoin="bevel" d="M8.68817 756.726C68.6188 662.395 459.608 705.136 540.977 653.545C622.346 601.954 654.93 506.919 722.812 409.168C790.695 311.417 847.716 224.528 937.321 107.77C1026.93 -8.98816 1010.17 -2.49211 1021.5 1.87304C1064.1 18.2915 1049.93 381.758 988.912 509.634C932.681 627.475 747.16 794.741 644.068 827.324C540.977 859.908 402.407 816.463 282.933 868.054C163.46 919.644 117.606 1021.65 76.5707 1006.53C35.1232 991.265 -21.9574 804.963 8.68817 756.726Z"/><path id="shape3" transform="translate(-355.704315248349, 1099.69654714184)" fill="#1b2b38" fill-rule="evenodd" stroke="#1b2b38" stroke-width="9.60003582095081" stroke-linecap="square" stroke-linejoin="bevel" d="M290.537 62.4519C365.479 28.2391 268.634 7.42182 0 0"/><path id="shape4" transform="translate(-143.159573871102, 980.158016696654)" fill="#1b2b38" fill-rule="evenodd" stroke="#1b2b38" stroke-width="9.60003582095081" stroke-linecap="square" stroke-linejoin="bevel" d="M53.5547 203.713C95.7299 128.877 230.049 59.8019 333.231 32.6489C436.412 5.49593 493.433 -16.2265 629.198 16.3571C764.963 48.9407 781.255 95.1008 949.604 138.546C1117.95 181.99 1096.94 149.07 1120.67 181.99C1205.57 299.805 1174.34 736.029 1074.51 811.94C1063.57 820.26 1027.15 801.289 1006.63 798.364C874.923 779.596 710.837 782.072 564.121 760.349C417.405 738.627 425.551 687.036 281.64 708.759C137.729 730.481 103.012 861.869 69.8465 844.524C-17.1994 799 -23.1775 339.866 53.5547 203.713Z"/><path id="shape5" transform="translate(-151.327713748585, 1806.5850536388)" fill="#1b2b38" fill-rule="evenodd" stroke="#1b2b38" stroke-width="9.60003582095081" stroke-linecap="square" stroke-linejoin="bevel" d="M83.4452 12.6661C129.675 -9.22589 151.328 -17.2022 319.676 113.132C488.025 243.467 515.178 449.829 520.609 512.281C526.039 574.733 528.754 745.797 501.601 810.964C474.448 876.132 489.111 866.356 474.448 876.132C456.966 887.786 402.2 888.738 390.274 876.132C383.339 868.8 394.62 841.642 392.989 827.256C384.516 752.503 395.705 669.769 322.392 580.164C249.079 490.559 224.641 417.246 118.744 376.516C12.8474 335.787 25.5229 358.61 12.8474 335.787C-25.7638 266.265 29.9559 37.9957 83.4452 12.6661Z"/>
</svg>
