<svg id="Ebene_1" data-name="Ebene 1" xmlns="http://www.w3.org/2000/svg" viewBox="0 0 606.75 174.46"><line x1="549.85" y1="26.14" x2="549.85" y2="3.41" fill="none" stroke="#f2a13f" stroke-linecap="round" stroke-miterlimit="10" stroke-width="6.82"/><line x1="519.85" y1="26.14" x2="519.85" y2="3.41" fill="none" stroke="#f2a13f" stroke-linecap="round" stroke-miterlimit="10" stroke-width="6.82"/><line x1="489.85" y1="26.14" x2="489.85" y2="3.41" fill="none" stroke="#f2a13f" stroke-linecap="round" stroke-miterlimit="10" stroke-width="6.82"/><line x1="459.85" y1="26.14" x2="459.85" y2="3.41" fill="none" stroke="#2ed265" stroke-linecap="round" stroke-miterlimit="10" stroke-width="6.82"/><line x1="429.85" y1="26.14" x2="429.85" y2="3.41" fill="none" stroke="#2ed265" stroke-linecap="round" stroke-miterlimit="10" stroke-width="6.82"/><line x1="399.85" y1="26.14" x2="399.85" y2="3.41" fill="none" stroke="#2ed265" stroke-linecap="round" stroke-miterlimit="10" stroke-width="6.82"/><line x1="369.85" y1="26.14" x2="369.85" y2="3.41" fill="none" stroke="#2ed265" stroke-linecap="round" stroke-miterlimit="10" stroke-width="6.82"/><line x1="339.85" y1="26.14" x2="339.85" y2="3.41" fill="none" stroke="#2ed265" stroke-linecap="round" stroke-miterlimit="10" stroke-width="6.82"/><line x1="309.85" y1="26.14" x2="309.85" y2="3.41" fill="none" stroke="#2ed265" stroke-linecap="round" stroke-miterlimit="10" stroke-width="6.82"/><line x1="279.85" y1="26.14" x2="279.85" y2="3.41" fill="none" stroke="#38a0f5" stroke-linecap="round" stroke-miterlimit="10" stroke-width="6.82"/><line x1="249.85" y1="26.14" x2="249.85" y2="3.41" fill="none" stroke="#38a0f5" stroke-linecap="round" stroke-miterlimit="10" stroke-width="6.82"/><line x1="189.85" y1="26.14" x2="189.85" y2="3.41" fill="none" stroke="#38a0f5" stroke-linecap="round" stroke-miterlimit="10" stroke-width="6.82"/><line x1="159.85" y1="26.14" x2="159.85" y2="3.41" fill="none" stroke="#38a0f5" stroke-linecap="round" stroke-miterlimit="10" stroke-width="6.82"/><line x1="219.85" y1="26.14" x2="219.85" y2="3.41" fill="none" stroke="#38a0f5" stroke-linecap="round" stroke-miterlimit="10" stroke-width="6.82"/><line x1="39.85" y1="26.14" x2="39.85" y2="3.41" fill="none" stroke="#f55656" stroke-linecap="round" stroke-miterlimit="10" stroke-width="6.82"/><line x1="129.85" y1="26.14" x2="129.85" y2="3.41" fill="none" stroke="#f55656" stroke-linecap="round" stroke-miterlimit="10" stroke-width="6.82"/><line x1="99.85" y1="26.14" x2="99.85" y2="3.41" fill="none" stroke="#f55656" stroke-linecap="round" stroke-miterlimit="10" stroke-width="6.82"/><line x1="69.85" y1="26.14" x2="69.85" y2="3.41" fill="none" stroke="#f55656" stroke-linecap="round" stroke-miterlimit="10" stroke-width="6.82"/><line x1="25.35" y1="28.28" x2="567.85" y2="28.28" fill="none" stroke="#34e08f" stroke-linecap="round" stroke-miterlimit="10" stroke-width="8.99"/><text transform="translate(0 34.74)" font-size="20" fill="#e8ecd7" font-family="LouisGeorgeCafe-Bold, Louis George Café" font-weight="700">5<tspan x="12.08" y="0" font-family="MyriadPro-Regular, Myriad Pro" font-weight="400">&apos;</tspan></text><text transform="translate(578.54 34.64)" font-size="20" fill="#e8ecd7" font-family="LouisGeorgeCafe-Bold, Louis George Café" font-weight="700">3<tspan x="11.13" y="0" font-family="MyriadPro-Regular, Myriad Pro" font-weight="400">&apos;</tspan></text><rect x="1148.08" y="540.77" width="66" height="66" rx="3.72" transform="translate(99.23 -1121.49) rotate(45.23)" fill="#65dbbc"/><path d="M1176,626.79c-3.71-8.4-7.79-19.24-17-28.36-9.45-9.4-20.75-14.13-29.59-18.47l-.87-.87a2.36,2.36,0,0,1,1.69-4l47.16.19a2.36,2.36,0,0,1,2.35,2.36l-.19,47.16A2.35,2.35,0,0,1,1176,626.79Z" transform="translate(-657.37 -452.69)" fill="#7fefd5"/><path d="M1128.32,568.44c8.39-3.7,19.24-7.79,28.36-17,9.4-9.45,14.12-20.74,18.46-29.59l.88-.86a2.36,2.36,0,0,1,4,1.68l-.19,47.17a2.35,2.35,0,0,1-2.37,2.34l-47.16-.19A2.35,2.35,0,0,1,1128.32,568.44Z" transform="translate(-657.37 -452.69)" fill="#7fefd5"/><path d="M1234.1,578.83c-8.39,3.71-19.24,7.8-28.36,16.95-9.4,9.46-14.12,20.75-18.46,29.59l-.88.87a2.36,2.36,0,0,1-4-1.69l.19-47.16a2.35,2.35,0,0,1,2.36-2.34l47.17.18A2.35,2.35,0,0,1,1234.1,578.83Z" transform="translate(-657.37 -452.69)" fill="#7fefd5"/><path d="M1186.07,520.67c3.71,8.39,7.79,19.24,17,28.36,9.45,9.4,20.75,14.13,29.59,18.47l.87.87a2.36,2.36,0,0,1-1.69,4l-47.16-.19a2.36,2.36,0,0,1-2.35-2.36l.19-47.17A2.35,2.35,0,0,1,1186.07,520.67Z" transform="translate(-657.37 -452.69)" fill="#7fefd5"/><rect x="1003.08" y="539.77" width="66" height="66" rx="3.72" transform="translate(55.64 -1018.84) rotate(45.23)" fill="#65dbbc"/><path d="M1031,625.79c-3.71-8.4-7.79-19.24-17-28.36-9.45-9.4-20.75-14.13-29.59-18.47l-.87-.87a2.36,2.36,0,0,1,1.69-4l47.16.19a2.36,2.36,0,0,1,2.35,2.36l-.19,47.16A2.35,2.35,0,0,1,1031,625.79Z" transform="translate(-657.37 -452.69)" fill="#7fefd5"/><path d="M983.32,567.44c8.39-3.7,19.24-7.79,28.36-17,9.4-9.45,14.12-20.74,18.46-29.59l.88-.86a2.36,2.36,0,0,1,4,1.68l-.19,47.17a2.35,2.35,0,0,1-2.37,2.34L985.31,571A2.35,2.35,0,0,1,983.32,567.44Z" transform="translate(-657.37 -452.69)" fill="#7fefd5"/><path d="M1089.1,577.83c-8.39,3.71-19.24,7.8-28.36,16.95-9.4,9.46-14.12,20.75-18.46,29.59l-.88.87a2.36,2.36,0,0,1-4-1.69l.19-47.16a2.35,2.35,0,0,1,2.36-2.34l47.17.18A2.35,2.35,0,0,1,1089.1,577.83Z" transform="translate(-657.37 -452.69)" fill="#7fefd5"/><path d="M1041.07,519.67c3.71,8.39,7.79,19.24,17,28.36,9.45,9.4,20.75,14.13,29.59,18.47l.87.87a2.36,2.36,0,0,1-1.69,4l-47.16-.19a2.36,2.36,0,0,1-2.35-2.36l.19-47.17A2.35,2.35,0,0,1,1041.07,519.67Z" transform="translate(-657.37 -452.69)" fill="#7fefd5"/><line x1="58.85" y1="101.42" x2="58.85" y2="78.69" fill="none" stroke="#f55656" stroke-linecap="round" stroke-miterlimit="10" stroke-width="6.82"/><line x1="358.85" y1="132.17" x2="358.85" y2="109.44" fill="none" stroke="#2ed265" stroke-linecap="round" stroke-miterlimit="10" stroke-width="6.82"/><rect x="717.23" y="538.46" width="66" height="66" rx="3.72" transform="translate(-29.82 -816.3) rotate(45.23)" fill="#65dbbc"/><path d="M745.16,624.48c-3.71-8.39-7.8-19.24-16.95-28.36-9.46-9.4-20.75-14.12-29.59-18.47l-.87-.87a2.36,2.36,0,0,1,1.69-4l47.16.19a2.35,2.35,0,0,1,2.34,2.36l-.18,47.17A2.35,2.35,0,0,1,745.16,624.48Z" transform="translate(-657.37 -452.69)" fill="#7fefd5"/><path d="M697.46,566.14c8.4-3.71,19.25-7.8,28.36-16.95,9.4-9.46,14.13-20.75,18.47-29.59l.87-.87a2.36,2.36,0,0,1,4,1.69L749,567.58a2.36,2.36,0,0,1-2.37,2.34l-47.16-.18A2.35,2.35,0,0,1,697.46,566.14Z" transform="translate(-657.37 -452.69)" fill="#7fefd5"/><path d="M803.25,576.53c-8.39,3.7-19.24,7.79-28.36,17-9.4,9.45-14.13,20.74-18.47,29.59l-.87.86a2.35,2.35,0,0,1-4-1.68l.19-47.17a2.34,2.34,0,0,1,2.36-2.34l47.17.19A2.35,2.35,0,0,1,803.25,576.53Z" transform="translate(-657.37 -452.69)" fill="#7fefd5"/><path d="M755.22,518.36c3.71,8.4,7.79,19.25,16.95,28.36,9.45,9.4,20.74,14.13,29.59,18.47l.86.87a2.35,2.35,0,0,1-1.68,4l-47.16-.18a2.36,2.36,0,0,1-2.35-2.37l.19-47.16A2.35,2.35,0,0,1,755.22,518.36Z" transform="translate(-657.37 -452.69)" fill="#7fefd5"/><rect x="859.08" y="538.77" width="66" height="66" rx="3.72" transform="translate(12.35 -916.91) rotate(45.23)" fill="#65dbbc"/><path d="M887,624.79c-3.71-8.4-7.79-19.24-17-28.36-9.45-9.4-20.75-14.13-29.59-18.47l-.87-.87a2.36,2.36,0,0,1,1.69-4l47.16.19a2.36,2.36,0,0,1,2.35,2.36l-.19,47.16A2.35,2.35,0,0,1,887,624.79Z" transform="translate(-657.37 -452.69)" fill="#7fefd5"/><path d="M839.32,566.44c8.39-3.7,19.24-7.79,28.36-17,9.4-9.45,14.12-20.74,18.46-29.59L887,519a2.36,2.36,0,0,1,4,1.68l-.19,47.17a2.35,2.35,0,0,1-2.37,2.34L841.31,570A2.35,2.35,0,0,1,839.32,566.44Z" transform="translate(-657.37 -452.69)" fill="#7fefd5"/><path d="M945.1,576.83c-8.39,3.71-19.24,7.8-28.36,16.95-9.4,9.46-14.12,20.75-18.46,29.59l-.88.87a2.36,2.36,0,0,1-4-1.69l.19-47.16a2.35,2.35,0,0,1,2.36-2.34l47.17.18A2.35,2.35,0,0,1,945.1,576.83Z" transform="translate(-657.37 -452.69)" fill="#7fefd5"/><path d="M897.07,518.67c3.71,8.39,7.79,19.24,16.95,28.36,9.45,9.4,20.75,14.13,29.59,18.47l.87.87a2.36,2.36,0,0,1-1.69,4l-47.16-.19a2.36,2.36,0,0,1-2.35-2.36l.19-47.17A2.35,2.35,0,0,1,897.07,518.67Z" transform="translate(-657.37 -452.69)" fill="#7fefd5"/><line x1="148.88" y1="159.61" x2="148.88" y2="136.88" fill="none" stroke="#f55656" stroke-linecap="round" stroke-miterlimit="10" stroke-width="6.82"/><line x1="118.85" y1="154.17" x2="118.85" y2="131.44" fill="none" stroke="#f55656" stroke-linecap="round" stroke-miterlimit="10" stroke-width="6.82"/><line x1="88.9" y1="129.76" x2="88.9" y2="107.03" fill="none" stroke="#f55656" stroke-linecap="round" stroke-miterlimit="10" stroke-width="6.82"/><line x1="180.95" y1="115.17" x2="180.95" y2="92.44" fill="none" stroke="#38a0f5" stroke-linecap="round" stroke-miterlimit="10" stroke-width="6.82"/><line x1="298.85" y1="123.17" x2="298.85" y2="100.44" fill="none" stroke="#38a0f5" stroke-linecap="round" stroke-miterlimit="10" stroke-width="6.82"/><line x1="268.85" y1="155.17" x2="268.85" y2="132.44" fill="none" stroke="#38a0f5" stroke-linecap="round" stroke-miterlimit="10" stroke-width="6.82"/><line x1="238.85" y1="161.17" x2="238.85" y2="138.44" fill="none" stroke="#38a0f5" stroke-linecap="round" stroke-miterlimit="10" stroke-width="6.82"/><line x1="208.85" y1="130.17" x2="208.85" y2="107.44" fill="none" stroke="#38a0f5" stroke-linecap="round" stroke-miterlimit="10" stroke-width="6.82"/><line x1="478.85" y1="115.17" x2="478.85" y2="92.44" fill="none" stroke="#2ed265" stroke-linecap="round" stroke-miterlimit="10" stroke-width="6.82"/><line x1="448.85" y1="118.17" x2="448.85" y2="95.44" fill="none" stroke="#2ed265" stroke-linecap="round" stroke-miterlimit="10" stroke-width="6.82"/><line x1="418.85" y1="153.17" x2="418.85" y2="130.44" fill="none" stroke="#2ed265" stroke-linecap="round" stroke-miterlimit="10" stroke-width="6.82"/><line x1="388.85" y1="163.17" x2="388.85" y2="140.44" fill="none" stroke="#2ed265" stroke-linecap="round" stroke-miterlimit="10" stroke-width="6.82"/><line x1="328.85" y1="114.17" x2="328.85" y2="91.44" fill="none" stroke="#2ed265" stroke-linecap="round" stroke-miterlimit="10" stroke-width="6.82"/><line x1="538.76" y1="169.62" x2="538.76" y2="146.89" fill="none" stroke="#f2a13f" stroke-linecap="round" stroke-miterlimit="10" stroke-width="6.82"/><line x1="508.85" y1="139.17" x2="508.85" y2="116.44" fill="none" stroke="#f2a13f" stroke-linecap="round" stroke-miterlimit="10" stroke-width="6.82"/><path d="M1219.42,611c-25.65,0-60.47-67.29-86.15-67.29-29.78,0-29.52,67.29-59,67.29h-.32c-25.65,0-60.46-67.29-86.15-67.29-29.78,0-29.52,67.29-59,67.29" transform="translate(-657.37 -452.69)" fill="none" stroke="#34e08f" stroke-linecap="round" stroke-miterlimit="10" stroke-width="9.09"/><path d="M695.76,544c25.66,0,60.47,67.29,86.16,67.29,29.78,0,29.52-67.29,59-67.29h.31c25.65,0,60.47,67.29,86.15,67.29,29.78,0,29.53-67.29,59-67.29" transform="translate(-657.37 -452.69)" fill="none" stroke="#34e08f" stroke-linecap="round" stroke-miterlimit="10" stroke-width="9.09"/></svg>